<svg xmlns="http://www.w3.org/2000/svg" xmlns:xlink="http://www.w3.org/1999/xlink" contentStyleType="text/css" height="437px" preserveAspectRatio="none" style="width:439px;height:437px;background:#FFFFFF;" version="1.1" viewBox="0 0 439 437" width="439px" zoomAndPan="magnify"><defs/><g><rect fill="#FFFFFF" height="251.3281" style="stroke:#181818;stroke-width:1.0;" width="10" x="41.5205" y="93.6211"/><rect fill="#FFFFFF" height="31.291" style="stroke:#181818;stroke-width:1.0;" width="10" x="323.1074" y="116.9121"/><rect fill="#FFFFFF" height="31.291" style="stroke:#181818;stroke-width:1.0;" width="10" x="323.1074" y="179.4941"/><rect fill="#FFFFFF" height="31.291" style="stroke:#181818;stroke-width:1.0;" width="10" x="323.1074" y="242.0762"/><rect fill="#FFFFFF" height="31.291" style="stroke:#181818;stroke-width:1.0;" width="10" x="323.1074" y="304.6582"/><line style="stroke:#181818;stroke-width:0.5;stroke-dasharray:5.0,5.0;" x1="46" x2="46" y1="83.6211" y2="353.9492"/><line style="stroke:#181818;stroke-width:0.5;stroke-dasharray:5.0,5.0;" x1="328.0527" x2="328.0527" y1="83.6211" y2="353.9492"/><text fill="#000000" font-family="sans-serif" font-size="14" lengthAdjust="spacing" textLength="77.041" x="5" y="80.1074">Receptionist</text><ellipse cx="46.5205" cy="13.5" fill="#E2E2F0" rx="8" ry="8" style="stroke:#181818;stroke-width:0.5;"/><path d="M46.5205,21.5 L46.5205,48.5 M33.5205,29.5 L59.5205,29.5 M46.5205,48.5 L33.5205,63.5 M46.5205,48.5 L59.5205,63.5 " fill="none" style="stroke:#181818;stroke-width:0.5;"/><text fill="#000000" font-family="sans-serif" font-size="14" lengthAdjust="spacing" textLength="77.041" x="5" y="368.0566">Receptionist</text><ellipse cx="46.5205" cy="380.0703" fill="#E2E2F0" rx="8" ry="8" style="stroke:#181818;stroke-width:0.5;"/><path d="M46.5205,388.0703 L46.5205,415.0703 M33.5205,396.0703 L59.5205,396.0703 M46.5205,415.0703 L33.5205,430.0703 M46.5205,415.0703 L59.5205,430.0703 " fill="none" style="stroke:#181818;stroke-width:0.5;"/><rect fill="#E2E2F0" height="32.6211" rx="2.5" ry="2.5" style="stroke:#181818;stroke-width:0.5;" width="210.1094" x="223.0527" y="50"/><text fill="#000000" font-family="sans-serif" font-size="14" lengthAdjust="spacing" textLength="196.1094" x="230.0527" y="72.1074">Vaccination Scheduling System</text><rect fill="#E2E2F0" height="32.6211" rx="2.5" ry="2.5" style="stroke:#181818;stroke-width:0.5;" width="210.1094" x="223.0527" y="352.9492"/><text fill="#000000" font-family="sans-serif" font-size="14" lengthAdjust="spacing" textLength="196.1094" x="230.0527" y="375.0566">Vaccination Scheduling System</text><rect fill="#FFFFFF" height="251.3281" style="stroke:#181818;stroke-width:1.0;" width="10" x="41.5205" y="93.6211"/><rect fill="#FFFFFF" height="31.291" style="stroke:#181818;stroke-width:1.0;" width="10" x="323.1074" y="116.9121"/><rect fill="#FFFFFF" height="31.291" style="stroke:#181818;stroke-width:1.0;" width="10" x="323.1074" y="179.4941"/><rect fill="#FFFFFF" height="31.291" style="stroke:#181818;stroke-width:1.0;" width="10" x="323.1074" y="242.0762"/><rect fill="#FFFFFF" height="31.291" style="stroke:#181818;stroke-width:1.0;" width="10" x="323.1074" y="304.6582"/><polygon fill="#181818" points="311.1074,112.9121,321.1074,116.9121,311.1074,120.9121,315.1074,116.9121" style="stroke:#181818;stroke-width:1.0;"/><line style="stroke:#181818;stroke-width:1.0;" x1="51.5205" x2="317.1074" y1="116.9121" y2="116.9121"/><text fill="#000000" font-family="sans-serif" font-size="13" font-weight="bold" lengthAdjust="spacing" textLength="7.23" x="58.5205" y="111.6494">1</text><text fill="#000000" font-family="sans-serif" font-size="13" lengthAdjust="spacing" textLength="241.3569" x="69.7505" y="111.6494">request vaccine administration scheduling</text><polygon fill="#181818" points="62.5205,144.2031,52.5205,148.2031,62.5205,152.2031,58.5205,148.2031" style="stroke:#181818;stroke-width:1.0;"/><line style="stroke:#181818;stroke-width:1.0;stroke-dasharray:2.0,2.0;" x1="56.5205" x2="327.1074" y1="148.2031" y2="148.2031"/><text fill="#000000" font-family="sans-serif" font-size="13" font-weight="bold" lengthAdjust="spacing" textLength="7.23" x="68.5205" y="142.9404">2</text><text fill="#000000" font-family="sans-serif" font-size="13" lengthAdjust="spacing" textLength="124.2681" x="79.7505" y="142.9404">display list of facilities</text><polygon fill="#181818" points="311.1074,175.4941,321.1074,179.4941,311.1074,183.4941,315.1074,179.4941" style="stroke:#181818;stroke-width:1.0;"/><line style="stroke:#181818;stroke-width:1.0;" x1="51.5205" x2="317.1074" y1="179.4941" y2="179.4941"/><text fill="#000000" font-family="sans-serif" font-size="13" font-weight="bold" lengthAdjust="spacing" textLength="7.23" x="58.5205" y="174.2314">3</text><text fill="#000000" font-family="sans-serif" font-size="13" lengthAdjust="spacing" textLength="73.6899" x="69.7505" y="174.2314">select facility</text><polygon fill="#181818" points="62.5205,206.7852,52.5205,210.7852,62.5205,214.7852,58.5205,210.7852" style="stroke:#181818;stroke-width:1.0;"/><line style="stroke:#181818;stroke-width:1.0;stroke-dasharray:2.0,2.0;" x1="56.5205" x2="327.1074" y1="210.7852" y2="210.7852"/><text fill="#000000" font-family="sans-serif" font-size="13" font-weight="bold" lengthAdjust="spacing" textLength="7.23" x="68.5205" y="205.5225">4</text><text fill="#000000" font-family="sans-serif" font-size="13" lengthAdjust="spacing" textLength="128.6099" x="79.7505" y="205.5225">display list of vaccines</text><polygon fill="#181818" points="311.1074,238.0762,321.1074,242.0762,311.1074,246.0762,315.1074,242.0762" style="stroke:#181818;stroke-width:1.0;"/><line style="stroke:#181818;stroke-width:1.0;" x1="51.5205" x2="317.1074" y1="242.0762" y2="242.0762"/><text fill="#000000" font-family="sans-serif" font-size="13" font-weight="bold" lengthAdjust="spacing" textLength="7.23" x="58.5205" y="236.8135">5</text><text fill="#000000" font-family="sans-serif" font-size="13" lengthAdjust="spacing" textLength="81.6499" x="69.7505" y="236.8135">select vaccine</text><polygon fill="#181818" points="62.5205,269.3672,52.5205,273.3672,62.5205,277.3672,58.5205,273.3672" style="stroke:#181818;stroke-width:1.0;"/><line style="stroke:#181818;stroke-width:1.0;stroke-dasharray:2.0,2.0;" x1="56.5205" x2="327.1074" y1="273.3672" y2="273.3672"/><text fill="#000000" font-family="sans-serif" font-size="13" font-weight="bold" lengthAdjust="spacing" textLength="7.23" x="68.5205" y="268.1045">6</text><text fill="#000000" font-family="sans-serif" font-size="13" lengthAdjust="spacing" textLength="236.2915" x="79.7505" y="268.1045">request SNS user number, date and time</text><polygon fill="#181818" points="311.1074,300.6582,321.1074,304.6582,311.1074,308.6582,315.1074,304.6582" style="stroke:#181818;stroke-width:1.0;"/><line style="stroke:#181818;stroke-width:1.0;" x1="51.5205" x2="317.1074" y1="304.6582" y2="304.6582"/><text fill="#000000" font-family="sans-serif" font-size="13" font-weight="bold" lengthAdjust="spacing" textLength="7.23" x="58.5205" y="299.3955">7</text><text fill="#000000" font-family="sans-serif" font-size="13" lengthAdjust="spacing" textLength="235.5679" x="69.7505" y="299.3955">provide SNS user number, date and time</text><polygon fill="#181818" points="62.5205,331.9492,52.5205,335.9492,62.5205,339.9492,58.5205,335.9492" style="stroke:#181818;stroke-width:1.0;"/><line style="stroke:#181818;stroke-width:1.0;stroke-dasharray:2.0,2.0;" x1="56.5205" x2="327.1074" y1="335.9492" y2="335.9492"/><text fill="#000000" font-family="sans-serif" font-size="13" font-weight="bold" lengthAdjust="spacing" textLength="7.23" x="68.5205" y="330.6865">8</text><text fill="#000000" font-family="sans-serif" font-size="13" lengthAdjust="spacing" textLength="158.958" x="79.7505" y="330.6865">confirm scheduling success</text><!--SRC=[bP6zJiKm38NtF8Lr5nPAzmuy0WELs8tZtckfIKhiLEhRqx-Bob2ks6BddFCvpjFDRD2cheSUevNGlr0AjV9NuKXSUS5hnk2mM48o6T4OKbphMC8dP-VcVifmUMVYmIH5KRi0AXmRRi1iGZBC4BXy8954NEwWfHlxqakyGZkfSLYzst7DtfY_mjonWkfrbpUGbxddrhW26D07MJHvO-aFoxdD0jNiFgOru4NdNKpGBzcfWmv9UZ5XFSKgzqnsLqx_2Dy7VHYzw_v8lZ-zVMkXA6VOlkSP_B8-Z1vC0fzoXfn6yVp8Viwd53l9uR1Zq4B4gkuR]--></g></svg>