<?xml version="1.0" encoding="us-ascii" standalone="no"?><svg xmlns="http://www.w3.org/2000/svg" xmlns:xlink="http://www.w3.org/1999/xlink" contentStyleType="text/css" height="428.4px" preserveAspectRatio="none" style="width:674px;height:428px;background:#FFFFFF;" version="1.1" viewBox="0 0 674 428" width="674.1px" zoomAndPan="magnify"><defs/><g><text fill="#000000" font-family="sans-serif" font-size="12.6" font-weight="bold" lengthAdjust="spacing" textLength="360.9" x="155.7" y="27.0967">US15 - Get List of Employees by Role - Sequence Diagram</text><rect fill="#FFFFFF" height="226.1953" style="stroke:#181818;stroke-width:0.9;" width="9" x="20.25" y="119.918"/><rect fill="#FFFFFF" height="28.1619" style="stroke:#181818;stroke-width:0.9;" width="9" x="229.95" y="140.8799"/><rect fill="#FFFFFF" height="140.8096" style="stroke:#181818;stroke-width:0.9;" width="9" x="229.95" y="197.2037"/><rect fill="#FFFFFF" height="84.4857" style="stroke:#181818;stroke-width:0.9;" width="9" x="414.9" y="225.3656"/><rect fill="#FFFFFF" height="28.1619" style="stroke:#181818;stroke-width:0.9;" width="9" x="602.1" y="253.5275"/><line style="stroke:#181818;stroke-width:0.45;stroke-dasharray:5.0,5.0;" x1="24.3" x2="24.3" y1="110.918" y2="354.2133"/><line style="stroke:#181818;stroke-width:0.45;stroke-dasharray:5.0,5.0;" x1="234" x2="234" y1="110.918" y2="354.2133"/><line style="stroke:#181818;stroke-width:0.45;stroke-dasharray:5.0,5.0;" x1="419.4" x2="419.4" y1="110.918" y2="354.2133"/><line style="stroke:#181818;stroke-width:0.45;stroke-dasharray:5.0,5.0;" x1="606.6" x2="606.6" y1="110.918" y2="354.2133"/><text fill="#000000" font-family="sans-serif" font-size="12.6" lengthAdjust="spacing" textLength="35.1" x="4.5" y="107.7557">Admin</text><ellipse cx="24.75" cy="47.809" fill="#E2E2F0" rx="7.2" ry="7.2" style="stroke:#181818;stroke-width:0.45;"/><path d="M24.75,55.009 L24.75,79.309 M13.05,62.209 L36.45,62.209 M24.75,79.309 L13.05,92.809 M24.75,79.309 L36.45,92.809 " fill="none" style="stroke:#181818;stroke-width:0.45;"/><text fill="#000000" font-family="sans-serif" font-size="12.6" lengthAdjust="spacing" textLength="35.1" x="4.5" y="366.91">Admin</text><ellipse cx="24.75" cy="377.7223" fill="#E2E2F0" rx="7.2" ry="7.2" style="stroke:#181818;stroke-width:0.45;"/><path d="M24.75,384.9223 L24.75,409.2223 M13.05,392.1223 L36.45,392.1223 M24.75,409.2223 L13.05,422.7223 M24.75,409.2223 L36.45,422.7223 " fill="none" style="stroke:#181818;stroke-width:0.45;"/><rect fill="#E2E2F0" height="29.359" rx="2.25" ry="2.25" style="stroke:#181818;stroke-width:0.45;" width="161.1" x="153.9" y="80.659"/><text fill="#000000" font-family="sans-serif" font-size="12.6" lengthAdjust="spacing" textLength="148.5" x="160.2" y="100.5557">ListEmployeesByRoleView</text><rect fill="#E2E2F0" height="29.359" rx="2.25" ry="2.25" style="stroke:#181818;stroke-width:0.45;" width="161.1" x="153.9" y="353.3133"/><text fill="#000000" font-family="sans-serif" font-size="12.6" lengthAdjust="spacing" textLength="148.5" x="160.2" y="373.21">ListEmployeesByRoleView</text><rect fill="#E2E2F0" height="29.359" rx="2.25" ry="2.25" style="stroke:#181818;stroke-width:0.45;" width="190.8" x="324" y="80.659"/><text fill="#000000" font-family="sans-serif" font-size="12.6" lengthAdjust="spacing" textLength="178.2" x="330.3" y="100.5557">ListEmployeesByRoleController</text><rect fill="#E2E2F0" height="29.359" rx="2.25" ry="2.25" style="stroke:#181818;stroke-width:0.45;" width="190.8" x="324" y="353.3133"/><text fill="#000000" font-family="sans-serif" font-size="12.6" lengthAdjust="spacing" textLength="178.2" x="330.3" y="373.21">ListEmployeesByRoleController</text><rect fill="#E2E2F0" height="29.359" rx="2.25" ry="2.25" style="stroke:#181818;stroke-width:0.45;" width="124.2" x="544.5" y="80.659"/><text fill="#000000" font-family="sans-serif" font-size="12.6" lengthAdjust="spacing" textLength="111.6" x="550.8" y="100.5557">EmployeeContainer</text><rect fill="#E2E2F0" height="29.359" rx="2.25" ry="2.25" style="stroke:#181818;stroke-width:0.45;" width="124.2" x="544.5" y="353.3133"/><text fill="#000000" font-family="sans-serif" font-size="12.6" lengthAdjust="spacing" textLength="111.6" x="550.8" y="373.21">EmployeeContainer</text><rect fill="#FFFFFF" height="226.1953" style="stroke:#181818;stroke-width:0.9;" width="9" x="20.25" y="119.918"/><rect fill="#FFFFFF" height="28.1619" style="stroke:#181818;stroke-width:0.9;" width="9" x="229.95" y="140.8799"/><rect fill="#FFFFFF" height="140.8096" style="stroke:#181818;stroke-width:0.9;" width="9" x="229.95" y="197.2037"/><rect fill="#FFFFFF" height="84.4857" style="stroke:#181818;stroke-width:0.9;" width="9" x="414.9" y="225.3656"/><rect fill="#FFFFFF" height="28.1619" style="stroke:#181818;stroke-width:0.9;" width="9" x="602.1" y="253.5275"/><polygon fill="#181818" points="219.15,137.2799,228.15,140.8799,219.15,144.4799,222.75,140.8799" style="stroke:#181818;stroke-width:0.9;"/><line style="stroke:#181818;stroke-width:0.9;" x1="29.25" x2="224.55" y1="140.8799" y2="140.8799"/><text fill="#000000" font-family="sans-serif" font-size="11.7" font-weight="bold" lengthAdjust="spacing" textLength="6.3" x="35.55" y="136.1435">1</text><text fill="#000000" font-family="sans-serif" font-size="11.7" lengthAdjust="spacing" textLength="173.7" x="45.45" y="136.1435">Request list of employees by role</text><polygon fill="#181818" points="39.15,165.4418,30.15,169.0418,39.15,172.6418,35.55,169.0418" style="stroke:#181818;stroke-width:0.9;"/><line style="stroke:#181818;stroke-width:0.9;stroke-dasharray:2.0,2.0;" x1="33.75" x2="233.55" y1="169.0418" y2="169.0418"/><text fill="#000000" font-family="sans-serif" font-size="11.7" font-weight="bold" lengthAdjust="spacing" textLength="6.3" x="44.55" y="164.3054">2</text><text fill="#000000" font-family="sans-serif" font-size="11.7" lengthAdjust="spacing" textLength="153" x="54.45" y="164.3054">Display role selection options</text><polygon fill="#181818" points="219.15,193.6037,228.15,197.2037,219.15,200.8037,222.75,197.2037" style="stroke:#181818;stroke-width:0.9;"/><line style="stroke:#181818;stroke-width:0.9;" x1="29.25" x2="224.55" y1="197.2037" y2="197.2037"/><text fill="#000000" font-family="sans-serif" font-size="11.7" font-weight="bold" lengthAdjust="spacing" textLength="6.3" x="35.55" y="192.4673">3</text><text fill="#000000" font-family="sans-serif" font-size="11.7" lengthAdjust="spacing" textLength="97.2" x="45.45" y="192.4673">Select desired role</text><polygon fill="#181818" points="404.1,221.7656,413.1,225.3656,404.1,228.9656,407.7,225.3656" style="stroke:#181818;stroke-width:0.9;"/><line style="stroke:#181818;stroke-width:0.9;" x1="238.95" x2="409.5" y1="225.3656" y2="225.3656"/><text fill="#000000" font-family="sans-serif" font-size="11.7" font-weight="bold" lengthAdjust="spacing" textLength="6.3" x="245.25" y="220.6292">4</text><text fill="#000000" font-family="sans-serif" font-size="11.7" lengthAdjust="spacing" textLength="135.9" x="255.15" y="220.6292">requestEmployeeList(role)</text><polygon fill="#181818" points="591.3,249.9275,600.3,253.5275,591.3,257.1275,594.9,253.5275" style="stroke:#181818;stroke-width:0.9;"/><line style="stroke:#181818;stroke-width:0.9;" x1="423.9" x2="596.7" y1="253.5275" y2="253.5275"/><text fill="#000000" font-family="sans-serif" font-size="11.7" font-weight="bold" lengthAdjust="spacing" textLength="6.3" x="430.2" y="248.7911">5</text><text fill="#000000" font-family="sans-serif" font-size="11.7" lengthAdjust="spacing" textLength="151.2" x="440.1" y="248.7911">getEmployeeListByRole(role)</text><polygon fill="#181818" points="433.8,278.0895,424.8,281.6895,433.8,285.2895,430.2,281.6895" style="stroke:#181818;stroke-width:0.9;"/><line style="stroke:#181818;stroke-width:0.9;stroke-dasharray:2.0,2.0;" x1="428.4" x2="605.7" y1="281.6895" y2="281.6895"/><text fill="#000000" font-family="sans-serif" font-size="11.7" font-weight="bold" lengthAdjust="spacing" textLength="6.3" x="439.2" y="276.953">6</text><text fill="#000000" font-family="sans-serif" font-size="11.7" lengthAdjust="spacing" textLength="99.9" x="449.1" y="276.953">list with employees</text><polygon fill="#181818" points="248.85,306.2514,239.85,309.8514,248.85,313.4514,245.25,309.8514" style="stroke:#181818;stroke-width:0.9;"/><line style="stroke:#181818;stroke-width:0.9;stroke-dasharray:2.0,2.0;" x1="243.45" x2="418.5" y1="309.8514" y2="309.8514"/><text fill="#000000" font-family="sans-serif" font-size="11.7" font-weight="bold" lengthAdjust="spacing" textLength="6.3" x="254.25" y="305.1149">7</text><text fill="#000000" font-family="sans-serif" font-size="11.7" lengthAdjust="spacing" textLength="99.9" x="264.15" y="305.1149">list with employees</text><polygon fill="#181818" points="39.15,334.4133,30.15,338.0133,39.15,341.6133,35.55,338.0133" style="stroke:#181818;stroke-width:0.9;"/><line style="stroke:#181818;stroke-width:0.9;stroke-dasharray:2.0,2.0;" x1="33.75" x2="233.55" y1="338.0133" y2="338.0133"/><text fill="#000000" font-family="sans-serif" font-size="11.7" font-weight="bold" lengthAdjust="spacing" textLength="6.3" x="44.55" y="333.2769">8</text><text fill="#000000" font-family="sans-serif" font-size="11.7" lengthAdjust="spacing" textLength="113.4" x="54.45" y="333.2769">view list of employees</text><!--SRC=[XP0xRyCm38Ht_Og3ftRmqA6BXm1z8Kkd6Esks6mgG9PSYKxWVr-9Zj8aBT193tuaxuuDMy9RUtUF6cjYl9h8y1zu6KRhPwA8xOoDJr2DbhucSXtXsUXTq8DIUcAlEpPxpGJlvEscOKiXrJhs0TL3FnXNGKVeV5EZ3cmwCsh7gFAsqwR7EUzvDtGGV9yk_z9Ftd7mrbAGdew3lUmfV0QrSOKhBv6vo5_afOzyebw9W0QRR3fbOe_1q7amQJMfpA5E3TBPf7JYQFLIH2HBQODty6C-ulNyLW3q54sW_dpYIkmq28k2uYIdS9EnMvNhmXKx3NPq0Iuf5RnWedOPBhOEXZz_Z1t7dXJ-XLnxblUlY9Jw1W00]--></g></svg>