<?xml version="1.0" encoding="us-ascii" standalone="no"?><svg xmlns="http://www.w3.org/2000/svg" xmlns:xlink="http://www.w3.org/1999/xlink" contentStyleType="text/css" height="539px" preserveAspectRatio="none" style="width:861px;height:539px;background:#FFFFFF;" version="1.1" viewBox="0 0 861 539" width="861px" zoomAndPan="magnify"><defs/><g><text fill="#000000" font-family="sans-serif" font-size="14" font-weight="bold" lengthAdjust="spacing" textLength="401" x="229.25" y="30.1074">US15 - Get List of Employees by Role - Sequence Diagram</text><rect fill="#FFFFFF" height="313.9102" style="stroke:#181818;stroke-width:1.0;" width="10" x="22.5" y="133.2422"/><rect fill="#FFFFFF" height="31.291" style="stroke:#181818;stroke-width:1.0;" width="10" x="229.5" y="156.5332"/><rect fill="#FFFFFF" height="219.0371" style="stroke:#181818;stroke-width:1.0;" width="10" x="229.5" y="219.1152"/><rect fill="#FFFFFF" height="156.4551" style="stroke:#181818;stroke-width:1.0;" width="10" x="439" y="250.4063"/><rect fill="#FFFFFF" height="31.291" style="stroke:#181818;stroke-width:1.0;" width="10" x="618" y="281.6973"/><rect fill="#FFFFFF" height="31.291" style="stroke:#181818;stroke-width:1.0;" width="10" x="750" y="344.2793"/><line style="stroke:#181818;stroke-width:0.5;stroke-dasharray:5.0,5.0;" x1="27" x2="27" y1="123.2422" y2="456.1523"/><line style="stroke:#181818;stroke-width:0.5;stroke-dasharray:5.0,5.0;" x1="234" x2="234" y1="123.2422" y2="456.1523"/><line style="stroke:#181818;stroke-width:0.5;stroke-dasharray:5.0,5.0;" x1="444" x2="444" y1="123.2422" y2="456.1523"/><line style="stroke:#181818;stroke-width:0.5;stroke-dasharray:5.0,5.0;" x1="622.5" x2="622.5" y1="123.2422" y2="456.1523"/><line style="stroke:#181818;stroke-width:0.5;stroke-dasharray:5.0,5.0;" x1="754.5" x2="754.5" y1="123.2422" y2="456.1523"/><text fill="#000000" font-family="sans-serif" font-size="14" lengthAdjust="spacing" textLength="39" x="5" y="119.7285">Admin</text><ellipse cx="27.5" cy="53.1211" fill="#E2E2F0" rx="8" ry="8" style="stroke:#181818;stroke-width:0.5;"/><path d="M27.5,61.1211 L27.5,88.1211 M14.5,69.1211 L40.5,69.1211 M27.5,88.1211 L14.5,103.1211 M27.5,88.1211 L40.5,103.1211 " fill="none" style="stroke:#181818;stroke-width:0.5;"/><text fill="#000000" font-family="sans-serif" font-size="14" lengthAdjust="spacing" textLength="39" x="5" y="470.2598">Admin</text><ellipse cx="27.5" cy="482.2734" fill="#E2E2F0" rx="8" ry="8" style="stroke:#181818;stroke-width:0.5;"/><path d="M27.5,490.2734 L27.5,517.2734 M14.5,498.2734 L40.5,498.2734 M27.5,517.2734 L14.5,532.2734 M27.5,517.2734 L40.5,532.2734 " fill="none" style="stroke:#181818;stroke-width:0.5;"/><rect fill="#E2E2F0" height="32.6211" rx="2.5" ry="2.5" style="stroke:#181818;stroke-width:0.5;" width="183" x="143" y="89.6211"/><text fill="#000000" font-family="sans-serif" font-size="14" lengthAdjust="spacing" textLength="169" x="150" y="111.7285">:ListEmployeesByRoleView</text><rect fill="#E2E2F0" height="32.6211" rx="2.5" ry="2.5" style="stroke:#181818;stroke-width:0.5;" width="183" x="143" y="455.1523"/><text fill="#000000" font-family="sans-serif" font-size="14" lengthAdjust="spacing" textLength="169" x="150" y="477.2598">:ListEmployeesByRoleView</text><rect fill="#E2E2F0" height="32.6211" rx="2.5" ry="2.5" style="stroke:#181818;stroke-width:0.5;" width="216" x="336" y="89.6211"/><text fill="#000000" font-family="sans-serif" font-size="14" lengthAdjust="spacing" textLength="202" x="343" y="111.7285">:ListEmployeesByRoleController</text><rect fill="#E2E2F0" height="32.6211" rx="2.5" ry="2.5" style="stroke:#181818;stroke-width:0.5;" width="216" x="336" y="455.1523"/><text fill="#000000" font-family="sans-serif" font-size="14" lengthAdjust="spacing" textLength="202" x="343" y="477.2598">:ListEmployeesByRoleController</text><rect fill="#E2E2F0" height="32.6211" rx="2.5" ry="2.5" style="stroke:#181818;stroke-width:0.5;" width="43" x="601.5" y="89.6211"/><text fill="#000000" font-family="sans-serif" font-size="14" lengthAdjust="spacing" textLength="29" x="608.5" y="111.7285">:App</text><rect fill="#E2E2F0" height="32.6211" rx="2.5" ry="2.5" style="stroke:#181818;stroke-width:0.5;" width="43" x="601.5" y="455.1523"/><text fill="#000000" font-family="sans-serif" font-size="14" lengthAdjust="spacing" textLength="29" x="608.5" y="477.2598">:App</text><rect fill="#E2E2F0" height="32.6211" rx="2.5" ry="2.5" style="stroke:#181818;stroke-width:0.5;" width="201" x="654.5" y="89.6211"/><text fill="#000000" font-family="sans-serif" font-size="14" lengthAdjust="spacing" textLength="187" x="661.5" y="111.7285">container:EmployeeContainer</text><rect fill="#E2E2F0" height="32.6211" rx="2.5" ry="2.5" style="stroke:#181818;stroke-width:0.5;" width="201" x="654.5" y="455.1523"/><text fill="#000000" font-family="sans-serif" font-size="14" lengthAdjust="spacing" textLength="187" x="661.5" y="477.2598">container:EmployeeContainer</text><rect fill="#FFFFFF" height="313.9102" style="stroke:#181818;stroke-width:1.0;" width="10" x="22.5" y="133.2422"/><rect fill="#FFFFFF" height="31.291" style="stroke:#181818;stroke-width:1.0;" width="10" x="229.5" y="156.5332"/><rect fill="#FFFFFF" height="219.0371" style="stroke:#181818;stroke-width:1.0;" width="10" x="229.5" y="219.1152"/><rect fill="#FFFFFF" height="156.4551" style="stroke:#181818;stroke-width:1.0;" width="10" x="439" y="250.4063"/><rect fill="#FFFFFF" height="31.291" style="stroke:#181818;stroke-width:1.0;" width="10" x="618" y="281.6973"/><rect fill="#FFFFFF" height="31.291" style="stroke:#181818;stroke-width:1.0;" width="10" x="750" y="344.2793"/><polygon fill="#181818" points="217.5,152.5332,227.5,156.5332,217.5,160.5332,221.5,156.5332" style="stroke:#181818;stroke-width:1.0;"/><line style="stroke:#181818;stroke-width:1.0;" x1="32.5" x2="223.5" y1="156.5332" y2="156.5332"/><text fill="#000000" font-family="sans-serif" font-size="13" font-weight="bold" lengthAdjust="spacing" textLength="7" x="39.5" y="151.2705">1</text><text fill="#000000" font-family="sans-serif" font-size="13" lengthAdjust="spacing" textLength="167" x="50.5" y="151.2705">request employee list by role</text><polygon fill="#181818" points="43.5,183.8242,33.5,187.8242,43.5,191.8242,39.5,187.8242" style="stroke:#181818;stroke-width:1.0;"/><line style="stroke:#181818;stroke-width:1.0;stroke-dasharray:2.0,2.0;" x1="37.5" x2="233.5" y1="187.8242" y2="187.8242"/><text fill="#000000" font-family="sans-serif" font-size="13" font-weight="bold" lengthAdjust="spacing" textLength="7" x="49.5" y="182.5615">2</text><text fill="#000000" font-family="sans-serif" font-size="13" lengthAdjust="spacing" textLength="157" x="60.5" y="182.5615">show role selection options</text><polygon fill="#181818" points="217.5,215.1152,227.5,219.1152,217.5,223.1152,221.5,219.1152" style="stroke:#181818;stroke-width:1.0;"/><line style="stroke:#181818;stroke-width:1.0;" x1="32.5" x2="223.5" y1="219.1152" y2="219.1152"/><text fill="#000000" font-family="sans-serif" font-size="13" font-weight="bold" lengthAdjust="spacing" textLength="7" x="39.5" y="213.8525">3</text><text fill="#000000" font-family="sans-serif" font-size="13" lengthAdjust="spacing" textLength="113" x="50.5" y="213.8525">selects desired role</text><polygon fill="#181818" points="427,246.4063,437,250.4063,427,254.4063,431,250.4063" style="stroke:#181818;stroke-width:1.0;"/><line style="stroke:#181818;stroke-width:1.0;" x1="239.5" x2="433" y1="250.4063" y2="250.4063"/><text fill="#000000" font-family="sans-serif" font-size="13" font-weight="bold" lengthAdjust="spacing" textLength="7" x="246.5" y="245.1436">4</text><text fill="#000000" font-family="sans-serif" font-size="13" lengthAdjust="spacing" textLength="151" x="257.5" y="245.1436">requestEmployeeList(role)</text><polygon fill="#181818" points="606,277.6973,616,281.6973,606,285.6973,610,281.6973" style="stroke:#181818;stroke-width:1.0;"/><line style="stroke:#181818;stroke-width:1.0;" x1="449" x2="612" y1="281.6973" y2="281.6973"/><text fill="#000000" font-family="sans-serif" font-size="13" font-weight="bold" lengthAdjust="spacing" textLength="7" x="456" y="276.4346">5</text><text fill="#000000" font-family="sans-serif" font-size="13" lengthAdjust="spacing" textLength="139" x="467" y="276.4346">getEmployeeContainer()</text><polygon fill="#181818" points="460,308.9883,450,312.9883,460,316.9883,456,312.9883" style="stroke:#181818;stroke-width:1.0;"/><line style="stroke:#181818;stroke-width:1.0;stroke-dasharray:2.0,2.0;" x1="454" x2="622" y1="312.9883" y2="312.9883"/><text fill="#000000" font-family="sans-serif" font-size="13" font-weight="bold" lengthAdjust="spacing" textLength="7" x="466" y="307.7256">6</text><text fill="#000000" font-family="sans-serif" font-size="13" lengthAdjust="spacing" textLength="53" x="477" y="307.7256">container</text><polygon fill="#181818" points="738,340.2793,748,344.2793,738,348.2793,742,344.2793" style="stroke:#181818;stroke-width:1.0;"/><line style="stroke:#181818;stroke-width:1.0;" x1="449" x2="744" y1="344.2793" y2="344.2793"/><text fill="#000000" font-family="sans-serif" font-size="13" font-weight="bold" lengthAdjust="spacing" textLength="7" x="456" y="339.0166">7</text><text fill="#000000" font-family="sans-serif" font-size="13" lengthAdjust="spacing" textLength="168" x="467" y="339.0166">getEmployeeListByRole(role)</text><polygon fill="#181818" points="460,371.5703,450,375.5703,460,379.5703,456,375.5703" style="stroke:#181818;stroke-width:1.0;"/><line style="stroke:#181818;stroke-width:1.0;stroke-dasharray:2.0,2.0;" x1="454" x2="754" y1="375.5703" y2="375.5703"/><text fill="#000000" font-family="sans-serif" font-size="13" font-weight="bold" lengthAdjust="spacing" textLength="7" x="466" y="370.3076">8</text><text fill="#000000" font-family="sans-serif" font-size="13" lengthAdjust="spacing" textLength="98" x="477" y="370.3076">list of employees</text><polygon fill="#181818" points="250.5,402.8613,240.5,406.8613,250.5,410.8613,246.5,406.8613" style="stroke:#181818;stroke-width:1.0;"/><line style="stroke:#181818;stroke-width:1.0;stroke-dasharray:2.0,2.0;" x1="244.5" x2="443" y1="406.8613" y2="406.8613"/><text fill="#000000" font-family="sans-serif" font-size="13" font-weight="bold" lengthAdjust="spacing" textLength="7" x="256.5" y="401.5986">9</text><text fill="#000000" font-family="sans-serif" font-size="13" lengthAdjust="spacing" textLength="98" x="267.5" y="401.5986">list of employees</text><polygon fill="#181818" points="43.5,434.1523,33.5,438.1523,43.5,442.1523,39.5,438.1523" style="stroke:#181818;stroke-width:1.0;"/><line style="stroke:#181818;stroke-width:1.0;stroke-dasharray:2.0,2.0;" x1="37.5" x2="233.5" y1="438.1523" y2="438.1523"/><text fill="#000000" font-family="sans-serif" font-size="13" font-weight="bold" lengthAdjust="spacing" textLength="14" x="49.5" y="432.8896">10</text><text fill="#000000" font-family="sans-serif" font-size="13" lengthAdjust="spacing" textLength="62" x="67.5" y="432.8896">display list</text><!--SRC=[XL8zJyCm4DtzAqwPsY430qk6IgKW5YOgs5tdA9OSszYNLldts9Su3Ud05Dllw-uffCaWV1mV7g66LoHuqv70VS5BvuqR42ES1dXtYLJ34Nzwj0hXMSjpa9qGiYSd5UcB90Hd-MxxxeGXOOfSW6hVTjfM82FmYTz7_dJtCf1MsajBK3KvVyv-6dBofyOh6rpIuN_wmLaApXWCB58Kp4gqzvuXwVrVH2Mfr1P3KpmFvMNqAZSXU7YeTpnK0o5Navh3IGSczvYgIvEWo1oe4vbL3SHlTsK48XfCVJWBpkTFN1kFX0WjHXsmNVhjUBSvkuoSAzbasbPaFFFIeWsSaUwsscn5mdYqqUksOT7UEbawv92nxX9LQ0ipC_rBfPGucSxBtHFMJRKwUYC7PWhn2m00]--></g></svg>