<?xml version="1.0" encoding="us-ascii" standalone="no"?><svg xmlns="http://www.w3.org/2000/svg" xmlns:xlink="http://www.w3.org/1999/xlink" contentStyleType="text/css" height="684px" preserveAspectRatio="none" style="width:312px;height:684px;background:#FFFFFF;" version="1.1" viewBox="0 0 312 684" width="312px" zoomAndPan="magnify"><defs/><g><text fill="#000000" font-family="sans-serif" font-size="14" font-weight="bold" lengthAdjust="spacing" textLength="147" x="75.5" y="25.1074">US15 - Class Diagram</text><!--class Admin--><g id="elem_Admin"><rect codeLine="8" fill="#F1F1F1" height="44.6211" id="Admin" rx="2.5" ry="2.5" style="stroke:#181818;stroke-width:0.5;" width="45" x="133.5" y="46.6211"/><text fill="#000000" font-family="sans-serif" font-size="14" lengthAdjust="spacing" textLength="39" x="136.5" y="66.7285">Admin</text><line style="stroke:#181818;stroke-width:0.5;" x1="134.5" x2="177.5" y1="75.2422" y2="75.2422"/><line style="stroke:#181818;stroke-width:0.5;" x1="134.5" x2="177.5" y1="83.2422" y2="83.2422"/></g><!--class Employee--><g id="elem_Employee"><rect codeLine="11" fill="#F1F1F1" height="137.7266" id="Employee" rx="2.5" ry="2.5" style="stroke:#181818;stroke-width:0.5;" width="113" x="99.5" y="539.6211"/><text fill="#000000" font-family="sans-serif" font-size="14" lengthAdjust="spacing" textLength="62" x="125" y="559.7285">Employee</text><line style="stroke:#181818;stroke-width:0.5;" x1="100.5" x2="211.5" y1="568.2422" y2="568.2422"/><text fill="#000000" font-family="sans-serif" font-size="14" lengthAdjust="spacing" textLength="40" x="105.5" y="587.3496">-name</text><text fill="#000000" font-family="sans-serif" font-size="14" lengthAdjust="spacing" textLength="94" x="105.5" y="605.9707">-postal_adress</text><text fill="#000000" font-family="sans-serif" font-size="14" lengthAdjust="spacing" textLength="101" x="105.5" y="624.5918">-phone_number</text><text fill="#000000" font-family="sans-serif" font-size="14" lengthAdjust="spacing" textLength="38" x="105.5" y="643.2129">-email</text><text fill="#000000" font-family="sans-serif" font-size="14" lengthAdjust="spacing" textLength="29" x="105.5" y="661.834">-role</text><line style="stroke:#181818;stroke-width:0.5;" x1="100.5" x2="211.5" y1="669.3477" y2="669.3477"/></g><!--class EmployeeContainer--><g id="elem_EmployeeContainer"><rect codeLine="19" fill="#F1F1F1" height="63.2422" id="EmployeeContainer" rx="2.5" ry="2.5" style="stroke:#181818;stroke-width:0.5;" width="203" x="54.5" y="416.6211"/><text fill="#000000" font-family="sans-serif" font-size="14" lengthAdjust="spacing" textLength="124" x="94" y="436.7285">EmployeeContainer</text><line style="stroke:#181818;stroke-width:0.5;" x1="55.5" x2="256.5" y1="445.2422" y2="445.2422"/><line style="stroke:#181818;stroke-width:0.5;" x1="55.5" x2="256.5" y1="453.2422" y2="453.2422"/><text fill="#000000" font-family="sans-serif" font-size="14" lengthAdjust="spacing" textLength="191" x="60.5" y="472.3496">+getEmployeeListByRole(role)</text></g><!--class ListEmployeesByRoleView--><g id="elem_ListEmployeesByRoleView"><rect codeLine="23" fill="#F1F1F1" height="63.2422" id="ListEmployeesByRoleView" rx="2.5" ry="2.5" style="stroke:#181818;stroke-width:0.5;" width="286" x="13" y="151.6211"/><text fill="#000000" font-family="sans-serif" font-size="14" lengthAdjust="spacing" textLength="165" x="73.5" y="171.7285">ListEmployeesByRoleView</text><line style="stroke:#181818;stroke-width:0.5;" x1="14" x2="298" y1="180.2422" y2="180.2422"/><text fill="#000000" font-family="sans-serif" font-size="14" lengthAdjust="spacing" textLength="274" x="19" y="199.3496">-controller : ListEmployeesByRoleController</text><line style="stroke:#181818;stroke-width:0.5;" x1="14" x2="298" y1="206.8633" y2="206.8633"/></g><!--class ListEmployeesByRoleController--><g id="elem_ListEmployeesByRoleController"><rect codeLine="26" fill="#F1F1F1" height="81.8633" id="ListEmployeesByRoleController" rx="2.5" ry="2.5" style="stroke:#181818;stroke-width:0.5;" width="298" x="7" y="274.6211"/><text fill="#000000" font-family="sans-serif" font-size="14" lengthAdjust="spacing" textLength="198" x="57" y="294.7285">ListEmployeesByRoleController</text><line style="stroke:#181818;stroke-width:0.5;" x1="8" x2="304" y1="303.2422" y2="303.2422"/><text fill="#000000" font-family="sans-serif" font-size="14" lengthAdjust="spacing" textLength="200" x="13" y="322.3496">-container : EmployeeContainer</text><line style="stroke:#181818;stroke-width:0.5;" x1="8" x2="304" y1="329.8633" y2="329.8633"/><text fill="#000000" font-family="sans-serif" font-size="14" lengthAdjust="spacing" textLength="286" x="13" y="348.9707">+requestEmployeeList(role) : List&lt;Employee&gt;</text></g><!--link Admin to ListEmployeesByRoleView--><g id="link_Admin_ListEmployeesByRoleView"><path codeLine="31" d="M156,91.7111 C156,108.6211 156,126.3611 156,145.2711 " fill="none" id="Admin-to-ListEmployeesByRoleView" style="stroke:#181818;stroke-width:1.0;"/><polygon fill="#181818" points="156,151.2711,160,142.2711,156,146.2711,152,142.2711,156,151.2711" style="stroke:#181818;stroke-width:1.0;"/></g><!--link ListEmployeesByRoleView to ListEmployeesByRoleController--><g id="link_ListEmployeesByRoleView_ListEmployeesByRoleController"><path codeLine="32" d="M156,214.7211 C156,232.5011 156,249.1111 156,268.3311 " fill="none" id="ListEmployeesByRoleView-to-ListEmployeesByRoleController" style="stroke:#181818;stroke-width:1.0;"/><polygon fill="#181818" points="156,274.3311,160,265.3311,156,269.3311,152,265.3311,156,274.3311" style="stroke:#181818;stroke-width:1.0;"/></g><!--link ListEmployeesByRoleController to EmployeeContainer--><g id="link_ListEmployeesByRoleController_EmployeeContainer"><path codeLine="33" d="M156,356.8411 C156,376.0111 156,392.5811 156,410.3611 " fill="none" id="ListEmployeesByRoleController-to-EmployeeContainer" style="stroke:#181818;stroke-width:1.0;"/><polygon fill="#181818" points="156,416.3611,160,407.3611,156,411.3611,152,407.3611,156,416.3611" style="stroke:#181818;stroke-width:1.0;"/></g><!--link EmployeeContainer to Employee--><g id="link_EmployeeContainer_Employee"><path codeLine="34" d="M156,479.6811 C156,496.6811 156,512.5711 156,533.4111 " fill="none" id="EmployeeContainer-to-Employee" style="stroke:#181818;stroke-width:1.0;"/><polygon fill="#181818" points="156,539.4111,160,530.4111,156,534.4111,152,530.4111,156,539.4111" style="stroke:#181818;stroke-width:1.0;"/></g><!--SRC=[VL4zJyCm4DtzAsu4eKWmi5IeKWaCbPYeOAskoQazuO_KlWWLn7_7TaXQ2EbsllVXzsnXqGGlgvjRAA3K608yC6uz6gLsN1DKx2jDAhonRJ2keKgaXOZdJIkqh9nTyGV1jL8gGx2e3TlXz6WQxGv4yAaWNc7HK1uQ5mJr6cjF8NIRdREqjgtPaCyBCiWwJzx525z_BKjd1TcIpzvNMv8UUU8WzuVdgBf8qikZDY4zAtIKLwRt72vMaKZNqN3s7x4SyEWtQNTa3QPToDauU8hjQTzI-1Mz2_qJugv7vgb5VbmeYlbK4pMndzASb3gBPlsumFWlJddg6m00]--></g></svg>