<svg xmlns="http://www.w3.org/2000/svg" xmlns:xlink="http://www.w3.org/1999/xlink" contentStyleType="text/css" height="1736px" preserveAspectRatio="none" style="width:740px;height:1736px;background:#FFFFFF;" version="1.1" viewBox="0 0 740 1736" width="740px" zoomAndPan="magnify"><defs/><g><!--class Vaccine--><g id="elem_Vaccine"><rect codeLine="8" fill="#F1F1F1" height="111.1055" id="Vaccine" rx="2.5" ry="2.5" style="stroke:#181818;stroke-width:0.5;" width="131.0342" x="42.5" y="622"/><text fill="#000000" font-family="sans-serif" font-size="14" lengthAdjust="spacing" textLength="49.8066" x="83.1138" y="642.1074">Vaccine</text><line style="stroke:#181818;stroke-width:0.5;" x1="43.5" x2="172.5342" y1="650.6211" y2="650.6211"/><text fill="#000000" font-family="sans-serif" font-size="14" lengthAdjust="spacing" textLength="119.0342" x="48.5" y="669.7285">-commercial_name</text><text fill="#000000" font-family="sans-serif" font-size="14" lengthAdjust="spacing" textLength="40.4688" x="48.5" y="688.3496">-brand</text><text fill="#000000" font-family="sans-serif" font-size="14" lengthAdjust="spacing" textLength="31.124" x="48.5" y="706.9707">-type</text><text fill="#000000" font-family="sans-serif" font-size="14" lengthAdjust="spacing" textLength="72.3789" x="48.5" y="725.5918">-technology</text></g><!--class Vaccine_Type--><g id="elem_Vaccine_Type"><rect codeLine="15" fill="#F1F1F1" height="73.8633" id="Vaccine_Type" rx="2.5" ry="2.5" style="stroke:#181818;stroke-width:0.5;" width="123.2754" x="94.5" y="1636.5"/><text fill="#000000" font-family="sans-serif" font-size="14" lengthAdjust="spacing" textLength="88.7168" x="111.7793" y="1656.6074">Vaccine_Type</text><line style="stroke:#181818;stroke-width:0.5;" x1="95.5" x2="216.7754" y1="1665.1211" y2="1665.1211"/><text fill="#000000" font-family="sans-serif" font-size="14" lengthAdjust="spacing" textLength="52.917" x="100.5" y="1684.2285">-disease</text><text fill="#000000" font-family="sans-serif" font-size="14" lengthAdjust="spacing" textLength="111.2754" x="100.5" y="1702.8496">-short_description</text></g><!--class Facility--><g id="elem_Facility"><rect codeLine="20" fill="#F1F1F1" height="204.2109" id="Facility" rx="2.5" ry="2.5" style="stroke:#181818;stroke-width:0.5;" width="169.1924" x="296.5" y="7"/><text fill="#000000" font-family="sans-serif" font-size="14" lengthAdjust="spacing" textLength="43.5586" x="359.3169" y="27.1074">Facility</text><line style="stroke:#181818;stroke-width:0.5;" x1="297.5" x2="464.6924" y1="35.6211" y2="35.6211"/><text fill="#000000" font-family="sans-serif" font-size="14" lengthAdjust="spacing" textLength="39.6826" x="302.5" y="54.7285">-name</text><text fill="#000000" font-family="sans-serif" font-size="14" lengthAdjust="spacing" textLength="91.8271" x="302.5" y="73.3496">-postal_adress</text><text fill="#000000" font-family="sans-serif" font-size="14" lengthAdjust="spacing" textLength="98.8477" x="302.5" y="91.9707">-phone_number</text><text fill="#000000" font-family="sans-serif" font-size="14" lengthAdjust="spacing" textLength="38.1172" x="302.5" y="110.5918">-email</text><text fill="#000000" font-family="sans-serif" font-size="14" lengthAdjust="spacing" textLength="101.9375" x="302.5" y="129.2129">-website_adress</text><text fill="#000000" font-family="sans-serif" font-size="14" lengthAdjust="spacing" textLength="97.2959" x="302.5" y="147.834">-opening_hours</text><text fill="#000000" font-family="sans-serif" font-size="14" lengthAdjust="spacing" textLength="91.0479" x="302.5" y="166.4551">-closing_hours</text><text fill="#000000" font-family="sans-serif" font-size="14" lengthAdjust="spacing" textLength="157.1924" x="302.5" y="185.0762">-max_vaccines_per_hour</text><text fill="#000000" font-family="sans-serif" font-size="14" lengthAdjust="spacing" textLength="77.8066" x="302.5" y="203.6973">-facility_type</text></g><!--class Employee--><g id="elem_Employee"><rect codeLine="32" fill="#F1F1F1" height="129.7266" id="Employee" rx="2.5" ry="2.5" style="stroke:#181818;stroke-width:0.5;" width="110.8477" x="180.5" y="290"/><text fill="#000000" font-family="sans-serif" font-size="14" lengthAdjust="spacing" textLength="62.2549" x="204.7964" y="310.1074">Employee</text><line style="stroke:#181818;stroke-width:0.5;" x1="181.5" x2="290.3477" y1="318.6211" y2="318.6211"/><text fill="#000000" font-family="sans-serif" font-size="14" lengthAdjust="spacing" textLength="39.6826" x="186.5" y="337.7285">-name</text><text fill="#000000" font-family="sans-serif" font-size="14" lengthAdjust="spacing" textLength="91.8271" x="186.5" y="356.3496">-postal_adress</text><text fill="#000000" font-family="sans-serif" font-size="14" lengthAdjust="spacing" textLength="98.8477" x="186.5" y="374.9707">-phone_number</text><text fill="#000000" font-family="sans-serif" font-size="14" lengthAdjust="spacing" textLength="38.1172" x="186.5" y="393.5918">-email</text><text fill="#000000" font-family="sans-serif" font-size="14" lengthAdjust="spacing" textLength="96.4961" x="186.5" y="412.2129">-employee_role</text></g><!--class SNS_User--><g id="elem_SNS_User"><rect codeLine="41" fill="#F1F1F1" height="185.5898" id="SNS_User" rx="2.5" ry="2.5" style="stroke:#181818;stroke-width:0.5;" width="135.7236" x="375" y="1039"/><text fill="#000000" font-family="sans-serif" font-size="14" lengthAdjust="spacing" textLength="66.1309" x="409.7964" y="1059.1074">SNS_User</text><line style="stroke:#181818;stroke-width:0.5;" x1="376" x2="509.7236" y1="1067.6211" y2="1067.6211"/><text fill="#000000" font-family="sans-serif" font-size="14" lengthAdjust="spacing" textLength="39.6826" x="381" y="1086.7285">-name</text><text fill="#000000" font-family="sans-serif" font-size="14" lengthAdjust="spacing" textLength="66.9307" x="381" y="1105.3496">-date_birth</text><text fill="#000000" font-family="sans-serif" font-size="14" lengthAdjust="spacing" textLength="26.4482" x="381" y="1123.9707">-sex</text><text fill="#000000" font-family="sans-serif" font-size="14" lengthAdjust="spacing" textLength="91.8271" x="381" y="1142.5918">-postal_adress</text><text fill="#000000" font-family="sans-serif" font-size="14" lengthAdjust="spacing" textLength="98.8477" x="381" y="1161.2129">-phone_number</text><text fill="#000000" font-family="sans-serif" font-size="14" lengthAdjust="spacing" textLength="38.1172" x="381" y="1179.834">-email</text><text fill="#000000" font-family="sans-serif" font-size="14" lengthAdjust="spacing" textLength="80.1377" x="381" y="1198.4551">-CC_number</text><text fill="#000000" font-family="sans-serif" font-size="14" lengthAdjust="spacing" textLength="123.7236" x="381" y="1217.0762">-SNS_user_number</text></g><!--class Vaccination_Appointment--><g id="elem_Vaccination_Appointment"><rect codeLine="54" fill="#F1F1F1" height="111.1055" id="Vaccination_Appointment" rx="2.5" ry="2.5" style="stroke:#181818;stroke-width:0.5;" width="164.7715" x="257.5" y="1366"/><text fill="#000000" font-family="sans-serif" font-size="14" lengthAdjust="spacing" textLength="158.7715" x="260.5" y="1386.1074">Vaccination_Appointment</text><line style="stroke:#181818;stroke-width:0.5;" x1="258.5" x2="421.2715" y1="1394.6211" y2="1394.6211"/><text fill="#000000" font-family="sans-serif" font-size="14" lengthAdjust="spacing" textLength="43.5586" x="263.5" y="1413.7285">-facility</text><text fill="#000000" font-family="sans-serif" font-size="14" lengthAdjust="spacing" textLength="42.0137" x="263.5" y="1432.3496">-status</text><text fill="#000000" font-family="sans-serif" font-size="14" lengthAdjust="spacing" textLength="31.9102" x="263.5" y="1450.9707">-date</text><text fill="#000000" font-family="sans-serif" font-size="14" lengthAdjust="spacing" textLength="31.1104" x="263.5" y="1469.5918">-time</text></g><!--class Current_Outbreak--><g id="elem_Current_Outbreak"><rect codeLine="61" fill="#F1F1F1" height="111.1055" id="Current_Outbreak" rx="2.5" ry="2.5" style="stroke:#181818;stroke-width:0.5;" width="118.0547" x="311" y="1618"/><text fill="#000000" font-family="sans-serif" font-size="14" lengthAdjust="spacing" textLength="112.0547" x="314" y="1638.1074">Current_Outbreak</text><line style="stroke:#181818;stroke-width:0.5;" x1="312" x2="428.0547" y1="1646.6211" y2="1646.6211"/><text fill="#000000" font-family="sans-serif" font-size="14" lengthAdjust="spacing" textLength="52.917" x="317" y="1665.7285">-disease</text><text fill="#000000" font-family="sans-serif" font-size="14" lengthAdjust="spacing" textLength="66.9238" x="317" y="1684.3496">-start_date</text><text fill="#000000" font-family="sans-serif" font-size="14" lengthAdjust="spacing" textLength="63.0547" x="317" y="1702.9707">-end_date</text><text fill="#000000" font-family="sans-serif" font-size="14" lengthAdjust="spacing" textLength="66.1309" x="317" y="1721.5918">-is_current</text></g><!--class Community_Mass_Vaccination_Center--><g id="elem_Community_Mass_Vaccination_Center"><rect codeLine="68" fill="#F1F1F1" height="36.6211" id="Community_Mass_Vaccination_Center" rx="2.5" ry="2.5" style="stroke:#181818;stroke-width:0.5;" width="247.999" x="327" y="336.5"/><text fill="#000000" font-family="sans-serif" font-size="14" lengthAdjust="spacing" textLength="241.999" x="330" y="356.6074">Community_Mass_Vaccination_Center</text><line style="stroke:#181818;stroke-width:0.5;" x1="328" x2="573.999" y1="365.1211" y2="365.1211"/></g><!--class Healthcare_Center--><g id="elem_Healthcare_Center"><rect codeLine="71" fill="#F1F1F1" height="36.6211" id="Healthcare_Center" rx="2.5" ry="2.5" style="stroke:#181818;stroke-width:0.5;" width="123.5098" x="610" y="336.5"/><text fill="#000000" font-family="sans-serif" font-size="14" lengthAdjust="spacing" textLength="117.5098" x="613" y="356.6074">Healthcare_Center</text><line style="stroke:#181818;stroke-width:0.5;" x1="611" x2="732.5098" y1="365.1211" y2="365.1211"/></g><!--class Nurse--><g id="elem_Nurse"><rect codeLine="74" fill="#F1F1F1" height="111.1055" id="Nurse" rx="2.5" ry="2.5" style="stroke:#181818;stroke-width:0.5;" width="110.8477" x="178.5" y="481"/><text fill="#000000" font-family="sans-serif" font-size="14" lengthAdjust="spacing" textLength="37.3447" x="215.2515" y="501.1074">Nurse</text><line style="stroke:#181818;stroke-width:0.5;" x1="179.5" x2="288.3477" y1="509.6211" y2="509.6211"/><text fill="#000000" font-family="sans-serif" font-size="14" lengthAdjust="spacing" textLength="39.6826" x="184.5" y="528.7285">-name</text><text fill="#000000" font-family="sans-serif" font-size="14" lengthAdjust="spacing" textLength="91.8271" x="184.5" y="547.3496">-postal_adress</text><text fill="#000000" font-family="sans-serif" font-size="14" lengthAdjust="spacing" textLength="98.8477" x="184.5" y="565.9707">-phone_number</text><text fill="#000000" font-family="sans-serif" font-size="14" lengthAdjust="spacing" textLength="38.1172" x="184.5" y="584.5918">-email</text></g><!--class Receptionist--><g id="elem_Receptionist"><rect codeLine="81" fill="#F1F1F1" height="111.1055" id="Receptionist" rx="2.5" ry="2.5" style="stroke:#181818;stroke-width:0.5;" width="110.8477" x="324.5" y="481"/><text fill="#000000" font-family="sans-serif" font-size="14" lengthAdjust="spacing" textLength="77.041" x="341.4033" y="501.1074">Receptionist</text><line style="stroke:#181818;stroke-width:0.5;" x1="325.5" x2="434.3477" y1="509.6211" y2="509.6211"/><text fill="#000000" font-family="sans-serif" font-size="14" lengthAdjust="spacing" textLength="39.6826" x="330.5" y="528.7285">-name</text><text fill="#000000" font-family="sans-serif" font-size="14" lengthAdjust="spacing" textLength="91.8271" x="330.5" y="547.3496">-postal_adress</text><text fill="#000000" font-family="sans-serif" font-size="14" lengthAdjust="spacing" textLength="98.8477" x="330.5" y="565.9707">-phone_number</text><text fill="#000000" font-family="sans-serif" font-size="14" lengthAdjust="spacing" textLength="38.1172" x="330.5" y="584.5918">-email</text></g><!--class Event--><g id="elem_Event"><rect codeLine="88" fill="#F1F1F1" height="111.1055" id="Event" rx="2.5" ry="2.5" style="stroke:#181818;stroke-width:0.5;" width="124.0342" x="169" y="1076.5"/><text fill="#000000" font-family="sans-serif" font-size="14" lengthAdjust="spacing" textLength="35.7998" x="213.1172" y="1096.6074">Event</text><line style="stroke:#181818;stroke-width:0.5;" x1="170" x2="292.0342" y1="1105.1211" y2="1105.1211"/><text fill="#000000" font-family="sans-serif" font-size="14" lengthAdjust="spacing" textLength="112.0342" x="175" y="1124.2285">-user_arrival_time</text><text fill="#000000" font-family="sans-serif" font-size="14" lengthAdjust="spacing" textLength="40.4688" x="175" y="1142.8496">-brand</text><text fill="#000000" font-family="sans-serif" font-size="14" lengthAdjust="spacing" textLength="74.7031" x="175" y="1161.4707">-lot_number</text><text fill="#000000" font-family="sans-serif" font-size="14" lengthAdjust="spacing" textLength="96.5029" x="175" y="1180.0918">-reaction_notes</text></g><!--class Administrator--><g id="elem_Administrator"><rect codeLine="95" fill="#F1F1F1" height="92.4844" id="Administrator" rx="2.5" ry="2.5" style="stroke:#181818;stroke-width:0.5;" width="110.8477" x="76.5" y="63"/><text fill="#000000" font-family="sans-serif" font-size="14" lengthAdjust="spacing" textLength="82.4688" x="90.6895" y="83.1074">Administrator</text><line style="stroke:#181818;stroke-width:0.5;" x1="77.5" x2="186.3477" y1="91.6211" y2="91.6211"/><text fill="#000000" font-family="sans-serif" font-size="14" lengthAdjust="spacing" textLength="39.6826" x="82.5" y="110.7285">-name</text><text fill="#000000" font-family="sans-serif" font-size="14" lengthAdjust="spacing" textLength="38.1172" x="82.5" y="129.3496">-email</text><text fill="#000000" font-family="sans-serif" font-size="14" lengthAdjust="spacing" textLength="98.8477" x="82.5" y="147.9707">-phone_number</text></g><!--class Vaccine_Certificate--><g id="elem_Vaccine_Certificate"><rect codeLine="101" fill="#F1F1F1" height="55.2422" id="Vaccine_Certificate" rx="2.5" ry="2.5" style="stroke:#181818;stroke-width:0.5;" width="126.6133" x="170.5" y="843"/><text fill="#000000" font-family="sans-serif" font-size="14" lengthAdjust="spacing" textLength="120.6133" x="173.5" y="863.1074">Vaccine_Certificate</text><line style="stroke:#181818;stroke-width:0.5;" x1="171.5" x2="296.1133" y1="871.6211" y2="871.6211"/><text fill="#000000" font-family="sans-serif" font-size="14" lengthAdjust="spacing" textLength="67.7031" x="176.5" y="890.7285">-issue_day</text></g><!--reverse link Employee to Nurse--><g id="link_Employee_Nurse"><path codeLine="105" d="M235.0824,438.0388 C234.8524,457.9788 234.82,461.76 234.61,480.98 " fill="none" id="Employee-backto-Nurse" style="stroke:#181818;stroke-width:1.0;"/><polygon fill="none" points="235.29,420.04,229.0828,437.9696,241.082,438.108,235.29,420.04" style="stroke:#181818;stroke-width:1.0;"/></g><!--reverse link Employee to Receptionist--><g id="link_Employee_Receptionist"><path codeLine="106" d="M298.6408,434.0826 C314.6308,454.0226 320.85,461.76 336.26,480.98 " fill="none" id="Employee-backto-Receptionist" style="stroke:#181818;stroke-width:1.0;"/><polygon fill="none" points="287.38,420.04,293.96,437.8362,303.3217,430.329,287.38,420.04" style="stroke:#181818;stroke-width:1.0;"/></g><!--reverse link Facility to Community_Mass_Vaccination_Center--><g id="link_Facility_Community_Mass_Vaccination_Center"><path codeLine="108" d="M414.9443,228.3119 C428.4843,275.5019 438.3,309.72 445.88,336.15 " fill="none" id="Facility-backto-Community_Mass_Vaccination_Center" style="stroke:#181818;stroke-width:1.0;"/><polygon fill="none" points="409.98,211.01,409.1771,229.9667,420.7116,226.6571,409.98,211.01" style="stroke:#181818;stroke-width:1.0;"/></g><!--reverse link Facility to Healthcare_Center--><g id="link_Facility_Healthcare_Center"><path codeLine="109" d="M479.3533,192.4649 C543.2933,246.0749 612.59,304.19 650.93,336.33 " fill="none" id="Facility-backto-Healthcare_Center" style="stroke:#181818;stroke-width:1.0;"/><polygon fill="none" points="465.56,180.9,475.4983,197.0626,483.2082,187.8671,465.56,180.9" style="stroke:#181818;stroke-width:1.0;"/></g><!--reverse link Facility to Employee--><g id="link_Facility_Employee"><path codeLine="111" d="M317.9139,216.1674 C302.0939,242.7774 288.53,265.61 274.21,289.7 " fill="none" id="Facility-backto-Employee" style="stroke:#181818;stroke-width:1.0;"/><polygon fill="#181818" points="320.98,211.01,312.9425,216.702,318.4249,215.3078,319.8191,220.7902,320.98,211.01" style="stroke:#181818;stroke-width:1.0;"/><text fill="#000000" font-family="sans-serif" font-size="13" lengthAdjust="spacing" textLength="47.6772" x="301" y="256.0283">works in</text><text fill="#000000" font-family="sans-serif" font-size="13" lengthAdjust="spacing" textLength="19.5127" x="296.8864" y="233.1568">0..*</text><text fill="#000000" font-family="sans-serif" font-size="13" lengthAdjust="spacing" textLength="7.23" x="271.0273" y="278.6873">1</text></g><!--link Administrator to Employee--><g id="link_Administrator_Employee"><path codeLine="113" d="M151.2,155.04 C167.34,192.91 188.2464,241.9709 206.3364,284.3909 " fill="none" id="Administrator-to-Employee" style="stroke:#181818;stroke-width:1.0;"/><polygon fill="#181818" points="208.69,289.91,208.839,280.0623,206.7287,285.3107,201.4802,283.2004,208.69,289.91" style="stroke:#181818;stroke-width:1.0;"/><text fill="#000000" font-family="sans-serif" font-size="13" lengthAdjust="spacing" textLength="43.3481" x="195" y="256.0283">register</text><text fill="#000000" font-family="sans-serif" font-size="13" lengthAdjust="spacing" textLength="7.23" x="146.6333" y="177.405">1</text><text fill="#000000" font-family="sans-serif" font-size="13" lengthAdjust="spacing" textLength="19.5127" x="185.7003" y="278.9203">1..*</text></g><!--link Administrator to Vaccine--><g id="link_Administrator_Vaccine"><path codeLine="115" d="M127.84,155.08 C124.65,191.46 120.38,243.99 118,290 C111.88,408.15 109.5237,540.8105 108.6037,615.7405 " fill="none" id="Administrator-to-Vaccine" style="stroke:#181818;stroke-width:1.0;"/><polygon fill="#181818" points="108.53,621.74,112.6402,612.7898,108.5914,616.7404,104.6408,612.6916,108.53,621.74" style="stroke:#181818;stroke-width:1.0;"/><text fill="#000000" font-family="sans-serif" font-size="13" lengthAdjust="spacing" textLength="43.3481" x="119" y="360.5283">register</text><text fill="#000000" font-family="sans-serif" font-size="13" lengthAdjust="spacing" textLength="7.23" x="119.6963" y="177.4511">1</text><text fill="#000000" font-family="sans-serif" font-size="13" lengthAdjust="spacing" textLength="19.5127" x="88.4114" y="610.5469">1..*</text></g><!--link Administrator to Facility--><g id="link_Administrator_Facility"><path codeLine="117" d="M187.57,109 C219.53,109 254.35,109 290.24,109 " fill="none" id="Administrator-to-Facility" style="stroke:#181818;stroke-width:1.0;"/><polygon fill="#181818" points="296.24,109,287.24,105,291.24,109,287.24,113,296.24,109" style="stroke:#181818;stroke-width:1.0;"/><text fill="#000000" font-family="sans-serif" font-size="13" lengthAdjust="spacing" textLength="43.3481" x="220.5" y="102.0283">register</text><text fill="#000000" font-family="sans-serif" font-size="13" lengthAdjust="spacing" textLength="7.23" x="195.1628" y="104.9269">1</text><text fill="#000000" font-family="sans-serif" font-size="13" lengthAdjust="spacing" textLength="19.5127" x="268.8592" y="105.2749">1..*</text></g><!--link Administrator to Vaccine_Type--><g id="link_Administrator_Vaccine_Type"><path codeLine="119" d="M92.13,155.02 C55.22,201.48 6,277.72 6,354 C6,354 6,354 6,1548.5 C6,1596.82 47.3861,1627.2636 88.7061,1647.0036 " fill="none" id="Administrator-to-Vaccine_Type" style="stroke:#181818;stroke-width:1.0;"/><polygon fill="#181818" points="94.12,1649.59,87.7234,1642.1011,89.6084,1647.4347,84.2749,1649.3197,94.12,1649.59" style="stroke:#181818;stroke-width:1.0;"/><text fill="#000000" font-family="sans-serif" font-size="13" lengthAdjust="spacing" textLength="51.3018" x="7" y="974.0283">specify a</text><text fill="#000000" font-family="sans-serif" font-size="13" lengthAdjust="spacing" textLength="7.23" x="78.5182" y="177.3819">1</text><text fill="#000000" font-family="sans-serif" font-size="13" lengthAdjust="spacing" textLength="19.5127" x="66.8804" y="1642.8956">1..*</text></g><!--link SNS_User to Vaccination_Appointment--><g id="link_SNS_User_Vaccination_Appointment"><path codeLine="121" d="M409.99,1225.15 C393.39,1271.47 375.8746,1320.3819 361.6546,1360.0519 " fill="none" id="SNS_User-to-Vaccination_Appointment" style="stroke:#181818;stroke-width:1.0;"/><polygon fill="#181818" points="359.63,1365.7,366.4323,1358.5776,361.3172,1360.9933,358.9015,1355.8781,359.63,1365.7" style="stroke:#181818;stroke-width:1.0;"/><text fill="#000000" font-family="sans-serif" font-size="13" lengthAdjust="spacing" textLength="49.1309" x="390" y="1301.0283">makes a</text><text fill="#000000" font-family="sans-serif" font-size="13" lengthAdjust="spacing" textLength="7.23" x="400.3274" y="1246.669">1</text><text fill="#000000" font-family="sans-serif" font-size="13" lengthAdjust="spacing" textLength="21.6836" x="339.7983" y="1354.9031">0..1</text></g><!--reverse link Vaccine_Type to Current_Outbreak--><g id="link_Vaccine_Type_Current_Outbreak"><path codeLine="125" d="M223.61,1673.5 C252.87,1673.5 281.7,1673.5 310.66,1673.5 " fill="none" id="Vaccine_Type-backto-Current_Outbreak" style="stroke:#181818;stroke-width:1.0;"/><polygon fill="#181818" points="217.61,1673.5,226.61,1677.5,222.61,1673.5,226.61,1669.5,217.61,1673.5" style="stroke:#181818;stroke-width:1.0;"/><text fill="#000000" font-family="sans-serif" font-size="13" lengthAdjust="spacing" textLength="57.8081" x="235.75" y="1666.5283">correlated</text><text fill="#000000" font-family="sans-serif" font-size="13" lengthAdjust="spacing" textLength="7.23" x="225.9493" y="1669.4667">1</text><text fill="#000000" font-family="sans-serif" font-size="13" lengthAdjust="spacing" textLength="7.23" x="295.6199" y="1669.4511">1</text></g><!--link Vaccine to Vaccine_Type--><g id="link_Vaccine_Vaccine_Type"><path codeLine="127" d="M110.37,733.05 C111.23,757.23 112,786.03 112,812 C112,812 112,812 112,1548.5 C112,1579.34 121.6468,1606.7193 133.2068,1630.8393 " fill="none" id="Vaccine-to-Vaccine_Type" style="stroke:#181818;stroke-width:1.0;"/><polygon fill="#181818" points="135.8,1636.25,135.5174,1626.4052,133.639,1631.7411,128.3031,1629.8628,135.8,1636.25" style="stroke:#181818;stroke-width:1.0;"/><text fill="#000000" font-family="sans-serif" font-size="13" lengthAdjust="spacing" textLength="20.96" x="113" y="1137.5283">has</text><text fill="#000000" font-family="sans-serif" font-size="13" lengthAdjust="spacing" textLength="19.5127" x="90.4871" y="755.2966">0..*</text><text fill="#000000" font-family="sans-serif" font-size="13" lengthAdjust="spacing" textLength="7.23" x="124.5744" y="1625.1672">1</text></g><!--link Nurse to Vaccine_Certificate--><g id="link_Nurse_Vaccine_Certificate"><path codeLine="129" d="M234,592.32 C234,664.52 234,782.64 234,836.86 " fill="none" id="Nurse-to-Vaccine_Certificate" style="stroke:#181818;stroke-width:1.0;"/><polygon fill="#181818" points="234,842.86,238,833.86,234,837.86,230,833.86,234,842.86" style="stroke:#181818;stroke-width:1.0;"/><polygon fill="#000000" points="239,777.6455,241.9389,768.6004,236.0611,768.6004,239,777.6455" style="stroke:#000000;stroke-width:1.0;"/><text fill="#000000" font-family="sans-serif" font-size="13" lengthAdjust="spacing" textLength="42.6309" x="248" y="778.0283">creates</text><text fill="#000000" font-family="sans-serif" font-size="13" lengthAdjust="spacing" textLength="7.23" x="226.5967" y="614.1986">1</text><text fill="#000000" font-family="sans-serif" font-size="13" lengthAdjust="spacing" textLength="19.5127" x="212.9071" y="831.5366">0..*</text></g><!--link Vaccine_Certificate to Event--><g id="link_Vaccine_Certificate_Event"><path codeLine="131" d="M233.69,898.29 C233.21,940.12 232.3292,1015.7904 231.6992,1070.3804 " fill="none" id="Vaccine_Certificate-to-Event" style="stroke:#181818;stroke-width:1.0;"/><polygon fill="#181818" points="231.63,1076.38,235.7336,1067.4268,231.6877,1071.3803,227.7341,1067.3344,231.63,1076.38" style="stroke:#181818;stroke-width:1.0;"/><text fill="#000000" font-family="sans-serif" font-size="13" lengthAdjust="spacing" textLength="56.3608" x="234" y="974.0283">issued for</text><text fill="#000000" font-family="sans-serif" font-size="13" lengthAdjust="spacing" textLength="21.6836" x="210.4424" y="920.2621">0..1</text><text fill="#000000" font-family="sans-serif" font-size="13" lengthAdjust="spacing" textLength="7.23" x="224.2748" y="1065.2048">1</text></g><!--link Vaccination_Appointment to Vaccine_Type--><g id="link_Vaccination_Appointment_Vaccine_Type"><path codeLine="133" d="M304.22,1477.02 C282.33,1509.71 253.36,1551.82 226,1588 C213.7,1604.26 203.32,1617.0965 190.9,1631.8765 " fill="none" id="Vaccination_Appointment-to-Vaccine_Type" style="stroke:#181818;stroke-width:1.0;"/><polygon fill="#181818" points="187.04,1636.47,195.8924,1632.1531,190.2567,1632.6421,189.7677,1627.0064,187.04,1636.47" style="stroke:#181818;stroke-width:1.0;"/><text fill="#000000" font-family="sans-serif" font-size="13" lengthAdjust="spacing" textLength="57.8081" x="264" y="1553.0283">correlated</text><text fill="#000000" font-family="sans-serif" font-size="13" lengthAdjust="spacing" textLength="7.23" x="292.2166" y="1499.2628">1</text><text fill="#000000" font-family="sans-serif" font-size="13" lengthAdjust="spacing" textLength="7.23" x="185.1135" y="1625.1432">1</text></g><!--reverse link Event to Vaccination_Appointment--><g id="link_Event_Vaccination_Appointment"><path codeLine="135" d="M253.8864,1193.3605 C273.2764,1244.5205 299.95,1314.86 319.32,1365.95 " fill="none" id="Event-backto-Vaccination_Appointment" style="stroke:#181818;stroke-width:1.0;"/><polygon fill="#181818" points="251.76,1187.75,251.2093,1197.5834,253.532,1192.4255,258.69,1194.7482,251.76,1187.75" style="stroke:#181818;stroke-width:1.0;"/><text fill="#000000" font-family="sans-serif" font-size="13" lengthAdjust="spacing" textLength="57.8208" x="297" y="1301.0283">generates</text><text fill="#000000" font-family="sans-serif" font-size="13" lengthAdjust="spacing" textLength="21.6836" x="232.05" y="1209.6201">0..1</text><text fill="#000000" font-family="sans-serif" font-size="13" lengthAdjust="spacing" textLength="7.23" x="309.2513" y="1354.7838">1</text></g><!--link Event to SNS_User--><g id="link_Event_SNS_User"><path codeLine="137" d="M293.17,1132 C318.83,1132 342.65,1132 368.89,1132 " fill="none" id="Event-to-SNS_User" style="stroke:#181818;stroke-width:1.0;"/><polygon fill="#181818" points="374.89,1132,365.89,1128,369.89,1132,365.89,1136,374.89,1132" style="stroke:#181818;stroke-width:1.0;"/><text fill="#000000" font-family="sans-serif" font-size="13" lengthAdjust="spacing" textLength="45.5381" x="311.5" y="1125.0283">belongs</text><text fill="#000000" font-family="sans-serif" font-size="13" lengthAdjust="spacing" textLength="19.5127" x="301.0351" y="1146.9682">0..*</text><text fill="#000000" font-family="sans-serif" font-size="13" lengthAdjust="spacing" textLength="7.23" x="359.6394" y="1128.086">1</text></g><!--link Event to Vaccine_Type--><g id="link_Event_Vaccine_Type"><path codeLine="139" d="M215.14,1187.81 C207.51,1218.84 200,1258.53 200,1294.5 C200,1294.5 200,1294.5 200,1548.5 C200,1579.34 190.3532,1606.7193 178.7932,1630.8393 " fill="none" id="Event-to-Vaccine_Type" style="stroke:#181818;stroke-width:1.0;"/><polygon fill="#181818" points="176.2,1636.25,183.6969,1629.8628,178.361,1631.7411,176.4826,1626.4052,176.2,1636.25" style="stroke:#181818;stroke-width:1.0;"/><text fill="#000000" font-family="sans-serif" font-size="13" lengthAdjust="spacing" textLength="20.96" x="201" y="1427.0283">has</text><text fill="#000000" font-family="sans-serif" font-size="13" lengthAdjust="spacing" textLength="7.23" x="205.7924" y="1209.6874">1</text><text fill="#000000" font-family="sans-serif" font-size="13" lengthAdjust="spacing" textLength="7.23" x="172.1706" y="1625.1672">1</text></g><!--reverse link Vaccine_Certificate to SNS_User--><g id="link_Vaccine_Certificate_SNS_User"><path codeLine="141" d="M259.3431,902.9632 C287.2931,937.6732 333.57,995.13 374.92,1046.47 " fill="none" id="Vaccine_Certificate-backto-SNS_User" style="stroke:#181818;stroke-width:1.0;"/><polygon fill="#181818" points="255.58,898.29,258.1091,907.8086,258.7159,902.1844,264.3401,902.7911,255.58,898.29" style="stroke:#181818;stroke-width:1.0;"/><text fill="#000000" font-family="sans-serif" font-size="13" lengthAdjust="spacing" textLength="20.96" x="321" y="974.0283">has</text><text fill="#000000" font-family="sans-serif" font-size="13" lengthAdjust="spacing" textLength="21.6836" x="237.1208" y="920.2621">0..1</text><text fill="#000000" font-family="sans-serif" font-size="13" lengthAdjust="spacing" textLength="7.23" x="359.6728" y="1032.6666">1</text></g><!--SRC=[hLLDRvmm4BtxLrXSAbKY7rTKHOfMgTf3KwbfUqN6pC9eZOriasJRvhztC1zhs4qZfU44Oxytps_6mxlQ-zPbv-Uj4jftZJgJfZcNIZYNbYWgAnhcTgXRGMyynA-zjrXq7ZvBe-_m5_0BLcC9NAAL2eRt1dnjIiVe2I3-KqY96lXlnkb9EQLfm4eKAjUYWJ5QMA7ByTtlsodiGTRQA5FjsTEACFzEssRM4Xq8Dy5SRQpFIt3IOklHw0Fwev2eqEzdP2IYDSwJB55QS6wArOPowQufm8uXQ0IgyVq12eSUbXZJWaPTvRNfx1IJohXrh16F-Vrm6fUtOCFYkBOTTUR1ZLd-JTCgimTu8_amqkNMg91bJ7DtUvV_S61FfIa5dRT0w-l9RNXylOBDPhdMP-ueynHzMdUIwEkPNxUjGUqRq7xME5asoVB2TouIFVKKDf6XcyvQ8ic_Thwm87RFTPGNVKSTM42NyIUwN0vC4JLrUgVx6dwXppoMlw6DmTrvyoSGojTIM3YnU4izy_ybd-c-WOHmBT3vjsEzkO-B4MeehCLxOWgM7rzqPVoIaGeWWp_QU707wkkomLwi5TwSxCcuenPAZwR61gp7BKegtKo4pdL0rGn3PhvX7_wawU3yAXRRnzWyKCBQYpLVxJygUoGWkKnushNf5KykpixU9uVPbV47OtUEesPiwKt0MAngd_Quou2R63CokAAjVPOJiD8yw0WrElO2Q9rhqlYgN66cPzor876xvuAnUH0jKUJ7PVBSGCXeiEx0zN36Zkvt85Am7KMlSqj3-nLrHydOzEiQxO_FkeRLWdvvmpKzKXgTB-e-IaLwgCtvrPnfqPtZ8IEhak6EPKF3bdnhx0Gzdeh96llIEP-Xe0OyE3xchq23xRLJjuPRVzAXgNOPBq0PNHrs_rDQi79HzwXUSU5NTWOSOty1]--></g></svg>