<svg xmlns="http://www.w3.org/2000/svg" xmlns:xlink="http://www.w3.org/1999/xlink" contentStyleType="text/css" height="908px" preserveAspectRatio="none" style="width:1250px;height:908px;background:#FFFFFF;" version="1.1" viewBox="0 0 1250 908" width="1250px" zoomAndPan="magnify"><defs/><g><rect fill="#FFFFFF" height="722.4414" style="stroke:#181818;stroke-width:1.0;" width="10" x="22.8413" y="93.6211"/><rect fill="#FFFFFF" height="31.291" style="stroke:#181818;stroke-width:1.0;" width="10" x="310.8755" y="116.9121"/><rect fill="#FFFFFF" height="262.6582" style="stroke:#181818;stroke-width:1.0;" width="10" x="310.8755" y="179.4941"/><rect fill="#FFFFFF" height="333.6191" style="stroke:#181818;stroke-width:1.0;" width="10" x="310.8755" y="473.4434"/><rect fill="#FFFFFF" height="200.0762" style="stroke:#181818;stroke-width:1.0;" width="10" x="592.4561" y="210.7852"/><rect fill="#FFFFFF" height="271.0371" style="stroke:#181818;stroke-width:1.0;" width="10" x="592.4561" y="504.7344"/><rect fill="#FFFFFF" height="31.291" style="stroke:#181818;stroke-width:1.0;" width="10" x="768.5322" y="242.0762"/><rect fill="#FFFFFF" height="74.9121" style="stroke:#181818;stroke-width:1.0;" width="10" x="921.7075" y="304.6582"/><rect fill="#FFFFFF" height="208.4551" style="stroke:#181818;stroke-width:1.0;" width="10" x="921.7075" y="536.0254"/><rect fill="#FFFFFF" height="42.291" style="stroke:#181818;stroke-width:1.0;" width="10" x="926.7075" y="575.3164"/><rect fill="#FFFFFF" height="42.291" style="stroke:#181818;stroke-width:1.0;" width="10" x="926.7075" y="663.8984"/><line style="stroke:#181818;stroke-width:0.5;stroke-dasharray:5.0,5.0;" x1="27" x2="27" y1="83.6211" y2="825.0625"/><line style="stroke:#181818;stroke-width:0.5;stroke-dasharray:5.0,5.0;" x1="315.7896" x2="315.7896" y1="83.6211" y2="825.0625"/><line style="stroke:#181818;stroke-width:0.5;stroke-dasharray:5.0,5.0;" x1="597.1978" x2="597.1978" y1="83.6211" y2="825.0625"/><line style="stroke:#181818;stroke-width:0.5;stroke-dasharray:5.0,5.0;" x1="773.353" x2="773.353" y1="83.6211" y2="825.0625"/><line style="stroke:#181818;stroke-width:0.5;stroke-dasharray:5.0,5.0;" x1="925.7114" x2="925.7114" y1="83.6211" y2="825.0625"/><line style="stroke:#181818;stroke-width:0.5;stroke-dasharray:5.0,5.0;" x1="1198.8218" x2="1198.8218" y1="344.4688" y2="825.0625"/><text fill="#000000" font-family="sans-serif" font-size="14" lengthAdjust="spacing" textLength="39.6826" x="5" y="80.1074">Admin</text><ellipse cx="27.8413" cy="13.5" fill="#E2E2F0" rx="8" ry="8" style="stroke:#181818;stroke-width:0.5;"/><path d="M27.8413,21.5 L27.8413,48.5 M14.8413,29.5 L40.8413,29.5 M27.8413,48.5 L14.8413,63.5 M27.8413,48.5 L40.8413,63.5 " fill="none" style="stroke:#181818;stroke-width:0.5;"/><text fill="#000000" font-family="sans-serif" font-size="14" lengthAdjust="spacing" textLength="39.6826" x="5" y="839.1699">Admin</text><ellipse cx="27.8413" cy="851.1836" fill="#E2E2F0" rx="8" ry="8" style="stroke:#181818;stroke-width:0.5;"/><path d="M27.8413,859.1836 L27.8413,886.1836 M14.8413,867.1836 L40.8413,867.1836 M27.8413,886.1836 L14.8413,901.1836 M27.8413,886.1836 L40.8413,901.1836 " fill="none" style="stroke:#181818;stroke-width:0.5;"/><rect fill="#E2E2F0" height="32.6211" rx="2.5" ry="2.5" style="stroke:#181818;stroke-width:0.5;" width="150.1719" x="240.7896" y="50"/><text fill="#000000" font-family="sans-serif" font-size="14" lengthAdjust="spacing" textLength="136.1719" x="247.7896" y="72.1074">:RegisterVaccineView</text><rect fill="#E2E2F0" height="32.6211" rx="2.5" ry="2.5" style="stroke:#181818;stroke-width:0.5;" width="150.1719" x="240.7896" y="824.0625"/><text fill="#000000" font-family="sans-serif" font-size="14" lengthAdjust="spacing" textLength="136.1719" x="247.7896" y="846.1699">:RegisterVaccineView</text><rect fill="#E2E2F0" height="32.6211" rx="2.5" ry="2.5" style="stroke:#181818;stroke-width:0.5;" width="180.5166" x="507.1978" y="50"/><text fill="#000000" font-family="sans-serif" font-size="14" lengthAdjust="spacing" textLength="166.5166" x="514.1978" y="72.1074">:RegisterVaccineController</text><rect fill="#E2E2F0" height="32.6211" rx="2.5" ry="2.5" style="stroke:#181818;stroke-width:0.5;" width="180.5166" x="507.1978" y="824.0625"/><text fill="#000000" font-family="sans-serif" font-size="14" lengthAdjust="spacing" textLength="166.5166" x="514.1978" y="846.1699">:RegisterVaccineController</text><rect fill="#E2E2F0" height="32.6211" rx="2.5" ry="2.5" style="stroke:#181818;stroke-width:0.5;" width="100.3584" x="723.353" y="50"/><text fill="#000000" font-family="sans-serif" font-size="14" lengthAdjust="spacing" textLength="86.3584" x="730.353" y="72.1074">:Administrator</text><rect fill="#E2E2F0" height="32.6211" rx="2.5" ry="2.5" style="stroke:#181818;stroke-width:0.5;" width="100.3584" x="723.353" y="824.0625"/><text fill="#000000" font-family="sans-serif" font-size="14" lengthAdjust="spacing" textLength="86.3584" x="730.353" y="846.1699">:Administrator</text><rect fill="#E2E2F0" height="32.6211" rx="2.5" ry="2.5" style="stroke:#181818;stroke-width:0.5;" width="185.9922" x="833.7114" y="50"/><text fill="#000000" font-family="sans-serif" font-size="14" lengthAdjust="spacing" textLength="171.9922" x="840.7114" y="72.1074">container:VaccineContainer</text><rect fill="#E2E2F0" height="32.6211" rx="2.5" ry="2.5" style="stroke:#181818;stroke-width:0.5;" width="185.9922" x="833.7114" y="824.0625"/><text fill="#000000" font-family="sans-serif" font-size="14" lengthAdjust="spacing" textLength="171.9922" x="840.7114" y="846.1699">container:VaccineContainer</text><rect fill="#E2E2F0" height="32.6211" rx="2.5" ry="2.5" style="stroke:#181818;stroke-width:0.5;" width="89.4824" x="1154.8218" y="824.0625"/><text fill="#000000" font-family="sans-serif" font-size="14" lengthAdjust="spacing" textLength="75.4824" x="1161.8218" y="846.1699">vac:Vaccine</text><rect fill="#FFFFFF" height="722.4414" style="stroke:#181818;stroke-width:1.0;" width="10" x="22.8413" y="93.6211"/><rect fill="#FFFFFF" height="31.291" style="stroke:#181818;stroke-width:1.0;" width="10" x="310.8755" y="116.9121"/><rect fill="#FFFFFF" height="262.6582" style="stroke:#181818;stroke-width:1.0;" width="10" x="310.8755" y="179.4941"/><rect fill="#FFFFFF" height="333.6191" style="stroke:#181818;stroke-width:1.0;" width="10" x="310.8755" y="473.4434"/><rect fill="#FFFFFF" height="200.0762" style="stroke:#181818;stroke-width:1.0;" width="10" x="592.4561" y="210.7852"/><rect fill="#FFFFFF" height="271.0371" style="stroke:#181818;stroke-width:1.0;" width="10" x="592.4561" y="504.7344"/><rect fill="#FFFFFF" height="31.291" style="stroke:#181818;stroke-width:1.0;" width="10" x="768.5322" y="242.0762"/><rect fill="#FFFFFF" height="74.9121" style="stroke:#181818;stroke-width:1.0;" width="10" x="921.7075" y="304.6582"/><rect fill="#FFFFFF" height="208.4551" style="stroke:#181818;stroke-width:1.0;" width="10" x="921.7075" y="536.0254"/><rect fill="#FFFFFF" height="42.291" style="stroke:#181818;stroke-width:1.0;" width="10" x="926.7075" y="575.3164"/><rect fill="#FFFFFF" height="42.291" style="stroke:#181818;stroke-width:1.0;" width="10" x="926.7075" y="663.8984"/><polygon fill="#181818" points="298.8755,112.9121,308.8755,116.9121,298.8755,120.9121,302.8755,116.9121" style="stroke:#181818;stroke-width:1.0;"/><line style="stroke:#181818;stroke-width:1.0;" x1="32.8413" x2="304.8755" y1="116.9121" y2="116.9121"/><text fill="#000000" font-family="sans-serif" font-size="13" font-weight="bold" lengthAdjust="spacing" textLength="7.23" x="39.8413" y="111.6494">1</text><text fill="#000000" font-family="sans-serif" font-size="13" lengthAdjust="spacing" textLength="174.1353" x="51.0713" y="111.6494">asks to register a new vaccine</text><polygon fill="#181818" points="43.8413,144.2031,33.8413,148.2031,43.8413,152.2031,39.8413,148.2031" style="stroke:#181818;stroke-width:1.0;"/><line style="stroke:#181818;stroke-width:1.0;stroke-dasharray:2.0,2.0;" x1="37.8413" x2="314.8755" y1="148.2031" y2="148.2031"/><text fill="#000000" font-family="sans-serif" font-size="13" font-weight="bold" lengthAdjust="spacing" textLength="7.23" x="49.8413" y="142.9404">2</text><text fill="#000000" font-family="sans-serif" font-size="13" lengthAdjust="spacing" textLength="234.1396" x="61.0713" y="142.9404">requests data (name, brand, technology)</text><polygon fill="#181818" points="298.8755,175.4941,308.8755,179.4941,298.8755,183.4941,302.8755,179.4941" style="stroke:#181818;stroke-width:1.0;"/><line style="stroke:#181818;stroke-width:1.0;" x1="32.8413" x2="304.8755" y1="179.4941" y2="179.4941"/><text fill="#000000" font-family="sans-serif" font-size="13" font-weight="bold" lengthAdjust="spacing" textLength="7.23" x="39.8413" y="174.2314">3</text><text fill="#000000" font-family="sans-serif" font-size="13" lengthAdjust="spacing" textLength="121.418" x="51.0713" y="174.2314">types requested data</text><polygon fill="#181818" points="580.4561,206.7852,590.4561,210.7852,580.4561,214.7852,584.4561,210.7852" style="stroke:#181818;stroke-width:1.0;"/><line style="stroke:#181818;stroke-width:1.0;" x1="320.8755" x2="586.4561" y1="210.7852" y2="210.7852"/><text fill="#000000" font-family="sans-serif" font-size="13" font-weight="bold" lengthAdjust="spacing" textLength="7.23" x="327.8755" y="205.5225">4</text><text fill="#000000" font-family="sans-serif" font-size="13" lengthAdjust="spacing" textLength="241.3506" x="339.1055" y="205.5225">registerVaccine(name, brand, technology)</text><polygon fill="#181818" points="756.5322,238.0762,766.5322,242.0762,756.5322,246.0762,760.5322,242.0762" style="stroke:#181818;stroke-width:1.0;"/><line style="stroke:#181818;stroke-width:1.0;" x1="602.4561" x2="762.5322" y1="242.0762" y2="242.0762"/><text fill="#000000" font-family="sans-serif" font-size="13" font-weight="bold" lengthAdjust="spacing" textLength="7.23" x="609.4561" y="236.8135">5</text><text fill="#000000" font-family="sans-serif" font-size="13" lengthAdjust="spacing" textLength="135.8462" x="620.686" y="236.8135">getVaccinesContainer()</text><polygon fill="#181818" points="613.4561,269.3672,603.4561,273.3672,613.4561,277.3672,609.4561,273.3672" style="stroke:#181818;stroke-width:1.0;"/><line style="stroke:#181818;stroke-width:1.0;stroke-dasharray:2.0,2.0;" x1="607.4561" x2="772.5322" y1="273.3672" y2="273.3672"/><text fill="#000000" font-family="sans-serif" font-size="13" font-weight="bold" lengthAdjust="spacing" textLength="7.23" x="619.4561" y="268.1045">6</text><text fill="#000000" font-family="sans-serif" font-size="13" lengthAdjust="spacing" textLength="53.479" x="630.686" y="268.1045">container</text><polygon fill="#181818" points="909.7075,300.6582,919.7075,304.6582,909.7075,308.6582,913.7075,304.6582" style="stroke:#181818;stroke-width:1.0;"/><line style="stroke:#181818;stroke-width:1.0;" x1="602.4561" x2="915.7075" y1="304.6582" y2="304.6582"/><text fill="#000000" font-family="sans-serif" font-size="13" font-weight="bold" lengthAdjust="spacing" textLength="7.23" x="609.4561" y="299.3955">7</text><text fill="#000000" font-family="sans-serif" font-size="13" lengthAdjust="spacing" textLength="187.8843" x="620.686" y="299.3955">create(name, brand, technology)</text><polygon fill="#181818" points="1142.8218,331.9492,1152.8218,335.9492,1142.8218,339.9492,1146.8218,335.9492" style="stroke:#181818;stroke-width:1.0;"/><line style="stroke:#181818;stroke-width:1.0;stroke-dasharray:2.0,2.0;" x1="931.7075" x2="1148.8218" y1="335.9492" y2="335.9492"/><text fill="#000000" font-family="sans-serif" font-size="13" font-weight="bold" lengthAdjust="spacing" textLength="7.23" x="938.7075" y="330.6865">8</text><text fill="#000000" font-family="sans-serif" font-size="13" lengthAdjust="spacing" textLength="187.8843" x="949.9375" y="330.6865">create(name, brand, technology)</text><rect fill="#E2E2F0" height="32.6211" rx="2.5" ry="2.5" style="stroke:#181818;stroke-width:0.5;" width="89.4824" x="1154.8218" y="312.6582"/><text fill="#000000" font-family="sans-serif" font-size="14" lengthAdjust="spacing" textLength="75.4824" x="1161.8218" y="334.7656">vac:Vaccine</text><polygon fill="#181818" points="613.4561,375.5703,603.4561,379.5703,613.4561,383.5703,609.4561,379.5703" style="stroke:#181818;stroke-width:1.0;"/><line style="stroke:#181818;stroke-width:1.0;stroke-dasharray:2.0,2.0;" x1="607.4561" x2="925.7075" y1="379.5703" y2="379.5703"/><text fill="#000000" font-family="sans-serif" font-size="13" font-weight="bold" lengthAdjust="spacing" textLength="7.23" x="619.4561" y="374.3076">9</text><text fill="#000000" font-family="sans-serif" font-size="13" lengthAdjust="spacing" textLength="20.23" x="630.686" y="374.3076">vac</text><polygon fill="#181818" points="331.8755,406.8613,321.8755,410.8613,331.8755,414.8613,327.8755,410.8613" style="stroke:#181818;stroke-width:1.0;"/><line style="stroke:#181818;stroke-width:1.0;stroke-dasharray:2.0,2.0;" x1="325.8755" x2="596.4561" y1="410.8613" y2="410.8613"/><text fill="#000000" font-family="sans-serif" font-size="13" font-weight="bold" lengthAdjust="spacing" textLength="14.46" x="337.8755" y="405.5986">10</text><text fill="#000000" font-family="sans-serif" font-size="13" lengthAdjust="spacing" textLength="13.73" x="356.3354" y="405.5986">ok</text><polygon fill="#181818" points="43.8413,438.1523,33.8413,442.1523,43.8413,446.1523,39.8413,442.1523" style="stroke:#181818;stroke-width:1.0;"/><line style="stroke:#181818;stroke-width:1.0;stroke-dasharray:2.0,2.0;" x1="37.8413" x2="314.8755" y1="442.1523" y2="442.1523"/><text fill="#000000" font-family="sans-serif" font-size="13" font-weight="bold" lengthAdjust="spacing" textLength="14.46" x="49.8413" y="436.8896">11</text><text fill="#000000" font-family="sans-serif" font-size="13" lengthAdjust="spacing" textLength="235.5742" x="68.3013" y="436.8896">shows all data and requests confirmation</text><polygon fill="#181818" points="298.8755,469.4434,308.8755,473.4434,298.8755,477.4434,302.8755,473.4434" style="stroke:#181818;stroke-width:1.0;"/><line style="stroke:#181818;stroke-width:1.0;" x1="32.8413" x2="304.8755" y1="473.4434" y2="473.4434"/><text fill="#000000" font-family="sans-serif" font-size="13" font-weight="bold" lengthAdjust="spacing" textLength="14.46" x="39.8413" y="468.1807">12</text><text fill="#000000" font-family="sans-serif" font-size="13" lengthAdjust="spacing" textLength="99.7153" x="58.3013" y="468.1807">confirms the data</text><polygon fill="#181818" points="580.4561,500.7344,590.4561,504.7344,580.4561,508.7344,584.4561,504.7344" style="stroke:#181818;stroke-width:1.0;"/><line style="stroke:#181818;stroke-width:1.0;" x1="320.8755" x2="586.4561" y1="504.7344" y2="504.7344"/><text fill="#000000" font-family="sans-serif" font-size="13" font-weight="bold" lengthAdjust="spacing" textLength="14.46" x="327.8755" y="499.4717">13</text><text fill="#000000" font-family="sans-serif" font-size="13" lengthAdjust="spacing" textLength="128.6162" x="346.3354" y="499.4717">saveCreatedVaccine()</text><polygon fill="#181818" points="909.7075,532.0254,919.7075,536.0254,909.7075,540.0254,913.7075,536.0254" style="stroke:#181818;stroke-width:1.0;"/><line style="stroke:#181818;stroke-width:1.0;" x1="602.4561" x2="915.7075" y1="536.0254" y2="536.0254"/><text fill="#000000" font-family="sans-serif" font-size="13" font-weight="bold" lengthAdjust="spacing" textLength="14.46" x="609.4561" y="530.7627">14</text><text fill="#000000" font-family="sans-serif" font-size="13" lengthAdjust="spacing" textLength="56.3481" x="627.916" y="530.7627">save(vac)</text><line style="stroke:#181818;stroke-width:1.0;" x1="931.7075" x2="978.7075" y1="562.3164" y2="562.3164"/><line style="stroke:#181818;stroke-width:1.0;" x1="978.7075" x2="978.7075" y1="562.3164" y2="575.3164"/><line style="stroke:#181818;stroke-width:1.0;" x1="937.7075" x2="978.7075" y1="575.3164" y2="575.3164"/><polygon fill="#181818" points="947.7075,571.3164,937.7075,575.3164,947.7075,579.3164,943.7075,575.3164" style="stroke:#181818;stroke-width:1.0;"/><text fill="#000000" font-family="sans-serif" font-size="13" font-weight="bold" lengthAdjust="spacing" textLength="14.46" x="943.7075" y="557.0537">15</text><text fill="#000000" font-family="sans-serif" font-size="13" lengthAdjust="spacing" textLength="73.6963" x="962.1675" y="557.0537">validate(vac)</text><line style="stroke:#181818;stroke-width:1.0;stroke-dasharray:2.0,2.0;" x1="936.7075" x2="978.7075" y1="616.6074" y2="616.6074"/><line style="stroke:#181818;stroke-width:1.0;stroke-dasharray:2.0,2.0;" x1="978.7075" x2="978.7075" y1="616.6074" y2="629.6074"/><line style="stroke:#181818;stroke-width:1.0;stroke-dasharray:2.0,2.0;" x1="931.7075" x2="978.7075" y1="629.6074" y2="629.6074"/><polygon fill="#181818" points="941.7075,625.6074,931.7075,629.6074,941.7075,633.6074,937.7075,629.6074" style="stroke:#181818;stroke-width:1.0;"/><text fill="#000000" font-family="sans-serif" font-size="13" font-weight="bold" lengthAdjust="spacing" textLength="14.46" x="943.7075" y="611.3447">16</text><text fill="#000000" font-family="sans-serif" font-size="13" lengthAdjust="spacing" textLength="13.73" x="962.1675" y="611.3447">ok</text><line style="stroke:#181818;stroke-width:1.0;" x1="931.7075" x2="978.7075" y1="650.8984" y2="650.8984"/><line style="stroke:#181818;stroke-width:1.0;" x1="978.7075" x2="978.7075" y1="650.8984" y2="663.8984"/><line style="stroke:#181818;stroke-width:1.0;" x1="937.7075" x2="978.7075" y1="663.8984" y2="663.8984"/><polygon fill="#181818" points="947.7075,659.8984,937.7075,663.8984,947.7075,667.8984,943.7075,663.8984" style="stroke:#181818;stroke-width:1.0;"/><text fill="#000000" font-family="sans-serif" font-size="13" font-weight="bold" lengthAdjust="spacing" textLength="14.46" x="943.7075" y="645.6357">17</text><text fill="#000000" font-family="sans-serif" font-size="13" lengthAdjust="spacing" textLength="50.5781" x="962.1675" y="645.6357">add(vac)</text><line style="stroke:#181818;stroke-width:1.0;stroke-dasharray:2.0,2.0;" x1="936.7075" x2="978.7075" y1="705.1895" y2="705.1895"/><line style="stroke:#181818;stroke-width:1.0;stroke-dasharray:2.0,2.0;" x1="978.7075" x2="978.7075" y1="705.1895" y2="718.1895"/><line style="stroke:#181818;stroke-width:1.0;stroke-dasharray:2.0,2.0;" x1="931.7075" x2="978.7075" y1="718.1895" y2="718.1895"/><polygon fill="#181818" points="941.7075,714.1895,931.7075,718.1895,941.7075,722.1895,937.7075,718.1895" style="stroke:#181818;stroke-width:1.0;"/><text fill="#000000" font-family="sans-serif" font-size="13" font-weight="bold" lengthAdjust="spacing" textLength="14.46" x="943.7075" y="699.9268">18</text><text fill="#000000" font-family="sans-serif" font-size="13" lengthAdjust="spacing" textLength="13.73" x="962.1675" y="699.9268">ok</text><polygon fill="#181818" points="613.4561,740.4805,603.4561,744.4805,613.4561,748.4805,609.4561,744.4805" style="stroke:#181818;stroke-width:1.0;"/><line style="stroke:#181818;stroke-width:1.0;stroke-dasharray:2.0,2.0;" x1="607.4561" x2="925.7075" y1="744.4805" y2="744.4805"/><text fill="#000000" font-family="sans-serif" font-size="13" font-weight="bold" lengthAdjust="spacing" textLength="14.46" x="619.4561" y="739.2178">19</text><text fill="#000000" font-family="sans-serif" font-size="13" lengthAdjust="spacing" textLength="13.73" x="637.916" y="739.2178">ok</text><polygon fill="#181818" points="331.8755,771.7715,321.8755,775.7715,331.8755,779.7715,327.8755,775.7715" style="stroke:#181818;stroke-width:1.0;"/><line style="stroke:#181818;stroke-width:1.0;stroke-dasharray:2.0,2.0;" x1="325.8755" x2="596.4561" y1="775.7715" y2="775.7715"/><text fill="#000000" font-family="sans-serif" font-size="13" font-weight="bold" lengthAdjust="spacing" textLength="14.46" x="337.8755" y="770.5088">20</text><text fill="#000000" font-family="sans-serif" font-size="13" lengthAdjust="spacing" textLength="13.73" x="356.3354" y="770.5088">ok</text><polygon fill="#181818" points="43.8413,803.0625,33.8413,807.0625,43.8413,811.0625,39.8413,807.0625" style="stroke:#181818;stroke-width:1.0;"/><line style="stroke:#181818;stroke-width:1.0;stroke-dasharray:2.0,2.0;" x1="37.8413" x2="314.8755" y1="807.0625" y2="807.0625"/><text fill="#000000" font-family="sans-serif" font-size="13" font-weight="bold" lengthAdjust="spacing" textLength="14.46" x="49.8413" y="801.7998">21</text><text fill="#000000" font-family="sans-serif" font-size="13" lengthAdjust="spacing" textLength="151.0107" x="68.3013" y="801.7998">informs operation success</text><!--SRC=[bLD1JiCm4Bpd5QjUA5LBxpaWeV823jmNUqaj73lOcrJydetZf2Iqe9xgs3EpCxFgtP6vYUL-trXqtDRsGVbw7-cp9QTefmrM0UkYm9OzAZOTCe5twTkrzHi5ULFi0woUT6tS2Z12EXKD1ZRADA8Bg_A5AXEPmYigPHoz6ZebR7_u6thmZeEtba8Y73ZO1I7D4qf0CN9sCDuy-ngNVfI8oYM5yiUKT34C6R_ch0xLY1_C3-TKmL3D4Br8Fx1xJF5AWNv4O0yX9mC4HoVeChq7mKxGYLOAJEgF744Z8wmTrhI5ju1ERu597PstllgwNqxXhuRYI2QTs5dxCTLMJWQoyUlIFHn6H_CYIwY8iq2SYbfdEtDiIZMCdXgVj2UkF0QIzlwmCqAJO1w-sTnA79n8xTd3L9t_-BM4UFId26Zji0LHFkz5ihoRK2CR-Iiijf3VPDz7khI2Y1qTacizRk7-KYKzRYrMPnbcY0wjqNtw9MeEaspN553hcyXJYFxwtmQDU_Tz4RwXaAg2s2f5CHRV]--></g></svg>