<svg xmlns="http://www.w3.org/2000/svg" xmlns:xlink="http://www.w3.org/1999/xlink" contentStyleType="text/css" height="1578px" preserveAspectRatio="none" style="width:508px;height:1578px;background:#FFFFFF;" version="1.1" viewBox="0 0 508 1578" width="508px" zoomAndPan="magnify"><title>Pandemic Vaccination Management System (PVMS) - Use Case Diagram</title><defs/><g><text fill="#000000" font-family="sans-serif" font-size="14" font-weight="bold" lengthAdjust="spacing" textLength="480.0469" x="10" y="25.1074">Pandemic Vaccination Management System (PVMS) - Use Case Diagram</text><!--entity User--><g id="elem_User"><ellipse cx="101.5671" cy="1320.1211" fill="#F1F1F1" rx="8" ry="8" style="stroke:#181818;stroke-width:0.5;"/><path d="M101.5671,1328.1211 L101.5671,1355.1211 M88.5671,1336.1211 L114.5671,1336.1211 M101.5671,1355.1211 L88.5671,1370.1211 M101.5671,1355.1211 L114.5671,1370.1211 " fill="none" style="stroke:#181818;stroke-width:0.5;"/><text fill="#000000" font-family="sans-serif" font-size="14" lengthAdjust="spacing" textLength="62.2344" x="70.45" y="1386.7285">SNS User</text></g><!--entity Receptionist--><g id="elem_Receptionist"><ellipse cx="101.4705" cy="926.1211" fill="#F1F1F1" rx="8" ry="8" style="stroke:#181818;stroke-width:0.5;"/><path d="M101.4705,934.1211 L101.4705,961.1211 M88.4705,942.1211 L114.4705,942.1211 M101.4705,961.1211 L88.4705,976.1211 M101.4705,961.1211 L114.4705,976.1211 " fill="none" style="stroke:#181818;stroke-width:0.5;"/><text fill="#000000" font-family="sans-serif" font-size="14" lengthAdjust="spacing" textLength="77.041" x="62.95" y="992.7285">Receptionist</text></g><!--entity Nurse--><g id="elem_Nurse"><ellipse cx="101.6223" cy="626.1211" fill="#F1F1F1" rx="8" ry="8" style="stroke:#181818;stroke-width:0.5;"/><path d="M101.6223,634.1211 L101.6223,661.1211 M88.6223,642.1211 L114.6223,642.1211 M101.6223,661.1211 L88.6223,676.1211 M101.6223,661.1211 L114.6223,676.1211 " fill="none" style="stroke:#181818;stroke-width:0.5;"/><text fill="#000000" font-family="sans-serif" font-size="14" lengthAdjust="spacing" textLength="37.3447" x="82.95" y="692.7285">Nurse</text></g><!--entity Admin--><g id="elem_Admin"><ellipse cx="101.3015" cy="235.1211" fill="#F1F1F1" rx="8" ry="8" style="stroke:#181818;stroke-width:0.5;"/><path d="M101.3015,243.1211 L101.3015,270.1211 M88.3015,251.1211 L114.3015,251.1211 M101.3015,270.1211 L88.3015,285.1211 M101.3015,270.1211 L114.3015,285.1211 " fill="none" style="stroke:#181818;stroke-width:0.5;"/><text fill="#000000" font-family="sans-serif" font-size="14" lengthAdjust="spacing" textLength="158.7031" x="21.95" y="301.7285">Administrator (DGS Staff)</text></g><g id="elem_UC1"><ellipse cx="366.5063" cy="1151.1324" fill="#F1F1F1" rx="93.0563" ry="21.0113" style="stroke:#181818;stroke-width:0.5;"/><text fill="#000000" font-family="sans-serif" font-size="14" lengthAdjust="spacing" textLength="141.6338" x="292.6894" y="1155.9361">Register / Authenticate</text></g><g id="elem_UC2"><ellipse cx="366.666" cy="1228.0643" fill="#F1F1F1" rx="90.216" ry="20.4432" style="stroke:#181818;stroke-width:0.5;"/><text fill="#000000" font-family="sans-serif" font-size="14" lengthAdjust="spacing" textLength="134.6475" x="296.3423" y="1232.868">Schedule Vaccination</text></g><g id="elem_UC3"><ellipse cx="366.493" cy="1308.9297" fill="#F1F1F1" rx="112.0431" ry="24.8086" style="stroke:#181818;stroke-width:0.5;"/><text fill="#000000" font-family="sans-serif" font-size="14" lengthAdjust="spacing" textLength="185.2129" x="273.8866" y="1312.7266">Consult / Cancel Appointment</text></g><g id="elem_UC4"><ellipse cx="366.6377" cy="1394.3586" fill="#F1F1F1" rx="111.6877" ry="24.7375" style="stroke:#181818;stroke-width:0.5;"/><text fill="#000000" font-family="sans-serif" font-size="14" lengthAdjust="spacing" textLength="184.4268" x="274.4243" y="1398.1555">Obtain Vaccination Certificate</text></g><g id="elem_UC5"><ellipse cx="366.6994" cy="1476.171" fill="#F1F1F1" rx="98.2495" ry="22.0499" style="stroke:#181818;stroke-width:0.5;"/><text fill="#000000" font-family="sans-serif" font-size="14" lengthAdjust="spacing" textLength="154.0615" x="288.032" y="1480.5517">View Vaccination History</text></g><g id="elem_UC6"><ellipse cx="366.325" cy="1553.1961" fill="#F1F1F1" rx="85.875" ry="19.575" style="stroke:#181818;stroke-width:0.5;"/><text fill="#000000" font-family="sans-serif" font-size="14" lengthAdjust="spacing" textLength="123.7236" x="301.4631" y="1557.9998">Receive Notification</text></g><g id="elem_UC7"><ellipse cx="366.382" cy="844.1075" fill="#F1F1F1" rx="75.432" ry="17.4864" style="stroke:#181818;stroke-width:0.5;"/><text fill="#000000" font-family="sans-serif" font-size="14" lengthAdjust="spacing" textLength="95.6895" x="315.5372" y="848.9112">Register Arrival</text></g><g id="elem_UC8"><ellipse cx="366.4033" cy="917.3118" fill="#F1F1F1" rx="88.9533" ry="20.1907" style="stroke:#181818;stroke-width:0.5;"/><text fill="#000000" font-family="sans-serif" font-size="14" lengthAdjust="spacing" textLength="131.5029" x="297.6518" y="922.1155">Confirm Appointment</text></g><g id="elem_UC9"><ellipse cx="366.4378" cy="996.0187" fill="#F1F1F1" rx="107.4879" ry="23.8976" style="stroke:#181818;stroke-width:0.5;"/><text fill="#000000" font-family="sans-serif" font-size="14" lengthAdjust="spacing" textLength="175.0889" x="278.8934" y="999.8155">Assist In-Person Scheduling</text></g><g id="elem_UC10"><ellipse cx="366.2191" cy="1075.0749" fill="#F1F1F1" rx="85.2692" ry="19.4538" style="stroke:#181818;stroke-width:0.5;"/><text fill="#000000" font-family="sans-serif" font-size="14" lengthAdjust="spacing" textLength="122.1719" x="302.1332" y="1079.8786">Update User Status</text></g><g id="elem_UC11"><ellipse cx="366.3076" cy="546.8926" fill="#F1F1F1" rx="79.3577" ry="18.2715" style="stroke:#181818;stroke-width:0.5;"/><text fill="#000000" font-family="sans-serif" font-size="14" lengthAdjust="spacing" textLength="106.5928" x="310.0112" y="551.6963">View Waiting List</text></g><g id="elem_UC12"><ellipse cx="366.3092" cy="619.8929" fill="#F1F1F1" rx="84.3592" ry="19.2718" style="stroke:#181818;stroke-width:0.5;"/><text fill="#000000" font-family="sans-serif" font-size="14" lengthAdjust="spacing" textLength="119.8271" x="303.3956" y="624.6967">Administer Vaccine</text></g><g id="elem_UC13"><ellipse cx="366.2327" cy="68.2776" fill="#F1F1F1" rx="101.2827" ry="22.6565" style="stroke:#181818;stroke-width:0.5;"/><text fill="#000000" font-family="sans-serif" font-size="14" lengthAdjust="spacing" textLength="161.0889" x="284.9548" y="72.3472">Record Vaccination Event</text></g><g id="elem_UC14"><ellipse cx="366.5442" cy="692.94" fill="#F1F1F1" rx="77.0943" ry="17.8189" style="stroke:#181818;stroke-width:0.5;"/><text fill="#000000" font-family="sans-serif" font-size="14" lengthAdjust="spacing" textLength="100.3721" x="313.3582" y="697.7437">Issue Certificate</text></g><g id="elem_UC15"><ellipse cx="366.5513" cy="769.1414" fill="#F1F1F1" rx="100.6014" ry="22.5203" style="stroke:#181818;stroke-width:0.5;"/><text fill="#000000" font-family="sans-serif" font-size="14" lengthAdjust="spacing" textLength="159.5234" x="285.8598" y="773.2808">Record Adverse Reaction</text></g><g id="elem_UC16"><ellipse cx="366.539" cy="149.9389" fill="#F1F1F1" rx="109.5891" ry="24.3178" style="stroke:#181818;stroke-width:0.5;"/><text fill="#000000" font-family="sans-serif" font-size="14" lengthAdjust="spacing" textLength="179.7715" x="276.6533" y="153.7358">Manage Vaccination Centers</text></g><g id="elem_UC17"><ellipse cx="366.6682" cy="226.2647" fill="#F1F1F1" rx="71.2183" ry="16.6437" style="stroke:#181818;stroke-width:0.5;"/><text fill="#000000" font-family="sans-serif" font-size="14" lengthAdjust="spacing" textLength="83.2754" x="322.0305" y="231.0685">Manage Staff</text></g><g id="elem_UC18"><ellipse cx="366.5234" cy="305.1358" fill="#F1F1F1" rx="125.5735" ry="27.5147" style="stroke:#181818;stroke-width:0.5;"/><text fill="#000000" font-family="sans-serif" font-size="14" lengthAdjust="spacing" textLength="214.7783" x="259.1343" y="308.9327">Manage Vaccines / Vaccine Types</text></g><g id="elem_UC19"><ellipse cx="366.5007" cy="389.1312" fill="#F1F1F1" rx="93.0507" ry="21.0101" style="stroke:#181818;stroke-width:0.5;"/><text fill="#000000" font-family="sans-serif" font-size="14" lengthAdjust="spacing" textLength="141.6201" x="292.6906" y="393.935">Monitor Outbreak Data</text></g><g id="elem_UC20"><ellipse cx="366.6764" cy="469.3664" fill="#F1F1F1" rx="109.2264" ry="24.2453" style="stroke:#181818;stroke-width:0.5;"/><text fill="#000000" font-family="sans-serif" font-size="14" lengthAdjust="spacing" textLength="178.9648" x="277.1939" y="473.1633">Generate Reports / Statistics</text></g><!--link User to UC1--><g id="link_User_UC1"><path d="M127.11,1311.4411 C151.72,1274.9411 192.75,1221.8411 240.95,1190.1211 C257.7,1179.1011 272.0021,1172.7952 291.0721,1166.9652 " fill="none" id="User-to-UC1" style="stroke:#181818;stroke-width:1.0;"/><polygon fill="#181818" points="296.81,1165.2111,287.0337,1164.0171,292.0284,1166.6729,289.3726,1171.6676,296.81,1165.2111" style="stroke:#181818;stroke-width:1.0;"/></g><!--link User to UC2--><g id="link_User_UC2"><path d="M132.63,1329.8711 C159.93,1311.3811 201.74,1284.8411 240.95,1267.1211 C261.69,1257.7511 279.5907,1251.4374 300.6607,1245.1474 " fill="none" id="User-to-UC2" style="stroke:#181818;stroke-width:1.0;"/><polygon fill="#181818" points="306.41,1243.4311,296.6418,1242.1727,301.6189,1244.8614,298.9303,1249.8384,306.41,1243.4311" style="stroke:#181818;stroke-width:1.0;"/></g><!--link User to UC3--><g id="link_User_UC3"><path d="M132.62,1346.3011 C167.16,1340.7911 219.4451,1332.4377 269.0151,1324.5177 " fill="none" id="User-to-UC3" style="stroke:#181818;stroke-width:1.0;"/><polygon fill="#181818" points="274.94,1323.5711,265.4216,1321.0411,270.0026,1324.36,266.6838,1328.941,274.94,1323.5711" style="stroke:#181818;stroke-width:1.0;"/></g><!--link User to UC4--><g id="link_User_UC4"><path d="M132.62,1356.0511 C167.5,1361.7611 220.5887,1370.4324 270.4687,1378.5924 " fill="none" id="User-to-UC4" style="stroke:#181818;stroke-width:1.0;"/><polygon fill="#181818" points="276.39,1379.5611,268.1538,1374.1605,271.4555,1378.7539,266.8622,1382.0556,276.39,1379.5611" style="stroke:#181818;stroke-width:1.0;"/></g><!--link User to UC5--><g id="link_User_UC5"><path d="M132.62,1372.5811 C159.92,1391.2611 201.73,1418.1011 240.95,1436.1211 C260.55,1445.1211 277.0223,1451.164 297.1823,1457.454 " fill="none" id="User-to-UC5" style="stroke:#181818;stroke-width:1.0;"/><polygon fill="#181818" points="302.91,1459.2411,295.5098,1452.742,298.1369,1457.7519,293.127,1460.379,302.91,1459.2411" style="stroke:#181818;stroke-width:1.0;"/></g><!--link User to UC6--><g id="link_User_UC6"><path d="M126.08,1390.9011 C150.37,1428.4511 191.54,1483.7011 240.95,1516.1211 C258.2,1527.4411 273.2461,1533.7595 292.8861,1539.3095 " fill="none" id="User-to-UC6" style="stroke:#181818;stroke-width:1.0;"/><polygon fill="#181818" points="298.66,1540.9411,291.0869,1534.6444,293.8484,1539.5814,288.9114,1542.3429,298.66,1540.9411" style="stroke:#181818;stroke-width:1.0;"/></g><!--link Receptionist to UC7--><g id="link_Receptionist_UC7"><path d="M140.09,933.1411 C167.3,916.5611 205.39,894.9211 240.95,880.1211 C263.9,870.5711 284.4435,864.1006 306.9635,858.0806 " fill="none" id="Receptionist-to-UC7" style="stroke:#181818;stroke-width:1.0;"/><polygon fill="#181818" points="312.76,856.5311,303.0323,854.991,307.9296,857.8223,305.0983,862.7197,312.76,856.5311" style="stroke:#181818;stroke-width:1.0;"/></g><!--link Receptionist to UC8--><g id="link_Receptionist_UC8"><path d="M140.13,951.3911 C179.69,945.3711 236.9481,936.6627 286.3581,929.1527 " fill="none" id="Receptionist-to-UC8" style="stroke:#181818;stroke-width:1.0;"/><polygon fill="#181818" points="292.29,928.2511,282.7911,925.6489,287.3467,929.0024,283.9932,933.5581,292.29,928.2511" style="stroke:#181818;stroke-width:1.0;"/></g><!--link Receptionist to UC9--><g id="link_Receptionist_UC9"><path d="M140.13,962.7111 C175.57,967.9611 224.0348,975.1513 270.5148,982.0413 " fill="none" id="Receptionist-to-UC9" style="stroke:#181818;stroke-width:1.0;"/><polygon fill="#181818" points="276.45,982.9211,268.1338,977.6446,271.504,982.1879,266.9607,985.5582,276.45,982.9211" style="stroke:#181818;stroke-width:1.0;"/></g><!--link Receptionist to UC10--><g id="link_Receptionist_UC10"><path d="M139.95,982.3911 C167.1,999.8411 205.17,1022.6111 240.95,1038.1211 C262.05,1047.2711 280.324,1053.3768 301.624,1059.3668 " fill="none" id="Receptionist-to-UC10" style="stroke:#181818;stroke-width:1.0;"/><polygon fill="#181818" points="307.4,1060.9911,299.8189,1054.704,302.5867,1059.6375,297.6532,1062.4053,307.4,1060.9911" style="stroke:#181818;stroke-width:1.0;"/></g><!--link Nurse to UC11--><g id="link_Nurse_UC11"><path d="M120.23,646.0511 C146.04,630.3511 195.74,601.5011 240.95,583.1211 C263.15,574.1011 282.6301,567.9251 304.5901,561.9551 " fill="none" id="Nurse-to-UC11" style="stroke:#181818;stroke-width:1.0;"/><polygon fill="#181818" points="310.38,560.3811,300.6458,558.8822,305.5551,561.6928,302.7445,566.602,310.38,560.3811" style="stroke:#181818;stroke-width:1.0;"/></g><!--link Nurse to UC12--><g id="link_Nurse_UC12"><path d="M120.11,654.6311 C155.07,649.7211 228.8485,639.3371 287.9785,631.0171 " fill="none" id="Nurse-to-UC12" style="stroke:#181818;stroke-width:1.0;"/><polygon fill="#181818" points="293.92,630.1811,284.4504,627.4741,288.9687,630.8778,285.5651,635.3961,293.92,630.1811" style="stroke:#181818;stroke-width:1.0;"/></g><!--link Nurse to UC14--><g id="link_Nurse_UC14"><path d="M120.11,659.5411 C156.22,664.4811 234.1454,675.1473 293.7554,683.3073 " fill="none" id="Nurse-to-UC14" style="stroke:#181818;stroke-width:1.0;"/><polygon fill="#181818" points="299.7,684.1211,291.3256,678.9374,294.7462,683.443,290.2406,686.8635,299.7,684.1211" style="stroke:#181818;stroke-width:1.0;"/></g><!--link Nurse to UC15--><g id="link_Nurse_UC15"><path d="M120.35,667.6711 C146.3,682.6911 196.18,710.4511 240.95,729.1211 C260.96,737.4711 277.6462,743.3516 297.8762,749.7116 " fill="none" id="Nurse-to-UC15" style="stroke:#181818;stroke-width:1.0;"/><polygon fill="#181818" points="303.6,751.5111,296.2139,744.996,298.8301,750.0115,293.8146,752.6277,303.6,751.5111" style="stroke:#181818;stroke-width:1.0;"/></g><!--link Admin to UC16--><g id="link_Admin_UC16"><path d="M171.09,226.5611 C193.04,214.7011 217.68,202.1811 240.95,192.1211 C259.9,183.9311 275.3187,178.1811 294.6987,171.7111 " fill="none" id="Admin-to-UC16" style="stroke:#181818;stroke-width:1.0;"/><polygon fill="#181818" points="300.39,169.8111,290.5865,168.867,295.6473,171.3944,293.1198,176.4553,300.39,169.8111" style="stroke:#181818;stroke-width:1.0;"/></g><!--link Admin to UC17--><g id="link_Admin_UC17"><path d="M181,254.1711 C221.26,248.0511 263.5484,241.6245 300.5784,235.9845 " fill="none" id="Admin-to-UC17" style="stroke:#181818;stroke-width:1.0;"/><polygon fill="#181818" points="306.51,235.0811,297.0103,232.4818,301.567,235.834,298.2149,240.3906,306.51,235.0811" style="stroke:#181818;stroke-width:1.0;"/></g><!--link Admin to UC18--><g id="link_Admin_UC18"><path d="M181,277.7711 C206.43,281.5411 229.095,284.9002 256.045,288.9002 " fill="none" id="Admin-to-UC18" style="stroke:#181818;stroke-width:1.0;"/><polygon fill="#181818" points="261.98,289.7811,253.6647,284.5031,257.0341,289.047,252.4902,292.4164,261.98,289.7811" style="stroke:#181818;stroke-width:1.0;"/></g><!--link Admin to UC19--><g id="link_Admin_UC19"><path d="M160.72,305.7711 C184.83,321.0211 213.53,337.7311 240.95,350.1211 C261.18,359.2611 278.4137,365.3947 299.0837,371.6047 " fill="none" id="Admin-to-UC19" style="stroke:#181818;stroke-width:1.0;"/><polygon fill="#181818" points="304.83,373.3311,297.3615,366.9107,300.0414,371.8924,295.0596,374.5724,304.83,373.3311" style="stroke:#181818;stroke-width:1.0;"/></g><!--link Admin to UC20--><g id="link_Admin_UC20"><path d="M127.5,305.9211 C152.25,342.2311 193.25,394.9811 240.95,427.1211 C256.27,437.4411 268.6925,443.4713 286.2725,449.5813 " fill="none" id="Admin-to-UC20" style="stroke:#181818;stroke-width:1.0;"/><polygon fill="#181818" points="291.94,451.5511,284.7519,444.8182,287.2171,449.9096,282.1256,452.3748,291.94,451.5511" style="stroke:#181818;stroke-width:1.0;"/></g><!--link Admin to UC13--><g id="link_Admin_UC13"><path d="M127.8,226.5811 C152.62,190.8611 193.53,139.2511 240.95,108.1211 C256.8,97.7211 269.8441,91.6968 287.9241,85.8168 " fill="none" id="Admin-to-UC13" style="stroke:#181818;stroke-width:1.0;"/><polygon fill="#181818" points="293.63,83.9611,283.8341,82.9407,288.8751,85.5075,286.3083,90.5485,293.63,83.9611" style="stroke:#181818;stroke-width:1.0;"/></g><!--SRC=[RLDDZzem4BtxLupsKZX4BTzmgHH1jLsfi8XqwTdh362LE97jKF7lEpOEQxTS8hzvp-EPDnChxHbXorM9bHImvq98nQsi5QovuaUiK5aehiPY1RtjVbtq8OCtWx3az5b9VjIyOcSyMB0rQ7ayMIYbHk5oCCQ5hJKy5Pl2NT9Fm8q_TCGE1JPEAetrP1peH9jM6_IiFtNXlAoaasdkO6_rN41X-U7GzrBFCiO0UZiyaWmrV8QyjIVgI0fkiU-BMGwSf10dB5ko8d8Wy4F7BsjbshEb34kk19uXRvfQAkli2RgHqxs-MovLukCIjPM7-CMnK-ub_abqtwd6Mb-3Pd8hNA2y86pgaE6ZgcdQMQwrlF1p86UXv8FKrODAvuxEZQ6hyAAoBMf3xmSBf3e6sSB9tfgI2lSpS-xQrdIsVM7tDdvnQUaU_A2C7UrjxKP4bs-jtaqVXlvgNIOkVBjyr3dmbhuOq-835mVZA4LUNgWBfFNX8d9fCF55tbRvdwaegkhUp3IItPOe4BF_xgEXBGX7-7bjy9x4-xgcrNNx-DhQTutyDwouvPt2M_gC2hKpTOTDhQrBvvmbcwJeSWt9NVOfopAWETL2-g8DK83vKMJPLx-w4HZ6O1I3SGmcCQ0jYd-u49qz2iuV1HUFWcup_8_QuK4AXoaSfv0cvhUcmzCKpb8uJ-4YWMHYmeuO-mi0]--></g></svg>