<svg xmlns="http://www.w3.org/2000/svg" xmlns:xlink="http://www.w3.org/1999/xlink" contentStyleType="text/css" height="801px" preserveAspectRatio="none" style="width:671px;height:801px;background:#FFFFFF;" version="1.1" viewBox="0 0 671 801" width="671px" zoomAndPan="magnify"><defs/><g><!--entity admin--><g id="elem_admin"><ellipse cx="44.3413" cy="522" fill="#F1F1F1" rx="8" ry="8" style="stroke:#181818;stroke-width:0.5;"/><path d="M44.3413,530 L44.3413,557 M31.3413,538 L57.3413,538 M44.3413,557 L31.3413,572 M44.3413,557 L57.3413,572 " fill="none" style="stroke:#181818;stroke-width:0.5;"/><text fill="#000000" font-family="sans-serif" font-size="14" lengthAdjust="spacing" textLength="39.6826" x="24.5" y="588.6074">Admin</text></g><!--entity recep--><g id="elem_recep"><ellipse cx="44.5205" cy="169" fill="#F1F1F1" rx="8" ry="8" style="stroke:#181818;stroke-width:0.5;"/><path d="M44.5205,177 L44.5205,204 M31.5205,185 L57.5205,185 M44.5205,204 L31.5205,219 M44.5205,204 L57.5205,219 " fill="none" style="stroke:#181818;stroke-width:0.5;"/><text fill="#000000" font-family="sans-serif" font-size="14" lengthAdjust="spacing" textLength="77.041" x="6" y="235.6074">Receptionist</text></g><!--entity user--><g id="elem_user"><ellipse cx="44.6172" cy="14" fill="#F1F1F1" rx="8" ry="8" style="stroke:#181818;stroke-width:0.5;"/><path d="M44.6172,22 L44.6172,49 M31.6172,30 L57.6172,30 M44.6172,49 L31.6172,64 M44.6172,49 L57.6172,64 " fill="none" style="stroke:#181818;stroke-width:0.5;"/><text fill="#000000" font-family="sans-serif" font-size="14" lengthAdjust="spacing" textLength="62.2344" x="13.5" y="80.6074">SNS User</text></g><g id="elem_US10"><ellipse cx="404.4457" cy="353.1891" fill="#F1F1F1" rx="106.4457" ry="23.6891" style="stroke:#181818;stroke-width:0.5;"/><text fill="#000000" font-family="sans-serif" font-size="14" lengthAdjust="spacing" textLength="172.7578" x="318.0668" y="356.986">Specify a new vaccine type.</text></g><g id="elem_US11"><ellipse cx="404.561" cy="431.2122" fill="#F1F1F1" rx="84.061" ry="19.2122" style="stroke:#181818;stroke-width:0.5;"/><text fill="#000000" font-family="sans-serif" font-size="14" lengthAdjust="spacing" textLength="119.0547" x="342.0336" y="436.0159">Register a vaccine.</text></g><g id="elem_US14"><ellipse cx="404.4187" cy="505.8837" fill="#F1F1F1" rx="92.4187" ry="20.8837" style="stroke:#181818;stroke-width:0.5;"/><text fill="#000000" font-family="sans-serif" font-size="14" lengthAdjust="spacing" textLength="140.0752" x="331.3811" y="510.6874">Register an employee.</text></g><g id="elem_US15"><ellipse cx="404.7038" cy="601.2408" fill="#F1F1F1" rx="181.7038" ry="38.7408" style="stroke:#181818;stroke-width:0.5;"/><text fill="#000000" font-family="sans-serif" font-size="14" lengthAdjust="spacing" textLength="333.0674" x="238.1701" y="605.0376">List all employees assigned to a specific function/role.</text></g><g id="elem_US12"><ellipse cx="404.6557" cy="692.9311" fill="#F1F1F1" rx="77.6557" ry="17.9311" style="stroke:#181818;stroke-width:0.5;"/><text fill="#000000" font-family="sans-serif" font-size="14" lengthAdjust="spacing" textLength="101.9307" x="350.6903" y="697.7348">List all vaccines.</text></g><g id="elem_US13"><ellipse cx="404.6877" cy="771.2375" fill="#F1F1F1" rx="111.6877" ry="24.7375" style="stroke:#181818;stroke-width:0.5;"/><text fill="#000000" font-family="sans-serif" font-size="14" lengthAdjust="spacing" textLength="184.4268" x="312.4744" y="775.0344">Register a vaccination center.</text></g><g id="elem_US20"><ellipse cx="404.5951" cy="128.819" fill="#F1F1F1" rx="92.0951" ry="20.819" style="stroke:#181818;stroke-width:0.5;"/><text fill="#000000" font-family="sans-serif" font-size="14" lengthAdjust="spacing" textLength="139.2822" x="331.954" y="133.6227">Register an SNS user.</text></g><g id="elem_US30"><ellipse cx="404.4993" cy="44.7999" fill="#F1F1F1" rx="124.4993" ry="27.2999" style="stroke:#181818;stroke-width:0.5;"/><text fill="#000000" font-family="sans-serif" font-size="14" lengthAdjust="spacing" textLength="212.4541" x="298.2722" y="48.5967">Schedule a vaccine administration</text></g><g id="elem_US22"><ellipse cx="404.4671" cy="240.1934" fill="#F1F1F1" rx="261.4671" ry="54.6934" style="stroke:#181818;stroke-width:0.5;"/><text fill="#000000" font-family="sans-serif" font-size="14" lengthAdjust="spacing" textLength="496.4805" x="156.2269" y="243.9903">Register the arrival of an SNS user at the vaccination center to take the vaccine.</text></g><!--link admin to US10--><g id="link_admin_US10"><path d="M58.95,513.35 C73.61,476.5 100.78,423.2 143,395 C188.33,364.72 241.8228,353.9123 292.4928,350.5923 " fill="none" id="admin-to-US10" style="stroke:#181818;stroke-width:1.0;"/><polygon fill="#181818" points="298.48,350.2,289.2377,346.797,293.4907,350.5269,289.7608,354.7799,298.48,350.2" style="stroke:#181818;stroke-width:1.0;"/></g><!--link admin to US11--><g id="link_admin_US11"><path d="M64.62,530.12 C82.66,510.22 111.55,482.39 143,468 C198.66,442.54 261.438,433.9004 314.338,431.1604 " fill="none" id="admin-to-US11" style="stroke:#181818;stroke-width:1.0;"/><polygon fill="#181818" points="320.33,430.85,311.1351,427.3209,315.3367,431.1086,311.549,435.3102,320.33,430.85" style="stroke:#181818;stroke-width:1.0;"/></g><!--link admin to US14--><g id="link_admin_US14"><path d="M64.75,550.47 C112.75,544.17 233.981,528.2506 318.121,517.2106 " fill="none" id="admin-to-US14" style="stroke:#181818;stroke-width:1.0;"/><polygon fill="#181818" points="324.07,516.43,314.6261,513.6348,319.1125,517.0805,315.6669,521.5669,324.07,516.43" style="stroke:#181818;stroke-width:1.0;"/></g><!--link admin to US15--><g id="link_admin_US15"><path d="M64.75,555.58 C100.04,560.31 172.1933,569.9824 244.5133,579.6824 " fill="none" id="admin-to-US15" style="stroke:#181818;stroke-width:1.0;"/><polygon fill="#181818" points="250.46,580.48,242.0716,575.3191,245.5044,579.8153,241.0081,583.2481,250.46,580.48" style="stroke:#181818;stroke-width:1.0;"/></g><!--link admin to US12--><g id="link_admin_US12"><path d="M64.5,582.47 C81.85,606.73 109.81,639.83 143,657 C200.17,686.58 267.3913,694.3739 321.6413,695.5139 " fill="none" id="admin-to-US12" style="stroke:#181818;stroke-width:1.0;"/><polygon fill="#181818" points="327.64,695.64,318.726,691.4518,322.6411,695.535,318.5579,699.45,327.64,695.64" style="stroke:#181818;stroke-width:1.0;"/></g><!--link admin to US13--><g id="link_admin_US13"><path d="M56.31,592.85 C69.62,633.87 96.41,696.27 143,729 C186.48,759.55 238.0641,770.619 288.0141,774.049 " fill="none" id="admin-to-US13" style="stroke:#181818;stroke-width:1.0;"/><polygon fill="#181818" points="294,774.46,285.2952,769.8528,289.0117,774.1175,284.7471,777.834,294,774.46" style="stroke:#181818;stroke-width:1.0;"/></g><!--link recep to US20--><g id="link_recep_US20"><path d="M83.04,186.04 C100.99,179.79 122.89,172.77 143,168 C201.73,154.07 263.2052,144.875 314.7352,138.515 " fill="none" id="recep-to-US20" style="stroke:#181818;stroke-width:1.0;"/><polygon fill="#181818" points="320.69,137.78,311.2678,134.9126,315.7277,138.3925,312.2478,142.8523,320.69,137.78" style="stroke:#181818;stroke-width:1.0;"/></g><!--link recep to US22--><g id="link_recep_US22"><path d="M83.14,204.21 C106.47,206.81 132.6472,209.7333 167.6172,213.6433 " fill="none" id="recep-to-US22" style="stroke:#181818;stroke-width:1.0;"/><polygon fill="#181818" points="173.58,214.31,165.0802,209.3347,168.611,213.7544,164.1913,217.2852,173.58,214.31" style="stroke:#181818;stroke-width:1.0;"/></g><!--link user to US30--><g id="link_user_US30"><path d="M75.71,45 C120.47,45 200.95,45 273.85,45 " fill="none" id="user-to-US30" style="stroke:#181818;stroke-width:1.0;"/><polygon fill="#181818" points="279.85,45,270.85,41,274.85,45,270.85,49,279.85,45" style="stroke:#181818;stroke-width:1.0;"/></g><!--SRC=[RLBBRiCW4Bpp5QjSsXxSravoZPHxrKEiV032wnYLW0KubV- -k_YHqDOdPcSOpImss4Q83ho-T14QxL55xQmGKaNdONDihjfkG0QGV5h69rJOir27c5ZFWuMjFsiu1_I96UWW-0DuhdjKkXr1WiLlk4cbj4M8Ou-lBwmzr-Kxwqvu8MFq99n5Ar_cl0MyziQDU5ViMF51F4XZLfeAXA0l5XkkAo6aA5f1EzXK-SqxSpVPPoPpYB3IrRyf9Vk0Gal3LRhz7PYtmqjP55MgNAiEcy7WlVAqSRhca- -itkOBYXtflDStQS2rZ_OWOsB_HkC5HFc53_HQlAg4U2gA0euXEANJjG0qe0TCUUXycDufWsKETpdSvx3AuLQ8zFlCcFQHGKgK-aoG-eiV]--></g></svg>