<svg xmlns="http://www.w3.org/2000/svg" xmlns:xlink="http://www.w3.org/1999/xlink" contentStyleType="text/css" height="727px" preserveAspectRatio="none" style="width:513px;height:727px;background:#FFFFFF;" version="1.1" viewBox="0 0 513 727" width="513px" zoomAndPan="magnify"><title>Pandemic Vaccination Management System (PVMS) - Use Case Diagram</title><defs/><g><text fill="#000000" font-family="sans-serif" font-size="14" font-weight="bold" lengthAdjust="spacing" textLength="480.0469" x="10" y="25.1074">Pandemic Vaccination Management System (PVMS) - Use Case Diagram</text><!--entity admin--><g id="elem_admin"><ellipse cx="45.161" cy="447.6211" fill="#F1F1F1" rx="8" ry="8" style="stroke:#181818;stroke-width:0.5;"/><path d="M45.161,455.6211 L45.161,482.6211 M32.161,463.6211 L58.161,463.6211 M45.161,482.6211 L32.161,497.6211 M45.161,482.6211 L58.161,497.6211 " fill="none" style="stroke:#181818;stroke-width:0.5;"/><text fill="#000000" font-family="sans-serif" font-size="14" lengthAdjust="spacing" textLength="39.6826" x="25.3197" y="514.2285">Admin</text></g><!--entity recep--><g id="elem_recep"><ellipse cx="45.3402" cy="167.6211" fill="#F1F1F1" rx="8" ry="8" style="stroke:#181818;stroke-width:0.5;"/><path d="M45.3402,175.6211 L45.3402,202.6211 M32.3402,183.6211 L58.3402,183.6211 M45.3402,202.6211 L32.3402,217.6211 M45.3402,202.6211 L58.3402,217.6211 " fill="none" style="stroke:#181818;stroke-width:0.5;"/><text fill="#000000" font-family="sans-serif" font-size="14" lengthAdjust="spacing" textLength="77.041" x="6.8197" y="234.2285">Receptionist</text></g><!--entity user--><g id="elem_user"><ellipse cx="45.4369" cy="53.6211" fill="#F1F1F1" rx="8" ry="8" style="stroke:#181818;stroke-width:0.5;"/><path d="M45.4369,61.6211 L45.4369,88.6211 M32.4369,69.6211 L58.4369,69.6211 M45.4369,88.6211 L32.4369,103.6211 M45.4369,88.6211 L58.4369,103.6211 " fill="none" style="stroke:#181818;stroke-width:0.5;"/><text fill="#000000" font-family="sans-serif" font-size="14" lengthAdjust="spacing" textLength="62.2344" x="14.3197" y="120.2285">SNS User</text></g><g id="elem_US10"><ellipse cx="325.2654" cy="278.8102" fill="#F1F1F1" rx="106.4457" ry="23.6891" style="stroke:#181818;stroke-width:0.5;"/><text fill="#000000" font-family="sans-serif" font-size="14" lengthAdjust="spacing" textLength="172.7578" x="238.8865" y="282.6071">Specify a new vaccine type.</text></g><g id="elem_US11"><ellipse cx="325.3806" cy="356.8333" fill="#F1F1F1" rx="84.061" ry="19.2122" style="stroke:#181818;stroke-width:0.5;"/><text fill="#000000" font-family="sans-serif" font-size="14" lengthAdjust="spacing" textLength="119.0547" x="262.8533" y="361.637">Register a vaccine.</text></g><g id="elem_US14"><ellipse cx="325.2384" cy="431.5048" fill="#F1F1F1" rx="92.4187" ry="20.8837" style="stroke:#181818;stroke-width:0.5;"/><text fill="#000000" font-family="sans-serif" font-size="14" lengthAdjust="spacing" textLength="140.0752" x="252.2008" y="436.3085">Register an employee.</text></g><g id="elem_US15"><ellipse cx="325.5234" cy="526.8618" fill="#F1F1F1" rx="181.7038" ry="38.7408" style="stroke:#181818;stroke-width:0.5;"/><text fill="#000000" font-family="sans-serif" font-size="14" lengthAdjust="spacing" textLength="333.0674" x="158.9897" y="530.6587">List all employees assigned to a specific function/role.</text></g><g id="elem_US12"><ellipse cx="325.4753" cy="618.5522" fill="#F1F1F1" rx="77.6557" ry="17.9311" style="stroke:#181818;stroke-width:0.5;"/><text fill="#000000" font-family="sans-serif" font-size="14" lengthAdjust="spacing" textLength="101.9307" x="271.51" y="623.3559">List all vaccines.</text></g><g id="elem_US13"><ellipse cx="325.5074" cy="696.8586" fill="#F1F1F1" rx="111.6877" ry="24.7375" style="stroke:#181818;stroke-width:0.5;"/><text fill="#000000" font-family="sans-serif" font-size="14" lengthAdjust="spacing" textLength="184.4268" x="233.294" y="700.6555">Register a vaccination center.</text></g><g id="elem_US20"><ellipse cx="325.4148" cy="198.4401" fill="#F1F1F1" rx="92.0951" ry="20.819" style="stroke:#181818;stroke-width:0.5;"/><text fill="#000000" font-family="sans-serif" font-size="14" lengthAdjust="spacing" textLength="139.2822" x="252.7737" y="203.2438">Register an SNS user.</text></g><g id="elem_US30"><ellipse cx="325.3189" cy="84.4209" fill="#F1F1F1" rx="124.4993" ry="27.2999" style="stroke:#181818;stroke-width:0.5;"/><text fill="#000000" font-family="sans-serif" font-size="14" lengthAdjust="spacing" textLength="212.4541" x="219.0919" y="88.2178">Schedule a vaccine administration</text></g><!--link admin to US10--><g id="link_admin_US10"><path d="M60.4897,438.9111 C75.5397,402.5611 102.8597,350.0611 143.8197,320.6211 C167.5897,303.5311 191.404,294.5435 219.794,288.4335 " fill="none" id="admin-to-US10" style="stroke:#181818;stroke-width:1.0;"/><polygon fill="#181818" points="225.6597,287.1711,216.0195,285.1542,220.7716,288.2231,217.7027,292.9751,225.6597,287.1711" style="stroke:#181818;stroke-width:1.0;"/></g><!--link admin to US11--><g id="link_admin_US11"><path d="M65.6597,456.2011 C83.8397,436.6011 112.8297,408.9611 143.8197,393.6211 C175.6397,377.8711 207.8727,369.7545 240.8927,364.5545 " fill="none" id="admin-to-US11" style="stroke:#181818;stroke-width:1.0;"/><polygon fill="#181818" points="246.8197,363.6211,237.307,361.0699,241.8806,364.3989,238.5515,368.9725,246.8197,363.6211" style="stroke:#181818;stroke-width:1.0;"/></g><!--link admin to US14--><g id="link_admin_US14"><path d="M65.4297,475.3911 C102.9697,469.0411 182.1937,455.6516 244.6337,445.0916 " fill="none" id="admin-to-US14" style="stroke:#181818;stroke-width:1.0;"/><polygon fill="#181818" points="250.5497,444.0911,241.0087,441.6479,245.6197,444.9249,242.3427,449.5359,250.5497,444.0911" style="stroke:#181818;stroke-width:1.0;"/></g><!--link admin to US15--><g id="link_admin_US15"><path d="M65.4297,481.9211 C90.5797,486.2611 131.1772,493.2703 177.9172,501.3403 " fill="none" id="admin-to-US15" style="stroke:#181818;stroke-width:1.0;"/><polygon fill="#181818" points="183.8297,502.3611,175.6415,496.8882,178.9026,501.5104,174.2803,504.7715,183.8297,502.3611" style="stroke:#181818;stroke-width:1.0;"/></g><!--link admin to US12--><g id="link_admin_US12"><path d="M65.5897,507.5911 C83.0997,531.5411 111.1497,564.4711 143.8197,582.6211 C176.0797,600.5511 210.0227,608.8351 244.0927,613.3951 " fill="none" id="admin-to-US12" style="stroke:#181818;stroke-width:1.0;"/><polygon fill="#181818" points="250.0397,614.1911,241.6499,609.0325,245.0839,613.5278,240.5886,616.9618,250.0397,614.1911" style="stroke:#181818;stroke-width:1.0;"/></g><!--link admin to US13--><g id="link_admin_US13"><path d="M57.7097,518.2111 C71.4497,558.7211 98.5197,620.4111 143.8197,654.6211 C166.0297,671.3911 187.9909,680.2825 215.0809,686.4825 " fill="none" id="admin-to-US13" style="stroke:#181818;stroke-width:1.0;"/><polygon fill="#181818" points="220.9297,687.8211,213.0489,681.914,216.0557,686.7056,211.2641,689.7124,220.9297,687.8211" style="stroke:#181818;stroke-width:1.0;"/></g><!--link recep to US20--><g id="link_recep_US20"><path d="M84.0997,198.6211 C122.2597,198.6211 176.6297,198.6211 227.3097,198.6211 " fill="none" id="recep-to-US20" style="stroke:#181818;stroke-width:1.0;"/><polygon fill="#181818" points="233.3097,198.6211,224.3097,194.6211,228.3097,198.6211,224.3097,202.6211,233.3097,198.6211" style="stroke:#181818;stroke-width:1.0;"/></g><!--link user to US30--><g id="link_user_US30"><path d="M76.3397,84.6211 C106.3797,84.6211 148.6297,84.6211 194.6197,84.6211 " fill="none" id="user-to-US30" style="stroke:#181818;stroke-width:1.0;"/><polygon fill="#181818" points="200.6197,84.6211,191.6197,80.6211,195.6197,84.6211,191.6197,88.6211,200.6197,84.6211" style="stroke:#181818;stroke-width:1.0;"/></g><!--SRC=[RL5DRy8m3BtdLrXS1eTkV5wHq7OS4oA2kvMQ4gbDgoHiwh-V7KfHflLG-VczECylqSQQu82kfCOQEACnrc6qhOCzEgoe8HT1zo5I0zF3UQzdKC0f4BmZ_puiLXuRLTCbGcp1s-eQeRIUZCnG2ariFKnsPMFT1300IlLe7ybG9q8ROcAzD1wi_j9oaq_CZGib7y1KTsJifGS4Hp_mdJmJnBwZrvbeJten5zsHAXvCdeM3QEGNEU-0cgvkUtegrgBuP1wmhaUQ5mZ1LevAMHSX92kStENcqifllgsVGpRPaC546EdbloxlyHiEdlmeNVqrBEb8A0_5CgsipPNA6p_fkF8zSJxcqzn1lPfpb2z5KS0kXDROn0NW1lVJ2QwtzoGpkCZXEeUR72vpk58gFV20sR6I3GOebdu1]--></g></svg>