<svg xmlns="http://www.w3.org/2000/svg" xmlns:xlink="http://www.w3.org/1999/xlink" contentStyleType="text/css" height="1816px" preserveAspectRatio="none" style="width:915px;height:1816px;background:#FFFFFF;" version="1.1" viewBox="0 0 915 1816" width="915px" zoomAndPan="magnify"><defs/><g><!--class Vaccine--><g id="elem_Vaccine"><rect codeLine="8" fill="#F1F1F1" height="111.1055" id="Vaccine" rx="2.5" ry="2.5" style="stroke:#181818;stroke-width:0.5;" width="131.0342" x="7" y="879"/><text fill="#000000" font-family="sans-serif" font-size="14" lengthAdjust="spacing" textLength="49.8066" x="47.6138" y="899.1074">Vaccine</text><line style="stroke:#181818;stroke-width:0.5;" x1="8" x2="137.0342" y1="907.6211" y2="907.6211"/><text fill="#000000" font-family="sans-serif" font-size="14" lengthAdjust="spacing" textLength="119.0342" x="13" y="926.7285">-commercial_name</text><text fill="#000000" font-family="sans-serif" font-size="14" lengthAdjust="spacing" textLength="40.4688" x="13" y="945.3496">-brand</text><text fill="#000000" font-family="sans-serif" font-size="14" lengthAdjust="spacing" textLength="31.124" x="13" y="963.9707">-type</text><text fill="#000000" font-family="sans-serif" font-size="14" lengthAdjust="spacing" textLength="72.3789" x="13" y="982.5918">-technology</text></g><!--class Vaccine_Type--><g id="elem_Vaccine_Type"><rect codeLine="15" fill="#F1F1F1" height="73.8633" id="Vaccine_Type" rx="2.5" ry="2.5" style="stroke:#181818;stroke-width:0.5;" width="123.2754" x="203" y="1716.5"/><text fill="#000000" font-family="sans-serif" font-size="14" lengthAdjust="spacing" textLength="88.7168" x="220.2793" y="1736.6074">Vaccine_Type</text><line style="stroke:#181818;stroke-width:0.5;" x1="204" x2="325.2754" y1="1745.1211" y2="1745.1211"/><text fill="#000000" font-family="sans-serif" font-size="14" lengthAdjust="spacing" textLength="52.917" x="209" y="1764.2285">-disease</text><text fill="#000000" font-family="sans-serif" font-size="14" lengthAdjust="spacing" textLength="111.2754" x="209" y="1782.8496">-short_description</text></g><!--class Facility--><g id="elem_Facility"><rect codeLine="20" fill="#F1F1F1" height="204.2109" id="Facility" rx="2.5" ry="2.5" style="stroke:#181818;stroke-width:0.5;" width="114.7168" x="722" y="7"/><text fill="#000000" font-family="sans-serif" font-size="14" lengthAdjust="spacing" textLength="43.5586" x="757.5791" y="27.1074">Facility</text><line style="stroke:#181818;stroke-width:0.5;" x1="723" x2="835.7168" y1="35.6211" y2="35.6211"/><text fill="#000000" font-family="sans-serif" font-size="14" lengthAdjust="spacing" textLength="39.6826" x="728" y="54.7285">-name</text><text fill="#000000" font-family="sans-serif" font-size="14" lengthAdjust="spacing" textLength="91.8271" x="728" y="73.3496">-postal_adress</text><text fill="#000000" font-family="sans-serif" font-size="14" lengthAdjust="spacing" textLength="98.8477" x="728" y="91.9707">-phone_number</text><text fill="#000000" font-family="sans-serif" font-size="14" lengthAdjust="spacing" textLength="38.1172" x="728" y="110.5918">-email</text><text fill="#000000" font-family="sans-serif" font-size="14" lengthAdjust="spacing" textLength="101.9375" x="728" y="129.2129">-website_adress</text><text fill="#000000" font-family="sans-serif" font-size="14" lengthAdjust="spacing" textLength="97.2959" x="728" y="147.834">-opening_hours</text><text fill="#000000" font-family="sans-serif" font-size="14" lengthAdjust="spacing" textLength="91.0479" x="728" y="166.4551">-closing_hours</text><text fill="#000000" font-family="sans-serif" font-size="14" lengthAdjust="spacing" textLength="102.7168" x="728" y="185.0762">-center_capacity</text><text fill="#000000" font-family="sans-serif" font-size="14" lengthAdjust="spacing" textLength="32.6826" x="728" y="203.6973">-area</text></g><!--class Employee--><g id="elem_Employee"><rect codeLine="32" fill="#F1F1F1" height="111.1055" id="Employee" rx="2.5" ry="2.5" style="stroke:#181818;stroke-width:0.5;" width="110.8477" x="495" y="370"/><text fill="#000000" font-family="sans-serif" font-size="14" lengthAdjust="spacing" textLength="62.2549" x="519.2964" y="390.1074">Employee</text><line style="stroke:#181818;stroke-width:0.5;" x1="496" x2="604.8477" y1="398.6211" y2="398.6211"/><text fill="#000000" font-family="sans-serif" font-size="14" lengthAdjust="spacing" textLength="39.6826" x="501" y="417.7285">-name</text><text fill="#000000" font-family="sans-serif" font-size="14" lengthAdjust="spacing" textLength="91.8271" x="501" y="436.3496">-postal_adress</text><text fill="#000000" font-family="sans-serif" font-size="14" lengthAdjust="spacing" textLength="98.8477" x="501" y="454.9707">-phone_number</text><text fill="#000000" font-family="sans-serif" font-size="14" lengthAdjust="spacing" textLength="38.1172" x="501" y="473.5918">-email</text></g><!--class SNS_User--><g id="elem_SNS_User"><rect codeLine="40" fill="#F1F1F1" height="185.5898" id="SNS_User" rx="2.5" ry="2.5" style="stroke:#181818;stroke-width:0.5;" width="135.7236" x="724.5" y="1100"/><text fill="#000000" font-family="sans-serif" font-size="14" lengthAdjust="spacing" textLength="66.1309" x="759.2964" y="1120.1074">SNS_User</text><line style="stroke:#181818;stroke-width:0.5;" x1="725.5" x2="859.2236" y1="1128.6211" y2="1128.6211"/><text fill="#000000" font-family="sans-serif" font-size="14" lengthAdjust="spacing" textLength="39.6826" x="730.5" y="1147.7285">-name</text><text fill="#000000" font-family="sans-serif" font-size="14" lengthAdjust="spacing" textLength="66.9307" x="730.5" y="1166.3496">-date_birth</text><text fill="#000000" font-family="sans-serif" font-size="14" lengthAdjust="spacing" textLength="26.4482" x="730.5" y="1184.9707">-sex</text><text fill="#000000" font-family="sans-serif" font-size="14" lengthAdjust="spacing" textLength="91.8271" x="730.5" y="1203.5918">-postal_adress</text><text fill="#000000" font-family="sans-serif" font-size="14" lengthAdjust="spacing" textLength="98.8477" x="730.5" y="1222.2129">-phone_number</text><text fill="#000000" font-family="sans-serif" font-size="14" lengthAdjust="spacing" textLength="38.1172" x="730.5" y="1240.834">-email</text><text fill="#000000" font-family="sans-serif" font-size="14" lengthAdjust="spacing" textLength="80.1377" x="730.5" y="1259.4551">-CC_number</text><text fill="#000000" font-family="sans-serif" font-size="14" lengthAdjust="spacing" textLength="123.7236" x="730.5" y="1278.0762">-SNS_user_number</text></g><!--class Vaccination_Appointment--><g id="elem_Vaccination_Appointment"><rect codeLine="53" fill="#F1F1F1" height="129.7266" id="Vaccination_Appointment" rx="2.5" ry="2.5" style="stroke:#181818;stroke-width:0.5;" width="164.7715" x="498" y="1427"/><text fill="#000000" font-family="sans-serif" font-size="14" lengthAdjust="spacing" textLength="158.7715" x="501" y="1447.1074">Vaccination_Appointment</text><line style="stroke:#181818;stroke-width:0.5;" x1="499" x2="661.7715" y1="1455.6211" y2="1455.6211"/><text fill="#000000" font-family="sans-serif" font-size="14" lengthAdjust="spacing" textLength="123.7236" x="504" y="1474.7285">-SNS_user_number</text><text fill="#000000" font-family="sans-serif" font-size="14" lengthAdjust="spacing" textLength="43.5586" x="504" y="1493.3496">-facility</text><text fill="#000000" font-family="sans-serif" font-size="14" lengthAdjust="spacing" textLength="42.0137" x="504" y="1511.9707">-status</text><text fill="#000000" font-family="sans-serif" font-size="14" lengthAdjust="spacing" textLength="31.9102" x="504" y="1530.5918">-date</text><text fill="#000000" font-family="sans-serif" font-size="14" lengthAdjust="spacing" textLength="31.1104" x="504" y="1549.2129">-time</text></g><!--class Current_Outbreak--><g id="elem_Current_Outbreak"><rect codeLine="61" fill="#F1F1F1" height="111.1055" id="Current_Outbreak" rx="2.5" ry="2.5" style="stroke:#181818;stroke-width:0.5;" width="118.0547" x="419.5" y="1698"/><text fill="#000000" font-family="sans-serif" font-size="14" lengthAdjust="spacing" textLength="112.0547" x="422.5" y="1718.1074">Current_Outbreak</text><line style="stroke:#181818;stroke-width:0.5;" x1="420.5" x2="536.5547" y1="1726.6211" y2="1726.6211"/><text fill="#000000" font-family="sans-serif" font-size="14" lengthAdjust="spacing" textLength="52.917" x="425.5" y="1745.7285">-disease</text><text fill="#000000" font-family="sans-serif" font-size="14" lengthAdjust="spacing" textLength="66.9238" x="425.5" y="1764.3496">-start_date</text><text fill="#000000" font-family="sans-serif" font-size="14" lengthAdjust="spacing" textLength="63.0547" x="425.5" y="1782.9707">-end_date</text><text fill="#000000" font-family="sans-serif" font-size="14" lengthAdjust="spacing" textLength="66.1309" x="425.5" y="1801.5918">-is_current</text></g><!--class Community_Mass_Vaccination_Center--><g id="elem_Community_Mass_Vaccination_Center"><rect codeLine="68" fill="#F1F1F1" height="36.6211" id="Community_Mass_Vaccination_Center" rx="2.5" ry="2.5" style="stroke:#181818;stroke-width:0.5;" width="247.999" x="498.5" y="803"/><text fill="#000000" font-family="sans-serif" font-size="14" lengthAdjust="spacing" textLength="241.999" x="501.5" y="823.1074">Community_Mass_Vaccination_Center</text><line style="stroke:#181818;stroke-width:0.5;" x1="499.5" x2="745.499" y1="831.6211" y2="831.6211"/></g><!--class Healthcare_Center--><g id="elem_Healthcare_Center"><rect codeLine="71" fill="#F1F1F1" height="36.6211" id="Healthcare_Center" rx="2.5" ry="2.5" style="stroke:#181818;stroke-width:0.5;" width="123.5098" x="447.5" y="272"/><text fill="#000000" font-family="sans-serif" font-size="14" lengthAdjust="spacing" textLength="117.5098" x="450.5" y="292.1074">Healthcare_Center</text><line style="stroke:#181818;stroke-width:0.5;" x1="448.5" x2="570.0098" y1="300.6211" y2="300.6211"/></g><!--class Nurse--><g id="elem_Nurse"><rect codeLine="74" fill="#F1F1F1" height="111.1055" id="Nurse" rx="2.5" ry="2.5" style="stroke:#181818;stroke-width:0.5;" width="110.8477" x="617" y="542"/><text fill="#000000" font-family="sans-serif" font-size="14" lengthAdjust="spacing" textLength="37.3447" x="653.7515" y="562.1074">Nurse</text><line style="stroke:#181818;stroke-width:0.5;" x1="618" x2="726.8477" y1="570.6211" y2="570.6211"/><text fill="#000000" font-family="sans-serif" font-size="14" lengthAdjust="spacing" textLength="39.6826" x="623" y="589.7285">-name</text><text fill="#000000" font-family="sans-serif" font-size="14" lengthAdjust="spacing" textLength="91.8271" x="623" y="608.3496">-postal_adress</text><text fill="#000000" font-family="sans-serif" font-size="14" lengthAdjust="spacing" textLength="98.8477" x="623" y="626.9707">-phone_number</text><text fill="#000000" font-family="sans-serif" font-size="14" lengthAdjust="spacing" textLength="38.1172" x="623" y="645.5918">-email</text></g><!--class Receptionist--><g id="elem_Receptionist"><rect codeLine="81" fill="#F1F1F1" height="111.1055" id="Receptionist" rx="2.5" ry="2.5" style="stroke:#181818;stroke-width:0.5;" width="110.8477" x="328" y="1137.5"/><text fill="#000000" font-family="sans-serif" font-size="14" lengthAdjust="spacing" textLength="77.041" x="344.9033" y="1157.6074">Receptionist</text><line style="stroke:#181818;stroke-width:0.5;" x1="329" x2="437.8477" y1="1166.1211" y2="1166.1211"/><text fill="#000000" font-family="sans-serif" font-size="14" lengthAdjust="spacing" textLength="39.6826" x="334" y="1185.2285">-name</text><text fill="#000000" font-family="sans-serif" font-size="14" lengthAdjust="spacing" textLength="91.8271" x="334" y="1203.8496">-postal_adress</text><text fill="#000000" font-family="sans-serif" font-size="14" lengthAdjust="spacing" textLength="98.8477" x="334" y="1222.4707">-phone_number</text><text fill="#000000" font-family="sans-serif" font-size="14" lengthAdjust="spacing" textLength="38.1172" x="334" y="1241.0918">-email</text></g><!--class Event--><g id="elem_Event"><rect codeLine="88" fill="#F1F1F1" height="111.1055" id="Event" rx="2.5" ry="2.5" style="stroke:#181818;stroke-width:0.5;" width="124.0342" x="518.5" y="1137.5"/><text fill="#000000" font-family="sans-serif" font-size="14" lengthAdjust="spacing" textLength="35.7998" x="562.6172" y="1157.6074">Event</text><line style="stroke:#181818;stroke-width:0.5;" x1="519.5" x2="641.5342" y1="1166.1211" y2="1166.1211"/><text fill="#000000" font-family="sans-serif" font-size="14" lengthAdjust="spacing" textLength="112.0342" x="524.5" y="1185.2285">-user_arrival_time</text><text fill="#000000" font-family="sans-serif" font-size="14" lengthAdjust="spacing" textLength="40.4688" x="524.5" y="1203.8496">-brand</text><text fill="#000000" font-family="sans-serif" font-size="14" lengthAdjust="spacing" textLength="74.7031" x="524.5" y="1222.4707">-lot_number</text><text fill="#000000" font-family="sans-serif" font-size="14" lengthAdjust="spacing" textLength="96.5029" x="524.5" y="1241.0918">-reaction_notes</text></g><!--class Administrator--><g id="elem_Administrator"><rect codeLine="95" fill="#F1F1F1" height="92.4844" id="Administrator" rx="2.5" ry="2.5" style="stroke:#181818;stroke-width:0.5;" width="110.8477" x="177" y="551.5"/><text fill="#000000" font-family="sans-serif" font-size="14" lengthAdjust="spacing" textLength="82.4688" x="191.1895" y="571.6074">Administrator</text><line style="stroke:#181818;stroke-width:0.5;" x1="178" x2="286.8477" y1="580.1211" y2="580.1211"/><text fill="#000000" font-family="sans-serif" font-size="14" lengthAdjust="spacing" textLength="39.6826" x="183" y="599.2285">-name</text><text fill="#000000" font-family="sans-serif" font-size="14" lengthAdjust="spacing" textLength="38.1172" x="183" y="617.8496">-email</text><text fill="#000000" font-family="sans-serif" font-size="14" lengthAdjust="spacing" textLength="98.8477" x="183" y="636.4707">-phone_number</text></g><!--class Vaccine_Certificate--><g id="elem_Vaccine_Certificate"><rect codeLine="101" fill="#F1F1F1" height="55.2422" id="Vaccine_Certificate" rx="2.5" ry="2.5" style="stroke:#181818;stroke-width:0.5;" width="126.6133" x="782" y="794"/><text fill="#000000" font-family="sans-serif" font-size="14" lengthAdjust="spacing" textLength="120.6133" x="785" y="814.1074">Vaccine_Certificate</text><line style="stroke:#181818;stroke-width:0.5;" x1="783" x2="907.6133" y1="822.6211" y2="822.6211"/><text fill="#000000" font-family="sans-serif" font-size="14" lengthAdjust="spacing" textLength="67.7031" x="788" y="841.7285">-issue_day</text></g><!--reverse link Employee to Nurse--><g id="link_Employee_Nurse"><path codeLine="105" d="M600.2615,495.8463 C614.1915,515.2663 619.38,522.47 633.3,541.88 " fill="none" id="Employee-backto-Nurse" style="stroke:#181818;stroke-width:1.0;"/><polygon fill="none" points="589.77,481.22,595.386,499.3435,605.1369,492.3491,589.77,481.22" style="stroke:#181818;stroke-width:1.0;"/></g><!--reverse link Employee to Receptionist--><g id="link_Employee_Receptionist"><path codeLine="106" d="M553.7105,499.1153 C555.1405,561.8053 551.57,648.81 521.5,733 C510.51,763.76 493.68,764.11 480.5,794 C429.12,910.48 402.17,1058.65 390.6,1137.25 " fill="none" id="Employee-backto-Receptionist" style="stroke:#181818;stroke-width:1.0;"/><polygon fill="none" points="553.3,481.12,547.712,499.2521,559.7089,498.9785,553.3,481.12" style="stroke:#181818;stroke-width:1.0;"/></g><!--reverse link Facility to Community_Mass_Vaccination_Center--><g id="link_Facility_Community_Mass_Vaccination_Center"><path codeLine="108" d="M846.7971,194.8767 C867.2371,226.4267 875.5,250.27 875.5,289.5 C875.5,289.5 875.5,289.5 875.5,724.5 C875.5,759.79 788.35,786.73 716.35,802.96 " fill="none" id="Facility-backto-Community_Mass_Vaccination_Center" style="stroke:#181818;stroke-width:1.0;"/><polygon fill="none" points="837.01,179.77,841.7615,198.1391,851.8326,191.6144,837.01,179.77" style="stroke:#181818;stroke-width:1.0;"/></g><!--reverse link Facility to Healthcare_Center--><g id="link_Facility_Healthcare_Center"><path codeLine="109" d="M706.9203,158.2553 C649.4603,196.4553 578.73,243.47 535.88,271.96 " fill="none" id="Facility-backto-Healthcare_Center" style="stroke:#181818;stroke-width:1.0;"/><polygon fill="none" points="721.91,148.29,703.5985,153.2588,710.242,163.2519,721.91,148.29" style="stroke:#181818;stroke-width:1.0;"/></g><!--link Administrator to Nurse--><g id="link_Administrator_Nurse"><path codeLine="111" d="M288.23,597.5 C372.75,597.5 526.42,597.5 610.88,597.5 " fill="none" id="Administrator-to-Nurse" style="stroke:#181818;stroke-width:1.0;"/><polygon fill="#181818" points="616.88,597.5,607.88,593.5,611.88,597.5,607.88,601.5,616.88,597.5" style="stroke:#181818;stroke-width:1.0;"/><text fill="#000000" font-family="sans-serif" font-size="13" lengthAdjust="spacing" textLength="43.3481" x="431" y="590.5283">register</text><text fill="#000000" font-family="sans-serif" font-size="13" lengthAdjust="spacing" textLength="7.23" x="295.8433" y="593.4269">1</text><text fill="#000000" font-family="sans-serif" font-size="13" lengthAdjust="spacing" textLength="19.5127" x="589.5791" y="593.4511">1..*</text></g><!--reverse link Receptionist to Administrator--><g id="link_Receptionist_Administrator"><path codeLine="113" d="M323.3613,1150.1023 C288.0313,1120.9623 253.5,1081.07 253.5,1030.5 C253.5,722.5 253.5,722.5 253.5,722.5 C253.5,696.08 248.81,666.93 243.86,643.54 " fill="none" id="Receptionist-backto-Administrator" style="stroke:#181818;stroke-width:1.0;"/><polygon fill="#181818" points="327.99,1153.92,323.5921,1145.1076,324.1327,1150.7386,318.5018,1151.2792,327.99,1153.92" style="stroke:#181818;stroke-width:1.0;"/><text fill="#000000" font-family="sans-serif" font-size="13" lengthAdjust="spacing" textLength="43.3481" x="254.5" y="827.0283">register</text><text fill="#000000" font-family="sans-serif" font-size="13" lengthAdjust="spacing" textLength="19.5127" x="300.299" y="1144.5672">1..*</text><text fill="#000000" font-family="sans-serif" font-size="13" lengthAdjust="spacing" textLength="7.23" x="238.0928" y="665.905">1</text></g><!--link Administrator to Vaccine--><g id="link_Administrator_Vaccine"><path codeLine="115" d="M176.83,630.21 C147.17,650.23 113.07,678.93 94.5,714 C67.44,765.11 64.3589,826.2971 66.6189,872.8171 " fill="none" id="Administrator-to-Vaccine" style="stroke:#181818;stroke-width:1.0;"/><polygon fill="#181818" points="66.91,878.81,70.4686,869.6265,66.6674,873.8159,62.478,870.0147,66.91,878.81" style="stroke:#181818;stroke-width:1.0;"/><text fill="#000000" font-family="sans-serif" font-size="13" lengthAdjust="spacing" textLength="43.3481" x="95.5" y="729.0283">register</text><text fill="#000000" font-family="sans-serif" font-size="13" lengthAdjust="spacing" textLength="7.23" x="161.9047" y="630.4785">1</text><text fill="#000000" font-family="sans-serif" font-size="13" lengthAdjust="spacing" textLength="19.5127" x="46.0072" y="867.6259">1..*</text></g><!--link Administrator to Community_Mass_Vaccination_Center--><g id="link_Administrator_Community_Mass_Vaccination_Center"><path codeLine="117" d="M288.38,630.31 C371.78,677.78 520.8259,762.6214 586.4459,799.9814 " fill="none" id="Administrator-to-Community_Mass_Vaccination_Center" style="stroke:#181818;stroke-width:1.0;"/><polygon fill="#181818" points="591.66,802.95,585.8179,795.021,587.3149,800.4762,581.8597,801.9732,591.66,802.95" style="stroke:#181818;stroke-width:1.0;"/><text fill="#000000" font-family="sans-serif" font-size="13" lengthAdjust="spacing" textLength="43.3481" x="469.5" y="729.0283">register</text><text fill="#000000" font-family="sans-serif" font-size="13" lengthAdjust="spacing" textLength="7.23" x="296.0126" y="630.4407">1</text><text fill="#000000" font-family="sans-serif" font-size="13" lengthAdjust="spacing" textLength="19.5127" x="560.3845" y="791.7968">1..*</text></g><!--reverse link Healthcare_Center to Administrator--><g id="link_Healthcare_Center_Administrator"><path codeLine="119" d="M441.2741,292.0404 C383.6641,295.9904 307.5,311.88 270.5,370 C235.38,425.16 229.67,502.6 230.09,551.14 " fill="none" id="Healthcare_Center-backto-Administrator" style="stroke:#181818;stroke-width:1.0;"/><polygon fill="#181818" points="447.26,291.63,438.0075,288.255,442.2717,291.972,438.5547,296.2363,447.26,291.63" style="stroke:#181818;stroke-width:1.0;"/><text fill="#000000" font-family="sans-serif" font-size="13" lengthAdjust="spacing" textLength="43.3481" x="271.5" y="431.0283">register</text><text fill="#000000" font-family="sans-serif" font-size="13" lengthAdjust="spacing" textLength="19.5127" x="420.023" y="287.8449">1..*</text><text fill="#000000" font-family="sans-serif" font-size="13" lengthAdjust="spacing" textLength="7.23" x="222.25" y="540.0966">1</text></g><!--link Administrator to Vaccine_Type--><g id="link_Administrator_Vaccine_Type"><path codeLine="121" d="M194.3,643.73 C179.26,665.99 165.5,694.12 165.5,722.5 C165.5,722.5 165.5,722.5 165.5,1628.5 C165.5,1663.49 185.4035,1690.2626 209.9635,1712.4026 " fill="none" id="Administrator-to-Vaccine_Type" style="stroke:#181818;stroke-width:1.0;"/><polygon fill="#181818" points="214.42,1716.42,210.4135,1707.4229,210.7062,1713.0722,205.057,1713.3649,214.42,1716.42" style="stroke:#181818;stroke-width:1.0;"/><text fill="#000000" font-family="sans-serif" font-size="13" lengthAdjust="spacing" textLength="51.3018" x="166.5" y="1198.5283">specify a</text><text fill="#000000" font-family="sans-serif" font-size="13" lengthAdjust="spacing" textLength="7.23" x="180.944" y="666.124">1</text><text fill="#000000" font-family="sans-serif" font-size="13" lengthAdjust="spacing" textLength="19.5127" x="184.8284" y="1705.3675">1..*</text></g><!--link SNS_User to Vaccination_Appointment--><g id="link_SNS_User_Vaccination_Appointment"><path codeLine="123" d="M726.58,1286.34 C694.01,1331.98 658.995,1381.0258 629.705,1422.0758 " fill="none" id="SNS_User-to-Vaccination_Appointment" style="stroke:#181818;stroke-width:1.0;"/><polygon fill="#181818" points="626.22,1426.96,634.7035,1421.957,629.1241,1422.8899,628.1913,1417.3104,626.22,1426.96" style="stroke:#181818;stroke-width:1.0;"/><text fill="#000000" font-family="sans-serif" font-size="13" lengthAdjust="spacing" textLength="49.1309" x="684.5" y="1362.0283">makes a</text><text fill="#000000" font-family="sans-serif" font-size="13" lengthAdjust="spacing" textLength="7.23" x="714.7167" y="1307.5536">1</text><text fill="#000000" font-family="sans-serif" font-size="13" lengthAdjust="spacing" textLength="21.6836" x="609.345" y="1415.5179">0..1</text></g><!--link Nurse to Community_Mass_Vaccination_Center--><g id="link_Nurse_Community_Mass_Vaccination_Center"><path codeLine="125" d="M660.2,653.09 C649.19,702.01 635.008,764.9666 627.798,796.9866 " fill="none" id="Nurse-to-Community_Mass_Vaccination_Center" style="stroke:#181818;stroke-width:1.0;"/><polygon fill="#181818" points="626.48,802.84,632.3593,794.9385,627.5784,797.9621,624.5547,793.1811,626.48,802.84" style="stroke:#181818;stroke-width:1.0;"/><text fill="#000000" font-family="sans-serif" font-size="13" lengthAdjust="spacing" textLength="47.6772" x="647.5" y="729.0283">works in</text><text fill="#000000" font-family="sans-serif" font-size="13" lengthAdjust="spacing" textLength="19.5127" x="638.5837" y="674.9406">1..*</text><text fill="#000000" font-family="sans-serif" font-size="13" lengthAdjust="spacing" textLength="7.23" x="619.6624" y="791.6532">1</text></g><!--reverse link Healthcare_Center to Nurse--><g id="link_Healthcare_Center_Nurse"><path codeLine="126" d="M554.2018,311.82 C579.3518,325.03 605.24,342.75 623.5,370 C657.99,421.47 668.72,492.98 671.79,541.79 " fill="none" id="Healthcare_Center-backto-Nurse" style="stroke:#181818;stroke-width:1.0;"/><polygon fill="#181818" points="548.89,309.03,554.9977,316.7563,553.3165,311.355,558.7178,309.6738,548.89,309.03" style="stroke:#181818;stroke-width:1.0;"/><text fill="#000000" font-family="sans-serif" font-size="13" lengthAdjust="spacing" textLength="47.6772" x="666.5" y="431.0283">works in</text><text fill="#000000" font-family="sans-serif" font-size="13" lengthAdjust="spacing" textLength="7.23" x="552.0853" y="330.7547">1</text><text fill="#000000" font-family="sans-serif" font-size="13" lengthAdjust="spacing" textLength="19.5127" x="651.5244" y="530.6033">1..*</text></g><!--reverse link Community_Mass_Vaccination_Center to Receptionist--><g id="link_Community_Mass_Vaccination_Center_Receptionist"><path codeLine="128" d="M609.3384,845.3852 C585.6384,886.4052 527.48,985.73 471.5,1070 C456.62,1092.41 439.46,1116.53 424.28,1137.37 " fill="none" id="Community_Mass_Vaccination_Center-backto-Receptionist" style="stroke:#181818;stroke-width:1.0;"/><polygon fill="#181818" points="612.34,840.19,604.3741,845.9817,609.8386,844.5193,611.301,849.9839,612.34,840.19" style="stroke:#181818;stroke-width:1.0;"/><text fill="#000000" font-family="sans-serif" font-size="13" lengthAdjust="spacing" textLength="47.6772" x="504.5" y="1035.0283">works in</text><text fill="#000000" font-family="sans-serif" font-size="13" lengthAdjust="spacing" textLength="7.23" x="601.6999" y="861.6157">1</text><text fill="#000000" font-family="sans-serif" font-size="13" lengthAdjust="spacing" textLength="19.5127" x="409.3304" y="1126.1936">1..*</text></g><!--reverse link Healthcare_Center to Receptionist--><g id="link_Healthcare_Center_Receptionist"><path codeLine="129" d="M449.3874,311.244 C400.3274,330.824 341.5,365.54 341.5,424.5 C341.5,424.5 341.5,424.5 341.5,684 C341.5,849.49 363.91,1044.27 375.99,1137.25 " fill="none" id="Healthcare_Center-backto-Receptionist" style="stroke:#181818;stroke-width:1.0;"/><polygon fill="#181818" points="454.96,309.02,445.1184,308.641,450.3162,310.8734,448.0838,316.0711,454.96,309.02" style="stroke:#181818;stroke-width:1.0;"/><text fill="#000000" font-family="sans-serif" font-size="13" lengthAdjust="spacing" textLength="47.6772" x="343.5" y="729.0283">works in</text><text fill="#000000" font-family="sans-serif" font-size="13" lengthAdjust="spacing" textLength="7.23" x="432.4585" y="330.4">1</text><text fill="#000000" font-family="sans-serif" font-size="13" lengthAdjust="spacing" textLength="19.5127" x="354.8532" y="1126.0582">1..*</text></g><!--reverse link Vaccine_Type to Current_Outbreak--><g id="link_Vaccine_Type_Current_Outbreak"><path codeLine="131" d="M332.11,1753.5 C361.37,1753.5 390.2,1753.5 419.16,1753.5 " fill="none" id="Vaccine_Type-backto-Current_Outbreak" style="stroke:#181818;stroke-width:1.0;"/><polygon fill="#181818" points="326.11,1753.5,335.11,1757.5,331.11,1753.5,335.11,1749.5,326.11,1753.5" style="stroke:#181818;stroke-width:1.0;"/><text fill="#000000" font-family="sans-serif" font-size="13" lengthAdjust="spacing" textLength="57.8081" x="344.25" y="1746.5283">correlated</text><text fill="#000000" font-family="sans-serif" font-size="13" lengthAdjust="spacing" textLength="7.23" x="334.4493" y="1749.4667">1</text><text fill="#000000" font-family="sans-serif" font-size="13" lengthAdjust="spacing" textLength="7.23" x="404.1199" y="1749.4511">1</text></g><!--link Vaccine to Vaccine_Type--><g id="link_Vaccine_Vaccine_Type"><path codeLine="133" d="M74.28,990.05 C74.93,1014.24 75.5,1043.04 75.5,1069 C75.5,1069 75.5,1069 75.5,1628.5 C75.5,1690.6 141.9553,1721.6462 197.1153,1737.5662 " fill="none" id="Vaccine-to-Vaccine_Type" style="stroke:#181818;stroke-width:1.0;"/><polygon fill="#181818" points="202.88,1739.23,195.3421,1732.8912,198.0761,1737.8435,193.1238,1740.5775,202.88,1739.23" style="stroke:#181818;stroke-width:1.0;"/><text fill="#000000" font-family="sans-serif" font-size="13" lengthAdjust="spacing" textLength="20.96" x="76.5" y="1362.0283">has</text><text fill="#000000" font-family="sans-serif" font-size="13" lengthAdjust="spacing" textLength="19.5127" x="54.3215" y="1012.2966">0..*</text><text fill="#000000" font-family="sans-serif" font-size="13" lengthAdjust="spacing" textLength="7.23" x="187.9407" y="1733.5093">1</text></g><!--link Nurse to Vaccine_Certificate--><g id="link_Nurse_Vaccine_Certificate"><path codeLine="135" d="M715.04,653.09 C749.86,697.77 793.9215,754.3176 820.9515,788.9976 " fill="none" id="Nurse-to-Vaccine_Certificate" style="stroke:#181818;stroke-width:1.0;"/><polygon fill="#181818" points="824.64,793.73,822.2622,784.1725,821.5663,789.7864,815.9524,789.0904,824.64,793.73" style="stroke:#181818;stroke-width:1.0;"/><polygon fill="#000000" points="785.5734,727.5894,782.3317,718.6483,777.6954,722.2614,785.5734,727.5894" style="stroke:#000000;stroke-width:1.0;"/><text fill="#000000" font-family="sans-serif" font-size="13" lengthAdjust="spacing" textLength="42.6309" x="791.5" y="729.0283">creates</text><text fill="#000000" font-family="sans-serif" font-size="13" lengthAdjust="spacing" textLength="7.23" x="712.8213" y="674.9406">1</text><text fill="#000000" font-family="sans-serif" font-size="13" lengthAdjust="spacing" textLength="19.5127" x="799.0971" y="782.8296">0..*</text></g><!--link Vaccine_Certificate to Event--><g id="link_Vaccine_Certificate_Event"><path codeLine="137" d="M826.44,849.07 C783.3,909.22 680.9468,1051.9443 623.1768,1132.4943 " fill="none" id="Vaccine_Certificate-to-Event" style="stroke:#181818;stroke-width:1.0;"/><polygon fill="#181818" points="619.68,1137.37,628.1757,1132.3877,622.594,1133.3069,621.6748,1127.7253,619.68,1137.37" style="stroke:#181818;stroke-width:1.0;"/><text fill="#000000" font-family="sans-serif" font-size="13" lengthAdjust="spacing" textLength="56.3608" x="704.5" y="1035.0283">issued for</text><text fill="#000000" font-family="sans-serif" font-size="13" lengthAdjust="spacing" textLength="21.6836" x="798.728" y="871.4452">0..1</text><text fill="#000000" font-family="sans-serif" font-size="13" lengthAdjust="spacing" textLength="7.23" x="617.264" y="1126.1936">1</text></g><!--link Vaccination_Appointment to Vaccine_Type--><g id="link_Vaccination_Appointment_Vaccine_Type"><path codeLine="139" d="M509.17,1557.13 C471,1590.84 422.84,1632.44 378.5,1668 C358.03,1684.41 339.7002,1698.2442 319.6202,1712.9542 " fill="none" id="Vaccination_Appointment-to-Vaccine_Type" style="stroke:#181818;stroke-width:1.0;"/><polygon fill="#181818" points="314.78,1716.5,324.4041,1714.4081,318.8135,1713.5452,319.6764,1707.9545,314.78,1716.5" style="stroke:#181818;stroke-width:1.0;"/><text fill="#000000" font-family="sans-serif" font-size="13" lengthAdjust="spacing" textLength="57.8081" x="439.5" y="1633.0283">correlated</text><text fill="#000000" font-family="sans-serif" font-size="13" lengthAdjust="spacing" textLength="7.23" x="494.4768" y="1578.7805">1</text><text fill="#000000" font-family="sans-serif" font-size="13" lengthAdjust="spacing" textLength="7.23" x="324.6915" y="1705.1787">1</text></g><!--reverse link Event to Vaccination_Appointment--><g id="link_Event_Vaccination_Appointment"><path codeLine="141" d="M580.5,1254.82 C580.5,1305.19 580.5,1373.86 580.5,1426.95 " fill="none" id="Event-backto-Vaccination_Appointment" style="stroke:#181818;stroke-width:1.0;"/><polygon fill="#181818" points="580.5,1248.82,576.5,1257.82,580.5,1253.82,584.5,1257.82,580.5,1248.82" style="stroke:#181818;stroke-width:1.0;"/><text fill="#000000" font-family="sans-serif" font-size="13" lengthAdjust="spacing" textLength="57.8208" x="581.5" y="1362.0283">generates</text><text fill="#000000" font-family="sans-serif" font-size="13" lengthAdjust="spacing" textLength="21.6836" x="558.2599" y="1270.6986">0..1</text><text fill="#000000" font-family="sans-serif" font-size="13" lengthAdjust="spacing" textLength="7.23" x="573.1423" y="1415.9647">1</text></g><!--link Event to SNS_User--><g id="link_Event_SNS_User"><path codeLine="143" d="M642.67,1193 C668.33,1193 692.15,1193 718.39,1193 " fill="none" id="Event-to-SNS_User" style="stroke:#181818;stroke-width:1.0;"/><polygon fill="#181818" points="724.39,1193,715.39,1189,719.39,1193,715.39,1197,724.39,1193" style="stroke:#181818;stroke-width:1.0;"/><text fill="#000000" font-family="sans-serif" font-size="13" lengthAdjust="spacing" textLength="45.5381" x="661" y="1186.0283">belongs</text><text fill="#000000" font-family="sans-serif" font-size="13" lengthAdjust="spacing" textLength="19.5127" x="650.5351" y="1207.9682">0..*</text><text fill="#000000" font-family="sans-serif" font-size="13" lengthAdjust="spacing" textLength="7.23" x="709.1394" y="1189.086">1</text></g><!--link Event to Vaccine_Type--><g id="link_Event_Vaccine_Type"><path codeLine="145" d="M518.49,1240.94 C498.82,1255.58 476.88,1271.64 456.5,1286 C411.05,1318.02 352.5,1299.91 352.5,1355.5 C352.5,1355.5 352.5,1355.5 352.5,1628.5 C352.5,1662.55 334.3517,1689.4868 312.1817,1712.0868 " fill="none" id="Event-to-Vaccine_Type" style="stroke:#181818;stroke-width:1.0;"/><polygon fill="#181818" points="307.98,1716.37,317.138,1712.7463,311.4814,1712.8007,311.4271,1707.1441,307.98,1716.37" style="stroke:#181818;stroke-width:1.0;"/><text fill="#000000" font-family="sans-serif" font-size="13" lengthAdjust="spacing" textLength="20.96" x="353.5" y="1497.5283">has</text><text fill="#000000" font-family="sans-serif" font-size="13" lengthAdjust="spacing" textLength="7.23" x="503.1091" y="1243.0335">1</text><text fill="#000000" font-family="sans-serif" font-size="13" lengthAdjust="spacing" textLength="7.23" x="308.0974" y="1705.3086">1</text></g><!--reverse link Vaccine_Certificate to SNS_User--><g id="link_Vaccine_Certificate_SNS_User"><path codeLine="147" d="M840.8378,855.0092 C833.4178,906.7192 817.58,1017.12 805.71,1099.93 " fill="none" id="Vaccine_Certificate-backto-SNS_User" style="stroke:#181818;stroke-width:1.0;"/><polygon fill="#181818" points="841.69,849.07,836.4522,857.4106,840.9798,854.0193,844.3711,858.5469,841.69,849.07" style="stroke:#181818;stroke-width:1.0;"/><text fill="#000000" font-family="sans-serif" font-size="13" lengthAdjust="spacing" textLength="45.5381" x="817.5" y="1035.0283">belongs</text><text fill="#000000" font-family="sans-serif" font-size="13" lengthAdjust="spacing" textLength="21.6836" x="843.3608" y="871.4452">0..1</text><text fill="#000000" font-family="sans-serif" font-size="13" lengthAdjust="spacing" textLength="7.23" x="799.5039" y="1088.8924">1</text></g><!--SRC=[hLPDRzim3BthLmYv32YGjBq6mu0YwB0TrW7hjgkXo4nCH9OCYMwNRVtlO_mLsKxghMjECgr7Fhr7qNcJ4HLXUNbP66MfpCr2k_nI6nN2F4MrzIeNOOUsKBoILVo6oEEw9FYedRt7do2lH8OfI8rU6wZNEL3cqY3uLu7aTwKrMf2_XEJVN7AP7Bn6PHAhScYYQwzisgnfNxHX0frPPznsBvu62PEllAtBcc805LfOo9od98MWFHQ4pXxHxvL6WxJla169mWLYMYhr448RonpNicM-1j-485TeclKZh0CIz36k08jscsIkz6rC6nT6CR04Fj6gO5AqRwBAWpholSqBu_O0_yttgNFa_ku- -HR0dqgPAZxC6ZrbhPJmu-Ngh5RzTuVA9LTkeq_3Db47ivARed1eAMTvEev3Q1tTD6wsP4bH6QAZj6s4VC1EqbNfFQTEFfUqPgrtvvg8rA69Zbd0fl4ZXaJNcQBKtDobPKB99tvCuaEjAhEvLhVv0oX3cMQ_JxoyupPv5TFhT5z0GtKJCD3hPRrzY2sgx57UumDdgYGVtstZg9-H3T2LFjOHX6FgcpJ70rclo9tirBZFUan7Ws85dd23cgth4c489R2RrLpfxjZRt_DvhVmW5iidH3T3gdUJdW_sZsmNed_OsVLCpZrkCvhFt_7JOd4ngrajMQujxpk3CR298J7f2MJg7cs4R9IR00qfJWenaQyiecGZbLvqWkeZiPIX08sRlLH2TCElZxfQBAvdvuRGKkPg1-40hwzbKoGg-ZUdVtH-5oJQGPAZQwTEtO54xmgtu5QpVwe_aUav4gFPEMYyeVBQyNx3DoyLelqdS13xejy_GrYcmb7hWK-Hkz7DvbBCXqU8VDTLwjtynkAUPzNyMjR389KRvrle-3iq6sAdpdacHIDpJQQflmKB_i2THr4rKKygr7RkKgx1EBizxdwMMYLbh-iZl-As7yZP5H7Y3m00]--></g></svg>