<?xml version="1.0" encoding="us-ascii" standalone="no"?><svg xmlns="http://www.w3.org/2000/svg" xmlns:xlink="http://www.w3.org/1999/xlink" contentStyleType="text/css" height="1264.8px" preserveAspectRatio="none" style="width:419px;height:1264px;background:#FFFFFF;" version="1.1" viewBox="0 0 419 1264" width="419.2px" zoomAndPan="magnify"><defs/><g><text fill="#000000" font-family="sans-serif" font-size="11.2" font-weight="bold" lengthAdjust="spacing" textLength="396.8" x="8" y="20.0859">Pandemic Vaccination Management System (PVMS) - Use Case Diagram</text><!--entity User--><g id="elem_User"><ellipse cx="86.7186" cy="1058.0969" fill="#F1F1F1" rx="6.4" ry="6.4" style="stroke:#181818;stroke-width:0.4000000000000001;"/><path d="M86.7186,1064.4969 L86.7186,1086.0969 M76.3186,1070.8969 L97.1186,1070.8969 M86.7186,1086.0969 L76.3186,1098.0969 M86.7186,1086.0969 L97.1186,1098.0969 " fill="none" style="stroke:#181818;stroke-width:0.4000000000000001;"/><text fill="#000000" font-family="sans-serif" font-size="11.2" lengthAdjust="spacing" textLength="48" x="62.7186" y="1111.3828">SNS User</text></g><!--entity Receptionist--><g id="elem_Receptionist"><ellipse cx="86.7186" cy="742.8969" fill="#F1F1F1" rx="6.4" ry="6.4" style="stroke:#181818;stroke-width:0.4000000000000001;"/><path d="M86.7186,749.2969 L86.7186,770.8969 M76.3186,755.6969 L97.1186,755.6969 M86.7186,770.8969 L76.3186,782.8969 M86.7186,770.8969 L97.1186,782.8969 " fill="none" style="stroke:#181818;stroke-width:0.4000000000000001;"/><text fill="#000000" font-family="sans-serif" font-size="11.2" lengthAdjust="spacing" textLength="62.4" x="55.5186" y="796.1828">Receptionist</text></g><!--entity Nurse--><g id="elem_Nurse"><ellipse cx="86.7186" cy="502.8969" fill="#F1F1F1" rx="6.4" ry="6.4" style="stroke:#181818;stroke-width:0.4000000000000001;"/><path d="M86.7186,509.2969 L86.7186,530.8969 M76.3186,515.6969 L97.1186,515.6969 M86.7186,530.8969 L76.3186,542.8969 M86.7186,530.8969 L97.1186,542.8969 " fill="none" style="stroke:#181818;stroke-width:0.4000000000000001;"/><text fill="#000000" font-family="sans-serif" font-size="11.2" lengthAdjust="spacing" textLength="29.6" x="71.9186" y="556.1828">Nurse</text></g><!--entity Admin--><g id="elem_Admin"><ellipse cx="86.7186" cy="189.2969" fill="#F1F1F1" rx="6.4" ry="6.4" style="stroke:#181818;stroke-width:0.4000000000000001;"/><path d="M86.7186,195.6969 L86.7186,217.2969 M76.3186,202.0969 L97.1186,202.0969 M86.7186,217.2969 L76.3186,229.2969 M86.7186,217.2969 L97.1186,229.2969 " fill="none" style="stroke:#181818;stroke-width:0.4000000000000001;"/><text fill="#000000" font-family="sans-serif" font-size="11.2" lengthAdjust="spacing" textLength="128" x="22.7186" y="242.5828">Administrator (DGS Staff)</text></g><g id="elem_UC1"><ellipse cx="299.9414" cy="923.0615" fill="#F1F1F1" rx="75.2229" ry="16.9646" style="stroke:#181818;stroke-width:0.4000000000000001;"/><text fill="#000000" font-family="sans-serif" font-size="11.2" lengthAdjust="spacing" textLength="115.2" x="239.9414" y="926.9044">Register / Authenticate</text></g><g id="elem_UC2"><ellipse cx="299.7283" cy="984.5388" fill="#F1F1F1" rx="72.6098" ry="16.442" style="stroke:#181818;stroke-width:0.4000000000000001;"/><text fill="#000000" font-family="sans-serif" font-size="11.2" lengthAdjust="spacing" textLength="108.8" x="242.9283" y="988.3818">Schedule Vaccination</text></g><g id="elem_UC3"><ellipse cx="299.8" cy="1049.2732" fill="#F1F1F1" rx="90.2814" ry="19.9763" style="stroke:#181818;stroke-width:0.4000000000000001;"/><text fill="#000000" font-family="sans-serif" font-size="11.2" lengthAdjust="spacing" textLength="149.6" x="225" y="1052.3107">Consult / Cancel Appointment</text></g><g id="elem_UC4"><ellipse cx="299.8" cy="1117.2732" fill="#F1F1F1" rx="90.2814" ry="19.9763" style="stroke:#181818;stroke-width:0.4000000000000001;"/><text fill="#000000" font-family="sans-serif" font-size="11.2" lengthAdjust="spacing" textLength="149.6" x="225" y="1120.3107">Obtain Vaccination Certificate</text></g><g id="elem_UC5"><ellipse cx="299.7563" cy="1182.8644" fill="#F1F1F1" rx="78.2377" ry="17.5675" style="stroke:#181818;stroke-width:0.4000000000000001;"/><text fill="#000000" font-family="sans-serif" font-size="11.2" lengthAdjust="spacing" textLength="122.4" x="237.1338" y="1186.4061">View Vaccination History</text></g><g id="elem_UC6"><ellipse cx="299.9051" cy="1244.5742" fill="#F1F1F1" rx="68.7866" ry="15.6773" style="stroke:#181818;stroke-width:0.4000000000000001;"/><text fill="#000000" font-family="sans-serif" font-size="11.2" lengthAdjust="spacing" textLength="99.2" x="247.9051" y="1248.4172">Receive Notification</text></g><g id="elem_UC7"><ellipse cx="299.8333" cy="677.3598" fill="#F1F1F1" rx="60.7148" ry="14.063" style="stroke:#181818;stroke-width:0.4000000000000001;"/><text fill="#000000" font-family="sans-serif" font-size="11.2" lengthAdjust="spacing" textLength="77.6" x="258.6333" y="681.2028">Register Arrival</text></g><g id="elem_UC8"><ellipse cx="300.0404" cy="735.8812" fill="#F1F1F1" rx="71.3218" ry="16.1844" style="stroke:#181818;stroke-width:0.4000000000000001;"/><text fill="#000000" font-family="sans-serif" font-size="11.2" lengthAdjust="spacing" textLength="105.6" x="244.8404" y="739.7242">Confirm Appointment</text></g><g id="elem_UC9"><ellipse cx="299.8353" cy="798.8802" fill="#F1F1F1" rx="86.3167" ry="19.1833" style="stroke:#181818;stroke-width:0.4000000000000001;"/><text fill="#000000" font-family="sans-serif" font-size="11.2" lengthAdjust="spacing" textLength="140.8" x="229.4353" y="801.9177">Assist In-Person Scheduling</text></g><g id="elem_UC10"><ellipse cx="300.0804" cy="862.0492" fill="#F1F1F1" rx="68.1618" ry="15.5524" style="stroke:#181818;stroke-width:0.4000000000000001;"/><text fill="#000000" font-family="sans-serif" font-size="11.2" lengthAdjust="spacing" textLength="97.6" x="248.8804" y="865.8922">Update User Status</text></g><g id="elem_UC11"><ellipse cx="300.0301" cy="439.8792" fill="#F1F1F1" rx="63.3115" ry="14.5823" style="stroke:#181818;stroke-width:0.4000000000000001;"/><text fill="#000000" font-family="sans-serif" font-size="11.2" lengthAdjust="spacing" textLength="84.8" x="255.2301" y="443.7221">View Waiting List</text></g><g id="elem_UC12"><ellipse cx="299.8594" cy="497.9251" fill="#F1F1F1" rx="67.5409" ry="15.4282" style="stroke:#181818;stroke-width:0.4000000000000001;"/><text fill="#000000" font-family="sans-serif" font-size="11.2" lengthAdjust="spacing" textLength="96" x="249.4594" y="501.768">Administer Vaccine</text></g><g id="elem_UC13"><ellipse cx="300.0136" cy="54.7559" fill="#F1F1F1" rx="81.695" ry="18.259" style="stroke:#181818;stroke-width:0.4000000000000001;"/><text fill="#000000" font-family="sans-serif" font-size="11.2" lengthAdjust="spacing" textLength="130.4" x="234.4157" y="57.9429">Record Vaccination Event</text></g><g id="elem_UC14"><ellipse cx="299.7745" cy="556.3881" fill="#F1F1F1" rx="61.856" ry="14.2912" style="stroke:#181818;stroke-width:0.4000000000000001;"/><text fill="#000000" font-family="sans-serif" font-size="11.2" lengthAdjust="spacing" textLength="80.8" x="256.9745" y="560.231">Issue Certificate</text></g><g id="elem_UC15"><ellipse cx="300.0631" cy="617.4858" fill="#F1F1F1" rx="81.3446" ry="18.1889" style="stroke:#181818;stroke-width:0.4000000000000001;"/><text fill="#000000" font-family="sans-serif" font-size="11.2" lengthAdjust="spacing" textLength="129.6" x="234.7668" y="620.7088">Record Adverse Reaction</text></g><g id="elem_UC16"><ellipse cx="299.9926" cy="121.3117" fill="#F1F1F1" rx="88.474" ry="19.6148" style="stroke:#181818;stroke-width:0.4000000000000001;"/><text fill="#000000" font-family="sans-serif" font-size="11.2" lengthAdjust="spacing" textLength="145.6" x="227.1926" y="124.3492">Manage Vaccination Centers</text></g><g id="elem_UC17"><ellipse cx="299.8833" cy="182.2498" fill="#F1F1F1" rx="57.1647" ry="13.3529" style="stroke:#181818;stroke-width:0.4000000000000001;"/><text fill="#000000" font-family="sans-serif" font-size="11.2" lengthAdjust="spacing" textLength="67.2" x="263.8833" y="186.0928">Manage Staff</text></g><g id="elem_UC18"><ellipse cx="300" cy="245.4732" fill="#F1F1F1" rx="101.2814" ry="22.1763" style="stroke:#181818;stroke-width:0.4000000000000001;"/><text fill="#000000" font-family="sans-serif" font-size="11.2" lengthAdjust="spacing" textLength="173.6" x="213.2" y="248.5107">Manage Vaccines / Vaccine Types</text></g><g id="elem_UC19"><ellipse cx="299.9414" cy="312.6615" fill="#F1F1F1" rx="75.2229" ry="16.9646" style="stroke:#181818;stroke-width:0.4000000000000001;"/><text fill="#000000" font-family="sans-serif" font-size="11.2" lengthAdjust="spacing" textLength="115.2" x="239.9414" y="316.5044">Monitor Outbreak Data</text></g><g id="elem_UC20"><ellipse cx="299.9926" cy="377.3117" fill="#F1F1F1" rx="88.474" ry="19.6148" style="stroke:#181818;stroke-width:0.4000000000000001;"/><text fill="#000000" font-family="sans-serif" font-size="11.2" lengthAdjust="spacing" textLength="145.6" x="227.1926" y="380.3492">Generate Reports / Statistics</text></g><!--link User to UC1--><g id="link_User_UC1"><path d="M107.3266,1051.1289 C127.0946,1021.9289 160.0466,979.4329 198.7186,954.0969 C212.2306,945.2489 223.8052,940.1782 239.1812,935.5142 " fill="none" id="User-to-UC1" style="stroke:#181818;stroke-width:0.8000000000000002;"/><polygon fill="#181818" points="243.7746,934.1209,235.9557,933.1486,239.9468,935.282,237.8134,939.273,243.7746,934.1209" style="stroke:#181818;stroke-width:0.8000000000000002;"/></g><!--link User to UC2--><g id="link_User_UC2"><path d="M110.8946,1066.4649 C132.7906,1051.6409 166.8306,1030.0329 198.7186,1015.6969 C215.3666,1008.2169 229.7243,1003.1806 246.6523,998.1646 " fill="none" id="User-to-UC2" style="stroke:#181818;stroke-width:0.8000000000000002;"/><polygon fill="#181818" points="251.2546,996.8009,243.4421,995.7783,247.4194,997.9373,245.2604,1001.9146,251.2546,996.8009" style="stroke:#181818;stroke-width:0.8000000000000002;"/></g><!--link User to UC3--><g id="link_User_UC3"><path d="M110.7666,1079.2089 C138.3586,1074.8249 180.9699,1068.0574 221.2899,1061.6574 " fill="none" id="User-to-UC3" style="stroke:#181818;stroke-width:0.8000000000000002;"/><polygon fill="#181818" points="226.0306,1060.9049,218.4179,1058.8732,222.08,1061.5319,219.4212,1065.194,226.0306,1060.9049" style="stroke:#181818;stroke-width:0.8000000000000002;"/></g><!--link User to UC4--><g id="link_User_UC4"><path d="M110.7666,1086.6729 C138.5186,1091.1849 181.5247,1098.1831 221.9967,1104.7591 " fill="none" id="User-to-UC4" style="stroke:#181818;stroke-width:0.8000000000000002;"/><polygon fill="#181818" points="226.7346,1105.5289,220.141,1101.2156,222.7863,1104.8874,219.1145,1107.5327,226.7346,1105.5289" style="stroke:#181818;stroke-width:0.8000000000000002;"/></g><!--link User to UC5--><g id="link_User_UC5"><path d="M110.8386,1099.7609 C132.6866,1114.9609 166.7026,1137.1049 198.7186,1151.6969 C214.2466,1158.7769 227.2273,1163.462 243.2913,1168.31 " fill="none" id="User-to-UC5" style="stroke:#181818;stroke-width:0.8000000000000002;"/><polygon fill="#181818" points="247.8866,1169.6969,241.9182,1164.5531,244.0571,1168.5412,240.0691,1170.6802,247.8866,1169.6969" style="stroke:#181818;stroke-width:0.8000000000000002;"/></g><!--link User to UC6--><g id="link_User_UC6"><path d="M106.5026,1114.7369 C126.0146,1144.7929 159.0866,1189.0009 198.7186,1214.8969 C212.7186,1224.0409 224.991,1229.1434 240.911,1233.5834 " fill="none" id="User-to-UC6" style="stroke:#181818;stroke-width:0.8000000000000002;"/><polygon fill="#181818" points="245.5346,1234.8729,239.4589,1229.8563,241.6816,1233.7983,237.7396,1236.021,245.5346,1234.8729" style="stroke:#181818;stroke-width:0.8000000000000002;"/></g><!--link Receptionist to UC7--><g id="link_Receptionist_UC7"><path d="M117.9746,748.3529 C139.8066,735.1129 170.2706,717.8729 198.7186,706.0969 C217.2306,698.4329 233.8309,693.2473 251.9909,688.4313 " fill="none" id="Receptionist-to-UC7" style="stroke:#181818;stroke-width:0.8000000000000002;"/><polygon fill="#181818" points="256.6306,687.2009,248.8508,685.9534,252.7642,688.2262,250.4914,692.1396,256.6306,687.2009" style="stroke:#181818;stroke-width:0.8000000000000002;"/></g><!--link Receptionist to UC8--><g id="link_Receptionist_UC8"><path d="M118.0626,763.0809 C149.9906,758.2489 196.1406,751.2709 235.8526,745.2629 " fill="none" id="Receptionist-to-UC8" style="stroke:#181818;stroke-width:0.8000000000000002;"/><polygon fill="#181818" points="240.5986,744.5449,233.0009,742.4579,236.6436,745.1432,233.9582,748.7859,240.5986,744.5449" style="stroke:#181818;stroke-width:0.8000000000000002;"/></g><!--link Receptionist to UC9--><g id="link_Receptionist_UC9"><path d="M118.0626,772.2009 C146.6146,776.4089 185.5859,782.1567 222.9139,787.6607 " fill="none" id="Receptionist-to-UC9" style="stroke:#181818;stroke-width:0.8000000000000002;"/><polygon fill="#181818" points="227.6626,788.3609,221.0064,784.1448,223.7053,787.7774,220.0728,790.4764,227.6626,788.3609" style="stroke:#181818;stroke-width:0.8000000000000002;"/></g><!--link Receptionist to UC10--><g id="link_Receptionist_UC10"><path d="M118.0946,788.2249 C139.8626,802.1529 170.1986,820.2009 198.7186,832.4969 C215.8226,839.8729 230.7024,844.8014 247.9424,849.6014 " fill="none" id="Receptionist-to-UC10" style="stroke:#181818;stroke-width:0.8000000000000002;"/><polygon fill="#181818" points="252.5666,850.8889,246.4887,845.8749,248.7131,849.816,244.7721,852.0404,252.5666,850.8889" style="stroke:#181818;stroke-width:0.8000000000000002;"/></g><!--link Nurse to UC11--><g id="link_Nurse_UC11"><path d="M101.7986,518.8329 C122.5186,506.2729 162.4226,483.1769 198.7186,468.4969 C216.9586,461.1209 233.1384,456.0682 251.0664,451.2602 " fill="none" id="Nurse-to-UC11" style="stroke:#181818;stroke-width:0.8000000000000002;"/><polygon fill="#181818" points="255.7026,450.0169,247.9194,448.7911,251.8391,451.053,249.5772,454.9727,255.7026,450.0169" style="stroke:#181818;stroke-width:0.8000000000000002;"/></g><!--link Nurse to UC12--><g id="link_Nurse_UC12"><path d="M101.7346,525.7049 C129.9026,521.7689 189.4528,513.4336 237.0528,506.7776 " fill="none" id="Nurse-to-UC12" style="stroke:#181818;stroke-width:0.8000000000000002;"/><polygon fill="#181818" points="241.8066,506.1129,234.2328,503.9408,237.8451,506.6668,235.1191,510.2791,241.8066,506.1129" style="stroke:#181818;stroke-width:0.8000000000000002;"/></g><!--link Nurse to UC14--><g id="link_Nurse_UC14"><path d="M101.7346,529.6329 C130.7826,533.5849 193.5064,542.1214 241.4584,548.6494 " fill="none" id="Nurse-to-UC14" style="stroke:#181818;stroke-width:0.8000000000000002;"/><polygon fill="#181818" points="246.2146,549.2969,239.512,545.1549,242.2511,548.7573,238.6487,551.4964,246.2146,549.2969" style="stroke:#181818;stroke-width:0.8000000000000002;"/></g><!--link Nurse to UC15--><g id="link_Nurse_UC15"><path d="M101.5426,535.9449 C122.2786,547.9129 162.5666,570.3049 198.7186,585.2969 C214.8546,591.9929 228.3437,596.7176 244.6557,601.7976 " fill="none" id="Nurse-to-UC15" style="stroke:#181818;stroke-width:0.8000000000000002;"/><polygon fill="#181818" points="249.2386,603.2249,243.3157,598.0287,245.4195,602.0355,241.4127,604.1393,249.2386,603.2249" style="stroke:#181818;stroke-width:0.8000000000000002;"/></g><!--link Admin to UC16--><g id="link_Admin_UC16"><path d="M142.6306,182.4329 C160.2466,172.9449 180.0306,162.9289 198.7186,154.8969 C213.9986,148.3289 226.4654,143.7083 242.0894,138.5403 " fill="none" id="Admin-to-UC16" style="stroke:#181818;stroke-width:0.8000000000000002;"/><polygon fill="#181818" points="246.6466,137.0329,238.8059,136.2558,242.8489,138.289,240.8157,142.3321,246.6466,137.0329" style="stroke:#181818;stroke-width:0.8000000000000002;"/></g><!--link Admin to UC17--><g id="link_Admin_UC17"><path d="M150.7186,204.5369 C183.1106,199.6409 217.1567,194.4956 246.9487,189.9836 " fill="none" id="Admin-to-UC17" style="stroke:#181818;stroke-width:0.8000000000000002;"/><polygon fill="#181818" points="251.6946,189.2649,244.0966,187.1791,247.7397,189.8638,245.0549,193.5069,251.6946,189.2649" style="stroke:#181818;stroke-width:0.8000000000000002;"/></g><!--link Admin to UC18--><g id="link_Admin_UC18"><path d="M150.7186,223.4169 C171.1746,226.4329 189.442,229.124 211.122,232.324 " fill="none" id="Admin-to-UC18" style="stroke:#181818;stroke-width:0.8000000000000002;"/><polygon fill="#181818" points="215.8706,233.0249,209.215,228.8078,211.9134,232.4408,208.2805,235.1392,215.8706,233.0249" style="stroke:#181818;stroke-width:0.8000000000000002;"/></g><!--link Admin to UC19--><g id="link_Admin_UC19"><path d="M134.3026,245.8329 C153.6626,258.0409 176.7026,271.4009 198.7186,281.2969 C214.9506,288.5929 228.7835,293.4827 245.3835,298.4427 " fill="none" id="Admin-to-UC19" style="stroke:#181818;stroke-width:0.8000000000000002;"/><polygon fill="#181818" points="249.9826,299.8169,244,294.6895,246.15,298.6717,242.1678,300.8217,249.9826,299.8169" style="stroke:#181818;stroke-width:0.8000000000000002;"/></g><!--link Admin to UC20--><g id="link_Admin_UC20"><path d="M107.6866,245.8889 C127.5986,274.9049 160.5346,317.0889 198.7186,342.8969 C211.1586,351.3049 221.3259,356.258 235.5819,361.266 " fill="none" id="Admin-to-UC20" style="stroke:#181818;stroke-width:0.8000000000000002;"/><polygon fill="#181818" points="240.1106,362.8569,234.3781,357.4514,236.3366,361.5311,232.2569,363.4897,240.1106,362.8569" style="stroke:#181818;stroke-width:0.8000000000000002;"/></g><!--link Admin to UC13--><g id="link_Admin_UC13"><path d="M108.1186,182.2329 C128.1026,153.6969 160.8866,112.6169 198.7186,87.6969 C211.6546,79.1689 222.4307,74.2042 237.1747,69.3562 " fill="none" id="Admin-to-UC13" style="stroke:#181818;stroke-width:0.8000000000000002;"/><polygon fill="#181818" points="241.7346,67.8569,233.8953,67.066,237.9347,69.1063,235.8944,73.1457,241.7346,67.8569" style="stroke:#181818;stroke-width:0.8000000000000002;"/></g><!--SRC=[RLDDZzem4BtxLupsKZX4BTzmgHH1jLsfi8XqwTdh362LE97jKF7lEpOEQxTS8hzvp-EPDnChxHbXorM9bHImvq98nQsi5QovuaUiK5aehiPY1RtjVbtq8OCtWx3az5b9VjIyOcSyMB0rQ7ayMIYbHk5oCCQ5hJKy5Pl2NT9Fm8q_TCGE1JPEAetrP1peH9jM6_IiFtNXlAoaasdkO6_rN41X-U7GzrBFCiO0UZiyaWmrV8QyjIVgI0fkiU-BMGwSf10dB5ko8d8Wy4F7BsjbshEb34kk19uXRvfQAkli2RgHqxs-MovLukCIjPM7-CMnK-ub_abqtwd6Mb-3Pd8hNA2y86pgaE6ZgcdQMQwrlF1p86UXv8FKrODAvuxEZQ6hyAAoBMf3xmSBf3e6sSB9tfgI2lSpS-xQrdIsVM7tDdvnQUaU_A2C7UrjxKP4bs-jtaqVXlvgNIOkVBjyr3dmbhuOq-835mVZA4LUNgWBfFNX8d9fCF55tbRvdwaegkhUp3IItPOe4BF_xgEXBGX7-7bjy9x4-xgcrNNx-DhQTutyDwouvPt2M_gC2hKpTOTDhQrBvvmbcwJeSWt9NVOfopAWETL2-g8DK83vKMJPLx-w4HZ6O1I3SGmcCQ0jYd-u49qz2iuV1HUFWcup_8_QuK4AXoaSfv0cvhUcmzCKpb8uJ-4YWMHYmeuO-mi0]--></g></svg>