<svg xmlns="http://www.w3.org/2000/svg" xmlns:xlink="http://www.w3.org/1999/xlink" contentStyleType="text/css" data-diagram-type="SEQUENCE" height="415px" preserveAspectRatio="none" style="width:673px;height:415px;background:#FFFFFF;" version="1.1" viewBox="0 0 673 415" width="673px" zoomAndPan="magnify"><defs/><g><g><title>Administrator</title><rect fill="#FFFFFF" height="234.0625" style="stroke:#181818;stroke-width:1;" width="10" x="50.8413" y="91.2969"/></g><g><title>.System</title><rect fill="#FFFFFF" height="29.1328" style="stroke:#181818;stroke-width:1;" width="10" x="626.8306" y="112.4297"/></g><g><title>.System</title><rect fill="#FFFFFF" height="29.1328" style="stroke:#181818;stroke-width:1;" width="10" x="626.8306" y="170.6953"/></g><g><title>.System</title><rect fill="#FFFFFF" height="29.1328" style="stroke:#181818;stroke-width:1;" width="10" x="626.8306" y="228.9609"/></g><g><title>.System</title><rect fill="#FFFFFF" height="29.1328" style="stroke:#181818;stroke-width:1;" width="10" x="626.8306" y="287.2266"/></g><g><title>Administrator</title><rect fill="#000000" fill-opacity="0.00000" height="253.0625" width="8" x="51.8413" y="81.2969"/><line style="stroke:#181818;stroke-width:0.5;stroke-dasharray:5,5;" x1="55" x2="55" y1="81.2969" y2="334.3594"/></g><g><title>.System</title><rect fill="#000000" fill-opacity="0.00000" height="253.0625" width="8" x="627.8306" y="81.2969"/><line style="stroke:#181818;stroke-width:0.5;stroke-dasharray:5,5;" x1="631.3691" x2="631.3691" y1="81.2969" y2="334.3594"/></g><g class="participant participant-head" data-participant="Admin"><text fill="#000000" font-family="sans-serif" font-size="14" lengthAdjust="spacing" textLength="95.6826" x="5" y="77.9951">Administrator</text><ellipse cx="55.8413" cy="13.5" fill="#E2E2F0" rx="8" ry="8" style="stroke:#181818;stroke-width:0.5;"/><path d="M55.8413,21.5 L55.8413,48.5 M42.8413,29.5 L68.8413,29.5 M55.8413,48.5 L42.8413,63.5 M55.8413,48.5 L68.8413,63.5" fill="none" style="stroke:#181818;stroke-width:0.5;"/></g><g class="participant participant-tail" data-participant="Admin"><text fill="#000000" font-family="sans-serif" font-size="14" lengthAdjust="spacing" textLength="95.6826" x="5" y="346.3545">Administrator</text><ellipse cx="55.8413" cy="358.1563" fill="#E2E2F0" rx="8" ry="8" style="stroke:#181818;stroke-width:0.5;"/><path d="M55.8413,366.1563 L55.8413,393.1563 M42.8413,374.1563 L68.8413,374.1563 M55.8413,393.1563 L42.8413,408.1563 M55.8413,393.1563 L68.8413,408.1563" fill="none" style="stroke:#181818;stroke-width:0.5;"/></g><g class="participant participant-head" data-participant="System"><rect fill="#E2E2F0" height="30.2969" rx="2.5" ry="2.5" style="stroke:#181818;stroke-width:0.5;" width="70.9229" x="596.3691" y="50"/><text fill="#000000" font-family="sans-serif" font-size="14" lengthAdjust="spacing" textLength="56.9229" x="603.3691" y="69.9951">:System</text></g><g class="participant participant-tail" data-participant="System"><rect fill="#E2E2F0" height="30.2969" rx="2.5" ry="2.5" style="stroke:#181818;stroke-width:0.5;" width="70.9229" x="596.3691" y="333.3594"/><text fill="#000000" font-family="sans-serif" font-size="14" lengthAdjust="spacing" textLength="56.9229" x="603.3691" y="353.3545">:System</text></g><g><title>Administrator</title><rect fill="#FFFFFF" height="234.0625" style="stroke:#181818;stroke-width:1;" width="10" x="50.8413" y="91.2969"/></g><g><title>.System</title><rect fill="#FFFFFF" height="29.1328" style="stroke:#181818;stroke-width:1;" width="10" x="626.8306" y="112.4297"/></g><g><title>.System</title><rect fill="#FFFFFF" height="29.1328" style="stroke:#181818;stroke-width:1;" width="10" x="626.8306" y="170.6953"/></g><g><title>.System</title><rect fill="#FFFFFF" height="29.1328" style="stroke:#181818;stroke-width:1;" width="10" x="626.8306" y="228.9609"/></g><g><title>.System</title><rect fill="#FFFFFF" height="29.1328" style="stroke:#181818;stroke-width:1;" width="10" x="626.8306" y="287.2266"/></g><g class="message" data-participant-1="Admin" data-participant-2="System"><polygon fill="#181818" points="614.8306,108.4297,624.8306,112.4297,614.8306,116.4297,618.8306,112.4297" style="stroke:#181818;stroke-width:1;"/><line style="stroke:#181818;stroke-width:1;" x1="60.8413" x2="620.8306" y1="112.4297" y2="112.4297"/><text fill="#000000" font-family="sans-serif" font-size="13" font-weight="bold" lengthAdjust="spacing" textLength="9.0454" x="67.8413" y="107.3638">1</text><text fill="#000000" font-family="sans-serif" font-size="13" lengthAdjust="spacing" textLength="212.1768" x="80.8867" y="107.3638">asks to register a new employee</text></g><g class="message" data-participant-1="System" data-participant-2="Admin"><polygon fill="#181818" points="71.8413,137.5625,61.8413,141.5625,71.8413,145.5625,67.8413,141.5625" style="stroke:#181818;stroke-width:1;"/><line style="stroke:#181818;stroke-width:1;stroke-dasharray:2,2;" x1="65.8413" x2="630.8306" y1="141.5625" y2="141.5625"/><text fill="#000000" font-family="sans-serif" font-size="13" font-weight="bold" lengthAdjust="spacing" textLength="9.0454" x="77.8413" y="136.4966">2</text><text fill="#000000" font-family="sans-serif" font-size="13" lengthAdjust="spacing" textLength="528.9438" x="90.8867" y="136.4966">requests employee data (name, phone number, email, citizen card number, role)</text></g><g class="message" data-participant-1="Admin" data-participant-2="System"><polygon fill="#181818" points="614.8306,166.6953,624.8306,170.6953,614.8306,174.6953,618.8306,170.6953" style="stroke:#181818;stroke-width:1;"/><line style="stroke:#181818;stroke-width:1;" x1="60.8413" x2="620.8306" y1="170.6953" y2="170.6953"/><text fill="#000000" font-family="sans-serif" font-size="13" font-weight="bold" lengthAdjust="spacing" textLength="9.0454" x="67.8413" y="165.6294">3</text><text fill="#000000" font-family="sans-serif" font-size="13" lengthAdjust="spacing" textLength="157.5933" x="80.8867" y="165.6294">provides employee data</text></g><g class="message" data-participant-1="System" data-participant-2="Admin"><polygon fill="#181818" points="71.8413,195.8281,61.8413,199.8281,71.8413,203.8281,67.8413,199.8281" style="stroke:#181818;stroke-width:1;"/><line style="stroke:#181818;stroke-width:1;stroke-dasharray:2,2;" x1="65.8413" x2="630.8306" y1="199.8281" y2="199.8281"/><text fill="#000000" font-family="sans-serif" font-size="13" font-weight="bold" lengthAdjust="spacing" textLength="9.0454" x="77.8413" y="194.7622">4</text><text fill="#000000" font-family="sans-serif" font-size="13" lengthAdjust="spacing" textLength="89.7241" x="90.8867" y="194.7622">confirms data</text></g><g class="message" data-participant-1="Admin" data-participant-2="System"><polygon fill="#181818" points="614.8306,224.9609,624.8306,228.9609,614.8306,232.9609,618.8306,228.9609" style="stroke:#181818;stroke-width:1;"/><line style="stroke:#181818;stroke-width:1;" x1="60.8413" x2="620.8306" y1="228.9609" y2="228.9609"/><text fill="#000000" font-family="sans-serif" font-size="13" font-weight="bold" lengthAdjust="spacing" textLength="9.0454" x="67.8413" y="223.895">5</text><text fill="#000000" font-family="sans-serif" font-size="13" lengthAdjust="spacing" textLength="322.5688" x="80.8867" y="223.895">selects role for employee ( nurse or receptionist )</text></g><g class="message" data-participant-1="System" data-participant-2="Admin"><polygon fill="#181818" points="71.8413,254.0938,61.8413,258.0938,71.8413,262.0938,67.8413,258.0938" style="stroke:#181818;stroke-width:1;"/><line style="stroke:#181818;stroke-width:1;stroke-dasharray:2,2;" x1="65.8413" x2="630.8306" y1="258.0938" y2="258.0938"/><text fill="#000000" font-family="sans-serif" font-size="13" font-weight="bold" lengthAdjust="spacing" textLength="9.0454" x="77.8413" y="253.0278">6</text><text fill="#000000" font-family="sans-serif" font-size="13" lengthAdjust="spacing" textLength="92.3838" x="90.8867" y="253.0278">validates data</text></g><g class="message" data-participant-1="Admin" data-participant-2="System"><polygon fill="#181818" points="614.8306,283.2266,624.8306,287.2266,614.8306,291.2266,618.8306,287.2266" style="stroke:#181818;stroke-width:1;"/><line style="stroke:#181818;stroke-width:1;" x1="60.8413" x2="620.8306" y1="287.2266" y2="287.2266"/><text fill="#000000" font-family="sans-serif" font-size="13" font-weight="bold" lengthAdjust="spacing" textLength="9.0454" x="67.8413" y="282.1606">7</text><text fill="#000000" font-family="sans-serif" font-size="13" lengthAdjust="spacing" textLength="135.7319" x="80.8867" y="282.1606">confirms registration</text></g><g class="message" data-participant-1="System" data-participant-2="Admin"><polygon fill="#181818" points="71.8413,312.3594,61.8413,316.3594,71.8413,320.3594,67.8413,316.3594" style="stroke:#181818;stroke-width:1;"/><line style="stroke:#181818;stroke-width:1;stroke-dasharray:2,2;" x1="65.8413" x2="630.8306" y1="316.3594" y2="316.3594"/><text fill="#000000" font-family="sans-serif" font-size="13" font-weight="bold" lengthAdjust="spacing" textLength="9.0454" x="77.8413" y="311.2935">8</text><text fill="#000000" font-family="sans-serif" font-size="13" lengthAdjust="spacing" textLength="233.6064" x="90.8867" y="311.2935">informs operation success or failure</text></g><!--SRC=[TP5DJiD038NtEONL3QtKadqMI9o14xWJfxMOFsodg9mUDuEoWB2Q7tz-VlFcwMfMTUZx6Z7RdE9pAAbN-fWf1pgDZ1V1r7KuMy5WV4CZA7avvpcTIRmMh0ZiNiV4cTK4_RW3L5XkkefY7BYwFko6jxiQfQNSjaj_qsryjonmUla11cVV5Qo0qCNrIG0XqoTGgh7SYRh6mSbRbjx1IN-0cguCZ6W8-uo9Zb2l9HCq-qT7aECH0Xj_KOQ0CgurAP4E6uwgb1kFz4j_mmY4aYUMf0tugwGKARZHnoIOFCTLSUykH3rjyUS4giRb4IySDiRSCB8Fe7_7h3PQXlv7hhOXnDazE5OgDGPq3e5K7pOc3seMwhu1]--></g></svg>