<?xml version="1.0" encoding="us-ascii" standalone="no"?><svg xmlns="http://www.w3.org/2000/svg" xmlns:xlink="http://www.w3.org/1999/xlink" contentStyleType="text/css" height="1142.4px" preserveAspectRatio="none" style="width:1649px;height:1142px;background:#FFFFFF;" version="1.1" viewBox="0 0 1649 1142" width="1649.9px" zoomAndPan="magnify"><defs/><g><rect fill="#FFFFFF" height="197.1334" style="stroke:#181818;stroke-width:0.6999999999999998;" width="7" x="173.6" y="81.8385"/><rect fill="#FFFFFF" height="197.1334" style="stroke:#181818;stroke-width:0.6999999999999998;" width="7" x="173.6" y="300.8756"/><rect fill="#FFFFFF" height="21.9037" style="stroke:#181818;stroke-width:0.6999999999999998;" width="7" x="173.6" y="519.9127"/><rect fill="#FFFFFF" height="289.2066" style="stroke:#181818;stroke-width:0.6999999999999998;" width="7" x="173.6" y="563.7201"/><rect fill="#FFFFFF" height="197.1334" style="stroke:#181818;stroke-width:0.6999999999999998;" width="7" x="173.6" y="874.8305"/><rect fill="#FFFFFF" height="153.326" style="stroke:#181818;stroke-width:0.6999999999999998;" width="7" x="344.4" y="103.7422"/><rect fill="#FFFFFF" height="153.326" style="stroke:#181818;stroke-width:0.6999999999999998;" width="7" x="344.4" y="322.7793"/><rect fill="#FFFFFF" height="245.3992" style="stroke:#181818;stroke-width:0.6999999999999998;" width="7" x="344.4" y="585.6238"/><rect fill="#FFFFFF" height="153.326" style="stroke:#181818;stroke-width:0.6999999999999998;" width="7" x="344.4" y="896.7342"/><rect fill="#FFFFFF" height="21.9037" style="stroke:#181818;stroke-width:0.6999999999999998;" width="7" x="515.2" y="125.6459"/><rect fill="#FFFFFF" height="21.9037" style="stroke:#181818;stroke-width:0.6999999999999998;" width="7" x="515.2" y="344.683"/><rect fill="#FFFFFF" height="21.9037" style="stroke:#181818;stroke-width:0.6999999999999998;" width="7" x="515.2" y="659.966"/><rect fill="#FFFFFF" height="21.9037" style="stroke:#181818;stroke-width:0.6999999999999998;" width="7" x="515.2" y="940.5416"/><rect fill="#FFFFFF" height="105.3459" style="stroke:#181818;stroke-width:0.6999999999999998;" width="7" x="660.8" y="703.7734"/><rect fill="#FFFFFF" height="25.4037" style="stroke:#181818;stroke-width:0.6999999999999998;" width="7" x="664.3" y="783.7156"/><rect fill="#FFFFFF" height="109.5186" style="stroke:#181818;stroke-width:0.6999999999999998;" width="7" x="660.8" y="918.6379"/><rect fill="#FFFFFF" height="21.9037" style="stroke:#181818;stroke-width:0.6999999999999998;" width="7" x="788.9" y="169.4533"/><rect fill="#FFFFFF" height="21.9037" style="stroke:#181818;stroke-width:0.6999999999999998;" width="7" x="925.4" y="388.4904"/><rect fill="#FFFFFF" height="21.9037" style="stroke:#181818;stroke-width:0.6999999999999998;" width="7" x="1048.95" y="984.349"/><rect fill="#FFFFFF" height="21.9037" style="stroke:#181818;stroke-width:0.6999999999999998;" width="7" x="1177.4" y="213.2607"/><rect fill="#FFFFFF" height="21.9037" style="stroke:#181818;stroke-width:0.6999999999999998;" width="7" x="1299.9" y="432.2979"/><line style="stroke:#181818;stroke-width:0.3499999999999999;stroke-dasharray:5.0,5.0;" x1="26.6" x2="26.6" y1="58.5348" y2="1084.5639"/><line style="stroke:#181818;stroke-width:0.3499999999999999;stroke-dasharray:5.0,5.0;" x1="177.1" x2="177.1" y1="58.5348" y2="1084.5639"/><line style="stroke:#181818;stroke-width:0.3499999999999999;stroke-dasharray:5.0,5.0;" x1="347.9" x2="347.9" y1="58.5348" y2="1084.5639"/><line style="stroke:#181818;stroke-width:0.3499999999999999;stroke-dasharray:5.0,5.0;" x1="518.35" x2="518.35" y1="58.5348" y2="1084.5639"/><line style="stroke:#181818;stroke-width:0.3499999999999999;stroke-dasharray:5.0,5.0;" x1="664.3" x2="664.3" y1="58.5348" y2="1084.5639"/><line style="stroke:#181818;stroke-width:0.3499999999999999;stroke-dasharray:5.0,5.0;" x1="792.4" x2="792.4" y1="58.5348" y2="1084.5639"/><line style="stroke:#181818;stroke-width:0.3499999999999999;stroke-dasharray:5.0,5.0;" x1="928.9" x2="928.9" y1="58.5348" y2="1084.5639"/><line style="stroke:#181818;stroke-width:0.3499999999999999;stroke-dasharray:5.0,5.0;" x1="1052.1" x2="1052.1" y1="58.5348" y2="1084.5639"/><line style="stroke:#181818;stroke-width:0.3499999999999999;stroke-dasharray:5.0,5.0;" x1="1180.9" x2="1180.9" y1="58.5348" y2="1084.5639"/><line style="stroke:#181818;stroke-width:0.3499999999999999;stroke-dasharray:5.0,5.0;" x1="1303.4" x2="1303.4" y1="58.5348" y2="1084.5639"/><line style="stroke:#181818;stroke-width:0.3499999999999999;stroke-dasharray:5.0,5.0;" x1="1412.6" x2="1412.6" y1="58.5348" y2="1084.5639"/><line style="stroke:#181818;stroke-width:0.3499999999999999;stroke-dasharray:5.0,5.0;" x1="1511.3" x2="1511.3" y1="613.4912" y2="1084.5639"/><line style="stroke:#181818;stroke-width:0.3499999999999999;stroke-dasharray:5.0,5.0;" x1="1602.3" x2="1602.3" y1="731.6408" y2="1084.5639"/><text fill="#000000" font-family="sans-serif" font-size="9.8" lengthAdjust="spacing" textLength="42" x="3.5" y="56.0752">SNS User</text><ellipse cx="26.6" cy="9.45" fill="#E2E2F0" rx="5.6" ry="5.6" style="stroke:#181818;stroke-width:0.3499999999999999;"/><path d="M26.6,15.05 L26.6,33.95 M17.5,20.65 L35.7,20.65 M26.6,33.95 L17.5,44.45 M26.6,33.95 L35.7,44.45 " fill="none" style="stroke:#181818;stroke-width:0.3499999999999999;"/><text fill="#000000" font-family="sans-serif" font-size="9.8" lengthAdjust="spacing" textLength="42" x="3.5" y="1094.4391">SNS User</text><ellipse cx="26.6" cy="1102.8486" fill="#E2E2F0" rx="5.6" ry="5.6" style="stroke:#181818;stroke-width:0.3499999999999999;"/><path d="M26.6,1108.4486 L26.6,1127.3486 M17.5,1114.0486 L35.7,1114.0486 M26.6,1127.3486 L17.5,1137.8486 M26.6,1127.3486 L35.7,1137.8486 " fill="none" style="stroke:#181818;stroke-width:0.3499999999999999;"/><rect fill="#E2E2F0" height="22.8348" rx="1.75" ry="1.75" style="stroke:#181818;stroke-width:0.3499999999999999;" width="117.6" x="118.3" y="35"/><text fill="#000000" font-family="sans-serif" font-size="9.8" lengthAdjust="spacing" textLength="107.8" x="123.2" y="50.4752">:ScheduleAppointmentUI</text><rect fill="#E2E2F0" height="22.8348" rx="1.75" ry="1.75" style="stroke:#181818;stroke-width:0.3499999999999999;" width="117.6" x="118.3" y="1083.8639"/><text fill="#000000" font-family="sans-serif" font-size="9.8" lengthAdjust="spacing" textLength="107.8" x="123.2" y="1099.3391">:ScheduleAppointmentUI</text><rect fill="#E2E2F0" height="22.8348" rx="1.75" ry="1.75" style="stroke:#181818;stroke-width:0.3499999999999999;" width="152.6" x="271.6" y="35"/><text fill="#000000" font-family="sans-serif" font-size="9.8" lengthAdjust="spacing" textLength="142.8" x="276.5" y="50.4752">:ScheduleAppointmentController</text><rect fill="#E2E2F0" height="22.8348" rx="1.75" ry="1.75" style="stroke:#181818;stroke-width:0.3499999999999999;" width="152.6" x="271.6" y="1083.8639"/><text fill="#000000" font-family="sans-serif" font-size="9.8" lengthAdjust="spacing" textLength="142.8" x="276.5" y="1099.3391">:ScheduleAppointmentController</text><rect fill="#E2E2F0" height="22.8348" rx="1.75" ry="1.75" style="stroke:#181818;stroke-width:0.3499999999999999;" width="30.1" x="503.65" y="35"/><text fill="#000000" font-family="sans-serif" font-size="9.8" lengthAdjust="spacing" textLength="20.3" x="508.55" y="50.4752">:App</text><rect fill="#E2E2F0" height="22.8348" rx="1.75" ry="1.75" style="stroke:#181818;stroke-width:0.3499999999999999;" width="30.1" x="503.65" y="1083.8639"/><text fill="#000000" font-family="sans-serif" font-size="9.8" lengthAdjust="spacing" textLength="20.3" x="508.55" y="1099.3391">:App</text><rect fill="#E2E2F0" height="22.8348" rx="1.75" ry="1.75" style="stroke:#181818;stroke-width:0.3499999999999999;" width="100.8" x="613.9" y="35"/><text fill="#000000" font-family="sans-serif" font-size="9.8" lengthAdjust="spacing" textLength="91" x="618.8" y="50.4752">:AppointmentService</text><rect fill="#E2E2F0" height="22.8348" rx="1.75" ry="1.75" style="stroke:#181818;stroke-width:0.3499999999999999;" width="100.8" x="613.9" y="1083.8639"/><text fill="#000000" font-family="sans-serif" font-size="9.8" lengthAdjust="spacing" textLength="91" x="618.8" y="1099.3391">:AppointmentService</text><rect fill="#E2E2F0" height="35.8695" rx="1.75" ry="1.75" style="stroke:#181818;stroke-width:0.3499999999999999;" width="141.4" x="721.7" y="21.9652"/><text fill="#000000" font-family="sans-serif" font-size="9.8" font-style="italic" lengthAdjust="spacing" textLength="38.5" x="773.15" y="37.4404">&#171;vcRep&#187;</text><text fill="#000000" font-family="sans-serif" font-size="9.8" lengthAdjust="spacing" textLength="131.6" x="726.6" y="50.4752">:VaccinationCenterRepository</text><rect fill="#E2E2F0" height="35.8695" rx="1.75" ry="1.75" style="stroke:#181818;stroke-width:0.3499999999999999;" width="141.4" x="721.7" y="1083.8639"/><text fill="#000000" font-family="sans-serif" font-size="9.8" font-style="italic" lengthAdjust="spacing" textLength="38.5" x="773.15" y="1099.3391">&#171;vcRep&#187;</text><text fill="#000000" font-family="sans-serif" font-size="9.8" lengthAdjust="spacing" textLength="131.6" x="726.6" y="1112.3738">:VaccinationCenterRepository</text><rect fill="#E2E2F0" height="35.8695" rx="1.75" ry="1.75" style="stroke:#181818;stroke-width:0.3499999999999999;" width="117.6" x="870.1" y="21.9652"/><text fill="#000000" font-family="sans-serif" font-size="9.8" font-style="italic" lengthAdjust="spacing" textLength="36.4" x="910.7" y="37.4404">&#171;vtRep&#187;</text><text fill="#000000" font-family="sans-serif" font-size="9.8" lengthAdjust="spacing" textLength="107.8" x="875" y="50.4752">:VaccineTypeRepository</text><rect fill="#E2E2F0" height="35.8695" rx="1.75" ry="1.75" style="stroke:#181818;stroke-width:0.3499999999999999;" width="117.6" x="870.1" y="1083.8639"/><text fill="#000000" font-family="sans-serif" font-size="9.8" font-style="italic" lengthAdjust="spacing" textLength="36.4" x="910.7" y="1099.3391">&#171;vtRep&#187;</text><text fill="#000000" font-family="sans-serif" font-size="9.8" lengthAdjust="spacing" textLength="107.8" x="875" y="1112.3738">:VaccineTypeRepository</text><rect fill="#E2E2F0" height="35.8695" rx="1.75" ry="1.75" style="stroke:#181818;stroke-width:0.3499999999999999;" width="115.5" x="994.7" y="21.9652"/><text fill="#000000" font-family="sans-serif" font-size="9.8" font-style="italic" lengthAdjust="spacing" textLength="49" x="1027.95" y="37.4404">&#171;apptRep&#187;</text><text fill="#000000" font-family="sans-serif" font-size="9.8" lengthAdjust="spacing" textLength="105.7" x="999.6" y="50.4752">:AppointmentRepository</text><rect fill="#E2E2F0" height="35.8695" rx="1.75" ry="1.75" style="stroke:#181818;stroke-width:0.3499999999999999;" width="115.5" x="994.7" y="1083.8639"/><text fill="#000000" font-family="sans-serif" font-size="9.8" font-style="italic" lengthAdjust="spacing" textLength="49" x="1027.95" y="1099.3391">&#171;apptRep&#187;</text><text fill="#000000" font-family="sans-serif" font-size="9.8" lengthAdjust="spacing" textLength="105.7" x="999.6" y="1112.3738">:AppointmentRepository</text><rect fill="#E2E2F0" height="22.8348" rx="1.75" ry="1.75" style="stroke:#181818;stroke-width:0.3499999999999999;" width="127.4" x="1117.2" y="35"/><text fill="#000000" font-family="sans-serif" font-size="9.8" lengthAdjust="spacing" textLength="117.6" x="1122.1" y="50.4752">:VaccinationCenterMapper</text><rect fill="#E2E2F0" height="22.8348" rx="1.75" ry="1.75" style="stroke:#181818;stroke-width:0.3499999999999999;" width="127.4" x="1117.2" y="1083.8639"/><text fill="#000000" font-family="sans-serif" font-size="9.8" lengthAdjust="spacing" textLength="117.6" x="1122.1" y="1099.3391">:VaccinationCenterMapper</text><rect fill="#E2E2F0" height="22.8348" rx="1.75" ry="1.75" style="stroke:#181818;stroke-width:0.3499999999999999;" width="103.6" x="1251.6" y="35"/><text fill="#000000" font-family="sans-serif" font-size="9.8" lengthAdjust="spacing" textLength="93.8" x="1256.5" y="50.4752">:VaccineTypeMapper</text><rect fill="#E2E2F0" height="22.8348" rx="1.75" ry="1.75" style="stroke:#181818;stroke-width:0.3499999999999999;" width="103.6" x="1251.6" y="1083.8639"/><text fill="#000000" font-family="sans-serif" font-size="9.8" lengthAdjust="spacing" textLength="93.8" x="1256.5" y="1099.3391">:VaccineTypeMapper</text><rect fill="#E2E2F0" height="22.8348" rx="1.75" ry="1.75" style="stroke:#181818;stroke-width:0.3499999999999999;" width="101.5" x="1362.2" y="35"/><text fill="#000000" font-family="sans-serif" font-size="9.8" lengthAdjust="spacing" textLength="91.7" x="1367.1" y="50.4752">:AppointmentMapper</text><rect fill="#E2E2F0" height="22.8348" rx="1.75" ry="1.75" style="stroke:#181818;stroke-width:0.3499999999999999;" width="101.5" x="1362.2" y="1083.8639"/><text fill="#000000" font-family="sans-serif" font-size="9.8" lengthAdjust="spacing" textLength="91.7" x="1367.1" y="1099.3391">:AppointmentMapper</text><rect fill="#E2E2F0" height="22.8348" rx="1.75" ry="1.75" style="stroke:#181818;stroke-width:0.3499999999999999;" width="81.2" x="1470.7" y="1083.8639"/><text fill="#000000" font-family="sans-serif" font-size="9.8" lengthAdjust="spacing" textLength="71.4" x="1475.6" y="1099.3391">dto:appointment</text><rect fill="#E2E2F0" height="22.8348" rx="1.75" ry="1.75" style="stroke:#181818;stroke-width:0.3499999999999999;" width="86.8" x="1558.9" y="1083.8639"/><text fill="#000000" font-family="sans-serif" font-size="9.8" lengthAdjust="spacing" textLength="77" x="1563.8" y="1099.3391">appt:appointment</text><rect fill="#FFFFFF" height="197.1334" style="stroke:#181818;stroke-width:0.6999999999999998;" width="7" x="173.6" y="81.8385"/><rect fill="#FFFFFF" height="197.1334" style="stroke:#181818;stroke-width:0.6999999999999998;" width="7" x="173.6" y="300.8756"/><rect fill="#FFFFFF" height="21.9037" style="stroke:#181818;stroke-width:0.6999999999999998;" width="7" x="173.6" y="519.9127"/><rect fill="#FFFFFF" height="289.2066" style="stroke:#181818;stroke-width:0.6999999999999998;" width="7" x="173.6" y="563.7201"/><rect fill="#FFFFFF" height="197.1334" style="stroke:#181818;stroke-width:0.6999999999999998;" width="7" x="173.6" y="874.8305"/><rect fill="#FFFFFF" height="153.326" style="stroke:#181818;stroke-width:0.6999999999999998;" width="7" x="344.4" y="103.7422"/><rect fill="#FFFFFF" height="153.326" style="stroke:#181818;stroke-width:0.6999999999999998;" width="7" x="344.4" y="322.7793"/><rect fill="#FFFFFF" height="245.3992" style="stroke:#181818;stroke-width:0.6999999999999998;" width="7" x="344.4" y="585.6238"/><rect fill="#FFFFFF" height="153.326" style="stroke:#181818;stroke-width:0.6999999999999998;" width="7" x="344.4" y="896.7342"/><rect fill="#FFFFFF" height="21.9037" style="stroke:#181818;stroke-width:0.6999999999999998;" width="7" x="515.2" y="125.6459"/><rect fill="#FFFFFF" height="21.9037" style="stroke:#181818;stroke-width:0.6999999999999998;" width="7" x="515.2" y="344.683"/><rect fill="#FFFFFF" height="21.9037" style="stroke:#181818;stroke-width:0.6999999999999998;" width="7" x="515.2" y="659.966"/><rect fill="#FFFFFF" height="21.9037" style="stroke:#181818;stroke-width:0.6999999999999998;" width="7" x="515.2" y="940.5416"/><rect fill="#FFFFFF" height="105.3459" style="stroke:#181818;stroke-width:0.6999999999999998;" width="7" x="660.8" y="703.7734"/><rect fill="#FFFFFF" height="25.4037" style="stroke:#181818;stroke-width:0.6999999999999998;" width="7" x="664.3" y="783.7156"/><rect fill="#FFFFFF" height="109.5186" style="stroke:#181818;stroke-width:0.6999999999999998;" width="7" x="660.8" y="918.6379"/><rect fill="#FFFFFF" height="21.9037" style="stroke:#181818;stroke-width:0.6999999999999998;" width="7" x="788.9" y="169.4533"/><rect fill="#FFFFFF" height="21.9037" style="stroke:#181818;stroke-width:0.6999999999999998;" width="7" x="925.4" y="388.4904"/><rect fill="#FFFFFF" height="21.9037" style="stroke:#181818;stroke-width:0.6999999999999998;" width="7" x="1048.95" y="984.349"/><rect fill="#FFFFFF" height="21.9037" style="stroke:#181818;stroke-width:0.6999999999999998;" width="7" x="1177.4" y="213.2607"/><rect fill="#FFFFFF" height="21.9037" style="stroke:#181818;stroke-width:0.6999999999999998;" width="7" x="1299.9" y="432.2979"/><polygon fill="#181818" points="165.2,79.0385,172.2,81.8385,165.2,84.6385,168,81.8385" style="stroke:#181818;stroke-width:0.6999999999999998;"/><line style="stroke:#181818;stroke-width:0.6999999999999998;" x1="26.6" x2="169.4" y1="81.8385" y2="81.8385"/><text fill="#000000" font-family="sans-serif" font-size="9.1" font-weight="bold" lengthAdjust="spacing" textLength="4.9" x="31.5" y="78.1546">1</text><text fill="#000000" font-family="sans-serif" font-size="9.1" lengthAdjust="spacing" textLength="126" x="39.2" y="78.1546">wants to schedule appointment</text><polygon fill="#181818" points="336,100.9422,343,103.7422,336,106.5422,338.8,103.7422" style="stroke:#181818;stroke-width:0.6999999999999998;"/><line style="stroke:#181818;stroke-width:0.6999999999999998;" x1="180.6" x2="340.2" y1="103.7422" y2="103.7422"/><text fill="#000000" font-family="sans-serif" font-size="9.1" font-weight="bold" lengthAdjust="spacing" textLength="4.9" x="185.5" y="100.0583">2</text><text fill="#000000" font-family="sans-serif" font-size="9.1" lengthAdjust="spacing" textLength="118.3" x="193.2" y="100.0583">RequestVaccinationCenters()</text><polygon fill="#181818" points="506.8,122.8459,513.8,125.6459,506.8,128.4459,509.6,125.6459" style="stroke:#181818;stroke-width:0.6999999999999998;"/><line style="stroke:#181818;stroke-width:0.6999999999999998;" x1="351.4" x2="511" y1="125.6459" y2="125.6459"/><text fill="#000000" font-family="sans-serif" font-size="9.1" font-weight="bold" lengthAdjust="spacing" textLength="4.9" x="356.3" y="121.962">3</text><text fill="#000000" font-family="sans-serif" font-size="9.1" lengthAdjust="spacing" textLength="142.8" x="364" y="121.962">GetVaccinationCentersRepository()</text><polygon fill="#181818" points="359.1,144.7496,352.1,147.5496,359.1,150.3496,356.3,147.5496" style="stroke:#181818;stroke-width:0.6999999999999998;"/><line style="stroke:#181818;stroke-width:0.6999999999999998;stroke-dasharray:2.0,2.0;" x1="354.9" x2="518" y1="147.5496" y2="147.5496"/><text fill="#000000" font-family="sans-serif" font-size="9.1" font-weight="bold" lengthAdjust="spacing" textLength="4.9" x="363.3" y="143.8657">4</text><text fill="#000000" font-family="sans-serif" font-size="9.1" lengthAdjust="spacing" textLength="24.5" x="371" y="143.8657">vcRep</text><polygon fill="#181818" points="780.5,166.6533,787.5,169.4533,780.5,172.2533,783.3,169.4533" style="stroke:#181818;stroke-width:0.6999999999999998;"/><line style="stroke:#181818;stroke-width:0.6999999999999998;" x1="351.4" x2="784.7" y1="169.4533" y2="169.4533"/><text fill="#000000" font-family="sans-serif" font-size="9.1" font-weight="bold" lengthAdjust="spacing" textLength="4.9" x="356.3" y="165.7694">5</text><text fill="#000000" font-family="sans-serif" font-size="9.1" lengthAdjust="spacing" textLength="30.8" x="364" y="165.7694">GetAll()</text><polygon fill="#181818" points="359.1,188.557,352.1,191.357,359.1,194.157,356.3,191.357" style="stroke:#181818;stroke-width:0.6999999999999998;"/><line style="stroke:#181818;stroke-width:0.6999999999999998;stroke-dasharray:2.0,2.0;" x1="354.9" x2="791.7" y1="191.357" y2="191.357"/><text fill="#000000" font-family="sans-serif" font-size="9.1" font-weight="bold" lengthAdjust="spacing" textLength="4.9" x="363.3" y="187.6731">6</text><text fill="#000000" font-family="sans-serif" font-size="9.1" lengthAdjust="spacing" textLength="44.8" x="371" y="187.6731">centersList</text><polygon fill="#181818" points="1169,210.4607,1176,213.2607,1169,216.0607,1171.8,213.2607" style="stroke:#181818;stroke-width:0.6999999999999998;"/><line style="stroke:#181818;stroke-width:0.6999999999999998;" x1="351.4" x2="1173.2" y1="213.2607" y2="213.2607"/><text fill="#000000" font-family="sans-serif" font-size="9.1" font-weight="bold" lengthAdjust="spacing" textLength="4.9" x="356.3" y="209.5769">7</text><text fill="#000000" font-family="sans-serif" font-size="9.1" lengthAdjust="spacing" textLength="120.4" x="364" y="209.5769">getcentersListdto(centersList)</text><polygon fill="#181818" points="359.1,232.3645,352.1,235.1645,359.1,237.9645,356.3,235.1645" style="stroke:#181818;stroke-width:0.6999999999999998;"/><line style="stroke:#181818;stroke-width:0.6999999999999998;stroke-dasharray:2.0,2.0;" x1="354.9" x2="1180.2" y1="235.1645" y2="235.1645"/><text fill="#000000" font-family="sans-serif" font-size="9.1" font-weight="bold" lengthAdjust="spacing" textLength="4.9" x="363.3" y="231.4806">8</text><text fill="#000000" font-family="sans-serif" font-size="9.1" lengthAdjust="spacing" textLength="63" x="371" y="231.4806">centersListDTO</text><polygon fill="#181818" points="188.3,254.2682,181.3,257.0682,188.3,259.8682,185.5,257.0682" style="stroke:#181818;stroke-width:0.6999999999999998;"/><line style="stroke:#181818;stroke-width:0.6999999999999998;stroke-dasharray:2.0,2.0;" x1="184.1" x2="347.2" y1="257.0682" y2="257.0682"/><text fill="#000000" font-family="sans-serif" font-size="9.1" font-weight="bold" lengthAdjust="spacing" textLength="4.9" x="192.5" y="253.3843">9</text><text fill="#000000" font-family="sans-serif" font-size="9.1" lengthAdjust="spacing" textLength="63" x="200.2" y="253.3843">centersListDTO</text><polygon fill="#181818" points="34.3,276.1719,27.3,278.9719,34.3,281.7719,31.5,278.9719" style="stroke:#181818;stroke-width:0.6999999999999998;"/><line style="stroke:#181818;stroke-width:0.6999999999999998;stroke-dasharray:2.0,2.0;" x1="30.1" x2="176.4" y1="278.9719" y2="278.9719"/><text fill="#000000" font-family="sans-serif" font-size="9.1" font-weight="bold" lengthAdjust="spacing" textLength="9.8" x="38.5" y="275.288">10</text><text fill="#000000" font-family="sans-serif" font-size="9.1" lengthAdjust="spacing" textLength="68.6" x="51.1" y="275.288">show centers list</text><polygon fill="#181818" points="165.2,298.0756,172.2,300.8756,165.2,303.6756,168,300.8756" style="stroke:#181818;stroke-width:0.6999999999999998;"/><line style="stroke:#181818;stroke-width:0.6999999999999998;" x1="26.6" x2="169.4" y1="300.8756" y2="300.8756"/><text fill="#000000" font-family="sans-serif" font-size="9.1" font-weight="bold" lengthAdjust="spacing" textLength="9.8" x="31.5" y="297.1917">11</text><text fill="#000000" font-family="sans-serif" font-size="9.1" lengthAdjust="spacing" textLength="57.4" x="44.1" y="297.1917">selects center</text><polygon fill="#181818" points="336,319.9793,343,322.7793,336,325.5793,338.8,322.7793" style="stroke:#181818;stroke-width:0.6999999999999998;"/><line style="stroke:#181818;stroke-width:0.6999999999999998;" x1="180.6" x2="340.2" y1="322.7793" y2="322.7793"/><text fill="#000000" font-family="sans-serif" font-size="9.1" font-weight="bold" lengthAdjust="spacing" textLength="9.8" x="185.5" y="319.0954">12</text><text fill="#000000" font-family="sans-serif" font-size="9.1" lengthAdjust="spacing" textLength="137.9" x="198.1" y="319.0954">RequestVaccineTypes(VCenterID)</text><polygon fill="#181818" points="506.8,341.883,513.8,344.683,506.8,347.483,509.6,344.683" style="stroke:#181818;stroke-width:0.6999999999999998;"/><line style="stroke:#181818;stroke-width:0.6999999999999998;" x1="351.4" x2="511" y1="344.683" y2="344.683"/><text fill="#000000" font-family="sans-serif" font-size="9.1" font-weight="bold" lengthAdjust="spacing" textLength="9.8" x="356.3" y="340.9991">13</text><text fill="#000000" font-family="sans-serif" font-size="9.1" lengthAdjust="spacing" textLength="121.1" x="368.9" y="340.9991">GetVaccineTypesRepository()</text><polygon fill="#181818" points="359.1,363.7867,352.1,366.5867,359.1,369.3867,356.3,366.5867" style="stroke:#181818;stroke-width:0.6999999999999998;"/><line style="stroke:#181818;stroke-width:0.6999999999999998;stroke-dasharray:2.0,2.0;" x1="354.9" x2="518" y1="366.5867" y2="366.5867"/><text fill="#000000" font-family="sans-serif" font-size="9.1" font-weight="bold" lengthAdjust="spacing" textLength="9.8" x="363.3" y="362.9028">14</text><text fill="#000000" font-family="sans-serif" font-size="9.1" lengthAdjust="spacing" textLength="22.4" x="375.9" y="362.9028">vtRep</text><polygon fill="#181818" points="917,385.6904,924,388.4904,917,391.2904,919.8,388.4904" style="stroke:#181818;stroke-width:0.6999999999999998;"/><line style="stroke:#181818;stroke-width:0.6999999999999998;" x1="351.4" x2="921.2" y1="388.4904" y2="388.4904"/><text fill="#000000" font-family="sans-serif" font-size="9.1" font-weight="bold" lengthAdjust="spacing" textLength="9.8" x="356.3" y="384.8065">15</text><text fill="#000000" font-family="sans-serif" font-size="9.1" lengthAdjust="spacing" textLength="30.8" x="368.9" y="384.8065">GetAll()</text><polygon fill="#181818" points="359.1,407.5941,352.1,410.3941,359.1,413.1941,356.3,410.3941" style="stroke:#181818;stroke-width:0.6999999999999998;"/><line style="stroke:#181818;stroke-width:0.6999999999999998;stroke-dasharray:2.0,2.0;" x1="354.9" x2="928.2" y1="410.3941" y2="410.3941"/><text fill="#000000" font-family="sans-serif" font-size="9.1" font-weight="bold" lengthAdjust="spacing" textLength="9.8" x="363.3" y="406.7103">16</text><text fill="#000000" font-family="sans-serif" font-size="9.1" lengthAdjust="spacing" textLength="37.1" x="375.9" y="406.7103">typesList</text><polygon fill="#181818" points="1291.5,429.4979,1298.5,432.2979,1291.5,435.0979,1294.3,432.2979" style="stroke:#181818;stroke-width:0.6999999999999998;"/><line style="stroke:#181818;stroke-width:0.6999999999999998;" x1="351.4" x2="1295.7" y1="432.2979" y2="432.2979"/><text fill="#000000" font-family="sans-serif" font-size="9.1" font-weight="bold" lengthAdjust="spacing" textLength="9.8" x="356.3" y="428.614">17</text><text fill="#000000" font-family="sans-serif" font-size="9.1" lengthAdjust="spacing" textLength="68.6" x="368.9" y="428.614">toDTO(typesList)</text><polygon fill="#181818" points="359.1,451.4016,352.1,454.2016,359.1,457.0016,356.3,454.2016" style="stroke:#181818;stroke-width:0.6999999999999998;"/><line style="stroke:#181818;stroke-width:0.6999999999999998;stroke-dasharray:2.0,2.0;" x1="354.9" x2="1302.7" y1="454.2016" y2="454.2016"/><text fill="#000000" font-family="sans-serif" font-size="9.1" font-weight="bold" lengthAdjust="spacing" textLength="9.8" x="363.3" y="450.5177">18</text><text fill="#000000" font-family="sans-serif" font-size="9.1" lengthAdjust="spacing" textLength="55.3" x="375.9" y="450.5177">typesListDTO</text><polygon fill="#181818" points="188.3,473.3053,181.3,476.1053,188.3,478.9053,185.5,476.1053" style="stroke:#181818;stroke-width:0.6999999999999998;"/><line style="stroke:#181818;stroke-width:0.6999999999999998;stroke-dasharray:2.0,2.0;" x1="184.1" x2="347.2" y1="476.1053" y2="476.1053"/><text fill="#000000" font-family="sans-serif" font-size="9.1" font-weight="bold" lengthAdjust="spacing" textLength="9.8" x="192.5" y="472.4214">19</text><text fill="#000000" font-family="sans-serif" font-size="9.1" lengthAdjust="spacing" textLength="55.3" x="205.1" y="472.4214">typesListDTO</text><polygon fill="#181818" points="34.3,495.209,27.3,498.009,34.3,500.809,31.5,498.009" style="stroke:#181818;stroke-width:0.6999999999999998;"/><line style="stroke:#181818;stroke-width:0.6999999999999998;stroke-dasharray:2.0,2.0;" x1="30.1" x2="176.4" y1="498.009" y2="498.009"/><text fill="#000000" font-family="sans-serif" font-size="9.1" font-weight="bold" lengthAdjust="spacing" textLength="9.8" x="38.5" y="494.3251">20</text><text fill="#000000" font-family="sans-serif" font-size="9.1" lengthAdjust="spacing" textLength="63.7" x="51.1" y="494.3251">show types List</text><polygon fill="#181818" points="165.2,517.1127,172.2,519.9127,165.2,522.7127,168,519.9127" style="stroke:#181818;stroke-width:0.6999999999999998;"/><line style="stroke:#181818;stroke-width:0.6999999999999998;" x1="26.6" x2="169.4" y1="519.9127" y2="519.9127"/><text fill="#000000" font-family="sans-serif" font-size="9.1" font-weight="bold" lengthAdjust="spacing" textLength="9.8" x="31.5" y="516.2288">21</text><text fill="#000000" font-family="sans-serif" font-size="9.1" lengthAdjust="spacing" textLength="49.7" x="44.1" y="516.2288">selects type</text><polygon fill="#181818" points="34.3,539.0164,27.3,541.8164,34.3,544.6164,31.5,541.8164" style="stroke:#181818;stroke-width:0.6999999999999998;"/><line style="stroke:#181818;stroke-width:0.6999999999999998;stroke-dasharray:2.0,2.0;" x1="30.1" x2="176.4" y1="541.8164" y2="541.8164"/><text fill="#000000" font-family="sans-serif" font-size="9.1" font-weight="bold" lengthAdjust="spacing" textLength="9.8" x="38.5" y="538.1325">22</text><text fill="#000000" font-family="sans-serif" font-size="9.1" lengthAdjust="spacing" textLength="93.1" x="51.1" y="538.1325">requests date and time</text><polygon fill="#181818" points="165.2,560.9201,172.2,563.7201,165.2,566.5201,168,563.7201" style="stroke:#181818;stroke-width:0.6999999999999998;"/><line style="stroke:#181818;stroke-width:0.6999999999999998;" x1="26.6" x2="169.4" y1="563.7201" y2="563.7201"/><text fill="#000000" font-family="sans-serif" font-size="9.1" font-weight="bold" lengthAdjust="spacing" textLength="9.8" x="31.5" y="560.0362">23</text><text fill="#000000" font-family="sans-serif" font-size="9.1" lengthAdjust="spacing" textLength="80.5" x="44.1" y="560.0362">types date and time</text><polygon fill="#181818" points="336,582.8238,343,585.6238,336,588.4238,338.8,585.6238" style="stroke:#181818;stroke-width:0.6999999999999998;"/><line style="stroke:#181818;stroke-width:0.6999999999999998;" x1="180.6" x2="340.2" y1="585.6238" y2="585.6238"/><text fill="#000000" font-family="sans-serif" font-size="9.1" font-weight="bold" lengthAdjust="spacing" textLength="9.8" x="185.5" y="581.9399">24</text><text fill="#000000" font-family="sans-serif" font-size="9.1" lengthAdjust="spacing" textLength="92.4" x="198.1" y="581.9399">saveAppointment(data)</text><polygon fill="#181818" points="1462.3,604.7275,1469.3,607.5275,1462.3,610.3275,1465.1,607.5275" style="stroke:#181818;stroke-width:0.6999999999999998;"/><line style="stroke:#181818;stroke-width:0.6999999999999998;" x1="351.4" x2="1466.5" y1="607.5275" y2="607.5275"/><text fill="#000000" font-family="sans-serif" font-size="9.1" font-weight="bold" lengthAdjust="spacing" textLength="9.8" x="356.3" y="603.8437">25</text><text fill="#000000" font-family="sans-serif" font-size="9.1" lengthAdjust="spacing" textLength="92.4" x="368.9" y="603.8437">saveAppointment(data)</text><rect fill="#E2E2F0" height="22.8348" rx="1.75" ry="1.75" style="stroke:#181818;stroke-width:0.3499999999999999;" width="81.2" x="1470.7" y="591.2238"/><text fill="#000000" font-family="sans-serif" font-size="9.8" lengthAdjust="spacing" textLength="71.4" x="1475.6" y="606.699">dto:appointment</text><polygon fill="#181818" points="359.1,635.2623,352.1,638.0623,359.1,640.8623,356.3,638.0623" style="stroke:#181818;stroke-width:0.6999999999999998;"/><line style="stroke:#181818;stroke-width:0.6999999999999998;stroke-dasharray:2.0,2.0;" x1="354.9" x2="1510.6" y1="638.0623" y2="638.0623"/><text fill="#000000" font-family="sans-serif" font-size="9.1" font-weight="bold" lengthAdjust="spacing" textLength="9.8" x="363.3" y="634.3784">26</text><text fill="#000000" font-family="sans-serif" font-size="9.1" lengthAdjust="spacing" textLength="12.6" x="375.9" y="634.3784">dto</text><polygon fill="#181818" points="506.8,657.166,513.8,659.966,506.8,662.766,509.6,659.966" style="stroke:#181818;stroke-width:0.6999999999999998;"/><line style="stroke:#181818;stroke-width:0.6999999999999998;" x1="351.4" x2="511" y1="659.966" y2="659.966"/><text fill="#000000" font-family="sans-serif" font-size="9.1" font-weight="bold" lengthAdjust="spacing" textLength="9.8" x="356.3" y="656.2821">27</text><text fill="#000000" font-family="sans-serif" font-size="9.1" lengthAdjust="spacing" textLength="103.6" x="368.9" y="656.2821">GetAppointmentService():</text><polygon fill="#181818" points="359.1,679.0697,352.1,681.8697,359.1,684.6697,356.3,681.8697" style="stroke:#181818;stroke-width:0.6999999999999998;"/><line style="stroke:#181818;stroke-width:0.6999999999999998;stroke-dasharray:2.0,2.0;" x1="354.9" x2="518" y1="681.8697" y2="681.8697"/><text fill="#000000" font-family="sans-serif" font-size="9.1" font-weight="bold" lengthAdjust="spacing" textLength="9.8" x="363.3" y="678.1858">28</text><text fill="#000000" font-family="sans-serif" font-size="9.1" lengthAdjust="spacing" textLength="46.9" x="375.9" y="678.1858">apptService</text><polygon fill="#181818" points="652.4,700.9734,659.4,703.7734,652.4,706.5734,655.2,703.7734" style="stroke:#181818;stroke-width:0.6999999999999998;"/><line style="stroke:#181818;stroke-width:0.6999999999999998;" x1="351.4" x2="656.6" y1="703.7734" y2="703.7734"/><text fill="#000000" font-family="sans-serif" font-size="9.1" font-weight="bold" lengthAdjust="spacing" textLength="9.8" x="356.3" y="700.0896">29</text><text fill="#000000" font-family="sans-serif" font-size="9.1" lengthAdjust="spacing" textLength="84" x="368.9" y="700.0896">addAppointment(dto)</text><polygon fill="#181818" points="1550.5,722.8771,1557.5,725.6771,1550.5,728.4771,1553.3,725.6771" style="stroke:#181818;stroke-width:0.6999999999999998;"/><line style="stroke:#181818;stroke-width:0.6999999999999998;" x1="667.8" x2="1554.7" y1="725.6771" y2="725.6771"/><text fill="#000000" font-family="sans-serif" font-size="9.1" font-weight="bold" lengthAdjust="spacing" textLength="9.8" x="672.7" y="721.9933">30</text><text fill="#000000" font-family="sans-serif" font-size="9.1" lengthAdjust="spacing" textLength="84" x="685.3" y="721.9933">addAppointment(dto)</text><rect fill="#E2E2F0" height="22.8348" rx="1.75" ry="1.75" style="stroke:#181818;stroke-width:0.3499999999999999;" width="86.8" x="1558.9" y="709.3734"/><text fill="#000000" font-family="sans-serif" font-size="9.8" lengthAdjust="spacing" textLength="77" x="1563.8" y="724.8486">appt:appointment</text><polygon fill="#181818" points="675.5,753.4119,668.5,756.2119,675.5,759.0119,672.7,756.2119" style="stroke:#181818;stroke-width:0.6999999999999998;"/><line style="stroke:#181818;stroke-width:0.6999999999999998;stroke-dasharray:2.0,2.0;" x1="671.3" x2="1601.6" y1="756.2119" y2="756.2119"/><text fill="#000000" font-family="sans-serif" font-size="9.1" font-weight="bold" lengthAdjust="spacing" textLength="9.8" x="679.7" y="752.528">31</text><text fill="#000000" font-family="sans-serif" font-size="9.1" lengthAdjust="spacing" textLength="51.1" x="692.3" y="752.528">Appointment</text><line style="stroke:#181818;stroke-width:0.6999999999999998;" x1="667.8" x2="700.7" y1="774.6156" y2="774.6156"/><line style="stroke:#181818;stroke-width:0.6999999999999998;" x1="700.7" x2="700.7" y1="774.6156" y2="783.7156"/><line style="stroke:#181818;stroke-width:0.6999999999999998;" x1="672" x2="700.7" y1="783.7156" y2="783.7156"/><polygon fill="#181818" points="679,780.9156,672,783.7156,679,786.5156,676.2,783.7156" style="stroke:#181818;stroke-width:0.6999999999999998;"/><text fill="#000000" font-family="sans-serif" font-size="9.1" font-weight="bold" lengthAdjust="spacing" textLength="9.8" x="676.2" y="770.9317">32</text><text fill="#000000" font-family="sans-serif" font-size="9.1" lengthAdjust="spacing" textLength="50.4" x="688.8" y="770.9317">validate data</text><polygon fill="#181818" points="359.1,806.3193,352.1,809.1193,359.1,811.9193,356.3,809.1193" style="stroke:#181818;stroke-width:0.6999999999999998;"/><line style="stroke:#181818;stroke-width:0.6999999999999998;stroke-dasharray:2.0,2.0;" x1="354.9" x2="663.6" y1="809.1193" y2="809.1193"/><text fill="#000000" font-family="sans-serif" font-size="9.1" font-weight="bold" lengthAdjust="spacing" textLength="9.8" x="363.3" y="805.4354">33</text><text fill="#000000" font-family="sans-serif" font-size="9.1" lengthAdjust="spacing" textLength="51.1" x="375.9" y="805.4354">Appointment</text><polygon fill="#181818" points="188.3,828.223,181.3,831.023,188.3,833.823,185.5,831.023" style="stroke:#181818;stroke-width:0.6999999999999998;"/><line style="stroke:#181818;stroke-width:0.6999999999999998;stroke-dasharray:2.0,2.0;" x1="184.1" x2="347.2" y1="831.023" y2="831.023"/><text fill="#000000" font-family="sans-serif" font-size="9.1" font-weight="bold" lengthAdjust="spacing" textLength="9.8" x="192.5" y="827.3392">34</text><text fill="#000000" font-family="sans-serif" font-size="9.1" lengthAdjust="spacing" textLength="51.1" x="205.1" y="827.3392">Appointment</text><polygon fill="#181818" points="34.3,850.1268,27.3,852.9268,34.3,855.7268,31.5,852.9268" style="stroke:#181818;stroke-width:0.6999999999999998;"/><line style="stroke:#181818;stroke-width:0.6999999999999998;stroke-dasharray:2.0,2.0;" x1="30.1" x2="176.4" y1="852.9268" y2="852.9268"/><text fill="#000000" font-family="sans-serif" font-size="9.1" font-weight="bold" lengthAdjust="spacing" textLength="9.8" x="38.5" y="849.2429">35</text><text fill="#000000" font-family="sans-serif" font-size="9.1" lengthAdjust="spacing" textLength="80.5" x="51.1" y="849.2429">Ask for confirmation</text><polygon fill="#181818" points="165.2,872.0305,172.2,874.8305,165.2,877.6305,168,874.8305" style="stroke:#181818;stroke-width:0.6999999999999998;"/><line style="stroke:#181818;stroke-width:0.6999999999999998;" x1="26.6" x2="169.4" y1="874.8305" y2="874.8305"/><text fill="#000000" font-family="sans-serif" font-size="9.1" font-weight="bold" lengthAdjust="spacing" textLength="9.8" x="31.5" y="871.1466">36</text><text fill="#000000" font-family="sans-serif" font-size="9.1" lengthAdjust="spacing" textLength="40.6" x="44.1" y="871.1466">Confirmed</text><polygon fill="#181818" points="336,893.9342,343,896.7342,336,899.5342,338.8,896.7342" style="stroke:#181818;stroke-width:0.6999999999999998;"/><line style="stroke:#181818;stroke-width:0.6999999999999998;" x1="180.6" x2="340.2" y1="896.7342" y2="896.7342"/><text fill="#000000" font-family="sans-serif" font-size="9.1" font-weight="bold" lengthAdjust="spacing" textLength="9.8" x="185.5" y="893.0503">37</text><text fill="#000000" font-family="sans-serif" font-size="9.1" lengthAdjust="spacing" textLength="23.8" x="198.1" y="893.0503">save()</text><polygon fill="#181818" points="652.4,915.8379,659.4,918.6379,652.4,921.4379,655.2,918.6379" style="stroke:#181818;stroke-width:0.6999999999999998;"/><line style="stroke:#181818;stroke-width:0.6999999999999998;" x1="351.4" x2="656.6" y1="918.6379" y2="918.6379"/><text fill="#000000" font-family="sans-serif" font-size="9.1" font-weight="bold" lengthAdjust="spacing" textLength="9.8" x="356.3" y="914.954">38</text><text fill="#000000" font-family="sans-serif" font-size="9.1" lengthAdjust="spacing" textLength="23.8" x="368.9" y="914.954">save()</text><polygon fill="#181818" points="529.9,937.7416,522.9,940.5416,529.9,943.3416,527.1,940.5416" style="stroke:#181818;stroke-width:0.6999999999999998;"/><line style="stroke:#181818;stroke-width:0.6999999999999998;" x1="525.7" x2="660.1" y1="940.5416" y2="940.5416"/><text fill="#000000" font-family="sans-serif" font-size="9.1" font-weight="bold" lengthAdjust="spacing" textLength="9.8" x="534.1" y="936.8577">39</text><text fill="#000000" font-family="sans-serif" font-size="9.1" lengthAdjust="spacing" textLength="112.7" x="546.7" y="936.8577">getAppointmentRepository()</text><polygon fill="#181818" points="652.4,959.6453,659.4,962.4453,652.4,965.2453,655.2,962.4453" style="stroke:#181818;stroke-width:0.6999999999999998;"/><line style="stroke:#181818;stroke-width:0.6999999999999998;stroke-dasharray:2.0,2.0;" x1="518.7" x2="656.6" y1="962.4453" y2="962.4453"/><text fill="#000000" font-family="sans-serif" font-size="9.1" font-weight="bold" lengthAdjust="spacing" textLength="9.8" x="523.6" y="958.7614">40</text><text fill="#000000" font-family="sans-serif" font-size="9.1" lengthAdjust="spacing" textLength="38.5" x="536.2" y="958.7614">apptRepo</text><polygon fill="#181818" points="1040.55,981.549,1047.55,984.349,1040.55,987.149,1043.35,984.349" style="stroke:#181818;stroke-width:0.6999999999999998;"/><line style="stroke:#181818;stroke-width:0.6999999999999998;" x1="667.8" x2="1044.75" y1="984.349" y2="984.349"/><text fill="#000000" font-family="sans-serif" font-size="9.1" font-weight="bold" lengthAdjust="spacing" textLength="9.8" x="672.7" y="980.6651">41</text><text fill="#000000" font-family="sans-serif" font-size="9.1" lengthAdjust="spacing" textLength="20.3" x="685.3" y="980.6651">add()</text><polygon fill="#181818" points="675.5,1003.4527,668.5,1006.2527,675.5,1009.0527,672.7,1006.2527" style="stroke:#181818;stroke-width:0.6999999999999998;"/><line style="stroke:#181818;stroke-width:0.6999999999999998;stroke-dasharray:2.0,2.0;" x1="671.3" x2="1051.75" y1="1006.2527" y2="1006.2527"/><text fill="#000000" font-family="sans-serif" font-size="9.1" font-weight="bold" lengthAdjust="spacing" textLength="9.8" x="679.7" y="1002.5688">42</text><text fill="#000000" font-family="sans-serif" font-size="9.1" lengthAdjust="spacing" textLength="21" x="692.3" y="1002.5688">Done</text><polygon fill="#181818" points="359.1,1025.3564,352.1,1028.1564,359.1,1030.9564,356.3,1028.1564" style="stroke:#181818;stroke-width:0.6999999999999998;"/><line style="stroke:#181818;stroke-width:0.6999999999999998;stroke-dasharray:2.0,2.0;" x1="354.9" x2="663.6" y1="1028.1564" y2="1028.1564"/><text fill="#000000" font-family="sans-serif" font-size="9.1" font-weight="bold" lengthAdjust="spacing" textLength="9.8" x="363.3" y="1024.4726">43</text><text fill="#000000" font-family="sans-serif" font-size="9.1" lengthAdjust="spacing" textLength="21" x="375.9" y="1024.4726">Done</text><polygon fill="#181818" points="188.3,1047.2602,181.3,1050.0602,188.3,1052.8602,185.5,1050.0602" style="stroke:#181818;stroke-width:0.6999999999999998;"/><line style="stroke:#181818;stroke-width:0.6999999999999998;stroke-dasharray:2.0,2.0;" x1="184.1" x2="347.2" y1="1050.0602" y2="1050.0602"/><text fill="#000000" font-family="sans-serif" font-size="9.1" font-weight="bold" lengthAdjust="spacing" textLength="9.8" x="192.5" y="1046.3763">44</text><text fill="#000000" font-family="sans-serif" font-size="9.1" lengthAdjust="spacing" textLength="21" x="205.1" y="1046.3763">Done</text><polygon fill="#181818" points="34.3,1069.1639,27.3,1071.9639,34.3,1074.7639,31.5,1071.9639" style="stroke:#181818;stroke-width:0.6999999999999998;"/><line style="stroke:#181818;stroke-width:0.6999999999999998;stroke-dasharray:2.0,2.0;" x1="30.1" x2="176.4" y1="1071.9639" y2="1071.9639"/><text fill="#000000" font-family="sans-serif" font-size="9.1" font-weight="bold" lengthAdjust="spacing" textLength="9.8" x="38.5" y="1068.28">45</text><text fill="#000000" font-family="sans-serif" font-size="9.1" lengthAdjust="spacing" textLength="84" x="51.1" y="1068.28">Mensage of success</text><!--SRC=[ZPR1Rk8m48RlUOeHbmqLl424a12iLf7ehhH0xsuojDO6EniRghxzZksOE752juSgZhz_FFvdOiEkMh92ynlJ258aZCRYUdd59la6Utx6YWjK6Hn-7k2ai5d0AL_0LWhToAeoumCsDrxW0dvZBHNNik6e5l3CwXeRUjWTVz7_xq9pRITsJBDNfZ2XPMK3Cnzv1apPXwHcZUO5hvdGCCiEnJkMrmetTIsvq1SK-fGxEFyQxJAracuua9B40fHrFEE3jLlre1yd0yKBAmekcEPIR4c5pTsPJojzwTx2QdKhw66z7es1nyyQXsh_pcZrc3R8UA2b6TrAcNkSM3X8tXMoJTmDfdCDuUCe72GNm2QnCRpKCcETmhBKK7t8R2MYpCiaIKn3mN9DlPB11z4Aj0JLzWa48a9p0tOTab57_xsYqf4bAfqdIGSQ6KM237xW2DpLW6I6M_QM8PbjWM74e4jiu4rLaJvWLijb7ohSUdkkT1pCkPl16-g08t_JO3XFF3X8iXVS583CCki_8bIRex5UlSiF3q1b4mmhex32WchZYAygOJjDfUtUyztySIqS_XzLCD_3q3V_iJqeGOTeiv2rVnZ5kwybMPFUEVBxEE7tdJ5UZjdT0sApxJJi9wqsywxdpOGo4HjdieBIN0PCbA3v1Njg5tKm7rLBiLju1gV4is6HAEkdfocK9YD3g5NZEhkoH2TqEiz6Qfpr3kqebfyXh2nxEMbfMyO3dZVvJw6qSYza08s5kdCtLd5hhp4Y92bWk9CmNedt6tnyWwGrnGirfzoyj6NVg3zmffkuaEBCcuizkdf5txe9B8qghdGwV-HbIyHxjaVHw5KLVA3zihItrp2OlzLiDKXyl-MY23ifiAyUxCS2uMvQ2-nxwrdxhJoZKEoDVZATGLsB0fLAxDy_]--></g></svg>