<svg xmlns="http://www.w3.org/2000/svg" xmlns:xlink="http://www.w3.org/1999/xlink" contentStyleType="text/css" height="1029px" preserveAspectRatio="none" style="width:1315px;height:1029px;background:#FFFFFF;" version="1.1" viewBox="0 0 1315 1029" width="1315px" zoomAndPan="magnify"><title>Specify New Vaccine Type - Sequence Diagram</title><defs/><g><text fill="#000000" font-family="sans-serif" font-size="14" font-weight="bold" lengthAdjust="spacing" textLength="314.3438" x="499.7771" y="30.1074">Specify New Vaccine Type - Sequence Diagram</text><rect fill="#FFFFFF" height="803.9844" style="stroke:#181818;stroke-width:1.0;" width="10" x="22.8413" y="133.2422"/><rect fill="#FFFFFF" height="93.873" style="stroke:#181818;stroke-width:1.0;" width="10" x="314.4746" y="156.5332"/><rect fill="#FFFFFF" height="31.291" style="stroke:#181818;stroke-width:1.0;" width="10" x="314.4746" y="281.6973"/><rect fill="#FFFFFF" height="219.0371" style="stroke:#181818;stroke-width:1.0;" width="10" x="314.4746" y="344.2793"/><rect fill="#FFFFFF" height="333.6191" style="stroke:#181818;stroke-width:1.0;" width="10" x="314.4746" y="594.6074"/><rect fill="#FFFFFF" height="156.4551" style="stroke:#181818;stroke-width:1.0;" width="10" x="725.3696" y="375.5703"/><rect fill="#FFFFFF" height="271.0371" style="stroke:#181818;stroke-width:1.0;" width="10" x="725.3696" y="625.8984"/><rect fill="#FFFFFF" height="31.291" style="stroke:#181818;stroke-width:1.0;" width="10" x="923.8467" y="406.8613"/><rect fill="#FFFFFF" height="31.291" style="stroke:#181818;stroke-width:1.0;" width="10" x="1105.9355" y="469.4434"/><rect fill="#FFFFFF" height="208.4551" style="stroke:#181818;stroke-width:1.0;" width="10" x="1105.9355" y="657.1895"/><rect fill="#FFFFFF" height="42.291" style="stroke:#181818;stroke-width:1.0;" width="10" x="1110.9355" y="696.4805"/><rect fill="#FFFFFF" height="42.291" style="stroke:#181818;stroke-width:1.0;" width="10" x="1110.9355" y="785.0625"/><rect fill="#FFFFFF" height="31.291" style="stroke:#181818;stroke-width:1.0;" width="10" x="1287.0117" y="187.8242"/><line style="stroke:#181818;stroke-width:0.5;stroke-dasharray:5.0,5.0;" x1="27" x2="27" y1="123.2422" y2="946.2266"/><line style="stroke:#181818;stroke-width:0.5;stroke-dasharray:5.0,5.0;" x1="318.8784" x2="318.8784" y1="123.2422" y2="946.2266"/><line style="stroke:#181818;stroke-width:0.5;stroke-dasharray:5.0,5.0;" x1="729.6011" x2="729.6011" y1="123.2422" y2="946.2266"/><line style="stroke:#181818;stroke-width:0.5;stroke-dasharray:5.0,5.0;" x1="928.4468" x2="928.4468" y1="123.2422" y2="946.2266"/><line style="stroke:#181818;stroke-width:0.5;stroke-dasharray:5.0,5.0;" x1="1110.3774" x2="1110.3774" y1="123.2422" y2="946.2266"/><line style="stroke:#181818;stroke-width:0.5;stroke-dasharray:5.0,5.0;" x1="1291.1255" x2="1291.1255" y1="123.2422" y2="946.2266"/><text fill="#000000" font-family="sans-serif" font-size="14" lengthAdjust="spacing" textLength="39.6826" x="5" y="119.7285">Admin</text><ellipse cx="27.8413" cy="53.1211" fill="#E2E2F0" rx="8" ry="8" style="stroke:#181818;stroke-width:0.5;"/><path d="M27.8413,61.1211 L27.8413,88.1211 M14.8413,69.1211 L40.8413,69.1211 M27.8413,88.1211 L14.8413,103.1211 M27.8413,88.1211 L40.8413,103.1211 " fill="none" style="stroke:#181818;stroke-width:0.5;"/><text fill="#000000" font-family="sans-serif" font-size="14" lengthAdjust="spacing" textLength="39.6826" x="5" y="960.334">Admin</text><ellipse cx="27.8413" cy="972.3477" fill="#E2E2F0" rx="8" ry="8" style="stroke:#181818;stroke-width:0.5;"/><path d="M27.8413,980.3477 L27.8413,1007.3477 M14.8413,988.3477 L40.8413,988.3477 M27.8413,1007.3477 L14.8413,1022.3477 M27.8413,1007.3477 L40.8413,1022.3477 " fill="none" style="stroke:#181818;stroke-width:0.5;"/><rect fill="#E2E2F0" height="32.6211" rx="2.5" ry="2.5" style="stroke:#181818;stroke-width:0.5;" width="199.1924" x="219.8784" y="89.6211"/><text fill="#000000" font-family="sans-serif" font-size="14" lengthAdjust="spacing" textLength="185.1924" x="226.8784" y="111.7285">:CreateNewVaccineTypeView</text><rect fill="#E2E2F0" height="32.6211" rx="2.5" ry="2.5" style="stroke:#181818;stroke-width:0.5;" width="199.1924" x="219.8784" y="945.2266"/><text fill="#000000" font-family="sans-serif" font-size="14" lengthAdjust="spacing" textLength="185.1924" x="226.8784" y="967.334">:CreateNewVaccineTypeView</text><rect fill="#E2E2F0" height="32.6211" rx="2.5" ry="2.5" style="stroke:#181818;stroke-width:0.5;" width="229.5371" x="615.6011" y="89.6211"/><text fill="#000000" font-family="sans-serif" font-size="14" lengthAdjust="spacing" textLength="215.5371" x="622.6011" y="111.7285">:CreateNewVaccineTypeController</text><rect fill="#E2E2F0" height="32.6211" rx="2.5" ry="2.5" style="stroke:#181818;stroke-width:0.5;" width="229.5371" x="615.6011" y="945.2266"/><text fill="#000000" font-family="sans-serif" font-size="14" lengthAdjust="spacing" textLength="215.5371" x="622.6011" y="967.334">:CreateNewVaccineTypeController</text><rect fill="#E2E2F0" height="32.6211" rx="2.5" ry="2.5" style="stroke:#181818;stroke-width:0.5;" width="42.7998" x="907.4468" y="89.6211"/><text fill="#000000" font-family="sans-serif" font-size="14" lengthAdjust="spacing" textLength="28.7998" x="914.4468" y="111.7285">:App</text><rect fill="#E2E2F0" height="32.6211" rx="2.5" ry="2.5" style="stroke:#181818;stroke-width:0.5;" width="42.7998" x="907.4468" y="945.2266"/><text fill="#000000" font-family="sans-serif" font-size="14" lengthAdjust="spacing" textLength="28.7998" x="914.4468" y="967.334">:App</text><rect fill="#E2E2F0" height="32.6211" rx="2.5" ry="2.5" style="stroke:#181818;stroke-width:0.5;" width="217.1162" x="1002.3774" y="89.6211"/><text fill="#000000" font-family="sans-serif" font-size="14" lengthAdjust="spacing" textLength="203.1162" x="1009.3774" y="111.7285">container:VaccineTypeContainer</text><rect fill="#E2E2F0" height="32.6211" rx="2.5" ry="2.5" style="stroke:#181818;stroke-width:0.5;" width="217.1162" x="1002.3774" y="945.2266"/><text fill="#000000" font-family="sans-serif" font-size="14" lengthAdjust="spacing" textLength="203.1162" x="1009.3774" y="967.334">container:VaccineTypeContainer</text><rect fill="#E2E2F0" height="32.6211" rx="2.5" ry="2.5" style="stroke:#181818;stroke-width:0.5;" width="35.7725" x="1274.1255" y="89.6211"/><text fill="#000000" font-family="sans-serif" font-size="14" lengthAdjust="spacing" textLength="21.7725" x="1281.1255" y="111.7285">Ctrl</text><rect fill="#E2E2F0" height="32.6211" rx="2.5" ry="2.5" style="stroke:#181818;stroke-width:0.5;" width="35.7725" x="1274.1255" y="945.2266"/><text fill="#000000" font-family="sans-serif" font-size="14" lengthAdjust="spacing" textLength="21.7725" x="1281.1255" y="967.334">Ctrl</text><rect fill="#FFFFFF" height="803.9844" style="stroke:#181818;stroke-width:1.0;" width="10" x="22.8413" y="133.2422"/><rect fill="#FFFFFF" height="93.873" style="stroke:#181818;stroke-width:1.0;" width="10" x="314.4746" y="156.5332"/><rect fill="#FFFFFF" height="31.291" style="stroke:#181818;stroke-width:1.0;" width="10" x="314.4746" y="281.6973"/><rect fill="#FFFFFF" height="219.0371" style="stroke:#181818;stroke-width:1.0;" width="10" x="314.4746" y="344.2793"/><rect fill="#FFFFFF" height="333.6191" style="stroke:#181818;stroke-width:1.0;" width="10" x="314.4746" y="594.6074"/><rect fill="#FFFFFF" height="156.4551" style="stroke:#181818;stroke-width:1.0;" width="10" x="725.3696" y="375.5703"/><rect fill="#FFFFFF" height="271.0371" style="stroke:#181818;stroke-width:1.0;" width="10" x="725.3696" y="625.8984"/><rect fill="#FFFFFF" height="31.291" style="stroke:#181818;stroke-width:1.0;" width="10" x="923.8467" y="406.8613"/><rect fill="#FFFFFF" height="31.291" style="stroke:#181818;stroke-width:1.0;" width="10" x="1105.9355" y="469.4434"/><rect fill="#FFFFFF" height="208.4551" style="stroke:#181818;stroke-width:1.0;" width="10" x="1105.9355" y="657.1895"/><rect fill="#FFFFFF" height="42.291" style="stroke:#181818;stroke-width:1.0;" width="10" x="1110.9355" y="696.4805"/><rect fill="#FFFFFF" height="42.291" style="stroke:#181818;stroke-width:1.0;" width="10" x="1110.9355" y="785.0625"/><rect fill="#FFFFFF" height="31.291" style="stroke:#181818;stroke-width:1.0;" width="10" x="1287.0117" y="187.8242"/><polygon fill="#181818" points="302.4746,152.5332,312.4746,156.5332,302.4746,160.5332,306.4746,156.5332" style="stroke:#181818;stroke-width:1.0;"/><line style="stroke:#181818;stroke-width:1.0;" x1="32.8413" x2="308.4746" y1="156.5332" y2="156.5332"/><text fill="#000000" font-family="sans-serif" font-size="13" font-weight="bold" lengthAdjust="spacing" textLength="7.23" x="39.8413" y="151.2705">1</text><text fill="#000000" font-family="sans-serif" font-size="13" lengthAdjust="spacing" textLength="78.7808" x="51.0713" y="151.2705">Login request</text><polygon fill="#181818" points="1275.0117,183.8242,1285.0117,187.8242,1275.0117,191.8242,1279.0117,187.8242" style="stroke:#181818;stroke-width:1.0;"/><line style="stroke:#181818;stroke-width:1.0;" x1="324.4746" x2="1281.0117" y1="187.8242" y2="187.8242"/><text fill="#000000" font-family="sans-serif" font-size="13" font-weight="bold" lengthAdjust="spacing" textLength="7.23" x="331.4746" y="182.5615">2</text><text fill="#000000" font-family="sans-serif" font-size="13" lengthAdjust="spacing" textLength="117.0571" x="342.7046" y="182.5615">login(PersonId, role)</text><polygon fill="#181818" points="335.4746,215.1152,325.4746,219.1152,335.4746,223.1152,331.4746,219.1152" style="stroke:#181818;stroke-width:1.0;"/><line style="stroke:#181818;stroke-width:1.0;stroke-dasharray:2.0,2.0;" x1="329.4746" x2="1291.0117" y1="219.1152" y2="219.1152"/><text fill="#000000" font-family="sans-serif" font-size="13" font-weight="bold" lengthAdjust="spacing" textLength="7.23" x="341.4746" y="213.8525">3</text><text fill="#000000" font-family="sans-serif" font-size="13" lengthAdjust="spacing" textLength="96.0781" x="352.7046" y="213.8525">Confirms sucess</text><polygon fill="#181818" points="43.8413,246.4063,33.8413,250.4063,43.8413,254.4063,39.8413,250.4063" style="stroke:#181818;stroke-width:1.0;"/><line style="stroke:#181818;stroke-width:1.0;stroke-dasharray:2.0,2.0;" x1="37.8413" x2="318.4746" y1="250.4063" y2="250.4063"/><text fill="#000000" font-family="sans-serif" font-size="13" font-weight="bold" lengthAdjust="spacing" textLength="7.23" x="49.8413" y="245.1436">4</text><text fill="#000000" font-family="sans-serif" font-size="13" lengthAdjust="spacing" textLength="88.8989" x="61.0713" y="245.1436">Login response</text><polygon fill="#181818" points="302.4746,277.6973,312.4746,281.6973,302.4746,285.6973,306.4746,281.6973" style="stroke:#181818;stroke-width:1.0;"/><line style="stroke:#181818;stroke-width:1.0;" x1="32.8413" x2="308.4746" y1="281.6973" y2="281.6973"/><text fill="#000000" font-family="sans-serif" font-size="13" font-weight="bold" lengthAdjust="spacing" textLength="7.23" x="39.8413" y="276.4346">5</text><text fill="#000000" font-family="sans-serif" font-size="13" lengthAdjust="spacing" textLength="221.1206" x="51.0713" y="276.4346">Request to specify a new vaccine type</text><polygon fill="#181818" points="43.8413,308.9883,33.8413,312.9883,43.8413,316.9883,39.8413,312.9883" style="stroke:#181818;stroke-width:1.0;"/><line style="stroke:#181818;stroke-width:1.0;stroke-dasharray:2.0,2.0;" x1="37.8413" x2="318.4746" y1="312.9883" y2="312.9883"/><text fill="#000000" font-family="sans-serif" font-size="13" font-weight="bold" lengthAdjust="spacing" textLength="7.23" x="49.8413" y="307.7256">6</text><text fill="#000000" font-family="sans-serif" font-size="13" lengthAdjust="spacing" textLength="246.4033" x="61.0713" y="307.7256">Display specification of a new vaccine type</text><polygon fill="#181818" points="302.4746,340.2793,312.4746,344.2793,302.4746,348.2793,306.4746,344.2793" style="stroke:#181818;stroke-width:1.0;"/><line style="stroke:#181818;stroke-width:1.0;" x1="32.8413" x2="308.4746" y1="344.2793" y2="344.2793"/><text fill="#000000" font-family="sans-serif" font-size="13" font-weight="bold" lengthAdjust="spacing" textLength="7.23" x="39.8413" y="339.0166">7</text><text fill="#000000" font-family="sans-serif" font-size="13" lengthAdjust="spacing" textLength="125.7471" x="51.0713" y="339.0166">Types requested data</text><polygon fill="#181818" points="713.3696,371.5703,723.3696,375.5703,713.3696,379.5703,717.3696,375.5703" style="stroke:#181818;stroke-width:1.0;"/><line style="stroke:#181818;stroke-width:1.0;" x1="324.4746" x2="719.3696" y1="375.5703" y2="375.5703"/><text fill="#000000" font-family="sans-serif" font-size="13" font-weight="bold" lengthAdjust="spacing" textLength="7.23" x="331.4746" y="370.3076">8</text><text fill="#000000" font-family="sans-serif" font-size="13" lengthAdjust="spacing" textLength="370.665" x="342.7046" y="370.3076">CreateNewVaccineType(string disease, string short_description)</text><polygon fill="#181818" points="911.8467,402.8613,921.8467,406.8613,911.8467,410.8613,915.8467,406.8613" style="stroke:#181818;stroke-width:1.0;"/><line style="stroke:#181818;stroke-width:1.0;" x1="735.3696" x2="917.8467" y1="406.8613" y2="406.8613"/><text fill="#000000" font-family="sans-serif" font-size="13" font-weight="bold" lengthAdjust="spacing" textLength="7.23" x="742.3696" y="401.5986">9</text><text fill="#000000" font-family="sans-serif" font-size="13" lengthAdjust="spacing" textLength="158.2471" x="753.5996" y="401.5986">getVaccineTypeContainer()</text><polygon fill="#181818" points="746.3696,434.1523,736.3696,438.1523,746.3696,442.1523,742.3696,438.1523" style="stroke:#181818;stroke-width:1.0;"/><line style="stroke:#181818;stroke-width:1.0;stroke-dasharray:2.0,2.0;" x1="740.3696" x2="927.8467" y1="438.1523" y2="438.1523"/><text fill="#000000" font-family="sans-serif" font-size="13" font-weight="bold" lengthAdjust="spacing" textLength="14.46" x="752.3696" y="432.8896">10</text><text fill="#000000" font-family="sans-serif" font-size="13" lengthAdjust="spacing" textLength="131.5171" x="770.8296" y="432.8896">VaccineTypeContainer</text><polygon fill="#181818" points="1093.9355,465.4434,1103.9355,469.4434,1093.9355,473.4434,1097.9355,469.4434" style="stroke:#181818;stroke-width:1.0;"/><line style="stroke:#181818;stroke-width:1.0;" x1="735.3696" x2="1099.9355" y1="469.4434" y2="469.4434"/><text fill="#000000" font-family="sans-serif" font-size="13" font-weight="bold" lengthAdjust="spacing" textLength="14.46" x="742.3696" y="464.1807">11</text><text fill="#000000" font-family="sans-serif" font-size="13" lengthAdjust="spacing" textLength="333.106" x="760.8296" y="464.1807">create(int type_id, string disease, string short_description)</text><polygon fill="#181818" points="746.3696,496.7344,736.3696,500.7344,746.3696,504.7344,742.3696,500.7344" style="stroke:#181818;stroke-width:1.0;"/><line style="stroke:#181818;stroke-width:1.0;stroke-dasharray:2.0,2.0;" x1="740.3696" x2="1109.9355" y1="500.7344" y2="500.7344"/><text fill="#000000" font-family="sans-serif" font-size="13" font-weight="bold" lengthAdjust="spacing" textLength="14.46" x="752.3696" y="495.4717">12</text><text fill="#000000" font-family="sans-serif" font-size="13" lengthAdjust="spacing" textLength="75.1499" x="770.8296" y="495.4717">VaccineType</text><polygon fill="#181818" points="335.4746,528.0254,325.4746,532.0254,335.4746,536.0254,331.4746,532.0254" style="stroke:#181818;stroke-width:1.0;"/><line style="stroke:#181818;stroke-width:1.0;stroke-dasharray:2.0,2.0;" x1="329.4746" x2="729.3696" y1="532.0254" y2="532.0254"/><text fill="#000000" font-family="sans-serif" font-size="13" font-weight="bold" lengthAdjust="spacing" textLength="14.46" x="341.4746" y="526.7627">13</text><text fill="#000000" font-family="sans-serif" font-size="13" lengthAdjust="spacing" textLength="73.6963" x="359.9346" y="526.7627">Confirmation</text><polygon fill="#181818" points="43.8413,559.3164,33.8413,563.3164,43.8413,567.3164,39.8413,563.3164" style="stroke:#181818;stroke-width:1.0;"/><line style="stroke:#181818;stroke-width:1.0;stroke-dasharray:2.0,2.0;" x1="37.8413" x2="318.4746" y1="563.3164" y2="563.3164"/><text fill="#000000" font-family="sans-serif" font-size="13" font-weight="bold" lengthAdjust="spacing" textLength="14.46" x="49.8413" y="558.0537">14</text><text fill="#000000" font-family="sans-serif" font-size="13" lengthAdjust="spacing" textLength="231.2451" x="68.3013" y="558.0537">Shows all data and request confirmation</text><polygon fill="#181818" points="302.4746,590.6074,312.4746,594.6074,302.4746,598.6074,306.4746,594.6074" style="stroke:#181818;stroke-width:1.0;"/><line style="stroke:#181818;stroke-width:1.0;" x1="32.8413" x2="308.4746" y1="594.6074" y2="594.6074"/><text fill="#000000" font-family="sans-serif" font-size="13" font-weight="bold" lengthAdjust="spacing" textLength="14.46" x="39.8413" y="589.3447">15</text><text fill="#000000" font-family="sans-serif" font-size="13" lengthAdjust="spacing" textLength="80.9199" x="58.3013" y="589.3447">Confirms data</text><polygon fill="#181818" points="713.3696,621.8984,723.3696,625.8984,713.3696,629.8984,717.3696,625.8984" style="stroke:#181818;stroke-width:1.0;"/><line style="stroke:#181818;stroke-width:1.0;" x1="324.4746" x2="719.3696" y1="625.8984" y2="625.8984"/><text fill="#000000" font-family="sans-serif" font-size="13" font-weight="bold" lengthAdjust="spacing" textLength="14.46" x="331.4746" y="620.6357">16</text><text fill="#000000" font-family="sans-serif" font-size="13" lengthAdjust="spacing" textLength="137.2744" x="349.9346" y="620.6357">saveNewVaccineType()</text><polygon fill="#181818" points="1093.9355,653.1895,1103.9355,657.1895,1093.9355,661.1895,1097.9355,657.1895" style="stroke:#181818;stroke-width:1.0;"/><line style="stroke:#181818;stroke-width:1.0;" x1="735.3696" x2="1099.9355" y1="657.1895" y2="657.1895"/><text fill="#000000" font-family="sans-serif" font-size="13" font-weight="bold" lengthAdjust="spacing" textLength="14.46" x="742.3696" y="651.9268">17</text><text fill="#000000" font-family="sans-serif" font-size="13" lengthAdjust="spacing" textLength="111.2681" x="760.8296" y="651.9268">save(VaccineType)</text><line style="stroke:#181818;stroke-width:1.0;" x1="1115.9355" x2="1162.9355" y1="683.4805" y2="683.4805"/><line style="stroke:#181818;stroke-width:1.0;" x1="1162.9355" x2="1162.9355" y1="683.4805" y2="696.4805"/><line style="stroke:#181818;stroke-width:1.0;" x1="1121.9355" x2="1162.9355" y1="696.4805" y2="696.4805"/><polygon fill="#181818" points="1131.9355,692.4805,1121.9355,696.4805,1131.9355,700.4805,1127.9355,696.4805" style="stroke:#181818;stroke-width:1.0;"/><text fill="#000000" font-family="sans-serif" font-size="13" font-weight="bold" lengthAdjust="spacing" textLength="14.46" x="1127.9355" y="678.2178">18</text><text fill="#000000" font-family="sans-serif" font-size="13" lengthAdjust="spacing" textLength="128.6162" x="1146.3955" y="678.2178">validate(VaccineType)</text><line style="stroke:#181818;stroke-width:1.0;stroke-dasharray:2.0,2.0;" x1="1120.9355" x2="1162.9355" y1="737.7715" y2="737.7715"/><line style="stroke:#181818;stroke-width:1.0;stroke-dasharray:2.0,2.0;" x1="1162.9355" x2="1162.9355" y1="737.7715" y2="750.7715"/><line style="stroke:#181818;stroke-width:1.0;stroke-dasharray:2.0,2.0;" x1="1115.9355" x2="1162.9355" y1="750.7715" y2="750.7715"/><polygon fill="#181818" points="1125.9355,746.7715,1115.9355,750.7715,1125.9355,754.7715,1121.9355,750.7715" style="stroke:#181818;stroke-width:1.0;"/><text fill="#000000" font-family="sans-serif" font-size="13" font-weight="bold" lengthAdjust="spacing" textLength="14.46" x="1127.9355" y="732.5088">19</text><text fill="#000000" font-family="sans-serif" font-size="13" lengthAdjust="spacing" textLength="88.1499" x="1146.3955" y="732.5088">Data confirmed</text><line style="stroke:#181818;stroke-width:1.0;" x1="1115.9355" x2="1162.9355" y1="772.0625" y2="772.0625"/><line style="stroke:#181818;stroke-width:1.0;" x1="1162.9355" x2="1162.9355" y1="772.0625" y2="785.0625"/><line style="stroke:#181818;stroke-width:1.0;" x1="1121.9355" x2="1162.9355" y1="785.0625" y2="785.0625"/><polygon fill="#181818" points="1131.9355,781.0625,1121.9355,785.0625,1131.9355,789.0625,1127.9355,785.0625" style="stroke:#181818;stroke-width:1.0;"/><text fill="#000000" font-family="sans-serif" font-size="13" font-weight="bold" lengthAdjust="spacing" textLength="14.46" x="1127.9355" y="766.7998">20</text><text fill="#000000" font-family="sans-serif" font-size="13" lengthAdjust="spacing" textLength="105.498" x="1146.3955" y="766.7998">add(VaccineType)</text><line style="stroke:#181818;stroke-width:1.0;stroke-dasharray:2.0,2.0;" x1="1120.9355" x2="1162.9355" y1="826.3535" y2="826.3535"/><line style="stroke:#181818;stroke-width:1.0;stroke-dasharray:2.0,2.0;" x1="1162.9355" x2="1162.9355" y1="826.3535" y2="839.3535"/><line style="stroke:#181818;stroke-width:1.0;stroke-dasharray:2.0,2.0;" x1="1115.9355" x2="1162.9355" y1="839.3535" y2="839.3535"/><polygon fill="#181818" points="1125.9355,835.3535,1115.9355,839.3535,1125.9355,843.3535,1121.9355,839.3535" style="stroke:#181818;stroke-width:1.0;"/><text fill="#000000" font-family="sans-serif" font-size="13" font-weight="bold" lengthAdjust="spacing" textLength="14.46" x="1127.9355" y="821.0908">21</text><text fill="#000000" font-family="sans-serif" font-size="13" lengthAdjust="spacing" textLength="88.1499" x="1146.3955" y="821.0908">Data confirmed</text><polygon fill="#181818" points="746.3696,861.6445,736.3696,865.6445,746.3696,869.6445,742.3696,865.6445" style="stroke:#181818;stroke-width:1.0;"/><line style="stroke:#181818;stroke-width:1.0;stroke-dasharray:2.0,2.0;" x1="740.3696" x2="1109.9355" y1="865.6445" y2="865.6445"/><text fill="#000000" font-family="sans-serif" font-size="13" font-weight="bold" lengthAdjust="spacing" textLength="14.46" x="752.3696" y="860.3818">22</text><text fill="#000000" font-family="sans-serif" font-size="13" lengthAdjust="spacing" textLength="88.1499" x="770.8296" y="860.3818">Data confirmed</text><polygon fill="#181818" points="335.4746,892.9355,325.4746,896.9355,335.4746,900.9355,331.4746,896.9355" style="stroke:#181818;stroke-width:1.0;"/><line style="stroke:#181818;stroke-width:1.0;stroke-dasharray:2.0,2.0;" x1="329.4746" x2="729.3696" y1="896.9355" y2="896.9355"/><text fill="#000000" font-family="sans-serif" font-size="13" font-weight="bold" lengthAdjust="spacing" textLength="14.46" x="341.4746" y="891.6729">23</text><text fill="#000000" font-family="sans-serif" font-size="13" lengthAdjust="spacing" textLength="88.1499" x="359.9346" y="891.6729">Data confirmed</text><polygon fill="#181818" points="43.8413,924.2266,33.8413,928.2266,43.8413,932.2266,39.8413,928.2266" style="stroke:#181818;stroke-width:1.0;"/><line style="stroke:#181818;stroke-width:1.0;stroke-dasharray:2.0,2.0;" x1="37.8413" x2="318.4746" y1="928.2266" y2="928.2266"/><text fill="#000000" font-family="sans-serif" font-size="13" font-weight="bold" lengthAdjust="spacing" textLength="14.46" x="49.8413" y="922.9639">24</text><text fill="#000000" font-family="sans-serif" font-size="13" lengthAdjust="spacing" textLength="190.0361" x="68.3013" y="922.9639">Confirms the sucess of operation</text><!--SRC=[fLF1Qkim4BpxAvQS76X-m8T2IIw5KifBwRNiapR9WYFfIHk7_7qbMN6U7HSApIMMTtTcPqOMbfPWwqZnxWAlT8OFL8eDmVl54QnWI_zEP1J1Xd7lyLXLU1ABIhX38R0cdytf-9Tyh2cn7XPF-iXc0HW0qrFbq0ihTcW45itQKnoDN8KgCNqmdVD05nz-qB-sHhnjM_9vIebl9rDFplKRE3Ukg3YA4SOt4xpyieUxdhAYNcclfCf_i7hCYpRmOlVnw9D9GQhqBjNMSPq6sbIhtyW7Qvxr0yHzQLcb6gm6W4YyOtyC44wAGYWGiPo9RWJ1MHFeZlzFpmnY8PGG4Ko4w4gC4iNTWMuuk1OlPOGL2bi3TZStEo5CPeMhODAWKN3GhRBkkRpg89xD7ZG7ma0FKCxXOBryQWhAiqjRB2kL3NfCmJMm9vbBgLvMiPmbzPnpJGFIBN5GURUQuqL8wZvP3wlyPBKhq3np8Pncczszos1xiETuEzisMmXezDNLjEzjRkB_S5zcZ0_OJMrVpfcG-kh_kaR2HfqTjgoJOTzrZzitIKdPdlItgAZrhm47qTEMSGIJwZI4mKqvKFa2qsTW7VdU_VZx0W00]--></g></svg>