<svg xmlns="http://www.w3.org/2000/svg" xmlns:xlink="http://www.w3.org/1999/xlink" contentStyleType="text/css" height="414px" preserveAspectRatio="none" style="width:462px;height:414px;background:#FFFFFF;" version="1.1" viewBox="0 0 462 414" width="462px" zoomAndPan="magnify"><title>Specify New Vaccine Type - System Sequence Diagram</title><defs/><g><text fill="#000000" font-family="sans-serif" font-size="14" font-weight="bold" lengthAdjust="spacing" textLength="368.04" x="46.1396" y="30.1074">Specify New Vaccine Type - System Sequence Diagram</text><rect fill="#FFFFFF" height="188.7461" style="stroke:#181818;stroke-width:1.0;" width="10" x="69.5171" y="133.2422"/><line style="stroke:#181818;stroke-width:0.5;stroke-dasharray:5.0,5.0;" x1="74" x2="74" y1="123.2422" y2="330.9883"/><line style="stroke:#181818;stroke-width:0.5;stroke-dasharray:5.0,5.0;" x1="423.7539" x2="423.7539" y1="123.2422" y2="330.9883"/><text fill="#000000" font-family="sans-serif" font-size="14" lengthAdjust="spacing" textLength="133.0342" x="5" y="119.7285">System Administrator</text><ellipse cx="74.5171" cy="53.1211" fill="#E2E2F0" rx="8" ry="8" style="stroke:#181818;stroke-width:0.5;"/><path d="M74.5171,61.1211 L74.5171,88.1211 M61.5171,69.1211 L87.5171,69.1211 M74.5171,88.1211 L61.5171,103.1211 M74.5171,88.1211 L87.5171,103.1211 " fill="none" style="stroke:#181818;stroke-width:0.5;"/><text fill="#000000" font-family="sans-serif" font-size="14" lengthAdjust="spacing" textLength="133.0342" x="5" y="345.0957">System Administrator</text><ellipse cx="74.5171" cy="357.1094" fill="#E2E2F0" rx="8" ry="8" style="stroke:#181818;stroke-width:0.5;"/><path d="M74.5171,365.1094 L74.5171,392.1094 M61.5171,373.1094 L87.5171,373.1094 M74.5171,392.1094 L61.5171,407.1094 M74.5171,392.1094 L87.5171,407.1094 " fill="none" style="stroke:#181818;stroke-width:0.5;"/><rect fill="#E2E2F0" height="32.6211" rx="2.5" ry="2.5" style="stroke:#181818;stroke-width:0.5;" width="64.5654" x="391.7539" y="89.6211"/><text fill="#000000" font-family="sans-serif" font-size="14" lengthAdjust="spacing" textLength="50.5654" x="398.7539" y="111.7285">:System</text><rect fill="#E2E2F0" height="32.6211" rx="2.5" ry="2.5" style="stroke:#181818;stroke-width:0.5;" width="64.5654" x="391.7539" y="329.9883"/><text fill="#000000" font-family="sans-serif" font-size="14" lengthAdjust="spacing" textLength="50.5654" x="398.7539" y="352.0957">:System</text><rect fill="#FFFFFF" height="188.7461" style="stroke:#181818;stroke-width:1.0;" width="10" x="69.5171" y="133.2422"/><polygon fill="#181818" points="412.0366,152.5332,422.0366,156.5332,412.0366,160.5332,416.0366,156.5332" style="stroke:#181818;stroke-width:1.0;"/><line style="stroke:#181818;stroke-width:1.0;" x1="79.5171" x2="418.0366" y1="156.5332" y2="156.5332"/><text fill="#000000" font-family="sans-serif" font-size="13" font-weight="bold" lengthAdjust="spacing" textLength="7.23" x="86.5171" y="151.2705">1</text><text fill="#000000" font-family="sans-serif" font-size="13" lengthAdjust="spacing" textLength="188.5889" x="97.7471" y="151.2705">asks to specify new vaccine type</text><polygon fill="#181818" points="90.5171,183.8242,80.5171,187.8242,90.5171,191.8242,86.5171,187.8242" style="stroke:#181818;stroke-width:1.0;"/><line style="stroke:#181818;stroke-width:1.0;stroke-dasharray:2.0,2.0;" x1="84.5171" x2="423.0366" y1="187.8242" y2="187.8242"/><text fill="#000000" font-family="sans-serif" font-size="13" font-weight="bold" lengthAdjust="spacing" textLength="7.23" x="96.5171" y="182.5615">2</text><text fill="#000000" font-family="sans-serif" font-size="13" lengthAdjust="spacing" textLength="309.2896" x="107.7471" y="182.5615">requests data (type_code, disease, short_description)</text><polygon fill="#181818" points="412.0366,215.1152,422.0366,219.1152,412.0366,223.1152,416.0366,219.1152" style="stroke:#181818;stroke-width:1.0;"/><line style="stroke:#181818;stroke-width:1.0;" x1="79.5171" x2="418.0366" y1="219.1152" y2="219.1152"/><text fill="#000000" font-family="sans-serif" font-size="13" font-weight="bold" lengthAdjust="spacing" textLength="7.23" x="86.5171" y="213.8525">3</text><text fill="#000000" font-family="sans-serif" font-size="13" lengthAdjust="spacing" textLength="121.418" x="97.7471" y="213.8525">types requested data</text><polygon fill="#181818" points="90.5171,246.4063,80.5171,250.4063,90.5171,254.4063,86.5171,250.4063" style="stroke:#181818;stroke-width:1.0;"/><line style="stroke:#181818;stroke-width:1.0;stroke-dasharray:2.0,2.0;" x1="84.5171" x2="423.0366" y1="250.4063" y2="250.4063"/><text fill="#000000" font-family="sans-serif" font-size="13" font-weight="bold" lengthAdjust="spacing" textLength="7.23" x="96.5171" y="245.1436">4</text><text fill="#000000" font-family="sans-serif" font-size="13" lengthAdjust="spacing" textLength="257.2578" x="107.7471" y="245.1436">shows all the data and requests confirmation</text><polygon fill="#181818" points="412.0366,277.6973,422.0366,281.6973,412.0366,285.6973,416.0366,281.6973" style="stroke:#181818;stroke-width:1.0;"/><line style="stroke:#181818;stroke-width:1.0;" x1="79.5171" x2="418.0366" y1="281.6973" y2="281.6973"/><text fill="#000000" font-family="sans-serif" font-size="13" font-weight="bold" lengthAdjust="spacing" textLength="7.23" x="86.5171" y="276.4346">5</text><text fill="#000000" font-family="sans-serif" font-size="13" lengthAdjust="spacing" textLength="99.7153" x="97.7471" y="276.4346">confirms the data</text><polygon fill="#181818" points="90.5171,308.9883,80.5171,312.9883,90.5171,316.9883,86.5171,312.9883" style="stroke:#181818;stroke-width:1.0;"/><line style="stroke:#181818;stroke-width:1.0;stroke-dasharray:2.0,2.0;" x1="84.5171" x2="423.0366" y1="312.9883" y2="312.9883"/><text fill="#000000" font-family="sans-serif" font-size="13" font-weight="bold" lengthAdjust="spacing" textLength="7.23" x="96.5171" y="307.7256">6</text><text fill="#000000" font-family="sans-serif" font-size="13" lengthAdjust="spacing" textLength="151.0107" x="107.7471" y="307.7256">informs operation success</text><!--SRC=[VO-zJiGm48JxFCNg6a0Yf4-1X4HD4qHxMkmDjoB-EU_cJdbxdCG72aMwjJNppSpTIJLAspHnGA-Z6vvCS8tGUIHlgBQCNmbTLIdhGD15CjnFy4PN-41Zs1EyJv6WXcuI9GTTSSBhpLdXgC6FxfDIles618SYVh6EFOicpBy7GDd-L16Jik6Ocy6XNKsBR3qN75zGwP-lsZoXVYw6Ddk_1JI0b24-3xcK8Pg7LALPdJqRI0jfNYOgO54HxcVrqGHBZs1P22KVSWf9ZvR498xAmJ_iL9a1SgEINR0xyPbz5S1X03tHsW6z_MjbWkyvEPnZTrABJ7ufEv7i-p1BGwIqS456OqZa1m00]--></g></svg>