<svg xmlns="http://www.w3.org/2000/svg" xmlns:xlink="http://www.w3.org/1999/xlink" contentStyleType="text/css" height="904px" preserveAspectRatio="none" style="width:1499px;height:904px;background:#FFFFFF;" version="1.1" viewBox="0 0 1499 904" width="1499px" zoomAndPan="magnify"><title>Specify New Vaccine Type - Sequence Diagram</title><defs/><g><text fill="#000000" font-family="sans-serif" font-size="14" font-weight="bold" lengthAdjust="spacing" textLength="314.3438" x="597.1011" y="30.1074">Specify New Vaccine Type - Sequence Diagram</text><rect fill="#FFFFFF" height="678.8203" style="stroke:#181818;stroke-width:1.0;" width="10" x="22.8413" y="133.2422"/><rect fill="#FFFFFF" height="31.291" style="stroke:#181818;stroke-width:1.0;" width="10" x="382.4199" y="156.5332"/><rect fill="#FFFFFF" height="219.0371" style="stroke:#181818;stroke-width:1.0;" width="10" x="382.4199" y="219.1152"/><rect fill="#FFFFFF" height="333.6191" style="stroke:#181818;stroke-width:1.0;" width="10" x="382.4199" y="469.4434"/><rect fill="#FFFFFF" height="156.4551" style="stroke:#181818;stroke-width:1.0;" width="10" x="893.043" y="250.4063"/><rect fill="#FFFFFF" height="271.0371" style="stroke:#181818;stroke-width:1.0;" width="10" x="893.043" y="500.7344"/><rect fill="#FFFFFF" height="31.291" style="stroke:#181818;stroke-width:1.0;" width="10" x="1091.52" y="281.6973"/><rect fill="#FFFFFF" height="31.291" style="stroke:#181818;stroke-width:1.0;" width="10" x="1302.5098" y="344.2793"/><rect fill="#FFFFFF" height="208.4551" style="stroke:#181818;stroke-width:1.0;" width="10" x="1302.5098" y="532.0254"/><rect fill="#FFFFFF" height="42.291" style="stroke:#181818;stroke-width:1.0;" width="10" x="1307.5098" y="571.3164"/><rect fill="#FFFFFF" height="42.291" style="stroke:#181818;stroke-width:1.0;" width="10" x="1307.5098" y="659.8984"/><line style="stroke:#181818;stroke-width:0.5;stroke-dasharray:5.0,5.0;" x1="27" x2="27" y1="123.2422" y2="821.0625"/><line style="stroke:#181818;stroke-width:0.5;stroke-dasharray:5.0,5.0;" x1="386.8237" x2="386.8237" y1="123.2422" y2="821.0625"/><line style="stroke:#181818;stroke-width:0.5;stroke-dasharray:5.0,5.0;" x1="897.2744" x2="897.2744" y1="123.2422" y2="821.0625"/><line style="stroke:#181818;stroke-width:0.5;stroke-dasharray:5.0,5.0;" x1="1096.1201" x2="1096.1201" y1="123.2422" y2="821.0625"/><line style="stroke:#181818;stroke-width:0.5;stroke-dasharray:5.0,5.0;" x1="1306.9517" x2="1306.9517" y1="123.2422" y2="821.0625"/><text fill="#000000" font-family="sans-serif" font-size="14" lengthAdjust="spacing" textLength="39.6826" x="5" y="119.7285">Admin</text><ellipse cx="27.8413" cy="53.1211" fill="#E2E2F0" rx="8" ry="8" style="stroke:#181818;stroke-width:0.5;"/><path d="M27.8413,61.1211 L27.8413,88.1211 M14.8413,69.1211 L40.8413,69.1211 M27.8413,88.1211 L14.8413,103.1211 M27.8413,88.1211 L40.8413,103.1211 " fill="none" style="stroke:#181818;stroke-width:0.5;"/><text fill="#000000" font-family="sans-serif" font-size="14" lengthAdjust="spacing" textLength="39.6826" x="5" y="835.1699">Admin</text><ellipse cx="27.8413" cy="847.1836" fill="#E2E2F0" rx="8" ry="8" style="stroke:#181818;stroke-width:0.5;"/><path d="M27.8413,855.1836 L27.8413,882.1836 M14.8413,863.1836 L40.8413,863.1836 M27.8413,882.1836 L14.8413,897.1836 M27.8413,882.1836 L40.8413,897.1836 " fill="none" style="stroke:#181818;stroke-width:0.5;"/><rect fill="#E2E2F0" height="32.6211" rx="2.5" ry="2.5" style="stroke:#181818;stroke-width:0.5;" width="199.1924" x="287.8237" y="89.6211"/><text fill="#000000" font-family="sans-serif" font-size="14" lengthAdjust="spacing" textLength="185.1924" x="294.8237" y="111.7285">:CreateNewVaccineTypeView</text><rect fill="#E2E2F0" height="32.6211" rx="2.5" ry="2.5" style="stroke:#181818;stroke-width:0.5;" width="199.1924" x="287.8237" y="820.0625"/><text fill="#000000" font-family="sans-serif" font-size="14" lengthAdjust="spacing" textLength="185.1924" x="294.8237" y="842.1699">:CreateNewVaccineTypeView</text><rect fill="#E2E2F0" height="32.6211" rx="2.5" ry="2.5" style="stroke:#181818;stroke-width:0.5;" width="229.5371" x="783.2744" y="89.6211"/><text fill="#000000" font-family="sans-serif" font-size="14" lengthAdjust="spacing" textLength="215.5371" x="790.2744" y="111.7285">:CreateNewVaccineTypeController</text><rect fill="#E2E2F0" height="32.6211" rx="2.5" ry="2.5" style="stroke:#181818;stroke-width:0.5;" width="229.5371" x="783.2744" y="820.0625"/><text fill="#000000" font-family="sans-serif" font-size="14" lengthAdjust="spacing" textLength="215.5371" x="790.2744" y="842.1699">:CreateNewVaccineTypeController</text><rect fill="#E2E2F0" height="32.6211" rx="2.5" ry="2.5" style="stroke:#181818;stroke-width:0.5;" width="42.7998" x="1075.1201" y="89.6211"/><text fill="#000000" font-family="sans-serif" font-size="14" lengthAdjust="spacing" textLength="28.7998" x="1082.1201" y="111.7285">:App</text><rect fill="#E2E2F0" height="32.6211" rx="2.5" ry="2.5" style="stroke:#181818;stroke-width:0.5;" width="42.7998" x="1075.1201" y="820.0625"/><text fill="#000000" font-family="sans-serif" font-size="14" lengthAdjust="spacing" textLength="28.7998" x="1082.1201" y="842.1699">:App</text><rect fill="#E2E2F0" height="32.6211" rx="2.5" ry="2.5" style="stroke:#181818;stroke-width:0.5;" width="217.1162" x="1198.9517" y="89.6211"/><text fill="#000000" font-family="sans-serif" font-size="14" lengthAdjust="spacing" textLength="203.1162" x="1205.9517" y="111.7285">container:VaccineTypeContainer</text><rect fill="#E2E2F0" height="32.6211" rx="2.5" ry="2.5" style="stroke:#181818;stroke-width:0.5;" width="217.1162" x="1198.9517" y="820.0625"/><text fill="#000000" font-family="sans-serif" font-size="14" lengthAdjust="spacing" textLength="203.1162" x="1205.9517" y="842.1699">container:VaccineTypeContainer</text><rect fill="#FFFFFF" height="678.8203" style="stroke:#181818;stroke-width:1.0;" width="10" x="22.8413" y="133.2422"/><rect fill="#FFFFFF" height="31.291" style="stroke:#181818;stroke-width:1.0;" width="10" x="382.4199" y="156.5332"/><rect fill="#FFFFFF" height="219.0371" style="stroke:#181818;stroke-width:1.0;" width="10" x="382.4199" y="219.1152"/><rect fill="#FFFFFF" height="333.6191" style="stroke:#181818;stroke-width:1.0;" width="10" x="382.4199" y="469.4434"/><rect fill="#FFFFFF" height="156.4551" style="stroke:#181818;stroke-width:1.0;" width="10" x="893.043" y="250.4063"/><rect fill="#FFFFFF" height="271.0371" style="stroke:#181818;stroke-width:1.0;" width="10" x="893.043" y="500.7344"/><rect fill="#FFFFFF" height="31.291" style="stroke:#181818;stroke-width:1.0;" width="10" x="1091.52" y="281.6973"/><rect fill="#FFFFFF" height="31.291" style="stroke:#181818;stroke-width:1.0;" width="10" x="1302.5098" y="344.2793"/><rect fill="#FFFFFF" height="208.4551" style="stroke:#181818;stroke-width:1.0;" width="10" x="1302.5098" y="532.0254"/><rect fill="#FFFFFF" height="42.291" style="stroke:#181818;stroke-width:1.0;" width="10" x="1307.5098" y="571.3164"/><rect fill="#FFFFFF" height="42.291" style="stroke:#181818;stroke-width:1.0;" width="10" x="1307.5098" y="659.8984"/><polygon fill="#181818" points="370.4199,152.5332,380.4199,156.5332,370.4199,160.5332,374.4199,156.5332" style="stroke:#181818;stroke-width:1.0;"/><line style="stroke:#181818;stroke-width:1.0;" x1="32.8413" x2="376.4199" y1="156.5332" y2="156.5332"/><text fill="#000000" font-family="sans-serif" font-size="13" font-weight="bold" lengthAdjust="spacing" textLength="7.23" x="39.8413" y="151.2705">1</text><text fill="#000000" font-family="sans-serif" font-size="13" lengthAdjust="spacing" textLength="200.8716" x="51.0713" y="151.2705">Asks to specify a new vaccine type</text><polygon fill="#181818" points="43.8413,183.8242,33.8413,187.8242,43.8413,191.8242,39.8413,187.8242" style="stroke:#181818;stroke-width:1.0;"/><line style="stroke:#181818;stroke-width:1.0;stroke-dasharray:2.0,2.0;" x1="37.8413" x2="386.4199" y1="187.8242" y2="187.8242"/><text fill="#000000" font-family="sans-serif" font-size="13" font-weight="bold" lengthAdjust="spacing" textLength="7.23" x="49.8413" y="182.5615">2</text><text fill="#000000" font-family="sans-serif" font-size="13" lengthAdjust="spacing" textLength="314.3486" x="61.0713" y="182.5615">Requests data (type_code, disease, short_description)</text><polygon fill="#181818" points="370.4199,215.1152,380.4199,219.1152,370.4199,223.1152,374.4199,219.1152" style="stroke:#181818;stroke-width:1.0;"/><line style="stroke:#181818;stroke-width:1.0;" x1="32.8413" x2="376.4199" y1="219.1152" y2="219.1152"/><text fill="#000000" font-family="sans-serif" font-size="13" font-weight="bold" lengthAdjust="spacing" textLength="7.23" x="39.8413" y="213.8525">3</text><text fill="#000000" font-family="sans-serif" font-size="13" lengthAdjust="spacing" textLength="125.7471" x="51.0713" y="213.8525">Types requested data</text><polygon fill="#181818" points="881.043,246.4063,891.043,250.4063,881.043,254.4063,885.043,250.4063" style="stroke:#181818;stroke-width:1.0;"/><line style="stroke:#181818;stroke-width:1.0;" x1="392.4199" x2="887.043" y1="250.4063" y2="250.4063"/><text fill="#000000" font-family="sans-serif" font-size="13" font-weight="bold" lengthAdjust="spacing" textLength="7.23" x="399.4199" y="245.1436">4</text><text fill="#000000" font-family="sans-serif" font-size="13" lengthAdjust="spacing" textLength="470.3931" x="410.6499" y="245.1436">createNewVaccineType(string type_code, string disease, string short_description)</text><polygon fill="#181818" points="1079.52,277.6973,1089.52,281.6973,1079.52,285.6973,1083.52,281.6973" style="stroke:#181818;stroke-width:1.0;"/><line style="stroke:#181818;stroke-width:1.0;" x1="903.043" x2="1085.52" y1="281.6973" y2="281.6973"/><text fill="#000000" font-family="sans-serif" font-size="13" font-weight="bold" lengthAdjust="spacing" textLength="7.23" x="910.043" y="276.4346">5</text><text fill="#000000" font-family="sans-serif" font-size="13" lengthAdjust="spacing" textLength="158.2471" x="921.2729" y="276.4346">getVaccineTypeContainer()</text><polygon fill="#181818" points="914.043,308.9883,904.043,312.9883,914.043,316.9883,910.043,312.9883" style="stroke:#181818;stroke-width:1.0;"/><line style="stroke:#181818;stroke-width:1.0;stroke-dasharray:2.0,2.0;" x1="908.043" x2="1095.52" y1="312.9883" y2="312.9883"/><text fill="#000000" font-family="sans-serif" font-size="13" font-weight="bold" lengthAdjust="spacing" textLength="7.23" x="920.043" y="307.7256">6</text><text fill="#000000" font-family="sans-serif" font-size="13" lengthAdjust="spacing" textLength="131.5171" x="931.2729" y="307.7256">VaccineTypeContainer</text><polygon fill="#181818" points="1290.5098,340.2793,1300.5098,344.2793,1290.5098,348.2793,1294.5098,344.2793" style="stroke:#181818;stroke-width:1.0;"/><line style="stroke:#181818;stroke-width:1.0;" x1="903.043" x2="1296.5098" y1="344.2793" y2="344.2793"/><text fill="#000000" font-family="sans-serif" font-size="13" font-weight="bold" lengthAdjust="spacing" textLength="7.23" x="910.043" y="339.0166">7</text><text fill="#000000" font-family="sans-serif" font-size="13" lengthAdjust="spacing" textLength="369.2368" x="921.2729" y="339.0166">create(string type_code, string disease, string short_description)</text><polygon fill="#181818" points="914.043,371.5703,904.043,375.5703,914.043,379.5703,910.043,375.5703" style="stroke:#181818;stroke-width:1.0;"/><line style="stroke:#181818;stroke-width:1.0;stroke-dasharray:2.0,2.0;" x1="908.043" x2="1306.5098" y1="375.5703" y2="375.5703"/><text fill="#000000" font-family="sans-serif" font-size="13" font-weight="bold" lengthAdjust="spacing" textLength="7.23" x="920.043" y="370.3076">8</text><text fill="#000000" font-family="sans-serif" font-size="13" lengthAdjust="spacing" textLength="75.1499" x="931.2729" y="370.3076">VaccineType</text><polygon fill="#181818" points="403.4199,402.8613,393.4199,406.8613,403.4199,410.8613,399.4199,406.8613" style="stroke:#181818;stroke-width:1.0;"/><line style="stroke:#181818;stroke-width:1.0;stroke-dasharray:2.0,2.0;" x1="397.4199" x2="897.043" y1="406.8613" y2="406.8613"/><text fill="#000000" font-family="sans-serif" font-size="13" font-weight="bold" lengthAdjust="spacing" textLength="7.23" x="409.4199" y="401.5986">9</text><text fill="#000000" font-family="sans-serif" font-size="13" lengthAdjust="spacing" textLength="73.6963" x="420.6499" y="401.5986">Confirmation</text><polygon fill="#181818" points="43.8413,434.1523,33.8413,438.1523,43.8413,442.1523,39.8413,438.1523" style="stroke:#181818;stroke-width:1.0;"/><line style="stroke:#181818;stroke-width:1.0;stroke-dasharray:2.0,2.0;" x1="37.8413" x2="386.4199" y1="438.1523" y2="438.1523"/><text fill="#000000" font-family="sans-serif" font-size="13" font-weight="bold" lengthAdjust="spacing" textLength="14.46" x="49.8413" y="432.8896">10</text><text fill="#000000" font-family="sans-serif" font-size="13" lengthAdjust="spacing" textLength="231.2451" x="68.3013" y="432.8896">Shows all data and request confirmation</text><polygon fill="#181818" points="370.4199,465.4434,380.4199,469.4434,370.4199,473.4434,374.4199,469.4434" style="stroke:#181818;stroke-width:1.0;"/><line style="stroke:#181818;stroke-width:1.0;" x1="32.8413" x2="376.4199" y1="469.4434" y2="469.4434"/><text fill="#000000" font-family="sans-serif" font-size="13" font-weight="bold" lengthAdjust="spacing" textLength="14.46" x="39.8413" y="464.1807">11</text><text fill="#000000" font-family="sans-serif" font-size="13" lengthAdjust="spacing" textLength="102.6035" x="58.3013" y="464.1807">Confirms the data</text><polygon fill="#181818" points="881.043,496.7344,891.043,500.7344,881.043,504.7344,885.043,500.7344" style="stroke:#181818;stroke-width:1.0;"/><line style="stroke:#181818;stroke-width:1.0;" x1="392.4199" x2="887.043" y1="500.7344" y2="500.7344"/><text fill="#000000" font-family="sans-serif" font-size="13" font-weight="bold" lengthAdjust="spacing" textLength="14.46" x="399.4199" y="495.4717">12</text><text fill="#000000" font-family="sans-serif" font-size="13" lengthAdjust="spacing" textLength="183.5234" x="417.8799" y="495.4717">saveCreatedNewVaccineType()</text><polygon fill="#181818" points="1290.5098,528.0254,1300.5098,532.0254,1290.5098,536.0254,1294.5098,532.0254" style="stroke:#181818;stroke-width:1.0;"/><line style="stroke:#181818;stroke-width:1.0;" x1="903.043" x2="1296.5098" y1="532.0254" y2="532.0254"/><text fill="#000000" font-family="sans-serif" font-size="13" font-weight="bold" lengthAdjust="spacing" textLength="14.46" x="910.043" y="526.7627">13</text><text fill="#000000" font-family="sans-serif" font-size="13" lengthAdjust="spacing" textLength="132.228" x="928.5029" y="526.7627">save(VaccineType obj)</text><line style="stroke:#181818;stroke-width:1.0;" x1="1312.5098" x2="1359.5098" y1="558.3164" y2="558.3164"/><line style="stroke:#181818;stroke-width:1.0;" x1="1359.5098" x2="1359.5098" y1="558.3164" y2="571.3164"/><line style="stroke:#181818;stroke-width:1.0;" x1="1318.5098" x2="1359.5098" y1="571.3164" y2="571.3164"/><polygon fill="#181818" points="1328.5098,567.3164,1318.5098,571.3164,1328.5098,575.3164,1324.5098,571.3164" style="stroke:#181818;stroke-width:1.0;"/><text fill="#000000" font-family="sans-serif" font-size="13" font-weight="bold" lengthAdjust="spacing" textLength="14.46" x="1324.5098" y="553.0537">14</text><text fill="#000000" font-family="sans-serif" font-size="13" lengthAdjust="spacing" textLength="149.5762" x="1342.9697" y="553.0537">validate(VaccineType obj)</text><line style="stroke:#181818;stroke-width:1.0;stroke-dasharray:2.0,2.0;" x1="1317.5098" x2="1359.5098" y1="612.6074" y2="612.6074"/><line style="stroke:#181818;stroke-width:1.0;stroke-dasharray:2.0,2.0;" x1="1359.5098" x2="1359.5098" y1="612.6074" y2="625.6074"/><line style="stroke:#181818;stroke-width:1.0;stroke-dasharray:2.0,2.0;" x1="1312.5098" x2="1359.5098" y1="625.6074" y2="625.6074"/><polygon fill="#181818" points="1322.5098,621.6074,1312.5098,625.6074,1322.5098,629.6074,1318.5098,625.6074" style="stroke:#181818;stroke-width:1.0;"/><text fill="#000000" font-family="sans-serif" font-size="13" font-weight="bold" lengthAdjust="spacing" textLength="14.46" x="1324.5098" y="607.3447">15</text><text fill="#000000" font-family="sans-serif" font-size="13" lengthAdjust="spacing" textLength="88.1499" x="1342.9697" y="607.3447">Data confirmed</text><line style="stroke:#181818;stroke-width:1.0;" x1="1312.5098" x2="1359.5098" y1="646.8984" y2="646.8984"/><line style="stroke:#181818;stroke-width:1.0;" x1="1359.5098" x2="1359.5098" y1="646.8984" y2="659.8984"/><line style="stroke:#181818;stroke-width:1.0;" x1="1318.5098" x2="1359.5098" y1="659.8984" y2="659.8984"/><polygon fill="#181818" points="1328.5098,655.8984,1318.5098,659.8984,1328.5098,663.8984,1324.5098,659.8984" style="stroke:#181818;stroke-width:1.0;"/><text fill="#000000" font-family="sans-serif" font-size="13" font-weight="bold" lengthAdjust="spacing" textLength="14.46" x="1324.5098" y="641.6357">16</text><text fill="#000000" font-family="sans-serif" font-size="13" lengthAdjust="spacing" textLength="132.228" x="1342.9697" y="641.6357">save(VaccineType obj)</text><line style="stroke:#181818;stroke-width:1.0;stroke-dasharray:2.0,2.0;" x1="1317.5098" x2="1359.5098" y1="701.1895" y2="701.1895"/><line style="stroke:#181818;stroke-width:1.0;stroke-dasharray:2.0,2.0;" x1="1359.5098" x2="1359.5098" y1="701.1895" y2="714.1895"/><line style="stroke:#181818;stroke-width:1.0;stroke-dasharray:2.0,2.0;" x1="1312.5098" x2="1359.5098" y1="714.1895" y2="714.1895"/><polygon fill="#181818" points="1322.5098,710.1895,1312.5098,714.1895,1322.5098,718.1895,1318.5098,714.1895" style="stroke:#181818;stroke-width:1.0;"/><text fill="#000000" font-family="sans-serif" font-size="13" font-weight="bold" lengthAdjust="spacing" textLength="14.46" x="1324.5098" y="695.9268">17</text><text fill="#000000" font-family="sans-serif" font-size="13" lengthAdjust="spacing" textLength="88.1499" x="1342.9697" y="695.9268">Data confirmed</text><polygon fill="#181818" points="914.043,736.4805,904.043,740.4805,914.043,744.4805,910.043,740.4805" style="stroke:#181818;stroke-width:1.0;"/><line style="stroke:#181818;stroke-width:1.0;stroke-dasharray:2.0,2.0;" x1="908.043" x2="1306.5098" y1="740.4805" y2="740.4805"/><text fill="#000000" font-family="sans-serif" font-size="13" font-weight="bold" lengthAdjust="spacing" textLength="14.46" x="920.043" y="735.2178">18</text><text fill="#000000" font-family="sans-serif" font-size="13" lengthAdjust="spacing" textLength="88.1499" x="938.5029" y="735.2178">Data confirmed</text><polygon fill="#181818" points="403.4199,767.7715,393.4199,771.7715,403.4199,775.7715,399.4199,771.7715" style="stroke:#181818;stroke-width:1.0;"/><line style="stroke:#181818;stroke-width:1.0;stroke-dasharray:2.0,2.0;" x1="397.4199" x2="897.043" y1="771.7715" y2="771.7715"/><text fill="#000000" font-family="sans-serif" font-size="13" font-weight="bold" lengthAdjust="spacing" textLength="14.46" x="409.4199" y="766.5088">19</text><text fill="#000000" font-family="sans-serif" font-size="13" lengthAdjust="spacing" textLength="88.1499" x="427.8799" y="766.5088">Data confirmed</text><polygon fill="#181818" points="43.8413,799.0625,33.8413,803.0625,43.8413,807.0625,39.8413,803.0625" style="stroke:#181818;stroke-width:1.0;"/><line style="stroke:#181818;stroke-width:1.0;stroke-dasharray:2.0,2.0;" x1="37.8413" x2="386.4199" y1="803.0625" y2="803.0625"/><text fill="#000000" font-family="sans-serif" font-size="13" font-weight="bold" lengthAdjust="spacing" textLength="14.46" x="49.8413" y="797.7998">20</text><text fill="#000000" font-family="sans-serif" font-size="13" lengthAdjust="spacing" textLength="145.2344" x="68.3013" y="797.7998">Informs operation sucess</text><!--SRC=[fLBBJiCm4BpdArOz1Od-G0wLAhXmuK1HhzNMthQ6r3RsDbN_7hz8IGWFYLpYnyxix8nPSKkmiYJKxWAFT8Or2g4qmVF54inXHMydqeBWNk7UuR6gyCG61QiEcS3ejDUduvPSk1Di7CoMygZq3D03nbLbqR4Iog9cc3LtZW8qz2gjOgUredC2T67nX_exezcPjYMNK89TEq8jhSqAh1tUY035GEEQ4Lywp7GVkpHHdZHFKgKVp1T9Q0DB_-g13VZY888E7dR5GmxCLIo4UK0aQ0DFqL7F7YGoGXrhDi98kWMfFA4F2tymZZUIl73AiZBwPjmtQlRWCXN9n5KwBP8R3OW9sshFJkazV6fQJgwzytv2GXLv8t-mj84zyPH_TP1gRPetovWgwfckMHIv_nBOiqstBrrx3uESdN97ZE0lAQqEvXmUJzlcc53B3xUZw2jkb4lX36_YG5EXUEmelsSvIkPcofHONd-g0hDz6SmvgEwmLJAQ-1DY2BcFmvM1I7xB_AkElxBsHenBXj6CRiVXFEYTYIORIox50FuaoFigVEy0]--></g></svg>