<svg xmlns="http://www.w3.org/2000/svg" xmlns:xlink="http://www.w3.org/1999/xlink" contentStyleType="text/css" height="947px" preserveAspectRatio="none" style="width:1814px;height:947px;background:#FFFFFF;" version="1.1" viewBox="0 0 1814 947" width="1814px" zoomAndPan="magnify"><title>Specify New Vaccine Type - Sequence Diagram</title><defs/><g><text fill="#000000" font-family="sans-serif" font-size="14" font-weight="bold" lengthAdjust="spacing" textLength="314.3438" x="748.9758" y="30.1074">Specify New Vaccine Type - Sequence Diagram</text><rect fill="#FFFFFF" height="722.4414" style="stroke:#181818;stroke-width:1.0;" width="10" x="22.8413" y="133.2422"/><rect fill="#FFFFFF" height="31.291" style="stroke:#181818;stroke-width:1.0;" width="10" x="382.4199" y="156.5332"/><rect fill="#FFFFFF" height="262.6582" style="stroke:#181818;stroke-width:1.0;" width="10" x="382.4199" y="219.1152"/><rect fill="#FFFFFF" height="333.6191" style="stroke:#181818;stroke-width:1.0;" width="10" x="382.4199" y="513.0645"/><rect fill="#FFFFFF" height="200.0762" style="stroke:#181818;stroke-width:1.0;" width="10" x="893.043" y="250.4063"/><rect fill="#FFFFFF" height="271.0371" style="stroke:#181818;stroke-width:1.0;" width="10" x="893.043" y="544.3555"/><rect fill="#FFFFFF" height="31.291" style="stroke:#181818;stroke-width:1.0;" width="10" x="1091.52" y="281.6973"/><rect fill="#FFFFFF" height="74.9121" style="stroke:#181818;stroke-width:1.0;" width="10" x="1302.5098" y="344.2793"/><rect fill="#FFFFFF" height="208.4551" style="stroke:#181818;stroke-width:1.0;" width="10" x="1302.5098" y="575.6465"/><rect fill="#FFFFFF" height="42.291" style="stroke:#181818;stroke-width:1.0;" width="10" x="1307.5098" y="614.9375"/><rect fill="#FFFFFF" height="42.291" style="stroke:#181818;stroke-width:1.0;" width="10" x="1307.5098" y="703.5195"/><line style="stroke:#181818;stroke-width:0.5;stroke-dasharray:5.0,5.0;" x1="27" x2="27" y1="123.2422" y2="864.6836"/><line style="stroke:#181818;stroke-width:0.5;stroke-dasharray:5.0,5.0;" x1="386.8237" x2="386.8237" y1="123.2422" y2="864.6836"/><line style="stroke:#181818;stroke-width:0.5;stroke-dasharray:5.0,5.0;" x1="897.2744" x2="897.2744" y1="123.2422" y2="864.6836"/><line style="stroke:#181818;stroke-width:0.5;stroke-dasharray:5.0,5.0;" x1="1096.1201" x2="1096.1201" y1="123.2422" y2="864.6836"/><line style="stroke:#181818;stroke-width:0.5;stroke-dasharray:5.0,5.0;" x1="1306.9517" x2="1306.9517" y1="123.2422" y2="864.6836"/><line style="stroke:#181818;stroke-width:0.5;stroke-dasharray:5.0,5.0;" x1="1760.3647" x2="1760.3647" y1="384.0898" y2="864.6836"/><text fill="#000000" font-family="sans-serif" font-size="14" lengthAdjust="spacing" textLength="39.6826" x="5" y="119.7285">Admin</text><ellipse cx="27.8413" cy="53.1211" fill="#E2E2F0" rx="8" ry="8" style="stroke:#181818;stroke-width:0.5;"/><path d="M27.8413,61.1211 L27.8413,88.1211 M14.8413,69.1211 L40.8413,69.1211 M27.8413,88.1211 L14.8413,103.1211 M27.8413,88.1211 L40.8413,103.1211 " fill="none" style="stroke:#181818;stroke-width:0.5;"/><text fill="#000000" font-family="sans-serif" font-size="14" lengthAdjust="spacing" textLength="39.6826" x="5" y="878.791">Admin</text><ellipse cx="27.8413" cy="890.8047" fill="#E2E2F0" rx="8" ry="8" style="stroke:#181818;stroke-width:0.5;"/><path d="M27.8413,898.8047 L27.8413,925.8047 M14.8413,906.8047 L40.8413,906.8047 M27.8413,925.8047 L14.8413,940.8047 M27.8413,925.8047 L40.8413,940.8047 " fill="none" style="stroke:#181818;stroke-width:0.5;"/><rect fill="#E2E2F0" height="32.6211" rx="2.5" ry="2.5" style="stroke:#181818;stroke-width:0.5;" width="199.1924" x="287.8237" y="89.6211"/><text fill="#000000" font-family="sans-serif" font-size="14" lengthAdjust="spacing" textLength="185.1924" x="294.8237" y="111.7285">:CreateNewVaccineTypeView</text><rect fill="#E2E2F0" height="32.6211" rx="2.5" ry="2.5" style="stroke:#181818;stroke-width:0.5;" width="199.1924" x="287.8237" y="863.6836"/><text fill="#000000" font-family="sans-serif" font-size="14" lengthAdjust="spacing" textLength="185.1924" x="294.8237" y="885.791">:CreateNewVaccineTypeView</text><rect fill="#E2E2F0" height="32.6211" rx="2.5" ry="2.5" style="stroke:#181818;stroke-width:0.5;" width="229.5371" x="783.2744" y="89.6211"/><text fill="#000000" font-family="sans-serif" font-size="14" lengthAdjust="spacing" textLength="215.5371" x="790.2744" y="111.7285">:CreateNewVaccineTypeController</text><rect fill="#E2E2F0" height="32.6211" rx="2.5" ry="2.5" style="stroke:#181818;stroke-width:0.5;" width="229.5371" x="783.2744" y="863.6836"/><text fill="#000000" font-family="sans-serif" font-size="14" lengthAdjust="spacing" textLength="215.5371" x="790.2744" y="885.791">:CreateNewVaccineTypeController</text><rect fill="#E2E2F0" height="32.6211" rx="2.5" ry="2.5" style="stroke:#181818;stroke-width:0.5;" width="42.7998" x="1075.1201" y="89.6211"/><text fill="#000000" font-family="sans-serif" font-size="14" lengthAdjust="spacing" textLength="28.7998" x="1082.1201" y="111.7285">:App</text><rect fill="#E2E2F0" height="32.6211" rx="2.5" ry="2.5" style="stroke:#181818;stroke-width:0.5;" width="42.7998" x="1075.1201" y="863.6836"/><text fill="#000000" font-family="sans-serif" font-size="14" lengthAdjust="spacing" textLength="28.7998" x="1082.1201" y="885.791">:App</text><rect fill="#E2E2F0" height="32.6211" rx="2.5" ry="2.5" style="stroke:#181818;stroke-width:0.5;" width="217.1162" x="1198.9517" y="89.6211"/><text fill="#000000" font-family="sans-serif" font-size="14" lengthAdjust="spacing" textLength="203.1162" x="1205.9517" y="111.7285">container:VaccineTypeContainer</text><rect fill="#E2E2F0" height="32.6211" rx="2.5" ry="2.5" style="stroke:#181818;stroke-width:0.5;" width="217.1162" x="1198.9517" y="863.6836"/><text fill="#000000" font-family="sans-serif" font-size="14" lengthAdjust="spacing" textLength="203.1162" x="1205.9517" y="885.791">container:VaccineTypeContainer</text><rect fill="#E2E2F0" height="32.6211" rx="2.5" ry="2.5" style="stroke:#181818;stroke-width:0.5;" width="94.9307" x="1713.3647" y="863.6836"/><text fill="#000000" font-family="sans-serif" font-size="14" lengthAdjust="spacing" textLength="80.9307" x="1720.3647" y="885.791">VaccineType</text><rect fill="#FFFFFF" height="722.4414" style="stroke:#181818;stroke-width:1.0;" width="10" x="22.8413" y="133.2422"/><rect fill="#FFFFFF" height="31.291" style="stroke:#181818;stroke-width:1.0;" width="10" x="382.4199" y="156.5332"/><rect fill="#FFFFFF" height="262.6582" style="stroke:#181818;stroke-width:1.0;" width="10" x="382.4199" y="219.1152"/><rect fill="#FFFFFF" height="333.6191" style="stroke:#181818;stroke-width:1.0;" width="10" x="382.4199" y="513.0645"/><rect fill="#FFFFFF" height="200.0762" style="stroke:#181818;stroke-width:1.0;" width="10" x="893.043" y="250.4063"/><rect fill="#FFFFFF" height="271.0371" style="stroke:#181818;stroke-width:1.0;" width="10" x="893.043" y="544.3555"/><rect fill="#FFFFFF" height="31.291" style="stroke:#181818;stroke-width:1.0;" width="10" x="1091.52" y="281.6973"/><rect fill="#FFFFFF" height="74.9121" style="stroke:#181818;stroke-width:1.0;" width="10" x="1302.5098" y="344.2793"/><rect fill="#FFFFFF" height="208.4551" style="stroke:#181818;stroke-width:1.0;" width="10" x="1302.5098" y="575.6465"/><rect fill="#FFFFFF" height="42.291" style="stroke:#181818;stroke-width:1.0;" width="10" x="1307.5098" y="614.9375"/><rect fill="#FFFFFF" height="42.291" style="stroke:#181818;stroke-width:1.0;" width="10" x="1307.5098" y="703.5195"/><polygon fill="#181818" points="370.4199,152.5332,380.4199,156.5332,370.4199,160.5332,374.4199,156.5332" style="stroke:#181818;stroke-width:1.0;"/><line style="stroke:#181818;stroke-width:1.0;" x1="32.8413" x2="376.4199" y1="156.5332" y2="156.5332"/><text fill="#000000" font-family="sans-serif" font-size="13" font-weight="bold" lengthAdjust="spacing" textLength="7.23" x="39.8413" y="151.2705">1</text><text fill="#000000" font-family="sans-serif" font-size="13" lengthAdjust="spacing" textLength="200.8716" x="51.0713" y="151.2705">Asks to specify a new vaccine type</text><polygon fill="#181818" points="43.8413,183.8242,33.8413,187.8242,43.8413,191.8242,39.8413,187.8242" style="stroke:#181818;stroke-width:1.0;"/><line style="stroke:#181818;stroke-width:1.0;stroke-dasharray:2.0,2.0;" x1="37.8413" x2="386.4199" y1="187.8242" y2="187.8242"/><text fill="#000000" font-family="sans-serif" font-size="13" font-weight="bold" lengthAdjust="spacing" textLength="7.23" x="49.8413" y="182.5615">2</text><text fill="#000000" font-family="sans-serif" font-size="13" lengthAdjust="spacing" textLength="314.3486" x="61.0713" y="182.5615">Requests data (type_code, disease, short_description)</text><polygon fill="#181818" points="370.4199,215.1152,380.4199,219.1152,370.4199,223.1152,374.4199,219.1152" style="stroke:#181818;stroke-width:1.0;"/><line style="stroke:#181818;stroke-width:1.0;" x1="32.8413" x2="376.4199" y1="219.1152" y2="219.1152"/><text fill="#000000" font-family="sans-serif" font-size="13" font-weight="bold" lengthAdjust="spacing" textLength="7.23" x="39.8413" y="213.8525">3</text><text fill="#000000" font-family="sans-serif" font-size="13" lengthAdjust="spacing" textLength="125.7471" x="51.0713" y="213.8525">Types requested data</text><polygon fill="#181818" points="881.043,246.4063,891.043,250.4063,881.043,254.4063,885.043,250.4063" style="stroke:#181818;stroke-width:1.0;"/><line style="stroke:#181818;stroke-width:1.0;" x1="392.4199" x2="887.043" y1="250.4063" y2="250.4063"/><text fill="#000000" font-family="sans-serif" font-size="13" font-weight="bold" lengthAdjust="spacing" textLength="7.23" x="399.4199" y="245.1436">4</text><text fill="#000000" font-family="sans-serif" font-size="13" lengthAdjust="spacing" textLength="470.3931" x="410.6499" y="245.1436">createNewVaccineType(string type_code, string disease, string short_description)</text><polygon fill="#181818" points="1079.52,277.6973,1089.52,281.6973,1079.52,285.6973,1083.52,281.6973" style="stroke:#181818;stroke-width:1.0;"/><line style="stroke:#181818;stroke-width:1.0;" x1="903.043" x2="1085.52" y1="281.6973" y2="281.6973"/><text fill="#000000" font-family="sans-serif" font-size="13" font-weight="bold" lengthAdjust="spacing" textLength="7.23" x="910.043" y="276.4346">5</text><text fill="#000000" font-family="sans-serif" font-size="13" lengthAdjust="spacing" textLength="158.2471" x="921.2729" y="276.4346">getVaccineTypeContainer()</text><polygon fill="#181818" points="914.043,308.9883,904.043,312.9883,914.043,316.9883,910.043,312.9883" style="stroke:#181818;stroke-width:1.0;"/><line style="stroke:#181818;stroke-width:1.0;stroke-dasharray:2.0,2.0;" x1="908.043" x2="1095.52" y1="312.9883" y2="312.9883"/><text fill="#000000" font-family="sans-serif" font-size="13" font-weight="bold" lengthAdjust="spacing" textLength="7.23" x="920.043" y="307.7256">6</text><text fill="#000000" font-family="sans-serif" font-size="13" lengthAdjust="spacing" textLength="131.5171" x="931.2729" y="307.7256">VaccineTypeContainer</text><polygon fill="#181818" points="1290.5098,340.2793,1300.5098,344.2793,1290.5098,348.2793,1294.5098,344.2793" style="stroke:#181818;stroke-width:1.0;"/><line style="stroke:#181818;stroke-width:1.0;" x1="903.043" x2="1296.5098" y1="344.2793" y2="344.2793"/><text fill="#000000" font-family="sans-serif" font-size="13" font-weight="bold" lengthAdjust="spacing" textLength="7.23" x="910.043" y="339.0166">7</text><text fill="#000000" font-family="sans-serif" font-size="13" lengthAdjust="spacing" textLength="369.2368" x="921.2729" y="339.0166">create(string type_code, string disease, string short_description)</text><polygon fill="#181818" points="1701.3647,371.5703,1711.3647,375.5703,1701.3647,379.5703,1705.3647,375.5703" style="stroke:#181818;stroke-width:1.0;"/><line style="stroke:#181818;stroke-width:1.0;stroke-dasharray:2.0,2.0;" x1="1312.5098" x2="1707.3647" y1="375.5703" y2="375.5703"/><text fill="#000000" font-family="sans-serif" font-size="13" font-weight="bold" lengthAdjust="spacing" textLength="7.23" x="1319.5098" y="370.3076">8</text><text fill="#000000" font-family="sans-serif" font-size="13" lengthAdjust="spacing" textLength="365.625" x="1330.7397" y="370.3076">create(string type_code, stringdisease, string short_description)</text><rect fill="#E2E2F0" height="32.6211" rx="2.5" ry="2.5" style="stroke:#181818;stroke-width:0.5;" width="94.9307" x="1713.3647" y="352.2793"/><text fill="#000000" font-family="sans-serif" font-size="14" lengthAdjust="spacing" textLength="80.9307" x="1720.3647" y="374.3867">VaccineType</text><polygon fill="#181818" points="914.043,415.1914,904.043,419.1914,914.043,423.1914,910.043,419.1914" style="stroke:#181818;stroke-width:1.0;"/><line style="stroke:#181818;stroke-width:1.0;stroke-dasharray:2.0,2.0;" x1="908.043" x2="1306.5098" y1="419.1914" y2="419.1914"/><text fill="#000000" font-family="sans-serif" font-size="13" font-weight="bold" lengthAdjust="spacing" textLength="7.23" x="920.043" y="413.9287">9</text><text fill="#000000" font-family="sans-serif" font-size="13" lengthAdjust="spacing" textLength="75.1499" x="931.2729" y="413.9287">VaccineType</text><polygon fill="#181818" points="403.4199,446.4824,393.4199,450.4824,403.4199,454.4824,399.4199,450.4824" style="stroke:#181818;stroke-width:1.0;"/><line style="stroke:#181818;stroke-width:1.0;stroke-dasharray:2.0,2.0;" x1="397.4199" x2="897.043" y1="450.4824" y2="450.4824"/><text fill="#000000" font-family="sans-serif" font-size="13" font-weight="bold" lengthAdjust="spacing" textLength="14.46" x="409.4199" y="445.2197">10</text><text fill="#000000" font-family="sans-serif" font-size="13" lengthAdjust="spacing" textLength="73.6963" x="427.8799" y="445.2197">Confirmation</text><polygon fill="#181818" points="43.8413,477.7734,33.8413,481.7734,43.8413,485.7734,39.8413,481.7734" style="stroke:#181818;stroke-width:1.0;"/><line style="stroke:#181818;stroke-width:1.0;stroke-dasharray:2.0,2.0;" x1="37.8413" x2="386.4199" y1="481.7734" y2="481.7734"/><text fill="#000000" font-family="sans-serif" font-size="13" font-weight="bold" lengthAdjust="spacing" textLength="14.46" x="49.8413" y="476.5107">11</text><text fill="#000000" font-family="sans-serif" font-size="13" lengthAdjust="spacing" textLength="231.2451" x="68.3013" y="476.5107">Shows all data and request confirmation</text><polygon fill="#181818" points="370.4199,509.0645,380.4199,513.0645,370.4199,517.0645,374.4199,513.0645" style="stroke:#181818;stroke-width:1.0;"/><line style="stroke:#181818;stroke-width:1.0;" x1="32.8413" x2="376.4199" y1="513.0645" y2="513.0645"/><text fill="#000000" font-family="sans-serif" font-size="13" font-weight="bold" lengthAdjust="spacing" textLength="14.46" x="39.8413" y="507.8018">12</text><text fill="#000000" font-family="sans-serif" font-size="13" lengthAdjust="spacing" textLength="102.6035" x="58.3013" y="507.8018">Confirms the data</text><polygon fill="#181818" points="881.043,540.3555,891.043,544.3555,881.043,548.3555,885.043,544.3555" style="stroke:#181818;stroke-width:1.0;"/><line style="stroke:#181818;stroke-width:1.0;" x1="392.4199" x2="887.043" y1="544.3555" y2="544.3555"/><text fill="#000000" font-family="sans-serif" font-size="13" font-weight="bold" lengthAdjust="spacing" textLength="14.46" x="399.4199" y="539.0928">13</text><text fill="#000000" font-family="sans-serif" font-size="13" lengthAdjust="spacing" textLength="183.5234" x="417.8799" y="539.0928">saveCreatedNewVaccineType()</text><polygon fill="#181818" points="1290.5098,571.6465,1300.5098,575.6465,1290.5098,579.6465,1294.5098,575.6465" style="stroke:#181818;stroke-width:1.0;"/><line style="stroke:#181818;stroke-width:1.0;" x1="903.043" x2="1296.5098" y1="575.6465" y2="575.6465"/><text fill="#000000" font-family="sans-serif" font-size="13" font-weight="bold" lengthAdjust="spacing" textLength="14.46" x="910.043" y="570.3838">14</text><text fill="#000000" font-family="sans-serif" font-size="13" lengthAdjust="spacing" textLength="132.228" x="928.5029" y="570.3838">save(VaccineType obj)</text><line style="stroke:#181818;stroke-width:1.0;" x1="1312.5098" x2="1359.5098" y1="601.9375" y2="601.9375"/><line style="stroke:#181818;stroke-width:1.0;" x1="1359.5098" x2="1359.5098" y1="601.9375" y2="614.9375"/><line style="stroke:#181818;stroke-width:1.0;" x1="1318.5098" x2="1359.5098" y1="614.9375" y2="614.9375"/><polygon fill="#181818" points="1328.5098,610.9375,1318.5098,614.9375,1328.5098,618.9375,1324.5098,614.9375" style="stroke:#181818;stroke-width:1.0;"/><text fill="#000000" font-family="sans-serif" font-size="13" font-weight="bold" lengthAdjust="spacing" textLength="14.46" x="1324.5098" y="596.6748">15</text><text fill="#000000" font-family="sans-serif" font-size="13" lengthAdjust="spacing" textLength="149.5762" x="1342.9697" y="596.6748">validate(VaccineType obj)</text><line style="stroke:#181818;stroke-width:1.0;stroke-dasharray:2.0,2.0;" x1="1317.5098" x2="1359.5098" y1="656.2285" y2="656.2285"/><line style="stroke:#181818;stroke-width:1.0;stroke-dasharray:2.0,2.0;" x1="1359.5098" x2="1359.5098" y1="656.2285" y2="669.2285"/><line style="stroke:#181818;stroke-width:1.0;stroke-dasharray:2.0,2.0;" x1="1312.5098" x2="1359.5098" y1="669.2285" y2="669.2285"/><polygon fill="#181818" points="1322.5098,665.2285,1312.5098,669.2285,1322.5098,673.2285,1318.5098,669.2285" style="stroke:#181818;stroke-width:1.0;"/><text fill="#000000" font-family="sans-serif" font-size="13" font-weight="bold" lengthAdjust="spacing" textLength="14.46" x="1324.5098" y="650.9658">16</text><text fill="#000000" font-family="sans-serif" font-size="13" lengthAdjust="spacing" textLength="88.1499" x="1342.9697" y="650.9658">Data confirmed</text><line style="stroke:#181818;stroke-width:1.0;" x1="1312.5098" x2="1359.5098" y1="690.5195" y2="690.5195"/><line style="stroke:#181818;stroke-width:1.0;" x1="1359.5098" x2="1359.5098" y1="690.5195" y2="703.5195"/><line style="stroke:#181818;stroke-width:1.0;" x1="1318.5098" x2="1359.5098" y1="703.5195" y2="703.5195"/><polygon fill="#181818" points="1328.5098,699.5195,1318.5098,703.5195,1328.5098,707.5195,1324.5098,703.5195" style="stroke:#181818;stroke-width:1.0;"/><text fill="#000000" font-family="sans-serif" font-size="13" font-weight="bold" lengthAdjust="spacing" textLength="14.46" x="1324.5098" y="685.2568">17</text><text fill="#000000" font-family="sans-serif" font-size="13" lengthAdjust="spacing" textLength="132.228" x="1342.9697" y="685.2568">save(VaccineType obj)</text><line style="stroke:#181818;stroke-width:1.0;stroke-dasharray:2.0,2.0;" x1="1317.5098" x2="1359.5098" y1="744.8105" y2="744.8105"/><line style="stroke:#181818;stroke-width:1.0;stroke-dasharray:2.0,2.0;" x1="1359.5098" x2="1359.5098" y1="744.8105" y2="757.8105"/><line style="stroke:#181818;stroke-width:1.0;stroke-dasharray:2.0,2.0;" x1="1312.5098" x2="1359.5098" y1="757.8105" y2="757.8105"/><polygon fill="#181818" points="1322.5098,753.8105,1312.5098,757.8105,1322.5098,761.8105,1318.5098,757.8105" style="stroke:#181818;stroke-width:1.0;"/><text fill="#000000" font-family="sans-serif" font-size="13" font-weight="bold" lengthAdjust="spacing" textLength="14.46" x="1324.5098" y="739.5479">18</text><text fill="#000000" font-family="sans-serif" font-size="13" lengthAdjust="spacing" textLength="88.1499" x="1342.9697" y="739.5479">Data confirmed</text><polygon fill="#181818" points="914.043,780.1016,904.043,784.1016,914.043,788.1016,910.043,784.1016" style="stroke:#181818;stroke-width:1.0;"/><line style="stroke:#181818;stroke-width:1.0;stroke-dasharray:2.0,2.0;" x1="908.043" x2="1306.5098" y1="784.1016" y2="784.1016"/><text fill="#000000" font-family="sans-serif" font-size="13" font-weight="bold" lengthAdjust="spacing" textLength="14.46" x="920.043" y="778.8389">19</text><text fill="#000000" font-family="sans-serif" font-size="13" lengthAdjust="spacing" textLength="88.1499" x="938.5029" y="778.8389">Data confirmed</text><polygon fill="#181818" points="403.4199,811.3926,393.4199,815.3926,403.4199,819.3926,399.4199,815.3926" style="stroke:#181818;stroke-width:1.0;"/><line style="stroke:#181818;stroke-width:1.0;stroke-dasharray:2.0,2.0;" x1="397.4199" x2="897.043" y1="815.3926" y2="815.3926"/><text fill="#000000" font-family="sans-serif" font-size="13" font-weight="bold" lengthAdjust="spacing" textLength="14.46" x="409.4199" y="810.1299">20</text><text fill="#000000" font-family="sans-serif" font-size="13" lengthAdjust="spacing" textLength="88.1499" x="427.8799" y="810.1299">Data confirmed</text><polygon fill="#181818" points="43.8413,842.6836,33.8413,846.6836,43.8413,850.6836,39.8413,846.6836" style="stroke:#181818;stroke-width:1.0;"/><line style="stroke:#181818;stroke-width:1.0;stroke-dasharray:2.0,2.0;" x1="37.8413" x2="386.4199" y1="846.6836" y2="846.6836"/><text fill="#000000" font-family="sans-serif" font-size="13" font-weight="bold" lengthAdjust="spacing" textLength="14.46" x="49.8413" y="841.4209">21</text><text fill="#000000" font-family="sans-serif" font-size="13" lengthAdjust="spacing" textLength="145.2344" x="68.3013" y="841.4209">Informs operation sucess</text><!--SRC=[fLFBJiCm4BpdArOzbOh-G0v8LNlXme4YhcYnjwqXjOszJSNVurVR98INo2LsF3ExC-kmuePWRKcepJlSqH4UKGYb2HxUBS4SrlHs82q8LWgt3lTLXGSsA5Yro0H6fxq-x9_9XJF1ni5a8VTAJm0zO5nL5XqheIngXaczT1IeeLOf5IizAZecGXiMly0lZMPdcePSOWbspO2ri3PtO6t_H0Gg1XbN3_JInontslMP7No2TVR9UeuaMwxI2-OtoL4D2__gWGtu4ZM23c6t9MoE4X48yy18r1hkO_IUFKXaX6d4F0aZwHgayeG-BFpEE7wIv8LJbfNHLyEwiJaFBakHJ5gbqasAhGOnak_KirDw2vsYvSkbTjwFj515tQWVigzXIpmMz3IqQctocziO0vsLBaChxVwhmRDQAjyfF9lzgFzd-K_kYgdpY8BRZN9xZEHFbs2zCyTmYPictmBKyZJCcCc5DnXxqGnNRaTZC_VOKlwlv63mLsEPH_YqWmBp_DBpsKEts2WPC_oEqQUiehbYYEINoZ_syLlLSn13I7yqWzFXS6xrniIGZIMNnW3-8CZxAZmV]--></g></svg>