<svg xmlns="http://www.w3.org/2000/svg" xmlns:xlink="http://www.w3.org/1999/xlink" contentStyleType="text/css" height="775px" preserveAspectRatio="none" style="width:1840px;height:775px;background:#FFFFFF;" version="1.1" viewBox="0 0 1840 775" width="1840px" zoomAndPan="magnify"><defs/><g><rect fill="#FFFFFF" height="590.2383" style="stroke:#181818;stroke-width:1.0;" width="10" x="21.6724" y="93.6211"/><rect fill="#FFFFFF" height="31.291" style="stroke:#181818;stroke-width:1.0;" width="10" x="363.2192" y="116.9121"/><rect fill="#FFFFFF" height="495.3652" style="stroke:#181818;stroke-width:1.0;" width="10" x="363.2192" y="179.4941"/><rect fill="#FFFFFF" height="432.7832" style="stroke:#181818;stroke-width:1.0;" width="10" x="686.6816" y="210.7852"/><rect fill="#FFFFFF" height="31.291" style="stroke:#181818;stroke-width:1.0;" width="10" x="911.1587" y="242.0762"/><rect fill="#FFFFFF" height="379.2012" style="stroke:#181818;stroke-width:1.0;" width="10" x="1036.3203" y="304.6582"/><rect fill="#FFFFFF" height="36.291" style="stroke:#181818;stroke-width:1.0;" width="10" x="1041.3203" y="406.5313"/><rect fill="#FFFFFF" height="36.291" style="stroke:#181818;stroke-width:1.0;" width="10" x="1041.3203" y="575.9863"/><rect fill="#FFFFFF" height="31.291" style="stroke:#181818;stroke-width:1.0;" width="10" x="1355.3691" y="335.9492"/><rect fill="#FFFFFF" height="31.291" style="stroke:#181818;stroke-width:1.0;" width="10" x="1555.9961" y="505.4043"/><rect fill="#FFFFFF" height="31.291" style="stroke:#181818;stroke-width:1.0;" width="10" x="1749.6367" y="442.8223"/><line style="stroke:#181818;stroke-width:0.5;stroke-dasharray:5.0,5.0;" x1="26" x2="26" y1="83.6211" y2="692.8594"/><line style="stroke:#181818;stroke-width:0.5;stroke-dasharray:5.0,5.0;" x1="367.3472" x2="367.3472" y1="83.6211" y2="692.8594"/><line style="stroke:#181818;stroke-width:0.5;stroke-dasharray:5.0,5.0;" x1="691.6372" x2="691.6372" y1="83.6211" y2="692.8594"/><line style="stroke:#181818;stroke-width:0.5;stroke-dasharray:5.0,5.0;" x1="915.7588" x2="915.7588" y1="83.6211" y2="692.8594"/><line style="stroke:#181818;stroke-width:0.5;stroke-dasharray:5.0,5.0;" x1="1040.5586" x2="1040.5586" y1="83.6211" y2="692.8594"/><line style="stroke:#181818;stroke-width:0.5;stroke-dasharray:5.0,5.0;" x1="1359.6211" x2="1359.6211" y1="83.6211" y2="692.8594"/><line style="stroke:#181818;stroke-width:0.5;stroke-dasharray:5.0,5.0;" x1="1560.1172" x2="1560.1172" y1="83.6211" y2="692.8594"/><line style="stroke:#181818;stroke-width:0.5;stroke-dasharray:5.0,5.0;" x1="1753.875" x2="1753.875" y1="83.6211" y2="692.8594"/><text fill="#000000" font-family="sans-serif" font-size="14" lengthAdjust="spacing" textLength="37.3447" x="5" y="80.1074">Nurse</text><ellipse cx="26.6724" cy="13.5" fill="#E2E2F0" rx="8" ry="8" style="stroke:#181818;stroke-width:0.5;"/><path d="M26.6724,21.5 L26.6724,48.5 M13.6724,29.5 L39.6724,29.5 M26.6724,48.5 L13.6724,63.5 M26.6724,48.5 L39.6724,63.5 " fill="none" style="stroke:#181818;stroke-width:0.5;"/><text fill="#000000" font-family="sans-serif" font-size="14" lengthAdjust="spacing" textLength="37.3447" x="5" y="706.9668">Nurse</text><ellipse cx="26.6724" cy="718.9805" fill="#E2E2F0" rx="8" ry="8" style="stroke:#181818;stroke-width:0.5;"/><path d="M26.6724,726.9805 L26.6724,753.9805 M13.6724,734.9805 L39.6724,734.9805 M26.6724,753.9805 L13.6724,768.9805 M26.6724,753.9805 L39.6724,768.9805 " fill="none" style="stroke:#181818;stroke-width:0.5;"/><rect fill="#E2E2F0" height="32.6211" rx="2.5" ry="2.5" style="stroke:#181818;stroke-width:0.5;" width="165.7441" x="285.3472" y="50"/><text fill="#000000" font-family="sans-serif" font-size="14" lengthAdjust="spacing" textLength="151.7441" x="292.3472" y="72.1074">:RecordVaccinationView</text><rect fill="#E2E2F0" height="32.6211" rx="2.5" ry="2.5" style="stroke:#181818;stroke-width:0.5;" width="165.7441" x="285.3472" y="691.8594"/><text fill="#000000" font-family="sans-serif" font-size="14" lengthAdjust="spacing" textLength="151.7441" x="292.3472" y="713.9668">:RecordVaccinationView</text><rect fill="#E2E2F0" height="32.6211" rx="2.5" ry="2.5" style="stroke:#181818;stroke-width:0.5;" width="196.0889" x="593.6372" y="50"/><text fill="#000000" font-family="sans-serif" font-size="14" lengthAdjust="spacing" textLength="182.0889" x="600.6372" y="72.1074">:RecordVaccinationController</text><rect fill="#E2E2F0" height="32.6211" rx="2.5" ry="2.5" style="stroke:#181818;stroke-width:0.5;" width="196.0889" x="593.6372" y="691.8594"/><text fill="#000000" font-family="sans-serif" font-size="14" lengthAdjust="spacing" textLength="182.0889" x="600.6372" y="713.9668">:RecordVaccinationController</text><rect fill="#E2E2F0" height="32.6211" rx="2.5" ry="2.5" style="stroke:#181818;stroke-width:0.5;" width="42.7998" x="894.7588" y="50"/><text fill="#000000" font-family="sans-serif" font-size="14" lengthAdjust="spacing" textLength="28.7998" x="901.7588" y="72.1074">:App</text><rect fill="#E2E2F0" height="32.6211" rx="2.5" ry="2.5" style="stroke:#181818;stroke-width:0.5;" width="42.7998" x="894.7588" y="691.8594"/><text fill="#000000" font-family="sans-serif" font-size="14" lengthAdjust="spacing" textLength="28.7998" x="901.7588" y="713.9668">:App</text><rect fill="#E2E2F0" height="32.6211" rx="2.5" ry="2.5" style="stroke:#181818;stroke-width:0.5;" width="187.5234" x="947.5586" y="50"/><text fill="#000000" font-family="sans-serif" font-size="14" lengthAdjust="spacing" textLength="173.5234" x="954.5586" y="72.1074">:VaccinationProcessService</text><rect fill="#E2E2F0" height="32.6211" rx="2.5" ry="2.5" style="stroke:#181818;stroke-width:0.5;" width="187.5234" x="947.5586" y="691.8594"/><text fill="#000000" font-family="sans-serif" font-size="14" lengthAdjust="spacing" textLength="173.5234" x="954.5586" y="713.9668">:VaccinationProcessService</text><rect fill="#E2E2F0" height="32.6211" rx="2.5" ry="2.5" style="stroke:#181818;stroke-width:0.5;" width="173.4961" x="1273.6211" y="50"/><text fill="#000000" font-family="sans-serif" font-size="14" lengthAdjust="spacing" textLength="159.4961" x="1280.6211" y="72.1074">factory:RepositoryFactory</text><rect fill="#E2E2F0" height="32.6211" rx="2.5" ry="2.5" style="stroke:#181818;stroke-width:0.5;" width="173.4961" x="1273.6211" y="691.8594"/><text fill="#000000" font-family="sans-serif" font-size="14" lengthAdjust="spacing" textLength="159.4961" x="1280.6211" y="713.9668">factory:RepositoryFactory</text><rect fill="#E2E2F0" height="32.6211" rx="2.5" ry="2.5" style="stroke:#181818;stroke-width:0.5;" width="207.7578" x="1457.1172" y="50"/><text fill="#000000" font-family="sans-serif" font-size="14" lengthAdjust="spacing" textLength="193.7578" x="1464.1172" y="72.1074">:VaccinationProcessRepository</text><rect fill="#E2E2F0" height="32.6211" rx="2.5" ry="2.5" style="stroke:#181818;stroke-width:0.5;" width="207.7578" x="1457.1172" y="691.8594"/><text fill="#000000" font-family="sans-serif" font-size="14" lengthAdjust="spacing" textLength="193.7578" x="1464.1172" y="713.9668">:VaccinationProcessRepository</text><rect fill="#E2E2F0" height="32.6211" rx="2.5" ry="2.5" style="stroke:#181818;stroke-width:0.5;" width="159.5234" x="1674.875" y="50"/><text fill="#000000" font-family="sans-serif" font-size="14" lengthAdjust="spacing" textLength="145.5234" x="1681.875" y="72.1074">obj:VaccinationProcess</text><rect fill="#E2E2F0" height="32.6211" rx="2.5" ry="2.5" style="stroke:#181818;stroke-width:0.5;" width="159.5234" x="1674.875" y="691.8594"/><text fill="#000000" font-family="sans-serif" font-size="14" lengthAdjust="spacing" textLength="145.5234" x="1681.875" y="713.9668">obj:VaccinationProcess</text><rect fill="#FFFFFF" height="590.2383" style="stroke:#181818;stroke-width:1.0;" width="10" x="21.6724" y="93.6211"/><rect fill="#FFFFFF" height="31.291" style="stroke:#181818;stroke-width:1.0;" width="10" x="363.2192" y="116.9121"/><rect fill="#FFFFFF" height="495.3652" style="stroke:#181818;stroke-width:1.0;" width="10" x="363.2192" y="179.4941"/><rect fill="#FFFFFF" height="432.7832" style="stroke:#181818;stroke-width:1.0;" width="10" x="686.6816" y="210.7852"/><rect fill="#FFFFFF" height="31.291" style="stroke:#181818;stroke-width:1.0;" width="10" x="911.1587" y="242.0762"/><rect fill="#FFFFFF" height="379.2012" style="stroke:#181818;stroke-width:1.0;" width="10" x="1036.3203" y="304.6582"/><rect fill="#FFFFFF" height="36.291" style="stroke:#181818;stroke-width:1.0;" width="10" x="1041.3203" y="406.5313"/><rect fill="#FFFFFF" height="36.291" style="stroke:#181818;stroke-width:1.0;" width="10" x="1041.3203" y="575.9863"/><rect fill="#FFFFFF" height="31.291" style="stroke:#181818;stroke-width:1.0;" width="10" x="1355.3691" y="335.9492"/><rect fill="#FFFFFF" height="31.291" style="stroke:#181818;stroke-width:1.0;" width="10" x="1555.9961" y="505.4043"/><rect fill="#FFFFFF" height="31.291" style="stroke:#181818;stroke-width:1.0;" width="10" x="1749.6367" y="442.8223"/><polygon fill="#181818" points="351.2192,112.9121,361.2192,116.9121,351.2192,120.9121,355.2192,116.9121" style="stroke:#181818;stroke-width:1.0;"/><line style="stroke:#181818;stroke-width:1.0;" x1="31.6724" x2="357.2192" y1="116.9121" y2="116.9121"/><text fill="#000000" font-family="sans-serif" font-size="13" font-weight="bold" lengthAdjust="spacing" textLength="7.23" x="38.6724" y="111.6494">1</text><text fill="#000000" font-family="sans-serif" font-size="13" lengthAdjust="spacing" textLength="184.2661" x="49.9023" y="111.6494">requests to record a vaccination</text><polygon fill="#181818" points="42.6724,144.2031,32.6724,148.2031,42.6724,152.2031,38.6724,148.2031" style="stroke:#181818;stroke-width:1.0;"/><line style="stroke:#181818;stroke-width:1.0;stroke-dasharray:2.0,2.0;" x1="36.6724" x2="367.2192" y1="148.2031" y2="148.2031"/><text fill="#000000" font-family="sans-serif" font-size="13" font-weight="bold" lengthAdjust="spacing" textLength="7.23" x="48.6724" y="142.9404">2</text><text fill="#000000" font-family="sans-serif" font-size="13" lengthAdjust="spacing" textLength="125.0107" x="59.9023" y="142.9404">asks for the user data</text><polygon fill="#181818" points="351.2192,175.4941,361.2192,179.4941,351.2192,183.4941,355.2192,179.4941" style="stroke:#181818;stroke-width:1.0;"/><line style="stroke:#181818;stroke-width:1.0;" x1="31.6724" x2="357.2192" y1="179.4941" y2="179.4941"/><text fill="#000000" font-family="sans-serif" font-size="13" font-weight="bold" lengthAdjust="spacing" textLength="7.23" x="38.6724" y="174.2314">3</text><text fill="#000000" font-family="sans-serif" font-size="13" lengthAdjust="spacing" textLength="301.3169" x="49.9023" y="174.2314">provide SNS user number, vaccine code, lot number</text><polygon fill="#181818" points="674.6816,206.7852,684.6816,210.7852,674.6816,214.7852,678.6816,210.7852" style="stroke:#181818;stroke-width:1.0;"/><line style="stroke:#181818;stroke-width:1.0;" x1="373.2192" x2="680.6816" y1="210.7852" y2="210.7852"/><text fill="#000000" font-family="sans-serif" font-size="13" font-weight="bold" lengthAdjust="spacing" textLength="7.23" x="380.2192" y="205.5225">4</text><text fill="#000000" font-family="sans-serif" font-size="13" lengthAdjust="spacing" textLength="283.2324" x="391.4492" y="205.5225">recordVaccination(dto : VaccinationProcessDTO)</text><polygon fill="#181818" points="899.1587,238.0762,909.1587,242.0762,899.1587,246.0762,903.1587,242.0762" style="stroke:#181818;stroke-width:1.0;"/><line style="stroke:#181818;stroke-width:1.0;" x1="696.6816" x2="905.1587" y1="242.0762" y2="242.0762"/><text fill="#000000" font-family="sans-serif" font-size="13" font-weight="bold" lengthAdjust="spacing" textLength="7.23" x="703.6816" y="236.8135">5</text><text fill="#000000" font-family="sans-serif" font-size="13" lengthAdjust="spacing" textLength="184.2471" x="714.9116" y="236.8135">getVaccinationProcessService()</text><polygon fill="#181818" points="707.6816,269.3672,697.6816,273.3672,707.6816,277.3672,703.6816,273.3672" style="stroke:#181818;stroke-width:1.0;"/><line style="stroke:#181818;stroke-width:1.0;stroke-dasharray:2.0,2.0;" x1="701.6816" x2="915.1587" y1="273.3672" y2="273.3672"/><text fill="#000000" font-family="sans-serif" font-size="13" font-weight="bold" lengthAdjust="spacing" textLength="7.23" x="713.6816" y="268.1045">6</text><text fill="#000000" font-family="sans-serif" font-size="13" lengthAdjust="spacing" textLength="43.3481" x="724.9116" y="268.1045">Service</text><polygon fill="#181818" points="1024.3203,300.6582,1034.3203,304.6582,1024.3203,308.6582,1028.3203,304.6582" style="stroke:#181818;stroke-width:1.0;"/><line style="stroke:#181818;stroke-width:1.0;" x1="696.6816" x2="1030.3203" y1="304.6582" y2="304.6582"/><text fill="#000000" font-family="sans-serif" font-size="13" font-weight="bold" lengthAdjust="spacing" textLength="7.23" x="703.6816" y="299.3955">7</text><text fill="#000000" font-family="sans-serif" font-size="13" lengthAdjust="spacing" textLength="70.0781" x="714.9116" y="299.3955">register(dto)</text><polygon fill="#181818" points="1343.3691,331.9492,1353.3691,335.9492,1343.3691,339.9492,1347.3691,335.9492" style="stroke:#181818;stroke-width:1.0;"/><line style="stroke:#181818;stroke-width:1.0;" x1="1046.3203" x2="1349.3691" y1="335.9492" y2="335.9492"/><text fill="#000000" font-family="sans-serif" font-size="13" font-weight="bold" lengthAdjust="spacing" textLength="7.23" x="1053.3203" y="330.6865">8</text><text fill="#000000" font-family="sans-serif" font-size="13" lengthAdjust="spacing" textLength="203.0361" x="1064.5503" y="330.6865">getVaccinationProcessRepository()</text><polygon fill="#181818" points="1057.3203,363.2402,1047.3203,367.2402,1057.3203,371.2402,1053.3203,367.2402" style="stroke:#181818;stroke-width:1.0;"/><line style="stroke:#181818;stroke-width:1.0;stroke-dasharray:2.0,2.0;" x1="1051.3203" x2="1359.3691" y1="367.2402" y2="367.2402"/><text fill="#000000" font-family="sans-serif" font-size="13" font-weight="bold" lengthAdjust="spacing" textLength="7.23" x="1063.3203" y="361.9775">9</text><text fill="#000000" font-family="sans-serif" font-size="13" lengthAdjust="spacing" textLength="31.0781" x="1074.5503" y="361.9775">Repo</text><line style="stroke:#181818;stroke-width:1.0;" x1="1046.3203" x2="1093.3203" y1="393.5313" y2="393.5313"/><line style="stroke:#181818;stroke-width:1.0;" x1="1093.3203" x2="1093.3203" y1="393.5313" y2="406.5313"/><line style="stroke:#181818;stroke-width:1.0;" x1="1052.3203" x2="1093.3203" y1="406.5313" y2="406.5313"/><polygon fill="#181818" points="1062.3203,402.5313,1052.3203,406.5313,1062.3203,410.5313,1058.3203,406.5313" style="stroke:#181818;stroke-width:1.0;"/><text fill="#000000" font-family="sans-serif" font-size="13" font-weight="bold" lengthAdjust="spacing" textLength="14.46" x="1058.3203" y="388.2686">10</text><text fill="#000000" font-family="sans-serif" font-size="13" lengthAdjust="spacing" textLength="177.0298" x="1076.7803" y="388.2686">createVaccinationProcess(dto)</text><polygon fill="#181818" points="1737.6367,438.8223,1747.6367,442.8223,1737.6367,446.8223,1741.6367,442.8223" style="stroke:#181818;stroke-width:1.0;"/><line style="stroke:#181818;stroke-width:1.0;stroke-dasharray:2.0,2.0;" x1="1046.3203" x2="1743.6367" y1="442.8223" y2="442.8223"/><text fill="#000000" font-family="sans-serif" font-size="13" font-weight="bold" lengthAdjust="spacing" textLength="14.46" x="1053.3203" y="437.5596">11</text><text fill="#000000" font-family="sans-serif" font-size="13" lengthAdjust="spacing" textLength="62.8608" x="1071.7803" y="437.5596">create(dto)</text><polygon fill="#181818" points="1057.3203,470.1133,1047.3203,474.1133,1057.3203,478.1133,1053.3203,474.1133" style="stroke:#181818;stroke-width:1.0;"/><line style="stroke:#181818;stroke-width:1.0;stroke-dasharray:2.0,2.0;" x1="1051.3203" x2="1753.6367" y1="474.1133" y2="474.1133"/><text fill="#000000" font-family="sans-serif" font-size="13" font-weight="bold" lengthAdjust="spacing" textLength="14.46" x="1063.3203" y="468.8506">12</text><text fill="#000000" font-family="sans-serif" font-size="13" lengthAdjust="spacing" textLength="114.1689" x="1081.7803" y="468.8506">VaccinationProcess</text><polygon fill="#181818" points="1543.9961,501.4043,1553.9961,505.4043,1543.9961,509.4043,1547.9961,505.4043" style="stroke:#181818;stroke-width:1.0;"/><line style="stroke:#181818;stroke-width:1.0;" x1="1046.3203" x2="1549.9961" y1="505.4043" y2="505.4043"/><text fill="#000000" font-family="sans-serif" font-size="13" font-weight="bold" lengthAdjust="spacing" textLength="14.46" x="1053.3203" y="500.1416">13</text><text fill="#000000" font-family="sans-serif" font-size="13" lengthAdjust="spacing" textLength="150.2871" x="1071.7803" y="500.1416">save(VaccinationProcess)</text><polygon fill="#181818" points="1057.3203,532.6953,1047.3203,536.6953,1057.3203,540.6953,1053.3203,536.6953" style="stroke:#181818;stroke-width:1.0;"/><line style="stroke:#181818;stroke-width:1.0;stroke-dasharray:2.0,2.0;" x1="1051.3203" x2="1559.9961" y1="536.6953" y2="536.6953"/><text fill="#000000" font-family="sans-serif" font-size="13" font-weight="bold" lengthAdjust="spacing" textLength="14.46" x="1063.3203" y="531.4326">14</text><text fill="#000000" font-family="sans-serif" font-size="13" lengthAdjust="spacing" textLength="36.8481" x="1081.7803" y="531.4326">Result</text><line style="stroke:#181818;stroke-width:1.0;" x1="1046.3203" x2="1093.3203" y1="562.9863" y2="562.9863"/><line style="stroke:#181818;stroke-width:1.0;" x1="1093.3203" x2="1093.3203" y1="562.9863" y2="575.9863"/><line style="stroke:#181818;stroke-width:1.0;" x1="1052.3203" x2="1093.3203" y1="575.9863" y2="575.9863"/><polygon fill="#181818" points="1062.3203,571.9863,1052.3203,575.9863,1062.3203,579.9863,1058.3203,575.9863" style="stroke:#181818;stroke-width:1.0;"/><text fill="#000000" font-family="sans-serif" font-size="13" font-weight="bold" lengthAdjust="spacing" textLength="14.46" x="1058.3203" y="557.7236">15</text><text fill="#000000" font-family="sans-serif" font-size="13" lengthAdjust="spacing" textLength="266.5889" x="1076.7803" y="557.7236">assignToRecoveryRoom(dto.snsUserNumber)</text><polygon fill="#181818" points="707.6816,608.2773,697.6816,612.2773,707.6816,616.2773,703.6816,612.2773" style="stroke:#181818;stroke-width:1.0;"/><line style="stroke:#181818;stroke-width:1.0;stroke-dasharray:2.0,2.0;" x1="701.6816" x2="1035.3203" y1="612.2773" y2="612.2773"/><text fill="#000000" font-family="sans-serif" font-size="13" font-weight="bold" lengthAdjust="spacing" textLength="14.46" x="713.6816" y="607.0146">16</text><text fill="#000000" font-family="sans-serif" font-size="13" lengthAdjust="spacing" textLength="92.4663" x="732.1416" y="607.0146">Result(success)</text><polygon fill="#181818" points="384.2192,639.5684,374.2192,643.5684,384.2192,647.5684,380.2192,643.5684" style="stroke:#181818;stroke-width:1.0;"/><line style="stroke:#181818;stroke-width:1.0;stroke-dasharray:2.0,2.0;" x1="378.2192" x2="690.6816" y1="643.5684" y2="643.5684"/><text fill="#000000" font-family="sans-serif" font-size="13" font-weight="bold" lengthAdjust="spacing" textLength="14.46" x="390.2192" y="638.3057">17</text><text fill="#000000" font-family="sans-serif" font-size="13" lengthAdjust="spacing" textLength="92.4663" x="408.6792" y="638.3057">Result(success)</text><polygon fill="#181818" points="42.6724,670.8594,32.6724,674.8594,42.6724,678.8594,38.6724,674.8594" style="stroke:#181818;stroke-width:1.0;"/><line style="stroke:#181818;stroke-width:1.0;stroke-dasharray:2.0,2.0;" x1="36.6724" x2="367.2192" y1="674.8594" y2="674.8594"/><text fill="#000000" font-family="sans-serif" font-size="13" font-weight="bold" lengthAdjust="spacing" textLength="14.46" x="48.6724" y="669.5967">18</text><text fill="#000000" font-family="sans-serif" font-size="13" lengthAdjust="spacing" textLength="161.1099" x="67.1323" y="669.5967">informs registration success</text><!--SRC=[XLJ1Rjim3BthAuXScW3DW08z-L2WQB5ZDiHjxwhCUDfYoHDb3_lxIfHYExQBdanJxprIVBHleCI_7Hg5yAnbxMG39-lWjRo_WpqSKLbNGI-LqWP1LeqschoJNbiZPEUjL5xtqYFaTzCrx-Y42FaWipbqZd03ae0ZqKhdjTAjD1usHP9_OtMMVDFuZz4n-0hyP8rtzdn6nvJnTKPyR5i6XEViP2Bsqrc5H2MwNglKSOwlEIU-sF_GJMj9n_1xoZ0bnr-M6TbCYw_N7Fl-UuMMHhD8yxIJ2sdAWX-mV-0v5k2YnUG9l0qnMogpgSd928Dzm3En26N-4E-1_uNG4Jgef9TpsTRPNbS8vQ5Ce6J-xR0lobPu2sVhuR8MgT33nAmYTpIvrhOAVHOh5tr- -R4J8pKA1LCBgD5_QkLs9mA6BpSjUZ7tMYrdOqzrs7DqiPMT43aV8TdYJugEneQw6Sgr1sNsUYeud2Y7mSAbPkfXOCJnBp0NTi8Ewx2oAylKTNyhb4cpiVi2IFQuNG9t8XxFhqlTsGjn0uz4kZRZikHTx35Co5dRW3o5WKTjRUhL0KbMUB77J3i6LhpmDpBq6YGFl6HJksQcfsQsrAdKxjJyOQldeFcteKtuC1hAAv9-XP3HuWC0]--></g></svg>