<svg xmlns="http://www.w3.org/2000/svg" xmlns:xlink="http://www.w3.org/1999/xlink" contentStyleType="text/css" height="570px" preserveAspectRatio="none" style="width:431px;height:570px;background:#FFFFFF;" version="1.1" viewBox="0 0 431 570" width="431px" zoomAndPan="magnify"><title>Register vaccine administration - System Sequence Diagram</title><defs/><g><text fill="#000000" font-family="sans-serif" font-size="14" font-weight="bold" lengthAdjust="spacing" textLength="403.8125" x="10" y="30.1074">Register vaccine administration - System Sequence Diagram</text><rect fill="#FFFFFF" height="345.2012" style="stroke:#181818;stroke-width:1.0;" width="10" x="61.699" y="133.2422"/><rect fill="#FFFFFF" height="31.291" style="stroke:#181818;stroke-width:1.0;" width="10" x="342.5032" y="156.5332"/><rect fill="#FFFFFF" height="31.291" style="stroke:#181818;stroke-width:1.0;" width="10" x="342.5032" y="219.1152"/><rect fill="#FFFFFF" height="31.291" style="stroke:#181818;stroke-width:1.0;" width="10" x="342.5032" y="281.6973"/><rect fill="#FFFFFF" height="31.291" style="stroke:#181818;stroke-width:1.0;" width="10" x="342.5032" y="344.2793"/><rect fill="#FFFFFF" height="31.291" style="stroke:#181818;stroke-width:1.0;" width="10" x="342.5032" y="406.8613"/><line style="stroke:#181818;stroke-width:0.5;stroke-dasharray:5.0,5.0;" x1="66.0266" x2="66.0266" y1="123.2422" y2="487.4434"/><line style="stroke:#181818;stroke-width:0.5;stroke-dasharray:5.0,5.0;" x1="347.2205" x2="347.2205" y1="123.2422" y2="487.4434"/><text fill="#000000" font-family="sans-serif" font-size="14" lengthAdjust="spacing" textLength="37.3447" x="45.0266" y="119.7285">Nurse</text><ellipse cx="66.699" cy="53.1211" fill="#E2E2F0" rx="8" ry="8" style="stroke:#181818;stroke-width:0.5;"/><path d="M66.699,61.1211 L66.699,88.1211 M53.699,69.1211 L79.699,69.1211 M66.699,88.1211 L53.699,103.1211 M66.699,88.1211 L79.699,103.1211 " fill="none" style="stroke:#181818;stroke-width:0.5;"/><text fill="#000000" font-family="sans-serif" font-size="14" lengthAdjust="spacing" textLength="37.3447" x="45.0266" y="501.5508">Nurse</text><ellipse cx="66.699" cy="513.5645" fill="#E2E2F0" rx="8" ry="8" style="stroke:#181818;stroke-width:0.5;"/><path d="M66.699,521.5645 L66.699,548.5645 M53.699,529.5645 L79.699,529.5645 M66.699,548.5645 L53.699,563.5645 M66.699,548.5645 L79.699,563.5645 " fill="none" style="stroke:#181818;stroke-width:0.5;"/><rect fill="#E2E2F0" height="32.6211" rx="2.5" ry="2.5" style="stroke:#181818;stroke-width:0.5;" width="64.5654" x="315.2205" y="89.6211"/><text fill="#000000" font-family="sans-serif" font-size="14" lengthAdjust="spacing" textLength="50.5654" x="322.2205" y="111.7285">:System</text><rect fill="#E2E2F0" height="32.6211" rx="2.5" ry="2.5" style="stroke:#181818;stroke-width:0.5;" width="64.5654" x="315.2205" y="486.4434"/><text fill="#000000" font-family="sans-serif" font-size="14" lengthAdjust="spacing" textLength="50.5654" x="322.2205" y="508.5508">:System</text><rect fill="#FFFFFF" height="345.2012" style="stroke:#181818;stroke-width:1.0;" width="10" x="61.699" y="133.2422"/><rect fill="#FFFFFF" height="31.291" style="stroke:#181818;stroke-width:1.0;" width="10" x="342.5032" y="156.5332"/><rect fill="#FFFFFF" height="31.291" style="stroke:#181818;stroke-width:1.0;" width="10" x="342.5032" y="219.1152"/><rect fill="#FFFFFF" height="31.291" style="stroke:#181818;stroke-width:1.0;" width="10" x="342.5032" y="281.6973"/><rect fill="#FFFFFF" height="31.291" style="stroke:#181818;stroke-width:1.0;" width="10" x="342.5032" y="344.2793"/><rect fill="#FFFFFF" height="31.291" style="stroke:#181818;stroke-width:1.0;" width="10" x="342.5032" y="406.8613"/><polygon fill="#181818" points="330.5032,152.5332,340.5032,156.5332,330.5032,160.5332,334.5032,156.5332" style="stroke:#181818;stroke-width:1.0;"/><line style="stroke:#181818;stroke-width:1.0;" x1="71.699" x2="336.5032" y1="156.5332" y2="156.5332"/><text fill="#000000" font-family="sans-serif" font-size="13" font-weight="bold" lengthAdjust="spacing" textLength="7.23" x="78.699" y="151.2705">1</text><text fill="#000000" font-family="sans-serif" font-size="13" lengthAdjust="spacing" textLength="213.1479" x="89.929" y="151.2705">selects record vaccine administration</text><polygon fill="#181818" points="82.699,183.8242,72.699,187.8242,82.699,191.8242,78.699,187.8242" style="stroke:#181818;stroke-width:1.0;"/><line style="stroke:#181818;stroke-width:1.0;stroke-dasharray:2.0,2.0;" x1="76.699" x2="346.5032" y1="187.8242" y2="187.8242"/><text fill="#000000" font-family="sans-serif" font-size="13" font-weight="bold" lengthAdjust="spacing" textLength="7.23" x="88.699" y="182.5615">2</text><text fill="#000000" font-family="sans-serif" font-size="13" lengthAdjust="spacing" textLength="194.3652" x="99.929" y="182.5615">requests data (SNS user number)</text><polygon fill="#181818" points="330.5032,215.1152,340.5032,219.1152,330.5032,223.1152,334.5032,219.1152" style="stroke:#181818;stroke-width:1.0;"/><line style="stroke:#181818;stroke-width:1.0;" x1="71.699" x2="336.5032" y1="219.1152" y2="219.1152"/><text fill="#000000" font-family="sans-serif" font-size="13" font-weight="bold" lengthAdjust="spacing" textLength="7.23" x="78.699" y="213.8525">3</text><text fill="#000000" font-family="sans-serif" font-size="13" lengthAdjust="spacing" textLength="138.0044" x="89.929" y="213.8525">types SNS user number</text><polygon fill="#181818" points="82.699,246.4063,72.699,250.4063,82.699,254.4063,78.699,250.4063" style="stroke:#181818;stroke-width:1.0;"/><line style="stroke:#181818;stroke-width:1.0;stroke-dasharray:2.0,2.0;" x1="76.699" x2="346.5032" y1="250.4063" y2="250.4063"/><text fill="#000000" font-family="sans-serif" font-size="13" font-weight="bold" lengthAdjust="spacing" textLength="7.23" x="88.699" y="245.1436">4</text><text fill="#000000" font-family="sans-serif" font-size="13" lengthAdjust="spacing" textLength="166.9243" x="99.929" y="245.1436">requests data (vaccine code)</text><polygon fill="#181818" points="330.5032,277.6973,340.5032,281.6973,330.5032,285.6973,334.5032,281.6973" style="stroke:#181818;stroke-width:1.0;"/><line style="stroke:#181818;stroke-width:1.0;" x1="71.699" x2="336.5032" y1="281.6973" y2="281.6973"/><text fill="#000000" font-family="sans-serif" font-size="13" font-weight="bold" lengthAdjust="spacing" textLength="7.23" x="78.699" y="276.4346">5</text><text fill="#000000" font-family="sans-serif" font-size="13" lengthAdjust="spacing" textLength="110.5635" x="89.929" y="276.4346">types vaccine code</text><polygon fill="#181818" points="82.699,308.9883,72.699,312.9883,82.699,316.9883,78.699,312.9883" style="stroke:#181818;stroke-width:1.0;"/><line style="stroke:#181818;stroke-width:1.0;stroke-dasharray:2.0,2.0;" x1="76.699" x2="346.5032" y1="312.9883" y2="312.9883"/><text fill="#000000" font-family="sans-serif" font-size="13" font-weight="bold" lengthAdjust="spacing" textLength="7.23" x="88.699" y="307.7256">6</text><text fill="#000000" font-family="sans-serif" font-size="13" lengthAdjust="spacing" textLength="152.4644" x="99.929" y="307.7256">requests data (lot number)</text><polygon fill="#181818" points="330.5032,340.2793,340.5032,344.2793,330.5032,348.2793,334.5032,344.2793" style="stroke:#181818;stroke-width:1.0;"/><line style="stroke:#181818;stroke-width:1.0;" x1="71.699" x2="336.5032" y1="344.2793" y2="344.2793"/><text fill="#000000" font-family="sans-serif" font-size="13" font-weight="bold" lengthAdjust="spacing" textLength="7.23" x="78.699" y="339.0166">7</text><text fill="#000000" font-family="sans-serif" font-size="13" lengthAdjust="spacing" textLength="96.1035" x="89.929" y="339.0166">types lot number</text><polygon fill="#181818" points="82.699,371.5703,72.699,375.5703,82.699,379.5703,78.699,375.5703" style="stroke:#181818;stroke-width:1.0;"/><line style="stroke:#181818;stroke-width:1.0;stroke-dasharray:2.0,2.0;" x1="76.699" x2="346.5032" y1="375.5703" y2="375.5703"/><text fill="#000000" font-family="sans-serif" font-size="13" font-weight="bold" lengthAdjust="spacing" textLength="7.23" x="88.699" y="370.3076">8</text><text fill="#000000" font-family="sans-serif" font-size="13" lengthAdjust="spacing" textLength="235.5742" x="99.929" y="370.3076">shows all data and requests confirmation</text><polygon fill="#181818" points="330.5032,402.8613,340.5032,406.8613,330.5032,410.8613,334.5032,406.8613" style="stroke:#181818;stroke-width:1.0;"/><line style="stroke:#181818;stroke-width:1.0;" x1="71.699" x2="336.5032" y1="406.8613" y2="406.8613"/><text fill="#000000" font-family="sans-serif" font-size="13" font-weight="bold" lengthAdjust="spacing" textLength="7.23" x="78.699" y="401.5986">9</text><text fill="#000000" font-family="sans-serif" font-size="13" lengthAdjust="spacing" textLength="117.0381" x="89.929" y="401.5986">confirms registration</text><polygon fill="#181818" points="82.699,434.1523,72.699,438.1523,82.699,442.1523,78.699,438.1523" style="stroke:#181818;stroke-width:1.0;"/><line style="stroke:#181818;stroke-width:1.0;stroke-dasharray:2.0,2.0;" x1="76.699" x2="346.5032" y1="438.1523" y2="438.1523"/><text fill="#000000" font-family="sans-serif" font-size="13" font-weight="bold" lengthAdjust="spacing" textLength="14.46" x="88.699" y="432.8896">10</text><text fill="#000000" font-family="sans-serif" font-size="13" lengthAdjust="spacing" textLength="174.1226" x="107.1589" y="432.8896">assigns user to recovery room</text><polygon fill="#181818" points="82.699,465.4434,72.699,469.4434,82.699,473.4434,78.699,469.4434" style="stroke:#181818;stroke-width:1.0;"/><line style="stroke:#181818;stroke-width:1.0;stroke-dasharray:2.0,2.0;" x1="76.699" x2="346.5032" y1="469.4434" y2="469.4434"/><text fill="#000000" font-family="sans-serif" font-size="13" font-weight="bold" lengthAdjust="spacing" textLength="14.46" x="88.699" y="464.1807">11</text><text fill="#000000" font-family="sans-serif" font-size="13" lengthAdjust="spacing" textLength="151.0107" x="107.1589" y="464.1807">informs operation success</text><!--SRC=[XP8zRiCm38LtduB8adR8KA1JXawTCzJ80LYPSGZOeYjIBdpxCfQB56tSR9JutiSVQGlrf4OzrFIHAGQ2LyOsOGydIN2idvzW1syK93KmOWWS2R3fER9QGcE9bR5rv9hMhoYjg9ooKgYgC9jWC1xH21nuESVSlrFoN33lOtF8IMa3g317rO39EF20qM2pB-GvNSBPLtX5NsrB0DwIiTyhs9aWpODnR45EW6i35kVkPO7lGQcZOBhOrspBl3itpeIzwtrqTME3Xl1G7sh8wYihmpx-BMJJu9t-qjq7VpSKfA5Lwa_HVMGdTg_Dg-G6Ji_ogO1TLtWOcsk58F74gLzPzfAzRBlzRxceoctKiYcJ-N56IXCaaVw6dgF_SCVAGCiNrHm2gLPV]--></g></svg>