<svg xmlns="http://www.w3.org/2000/svg" xmlns:xlink="http://www.w3.org/1999/xlink" contentStyleType="text/css" height="1023px" preserveAspectRatio="none" style="width:1282px;height:1023px;background:#FFFFFF;" version="1.1" viewBox="0 0 1282 1023" width="1282px" zoomAndPan="magnify"><defs/><g><rect fill="#FFFFFF" height="837.8965" style="stroke:#181818;stroke-width:1.0;" width="10" x="44.2344" y="93.6211"/><rect fill="#FFFFFF" height="48.582" style="stroke:#181818;stroke-width:1.0;" width="10" x="371.2495" y="116.9121"/><rect fill="#FFFFFF" height="31.291" style="stroke:#181818;stroke-width:1.0;" width="10" x="371.2495" y="196.7852"/><rect fill="#FFFFFF" height="279.9492" style="stroke:#181818;stroke-width:1.0;" width="10" x="371.2495" y="259.3672"/><rect fill="#FFFFFF" height="351.9102" style="stroke:#181818;stroke-width:1.0;" width="10" x="371.2495" y="570.6074"/><rect fill="#FFFFFF" height="200.0762" style="stroke:#181818;stroke-width:1.0;" width="10" x="735.9146" y="290.6582"/><rect fill="#FFFFFF" height="289.3281" style="stroke:#181818;stroke-width:1.0;" width="10" x="735.9146" y="601.8984"/><rect fill="#FFFFFF" height="31.291" style="stroke:#181818;stroke-width:1.0;" width="10" x="917.0498" y="321.9492"/><rect fill="#FFFFFF" height="74.9121" style="stroke:#181818;stroke-width:1.0;" width="10" x="1047.6699" y="384.5313"/><rect fill="#FFFFFF" height="226.7461" style="stroke:#181818;stroke-width:1.0;" width="10" x="1047.6699" y="633.1895"/><rect fill="#FFFFFF" height="42.291" style="stroke:#181818;stroke-width:1.0;" width="10" x="1052.6699" y="735.0625"/><rect fill="#FFFFFF" height="36.291" style="stroke:#181818;stroke-width:1.0;" width="10" x="1052.6699" y="823.6445"/><rect fill="#FFFFFF" height="31.291" style="stroke:#181818;stroke-width:1.0;" width="10" x="1220.7861" y="664.4805"/><line style="stroke:#181818;stroke-width:0.5;stroke-dasharray:5.0,5.0;" x1="49" x2="49" y1="83.6211" y2="940.5176"/><line style="stroke:#181818;stroke-width:0.5;stroke-dasharray:5.0,5.0;" x1="375.9395" x2="375.9395" y1="83.6211" y2="940.5176"/><line style="stroke:#181818;stroke-width:0.5;stroke-dasharray:5.0,5.0;" x1="740.4321" x2="740.4321" y1="83.6211" y2="940.5176"/><line style="stroke:#181818;stroke-width:0.5;stroke-dasharray:5.0,5.0;" x1="921.6499" x2="921.6499" y1="83.6211" y2="940.5176"/><line style="stroke:#181818;stroke-width:0.5;stroke-dasharray:5.0,5.0;" x1="1052.4497" x2="1052.4497" y1="83.6211" y2="940.5176"/><line style="stroke:#181818;stroke-width:0.5;stroke-dasharray:5.0,5.0;" x1="1224.8208" x2="1224.8208" y1="424.3418" y2="940.5176"/><text fill="#000000" font-family="sans-serif" font-size="14" lengthAdjust="spacing" textLength="82.4688" x="5" y="80.1074">Administrator</text><ellipse cx="49.2344" cy="13.5" fill="#E2E2F0" rx="8" ry="8" style="stroke:#181818;stroke-width:0.5;"/><path d="M49.2344,21.5 L49.2344,48.5 M36.2344,29.5 L62.2344,29.5 M49.2344,48.5 L36.2344,63.5 M49.2344,48.5 L62.2344,63.5 " fill="none" style="stroke:#181818;stroke-width:0.5;"/><text fill="#000000" font-family="sans-serif" font-size="14" lengthAdjust="spacing" textLength="82.4688" x="5" y="954.625">Administrator</text><ellipse cx="49.2344" cy="966.6387" fill="#E2E2F0" rx="8" ry="8" style="stroke:#181818;stroke-width:0.5;"/><path d="M49.2344,974.6387 L49.2344,1001.6387 M36.2344,982.6387 L62.2344,982.6387 M49.2344,1001.6387 L36.2344,1016.6387 M49.2344,1001.6387 L62.2344,1016.6387 " fill="none" style="stroke:#181818;stroke-width:0.5;"/><rect fill="#E2E2F0" height="32.6211" rx="2.5" ry="2.5" style="stroke:#181818;stroke-width:0.5;" width="162.6201" x="294.9395" y="50"/><text fill="#000000" font-family="sans-serif" font-size="14" lengthAdjust="spacing" textLength="148.6201" x="301.9395" y="72.1074">:RegisterEmployeeView</text><rect fill="#E2E2F0" height="32.6211" rx="2.5" ry="2.5" style="stroke:#181818;stroke-width:0.5;" width="162.6201" x="294.9395" y="939.5176"/><text fill="#000000" font-family="sans-serif" font-size="14" lengthAdjust="spacing" textLength="148.6201" x="301.9395" y="961.625">:RegisterEmployeeView</text><rect fill="#E2E2F0" height="32.6211" rx="2.5" ry="2.5" style="stroke:#181818;stroke-width:0.5;" width="192.9648" x="644.4321" y="50"/><text fill="#000000" font-family="sans-serif" font-size="14" lengthAdjust="spacing" textLength="178.9648" x="651.4321" y="72.1074">:RegisterEmployeeController</text><rect fill="#E2E2F0" height="32.6211" rx="2.5" ry="2.5" style="stroke:#181818;stroke-width:0.5;" width="192.9648" x="644.4321" y="939.5176"/><text fill="#000000" font-family="sans-serif" font-size="14" lengthAdjust="spacing" textLength="178.9648" x="651.4321" y="961.625">:RegisterEmployeeController</text><rect fill="#E2E2F0" height="32.6211" rx="2.5" ry="2.5" style="stroke:#181818;stroke-width:0.5;" width="42.7998" x="900.6499" y="50"/><text fill="#000000" font-family="sans-serif" font-size="14" lengthAdjust="spacing" textLength="28.7998" x="907.6499" y="72.1074">:App</text><rect fill="#E2E2F0" height="32.6211" rx="2.5" ry="2.5" style="stroke:#181818;stroke-width:0.5;" width="42.7998" x="900.6499" y="939.5176"/><text fill="#000000" font-family="sans-serif" font-size="14" lengthAdjust="spacing" textLength="28.7998" x="907.6499" y="961.625">:App</text><rect fill="#E2E2F0" height="32.6211" rx="2.5" ry="2.5" style="stroke:#181818;stroke-width:0.5;" width="198.4404" x="953.4497" y="50"/><text fill="#000000" font-family="sans-serif" font-size="14" lengthAdjust="spacing" textLength="184.4404" x="960.4497" y="72.1074">container:EmployeeContainer</text><rect fill="#E2E2F0" height="32.6211" rx="2.5" ry="2.5" style="stroke:#181818;stroke-width:0.5;" width="198.4404" x="953.4497" y="939.5176"/><text fill="#000000" font-family="sans-serif" font-size="14" lengthAdjust="spacing" textLength="184.4404" x="960.4497" y="961.625">container:EmployeeContainer</text><rect fill="#E2E2F0" height="32.6211" rx="2.5" ry="2.5" style="stroke:#181818;stroke-width:0.5;" width="101.9307" x="1174.8208" y="939.5176"/><text fill="#000000" font-family="sans-serif" font-size="14" lengthAdjust="spacing" textLength="87.9307" x="1181.8208" y="961.625">Cat:Employee</text><rect fill="#FFFFFF" height="837.8965" style="stroke:#181818;stroke-width:1.0;" width="10" x="44.2344" y="93.6211"/><rect fill="#FFFFFF" height="48.582" style="stroke:#181818;stroke-width:1.0;" width="10" x="371.2495" y="116.9121"/><rect fill="#FFFFFF" height="31.291" style="stroke:#181818;stroke-width:1.0;" width="10" x="371.2495" y="196.7852"/><rect fill="#FFFFFF" height="279.9492" style="stroke:#181818;stroke-width:1.0;" width="10" x="371.2495" y="259.3672"/><rect fill="#FFFFFF" height="351.9102" style="stroke:#181818;stroke-width:1.0;" width="10" x="371.2495" y="570.6074"/><rect fill="#FFFFFF" height="200.0762" style="stroke:#181818;stroke-width:1.0;" width="10" x="735.9146" y="290.6582"/><rect fill="#FFFFFF" height="289.3281" style="stroke:#181818;stroke-width:1.0;" width="10" x="735.9146" y="601.8984"/><rect fill="#FFFFFF" height="31.291" style="stroke:#181818;stroke-width:1.0;" width="10" x="917.0498" y="321.9492"/><rect fill="#FFFFFF" height="74.9121" style="stroke:#181818;stroke-width:1.0;" width="10" x="1047.6699" y="384.5313"/><rect fill="#FFFFFF" height="226.7461" style="stroke:#181818;stroke-width:1.0;" width="10" x="1047.6699" y="633.1895"/><rect fill="#FFFFFF" height="42.291" style="stroke:#181818;stroke-width:1.0;" width="10" x="1052.6699" y="735.0625"/><rect fill="#FFFFFF" height="36.291" style="stroke:#181818;stroke-width:1.0;" width="10" x="1052.6699" y="823.6445"/><rect fill="#FFFFFF" height="31.291" style="stroke:#181818;stroke-width:1.0;" width="10" x="1220.7861" y="664.4805"/><polygon fill="#181818" points="359.2495,112.9121,369.2495,116.9121,359.2495,120.9121,363.2495,116.9121" style="stroke:#181818;stroke-width:1.0;"/><line style="stroke:#181818;stroke-width:1.0;" x1="54.2344" x2="365.2495" y1="116.9121" y2="116.9121"/><text fill="#000000" font-family="sans-serif" font-size="13" font-weight="bold" lengthAdjust="spacing" textLength="7.23" x="61.2344" y="111.6494">1</text><text fill="#000000" font-family="sans-serif" font-size="13" lengthAdjust="spacing" textLength="186.4243" x="72.4644" y="111.6494">asks to register a new employee</text><polygon fill="#181818" points="65.2344,161.4941,55.2344,165.4941,65.2344,169.4941,61.2344,165.4941" style="stroke:#181818;stroke-width:1.0;"/><line style="stroke:#181818;stroke-width:1.0;stroke-dasharray:2.0,2.0;" x1="59.2344" x2="375.2495" y1="165.4941" y2="165.4941"/><text fill="#000000" font-family="sans-serif" font-size="13" font-weight="bold" lengthAdjust="spacing" textLength="7.23" x="71.2344" y="151.5859">2</text><text fill="#000000" font-family="sans-serif" font-size="13" lengthAdjust="spacing" textLength="138.7534" x="82.4644" y="142.9404">requests employee data</text><text fill="#000000" font-family="sans-serif" font-size="13" lengthAdjust="spacing" textLength="277.4624" x="82.4644" y="160.2314">(name, phone number, email, function, CC, etc.)</text><polygon fill="#181818" points="359.2495,192.7852,369.2495,196.7852,359.2495,200.7852,363.2495,196.7852" style="stroke:#181818;stroke-width:1.0;"/><line style="stroke:#181818;stroke-width:1.0;" x1="54.2344" x2="365.2495" y1="196.7852" y2="196.7852"/><text fill="#000000" font-family="sans-serif" font-size="13" font-weight="bold" lengthAdjust="spacing" textLength="7.23" x="61.2344" y="191.5225">3</text><text fill="#000000" font-family="sans-serif" font-size="13" lengthAdjust="spacing" textLength="139.4834" x="72.4644" y="191.5225">provides requested data</text><polygon fill="#181818" points="65.2344,224.0762,55.2344,228.0762,65.2344,232.0762,61.2344,228.0762" style="stroke:#181818;stroke-width:1.0;"/><line style="stroke:#181818;stroke-width:1.0;stroke-dasharray:2.0,2.0;" x1="59.2344" x2="375.2495" y1="228.0762" y2="228.0762"/><text fill="#000000" font-family="sans-serif" font-size="13" font-weight="bold" lengthAdjust="spacing" textLength="7.23" x="71.2344" y="222.8135">4</text><text fill="#000000" font-family="sans-serif" font-size="13" lengthAdjust="spacing" textLength="281.7852" x="82.4644" y="222.8135">selects role for employee ( nurse or receptionist )</text><polygon fill="#181818" points="359.2495,255.3672,369.2495,259.3672,359.2495,263.3672,363.2495,259.3672" style="stroke:#181818;stroke-width:1.0;"/><line style="stroke:#181818;stroke-width:1.0;" x1="54.2344" x2="365.2495" y1="259.3672" y2="259.3672"/><text fill="#000000" font-family="sans-serif" font-size="13" font-weight="bold" lengthAdjust="spacing" textLength="7.23" x="61.2344" y="254.1045">5</text><text fill="#000000" font-family="sans-serif" font-size="13" lengthAdjust="spacing" textLength="126.458" x="72.4644" y="254.1045">provides selected role</text><polygon fill="#181818" points="723.9146,286.6582,733.9146,290.6582,723.9146,294.6582,727.9146,290.6582" style="stroke:#181818;stroke-width:1.0;"/><line style="stroke:#181818;stroke-width:1.0;" x1="381.2495" x2="729.9146" y1="290.6582" y2="290.6582"/><text fill="#000000" font-family="sans-serif" font-size="13" font-weight="bold" lengthAdjust="spacing" textLength="7.23" x="388.2495" y="285.3955">6</text><text fill="#000000" font-family="sans-serif" font-size="13" lengthAdjust="spacing" textLength="324.4351" x="399.4795" y="285.3955">createEmployee(name, phone, email, function, CC, role)</text><polygon fill="#181818" points="905.0498,317.9492,915.0498,321.9492,905.0498,325.9492,909.0498,321.9492" style="stroke:#181818;stroke-width:1.0;"/><line style="stroke:#181818;stroke-width:1.0;" x1="745.9146" x2="911.0498" y1="321.9492" y2="321.9492"/><text fill="#000000" font-family="sans-serif" font-size="13" font-weight="bold" lengthAdjust="spacing" textLength="7.23" x="752.9146" y="316.6865">7</text><text fill="#000000" font-family="sans-serif" font-size="13" lengthAdjust="spacing" textLength="140.9053" x="764.1445" y="316.6865">getEmployeeContainer()</text><polygon fill="#181818" points="756.9146,349.2402,746.9146,353.2402,756.9146,357.2402,752.9146,353.2402" style="stroke:#181818;stroke-width:1.0;"/><line style="stroke:#181818;stroke-width:1.0;stroke-dasharray:2.0,2.0;" x1="750.9146" x2="921.0498" y1="353.2402" y2="353.2402"/><text fill="#000000" font-family="sans-serif" font-size="13" font-weight="bold" lengthAdjust="spacing" textLength="7.23" x="762.9146" y="347.9775">8</text><text fill="#000000" font-family="sans-serif" font-size="13" lengthAdjust="spacing" textLength="53.479" x="774.1445" y="347.9775">container</text><polygon fill="#181818" points="1035.6699,380.5313,1045.6699,384.5313,1035.6699,388.5313,1039.6699,384.5313" style="stroke:#181818;stroke-width:1.0;"/><line style="stroke:#181818;stroke-width:1.0;" x1="745.9146" x2="1041.6699" y1="384.5313" y2="384.5313"/><text fill="#000000" font-family="sans-serif" font-size="13" font-weight="bold" lengthAdjust="spacing" textLength="7.23" x="752.9146" y="379.2686">9</text><text fill="#000000" font-family="sans-serif" font-size="13" lengthAdjust="spacing" textLength="237.7261" x="764.1445" y="379.2686">create(name, phone, email, function, CC)</text><polygon fill="#181818" points="1162.8208,411.8223,1172.8208,415.8223,1162.8208,419.8223,1166.8208,415.8223" style="stroke:#181818;stroke-width:1.0;"/><line style="stroke:#181818;stroke-width:1.0;stroke-dasharray:2.0,2.0;" x1="1057.6699" x2="1168.8208" y1="415.8223" y2="415.8223"/><text fill="#000000" font-family="sans-serif" font-size="13" font-weight="bold" lengthAdjust="spacing" textLength="14.46" x="1064.6699" y="410.5596">10</text><text fill="#000000" font-family="sans-serif" font-size="13" lengthAdjust="spacing" textLength="55.6245" x="1083.1299" y="410.5596">create(...)</text><rect fill="#E2E2F0" height="32.6211" rx="2.5" ry="2.5" style="stroke:#181818;stroke-width:0.5;" width="101.9307" x="1174.8208" y="392.5313"/><text fill="#000000" font-family="sans-serif" font-size="14" lengthAdjust="spacing" textLength="87.9307" x="1181.8208" y="414.6387">Cat:Employee</text><polygon fill="#181818" points="756.9146,455.4434,746.9146,459.4434,756.9146,463.4434,752.9146,459.4434" style="stroke:#181818;stroke-width:1.0;"/><line style="stroke:#181818;stroke-width:1.0;stroke-dasharray:2.0,2.0;" x1="750.9146" x2="1051.6699" y1="459.4434" y2="459.4434"/><text fill="#000000" font-family="sans-serif" font-size="13" font-weight="bold" lengthAdjust="spacing" textLength="14.46" x="762.9146" y="454.1807">11</text><text fill="#000000" font-family="sans-serif" font-size="13" lengthAdjust="spacing" textLength="17.3418" x="781.3745" y="454.1807">cat</text><polygon fill="#181818" points="392.2495,486.7344,382.2495,490.7344,392.2495,494.7344,388.2495,490.7344" style="stroke:#181818;stroke-width:1.0;"/><line style="stroke:#181818;stroke-width:1.0;stroke-dasharray:2.0,2.0;" x1="386.2495" x2="739.9146" y1="490.7344" y2="490.7344"/><text fill="#000000" font-family="sans-serif" font-size="13" font-weight="bold" lengthAdjust="spacing" textLength="14.46" x="398.2495" y="485.4717">12</text><text fill="#000000" font-family="sans-serif" font-size="13" lengthAdjust="spacing" textLength="13.73" x="416.7095" y="485.4717">ok</text><polygon fill="#181818" points="65.2344,535.3164,55.2344,539.3164,65.2344,543.3164,61.2344,539.3164" style="stroke:#181818;stroke-width:1.0;"/><line style="stroke:#181818;stroke-width:1.0;stroke-dasharray:2.0,2.0;" x1="59.2344" x2="375.2495" y1="539.3164" y2="539.3164"/><text fill="#000000" font-family="sans-serif" font-size="13" font-weight="bold" lengthAdjust="spacing" textLength="14.46" x="71.2344" y="525.4082">13</text><text fill="#000000" font-family="sans-serif" font-size="13" lengthAdjust="spacing" textLength="142.3589" x="89.6943" y="516.7627">shows all employee data</text><text fill="#000000" font-family="sans-serif" font-size="13" lengthAdjust="spacing" textLength="149.5825" x="89.6943" y="534.0537">and requests confirmation</text><polygon fill="#181818" points="359.2495,566.6074,369.2495,570.6074,359.2495,574.6074,363.2495,570.6074" style="stroke:#181818;stroke-width:1.0;"/><line style="stroke:#181818;stroke-width:1.0;" x1="54.2344" x2="365.2495" y1="570.6074" y2="570.6074"/><text fill="#000000" font-family="sans-serif" font-size="13" font-weight="bold" lengthAdjust="spacing" textLength="14.46" x="61.2344" y="565.3447">14</text><text fill="#000000" font-family="sans-serif" font-size="13" lengthAdjust="spacing" textLength="177.0171" x="79.6943" y="565.3447">confirms employee registration</text><polygon fill="#181818" points="723.9146,597.8984,733.9146,601.8984,723.9146,605.8984,727.9146,601.8984" style="stroke:#181818;stroke-width:1.0;"/><line style="stroke:#181818;stroke-width:1.0;" x1="381.2495" x2="729.9146" y1="601.8984" y2="601.8984"/><text fill="#000000" font-family="sans-serif" font-size="13" font-weight="bold" lengthAdjust="spacing" textLength="14.46" x="388.2495" y="596.6357">15</text><text fill="#000000" font-family="sans-serif" font-size="13" lengthAdjust="spacing" textLength="174.1353" x="406.7095" y="596.6357">saveRegisteredEmployee(cat)</text><polygon fill="#181818" points="1035.6699,629.1895,1045.6699,633.1895,1035.6699,637.1895,1039.6699,633.1895" style="stroke:#181818;stroke-width:1.0;"/><line style="stroke:#181818;stroke-width:1.0;" x1="745.9146" x2="1041.6699" y1="633.1895" y2="633.1895"/><text fill="#000000" font-family="sans-serif" font-size="13" font-weight="bold" lengthAdjust="spacing" textLength="14.46" x="752.9146" y="627.9268">16</text><text fill="#000000" font-family="sans-serif" font-size="13" lengthAdjust="spacing" textLength="53.46" x="771.3745" y="627.9268">save(cat)</text><polygon fill="#181818" points="1208.7861,660.4805,1218.7861,664.4805,1208.7861,668.4805,1212.7861,664.4805" style="stroke:#181818;stroke-width:1.0;"/><line style="stroke:#181818;stroke-width:1.0;" x1="1057.6699" x2="1214.7861" y1="664.4805" y2="664.4805"/><text fill="#000000" font-family="sans-serif" font-size="13" font-weight="bold" lengthAdjust="spacing" textLength="14.46" x="1064.6699" y="659.2178">17</text><text fill="#000000" font-family="sans-serif" font-size="13" lengthAdjust="spacing" textLength="46.9536" x="1083.1299" y="659.2178">isValid()</text><polygon fill="#181818" points="1068.6699,691.7715,1058.6699,695.7715,1068.6699,699.7715,1064.6699,695.7715" style="stroke:#181818;stroke-width:1.0;"/><line style="stroke:#181818;stroke-width:1.0;stroke-dasharray:2.0,2.0;" x1="1062.6699" x2="1224.7861" y1="695.7715" y2="695.7715"/><text fill="#000000" font-family="sans-serif" font-size="13" font-weight="bold" lengthAdjust="spacing" textLength="14.46" x="1074.6699" y="690.5088">18</text><text fill="#000000" font-family="sans-serif" font-size="13" lengthAdjust="spacing" textLength="13.73" x="1093.1299" y="690.5088">ok</text><line style="stroke:#181818;stroke-width:1.0;" x1="1057.6699" x2="1104.6699" y1="722.0625" y2="722.0625"/><line style="stroke:#181818;stroke-width:1.0;" x1="1104.6699" x2="1104.6699" y1="722.0625" y2="735.0625"/><line style="stroke:#181818;stroke-width:1.0;" x1="1063.6699" x2="1104.6699" y1="735.0625" y2="735.0625"/><polygon fill="#181818" points="1073.6699,731.0625,1063.6699,735.0625,1073.6699,739.0625,1069.6699,735.0625" style="stroke:#181818;stroke-width:1.0;"/><text fill="#000000" font-family="sans-serif" font-size="13" font-weight="bold" lengthAdjust="spacing" textLength="14.46" x="1069.6699" y="716.7998">19</text><text fill="#000000" font-family="sans-serif" font-size="13" lengthAdjust="spacing" textLength="120.6563" x="1088.1299" y="716.7998">checkDuplicates(cat)</text><line style="stroke:#181818;stroke-width:1.0;stroke-dasharray:2.0,2.0;" x1="1062.6699" x2="1104.6699" y1="776.3535" y2="776.3535"/><line style="stroke:#181818;stroke-width:1.0;stroke-dasharray:2.0,2.0;" x1="1104.6699" x2="1104.6699" y1="776.3535" y2="789.3535"/><line style="stroke:#181818;stroke-width:1.0;stroke-dasharray:2.0,2.0;" x1="1057.6699" x2="1104.6699" y1="789.3535" y2="789.3535"/><polygon fill="#181818" points="1067.6699,785.3535,1057.6699,789.3535,1067.6699,793.3535,1063.6699,789.3535" style="stroke:#181818;stroke-width:1.0;"/><text fill="#000000" font-family="sans-serif" font-size="13" font-weight="bold" lengthAdjust="spacing" textLength="14.46" x="1069.6699" y="771.0908">20</text><text fill="#000000" font-family="sans-serif" font-size="13" lengthAdjust="spacing" textLength="13.73" x="1088.1299" y="771.0908">ok</text><line style="stroke:#181818;stroke-width:1.0;" x1="1057.6699" x2="1104.6699" y1="810.6445" y2="810.6445"/><line style="stroke:#181818;stroke-width:1.0;" x1="1104.6699" x2="1104.6699" y1="810.6445" y2="823.6445"/><line style="stroke:#181818;stroke-width:1.0;" x1="1063.6699" x2="1104.6699" y1="823.6445" y2="823.6445"/><polygon fill="#181818" points="1073.6699,819.6445,1063.6699,823.6445,1073.6699,827.6445,1069.6699,823.6445" style="stroke:#181818;stroke-width:1.0;"/><text fill="#000000" font-family="sans-serif" font-size="13" font-weight="bold" lengthAdjust="spacing" textLength="14.46" x="1069.6699" y="805.3818">21</text><text fill="#000000" font-family="sans-serif" font-size="13" lengthAdjust="spacing" textLength="47.6899" x="1088.1299" y="805.3818">add(cat)</text><polygon fill="#181818" points="756.9146,855.9355,746.9146,859.9355,756.9146,863.9355,752.9146,859.9355" style="stroke:#181818;stroke-width:1.0;"/><line style="stroke:#181818;stroke-width:1.0;stroke-dasharray:2.0,2.0;" x1="750.9146" x2="1051.6699" y1="859.9355" y2="859.9355"/><text fill="#000000" font-family="sans-serif" font-size="13" font-weight="bold" lengthAdjust="spacing" textLength="14.46" x="762.9146" y="854.6729">22</text><text fill="#000000" font-family="sans-serif" font-size="13" lengthAdjust="spacing" textLength="13.73" x="781.3745" y="854.6729">ok</text><polygon fill="#181818" points="392.2495,887.2266,382.2495,891.2266,392.2495,895.2266,388.2495,891.2266" style="stroke:#181818;stroke-width:1.0;"/><line style="stroke:#181818;stroke-width:1.0;stroke-dasharray:2.0,2.0;" x1="386.2495" x2="739.9146" y1="891.2266" y2="891.2266"/><text fill="#000000" font-family="sans-serif" font-size="13" font-weight="bold" lengthAdjust="spacing" textLength="14.46" x="398.2495" y="885.9639">23</text><text fill="#000000" font-family="sans-serif" font-size="13" lengthAdjust="spacing" textLength="13.73" x="416.7095" y="885.9639">ok</text><polygon fill="#181818" points="65.2344,918.5176,55.2344,922.5176,65.2344,926.5176,61.2344,922.5176" style="stroke:#181818;stroke-width:1.0;"/><line style="stroke:#181818;stroke-width:1.0;stroke-dasharray:2.0,2.0;" x1="59.2344" x2="375.2495" y1="922.5176" y2="922.5176"/><text fill="#000000" font-family="sans-serif" font-size="13" font-weight="bold" lengthAdjust="spacing" textLength="14.46" x="71.2344" y="917.2549">24</text><text fill="#000000" font-family="sans-serif" font-size="13" lengthAdjust="spacing" textLength="151.0107" x="89.6943" y="917.2549">informs operation success</text><!--SRC=[ZLD1SkCW4Bph5LE-n4xPybs7LAMq-u4zv9JBB8njoWXOG7Rbzpi22SjMijcJ1FHqptJ3qob65vhztcaqiUzqBMot3_Id9oDe9nKUFNPLXNsqAAAwO2Im9grDt_qcpsSYMW-hLzafeqBqoCiLO82qKpdqKGdbc1zMpIywCeRypyvf-q7qfkYQmCFFDzZMckYjrfJfs-ZrGyMhSrdPkViJmQMe3FbcJfPsCjUqkYzhCPQ2X9iMQUhiHfwoIX_OlQH16iQU0qGBVfm140nTWQRw0GKxXgUwXd5iUOYX841YH7WtQuCTRS6Th278bcyPX4fluT0RxiAQBRGjRqPHRnQDE6ylIbAO54WcvaK3WJG9rcU32GuSQ6bapR8-SEoUEGIvGP5dWisNKfcBbGQoKUabvTM0yCIkJJxEf_jYh863nngg1nQEje4ZnKMEQ-x7kJJIg5GoBSK5FFNnhVwcAZM9Uf9zVYuKTLq_eiO6C4xInIDxNZf_ijS0gFLzzky6ZRpT2vxce7o7GsEBaCV3sUt9zyvd-7q20IyqFIsI9GdkTlEfKmC-dyw6l3dHW0flg9Na0AQzRCADWgU-Bvu7SI9n_j4xhLY3maBf_vbGoa-hqzHSAAayslRnRlmh86NuFR2vrb4s548l18LG_GK0]--></g></svg>