<svg xmlns="http://www.w3.org/2000/svg" xmlns:xlink="http://www.w3.org/1999/xlink" contentStyleType="text/css" height="349.6px" preserveAspectRatio="none" style="width:476px;height:349px;background:#FFFFFF;" version="1.1" viewBox="0 0 476 349" width="476px" zoomAndPan="magnify"><defs/><g><rect fill="#FFFFFF" height="201.0625" style="stroke:#181818;stroke-width:0.8000000000000002;" width="8" x="35.3875" y="74.8969"/><rect fill="#FFFFFF" height="25.0328" style="stroke:#181818;stroke-width:0.8000000000000002;" width="8" x="441.5383" y="93.5297"/><rect fill="#FFFFFF" height="25.0328" style="stroke:#181818;stroke-width:0.8000000000000002;" width="8" x="441.5383" y="143.5953"/><rect fill="#FFFFFF" height="25.0328" style="stroke:#181818;stroke-width:0.8000000000000002;" width="8" x="441.5383" y="193.6609"/><rect fill="#FFFFFF" height="25.0328" style="stroke:#181818;stroke-width:0.8000000000000002;" width="8" x="441.5383" y="243.7266"/><line style="stroke:#181818;stroke-width:0.4000000000000001;stroke-dasharray:5.0,5.0;" x1="39.2" x2="39.2" y1="66.8969" y2="283.1594"/><line style="stroke:#181818;stroke-width:0.4000000000000001;stroke-dasharray:5.0,5.0;" x1="445.3121" x2="445.3121" y1="66.8969" y2="283.1594"/><text fill="#000000" font-family="sans-serif" font-size="11.2" lengthAdjust="spacing" textLength="65.975" x="4" y="64.0859">Administrator</text><ellipse cx="39.3875" cy="10.8" fill="#E2E2F0" rx="6.4" ry="6.4" style="stroke:#181818;stroke-width:0.4000000000000001;"/><path d="M39.3875,17.2 L39.3875,38.8 M28.9875,23.6 L49.7875,23.6 M39.3875,38.8 L28.9875,50.8 M39.3875,38.8 L49.7875,50.8 " fill="none" style="stroke:#181818;stroke-width:0.4000000000000001;"/><text fill="#000000" font-family="sans-serif" font-size="11.2" lengthAdjust="spacing" textLength="65.975" x="4" y="294.4453">Administrator</text><ellipse cx="39.3875" cy="304.0563" fill="#E2E2F0" rx="6.4" ry="6.4" style="stroke:#181818;stroke-width:0.4000000000000001;"/><path d="M39.3875,310.4563 L39.3875,332.0563 M28.9875,316.8563 L49.7875,316.8563 M39.3875,332.0563 L28.9875,344.0563 M39.3875,332.0563 L49.7875,344.0563 " fill="none" style="stroke:#181818;stroke-width:0.4000000000000001;"/><rect fill="#E2E2F0" height="26.0969" rx="2" ry="2" style="stroke:#181818;stroke-width:0.4000000000000001;" width="51.6523" x="419.7121" y="40"/><text fill="#000000" font-family="sans-serif" font-size="11.2" lengthAdjust="spacing" textLength="40.4523" x="425.3121" y="57.6859">:System</text><rect fill="#E2E2F0" height="26.0969" rx="2" ry="2" style="stroke:#181818;stroke-width:0.4000000000000001;" width="51.6523" x="419.7121" y="282.3594"/><text fill="#000000" font-family="sans-serif" font-size="11.2" lengthAdjust="spacing" textLength="40.4523" x="425.3121" y="300.0453">:System</text><rect fill="#FFFFFF" height="201.0625" style="stroke:#181818;stroke-width:0.8000000000000002;" width="8" x="35.3875" y="74.8969"/><rect fill="#FFFFFF" height="25.0328" style="stroke:#181818;stroke-width:0.8000000000000002;" width="8" x="441.5383" y="93.5297"/><rect fill="#FFFFFF" height="25.0328" style="stroke:#181818;stroke-width:0.8000000000000002;" width="8" x="441.5383" y="143.5953"/><rect fill="#FFFFFF" height="25.0328" style="stroke:#181818;stroke-width:0.8000000000000002;" width="8" x="441.5383" y="193.6609"/><rect fill="#FFFFFF" height="25.0328" style="stroke:#181818;stroke-width:0.8000000000000002;" width="8" x="441.5383" y="243.7266"/><polygon fill="#181818" points="431.9383,90.3297,439.9383,93.5297,431.9383,96.7297,435.1383,93.5297" style="stroke:#181818;stroke-width:0.8000000000000002;"/><line style="stroke:#181818;stroke-width:0.8000000000000002;" x1="43.3875" x2="436.7383" y1="93.5297" y2="93.5297"/><text fill="#000000" font-family="sans-serif" font-size="10.4" font-weight="bold" lengthAdjust="spacing" textLength="5.784" x="48.9875" y="89.3195">1</text><text fill="#000000" font-family="sans-serif" font-size="10.4" lengthAdjust="spacing" textLength="149.1395" x="57.9715" y="89.3195">asks to register a new employee</text><polygon fill="#181818" points="52.1875,115.3625,44.1875,118.5625,52.1875,121.7625,48.9875,118.5625" style="stroke:#181818;stroke-width:0.8000000000000002;"/><line style="stroke:#181818;stroke-width:0.8000000000000002;stroke-dasharray:2.0,2.0;" x1="47.3875" x2="444.7383" y1="118.5625" y2="118.5625"/><text fill="#000000" font-family="sans-serif" font-size="10.4" font-weight="bold" lengthAdjust="spacing" textLength="5.784" x="56.9875" y="114.3523">2</text><text fill="#000000" font-family="sans-serif" font-size="10.4" lengthAdjust="spacing" textLength="369.9668" x="65.9715" y="114.3523">requests employee data (name, phone number, email, citizen card number, role)</text><polygon fill="#181818" points="431.9383,140.3953,439.9383,143.5953,431.9383,146.7953,435.1383,143.5953" style="stroke:#181818;stroke-width:0.8000000000000002;"/><line style="stroke:#181818;stroke-width:0.8000000000000002;" x1="43.3875" x2="436.7383" y1="143.5953" y2="143.5953"/><text fill="#000000" font-family="sans-serif" font-size="10.4" font-weight="bold" lengthAdjust="spacing" textLength="5.784" x="48.9875" y="139.3852">3</text><text fill="#000000" font-family="sans-serif" font-size="10.4" lengthAdjust="spacing" textLength="110.4238" x="57.9715" y="139.3852">provides employee data</text><polygon fill="#181818" points="52.1875,165.4281,44.1875,168.6281,52.1875,171.8281,48.9875,168.6281" style="stroke:#181818;stroke-width:0.8000000000000002;"/><line style="stroke:#181818;stroke-width:0.8000000000000002;stroke-dasharray:2.0,2.0;" x1="47.3875" x2="444.7383" y1="168.6281" y2="168.6281"/><text fill="#000000" font-family="sans-serif" font-size="10.4" font-weight="bold" lengthAdjust="spacing" textLength="5.784" x="56.9875" y="164.418">4</text><text fill="#000000" font-family="sans-serif" font-size="10.4" lengthAdjust="spacing" textLength="64.1773" x="65.9715" y="164.418">validates data</text><polygon fill="#181818" points="431.9383,190.4609,439.9383,193.6609,431.9383,196.8609,435.1383,193.6609" style="stroke:#181818;stroke-width:0.8000000000000002;"/><line style="stroke:#181818;stroke-width:0.8000000000000002;" x1="43.3875" x2="436.7383" y1="193.6609" y2="193.6609"/><text fill="#000000" font-family="sans-serif" font-size="10.4" font-weight="bold" lengthAdjust="spacing" textLength="5.784" x="48.9875" y="189.4508">5</text><text fill="#000000" font-family="sans-serif" font-size="10.4" lengthAdjust="spacing" textLength="225.4281" x="57.9715" y="189.4508">selects role for employee ( nurse or receptionist )</text><polygon fill="#181818" points="52.1875,215.4938,44.1875,218.6938,52.1875,221.8938,48.9875,218.6938" style="stroke:#181818;stroke-width:0.8000000000000002;"/><line style="stroke:#181818;stroke-width:0.8000000000000002;stroke-dasharray:2.0,2.0;" x1="47.3875" x2="444.7383" y1="218.6938" y2="218.6938"/><text fill="#000000" font-family="sans-serif" font-size="10.4" font-weight="bold" lengthAdjust="spacing" textLength="5.784" x="56.9875" y="214.4836">6</text><text fill="#000000" font-family="sans-serif" font-size="10.4" lengthAdjust="spacing" textLength="101.1512" x="65.9715" y="214.4836">confirms selected role</text><polygon fill="#181818" points="431.9383,240.5266,439.9383,243.7266,431.9383,246.9266,435.1383,243.7266" style="stroke:#181818;stroke-width:0.8000000000000002;"/><line style="stroke:#181818;stroke-width:0.8000000000000002;" x1="43.3875" x2="436.7383" y1="243.7266" y2="243.7266"/><text fill="#000000" font-family="sans-serif" font-size="10.4" font-weight="bold" lengthAdjust="spacing" textLength="5.784" x="48.9875" y="239.5164">7</text><text fill="#000000" font-family="sans-serif" font-size="10.4" lengthAdjust="spacing" textLength="93.6305" x="57.9715" y="239.5164">confirms registration</text><polygon fill="#181818" points="52.1875,265.5594,44.1875,268.7594,52.1875,271.9594,48.9875,268.7594" style="stroke:#181818;stroke-width:0.8000000000000002;"/><line style="stroke:#181818;stroke-width:0.8000000000000002;stroke-dasharray:2.0,2.0;" x1="47.3875" x2="444.7383" y1="268.7594" y2="268.7594"/><text fill="#000000" font-family="sans-serif" font-size="10.4" font-weight="bold" lengthAdjust="spacing" textLength="5.784" x="56.9875" y="264.5492">8</text><text fill="#000000" font-family="sans-serif" font-size="10.4" lengthAdjust="spacing" textLength="164.1605" x="65.9715" y="264.5492">informs operation success or failure</text><!--SRC=[RP5DRi9034RtEON5fY11sMTHgMVe2Sp4WDNvg-rGqTFNpA0isgoIYP-Vlt5UhcPLn-EnHimsf_WQIZegVSsK0nqcnejW6WQShM0mlg4HbDpEUKud4gy5AmARzobnPZL1Fsu05TgNeQ8O1wxkXytuSLUZrChzjVLtR-U7ze33snCOdVrKi0925_UJ04AcRw1KOxaJ3Ps3WxUqtj59lu2QBWnCQ0ZRZ8dsKAyb4_JuUqUGunu26_zGXe0oBJKfaNOhYQgK6q_qnxyIv8QHlUHa0_wRb2853_gO16VVusBSUWfHtxRuTG9Lu_9OB-nMneIIpon9dpgQcczbt0BsNVg_SkkAaBDdSQnKwWpe70AfFkASVM6pqF0B]--></g></svg>