<svg xmlns="http://www.w3.org/2000/svg" xmlns:xlink="http://www.w3.org/1999/xlink" contentStyleType="text/css" height="1902px" preserveAspectRatio="none" style="width:2569px;height:1902px;background:#FFFFFF;" version="1.1" viewBox="0 0 2569 1902" width="2569px" zoomAndPan="magnify"><defs/><g><rect fill="#FFFFFF" height="1716.4531" style="stroke:#181818;stroke-width:1.0;" width="10" x="41.5205" y="93.6211"/><rect fill="#FFFFFF" height="400.1523" style="stroke:#181818;stroke-width:1.0;" width="10" x="302.063" y="116.9121"/><rect fill="#FFFFFF" height="31.291" style="stroke:#181818;stroke-width:1.0;" width="10" x="302.063" y="548.3555"/><rect fill="#FFFFFF" height="393.8223" style="stroke:#181818;stroke-width:1.0;" width="10" x="302.063" y="610.9375"/><rect fill="#FFFFFF" height="726.7324" style="stroke:#181818;stroke-width:1.0;" width="10" x="302.063" y="1074.3418"/><rect fill="#FFFFFF" height="337.5703" style="stroke:#181818;stroke-width:1.0;" width="10" x="590.1055" y="148.2031"/><rect fill="#FFFFFF" height="325.2402" style="stroke:#181818;stroke-width:1.0;" width="10" x="590.1055" y="642.2285"/><rect fill="#FFFFFF" height="664.1504" style="stroke:#181818;stroke-width:1.0;" width="10" x="590.1055" y="1105.6328"/><rect fill="#FFFFFF" height="31.291" style="stroke:#181818;stroke-width:1.0;" width="10" x="769.7744" y="179.4941"/><rect fill="#FFFFFF" height="31.291" style="stroke:#181818;stroke-width:1.0;" width="10" x="769.7744" y="673.5195"/><rect fill="#FFFFFF" height="31.291" style="stroke:#181818;stroke-width:1.0;" width="10" x="769.7744" y="1136.9238"/><rect fill="#FFFFFF" height="31.291" style="stroke:#181818;stroke-width:1.0;" width="10" x="1000.0996" y="242.0762"/><rect fill="#FFFFFF" height="31.291" style="stroke:#181818;stroke-width:1.0;" width="10" x="1000.0996" y="736.1016"/><rect fill="#FFFFFF" height="31.291" style="stroke:#181818;stroke-width:1.0;" width="10" x="1000.0996" y="1199.5059"/><rect fill="#FFFFFF" height="31.291" style="stroke:#181818;stroke-width:1.0;" width="10" x="1000.0996" y="1262.0879"/><rect fill="#FFFFFF" height="31.291" style="stroke:#181818;stroke-width:1.0;" width="10" x="1000.0996" y="1324.6699"/><rect fill="#FFFFFF" height="37.291" style="stroke:#181818;stroke-width:1.0;" width="10" x="1185.9199" y="1387.252"/><rect fill="#FFFFFF" height="31.291" style="stroke:#181818;stroke-width:1.0;" width="10" x="1677.4155" y="379.5703"/><rect fill="#FFFFFF" height="31.291" style="stroke:#181818;stroke-width:1.0;" width="10" x="1677.4155" y="1525.416"/><rect fill="#FFFFFF" height="31.291" style="stroke:#181818;stroke-width:1.0;" width="10" x="1873.7563" y="861.2656"/><rect fill="#FFFFFF" height="31.291" style="stroke:#181818;stroke-width:1.0;" width="10" x="1873.7563" y="1462.834"/><rect fill="#FFFFFF" height="31.291" style="stroke:#181818;stroke-width:1.0;" width="10" x="2048.2974" y="1631.6191"/><rect fill="#FFFFFF" height="212.0762" style="stroke:#181818;stroke-width:1.0;" width="10" x="2495.7168" y="1597.998"/><line style="stroke:#181818;stroke-width:0.5;stroke-dasharray:5.0,5.0;" x1="46" x2="46" y1="83.6211" y2="1819.0742"/><line style="stroke:#181818;stroke-width:0.5;stroke-dasharray:5.0,5.0;" x1="306.2114" x2="306.2114" y1="83.6211" y2="1819.0742"/><line style="stroke:#181818;stroke-width:0.5;stroke-dasharray:5.0,5.0;" x1="595.0815" x2="595.0815" y1="83.6211" y2="1819.0742"/><line style="stroke:#181818;stroke-width:0.5;stroke-dasharray:5.0,5.0;" x1="774.3193" x2="774.3193" y1="83.6211" y2="1819.0742"/><line style="stroke:#181818;stroke-width:0.5;stroke-dasharray:5.0,5.0;" x1="1004.3516" x2="1004.3516" y1="83.6211" y2="1819.0742"/><line style="stroke:#181818;stroke-width:0.5;stroke-dasharray:5.0,5.0;" x1="1190.8477" x2="1190.8477" y1="313.1777" y2="1819.0742"/><line style="stroke:#181818;stroke-width:0.5;stroke-dasharray:5.0,5.0;" x1="1479.2197" x2="1479.2197" y1="83.6211" y2="1819.0742"/><line style="stroke:#181818;stroke-width:0.5;stroke-dasharray:5.0,5.0;" x1="1681.4814" x2="1681.4814" y1="83.6211" y2="1819.0742"/><line style="stroke:#181818;stroke-width:0.5;stroke-dasharray:5.0,5.0;" x1="1878.3496" x2="1878.3496" y1="83.6211" y2="1819.0742"/><line style="stroke:#181818;stroke-width:0.5;stroke-dasharray:5.0,5.0;" x1="2053.1631" x2="2053.1631" y1="83.6211" y2="1819.0742"/><line style="stroke:#181818;stroke-width:0.5;stroke-dasharray:5.0,5.0;" x1="2231.4316" x2="2231.4316" y1="450.6719" y2="1819.0742"/><line style="stroke:#181818;stroke-width:0.5;stroke-dasharray:5.0,5.0;" x1="2375.0518" x2="2375.0518" y1="932.3672" y2="1819.0742"/><line style="stroke:#181818;stroke-width:0.5;stroke-dasharray:5.0,5.0;" x1="2500.0996" x2="2500.0996" y1="1596.5176" y2="1819.0742"/><text fill="#000000" font-family="sans-serif" font-size="14" lengthAdjust="spacing" textLength="77.041" x="5" y="80.1074">Receptionist</text><ellipse cx="46.5205" cy="13.5" fill="#E2E2F0" rx="8" ry="8" style="stroke:#181818;stroke-width:0.5;"/><path d="M46.5205,21.5 L46.5205,48.5 M33.5205,29.5 L59.5205,29.5 M46.5205,48.5 L33.5205,63.5 M46.5205,48.5 L59.5205,63.5 " fill="none" style="stroke:#181818;stroke-width:0.5;"/><text fill="#000000" font-family="sans-serif" font-size="14" lengthAdjust="spacing" textLength="77.041" x="5" y="1833.1816">Receptionist</text><ellipse cx="46.5205" cy="1845.1953" fill="#E2E2F0" rx="8" ry="8" style="stroke:#181818;stroke-width:0.5;"/><path d="M46.5205,1853.1953 L46.5205,1880.1953 M33.5205,1861.1953 L59.5205,1861.1953 M46.5205,1880.1953 L33.5205,1895.1953 M46.5205,1880.1953 L59.5205,1895.1953 " fill="none" style="stroke:#181818;stroke-width:0.5;"/><rect fill="#E2E2F0" height="32.6211" rx="2.5" ry="2.5" style="stroke:#181818;stroke-width:0.5;" width="165.7031" x="224.2114" y="50"/><text fill="#000000" font-family="sans-serif" font-size="14" lengthAdjust="spacing" textLength="151.7031" x="231.2114" y="72.1074">RegisterUserArrivalView</text><rect fill="#E2E2F0" height="32.6211" rx="2.5" ry="2.5" style="stroke:#181818;stroke-width:0.5;" width="165.7031" x="224.2114" y="1818.0742"/><text fill="#000000" font-family="sans-serif" font-size="14" lengthAdjust="spacing" textLength="151.7031" x="231.2114" y="1840.1816">RegisterUserArrivalView</text><rect fill="#E2E2F0" height="32.6211" rx="2.5" ry="2.5" style="stroke:#181818;stroke-width:0.5;" width="196.0479" x="497.0815" y="50"/><text fill="#000000" font-family="sans-serif" font-size="14" lengthAdjust="spacing" textLength="182.0479" x="504.0815" y="72.1074">RegisterUserArrivalController</text><rect fill="#E2E2F0" height="32.6211" rx="2.5" ry="2.5" style="stroke:#181818;stroke-width:0.5;" width="196.0479" x="497.0815" y="1818.0742"/><text fill="#000000" font-family="sans-serif" font-size="14" lengthAdjust="spacing" textLength="182.0479" x="504.0815" y="1840.1816">RegisterUserArrivalController</text><rect fill="#E2E2F0" height="32.6211" rx="2.5" ry="2.5" style="stroke:#181818;stroke-width:0.5;" width="38.9102" x="755.3193" y="50"/><text fill="#000000" font-family="sans-serif" font-size="14" lengthAdjust="spacing" textLength="24.9102" x="762.3193" y="72.1074">App</text><rect fill="#E2E2F0" height="32.6211" rx="2.5" ry="2.5" style="stroke:#181818;stroke-width:0.5;" width="38.9102" x="755.3193" y="1818.0742"/><text fill="#000000" font-family="sans-serif" font-size="14" lengthAdjust="spacing" textLength="24.9102" x="762.3193" y="1840.1816">App</text><rect fill="#E2E2F0" height="32.6211" rx="2.5" ry="2.5" style="stroke:#181818;stroke-width:0.5;" width="173.4961" x="918.3516" y="50"/><text fill="#000000" font-family="sans-serif" font-size="14" lengthAdjust="spacing" textLength="159.4961" x="925.3516" y="72.1074">factory:RepositoryFactory</text><rect fill="#E2E2F0" height="32.6211" rx="2.5" ry="2.5" style="stroke:#181818;stroke-width:0.5;" width="173.4961" x="918.3516" y="1818.0742"/><text fill="#000000" font-family="sans-serif" font-size="14" lengthAdjust="spacing" textLength="159.4961" x="925.3516" y="1840.1816">factory:RepositoryFactory</text><rect fill="#E2E2F0" height="32.6211" rx="2.5" ry="2.5" style="stroke:#181818;stroke-width:0.5;" width="178.1445" x="1101.8477" y="1818.0742"/><text fill="#000000" font-family="sans-serif" font-size="14" lengthAdjust="spacing" textLength="164.1445" x="1108.8477" y="1840.1816">service:UserArrivalService</text><rect fill="#E2E2F0" height="32.6211" rx="2.5" ry="2.5" style="stroke:#181818;stroke-width:0.5;" width="167.2617" x="1396.2197" y="50"/><text fill="#000000" font-family="sans-serif" font-size="14" lengthAdjust="spacing" textLength="153.2617" x="1403.2197" y="72.1074">service:SNSUserService</text><rect fill="#E2E2F0" height="32.6211" rx="2.5" ry="2.5" style="stroke:#181818;stroke-width:0.5;" width="167.2617" x="1396.2197" y="1818.0742"/><text fill="#000000" font-family="sans-serif" font-size="14" lengthAdjust="spacing" textLength="153.2617" x="1403.2197" y="1840.1816">service:SNSUserService</text><rect fill="#E2E2F0" height="32.6211" rx="2.5" ry="2.5" style="stroke:#181818;stroke-width:0.5;" width="217.8682" x="1573.4814" y="50"/><text fill="#000000" font-family="sans-serif" font-size="14" lengthAdjust="spacing" textLength="203.8682" x="1580.4814" y="72.1074">vcr:VaccinationCenterRepository</text><rect fill="#E2E2F0" height="32.6211" rx="2.5" ry="2.5" style="stroke:#181818;stroke-width:0.5;" width="217.8682" x="1573.4814" y="1818.0742"/><text fill="#000000" font-family="sans-serif" font-size="14" lengthAdjust="spacing" textLength="203.8682" x="1580.4814" y="1840.1816">vcr:VaccinationCenterRepository</text><rect fill="#E2E2F0" height="32.6211" rx="2.5" ry="2.5" style="stroke:#181818;stroke-width:0.5;" width="154.8135" x="1801.3496" y="50"/><text fill="#000000" font-family="sans-serif" font-size="14" lengthAdjust="spacing" textLength="140.8135" x="1808.3496" y="72.1074">sr:SNSUserRepository</text><rect fill="#E2E2F0" height="32.6211" rx="2.5" ry="2.5" style="stroke:#181818;stroke-width:0.5;" width="154.8135" x="1801.3496" y="1818.0742"/><text fill="#000000" font-family="sans-serif" font-size="14" lengthAdjust="spacing" textLength="140.8135" x="1808.3496" y="1840.1816">sr:SNSUserRepository</text><rect fill="#E2E2F0" height="32.6211" rx="2.5" ry="2.5" style="stroke:#181818;stroke-width:0.5;" width="174.2686" x="1966.1631" y="50"/><text fill="#000000" font-family="sans-serif" font-size="14" lengthAdjust="spacing" textLength="160.2686" x="1973.1631" y="72.1074">uar:UserArrivalRepository</text><rect fill="#E2E2F0" height="32.6211" rx="2.5" ry="2.5" style="stroke:#181818;stroke-width:0.5;" width="174.2686" x="1966.1631" y="1818.0742"/><text fill="#000000" font-family="sans-serif" font-size="14" lengthAdjust="spacing" textLength="160.2686" x="1973.1631" y="1840.1816">uar:UserArrivalRepository</text><rect fill="#E2E2F0" height="32.6211" rx="2.5" ry="2.5" style="stroke:#181818;stroke-width:0.5;" width="162.6201" x="2150.4316" y="1818.0742"/><text fill="#000000" font-family="sans-serif" font-size="14" lengthAdjust="spacing" textLength="148.6201" x="2157.4316" y="1840.1816">dtoList:List&lt;FacilityDto&gt;</text><rect fill="#E2E2F0" height="32.6211" rx="2.5" ry="2.5" style="stroke:#181818;stroke-width:0.5;" width="105.0479" x="2323.0518" y="1818.0742"/><text fill="#000000" font-family="sans-serif" font-size="14" lengthAdjust="spacing" textLength="91.0479" x="2330.0518" y="1840.1816">dto:&lt;UserDto&gt;</text><rect fill="#E2E2F0" height="32.6211" rx="2.5" ry="2.5" style="stroke:#181818;stroke-width:0.5;" width="125.2344" x="2438.0996" y="1818.0742"/><text fill="#000000" font-family="sans-serif" font-size="14" lengthAdjust="spacing" textLength="111.2344" x="2445.0996" y="1840.1816">arrival:UserArrival</text><rect fill="#FFFFFF" height="1716.4531" style="stroke:#181818;stroke-width:1.0;" width="10" x="41.5205" y="93.6211"/><rect fill="#FFFFFF" height="400.1523" style="stroke:#181818;stroke-width:1.0;" width="10" x="302.063" y="116.9121"/><rect fill="#FFFFFF" height="31.291" style="stroke:#181818;stroke-width:1.0;" width="10" x="302.063" y="548.3555"/><rect fill="#FFFFFF" height="393.8223" style="stroke:#181818;stroke-width:1.0;" width="10" x="302.063" y="610.9375"/><rect fill="#FFFFFF" height="726.7324" style="stroke:#181818;stroke-width:1.0;" width="10" x="302.063" y="1074.3418"/><rect fill="#FFFFFF" height="337.5703" style="stroke:#181818;stroke-width:1.0;" width="10" x="590.1055" y="148.2031"/><rect fill="#FFFFFF" height="325.2402" style="stroke:#181818;stroke-width:1.0;" width="10" x="590.1055" y="642.2285"/><rect fill="#FFFFFF" height="664.1504" style="stroke:#181818;stroke-width:1.0;" width="10" x="590.1055" y="1105.6328"/><rect fill="#FFFFFF" height="31.291" style="stroke:#181818;stroke-width:1.0;" width="10" x="769.7744" y="179.4941"/><rect fill="#FFFFFF" height="31.291" style="stroke:#181818;stroke-width:1.0;" width="10" x="769.7744" y="673.5195"/><rect fill="#FFFFFF" height="31.291" style="stroke:#181818;stroke-width:1.0;" width="10" x="769.7744" y="1136.9238"/><rect fill="#FFFFFF" height="31.291" style="stroke:#181818;stroke-width:1.0;" width="10" x="1000.0996" y="242.0762"/><rect fill="#FFFFFF" height="31.291" style="stroke:#181818;stroke-width:1.0;" width="10" x="1000.0996" y="736.1016"/><rect fill="#FFFFFF" height="31.291" style="stroke:#181818;stroke-width:1.0;" width="10" x="1000.0996" y="1199.5059"/><rect fill="#FFFFFF" height="31.291" style="stroke:#181818;stroke-width:1.0;" width="10" x="1000.0996" y="1262.0879"/><rect fill="#FFFFFF" height="31.291" style="stroke:#181818;stroke-width:1.0;" width="10" x="1000.0996" y="1324.6699"/><rect fill="#FFFFFF" height="37.291" style="stroke:#181818;stroke-width:1.0;" width="10" x="1185.9199" y="1387.252"/><rect fill="#FFFFFF" height="31.291" style="stroke:#181818;stroke-width:1.0;" width="10" x="1677.4155" y="379.5703"/><rect fill="#FFFFFF" height="31.291" style="stroke:#181818;stroke-width:1.0;" width="10" x="1677.4155" y="1525.416"/><rect fill="#FFFFFF" height="31.291" style="stroke:#181818;stroke-width:1.0;" width="10" x="1873.7563" y="861.2656"/><rect fill="#FFFFFF" height="31.291" style="stroke:#181818;stroke-width:1.0;" width="10" x="1873.7563" y="1462.834"/><rect fill="#FFFFFF" height="31.291" style="stroke:#181818;stroke-width:1.0;" width="10" x="2048.2974" y="1631.6191"/><rect fill="#FFFFFF" height="212.0762" style="stroke:#181818;stroke-width:1.0;" width="10" x="2495.7168" y="1597.998"/><polygon fill="#181818" points="290.063,112.9121,300.063,116.9121,290.063,120.9121,294.063,116.9121" style="stroke:#181818;stroke-width:1.0;"/><line style="stroke:#181818;stroke-width:1.0;" x1="51.5205" x2="296.063" y1="116.9121" y2="116.9121"/><text fill="#000000" font-family="sans-serif" font-size="13" font-weight="bold" lengthAdjust="spacing" textLength="7.23" x="58.5205" y="111.6494">1</text><text fill="#000000" font-family="sans-serif" font-size="13" lengthAdjust="spacing" textLength="190.0234" x="69.7505" y="111.6494">requests to register a user arrival</text><polygon fill="#181818" points="578.1055,144.2031,588.1055,148.2031,578.1055,152.2031,582.1055,148.2031" style="stroke:#181818;stroke-width:1.0;"/><line style="stroke:#181818;stroke-width:1.0;" x1="312.063" x2="584.1055" y1="148.2031" y2="148.2031"/><text fill="#000000" font-family="sans-serif" font-size="13" font-weight="bold" lengthAdjust="spacing" textLength="7.23" x="319.063" y="142.9404">2</text><text fill="#000000" font-family="sans-serif" font-size="13" lengthAdjust="spacing" textLength="75.1118" x="330.293" y="142.9404">listFacilities()</text><polygon fill="#181818" points="757.7744,175.4941,767.7744,179.4941,757.7744,183.4941,761.7744,179.4941" style="stroke:#181818;stroke-width:1.0;"/><line style="stroke:#181818;stroke-width:1.0;" x1="600.1055" x2="763.7744" y1="179.4941" y2="179.4941"/><text fill="#000000" font-family="sans-serif" font-size="13" font-weight="bold" lengthAdjust="spacing" textLength="7.23" x="607.1055" y="174.2314">3</text><text fill="#000000" font-family="sans-serif" font-size="13" lengthAdjust="spacing" textLength="132.209" x="618.3354" y="174.2314">getRepositoryFactory()</text><polygon fill="#181818" points="611.1055,206.7852,601.1055,210.7852,611.1055,214.7852,607.1055,210.7852" style="stroke:#181818;stroke-width:1.0;"/><line style="stroke:#181818;stroke-width:1.0;stroke-dasharray:2.0,2.0;" x1="605.1055" x2="773.7744" y1="210.7852" y2="210.7852"/><text fill="#000000" font-family="sans-serif" font-size="13" font-weight="bold" lengthAdjust="spacing" textLength="7.23" x="617.1055" y="205.5225">4</text><text fill="#000000" font-family="sans-serif" font-size="13" lengthAdjust="spacing" textLength="46.9727" x="628.3354" y="205.5225">repofact</text><polygon fill="#181818" points="988.0996,238.0762,998.0996,242.0762,988.0996,246.0762,992.0996,242.0762" style="stroke:#181818;stroke-width:1.0;"/><line style="stroke:#181818;stroke-width:1.0;" x1="774.7744" x2="994.0996" y1="242.0762" y2="242.0762"/><text fill="#000000" font-family="sans-serif" font-size="13" font-weight="bold" lengthAdjust="spacing" textLength="7.23" x="781.7744" y="236.8135">5</text><text fill="#000000" font-family="sans-serif" font-size="13" lengthAdjust="spacing" textLength="195.0952" x="793.0044" y="236.8135">getVaccinationCenterRepository()</text><polygon fill="#181818" points="785.7744,269.3672,775.7744,273.3672,785.7744,277.3672,781.7744,273.3672" style="stroke:#181818;stroke-width:1.0;"/><line style="stroke:#181818;stroke-width:1.0;stroke-dasharray:2.0,2.0;" x1="779.7744" x2="1004.0996" y1="273.3672" y2="273.3672"/><text fill="#000000" font-family="sans-serif" font-size="13" font-weight="bold" lengthAdjust="spacing" textLength="7.23" x="791.7744" y="268.1045">6</text><text fill="#000000" font-family="sans-serif" font-size="13" lengthAdjust="spacing" textLength="70.8208" x="803.0044" y="268.1045">vaccentrepo</text><polygon fill="#181818" points="1089.8477,300.6582,1099.8477,304.6582,1089.8477,308.6582,1093.8477,304.6582" style="stroke:#181818;stroke-width:1.0;"/><line style="stroke:#181818;stroke-width:1.0;stroke-dasharray:2.0,2.0;" x1="774.7744" x2="1095.8477" y1="304.6582" y2="304.6582"/><text fill="#000000" font-family="sans-serif" font-size="13" font-weight="bold" lengthAdjust="spacing" textLength="7.23" x="781.7744" y="299.3955">7</text><text fill="#000000" font-family="sans-serif" font-size="13" lengthAdjust="spacing" textLength="115.6099" x="793.0044" y="299.3955">create(vaccentrepo)</text><rect fill="#E2E2F0" height="32.6211" rx="2.5" ry="2.5" style="stroke:#181818;stroke-width:0.5;" width="178.1445" x="1101.8477" y="281.3672"/><text fill="#000000" font-family="sans-serif" font-size="14" lengthAdjust="spacing" textLength="164.1445" x="1108.8477" y="303.4746">service:UserArrivalService</text><polygon fill="#181818" points="611.1055,344.2793,601.1055,348.2793,611.1055,352.2793,607.1055,348.2793" style="stroke:#181818;stroke-width:1.0;"/><line style="stroke:#181818;stroke-width:1.0;stroke-dasharray:2.0,2.0;" x1="605.1055" x2="773.7744" y1="348.2793" y2="348.2793"/><text fill="#000000" font-family="sans-serif" font-size="13" font-weight="bold" lengthAdjust="spacing" textLength="7.23" x="617.1055" y="343.0166">8</text><text fill="#000000" font-family="sans-serif" font-size="13" lengthAdjust="spacing" textLength="70.8208" x="628.3354" y="343.0166">vaccentrepo</text><polygon fill="#181818" points="1665.4155,375.5703,1675.4155,379.5703,1665.4155,383.5703,1669.4155,379.5703" style="stroke:#181818;stroke-width:1.0;"/><line style="stroke:#181818;stroke-width:1.0;" x1="600.1055" x2="1671.4155" y1="379.5703" y2="379.5703"/><text fill="#000000" font-family="sans-serif" font-size="13" font-weight="bold" lengthAdjust="spacing" textLength="7.23" x="607.1055" y="374.3076">9</text><text fill="#000000" font-family="sans-serif" font-size="13" lengthAdjust="spacing" textLength="44.0654" x="618.3354" y="374.3076">findAll()</text><polygon fill="#181818" points="611.1055,406.8613,601.1055,410.8613,611.1055,414.8613,607.1055,410.8613" style="stroke:#181818;stroke-width:1.0;"/><line style="stroke:#181818;stroke-width:1.0;stroke-dasharray:2.0,2.0;" x1="605.1055" x2="1681.4155" y1="410.8613" y2="410.8613"/><text fill="#000000" font-family="sans-serif" font-size="13" font-weight="bold" lengthAdjust="spacing" textLength="14.46" x="617.1055" y="405.5986">10</text><text fill="#000000" font-family="sans-serif" font-size="13" lengthAdjust="spacing" textLength="46.2363" x="635.5654" y="405.5986">facilities</text><polygon fill="#181818" points="2138.4316,438.1523,2148.4316,442.1523,2138.4316,446.1523,2142.4316,442.1523" style="stroke:#181818;stroke-width:1.0;"/><line style="stroke:#181818;stroke-width:1.0;" x1="600.1055" x2="2144.4316" y1="442.1523" y2="442.1523"/><text fill="#000000" font-family="sans-serif" font-size="13" font-weight="bold" lengthAdjust="spacing" textLength="14.46" x="607.1055" y="436.8896">11</text><text fill="#000000" font-family="sans-serif" font-size="13" lengthAdjust="spacing" textLength="91.0254" x="625.5654" y="436.8896">create(facilities)</text><rect fill="#E2E2F0" height="32.6211" rx="2.5" ry="2.5" style="stroke:#181818;stroke-width:0.5;" width="162.6201" x="2150.4316" y="418.8613"/><text fill="#000000" font-family="sans-serif" font-size="14" lengthAdjust="spacing" textLength="148.6201" x="2157.4316" y="440.9688">dtoList:List&lt;FacilityDto&gt;</text><polygon fill="#181818" points="323.063,481.7734,313.063,485.7734,323.063,489.7734,319.063,485.7734" style="stroke:#181818;stroke-width:1.0;"/><line style="stroke:#181818;stroke-width:1.0;stroke-dasharray:2.0,2.0;" x1="317.063" x2="594.1055" y1="485.7734" y2="485.7734"/><text fill="#000000" font-family="sans-serif" font-size="13" font-weight="bold" lengthAdjust="spacing" textLength="14.46" x="329.063" y="480.5107">12</text><text fill="#000000" font-family="sans-serif" font-size="13" lengthAdjust="spacing" textLength="76.5781" x="347.5229" y="480.5107">facilityDtoList</text><polygon fill="#181818" points="62.5205,513.0645,52.5205,517.0645,62.5205,521.0645,58.5205,517.0645" style="stroke:#181818;stroke-width:1.0;"/><line style="stroke:#181818;stroke-width:1.0;stroke-dasharray:2.0,2.0;" x1="56.5205" x2="306.063" y1="517.0645" y2="517.0645"/><text fill="#000000" font-family="sans-serif" font-size="13" font-weight="bold" lengthAdjust="spacing" textLength="14.46" x="68.5205" y="511.8018">13</text><text fill="#000000" font-family="sans-serif" font-size="13" lengthAdjust="spacing" textLength="140.1689" x="86.9805" y="511.8018">asks to select the facility</text><polygon fill="#181818" points="290.063,544.3555,300.063,548.3555,290.063,552.3555,294.063,548.3555" style="stroke:#181818;stroke-width:1.0;"/><line style="stroke:#181818;stroke-width:1.0;" x1="51.5205" x2="296.063" y1="548.3555" y2="548.3555"/><text fill="#000000" font-family="sans-serif" font-size="13" font-weight="bold" lengthAdjust="spacing" textLength="14.46" x="58.5205" y="543.0928">14</text><text fill="#000000" font-family="sans-serif" font-size="13" lengthAdjust="spacing" textLength="80.1899" x="76.9805" y="543.0928">selects facility</text><polygon fill="#181818" points="62.5205,575.6465,52.5205,579.6465,62.5205,583.6465,58.5205,579.6465" style="stroke:#181818;stroke-width:1.0;"/><line style="stroke:#181818;stroke-width:1.0;stroke-dasharray:2.0,2.0;" x1="56.5205" x2="306.063" y1="579.6465" y2="579.6465"/><text fill="#000000" font-family="sans-serif" font-size="13" font-weight="bold" lengthAdjust="spacing" textLength="14.46" x="68.5205" y="574.3838">15</text><text fill="#000000" font-family="sans-serif" font-size="13" lengthAdjust="spacing" textLength="208.0825" x="86.9805" y="574.3838">asks to select a SNS_User_Number</text><polygon fill="#181818" points="290.063,606.9375,300.063,610.9375,290.063,614.9375,294.063,610.9375" style="stroke:#181818;stroke-width:1.0;"/><line style="stroke:#181818;stroke-width:1.0;" x1="51.5205" x2="296.063" y1="610.9375" y2="610.9375"/><text fill="#000000" font-family="sans-serif" font-size="13" font-weight="bold" lengthAdjust="spacing" textLength="14.46" x="58.5205" y="605.6748">16</text><text fill="#000000" font-family="sans-serif" font-size="13" lengthAdjust="spacing" textLength="164.728" x="76.9805" y="605.6748">types a SNS_User_Numberr</text><polygon fill="#181818" points="578.1055,638.2285,588.1055,642.2285,578.1055,646.2285,582.1055,642.2285" style="stroke:#181818;stroke-width:1.0;"/><line style="stroke:#181818;stroke-width:1.0;" x1="312.063" x2="584.1055" y1="642.2285" y2="642.2285"/><text fill="#000000" font-family="sans-serif" font-size="13" font-weight="bold" lengthAdjust="spacing" textLength="14.46" x="319.063" y="636.9658">17</text><text fill="#000000" font-family="sans-serif" font-size="13" lengthAdjust="spacing" textLength="240.5825" x="337.5229" y="636.9658">getSNSUserSummary(sns_user_number)</text><polygon fill="#181818" points="757.7744,669.5195,767.7744,673.5195,757.7744,677.5195,761.7744,673.5195" style="stroke:#181818;stroke-width:1.0;"/><line style="stroke:#181818;stroke-width:1.0;" x1="600.1055" x2="763.7744" y1="673.5195" y2="673.5195"/><text fill="#000000" font-family="sans-serif" font-size="13" font-weight="bold" lengthAdjust="spacing" textLength="14.46" x="607.1055" y="668.2568">18</text><text fill="#000000" font-family="sans-serif" font-size="13" lengthAdjust="spacing" textLength="132.209" x="625.5654" y="668.2568">getRepositoryFactory()</text><polygon fill="#181818" points="611.1055,700.8105,601.1055,704.8105,611.1055,708.8105,607.1055,704.8105" style="stroke:#181818;stroke-width:1.0;"/><line style="stroke:#181818;stroke-width:1.0;stroke-dasharray:2.0,2.0;" x1="605.1055" x2="773.7744" y1="704.8105" y2="704.8105"/><text fill="#000000" font-family="sans-serif" font-size="13" font-weight="bold" lengthAdjust="spacing" textLength="14.46" x="617.1055" y="699.5479">19</text><text fill="#000000" font-family="sans-serif" font-size="13" lengthAdjust="spacing" textLength="46.9727" x="635.5654" y="699.5479">repofact</text><polygon fill="#181818" points="988.0996,732.1016,998.0996,736.1016,988.0996,740.1016,992.0996,736.1016" style="stroke:#181818;stroke-width:1.0;"/><line style="stroke:#181818;stroke-width:1.0;" x1="774.7744" x2="994.0996" y1="736.1016" y2="736.1016"/><text fill="#000000" font-family="sans-serif" font-size="13" font-weight="bold" lengthAdjust="spacing" textLength="14.46" x="781.7744" y="730.8389">20</text><text fill="#000000" font-family="sans-serif" font-size="13" lengthAdjust="spacing" textLength="143.0444" x="800.2344" y="730.8389">getSNSUserRepository()</text><polygon fill="#181818" points="785.7744,763.3926,775.7744,767.3926,785.7744,771.3926,781.7744,767.3926" style="stroke:#181818;stroke-width:1.0;"/><line style="stroke:#181818;stroke-width:1.0;stroke-dasharray:2.0,2.0;" x1="779.7744" x2="1004.0996" y1="767.3926" y2="767.3926"/><text fill="#000000" font-family="sans-serif" font-size="13" font-weight="bold" lengthAdjust="spacing" textLength="14.46" x="791.7744" y="762.1299">21</text><text fill="#000000" font-family="sans-serif" font-size="13" lengthAdjust="spacing" textLength="51.3081" x="810.2344" y="762.1299">userrepo</text><polygon fill="#181818" points="1178.9199,794.6836,1188.9199,798.6836,1178.9199,802.6836,1182.9199,798.6836" style="stroke:#181818;stroke-width:1.0;"/><line style="stroke:#181818;stroke-width:1.0;stroke-dasharray:2.0,2.0;" x1="774.7744" x2="1184.9199" y1="798.6836" y2="798.6836"/><text fill="#000000" font-family="sans-serif" font-size="13" font-weight="bold" lengthAdjust="spacing" textLength="14.46" x="781.7744" y="793.4209">22</text><text fill="#000000" font-family="sans-serif" font-size="13" lengthAdjust="spacing" textLength="96.0972" x="800.2344" y="793.4209">create(userrepo)</text><polygon fill="#181818" points="611.1055,825.9746,601.1055,829.9746,611.1055,833.9746,607.1055,829.9746" style="stroke:#181818;stroke-width:1.0;"/><line style="stroke:#181818;stroke-width:1.0;stroke-dasharray:2.0,2.0;" x1="605.1055" x2="773.7744" y1="829.9746" y2="829.9746"/><text fill="#000000" font-family="sans-serif" font-size="13" font-weight="bold" lengthAdjust="spacing" textLength="14.46" x="617.1055" y="824.7119">23</text><text fill="#000000" font-family="sans-serif" font-size="13" lengthAdjust="spacing" textLength="51.3081" x="635.5654" y="824.7119">userrepo</text><polygon fill="#181818" points="1861.7563,857.2656,1871.7563,861.2656,1861.7563,865.2656,1865.7563,861.2656" style="stroke:#181818;stroke-width:1.0;"/><line style="stroke:#181818;stroke-width:1.0;" x1="600.1055" x2="1867.7563" y1="861.2656" y2="861.2656"/><text fill="#000000" font-family="sans-serif" font-size="13" font-weight="bold" lengthAdjust="spacing" textLength="14.46" x="607.1055" y="856.0029">24</text><text fill="#000000" font-family="sans-serif" font-size="13" lengthAdjust="spacing" textLength="249.2598" x="625.5654" y="856.0029">findBySNSUserNumber(sns_user_number)</text><polygon fill="#181818" points="611.1055,888.5566,601.1055,892.5566,611.1055,896.5566,607.1055,892.5566" style="stroke:#181818;stroke-width:1.0;"/><line style="stroke:#181818;stroke-width:1.0;stroke-dasharray:2.0,2.0;" x1="605.1055" x2="1877.7563" y1="892.5566" y2="892.5566"/><text fill="#000000" font-family="sans-serif" font-size="13" font-weight="bold" lengthAdjust="spacing" textLength="14.46" x="617.1055" y="887.2939">25</text><text fill="#000000" font-family="sans-serif" font-size="13" lengthAdjust="spacing" textLength="25.2891" x="635.5654" y="887.2939">user</text><polygon fill="#181818" points="2311.0518,919.8477,2321.0518,923.8477,2311.0518,927.8477,2315.0518,923.8477" style="stroke:#181818;stroke-width:1.0;"/><line style="stroke:#181818;stroke-width:1.0;" x1="600.1055" x2="2317.0518" y1="923.8477" y2="923.8477"/><text fill="#000000" font-family="sans-serif" font-size="13" font-weight="bold" lengthAdjust="spacing" textLength="14.46" x="607.1055" y="918.585">26</text><text fill="#000000" font-family="sans-serif" font-size="13" lengthAdjust="spacing" textLength="70.0781" x="625.5654" y="918.585">create(user)</text><rect fill="#E2E2F0" height="32.6211" rx="2.5" ry="2.5" style="stroke:#181818;stroke-width:0.5;" width="105.0479" x="2323.0518" y="900.5566"/><text fill="#000000" font-family="sans-serif" font-size="14" lengthAdjust="spacing" textLength="91.0479" x="2330.0518" y="922.6641">dto:&lt;UserDto&gt;</text><polygon fill="#181818" points="323.063,963.4688,313.063,967.4688,323.063,971.4688,319.063,967.4688" style="stroke:#181818;stroke-width:1.0;"/><line style="stroke:#181818;stroke-width:1.0;stroke-dasharray:2.0,2.0;" x1="317.063" x2="594.1055" y1="967.4688" y2="967.4688"/><text fill="#000000" font-family="sans-serif" font-size="13" font-weight="bold" lengthAdjust="spacing" textLength="14.46" x="329.063" y="962.2061">27</text><text fill="#000000" font-family="sans-serif" font-size="13" lengthAdjust="spacing" textLength="43.3608" x="347.5229" y="962.2061">userdto</text><line style="stroke:#181818;stroke-width:1.0;stroke-dasharray:2.0,2.0;" x1="312.063" x2="354.063" y1="1003.7598" y2="1003.7598"/><line style="stroke:#181818;stroke-width:1.0;stroke-dasharray:2.0,2.0;" x1="354.063" x2="354.063" y1="1003.7598" y2="1016.7598"/><line style="stroke:#181818;stroke-width:1.0;stroke-dasharray:2.0,2.0;" x1="307.063" x2="354.063" y1="1016.7598" y2="1016.7598"/><polygon fill="#181818" points="317.063,1012.7598,307.063,1016.7598,317.063,1020.7598,313.063,1016.7598" style="stroke:#181818;stroke-width:1.0;"/><text fill="#000000" font-family="sans-serif" font-size="13" font-weight="bold" lengthAdjust="spacing" textLength="14.46" x="319.063" y="998.4971">28</text><text fill="#000000" font-family="sans-serif" font-size="13" lengthAdjust="spacing" textLength="119.228" x="337.5229" y="998.4971">prepares arrival data</text><polygon fill="#181818" points="62.5205,1039.0508,52.5205,1043.0508,62.5205,1047.0508,58.5205,1043.0508" style="stroke:#181818;stroke-width:1.0;"/><line style="stroke:#181818;stroke-width:1.0;stroke-dasharray:2.0,2.0;" x1="56.5205" x2="306.063" y1="1043.0508" y2="1043.0508"/><text fill="#000000" font-family="sans-serif" font-size="13" font-weight="bold" lengthAdjust="spacing" textLength="14.46" x="68.5205" y="1037.7881">29</text><text fill="#000000" font-family="sans-serif" font-size="13" lengthAdjust="spacing" textLength="119.9326" x="86.9805" y="1037.7881">asks for confirmation</text><polygon fill="#181818" points="290.063,1070.3418,300.063,1074.3418,290.063,1078.3418,294.063,1074.3418" style="stroke:#181818;stroke-width:1.0;"/><line style="stroke:#181818;stroke-width:1.0;" x1="51.5205" x2="296.063" y1="1074.3418" y2="1074.3418"/><text fill="#000000" font-family="sans-serif" font-size="13" font-weight="bold" lengthAdjust="spacing" textLength="14.46" x="58.5205" y="1069.0791">30</text><text fill="#000000" font-family="sans-serif" font-size="13" lengthAdjust="spacing" textLength="78.0317" x="76.9805" y="1069.0791">confirms data</text><polygon fill="#181818" points="578.1055,1101.6328,588.1055,1105.6328,578.1055,1109.6328,582.1055,1105.6328" style="stroke:#181818;stroke-width:1.0;"/><line style="stroke:#181818;stroke-width:1.0;" x1="312.063" x2="584.1055" y1="1105.6328" y2="1105.6328"/><text fill="#000000" font-family="sans-serif" font-size="13" font-weight="bold" lengthAdjust="spacing" textLength="14.46" x="319.063" y="1100.3701">31</text><text fill="#000000" font-family="sans-serif" font-size="13" lengthAdjust="spacing" textLength="116.2827" x="337.5229" y="1100.3701">registerArrival(DTO)</text><polygon fill="#181818" points="757.7744,1132.9238,767.7744,1136.9238,757.7744,1140.9238,761.7744,1136.9238" style="stroke:#181818;stroke-width:1.0;"/><line style="stroke:#181818;stroke-width:1.0;" x1="600.1055" x2="763.7744" y1="1136.9238" y2="1136.9238"/><text fill="#000000" font-family="sans-serif" font-size="13" font-weight="bold" lengthAdjust="spacing" textLength="14.46" x="607.1055" y="1131.6611">32</text><text fill="#000000" font-family="sans-serif" font-size="13" lengthAdjust="spacing" textLength="132.209" x="625.5654" y="1131.6611">getRepositoryFactory()</text><polygon fill="#181818" points="611.1055,1164.2148,601.1055,1168.2148,611.1055,1172.2148,607.1055,1168.2148" style="stroke:#181818;stroke-width:1.0;"/><line style="stroke:#181818;stroke-width:1.0;stroke-dasharray:2.0,2.0;" x1="605.1055" x2="773.7744" y1="1168.2148" y2="1168.2148"/><text fill="#000000" font-family="sans-serif" font-size="13" font-weight="bold" lengthAdjust="spacing" textLength="14.46" x="617.1055" y="1162.9521">33</text><text fill="#000000" font-family="sans-serif" font-size="13" lengthAdjust="spacing" textLength="46.9727" x="635.5654" y="1162.9521">repofact</text><polygon fill="#181818" points="988.0996,1195.5059,998.0996,1199.5059,988.0996,1203.5059,992.0996,1199.5059" style="stroke:#181818;stroke-width:1.0;"/><line style="stroke:#181818;stroke-width:1.0;" x1="600.1055" x2="994.0996" y1="1199.5059" y2="1199.5059"/><text fill="#000000" font-family="sans-serif" font-size="13" font-weight="bold" lengthAdjust="spacing" textLength="14.46" x="607.1055" y="1194.2432">34</text><text fill="#000000" font-family="sans-serif" font-size="13" lengthAdjust="spacing" textLength="153.1499" x="625.5654" y="1194.2432">getUserArrivalRepository()</text><polygon fill="#181818" points="611.1055,1226.7969,601.1055,1230.7969,611.1055,1234.7969,607.1055,1230.7969" style="stroke:#181818;stroke-width:1.0;"/><line style="stroke:#181818;stroke-width:1.0;stroke-dasharray:2.0,2.0;" x1="605.1055" x2="1004.0996" y1="1230.7969" y2="1230.7969"/><text fill="#000000" font-family="sans-serif" font-size="13" font-weight="bold" lengthAdjust="spacing" textLength="14.46" x="617.1055" y="1225.5342">35</text><text fill="#000000" font-family="sans-serif" font-size="13" lengthAdjust="spacing" textLength="51.2954" x="635.5654" y="1225.5342">arrvlrepo</text><polygon fill="#181818" points="988.0996,1258.0879,998.0996,1262.0879,988.0996,1266.0879,992.0996,1262.0879" style="stroke:#181818;stroke-width:1.0;"/><line style="stroke:#181818;stroke-width:1.0;" x1="600.1055" x2="994.0996" y1="1262.0879" y2="1262.0879"/><text fill="#000000" font-family="sans-serif" font-size="13" font-weight="bold" lengthAdjust="spacing" textLength="14.46" x="607.1055" y="1256.8252">36</text><text fill="#000000" font-family="sans-serif" font-size="13" lengthAdjust="spacing" textLength="143.0444" x="625.5654" y="1256.8252">getSNSUserRepository()</text><polygon fill="#181818" points="611.1055,1289.3789,601.1055,1293.3789,611.1055,1297.3789,607.1055,1293.3789" style="stroke:#181818;stroke-width:1.0;"/><line style="stroke:#181818;stroke-width:1.0;stroke-dasharray:2.0,2.0;" x1="605.1055" x2="1004.0996" y1="1293.3789" y2="1293.3789"/><text fill="#000000" font-family="sans-serif" font-size="13" font-weight="bold" lengthAdjust="spacing" textLength="14.46" x="617.1055" y="1288.1162">37</text><text fill="#000000" font-family="sans-serif" font-size="13" lengthAdjust="spacing" textLength="51.3081" x="635.5654" y="1288.1162">userrepo</text><polygon fill="#181818" points="988.0996,1320.6699,998.0996,1324.6699,988.0996,1328.6699,992.0996,1324.6699" style="stroke:#181818;stroke-width:1.0;"/><line style="stroke:#181818;stroke-width:1.0;" x1="600.1055" x2="994.0996" y1="1324.6699" y2="1324.6699"/><text fill="#000000" font-family="sans-serif" font-size="13" font-weight="bold" lengthAdjust="spacing" textLength="14.46" x="607.1055" y="1319.4072">38</text><text fill="#000000" font-family="sans-serif" font-size="13" lengthAdjust="spacing" textLength="195.0952" x="625.5654" y="1319.4072">getVaccinationCenterRepository()</text><polygon fill="#181818" points="611.1055,1351.9609,601.1055,1355.9609,611.1055,1359.9609,607.1055,1355.9609" style="stroke:#181818;stroke-width:1.0;"/><line style="stroke:#181818;stroke-width:1.0;stroke-dasharray:2.0,2.0;" x1="605.1055" x2="1004.0996" y1="1355.9609" y2="1355.9609"/><text fill="#000000" font-family="sans-serif" font-size="13" font-weight="bold" lengthAdjust="spacing" textLength="14.46" x="617.1055" y="1350.6982">39</text><text fill="#000000" font-family="sans-serif" font-size="13" lengthAdjust="spacing" textLength="70.8208" x="635.5654" y="1350.6982">vaccentrepo</text><polygon fill="#181818" points="1173.9199,1383.252,1183.9199,1387.252,1173.9199,1391.252,1177.9199,1387.252" style="stroke:#181818;stroke-width:1.0;"/><line style="stroke:#181818;stroke-width:1.0;" x1="600.1055" x2="1179.9199" y1="1387.252" y2="1387.252"/><text fill="#000000" font-family="sans-serif" font-size="13" font-weight="bold" lengthAdjust="spacing" textLength="14.46" x="607.1055" y="1381.9893">40</text><text fill="#000000" font-family="sans-serif" font-size="13" lengthAdjust="spacing" textLength="304.1606" x="625.5654" y="1381.9893">UserArrivalService(arrvlrepo, userrepo, vaccentrepo)</text><line style="stroke:#181818;stroke-width:1.0;stroke-dasharray:2.0,2.0;" x1="1195.9199" x2="1237.9199" y1="1423.543" y2="1423.543"/><line style="stroke:#181818;stroke-width:1.0;stroke-dasharray:2.0,2.0;" x1="1237.9199" x2="1237.9199" y1="1423.543" y2="1436.543"/><line style="stroke:#181818;stroke-width:1.0;stroke-dasharray:2.0,2.0;" x1="1190.9199" x2="1237.9199" y1="1436.543" y2="1436.543"/><polygon fill="#181818" points="1200.9199,1432.543,1190.9199,1436.543,1200.9199,1440.543,1196.9199,1436.543" style="stroke:#181818;stroke-width:1.0;"/><text fill="#000000" font-family="sans-serif" font-size="13" font-weight="bold" lengthAdjust="spacing" textLength="14.46" x="1202.9199" y="1418.2803">41</text><text fill="#000000" font-family="sans-serif" font-size="13" lengthAdjust="spacing" textLength="133.3135" x="1221.3799" y="1418.2803">day = getCurrentDate()</text><polygon fill="#181818" points="1861.7563,1458.834,1871.7563,1462.834,1861.7563,1466.834,1865.7563,1462.834" style="stroke:#181818;stroke-width:1.0;"/><line style="stroke:#181818;stroke-width:1.0;" x1="1190.9199" x2="1867.7563" y1="1462.834" y2="1462.834"/><text fill="#000000" font-family="sans-serif" font-size="13" font-weight="bold" lengthAdjust="spacing" textLength="14.46" x="1197.9199" y="1457.5713">42</text><text fill="#000000" font-family="sans-serif" font-size="13" lengthAdjust="spacing" textLength="280.3125" x="1216.3799" y="1457.5713">findBySNSUserNumber(DTO.sns_user_number)</text><polygon fill="#181818" points="1201.9199,1490.125,1191.9199,1494.125,1201.9199,1498.125,1197.9199,1494.125" style="stroke:#181818;stroke-width:1.0;"/><line style="stroke:#181818;stroke-width:1.0;stroke-dasharray:2.0,2.0;" x1="1195.9199" x2="1877.7563" y1="1494.125" y2="1494.125"/><text fill="#000000" font-family="sans-serif" font-size="13" font-weight="bold" lengthAdjust="spacing" textLength="14.46" x="1207.9199" y="1488.8623">43</text><text fill="#000000" font-family="sans-serif" font-size="13" lengthAdjust="spacing" textLength="25.2891" x="1226.3799" y="1488.8623">user</text><polygon fill="#181818" points="1665.4155,1521.416,1675.4155,1525.416,1665.4155,1529.416,1669.4155,1525.416" style="stroke:#181818;stroke-width:1.0;"/><line style="stroke:#181818;stroke-width:1.0;" x1="1190.9199" x2="1671.4155" y1="1525.416" y2="1525.416"/><text fill="#000000" font-family="sans-serif" font-size="13" font-weight="bold" lengthAdjust="spacing" textLength="14.46" x="1197.9199" y="1520.1533">44</text><text fill="#000000" font-family="sans-serif" font-size="13" lengthAdjust="spacing" textLength="133.6436" x="1216.3799" y="1520.1533">findById(DTO.facilityId)</text><polygon fill="#181818" points="1201.9199,1552.707,1191.9199,1556.707,1201.9199,1560.707,1197.9199,1556.707" style="stroke:#181818;stroke-width:1.0;"/><line style="stroke:#181818;stroke-width:1.0;stroke-dasharray:2.0,2.0;" x1="1195.9199" x2="1681.4155" y1="1556.707" y2="1556.707"/><text fill="#000000" font-family="sans-serif" font-size="13" font-weight="bold" lengthAdjust="spacing" textLength="14.46" x="1207.9199" y="1551.4443">45</text><text fill="#000000" font-family="sans-serif" font-size="13" lengthAdjust="spacing" textLength="36.1182" x="1226.3799" y="1551.4443">facility</text><polygon fill="#181818" points="2426.0996,1583.998,2436.0996,1587.998,2426.0996,1591.998,2430.0996,1587.998" style="stroke:#181818;stroke-width:1.0;"/><line style="stroke:#181818;stroke-width:1.0;" x1="1190.9199" x2="2432.0996" y1="1587.998" y2="1587.998"/><text fill="#000000" font-family="sans-serif" font-size="13" font-weight="bold" lengthAdjust="spacing" textLength="14.46" x="1197.9199" y="1582.7354">46</text><text fill="#000000" font-family="sans-serif" font-size="13" lengthAdjust="spacing" textLength="172.6436" x="1216.3799" y="1582.7354">UserArrival(now, user, facility)</text><rect fill="#E2E2F0" height="32.6211" rx="2.5" ry="2.5" style="stroke:#181818;stroke-width:0.5;" width="125.2344" x="2438.0996" y="1564.707"/><text fill="#000000" font-family="sans-serif" font-size="14" lengthAdjust="spacing" textLength="111.2344" x="2445.0996" y="1586.8145">arrival:UserArrival</text><polygon fill="#181818" points="2036.2974,1627.6191,2046.2974,1631.6191,2036.2974,1635.6191,2040.2974,1631.6191" style="stroke:#181818;stroke-width:1.0;"/><line style="stroke:#181818;stroke-width:1.0;" x1="1190.9199" x2="2042.2974" y1="1631.6191" y2="1631.6191"/><text fill="#000000" font-family="sans-serif" font-size="13" font-weight="bold" lengthAdjust="spacing" textLength="14.46" x="1197.9199" y="1626.3564">47</text><text fill="#000000" font-family="sans-serif" font-size="13" lengthAdjust="spacing" textLength="71.5127" x="1216.3799" y="1626.3564">save(arrival)</text><polygon fill="#181818" points="1201.9199,1658.9102,1191.9199,1662.9102,1201.9199,1666.9102,1197.9199,1662.9102" style="stroke:#181818;stroke-width:1.0;"/><line style="stroke:#181818;stroke-width:1.0;stroke-dasharray:2.0,2.0;" x1="1195.9199" x2="2052.2974" y1="1662.9102" y2="1662.9102"/><text fill="#000000" font-family="sans-serif" font-size="13" font-weight="bold" lengthAdjust="spacing" textLength="14.46" x="1207.9199" y="1657.6475">48</text><text fill="#000000" font-family="sans-serif" font-size="13" lengthAdjust="spacing" textLength="59.2427" x="1226.3799" y="1657.6475">Result OK</text><line style="stroke:#181818;stroke-width:1.0;stroke-dasharray:2.0,2.0;" x1="1190.9199" x2="1232.9199" y1="1699.2012" y2="1699.2012"/><line style="stroke:#181818;stroke-width:1.0;stroke-dasharray:2.0,2.0;" x1="1232.9199" x2="1232.9199" y1="1699.2012" y2="1712.2012"/><line style="stroke:#181818;stroke-width:1.0;stroke-dasharray:2.0,2.0;" x1="1185.9199" x2="1232.9199" y1="1712.2012" y2="1712.2012"/><polygon fill="#181818" points="1195.9199,1708.2012,1185.9199,1712.2012,1195.9199,1716.2012,1191.9199,1712.2012" style="stroke:#181818;stroke-width:1.0;"/><text fill="#000000" font-family="sans-serif" font-size="13" font-weight="bold" lengthAdjust="spacing" textLength="14.46" x="1197.9199" y="1693.9385">49</text><text fill="#000000" font-family="sans-serif" font-size="13" lengthAdjust="spacing" textLength="256.4707" x="1216.3799" y="1693.9385">assigns SNS_User to waiting_room (implicit)</text><polygon fill="#181818" points="611.1055,1734.4922,601.1055,1738.4922,611.1055,1742.4922,607.1055,1738.4922" style="stroke:#181818;stroke-width:1.0;"/><line style="stroke:#181818;stroke-width:1.0;stroke-dasharray:2.0,2.0;" x1="605.1055" x2="1189.9199" y1="1738.4922" y2="1738.4922"/><text fill="#000000" font-family="sans-serif" font-size="13" font-weight="bold" lengthAdjust="spacing" textLength="14.46" x="617.1055" y="1733.2295">50</text><text fill="#000000" font-family="sans-serif" font-size="13" lengthAdjust="spacing" textLength="59.2427" x="635.5654" y="1733.2295">Result OK</text><polygon fill="#181818" points="323.063,1765.7832,313.063,1769.7832,323.063,1773.7832,319.063,1769.7832" style="stroke:#181818;stroke-width:1.0;"/><line style="stroke:#181818;stroke-width:1.0;stroke-dasharray:2.0,2.0;" x1="317.063" x2="594.1055" y1="1769.7832" y2="1769.7832"/><text fill="#000000" font-family="sans-serif" font-size="13" font-weight="bold" lengthAdjust="spacing" textLength="14.46" x="329.063" y="1764.5205">51</text><text fill="#000000" font-family="sans-serif" font-size="13" lengthAdjust="spacing" textLength="59.2427" x="347.5229" y="1764.5205">Result OK</text><polygon fill="#181818" points="62.5205,1797.0742,52.5205,1801.0742,62.5205,1805.0742,58.5205,1801.0742" style="stroke:#181818;stroke-width:1.0;"/><line style="stroke:#181818;stroke-width:1.0;stroke-dasharray:2.0,2.0;" x1="56.5205" x2="306.063" y1="1801.0742" y2="1801.0742"/><text fill="#000000" font-family="sans-serif" font-size="13" font-weight="bold" lengthAdjust="spacing" textLength="14.46" x="68.5205" y="1795.8115">52</text><text fill="#000000" font-family="sans-serif" font-size="13" lengthAdjust="spacing" textLength="187.1479" x="86.9805" y="1795.8115">informs success of the operation</text><!--SRC=[jLPTRziW57tthq1zMLBrGtkrkaXfgadLfbPgjxv6pCOf6WO6E5N-_IvWOy1ECqtRIsjpxpaSttkuvCEhCLANrzUIOMwwbbrLehtMv5T7U4KkQuft2hS5xep0bQ5xR0WItBtphlr1L54K410AFP6AI4C5fzeWh96oxuN4oj2AIY27Z1t4YFgkYLeh1MJiXP8tcsp_dyhT26wKO8meYwZ2Mu9RIscZM4gdomlsKfAyiyQfFfHFH0fDxUDdltBcnKjXCr8CQDdJYfIHg6U_v41zU1xp_F1iOJFv7rF0lbBb2wugoh6jvePmACEeqY7t48TrgpBRJGqRPOWEbgRf7LRnnsGOhDIUJK6r4L-XDwNzSmD5euoQmvqHAmUA5cp215hUs0r3kjK5grbpiDSJQniKsMVmd6ifkbmvvvJGBp2iDXeP0S_UEWWxzX7ap0QGqJebOf3QIwP4BvR56BIfuACIxOYPk0Go8OOkCxhW6nTSXNT7yavNWMv8TPnktxZBmsQzPyxFIrGf0kPUH5dpccAQzEkYI8aQokirOw0aMfwGDQ5M6LVMzqZW24ch6vhNP9Rf6-NA1rqkeVC_NMSrOGGAP5v9mEH6y2bwZ9yYmmWEpDOQRVlW1rh6YCn14ZtDK_E6WZuFHxrhMmojrLnlhH6tVc3-LujD3l-iiS8mo5mLMZOap2i8yFH3XcLlfTj3hyLNQrg58NsMVeOQfaHaAhjon4vXf8JE-tK9ks55mXH1DJPutXuDt6V0tL3LkkEQUwAFQKynwuDX2lNZQt7txN5P_AlMfpI90sR7UUw2c7ISyk-mdlJL7_ZZRsVXiLcMqGSFJs_dHVZ6Yo3k0YM3i-ZXwN6eyG5zid8t7O2ukRFMMuwvfqmFJRzwt_XXA-VwY7WocsyFzxKZ74RRVJqTrO5kd7_-m8HRCDfYk6NZYYsuUFD5kWWSSNLMerzWsEAzgwq5WcE7GAhaYUYE6VJuvKYDiTPqntKOhtOsls6uB_XkguHeqOAsai5F0xDC269RZ7lCJeGnd9zsok6empdM7THHQoGQTxi8IPG_-By1]--></g></svg>