<svg xmlns="http://www.w3.org/2000/svg" xmlns:xlink="http://www.w3.org/1999/xlink" contentStyleType="text/css" height="561px" preserveAspectRatio="none" style="width:1204px;height:561px;background:#FFFFFF;" version="1.1" viewBox="0 0 1204 561" width="1204px" zoomAndPan="magnify"><defs/><g><!--class RegisterVaccineView--><g id="elem_RegisterVaccineView"><rect codeLine="6" fill="#F1F1F1" height="44.6211" id="RegisterVaccineView" rx="2.5" ry="2.5" style="stroke:#181818;stroke-width:0.5;" width="138.2822" x="511.5" y="7"/><text fill="#000000" font-family="sans-serif" font-size="14" lengthAdjust="spacing" textLength="132.2822" x="514.5" y="27.1074">RegisterVaccineView</text><line style="stroke:#181818;stroke-width:0.5;" x1="512.5" x2="648.7822" y1="35.6211" y2="35.6211"/><line style="stroke:#181818;stroke-width:0.5;" x1="512.5" x2="648.7822" y1="43.6211" y2="43.6211"/></g><!--class RegisterVaccineController--><g id="elem_RegisterVaccineController"><rect codeLine="9" fill="#F1F1F1" height="81.8633" id="RegisterVaccineController" rx="2.5" ry="2.5" style="stroke:#181818;stroke-width:0.5;" width="427.9258" x="366.5" y="113"/><text fill="#000000" font-family="sans-serif" font-size="14" lengthAdjust="spacing" textLength="162.627" x="499.1494" y="133.1074">RegisterVaccineController</text><line style="stroke:#181818;stroke-width:0.5;" x1="367.5" x2="793.4258" y1="141.6211" y2="141.6211"/><line style="stroke:#181818;stroke-width:0.5;" x1="367.5" x2="793.4258" y1="149.6211" y2="149.6211"/><text fill="#000000" font-family="sans-serif" font-size="14" lengthAdjust="spacing" textLength="415.9258" x="372.5" y="168.7285">+registerVaccine(string name, string brand, string technology): void</text><text fill="#000000" font-family="sans-serif" font-size="14" lengthAdjust="spacing" textLength="194.1475" x="372.5" y="187.3496">+saveCreatedVaccine(): Result</text></g><!--class Administrator--><g id="elem_Administrator"><rect codeLine="14" fill="#F1F1F1" height="81.8633" id="Administrator" rx="2.5" ry="2.5" style="stroke:#181818;stroke-width:0.5;" width="284.7607" x="7" y="274.5"/><text fill="#000000" font-family="sans-serif" font-size="14" lengthAdjust="spacing" textLength="82.4688" x="108.146" y="294.6074">Administrator</text><line style="stroke:#181818;stroke-width:0.5;" x1="8" x2="290.7607" y1="303.1211" y2="303.1211"/><text fill="#000000" font-family="sans-serif" font-size="14" lengthAdjust="spacing" textLength="39.6826" x="13" y="322.2285">-name</text><line style="stroke:#181818;stroke-width:0.5;" x1="8" x2="290.7607" y1="329.7422" y2="329.7422"/><text fill="#000000" font-family="sans-serif" font-size="14" lengthAdjust="spacing" textLength="272.7607" x="13" y="348.8496">+getVaccinesContainer(): VaccineContainer</text></g><!--class VaccineContainer--><g id="elem_VaccineContainer"><rect codeLine="19" fill="#F1F1F1" height="81.8633" id="VaccineContainer" rx="2.5" ry="2.5" style="stroke:#181818;stroke-width:0.5;" width="394.4707" x="383.5" y="274.5"/><text fill="#000000" font-family="sans-serif" font-size="14" lengthAdjust="spacing" textLength="110.5098" x="525.4805" y="294.6074">VaccineContainer</text><line style="stroke:#181818;stroke-width:0.5;" x1="384.5" x2="776.9707" y1="303.1211" y2="303.1211"/><line style="stroke:#181818;stroke-width:0.5;" x1="384.5" x2="776.9707" y1="311.1211" y2="311.1211"/><text fill="#000000" font-family="sans-serif" font-size="14" lengthAdjust="spacing" textLength="382.4707" x="389.5" y="330.2285">+create(string name, string brand, string technology): Vaccine</text><text fill="#000000" font-family="sans-serif" font-size="14" lengthAdjust="spacing" textLength="166.9131" x="389.5" y="348.8496">+save(Vaccine obj): Result</text></g><!--class Vaccine--><g id="elem_Vaccine"><rect codeLine="24" fill="#F1F1F1" height="119.1055" id="Vaccine" rx="2.5" ry="2.5" style="stroke:#181818;stroke-width:0.5;" width="339.6055" x="857.5" y="256"/><text fill="#000000" font-family="sans-serif" font-size="14" lengthAdjust="spacing" textLength="49.8066" x="1002.3994" y="276.1074">Vaccine</text><line style="stroke:#181818;stroke-width:0.5;" x1="858.5" x2="1196.1055" y1="284.6211" y2="284.6211"/><text fill="#000000" font-family="sans-serif" font-size="14" lengthAdjust="spacing" textLength="113.5723" x="863.5" y="303.7285">-commercialName</text><text fill="#000000" font-family="sans-serif" font-size="14" lengthAdjust="spacing" textLength="40.4688" x="863.5" y="322.3496">-brand</text><text fill="#000000" font-family="sans-serif" font-size="14" lengthAdjust="spacing" textLength="72.3789" x="863.5" y="340.9707">-technology</text><line style="stroke:#181818;stroke-width:0.5;" x1="858.5" x2="1196.1055" y1="348.4844" y2="348.4844"/><text fill="#000000" font-family="sans-serif" font-size="14" lengthAdjust="spacing" textLength="327.6055" x="863.5" y="367.5918">Vaccine(string name, string brand, string technology)</text></g><!--class VaccineType--><g id="elem_VaccineType"><rect codeLine="31" fill="#F1F1F1" height="100.4844" id="VaccineType" rx="2.5" ry="2.5" style="stroke:#181818;stroke-width:0.5;" width="123.2754" x="966" y="454"/><text fill="#000000" font-family="sans-serif" font-size="14" lengthAdjust="spacing" textLength="80.9307" x="987.1724" y="474.1074">VaccineType</text><line style="stroke:#181818;stroke-width:0.5;" x1="967" x2="1088.2754" y1="482.6211" y2="482.6211"/><text fill="#000000" font-family="sans-serif" font-size="14" lengthAdjust="spacing" textLength="69.2686" x="972" y="501.7285">-type_code</text><text fill="#000000" font-family="sans-serif" font-size="14" lengthAdjust="spacing" textLength="52.917" x="972" y="520.3496">-disease</text><text fill="#000000" font-family="sans-serif" font-size="14" lengthAdjust="spacing" textLength="111.2754" x="972" y="538.9707">-short_description</text><line style="stroke:#181818;stroke-width:0.5;" x1="967" x2="1088.2754" y1="546.4844" y2="546.4844"/></g><!--link Administrator to VaccineContainer--><g id="link_Administrator_VaccineContainer"><path codeLine="37" d="M292.12,315.5 C321.29,315.5 346.48,315.5 377.17,315.5 " fill="none" id="Administrator-to-VaccineContainer" style="stroke:#181818;stroke-width:1.0;"/><polygon fill="#181818" points="383.17,315.5,374.17,311.5,378.17,315.5,374.17,319.5,383.17,315.5" style="stroke:#181818;stroke-width:1.0;"/><text fill="#000000" font-family="sans-serif" font-size="13" lengthAdjust="spacing" textLength="55.6372" x="310.25" y="308.5283">maintains</text><text fill="#000000" font-family="sans-serif" font-size="13" lengthAdjust="spacing" textLength="7.23" x="299.6664" y="312.1011">1</text><text fill="#000000" font-family="sans-serif" font-size="13" lengthAdjust="spacing" textLength="7.23" x="368.3204" y="312.2046">1</text></g><!--link VaccineContainer to Vaccine--><g id="link_VaccineContainer_Vaccine"><path codeLine="38" d="M777.54,315.5 C804.1,315.5 825.17,315.5 851.22,315.5 " fill="none" id="VaccineContainer-to-Vaccine" style="stroke:#181818;stroke-width:1.0;"/><polygon fill="#181818" points="857.22,315.5,848.22,311.5,852.22,315.5,848.22,319.5,857.22,315.5" style="stroke:#181818;stroke-width:1.0;"/><text fill="#000000" font-family="sans-serif" font-size="13" lengthAdjust="spacing" textLength="43.3481" x="796" y="308.5283">records</text><text fill="#000000" font-family="sans-serif" font-size="13" lengthAdjust="spacing" textLength="7.23" x="785.9952" y="312.1787">1</text><text fill="#000000" font-family="sans-serif" font-size="13" lengthAdjust="spacing" textLength="19.5127" x="830.0943" y="329.9177">0..*</text></g><!--link Vaccine to VaccineType--><g id="link_Vaccine_VaccineType"><path codeLine="39" d="M1027.5,375.25 C1027.5,400.56 1027.5,423.81 1027.5,447.93 " fill="none" id="Vaccine-to-VaccineType" style="stroke:#181818;stroke-width:1.0;"/><polygon fill="#181818" points="1027.5,453.93,1031.5,444.93,1027.5,448.93,1023.5,444.93,1027.5,453.93" style="stroke:#181818;stroke-width:1.0;"/><text fill="#000000" font-family="sans-serif" font-size="13" lengthAdjust="spacing" textLength="20.96" x="1028.5" y="420.0283">has</text><text fill="#000000" font-family="sans-serif" font-size="13" lengthAdjust="spacing" textLength="7.23" x="1020.1314" y="397.1805">1</text><text fill="#000000" font-family="sans-serif" font-size="13" lengthAdjust="spacing" textLength="7.23" x="1020.0046" y="442.7083">1</text></g><!--link RegisterVaccineView to RegisterVaccineController--><g id="link_RegisterVaccineView_RegisterVaccineController"><path codeLine="41" d="M580.5,52.12 C580.5,68.88 580.5,86.57 580.5,106.79 " fill="none" id="RegisterVaccineView-to-RegisterVaccineController" style="stroke:#181818;stroke-width:1.0;stroke-dasharray:7.0,7.0;"/><polygon fill="#181818" points="580.5,112.79,584.5,103.79,580.5,107.79,576.5,103.79,580.5,112.79" style="stroke:#181818;stroke-width:1.0;"/></g><!--link RegisterVaccineController to Administrator--><g id="link_RegisterVaccineController_Administrator"><path codeLine="42" d="M472.3,195.04 C406.72,219.31 328.9671,248.0878 263.3771,272.3578 " fill="none" id="RegisterVaccineController-to-Administrator" style="stroke:#181818;stroke-width:1.0;stroke-dasharray:7.0,7.0;"/><polygon fill="#181818" points="257.75,274.44,267.5788,275.0681,262.4393,272.7048,264.8026,267.5653,257.75,274.44" style="stroke:#181818;stroke-width:1.0;"/></g><!--link RegisterVaccineController to VaccineContainer--><g id="link_RegisterVaccineController_VaccineContainer"><path codeLine="43" d="M580.5,195.25 C580.5,219.43 580.5,244.09 580.5,268.26 " fill="none" id="RegisterVaccineController-to-VaccineContainer" style="stroke:#181818;stroke-width:1.0;stroke-dasharray:7.0,7.0;"/><polygon fill="#181818" points="580.5,274.26,584.5,265.26,580.5,269.26,576.5,265.26,580.5,274.26" style="stroke:#181818;stroke-width:1.0;"/></g><!--link RegisterVaccineController to Vaccine--><g id="link_RegisterVaccineController_Vaccine"><path codeLine="44" d="M692.72,195.04 C744.31,213.45 800.879,233.6335 857.599,253.8735 " fill="none" id="RegisterVaccineController-to-Vaccine" style="stroke:#181818;stroke-width:1.0;stroke-dasharray:7.0,7.0;"/><polygon fill="#181818" points="863.25,255.89,856.1178,249.0979,858.5408,254.2096,853.4292,256.6326,863.25,255.89" style="stroke:#181818;stroke-width:1.0;"/></g><!--SRC=[dLAxRiCm3Dpr5KANfWyxwPeXG92fIuUqo1ee4c6pbIM3OXAaHV-zicF7THxeGvD87kzu4gzpvZACXyFIAiVhmgRQ5qDjLGY9GPMHAeJ8qO3KIDg226_eIXNJiWPDcGbNQuP7xTqpleCS2L5Nv1mo30oqK5gZWmN2Ldw8pmlbcNTCtbgW29Bnt54VC0XHoMNIgGBkPHEiI3bpY1XqxhprsUvcB3SUpPueg0tC21I3QRbYVGvXRRcRPseAT56G5FjsXgHMsxDam4rtg6PLyK8LpxVvwrp7U5nfZUbwbh_wQTWwIuCc8_tgzOoVjjewYVzQ06bKzgdrbEprcdkdLYV-zUmdyY-xiXk1Ox3KthJg1WEeq4OXzyHB0q4JbepULMJzNxbwk989OPPpCgc3uoSUIrd4InK4SVB-_VPHcjuU668ZWVPa3crxjF5RrzUg74Lqhe8GvrOyJIUNTrjStlggh-Vs1-p9tlqABhu0]--></g></svg>