<svg xmlns="http://www.w3.org/2000/svg" xmlns:xlink="http://www.w3.org/1999/xlink" contentStyleType="text/css" height="908px" preserveAspectRatio="none" style="width:1271px;height:908px;background:#FFFFFF;" version="1.1" viewBox="0 0 1271 908" width="1271px" zoomAndPan="magnify"><defs/><g><rect fill="#FFFFFF" height="722.4414" style="stroke:#181818;stroke-width:1.0;" width="10" x="44.2344" y="93.6211"/><rect fill="#FFFFFF" height="31.291" style="stroke:#181818;stroke-width:1.0;" width="10" x="332.2686" y="116.9121"/><rect fill="#FFFFFF" height="262.6582" style="stroke:#181818;stroke-width:1.0;" width="10" x="332.2686" y="179.4941"/><rect fill="#FFFFFF" height="333.6191" style="stroke:#181818;stroke-width:1.0;" width="10" x="332.2686" y="473.4434"/><rect fill="#FFFFFF" height="200.0762" style="stroke:#181818;stroke-width:1.0;" width="10" x="613.8491" y="210.7852"/><rect fill="#FFFFFF" height="271.0371" style="stroke:#181818;stroke-width:1.0;" width="10" x="613.8491" y="504.7344"/><rect fill="#FFFFFF" height="31.291" style="stroke:#181818;stroke-width:1.0;" width="10" x="789.9253" y="242.0762"/><rect fill="#FFFFFF" height="74.9121" style="stroke:#181818;stroke-width:1.0;" width="10" x="943.1006" y="304.6582"/><rect fill="#FFFFFF" height="208.4551" style="stroke:#181818;stroke-width:1.0;" width="10" x="943.1006" y="536.0254"/><rect fill="#FFFFFF" height="42.291" style="stroke:#181818;stroke-width:1.0;" width="10" x="948.1006" y="575.3164"/><rect fill="#FFFFFF" height="42.291" style="stroke:#181818;stroke-width:1.0;" width="10" x="948.1006" y="663.8984"/><line style="stroke:#181818;stroke-width:0.5;stroke-dasharray:5.0,5.0;" x1="49" x2="49" y1="83.6211" y2="825.0625"/><line style="stroke:#181818;stroke-width:0.5;stroke-dasharray:5.0,5.0;" x1="337.1826" x2="337.1826" y1="83.6211" y2="825.0625"/><line style="stroke:#181818;stroke-width:0.5;stroke-dasharray:5.0,5.0;" x1="618.5908" x2="618.5908" y1="83.6211" y2="825.0625"/><line style="stroke:#181818;stroke-width:0.5;stroke-dasharray:5.0,5.0;" x1="794.7461" x2="794.7461" y1="83.6211" y2="825.0625"/><line style="stroke:#181818;stroke-width:0.5;stroke-dasharray:5.0,5.0;" x1="947.1045" x2="947.1045" y1="83.6211" y2="825.0625"/><line style="stroke:#181818;stroke-width:0.5;stroke-dasharray:5.0,5.0;" x1="1220.2148" x2="1220.2148" y1="344.4688" y2="825.0625"/><text fill="#000000" font-family="sans-serif" font-size="14" lengthAdjust="spacing" textLength="82.4688" x="5" y="80.1074">Administrator</text><ellipse cx="49.2344" cy="13.5" fill="#E2E2F0" rx="8" ry="8" style="stroke:#181818;stroke-width:0.5;"/><path d="M49.2344,21.5 L49.2344,48.5 M36.2344,29.5 L62.2344,29.5 M49.2344,48.5 L36.2344,63.5 M49.2344,48.5 L62.2344,63.5 " fill="none" style="stroke:#181818;stroke-width:0.5;"/><text fill="#000000" font-family="sans-serif" font-size="14" lengthAdjust="spacing" textLength="82.4688" x="5" y="839.1699">Administrator</text><ellipse cx="49.2344" cy="851.1836" fill="#E2E2F0" rx="8" ry="8" style="stroke:#181818;stroke-width:0.5;"/><path d="M49.2344,859.1836 L49.2344,886.1836 M36.2344,867.1836 L62.2344,867.1836 M49.2344,886.1836 L36.2344,901.1836 M49.2344,886.1836 L62.2344,901.1836 " fill="none" style="stroke:#181818;stroke-width:0.5;"/><rect fill="#E2E2F0" height="32.6211" rx="2.5" ry="2.5" style="stroke:#181818;stroke-width:0.5;" width="150.1719" x="262.1826" y="50"/><text fill="#000000" font-family="sans-serif" font-size="14" lengthAdjust="spacing" textLength="136.1719" x="269.1826" y="72.1074">:RegisterVaccineView</text><rect fill="#E2E2F0" height="32.6211" rx="2.5" ry="2.5" style="stroke:#181818;stroke-width:0.5;" width="150.1719" x="262.1826" y="824.0625"/><text fill="#000000" font-family="sans-serif" font-size="14" lengthAdjust="spacing" textLength="136.1719" x="269.1826" y="846.1699">:RegisterVaccineView</text><rect fill="#E2E2F0" height="32.6211" rx="2.5" ry="2.5" style="stroke:#181818;stroke-width:0.5;" width="180.5166" x="528.5908" y="50"/><text fill="#000000" font-family="sans-serif" font-size="14" lengthAdjust="spacing" textLength="166.5166" x="535.5908" y="72.1074">:RegisterVaccineController</text><rect fill="#E2E2F0" height="32.6211" rx="2.5" ry="2.5" style="stroke:#181818;stroke-width:0.5;" width="180.5166" x="528.5908" y="824.0625"/><text fill="#000000" font-family="sans-serif" font-size="14" lengthAdjust="spacing" textLength="166.5166" x="535.5908" y="846.1699">:RegisterVaccineController</text><rect fill="#E2E2F0" height="32.6211" rx="2.5" ry="2.5" style="stroke:#181818;stroke-width:0.5;" width="100.3584" x="744.7461" y="50"/><text fill="#000000" font-family="sans-serif" font-size="14" lengthAdjust="spacing" textLength="86.3584" x="751.7461" y="72.1074">:Administrator</text><rect fill="#E2E2F0" height="32.6211" rx="2.5" ry="2.5" style="stroke:#181818;stroke-width:0.5;" width="100.3584" x="744.7461" y="824.0625"/><text fill="#000000" font-family="sans-serif" font-size="14" lengthAdjust="spacing" textLength="86.3584" x="751.7461" y="846.1699">:Administrator</text><rect fill="#E2E2F0" height="32.6211" rx="2.5" ry="2.5" style="stroke:#181818;stroke-width:0.5;" width="185.9922" x="855.1045" y="50"/><text fill="#000000" font-family="sans-serif" font-size="14" lengthAdjust="spacing" textLength="171.9922" x="862.1045" y="72.1074">container:VaccineContainer</text><rect fill="#E2E2F0" height="32.6211" rx="2.5" ry="2.5" style="stroke:#181818;stroke-width:0.5;" width="185.9922" x="855.1045" y="824.0625"/><text fill="#000000" font-family="sans-serif" font-size="14" lengthAdjust="spacing" textLength="171.9922" x="862.1045" y="846.1699">container:VaccineContainer</text><rect fill="#E2E2F0" height="32.6211" rx="2.5" ry="2.5" style="stroke:#181818;stroke-width:0.5;" width="89.4824" x="1176.2148" y="824.0625"/><text fill="#000000" font-family="sans-serif" font-size="14" lengthAdjust="spacing" textLength="75.4824" x="1183.2148" y="846.1699">vac:Vaccine</text><rect fill="#FFFFFF" height="722.4414" style="stroke:#181818;stroke-width:1.0;" width="10" x="44.2344" y="93.6211"/><rect fill="#FFFFFF" height="31.291" style="stroke:#181818;stroke-width:1.0;" width="10" x="332.2686" y="116.9121"/><rect fill="#FFFFFF" height="262.6582" style="stroke:#181818;stroke-width:1.0;" width="10" x="332.2686" y="179.4941"/><rect fill="#FFFFFF" height="333.6191" style="stroke:#181818;stroke-width:1.0;" width="10" x="332.2686" y="473.4434"/><rect fill="#FFFFFF" height="200.0762" style="stroke:#181818;stroke-width:1.0;" width="10" x="613.8491" y="210.7852"/><rect fill="#FFFFFF" height="271.0371" style="stroke:#181818;stroke-width:1.0;" width="10" x="613.8491" y="504.7344"/><rect fill="#FFFFFF" height="31.291" style="stroke:#181818;stroke-width:1.0;" width="10" x="789.9253" y="242.0762"/><rect fill="#FFFFFF" height="74.9121" style="stroke:#181818;stroke-width:1.0;" width="10" x="943.1006" y="304.6582"/><rect fill="#FFFFFF" height="208.4551" style="stroke:#181818;stroke-width:1.0;" width="10" x="943.1006" y="536.0254"/><rect fill="#FFFFFF" height="42.291" style="stroke:#181818;stroke-width:1.0;" width="10" x="948.1006" y="575.3164"/><rect fill="#FFFFFF" height="42.291" style="stroke:#181818;stroke-width:1.0;" width="10" x="948.1006" y="663.8984"/><polygon fill="#181818" points="320.2686,112.9121,330.2686,116.9121,320.2686,120.9121,324.2686,116.9121" style="stroke:#181818;stroke-width:1.0;"/><line style="stroke:#181818;stroke-width:1.0;" x1="54.2344" x2="326.2686" y1="116.9121" y2="116.9121"/><text fill="#000000" font-family="sans-serif" font-size="13" font-weight="bold" lengthAdjust="spacing" textLength="7.23" x="61.2344" y="111.6494">1</text><text fill="#000000" font-family="sans-serif" font-size="13" lengthAdjust="spacing" textLength="174.1353" x="72.4644" y="111.6494">asks to register a new vaccine</text><polygon fill="#181818" points="65.2344,144.2031,55.2344,148.2031,65.2344,152.2031,61.2344,148.2031" style="stroke:#181818;stroke-width:1.0;"/><line style="stroke:#181818;stroke-width:1.0;stroke-dasharray:2.0,2.0;" x1="59.2344" x2="336.2686" y1="148.2031" y2="148.2031"/><text fill="#000000" font-family="sans-serif" font-size="13" font-weight="bold" lengthAdjust="spacing" textLength="7.23" x="71.2344" y="142.9404">2</text><text fill="#000000" font-family="sans-serif" font-size="13" lengthAdjust="spacing" textLength="234.1396" x="82.4644" y="142.9404">requests data (name, brand, technology)</text><polygon fill="#181818" points="320.2686,175.4941,330.2686,179.4941,320.2686,183.4941,324.2686,179.4941" style="stroke:#181818;stroke-width:1.0;"/><line style="stroke:#181818;stroke-width:1.0;" x1="54.2344" x2="326.2686" y1="179.4941" y2="179.4941"/><text fill="#000000" font-family="sans-serif" font-size="13" font-weight="bold" lengthAdjust="spacing" textLength="7.23" x="61.2344" y="174.2314">3</text><text fill="#000000" font-family="sans-serif" font-size="13" lengthAdjust="spacing" textLength="121.418" x="72.4644" y="174.2314">types requested data</text><polygon fill="#181818" points="601.8491,206.7852,611.8491,210.7852,601.8491,214.7852,605.8491,210.7852" style="stroke:#181818;stroke-width:1.0;"/><line style="stroke:#181818;stroke-width:1.0;" x1="342.2686" x2="607.8491" y1="210.7852" y2="210.7852"/><text fill="#000000" font-family="sans-serif" font-size="13" font-weight="bold" lengthAdjust="spacing" textLength="7.23" x="349.2686" y="205.5225">4</text><text fill="#000000" font-family="sans-serif" font-size="13" lengthAdjust="spacing" textLength="241.3506" x="360.4985" y="205.5225">registerVaccine(name, brand, technology)</text><polygon fill="#181818" points="777.9253,238.0762,787.9253,242.0762,777.9253,246.0762,781.9253,242.0762" style="stroke:#181818;stroke-width:1.0;"/><line style="stroke:#181818;stroke-width:1.0;" x1="623.8491" x2="783.9253" y1="242.0762" y2="242.0762"/><text fill="#000000" font-family="sans-serif" font-size="13" font-weight="bold" lengthAdjust="spacing" textLength="7.23" x="630.8491" y="236.8135">5</text><text fill="#000000" font-family="sans-serif" font-size="13" lengthAdjust="spacing" textLength="135.8462" x="642.0791" y="236.8135">getVaccinesContainer()</text><polygon fill="#181818" points="634.8491,269.3672,624.8491,273.3672,634.8491,277.3672,630.8491,273.3672" style="stroke:#181818;stroke-width:1.0;"/><line style="stroke:#181818;stroke-width:1.0;stroke-dasharray:2.0,2.0;" x1="628.8491" x2="793.9253" y1="273.3672" y2="273.3672"/><text fill="#000000" font-family="sans-serif" font-size="13" font-weight="bold" lengthAdjust="spacing" textLength="7.23" x="640.8491" y="268.1045">6</text><text fill="#000000" font-family="sans-serif" font-size="13" lengthAdjust="spacing" textLength="53.479" x="652.0791" y="268.1045">container</text><polygon fill="#181818" points="931.1006,300.6582,941.1006,304.6582,931.1006,308.6582,935.1006,304.6582" style="stroke:#181818;stroke-width:1.0;"/><line style="stroke:#181818;stroke-width:1.0;" x1="623.8491" x2="937.1006" y1="304.6582" y2="304.6582"/><text fill="#000000" font-family="sans-serif" font-size="13" font-weight="bold" lengthAdjust="spacing" textLength="7.23" x="630.8491" y="299.3955">7</text><text fill="#000000" font-family="sans-serif" font-size="13" lengthAdjust="spacing" textLength="187.8843" x="642.0791" y="299.3955">create(name, brand, technology)</text><polygon fill="#181818" points="1164.2148,331.9492,1174.2148,335.9492,1164.2148,339.9492,1168.2148,335.9492" style="stroke:#181818;stroke-width:1.0;"/><line style="stroke:#181818;stroke-width:1.0;stroke-dasharray:2.0,2.0;" x1="953.1006" x2="1170.2148" y1="335.9492" y2="335.9492"/><text fill="#000000" font-family="sans-serif" font-size="13" font-weight="bold" lengthAdjust="spacing" textLength="7.23" x="960.1006" y="330.6865">8</text><text fill="#000000" font-family="sans-serif" font-size="13" lengthAdjust="spacing" textLength="187.8843" x="971.3306" y="330.6865">create(name, brand, technology)</text><rect fill="#E2E2F0" height="32.6211" rx="2.5" ry="2.5" style="stroke:#181818;stroke-width:0.5;" width="89.4824" x="1176.2148" y="312.6582"/><text fill="#000000" font-family="sans-serif" font-size="14" lengthAdjust="spacing" textLength="75.4824" x="1183.2148" y="334.7656">vac:Vaccine</text><polygon fill="#181818" points="634.8491,375.5703,624.8491,379.5703,634.8491,383.5703,630.8491,379.5703" style="stroke:#181818;stroke-width:1.0;"/><line style="stroke:#181818;stroke-width:1.0;stroke-dasharray:2.0,2.0;" x1="628.8491" x2="947.1006" y1="379.5703" y2="379.5703"/><text fill="#000000" font-family="sans-serif" font-size="13" font-weight="bold" lengthAdjust="spacing" textLength="7.23" x="640.8491" y="374.3076">9</text><text fill="#000000" font-family="sans-serif" font-size="13" lengthAdjust="spacing" textLength="20.23" x="652.0791" y="374.3076">vac</text><polygon fill="#181818" points="353.2686,406.8613,343.2686,410.8613,353.2686,414.8613,349.2686,410.8613" style="stroke:#181818;stroke-width:1.0;"/><line style="stroke:#181818;stroke-width:1.0;stroke-dasharray:2.0,2.0;" x1="347.2686" x2="617.8491" y1="410.8613" y2="410.8613"/><text fill="#000000" font-family="sans-serif" font-size="13" font-weight="bold" lengthAdjust="spacing" textLength="14.46" x="359.2686" y="405.5986">10</text><text fill="#000000" font-family="sans-serif" font-size="13" lengthAdjust="spacing" textLength="13.73" x="377.7285" y="405.5986">ok</text><polygon fill="#181818" points="65.2344,438.1523,55.2344,442.1523,65.2344,446.1523,61.2344,442.1523" style="stroke:#181818;stroke-width:1.0;"/><line style="stroke:#181818;stroke-width:1.0;stroke-dasharray:2.0,2.0;" x1="59.2344" x2="336.2686" y1="442.1523" y2="442.1523"/><text fill="#000000" font-family="sans-serif" font-size="13" font-weight="bold" lengthAdjust="spacing" textLength="14.46" x="71.2344" y="436.8896">11</text><text fill="#000000" font-family="sans-serif" font-size="13" lengthAdjust="spacing" textLength="235.5742" x="89.6943" y="436.8896">shows all data and requests confirmation</text><polygon fill="#181818" points="320.2686,469.4434,330.2686,473.4434,320.2686,477.4434,324.2686,473.4434" style="stroke:#181818;stroke-width:1.0;"/><line style="stroke:#181818;stroke-width:1.0;" x1="54.2344" x2="326.2686" y1="473.4434" y2="473.4434"/><text fill="#000000" font-family="sans-serif" font-size="13" font-weight="bold" lengthAdjust="spacing" textLength="14.46" x="61.2344" y="468.1807">12</text><text fill="#000000" font-family="sans-serif" font-size="13" lengthAdjust="spacing" textLength="99.7153" x="79.6943" y="468.1807">confirms the data</text><polygon fill="#181818" points="601.8491,500.7344,611.8491,504.7344,601.8491,508.7344,605.8491,504.7344" style="stroke:#181818;stroke-width:1.0;"/><line style="stroke:#181818;stroke-width:1.0;" x1="342.2686" x2="607.8491" y1="504.7344" y2="504.7344"/><text fill="#000000" font-family="sans-serif" font-size="13" font-weight="bold" lengthAdjust="spacing" textLength="14.46" x="349.2686" y="499.4717">13</text><text fill="#000000" font-family="sans-serif" font-size="13" lengthAdjust="spacing" textLength="128.6162" x="367.7285" y="499.4717">saveCreatedVaccine()</text><polygon fill="#181818" points="931.1006,532.0254,941.1006,536.0254,931.1006,540.0254,935.1006,536.0254" style="stroke:#181818;stroke-width:1.0;"/><line style="stroke:#181818;stroke-width:1.0;" x1="623.8491" x2="937.1006" y1="536.0254" y2="536.0254"/><text fill="#000000" font-family="sans-serif" font-size="13" font-weight="bold" lengthAdjust="spacing" textLength="14.46" x="630.8491" y="530.7627">14</text><text fill="#000000" font-family="sans-serif" font-size="13" lengthAdjust="spacing" textLength="56.3481" x="649.3091" y="530.7627">save(vac)</text><line style="stroke:#181818;stroke-width:1.0;" x1="953.1006" x2="1000.1006" y1="562.3164" y2="562.3164"/><line style="stroke:#181818;stroke-width:1.0;" x1="1000.1006" x2="1000.1006" y1="562.3164" y2="575.3164"/><line style="stroke:#181818;stroke-width:1.0;" x1="959.1006" x2="1000.1006" y1="575.3164" y2="575.3164"/><polygon fill="#181818" points="969.1006,571.3164,959.1006,575.3164,969.1006,579.3164,965.1006,575.3164" style="stroke:#181818;stroke-width:1.0;"/><text fill="#000000" font-family="sans-serif" font-size="13" font-weight="bold" lengthAdjust="spacing" textLength="14.46" x="965.1006" y="557.0537">15</text><text fill="#000000" font-family="sans-serif" font-size="13" lengthAdjust="spacing" textLength="73.6963" x="983.5605" y="557.0537">validate(vac)</text><line style="stroke:#181818;stroke-width:1.0;stroke-dasharray:2.0,2.0;" x1="958.1006" x2="1000.1006" y1="616.6074" y2="616.6074"/><line style="stroke:#181818;stroke-width:1.0;stroke-dasharray:2.0,2.0;" x1="1000.1006" x2="1000.1006" y1="616.6074" y2="629.6074"/><line style="stroke:#181818;stroke-width:1.0;stroke-dasharray:2.0,2.0;" x1="953.1006" x2="1000.1006" y1="629.6074" y2="629.6074"/><polygon fill="#181818" points="963.1006,625.6074,953.1006,629.6074,963.1006,633.6074,959.1006,629.6074" style="stroke:#181818;stroke-width:1.0;"/><text fill="#000000" font-family="sans-serif" font-size="13" font-weight="bold" lengthAdjust="spacing" textLength="14.46" x="965.1006" y="611.3447">16</text><text fill="#000000" font-family="sans-serif" font-size="13" lengthAdjust="spacing" textLength="13.73" x="983.5605" y="611.3447">ok</text><line style="stroke:#181818;stroke-width:1.0;" x1="953.1006" x2="1000.1006" y1="650.8984" y2="650.8984"/><line style="stroke:#181818;stroke-width:1.0;" x1="1000.1006" x2="1000.1006" y1="650.8984" y2="663.8984"/><line style="stroke:#181818;stroke-width:1.0;" x1="959.1006" x2="1000.1006" y1="663.8984" y2="663.8984"/><polygon fill="#181818" points="969.1006,659.8984,959.1006,663.8984,969.1006,667.8984,965.1006,663.8984" style="stroke:#181818;stroke-width:1.0;"/><text fill="#000000" font-family="sans-serif" font-size="13" font-weight="bold" lengthAdjust="spacing" textLength="14.46" x="965.1006" y="645.6357">17</text><text fill="#000000" font-family="sans-serif" font-size="13" lengthAdjust="spacing" textLength="50.5781" x="983.5605" y="645.6357">add(vac)</text><line style="stroke:#181818;stroke-width:1.0;stroke-dasharray:2.0,2.0;" x1="958.1006" x2="1000.1006" y1="705.1895" y2="705.1895"/><line style="stroke:#181818;stroke-width:1.0;stroke-dasharray:2.0,2.0;" x1="1000.1006" x2="1000.1006" y1="705.1895" y2="718.1895"/><line style="stroke:#181818;stroke-width:1.0;stroke-dasharray:2.0,2.0;" x1="953.1006" x2="1000.1006" y1="718.1895" y2="718.1895"/><polygon fill="#181818" points="963.1006,714.1895,953.1006,718.1895,963.1006,722.1895,959.1006,718.1895" style="stroke:#181818;stroke-width:1.0;"/><text fill="#000000" font-family="sans-serif" font-size="13" font-weight="bold" lengthAdjust="spacing" textLength="14.46" x="965.1006" y="699.9268">18</text><text fill="#000000" font-family="sans-serif" font-size="13" lengthAdjust="spacing" textLength="13.73" x="983.5605" y="699.9268">ok</text><polygon fill="#181818" points="634.8491,740.4805,624.8491,744.4805,634.8491,748.4805,630.8491,744.4805" style="stroke:#181818;stroke-width:1.0;"/><line style="stroke:#181818;stroke-width:1.0;stroke-dasharray:2.0,2.0;" x1="628.8491" x2="947.1006" y1="744.4805" y2="744.4805"/><text fill="#000000" font-family="sans-serif" font-size="13" font-weight="bold" lengthAdjust="spacing" textLength="14.46" x="640.8491" y="739.2178">19</text><text fill="#000000" font-family="sans-serif" font-size="13" lengthAdjust="spacing" textLength="13.73" x="659.3091" y="739.2178">ok</text><polygon fill="#181818" points="353.2686,771.7715,343.2686,775.7715,353.2686,779.7715,349.2686,775.7715" style="stroke:#181818;stroke-width:1.0;"/><line style="stroke:#181818;stroke-width:1.0;stroke-dasharray:2.0,2.0;" x1="347.2686" x2="617.8491" y1="775.7715" y2="775.7715"/><text fill="#000000" font-family="sans-serif" font-size="13" font-weight="bold" lengthAdjust="spacing" textLength="14.46" x="359.2686" y="770.5088">20</text><text fill="#000000" font-family="sans-serif" font-size="13" lengthAdjust="spacing" textLength="13.73" x="377.7285" y="770.5088">ok</text><polygon fill="#181818" points="65.2344,803.0625,55.2344,807.0625,65.2344,811.0625,61.2344,807.0625" style="stroke:#181818;stroke-width:1.0;"/><line style="stroke:#181818;stroke-width:1.0;stroke-dasharray:2.0,2.0;" x1="59.2344" x2="336.2686" y1="807.0625" y2="807.0625"/><text fill="#000000" font-family="sans-serif" font-size="13" font-weight="bold" lengthAdjust="spacing" textLength="14.46" x="71.2344" y="801.7998">21</text><text fill="#000000" font-family="sans-serif" font-size="13" lengthAdjust="spacing" textLength="151.0107" x="89.6943" y="801.7998">informs operation success</text><!--SRC=[bLF1JiCm3BttAwnT66XZznwGqFW23joznDiYqgGaRYV-7ZT92oqCnAc9y_pythDwSsPkOxtRjHOTTuszLxxPHNhho2dQQeEdW4rLOSSU5PiUcS2xT7TTSw0WRufzWDMZRempaGFATGKO8LMg5WCRPLhXXrNzJ2V1K7X1fOoZ5qENX1qElqFttd7mrb8cttEmYuOh2iRAaszmgKS9gHGfr5-cf48UCjxcNJsg4P_5vtEA8aUKhLVf0zk7PAyMw6i4zX2ACq1mT86-j0yWs0ewjTK2apL4Zg2H4TOE6zh08Q3J6s1IP-UjFxtVBgVmUqjnR2QTkWltGugjdWGKuTUf1pYCYkP1rd0YBWHn2cfTvConoLKUFIK-SK-zyXX8qlj5pWXDX6NutTr_6xCIYRrecABphz-M4C_-4W6jpLiGvi-zY9UZ2GsoaLzYiONo9li-qqyhYDZJFgdMunPkVufamAr5wip33D6ZDNfmlqJDOUBj6WDg_Q_coSHG_ZD1uuv-2CAt559K43kbACRg0m00]--></g></svg>