<svg xmlns="http://www.w3.org/2000/svg" xmlns:xlink="http://www.w3.org/1999/xlink" contentStyleType="text/css" height="1058px" preserveAspectRatio="none" style="width:1631px;height:1058px;background:#FFFFFF;" version="1.1" viewBox="0 0 1631 1058" width="1631px" zoomAndPan="magnify"><defs/><g><rect fill="#FFFFFF" height="873.1875" style="stroke:#181818;stroke-width:1.0;" width="10" x="56.5205" y="93.6211"/><rect fill="#FFFFFF" height="31.291" style="stroke:#181818;stroke-width:1.0;" width="10" x="724.686" y="116.9121"/><rect fill="#FFFFFF" height="651.1504" style="stroke:#181818;stroke-width:1.0;" width="10" x="724.686" y="179.4941"/><rect fill="#FFFFFF" height="588.5684" style="stroke:#181818;stroke-width:1.0;" width="10" x="954.895" y="210.7852"/><rect fill="#FFFFFF" height="646.1504" style="stroke:#181818;stroke-width:1.0;" width="10" x="1116.9912" y="242.0762"/><rect fill="#FFFFFF" height="173.7852" style="stroke:#181818;stroke-width:1.0;" width="10" x="1121.9912" y="594.2773"/><rect fill="#FFFFFF" height="31.291" style="stroke:#181818;stroke-width:1.0;" width="10" x="1300.2656" y="273.3672"/><rect fill="#FFFFFF" height="31.291" style="stroke:#181818;stroke-width:1.0;" width="10" x="1468.6055" y="335.9492"/><rect fill="#FFFFFF" height="31.291" style="stroke:#181818;stroke-width:1.0;" width="10" x="1468.6055" y="398.5313"/><rect fill="#FFFFFF" height="31.291" style="stroke:#181818;stroke-width:1.0;" width="10" x="1468.6055" y="461.1133"/><rect fill="#FFFFFF" height="31.291" style="stroke:#181818;stroke-width:1.0;" width="10" x="1468.6055" y="523.6953"/><rect fill="#FFFFFF" height="31.291" style="stroke:#181818;stroke-width:1.0;" width="10" x="1468.6055" y="705.4805"/><rect fill="none" height="113.1641" style="stroke:#000000;stroke-width:1.5;" width="1181.5049" x="10" y="845.6445"/><line style="stroke:#181818;stroke-width:0.5;stroke-dasharray:5.0,5.0;" x1="61" x2="61" y1="83.6211" y2="975.8086"/><line style="stroke:#181818;stroke-width:0.5;stroke-dasharray:5.0,5.0;" x1="729.2759" x2="729.2759" y1="83.6211" y2="975.8086"/><line style="stroke:#181818;stroke-width:0.5;stroke-dasharray:5.0,5.0;" x1="959.3125" x2="959.3125" y1="83.6211" y2="975.8086"/><line style="stroke:#181818;stroke-width:0.5;stroke-dasharray:5.0,5.0;" x1="1121.4775" x2="1121.4775" y1="83.6211" y2="975.8086"/><line style="stroke:#181818;stroke-width:0.5;stroke-dasharray:5.0,5.0;" x1="1304.4692" x2="1304.4692" y1="83.6211" y2="975.8086"/><line style="stroke:#181818;stroke-width:0.5;stroke-dasharray:5.0,5.0;" x1="1472.9746" x2="1472.9746" y1="83.6211" y2="975.8086"/><line style="stroke:#181818;stroke-width:0.5;stroke-dasharray:5.0,5.0;" x1="1589.2363" x2="1589.2363" y1="639.0879" y2="975.8086"/><text fill="#000000" font-family="sans-serif" font-size="14" lengthAdjust="spacing" textLength="77.041" x="20" y="80.1074">Receptionist</text><ellipse cx="61.5205" cy="13.5" fill="#E2E2F0" rx="8" ry="8" style="stroke:#181818;stroke-width:0.5;"/><path d="M61.5205,21.5 L61.5205,48.5 M48.5205,29.5 L74.5205,29.5 M61.5205,48.5 L48.5205,63.5 M61.5205,48.5 L74.5205,63.5 " fill="none" style="stroke:#181818;stroke-width:0.5;"/><text fill="#000000" font-family="sans-serif" font-size="14" lengthAdjust="spacing" textLength="77.041" x="20" y="989.916">Receptionist</text><ellipse cx="61.5205" cy="1001.9297" fill="#E2E2F0" rx="8" ry="8" style="stroke:#181818;stroke-width:0.5;"/><path d="M61.5205,1009.9297 L61.5205,1036.9297 M48.5205,1017.9297 L74.5205,1017.9297 M61.5205,1036.9297 L48.5205,1051.9297 M61.5205,1036.9297 L74.5205,1051.9297 " fill="none" style="stroke:#181818;stroke-width:0.5;"/><rect fill="#E2E2F0" height="32.6211" rx="2.5" ry="2.5" style="stroke:#181818;stroke-width:0.5;" width="154.8203" x="652.2759" y="50"/><text fill="#000000" font-family="sans-serif" font-size="14" lengthAdjust="spacing" textLength="140.8203" x="659.2759" y="72.1074">RegisterSNSUserView</text><rect fill="#E2E2F0" height="32.6211" rx="2.5" ry="2.5" style="stroke:#181818;stroke-width:0.5;" width="154.8203" x="652.2759" y="974.8086"/><text fill="#000000" font-family="sans-serif" font-size="14" lengthAdjust="spacing" textLength="140.8203" x="659.2759" y="996.916">RegisterSNSUserView</text><rect fill="#E2E2F0" height="32.6211" rx="2.5" ry="2.5" style="stroke:#181818;stroke-width:0.5;" width="185.165" x="867.3125" y="50"/><text fill="#000000" font-family="sans-serif" font-size="14" lengthAdjust="spacing" textLength="171.165" x="874.3125" y="72.1074">RegisterSNSUserController</text><rect fill="#E2E2F0" height="32.6211" rx="2.5" ry="2.5" style="stroke:#181818;stroke-width:0.5;" width="185.165" x="867.3125" y="974.8086"/><text fill="#000000" font-family="sans-serif" font-size="14" lengthAdjust="spacing" textLength="171.165" x="874.3125" y="996.916">RegisterSNSUserController</text><rect fill="#E2E2F0" height="32.6211" rx="2.5" ry="2.5" style="stroke:#181818;stroke-width:0.5;" width="119.0273" x="1062.4775" y="50"/><text fill="#000000" font-family="sans-serif" font-size="14" lengthAdjust="spacing" textLength="105.0273" x="1069.4775" y="72.1074">SNSUserService</text><rect fill="#E2E2F0" height="32.6211" rx="2.5" ry="2.5" style="stroke:#181818;stroke-width:0.5;" width="119.0273" x="1062.4775" y="974.8086"/><text fill="#000000" font-family="sans-serif" font-size="14" lengthAdjust="spacing" textLength="105.0273" x="1069.4775" y="996.916">SNSUserService</text><rect fill="#E2E2F0" height="32.6211" rx="2.5" ry="2.5" style="stroke:#181818;stroke-width:0.5;" width="127.5928" x="1241.4692" y="50"/><text fill="#000000" font-family="sans-serif" font-size="14" lengthAdjust="spacing" textLength="113.5928" x="1248.4692" y="72.1074">RepositoryFactory</text><rect fill="#E2E2F0" height="32.6211" rx="2.5" ry="2.5" style="stroke:#181818;stroke-width:0.5;" width="127.5928" x="1241.4692" y="974.8086"/><text fill="#000000" font-family="sans-serif" font-size="14" lengthAdjust="spacing" textLength="113.5928" x="1248.4692" y="996.916">RepositoryFactory</text><rect fill="#E2E2F0" height="32.6211" rx="2.5" ry="2.5" style="stroke:#181818;stroke-width:0.5;" width="139.2617" x="1403.9746" y="50"/><text fill="#000000" font-family="sans-serif" font-size="14" lengthAdjust="spacing" textLength="125.2617" x="1410.9746" y="72.1074">SNSUserRepository</text><rect fill="#E2E2F0" height="32.6211" rx="2.5" ry="2.5" style="stroke:#181818;stroke-width:0.5;" width="139.2617" x="1403.9746" y="974.8086"/><text fill="#000000" font-family="sans-serif" font-size="14" lengthAdjust="spacing" textLength="125.2617" x="1410.9746" y="996.916">SNSUserRepository</text><rect fill="#E2E2F0" height="32.6211" rx="2.5" ry="2.5" style="stroke:#181818;stroke-width:0.5;" width="72.3447" x="1553.2363" y="974.8086"/><text fill="#000000" font-family="sans-serif" font-size="14" lengthAdjust="spacing" textLength="58.3447" x="1560.2363" y="996.916">SNSUser</text><rect fill="#FFFFFF" height="873.1875" style="stroke:#181818;stroke-width:1.0;" width="10" x="56.5205" y="93.6211"/><rect fill="#FFFFFF" height="31.291" style="stroke:#181818;stroke-width:1.0;" width="10" x="724.686" y="116.9121"/><rect fill="#FFFFFF" height="651.1504" style="stroke:#181818;stroke-width:1.0;" width="10" x="724.686" y="179.4941"/><rect fill="#FFFFFF" height="588.5684" style="stroke:#181818;stroke-width:1.0;" width="10" x="954.895" y="210.7852"/><rect fill="#FFFFFF" height="646.1504" style="stroke:#181818;stroke-width:1.0;" width="10" x="1116.9912" y="242.0762"/><rect fill="#FFFFFF" height="173.7852" style="stroke:#181818;stroke-width:1.0;" width="10" x="1121.9912" y="594.2773"/><rect fill="#FFFFFF" height="31.291" style="stroke:#181818;stroke-width:1.0;" width="10" x="1300.2656" y="273.3672"/><rect fill="#FFFFFF" height="31.291" style="stroke:#181818;stroke-width:1.0;" width="10" x="1468.6055" y="335.9492"/><rect fill="#FFFFFF" height="31.291" style="stroke:#181818;stroke-width:1.0;" width="10" x="1468.6055" y="398.5313"/><rect fill="#FFFFFF" height="31.291" style="stroke:#181818;stroke-width:1.0;" width="10" x="1468.6055" y="461.1133"/><rect fill="#FFFFFF" height="31.291" style="stroke:#181818;stroke-width:1.0;" width="10" x="1468.6055" y="523.6953"/><rect fill="#FFFFFF" height="31.291" style="stroke:#181818;stroke-width:1.0;" width="10" x="1468.6055" y="705.4805"/><polygon fill="#181818" points="712.686,112.9121,722.686,116.9121,712.686,120.9121,716.686,116.9121" style="stroke:#181818;stroke-width:1.0;"/><line style="stroke:#181818;stroke-width:1.0;" x1="66.5205" x2="718.686" y1="116.9121" y2="116.9121"/><text fill="#000000" font-family="sans-serif" font-size="13" font-weight="bold" lengthAdjust="spacing" textLength="7.23" x="73.5205" y="111.6494">1</text><text fill="#000000" font-family="sans-serif" font-size="13" lengthAdjust="spacing" textLength="188.5889" x="84.7505" y="111.6494">requests to register an SNS user</text><polygon fill="#181818" points="77.5205,144.2031,67.5205,148.2031,77.5205,152.2031,73.5205,148.2031" style="stroke:#181818;stroke-width:1.0;"/><line style="stroke:#181818;stroke-width:1.0;stroke-dasharray:2.0,2.0;" x1="71.5205" x2="728.686" y1="148.2031" y2="148.2031"/><text fill="#000000" font-family="sans-serif" font-size="13" font-weight="bold" lengthAdjust="spacing" textLength="7.23" x="83.5205" y="142.9404">2</text><text fill="#000000" font-family="sans-serif" font-size="13" lengthAdjust="spacing" textLength="125.0107" x="94.7505" y="142.9404">asks for the user data</text><polygon fill="#181818" points="712.686,175.4941,722.686,179.4941,712.686,183.4941,716.686,179.4941" style="stroke:#181818;stroke-width:1.0;"/><line style="stroke:#181818;stroke-width:1.0;" x1="66.5205" x2="718.686" y1="179.4941" y2="179.4941"/><text fill="#000000" font-family="sans-serif" font-size="13" font-weight="bold" lengthAdjust="spacing" textLength="7.23" x="73.5205" y="174.2314">3</text><text fill="#000000" font-family="sans-serif" font-size="13" lengthAdjust="spacing" textLength="627.9355" x="84.7505" y="174.2314">provide name, date of birth, sex, postal address, phone number, email, citizen card number, sns user number</text><polygon fill="#181818" points="942.895,206.7852,952.895,210.7852,942.895,214.7852,946.895,210.7852" style="stroke:#181818;stroke-width:1.0;"/><line style="stroke:#181818;stroke-width:1.0;" x1="734.686" x2="948.895" y1="210.7852" y2="210.7852"/><text fill="#000000" font-family="sans-serif" font-size="13" font-weight="bold" lengthAdjust="spacing" textLength="7.23" x="741.686" y="205.5225">4</text><text fill="#000000" font-family="sans-serif" font-size="13" lengthAdjust="spacing" textLength="189.979" x="752.916" y="205.5225">registerUser(dto : SNSUserDTO)</text><polygon fill="#181818" points="1104.9912,238.0762,1114.9912,242.0762,1104.9912,246.0762,1108.9912,242.0762" style="stroke:#181818;stroke-width:1.0;"/><line style="stroke:#181818;stroke-width:1.0;" x1="964.895" x2="1110.9912" y1="242.0762" y2="242.0762"/><text fill="#000000" font-family="sans-serif" font-size="13" font-weight="bold" lengthAdjust="spacing" textLength="7.23" x="971.895" y="236.8135">5</text><text fill="#000000" font-family="sans-serif" font-size="13" lengthAdjust="spacing" textLength="70.0781" x="983.125" y="236.8135">register(dto)</text><polygon fill="#181818" points="1288.2656,269.3672,1298.2656,273.3672,1288.2656,277.3672,1292.2656,273.3672" style="stroke:#181818;stroke-width:1.0;"/><line style="stroke:#181818;stroke-width:1.0;" x1="1126.9912" x2="1294.2656" y1="273.3672" y2="273.3672"/><text fill="#000000" font-family="sans-serif" font-size="13" font-weight="bold" lengthAdjust="spacing" textLength="7.23" x="1133.9912" y="268.1045">6</text><text fill="#000000" font-family="sans-serif" font-size="13" lengthAdjust="spacing" textLength="143.0444" x="1145.2212" y="268.1045">getSNSUserRepository()</text><polygon fill="#181818" points="1137.9912,300.6582,1127.9912,304.6582,1137.9912,308.6582,1133.9912,304.6582" style="stroke:#181818;stroke-width:1.0;"/><line style="stroke:#181818;stroke-width:1.0;stroke-dasharray:2.0,2.0;" x1="1131.9912" x2="1304.2656" y1="304.6582" y2="304.6582"/><text fill="#000000" font-family="sans-serif" font-size="13" font-weight="bold" lengthAdjust="spacing" textLength="7.23" x="1143.9912" y="299.3955">7</text><text fill="#000000" font-family="sans-serif" font-size="13" lengthAdjust="spacing" textLength="31.0781" x="1155.2212" y="299.3955">Repo</text><polygon fill="#181818" points="1456.6055,331.9492,1466.6055,335.9492,1456.6055,339.9492,1460.6055,335.9492" style="stroke:#181818;stroke-width:1.0;"/><line style="stroke:#181818;stroke-width:1.0;" x1="1126.9912" x2="1462.6055" y1="335.9492" y2="335.9492"/><text fill="#000000" font-family="sans-serif" font-size="13" font-weight="bold" lengthAdjust="spacing" textLength="7.23" x="1133.9912" y="330.6865">8</text><text fill="#000000" font-family="sans-serif" font-size="13" lengthAdjust="spacing" textLength="244.9561" x="1145.2212" y="330.6865">existsByPhoneNumber(dto.phoneNumber)</text><polygon fill="#181818" points="1137.9912,363.2402,1127.9912,367.2402,1137.9912,371.2402,1133.9912,367.2402" style="stroke:#181818;stroke-width:1.0;"/><line style="stroke:#181818;stroke-width:1.0;stroke-dasharray:2.0,2.0;" x1="1131.9912" x2="1472.6055" y1="367.2402" y2="367.2402"/><text fill="#000000" font-family="sans-serif" font-size="13" font-weight="bold" lengthAdjust="spacing" textLength="7.23" x="1143.9912" y="361.9775">9</text><text fill="#000000" font-family="sans-serif" font-size="13" lengthAdjust="spacing" textLength="24.5781" x="1155.2212" y="361.9775">bool</text><polygon fill="#181818" points="1456.6055,394.5313,1466.6055,398.5313,1456.6055,402.5313,1460.6055,398.5313" style="stroke:#181818;stroke-width:1.0;"/><line style="stroke:#181818;stroke-width:1.0;" x1="1126.9912" x2="1462.6055" y1="398.5313" y2="398.5313"/><text fill="#000000" font-family="sans-serif" font-size="13" font-weight="bold" lengthAdjust="spacing" textLength="14.46" x="1133.9912" y="393.2686">10</text><text fill="#000000" font-family="sans-serif" font-size="13" lengthAdjust="spacing" textLength="142.3145" x="1152.4512" y="393.2686">existsByEmail(dto.email)</text><polygon fill="#181818" points="1137.9912,425.8223,1127.9912,429.8223,1137.9912,433.8223,1133.9912,429.8223" style="stroke:#181818;stroke-width:1.0;"/><line style="stroke:#181818;stroke-width:1.0;stroke-dasharray:2.0,2.0;" x1="1131.9912" x2="1472.6055" y1="429.8223" y2="429.8223"/><text fill="#000000" font-family="sans-serif" font-size="13" font-weight="bold" lengthAdjust="spacing" textLength="14.46" x="1143.9912" y="424.5596">11</text><text fill="#000000" font-family="sans-serif" font-size="13" lengthAdjust="spacing" textLength="24.5781" x="1162.4512" y="424.5596">bool</text><polygon fill="#181818" points="1456.6055,457.1133,1466.6055,461.1133,1456.6055,465.1133,1460.6055,461.1133" style="stroke:#181818;stroke-width:1.0;"/><line style="stroke:#181818;stroke-width:1.0;" x1="1126.9912" x2="1462.6055" y1="461.1133" y2="461.1133"/><text fill="#000000" font-family="sans-serif" font-size="13" font-weight="bold" lengthAdjust="spacing" textLength="14.46" x="1133.9912" y="455.8506">12</text><text fill="#000000" font-family="sans-serif" font-size="13" lengthAdjust="spacing" textLength="304.1543" x="1152.4512" y="455.8506">existsByCitizenCardNumber(dto.citizenCardNumber)</text><polygon fill="#181818" points="1137.9912,488.4043,1127.9912,492.4043,1137.9912,496.4043,1133.9912,492.4043" style="stroke:#181818;stroke-width:1.0;"/><line style="stroke:#181818;stroke-width:1.0;stroke-dasharray:2.0,2.0;" x1="1131.9912" x2="1472.6055" y1="492.4043" y2="492.4043"/><text fill="#000000" font-family="sans-serif" font-size="13" font-weight="bold" lengthAdjust="spacing" textLength="14.46" x="1143.9912" y="487.1416">13</text><text fill="#000000" font-family="sans-serif" font-size="13" lengthAdjust="spacing" textLength="24.5781" x="1162.4512" y="487.1416">bool</text><polygon fill="#181818" points="1456.6055,519.6953,1466.6055,523.6953,1456.6055,527.6953,1460.6055,523.6953" style="stroke:#181818;stroke-width:1.0;"/><line style="stroke:#181818;stroke-width:1.0;" x1="1126.9912" x2="1462.6055" y1="523.6953" y2="523.6953"/><text fill="#000000" font-family="sans-serif" font-size="13" font-weight="bold" lengthAdjust="spacing" textLength="14.46" x="1133.9912" y="518.4326">14</text><text fill="#000000" font-family="sans-serif" font-size="13" lengthAdjust="spacing" textLength="273.0698" x="1152.4512" y="518.4326">existsBySNSUserNumber(dto.snsUserNumber)</text><polygon fill="#181818" points="1137.9912,550.9863,1127.9912,554.9863,1137.9912,558.9863,1133.9912,554.9863" style="stroke:#181818;stroke-width:1.0;"/><line style="stroke:#181818;stroke-width:1.0;stroke-dasharray:2.0,2.0;" x1="1131.9912" x2="1472.6055" y1="554.9863" y2="554.9863"/><text fill="#000000" font-family="sans-serif" font-size="13" font-weight="bold" lengthAdjust="spacing" textLength="14.46" x="1143.9912" y="549.7236">15</text><text fill="#000000" font-family="sans-serif" font-size="13" lengthAdjust="spacing" textLength="24.5781" x="1162.4512" y="549.7236">bool</text><line style="stroke:#181818;stroke-width:1.0;" x1="1126.9912" x2="1173.9912" y1="581.2773" y2="581.2773"/><line style="stroke:#181818;stroke-width:1.0;" x1="1173.9912" x2="1173.9912" y1="581.2773" y2="594.2773"/><line style="stroke:#181818;stroke-width:1.0;" x1="1132.9912" x2="1173.9912" y1="594.2773" y2="594.2773"/><polygon fill="#181818" points="1142.9912,590.2773,1132.9912,594.2773,1142.9912,598.2773,1138.9912,594.2773" style="stroke:#181818;stroke-width:1.0;"/><text fill="#000000" font-family="sans-serif" font-size="13" font-weight="bold" lengthAdjust="spacing" textLength="14.46" x="1138.9912" y="576.0146">16</text><text fill="#000000" font-family="sans-serif" font-size="13" lengthAdjust="spacing" textLength="117.0381" x="1157.4512" y="576.0146">createSNSUser(dto)</text><polygon fill="#181818" points="1541.2363,626.5684,1551.2363,630.5684,1541.2363,634.5684,1545.2363,630.5684" style="stroke:#181818;stroke-width:1.0;"/><line style="stroke:#181818;stroke-width:1.0;stroke-dasharray:2.0,2.0;" x1="1131.9912" x2="1547.2363" y1="630.5684" y2="630.5684"/><text fill="#000000" font-family="sans-serif" font-size="13" font-weight="bold" lengthAdjust="spacing" textLength="14.46" x="1138.9912" y="625.3057">17</text><text fill="#000000" font-family="sans-serif" font-size="13" lengthAdjust="spacing" textLength="117.0381" x="1157.4512" y="625.3057">createSNSUser(dto)</text><rect fill="#E2E2F0" height="32.6211" rx="2.5" ry="2.5" style="stroke:#181818;stroke-width:0.5;" width="72.3447" x="1553.2363" y="607.2773"/><text fill="#000000" font-family="sans-serif" font-size="14" lengthAdjust="spacing" textLength="58.3447" x="1560.2363" y="629.3848">SNSUser</text><polygon fill="#181818" points="1142.9912,670.1895,1132.9912,674.1895,1142.9912,678.1895,1138.9912,674.1895" style="stroke:#181818;stroke-width:1.0;"/><line style="stroke:#181818;stroke-width:1.0;stroke-dasharray:2.0,2.0;" x1="1136.9912" x2="1588.4087" y1="674.1895" y2="674.1895"/><text fill="#000000" font-family="sans-serif" font-size="13" font-weight="bold" lengthAdjust="spacing" textLength="14.46" x="1148.9912" y="668.9268">18</text><text fill="#000000" font-family="sans-serif" font-size="13" lengthAdjust="spacing" textLength="54.1772" x="1167.4512" y="668.9268">SNSUser</text><polygon fill="#181818" points="1456.6055,701.4805,1466.6055,705.4805,1456.6055,709.4805,1460.6055,705.4805" style="stroke:#181818;stroke-width:1.0;"/><line style="stroke:#181818;stroke-width:1.0;" x1="1131.9912" x2="1462.6055" y1="705.4805" y2="705.4805"/><text fill="#000000" font-family="sans-serif" font-size="13" font-weight="bold" lengthAdjust="spacing" textLength="14.46" x="1138.9912" y="700.2178">19</text><text fill="#000000" font-family="sans-serif" font-size="13" lengthAdjust="spacing" textLength="83.7954" x="1157.4512" y="700.2178">save(UserObj)</text><polygon fill="#181818" points="1142.9912,732.7715,1132.9912,736.7715,1142.9912,740.7715,1138.9912,736.7715" style="stroke:#181818;stroke-width:1.0;"/><line style="stroke:#181818;stroke-width:1.0;stroke-dasharray:2.0,2.0;" x1="1136.9912" x2="1472.6055" y1="736.7715" y2="736.7715"/><text fill="#000000" font-family="sans-serif" font-size="13" font-weight="bold" lengthAdjust="spacing" textLength="14.46" x="1148.9912" y="731.5088">20</text><text fill="#000000" font-family="sans-serif" font-size="13" lengthAdjust="spacing" textLength="36.8481" x="1167.4512" y="731.5088">Result</text><polygon fill="#181818" points="975.895,764.0625,965.895,768.0625,975.895,772.0625,971.895,768.0625" style="stroke:#181818;stroke-width:1.0;"/><line style="stroke:#181818;stroke-width:1.0;stroke-dasharray:2.0,2.0;" x1="969.895" x2="1115.9912" y1="768.0625" y2="768.0625"/><text fill="#000000" font-family="sans-serif" font-size="13" font-weight="bold" lengthAdjust="spacing" textLength="14.46" x="981.895" y="762.7998">21</text><text fill="#000000" font-family="sans-serif" font-size="13" lengthAdjust="spacing" textLength="92.4663" x="1000.355" y="762.7998">Result(success)</text><polygon fill="#181818" points="745.686,795.3535,735.686,799.3535,745.686,803.3535,741.686,799.3535" style="stroke:#181818;stroke-width:1.0;"/><line style="stroke:#181818;stroke-width:1.0;stroke-dasharray:2.0,2.0;" x1="739.686" x2="958.895" y1="799.3535" y2="799.3535"/><text fill="#000000" font-family="sans-serif" font-size="13" font-weight="bold" lengthAdjust="spacing" textLength="14.46" x="751.686" y="794.0908">22</text><text fill="#000000" font-family="sans-serif" font-size="13" lengthAdjust="spacing" textLength="92.4663" x="770.146" y="794.0908">Result(success)</text><polygon fill="#181818" points="77.5205,826.6445,67.5205,830.6445,77.5205,834.6445,73.5205,830.6445" style="stroke:#181818;stroke-width:1.0;"/><line style="stroke:#181818;stroke-width:1.0;stroke-dasharray:2.0,2.0;" x1="71.5205" x2="728.686" y1="830.6445" y2="830.6445"/><text fill="#000000" font-family="sans-serif" font-size="13" font-weight="bold" lengthAdjust="spacing" textLength="14.46" x="83.5205" y="825.3818">23</text><text fill="#000000" font-family="sans-serif" font-size="13" lengthAdjust="spacing" textLength="161.1099" x="101.9805" y="825.3818">informs registration success</text><path d="M10,845.6445 L70.1709,845.6445 L70.1709,854.9355 L60.1709,864.9355 L10,864.9355 L10,845.6445 " fill="#EEEEEE" style="stroke:#000000;stroke-width:1.5;"/><rect fill="none" height="113.1641" style="stroke:#000000;stroke-width:1.5;" width="1181.5049" x="10" y="845.6445"/><text fill="#000000" font-family="sans-serif" font-size="13" font-weight="bold" lengthAdjust="spacing" textLength="15.1709" x="25" y="860.6729">alt</text><a href="duplicate" target="_top" title="duplicate" xlink:actuate="onRequest" xlink:href="duplicate" xlink:show="new" xlink:title="duplicate" xlink:type="simple"><text fill="#0000FF" font-family="sans-serif" font-size="11" font-weight="bold" lengthAdjust="spacing" text-decoration="underline" textLength="30.54" x="85.1709" y="859.5146">found</text></a><polygon fill="#181818" points="970.895,884.2266,960.895,888.2266,970.895,892.2266,966.895,888.2266" style="stroke:#181818;stroke-width:1.0;"/><line style="stroke:#181818;stroke-width:1.0;stroke-dasharray:2.0,2.0;" x1="964.895" x2="1120.9912" y1="888.2266" y2="888.2266"/><text fill="#000000" font-family="sans-serif" font-size="13" font-weight="bold" lengthAdjust="spacing" textLength="14.46" x="976.895" y="882.9639">24</text><text fill="#000000" font-family="sans-serif" font-size="13" lengthAdjust="spacing" textLength="80.9136" x="995.355" y="882.9639">Result(failure)</text><polygon fill="#181818" points="740.686,915.5176,730.686,919.5176,740.686,923.5176,736.686,919.5176" style="stroke:#181818;stroke-width:1.0;"/><line style="stroke:#181818;stroke-width:1.0;stroke-dasharray:2.0,2.0;" x1="734.686" x2="958.895" y1="919.5176" y2="919.5176"/><text fill="#000000" font-family="sans-serif" font-size="13" font-weight="bold" lengthAdjust="spacing" textLength="14.46" x="746.686" y="914.2549">25</text><text fill="#000000" font-family="sans-serif" font-size="13" lengthAdjust="spacing" textLength="80.9136" x="765.146" y="914.2549">Result(failure)</text><polygon fill="#181818" points="77.5205,946.8086,67.5205,950.8086,77.5205,954.8086,73.5205,950.8086" style="stroke:#181818;stroke-width:1.0;"/><line style="stroke:#181818;stroke-width:1.0;stroke-dasharray:2.0,2.0;" x1="71.5205" x2="728.686" y1="950.8086" y2="950.8086"/><text fill="#000000" font-family="sans-serif" font-size="13" font-weight="bold" lengthAdjust="spacing" textLength="14.46" x="83.5205" y="945.5459">26</text><text fill="#000000" font-family="sans-serif" font-size="13" lengthAdjust="spacing" textLength="357.6587" x="101.9805" y="945.5459">informs that phone/email/cc or sns user number already exists</text><!--SRC=[bLHDTzem4BphL-oja0VDtOSSIjDZqXVQNlfw4F8Ign6IAwrfwA_lhYp09f2y-69BclsOcPLrHq4RibjD2C4hpMlVRLOObUBz4E413RPaWxU9GAVHMXr2HxjAjJgIDRRLdlZeaJSnBk-MtnF67nR_IXvvluPR14ynE8THqCVLAAPWbnYtrg00o-T9vZOaosHsNpAddG3BvxbqHtnFk0tdK78cx_lLRwL6AirlChiA8lxfC5422lpTqmFj9GDq7Ago67F63-ChploKOCtYKuCP2BKcVQ586yFMrWXURt0cG3Po3IiRgPb1mkSPC1lI3dHTHqo9rqtmZCyspm0tsheP64ls7temEjQ7i-HJNty_4tt3DmC_gWCp4MDICzLgBz7dR_TJDJ2I0ui_noY9cAgzWumenbJmYFJ2aCbKxJsS3xDbazG7M3Hedg3pbeNtJ5QaoDeD2WYs0dpcykdJxgk8SPVfIIiVs-DwgWGwBhGAmLrETYjQvZHPrVSdMFGkBDY4GK_cTFVzYOkIWwJixN7dOaBMTDaP8rAscXgOQEUAlYFN3b4c8ezWANTYBkFAZRcwEeiif-C-2k8bjwItE2aXvmWyOEeSZSeFvxO_dgIUtdXG3xVh57JXnbhFrtMJobH7BGTGWlXFwWX-rbthh97hkGwThtyfuEUDtjOyH5rafGNxMdyZu1izKgEf_mTSvoczDWRuNtDorq4xzgVUbGbIw6lr7m00]--></g></svg>