<svg xmlns="http://www.w3.org/2000/svg" xmlns:xlink="http://www.w3.org/1999/xlink" contentStyleType="text/css" height="1107px" preserveAspectRatio="none" style="width:1672px;height:1107px;background:#FFFFFF;" version="1.1" viewBox="0 0 1672 1107" width="1672px" zoomAndPan="magnify"><defs/><g><rect fill="#FFFFFF" height="921.4395" style="stroke:#181818;stroke-width:1.0;" width="10" x="41.5205" y="93.6211"/><rect fill="#FFFFFF" height="31.291" style="stroke:#181818;stroke-width:1.0;" width="10" x="709.686" y="116.9121"/><rect fill="#FFFFFF" height="469.3652" style="stroke:#181818;stroke-width:1.0;" width="10" x="709.686" y="179.4941"/><rect fill="#FFFFFF" height="325.9102" style="stroke:#181818;stroke-width:1.0;" width="10" x="709.686" y="680.1504"/><rect fill="#FFFFFF" height="31.291" style="stroke:#181818;stroke-width:1.0;" width="10" x="714.686" y="680.1504"/><rect fill="#FFFFFF" height="406.7832" style="stroke:#181818;stroke-width:1.0;" width="10" x="939.895" y="210.7852"/><rect fill="#FFFFFF" height="263.3281" style="stroke:#181818;stroke-width:1.0;" width="10" x="939.895" y="711.4414"/><rect fill="#FFFFFF" height="344.2012" style="stroke:#181818;stroke-width:1.0;" width="10" x="1105.8809" y="242.0762"/><rect fill="#FFFFFF" height="200.7461" style="stroke:#181818;stroke-width:1.0;" width="10" x="1105.8809" y="742.7324"/><rect fill="#FFFFFF" height="36.291" style="stroke:#181818;stroke-width:1.0;" width="10" x="1110.8809" y="782.0234"/><rect fill="#FFFFFF" height="31.291" style="stroke:#181818;stroke-width:1.0;" width="10" x="1289.1553" y="273.3672"/><rect fill="#FFFFFF" height="31.291" style="stroke:#181818;stroke-width:1.0;" width="10" x="1471.4893" y="335.9492"/><rect fill="#FFFFFF" height="31.291" style="stroke:#181818;stroke-width:1.0;" width="10" x="1471.4893" y="398.5313"/><rect fill="#FFFFFF" height="31.291" style="stroke:#181818;stroke-width:1.0;" width="10" x="1471.4893" y="461.1133"/><rect fill="#FFFFFF" height="31.291" style="stroke:#181818;stroke-width:1.0;" width="10" x="1471.4893" y="523.6953"/><rect fill="#FFFFFF" height="31.291" style="stroke:#181818;stroke-width:1.0;" width="10" x="1471.4893" y="880.8965"/><rect fill="#FFFFFF" height="31.291" style="stroke:#181818;stroke-width:1.0;" width="10" x="1614.5337" y="818.3145"/><line style="stroke:#181818;stroke-width:0.5;stroke-dasharray:5.0,5.0;" x1="46" x2="46" y1="83.6211" y2="1024.0605"/><line style="stroke:#181818;stroke-width:0.5;stroke-dasharray:5.0,5.0;" x1="714.3311" x2="714.3311" y1="83.6211" y2="1024.0605"/><line style="stroke:#181818;stroke-width:0.5;stroke-dasharray:5.0,5.0;" x1="944.3677" x2="944.3677" y1="83.6211" y2="1024.0605"/><line style="stroke:#181818;stroke-width:0.5;stroke-dasharray:5.0,5.0;" x1="1110.4224" x2="1110.4224" y1="83.6211" y2="1024.0605"/><line style="stroke:#181818;stroke-width:0.5;stroke-dasharray:5.0,5.0;" x1="1293.4072" x2="1293.4072" y1="83.6211" y2="1024.0605"/><line style="stroke:#181818;stroke-width:0.5;stroke-dasharray:5.0,5.0;" x1="1475.9033" x2="1475.9033" y1="83.6211" y2="1024.0605"/><line style="stroke:#181818;stroke-width:0.5;stroke-dasharray:5.0,5.0;" x1="1619.0752" x2="1619.0752" y1="83.6211" y2="1024.0605"/><text fill="#000000" font-family="sans-serif" font-size="14" lengthAdjust="spacing" textLength="77.041" x="5" y="80.1074">Receptionist</text><ellipse cx="46.5205" cy="13.5" fill="#E2E2F0" rx="8" ry="8" style="stroke:#181818;stroke-width:0.5;"/><path d="M46.5205,21.5 L46.5205,48.5 M33.5205,29.5 L59.5205,29.5 M46.5205,48.5 L33.5205,63.5 M46.5205,48.5 L59.5205,63.5 " fill="none" style="stroke:#181818;stroke-width:0.5;"/><text fill="#000000" font-family="sans-serif" font-size="14" lengthAdjust="spacing" textLength="77.041" x="5" y="1038.168">Receptionist</text><ellipse cx="46.5205" cy="1050.1816" fill="#E2E2F0" rx="8" ry="8" style="stroke:#181818;stroke-width:0.5;"/><path d="M46.5205,1058.1816 L46.5205,1085.1816 M33.5205,1066.1816 L59.5205,1066.1816 M46.5205,1085.1816 L33.5205,1100.1816 M46.5205,1085.1816 L59.5205,1100.1816 " fill="none" style="stroke:#181818;stroke-width:0.5;"/><rect fill="#E2E2F0" height="32.6211" rx="2.5" ry="2.5" style="stroke:#181818;stroke-width:0.5;" width="158.71" x="635.3311" y="50"/><text fill="#000000" font-family="sans-serif" font-size="14" lengthAdjust="spacing" textLength="144.71" x="642.3311" y="72.1074">:RegisterSNSUserView</text><rect fill="#E2E2F0" height="32.6211" rx="2.5" ry="2.5" style="stroke:#181818;stroke-width:0.5;" width="158.71" x="635.3311" y="1023.0605"/><text fill="#000000" font-family="sans-serif" font-size="14" lengthAdjust="spacing" textLength="144.71" x="642.3311" y="1045.168">:RegisterSNSUserView</text><rect fill="#E2E2F0" height="32.6211" rx="2.5" ry="2.5" style="stroke:#181818;stroke-width:0.5;" width="189.0547" x="850.3677" y="50"/><text fill="#000000" font-family="sans-serif" font-size="14" lengthAdjust="spacing" textLength="175.0547" x="857.3677" y="72.1074">:RegisterSNSUserController</text><rect fill="#E2E2F0" height="32.6211" rx="2.5" ry="2.5" style="stroke:#181818;stroke-width:0.5;" width="189.0547" x="850.3677" y="1023.0605"/><text fill="#000000" font-family="sans-serif" font-size="14" lengthAdjust="spacing" textLength="175.0547" x="857.3677" y="1045.168">:RegisterSNSUserController</text><rect fill="#E2E2F0" height="32.6211" rx="2.5" ry="2.5" style="stroke:#181818;stroke-width:0.5;" width="122.917" x="1049.4224" y="50"/><text fill="#000000" font-family="sans-serif" font-size="14" lengthAdjust="spacing" textLength="108.917" x="1056.4224" y="72.1074">:SNSUserService</text><rect fill="#E2E2F0" height="32.6211" rx="2.5" ry="2.5" style="stroke:#181818;stroke-width:0.5;" width="122.917" x="1049.4224" y="1023.0605"/><text fill="#000000" font-family="sans-serif" font-size="14" lengthAdjust="spacing" textLength="108.917" x="1056.4224" y="1045.168">:SNSUserService</text><rect fill="#E2E2F0" height="32.6211" rx="2.5" ry="2.5" style="stroke:#181818;stroke-width:0.5;" width="173.4961" x="1207.4072" y="50"/><text fill="#000000" font-family="sans-serif" font-size="14" lengthAdjust="spacing" textLength="159.4961" x="1214.4072" y="72.1074">factory:RepositoryFactory</text><rect fill="#E2E2F0" height="32.6211" rx="2.5" ry="2.5" style="stroke:#181818;stroke-width:0.5;" width="173.4961" x="1207.4072" y="1023.0605"/><text fill="#000000" font-family="sans-serif" font-size="14" lengthAdjust="spacing" textLength="159.4961" x="1214.4072" y="1045.168">factory:RepositoryFactory</text><rect fill="#E2E2F0" height="32.6211" rx="2.5" ry="2.5" style="stroke:#181818;stroke-width:0.5;" width="171.1719" x="1390.9033" y="50"/><text fill="#000000" font-family="sans-serif" font-size="14" lengthAdjust="spacing" textLength="157.1719" x="1397.9033" y="72.1074">repo:SNSUserRepository</text><rect fill="#E2E2F0" height="32.6211" rx="2.5" ry="2.5" style="stroke:#181818;stroke-width:0.5;" width="171.1719" x="1390.9033" y="1023.0605"/><text fill="#000000" font-family="sans-serif" font-size="14" lengthAdjust="spacing" textLength="157.1719" x="1397.9033" y="1045.168">repo:SNSUserRepository</text><rect fill="#E2E2F0" height="32.6211" rx="2.5" ry="2.5" style="stroke:#181818;stroke-width:0.5;" width="94.917" x="1572.0752" y="50"/><text fill="#000000" font-family="sans-serif" font-size="14" lengthAdjust="spacing" textLength="80.917" x="1579.0752" y="72.1074">obj:SNSUser</text><rect fill="#E2E2F0" height="32.6211" rx="2.5" ry="2.5" style="stroke:#181818;stroke-width:0.5;" width="94.917" x="1572.0752" y="1023.0605"/><text fill="#000000" font-family="sans-serif" font-size="14" lengthAdjust="spacing" textLength="80.917" x="1579.0752" y="1045.168">obj:SNSUser</text><rect fill="#FFFFFF" height="921.4395" style="stroke:#181818;stroke-width:1.0;" width="10" x="41.5205" y="93.6211"/><rect fill="#FFFFFF" height="31.291" style="stroke:#181818;stroke-width:1.0;" width="10" x="709.686" y="116.9121"/><rect fill="#FFFFFF" height="469.3652" style="stroke:#181818;stroke-width:1.0;" width="10" x="709.686" y="179.4941"/><rect fill="#FFFFFF" height="325.9102" style="stroke:#181818;stroke-width:1.0;" width="10" x="709.686" y="680.1504"/><rect fill="#FFFFFF" height="31.291" style="stroke:#181818;stroke-width:1.0;" width="10" x="714.686" y="680.1504"/><rect fill="#FFFFFF" height="406.7832" style="stroke:#181818;stroke-width:1.0;" width="10" x="939.895" y="210.7852"/><rect fill="#FFFFFF" height="263.3281" style="stroke:#181818;stroke-width:1.0;" width="10" x="939.895" y="711.4414"/><rect fill="#FFFFFF" height="344.2012" style="stroke:#181818;stroke-width:1.0;" width="10" x="1105.8809" y="242.0762"/><rect fill="#FFFFFF" height="200.7461" style="stroke:#181818;stroke-width:1.0;" width="10" x="1105.8809" y="742.7324"/><rect fill="#FFFFFF" height="36.291" style="stroke:#181818;stroke-width:1.0;" width="10" x="1110.8809" y="782.0234"/><rect fill="#FFFFFF" height="31.291" style="stroke:#181818;stroke-width:1.0;" width="10" x="1289.1553" y="273.3672"/><rect fill="#FFFFFF" height="31.291" style="stroke:#181818;stroke-width:1.0;" width="10" x="1471.4893" y="335.9492"/><rect fill="#FFFFFF" height="31.291" style="stroke:#181818;stroke-width:1.0;" width="10" x="1471.4893" y="398.5313"/><rect fill="#FFFFFF" height="31.291" style="stroke:#181818;stroke-width:1.0;" width="10" x="1471.4893" y="461.1133"/><rect fill="#FFFFFF" height="31.291" style="stroke:#181818;stroke-width:1.0;" width="10" x="1471.4893" y="523.6953"/><rect fill="#FFFFFF" height="31.291" style="stroke:#181818;stroke-width:1.0;" width="10" x="1471.4893" y="880.8965"/><rect fill="#FFFFFF" height="31.291" style="stroke:#181818;stroke-width:1.0;" width="10" x="1614.5337" y="818.3145"/><polygon fill="#181818" points="697.686,112.9121,707.686,116.9121,697.686,120.9121,701.686,116.9121" style="stroke:#181818;stroke-width:1.0;"/><line style="stroke:#181818;stroke-width:1.0;" x1="51.5205" x2="703.686" y1="116.9121" y2="116.9121"/><text fill="#000000" font-family="sans-serif" font-size="13" font-weight="bold" lengthAdjust="spacing" textLength="7.23" x="58.5205" y="111.6494">1</text><text fill="#000000" font-family="sans-serif" font-size="13" lengthAdjust="spacing" textLength="188.5889" x="69.7505" y="111.6494">requests to register an SNS user</text><polygon fill="#181818" points="62.5205,144.2031,52.5205,148.2031,62.5205,152.2031,58.5205,148.2031" style="stroke:#181818;stroke-width:1.0;"/><line style="stroke:#181818;stroke-width:1.0;stroke-dasharray:2.0,2.0;" x1="56.5205" x2="713.686" y1="148.2031" y2="148.2031"/><text fill="#000000" font-family="sans-serif" font-size="13" font-weight="bold" lengthAdjust="spacing" textLength="7.23" x="68.5205" y="142.9404">2</text><text fill="#000000" font-family="sans-serif" font-size="13" lengthAdjust="spacing" textLength="125.0107" x="79.7505" y="142.9404">asks for the user data</text><polygon fill="#181818" points="697.686,175.4941,707.686,179.4941,697.686,183.4941,701.686,179.4941" style="stroke:#181818;stroke-width:1.0;"/><line style="stroke:#181818;stroke-width:1.0;" x1="51.5205" x2="703.686" y1="179.4941" y2="179.4941"/><text fill="#000000" font-family="sans-serif" font-size="13" font-weight="bold" lengthAdjust="spacing" textLength="7.23" x="58.5205" y="174.2314">3</text><text fill="#000000" font-family="sans-serif" font-size="13" lengthAdjust="spacing" textLength="627.9355" x="69.7505" y="174.2314">provide name, date of birth, sex, postal address, phone number, email, citizen card number, sns user number</text><polygon fill="#181818" points="927.895,206.7852,937.895,210.7852,927.895,214.7852,931.895,210.7852" style="stroke:#181818;stroke-width:1.0;"/><line style="stroke:#181818;stroke-width:1.0;" x1="719.686" x2="933.895" y1="210.7852" y2="210.7852"/><text fill="#000000" font-family="sans-serif" font-size="13" font-weight="bold" lengthAdjust="spacing" textLength="7.23" x="726.686" y="205.5225">4</text><text fill="#000000" font-family="sans-serif" font-size="13" lengthAdjust="spacing" textLength="189.979" x="737.916" y="205.5225">registerUser(dto : SNSUserDTO)</text><polygon fill="#181818" points="1093.8809,238.0762,1103.8809,242.0762,1093.8809,246.0762,1097.8809,242.0762" style="stroke:#181818;stroke-width:1.0;"/><line style="stroke:#181818;stroke-width:1.0;" x1="949.895" x2="1099.8809" y1="242.0762" y2="242.0762"/><text fill="#000000" font-family="sans-serif" font-size="13" font-weight="bold" lengthAdjust="spacing" textLength="7.23" x="956.895" y="236.8135">5</text><text fill="#000000" font-family="sans-serif" font-size="13" lengthAdjust="spacing" textLength="70.0781" x="968.125" y="236.8135">register(dto)</text><polygon fill="#181818" points="1277.1553,269.3672,1287.1553,273.3672,1277.1553,277.3672,1281.1553,273.3672" style="stroke:#181818;stroke-width:1.0;"/><line style="stroke:#181818;stroke-width:1.0;" x1="1115.8809" x2="1283.1553" y1="273.3672" y2="273.3672"/><text fill="#000000" font-family="sans-serif" font-size="13" font-weight="bold" lengthAdjust="spacing" textLength="7.23" x="1122.8809" y="268.1045">6</text><text fill="#000000" font-family="sans-serif" font-size="13" lengthAdjust="spacing" textLength="143.0444" x="1134.1108" y="268.1045">getSNSUserRepository()</text><polygon fill="#181818" points="1126.8809,300.6582,1116.8809,304.6582,1126.8809,308.6582,1122.8809,304.6582" style="stroke:#181818;stroke-width:1.0;"/><line style="stroke:#181818;stroke-width:1.0;stroke-dasharray:2.0,2.0;" x1="1120.8809" x2="1293.1553" y1="304.6582" y2="304.6582"/><text fill="#000000" font-family="sans-serif" font-size="13" font-weight="bold" lengthAdjust="spacing" textLength="7.23" x="1132.8809" y="299.3955">7</text><text fill="#000000" font-family="sans-serif" font-size="13" lengthAdjust="spacing" textLength="31.0781" x="1144.1108" y="299.3955">Repo</text><polygon fill="#181818" points="1459.4893,331.9492,1469.4893,335.9492,1459.4893,339.9492,1463.4893,335.9492" style="stroke:#181818;stroke-width:1.0;"/><line style="stroke:#181818;stroke-width:1.0;" x1="1115.8809" x2="1465.4893" y1="335.9492" y2="335.9492"/><text fill="#000000" font-family="sans-serif" font-size="13" font-weight="bold" lengthAdjust="spacing" textLength="7.23" x="1122.8809" y="330.6865">8</text><text fill="#000000" font-family="sans-serif" font-size="13" lengthAdjust="spacing" textLength="244.9561" x="1134.1108" y="330.6865">existsByPhoneNumber(dto.phoneNumber)</text><polygon fill="#181818" points="1126.8809,363.2402,1116.8809,367.2402,1126.8809,371.2402,1122.8809,367.2402" style="stroke:#181818;stroke-width:1.0;"/><line style="stroke:#181818;stroke-width:1.0;stroke-dasharray:2.0,2.0;" x1="1120.8809" x2="1475.4893" y1="367.2402" y2="367.2402"/><text fill="#000000" font-family="sans-serif" font-size="13" font-weight="bold" lengthAdjust="spacing" textLength="7.23" x="1132.8809" y="361.9775">9</text><text fill="#000000" font-family="sans-serif" font-size="13" lengthAdjust="spacing" textLength="24.5781" x="1144.1108" y="361.9775">bool</text><polygon fill="#181818" points="1459.4893,394.5313,1469.4893,398.5313,1459.4893,402.5313,1463.4893,398.5313" style="stroke:#181818;stroke-width:1.0;"/><line style="stroke:#181818;stroke-width:1.0;" x1="1115.8809" x2="1465.4893" y1="398.5313" y2="398.5313"/><text fill="#000000" font-family="sans-serif" font-size="13" font-weight="bold" lengthAdjust="spacing" textLength="14.46" x="1122.8809" y="393.2686">10</text><text fill="#000000" font-family="sans-serif" font-size="13" lengthAdjust="spacing" textLength="142.3145" x="1141.3408" y="393.2686">existsByEmail(dto.email)</text><polygon fill="#181818" points="1126.8809,425.8223,1116.8809,429.8223,1126.8809,433.8223,1122.8809,429.8223" style="stroke:#181818;stroke-width:1.0;"/><line style="stroke:#181818;stroke-width:1.0;stroke-dasharray:2.0,2.0;" x1="1120.8809" x2="1475.4893" y1="429.8223" y2="429.8223"/><text fill="#000000" font-family="sans-serif" font-size="13" font-weight="bold" lengthAdjust="spacing" textLength="14.46" x="1132.8809" y="424.5596">11</text><text fill="#000000" font-family="sans-serif" font-size="13" lengthAdjust="spacing" textLength="24.5781" x="1151.3408" y="424.5596">bool</text><polygon fill="#181818" points="1459.4893,457.1133,1469.4893,461.1133,1459.4893,465.1133,1463.4893,461.1133" style="stroke:#181818;stroke-width:1.0;"/><line style="stroke:#181818;stroke-width:1.0;" x1="1115.8809" x2="1465.4893" y1="461.1133" y2="461.1133"/><text fill="#000000" font-family="sans-serif" font-size="13" font-weight="bold" lengthAdjust="spacing" textLength="14.46" x="1122.8809" y="455.8506">12</text><text fill="#000000" font-family="sans-serif" font-size="13" lengthAdjust="spacing" textLength="304.1543" x="1141.3408" y="455.8506">existsByCitizenCardNumber(dto.citizenCardNumber)</text><polygon fill="#181818" points="1126.8809,488.4043,1116.8809,492.4043,1126.8809,496.4043,1122.8809,492.4043" style="stroke:#181818;stroke-width:1.0;"/><line style="stroke:#181818;stroke-width:1.0;stroke-dasharray:2.0,2.0;" x1="1120.8809" x2="1475.4893" y1="492.4043" y2="492.4043"/><text fill="#000000" font-family="sans-serif" font-size="13" font-weight="bold" lengthAdjust="spacing" textLength="14.46" x="1132.8809" y="487.1416">13</text><text fill="#000000" font-family="sans-serif" font-size="13" lengthAdjust="spacing" textLength="24.5781" x="1151.3408" y="487.1416">bool</text><polygon fill="#181818" points="1459.4893,519.6953,1469.4893,523.6953,1459.4893,527.6953,1463.4893,523.6953" style="stroke:#181818;stroke-width:1.0;"/><line style="stroke:#181818;stroke-width:1.0;" x1="1115.8809" x2="1465.4893" y1="523.6953" y2="523.6953"/><text fill="#000000" font-family="sans-serif" font-size="13" font-weight="bold" lengthAdjust="spacing" textLength="14.46" x="1122.8809" y="518.4326">14</text><text fill="#000000" font-family="sans-serif" font-size="13" lengthAdjust="spacing" textLength="273.0698" x="1141.3408" y="518.4326">existsBySNSUserNumber(dto.snsUserNumber)</text><polygon fill="#181818" points="1126.8809,550.9863,1116.8809,554.9863,1126.8809,558.9863,1122.8809,554.9863" style="stroke:#181818;stroke-width:1.0;"/><line style="stroke:#181818;stroke-width:1.0;stroke-dasharray:2.0,2.0;" x1="1120.8809" x2="1475.4893" y1="554.9863" y2="554.9863"/><text fill="#000000" font-family="sans-serif" font-size="13" font-weight="bold" lengthAdjust="spacing" textLength="14.46" x="1132.8809" y="549.7236">15</text><text fill="#000000" font-family="sans-serif" font-size="13" lengthAdjust="spacing" textLength="24.5781" x="1151.3408" y="549.7236">bool</text><polygon fill="#181818" points="960.895,582.2773,950.895,586.2773,960.895,590.2773,956.895,586.2773" style="stroke:#181818;stroke-width:1.0;"/><line style="stroke:#181818;stroke-width:1.0;stroke-dasharray:2.0,2.0;" x1="954.895" x2="1109.8809" y1="586.2773" y2="586.2773"/><text fill="#000000" font-family="sans-serif" font-size="13" font-weight="bold" lengthAdjust="spacing" textLength="14.46" x="966.895" y="581.0146">16</text><text fill="#000000" font-family="sans-serif" font-size="13" lengthAdjust="spacing" textLength="13.73" x="985.355" y="581.0146">ok</text><polygon fill="#181818" points="730.686,613.5684,720.686,617.5684,730.686,621.5684,726.686,617.5684" style="stroke:#181818;stroke-width:1.0;"/><line style="stroke:#181818;stroke-width:1.0;stroke-dasharray:2.0,2.0;" x1="724.686" x2="943.895" y1="617.5684" y2="617.5684"/><text fill="#000000" font-family="sans-serif" font-size="13" font-weight="bold" lengthAdjust="spacing" textLength="14.46" x="736.686" y="612.3057">17</text><text fill="#000000" font-family="sans-serif" font-size="13" lengthAdjust="spacing" textLength="13.73" x="755.146" y="612.3057">ok</text><polygon fill="#181818" points="62.5205,644.8594,52.5205,648.8594,62.5205,652.8594,58.5205,648.8594" style="stroke:#181818;stroke-width:1.0;"/><line style="stroke:#181818;stroke-width:1.0;stroke-dasharray:2.0,2.0;" x1="56.5205" x2="713.686" y1="648.8594" y2="648.8594"/><text fill="#000000" font-family="sans-serif" font-size="13" font-weight="bold" lengthAdjust="spacing" textLength="14.46" x="68.5205" y="643.5967">18</text><text fill="#000000" font-family="sans-serif" font-size="13" lengthAdjust="spacing" textLength="169.0825" x="86.9805" y="643.5967">show all data for confirmation</text><polygon fill="#181818" points="702.686,676.1504,712.686,680.1504,702.686,684.1504,706.686,680.1504" style="stroke:#181818;stroke-width:1.0;"/><line style="stroke:#181818;stroke-width:1.0;" x1="51.5205" x2="708.686" y1="680.1504" y2="680.1504"/><text fill="#000000" font-family="sans-serif" font-size="13" font-weight="bold" lengthAdjust="spacing" textLength="14.46" x="58.5205" y="674.8877">19</text><text fill="#000000" font-family="sans-serif" font-size="13" lengthAdjust="spacing" textLength="78.0317" x="76.9805" y="674.8877">confirms data</text><polygon fill="#181818" points="927.895,707.4414,937.895,711.4414,927.895,715.4414,931.895,711.4414" style="stroke:#181818;stroke-width:1.0;"/><line style="stroke:#181818;stroke-width:1.0;stroke-dasharray:2.0,2.0;" x1="719.686" x2="933.895" y1="711.4414" y2="711.4414"/><text fill="#000000" font-family="sans-serif" font-size="13" font-weight="bold" lengthAdjust="spacing" textLength="14.46" x="726.686" y="706.1787">20</text><text fill="#000000" font-family="sans-serif" font-size="13" lengthAdjust="spacing" textLength="85.9917" x="745.146" y="706.1787">confirmed data</text><polygon fill="#181818" points="1093.8809,738.7324,1103.8809,742.7324,1093.8809,746.7324,1097.8809,742.7324" style="stroke:#181818;stroke-width:1.0;"/><line style="stroke:#181818;stroke-width:1.0;" x1="949.895" x2="1099.8809" y1="742.7324" y2="742.7324"/><text fill="#000000" font-family="sans-serif" font-size="13" font-weight="bold" lengthAdjust="spacing" textLength="14.46" x="956.895" y="737.4697">21</text><text fill="#000000" font-family="sans-serif" font-size="13" lengthAdjust="spacing" textLength="117.0381" x="975.355" y="737.4697">createSNSUser(dto)</text><line style="stroke:#181818;stroke-width:1.0;" x1="1115.8809" x2="1162.8809" y1="769.0234" y2="769.0234"/><line style="stroke:#181818;stroke-width:1.0;" x1="1162.8809" x2="1162.8809" y1="769.0234" y2="782.0234"/><line style="stroke:#181818;stroke-width:1.0;" x1="1121.8809" x2="1162.8809" y1="782.0234" y2="782.0234"/><polygon fill="#181818" points="1131.8809,778.0234,1121.8809,782.0234,1131.8809,786.0234,1127.8809,782.0234" style="stroke:#181818;stroke-width:1.0;"/><text fill="#000000" font-family="sans-serif" font-size="13" font-weight="bold" lengthAdjust="spacing" textLength="14.46" x="1127.8809" y="763.7607">22</text><text fill="#000000" font-family="sans-serif" font-size="13" lengthAdjust="spacing" textLength="117.0381" x="1146.3408" y="763.7607">createSNSUser(dto)</text><polygon fill="#181818" points="1602.5337,814.3145,1612.5337,818.3145,1602.5337,822.3145,1606.5337,818.3145" style="stroke:#181818;stroke-width:1.0;"/><line style="stroke:#181818;stroke-width:1.0;stroke-dasharray:2.0,2.0;" x1="1115.8809" x2="1608.5337" y1="818.3145" y2="818.3145"/><text fill="#000000" font-family="sans-serif" font-size="13" font-weight="bold" lengthAdjust="spacing" textLength="14.46" x="1122.8809" y="813.0518">23</text><text fill="#000000" font-family="sans-serif" font-size="13" lengthAdjust="spacing" textLength="117.0381" x="1141.3408" y="813.0518">createSNSUser(dto)</text><polygon fill="#181818" points="1126.8809,845.6055,1116.8809,849.6055,1126.8809,853.6055,1122.8809,849.6055" style="stroke:#181818;stroke-width:1.0;"/><line style="stroke:#181818;stroke-width:1.0;stroke-dasharray:2.0,2.0;" x1="1120.8809" x2="1618.5337" y1="849.6055" y2="849.6055"/><text fill="#000000" font-family="sans-serif" font-size="13" font-weight="bold" lengthAdjust="spacing" textLength="14.46" x="1132.8809" y="844.3428">24</text><text fill="#000000" font-family="sans-serif" font-size="13" lengthAdjust="spacing" textLength="54.1772" x="1151.3408" y="844.3428">SNSUser</text><polygon fill="#181818" points="1459.4893,876.8965,1469.4893,880.8965,1459.4893,884.8965,1463.4893,880.8965" style="stroke:#181818;stroke-width:1.0;"/><line style="stroke:#181818;stroke-width:1.0;" x1="1115.8809" x2="1465.4893" y1="880.8965" y2="880.8965"/><text fill="#000000" font-family="sans-serif" font-size="13" font-weight="bold" lengthAdjust="spacing" textLength="14.46" x="1122.8809" y="875.6338">25</text><text fill="#000000" font-family="sans-serif" font-size="13" lengthAdjust="spacing" textLength="83.7954" x="1141.3408" y="875.6338">save(UserObj)</text><polygon fill="#181818" points="1126.8809,908.1875,1116.8809,912.1875,1126.8809,916.1875,1122.8809,912.1875" style="stroke:#181818;stroke-width:1.0;"/><line style="stroke:#181818;stroke-width:1.0;stroke-dasharray:2.0,2.0;" x1="1120.8809" x2="1475.4893" y1="912.1875" y2="912.1875"/><text fill="#000000" font-family="sans-serif" font-size="13" font-weight="bold" lengthAdjust="spacing" textLength="14.46" x="1132.8809" y="906.9248">26</text><text fill="#000000" font-family="sans-serif" font-size="13" lengthAdjust="spacing" textLength="36.8481" x="1151.3408" y="906.9248">Result</text><polygon fill="#181818" points="960.895,939.4785,950.895,943.4785,960.895,947.4785,956.895,943.4785" style="stroke:#181818;stroke-width:1.0;"/><line style="stroke:#181818;stroke-width:1.0;stroke-dasharray:2.0,2.0;" x1="954.895" x2="1109.8809" y1="943.4785" y2="943.4785"/><text fill="#000000" font-family="sans-serif" font-size="13" font-weight="bold" lengthAdjust="spacing" textLength="14.46" x="966.895" y="938.2158">27</text><text fill="#000000" font-family="sans-serif" font-size="13" lengthAdjust="spacing" textLength="92.4663" x="985.355" y="938.2158">Result(success)</text><polygon fill="#181818" points="730.686,970.7695,720.686,974.7695,730.686,978.7695,726.686,974.7695" style="stroke:#181818;stroke-width:1.0;"/><line style="stroke:#181818;stroke-width:1.0;stroke-dasharray:2.0,2.0;" x1="724.686" x2="943.895" y1="974.7695" y2="974.7695"/><text fill="#000000" font-family="sans-serif" font-size="13" font-weight="bold" lengthAdjust="spacing" textLength="14.46" x="736.686" y="969.5068">28</text><text fill="#000000" font-family="sans-serif" font-size="13" lengthAdjust="spacing" textLength="92.4663" x="755.146" y="969.5068">Result(success)</text><polygon fill="#181818" points="62.5205,1002.0605,52.5205,1006.0605,62.5205,1010.0605,58.5205,1006.0605" style="stroke:#181818;stroke-width:1.0;"/><line style="stroke:#181818;stroke-width:1.0;stroke-dasharray:2.0,2.0;" x1="56.5205" x2="713.686" y1="1006.0605" y2="1006.0605"/><text fill="#000000" font-family="sans-serif" font-size="13" font-weight="bold" lengthAdjust="spacing" textLength="14.46" x="68.5205" y="1000.7979">29</text><text fill="#000000" font-family="sans-serif" font-size="13" lengthAdjust="spacing" textLength="161.1099" x="86.9805" y="1000.7979">informs registration success</text><!--SRC=[bLGzTzim3DpvA_2on7xFZdSD6UgsOz9djzrf2hOOKwHAKaxINr-0ecN97sqpYGGF1-8EudqLOnEAnQ8nqiQsDW_ArOk0lrgq2kUbbZilQo7RwAIA-Y0ZWhDfRzjwWru8YZiFTojKs4Jjh0xn3cI0OK0qqaUjT4D5uAvOuOw2wDTFwny1_K-Dhoc55t-7BfsDtXc3FYKiepTd2HcuHd_G2XCghyV0RRhtEnLeND2y_Df5KafUZrCyGO_yfxJSREF6OBTvEM8JWXVFcvUaLwVZI20ntC7yCMbHW6SdGWmG7QqxAK1Q86PeYL4m3EQ47-ONL70VO4k-n0eJ44ePvOqYZNS7NI9OMUECWUJn5ZRQnse60TzcGBr6QK2MfSSGQ5yvI_Wq0JF0Mcep0wMZ_eqMbFHbVnPiwEeVnwMxy6EohkXxOdKc9JLPG1Rjy_VdgM0GWxE39pnZfoA76P4DAs27ySAYoLJayoHLpvPS4_Umh53jeRMQnvuQvFQJNeC2Z2q0twXy-FJ-ZGLuIYtnLHwQqtug63ekj77Et2RxmlebcgJanmcMdV9B4dvm9tKU_JXnLd90IdwU8lycx8rsUnPwNRdNf2pFysWOULQLirljQycnR7q_evH_OzG3SqfZEjuBdkiZdo6Xixd_9TC3rDVfRfwXM9vXqzjpCQ3A8nrctIwczBzWXCkFnLLSVu7ZYvA_OnjoogMrGHvmabEk-RV2q9funS7kO19QfUWNcPuRT7vymorjoI7IlVkHVV88Sf8GVm00]--></g></svg>