<svg xmlns="http://www.w3.org/2000/svg" xmlns:xlink="http://www.w3.org/1999/xlink" contentStyleType="text/css" height="852px" preserveAspectRatio="none" style="width:367px;height:852px;background:#FFFFFF;" version="1.1" viewBox="0 0 367 852" width="367px" zoomAndPan="magnify"><title>Register SNS User - System Sequence Diagram</title><defs/><g><text fill="#000000" font-family="sans-serif" font-size="14" font-weight="bold" lengthAdjust="spacing" textLength="315.9023" x="24.9675" y="30.1074">Register SNS User - System Sequence Diagram</text><rect fill="#FFFFFF" height="626.8203" style="stroke:#181818;stroke-width:1.0;" width="10" x="41.5205" y="133.2422"/><line style="stroke:#181818;stroke-width:0.5;stroke-dasharray:5.0,5.0;" x1="46" x2="46" y1="123.2422" y2="769.0625"/><line style="stroke:#181818;stroke-width:0.5;stroke-dasharray:5.0,5.0;" x1="329.272" x2="329.272" y1="123.2422" y2="769.0625"/><text fill="#000000" font-family="sans-serif" font-size="14" lengthAdjust="spacing" textLength="77.041" x="5" y="119.7285">Receptionist</text><ellipse cx="46.5205" cy="53.1211" fill="#E2E2F0" rx="8" ry="8" style="stroke:#181818;stroke-width:0.5;"/><path d="M46.5205,61.1211 L46.5205,88.1211 M33.5205,69.1211 L59.5205,69.1211 M46.5205,88.1211 L33.5205,103.1211 M46.5205,88.1211 L59.5205,103.1211 " fill="none" style="stroke:#181818;stroke-width:0.5;"/><text fill="#000000" font-family="sans-serif" font-size="14" lengthAdjust="spacing" textLength="77.041" x="5" y="783.1699">Receptionist</text><ellipse cx="46.5205" cy="795.1836" fill="#E2E2F0" rx="8" ry="8" style="stroke:#181818;stroke-width:0.5;"/><path d="M46.5205,803.1836 L46.5205,830.1836 M33.5205,811.1836 L59.5205,811.1836 M46.5205,830.1836 L33.5205,845.1836 M46.5205,830.1836 L59.5205,845.1836 " fill="none" style="stroke:#181818;stroke-width:0.5;"/><rect fill="#E2E2F0" height="32.6211" rx="2.5" ry="2.5" style="stroke:#181818;stroke-width:0.5;" width="64.5654" x="297.272" y="89.6211"/><text fill="#000000" font-family="sans-serif" font-size="14" lengthAdjust="spacing" textLength="50.5654" x="304.272" y="111.7285">:System</text><rect fill="#E2E2F0" height="32.6211" rx="2.5" ry="2.5" style="stroke:#181818;stroke-width:0.5;" width="64.5654" x="297.272" y="768.0625"/><text fill="#000000" font-family="sans-serif" font-size="14" lengthAdjust="spacing" textLength="50.5654" x="304.272" y="790.1699">:System</text><rect fill="#FFFFFF" height="626.8203" style="stroke:#181818;stroke-width:1.0;" width="10" x="41.5205" y="133.2422"/><polygon fill="#181818" points="317.5547,152.5332,327.5547,156.5332,317.5547,160.5332,321.5547,156.5332" style="stroke:#181818;stroke-width:1.0;"/><line style="stroke:#181818;stroke-width:1.0;" x1="51.5205" x2="323.5547" y1="156.5332" y2="156.5332"/><text fill="#000000" font-family="sans-serif" font-size="13" font-weight="bold" lengthAdjust="spacing" textLength="7.23" x="58.5205" y="151.2705">1</text><text fill="#000000" font-family="sans-serif" font-size="13" lengthAdjust="spacing" textLength="146.6626" x="69.7505" y="151.2705">selects register SNS user</text><polygon fill="#181818" points="62.5205,183.8242,52.5205,187.8242,62.5205,191.8242,58.5205,187.8242" style="stroke:#181818;stroke-width:1.0;"/><line style="stroke:#181818;stroke-width:1.0;stroke-dasharray:2.0,2.0;" x1="56.5205" x2="328.5547" y1="187.8242" y2="187.8242"/><text fill="#000000" font-family="sans-serif" font-size="13" font-weight="bold" lengthAdjust="spacing" textLength="7.23" x="68.5205" y="182.5615">2</text><text fill="#000000" font-family="sans-serif" font-size="13" lengthAdjust="spacing" textLength="123.5635" x="79.7505" y="182.5615">requests data (name)</text><polygon fill="#181818" points="317.5547,215.1152,327.5547,219.1152,317.5547,223.1152,321.5547,219.1152" style="stroke:#181818;stroke-width:1.0;"/><line style="stroke:#181818;stroke-width:1.0;" x1="51.5205" x2="323.5547" y1="219.1152" y2="219.1152"/><text fill="#000000" font-family="sans-serif" font-size="13" font-weight="bold" lengthAdjust="spacing" textLength="7.23" x="58.5205" y="213.8525">3</text><text fill="#000000" font-family="sans-serif" font-size="13" lengthAdjust="spacing" textLength="121.418" x="69.7505" y="213.8525">types requested data</text><polygon fill="#181818" points="62.5205,246.4063,52.5205,250.4063,62.5205,254.4063,58.5205,250.4063" style="stroke:#181818;stroke-width:1.0;"/><line style="stroke:#181818;stroke-width:1.0;stroke-dasharray:2.0,2.0;" x1="56.5205" x2="328.5547" y1="250.4063" y2="250.4063"/><text fill="#000000" font-family="sans-serif" font-size="13" font-weight="bold" lengthAdjust="spacing" textLength="7.23" x="68.5205" y="245.1436">4</text><text fill="#000000" font-family="sans-serif" font-size="13" lengthAdjust="spacing" textLength="156.7998" x="79.7505" y="245.1436">requests data (dateOfBirth)</text><polygon fill="#181818" points="317.5547,277.6973,327.5547,281.6973,317.5547,285.6973,321.5547,281.6973" style="stroke:#181818;stroke-width:1.0;"/><line style="stroke:#181818;stroke-width:1.0;" x1="51.5205" x2="323.5547" y1="281.6973" y2="281.6973"/><text fill="#000000" font-family="sans-serif" font-size="13" font-weight="bold" lengthAdjust="spacing" textLength="7.23" x="58.5205" y="276.4346">5</text><text fill="#000000" font-family="sans-serif" font-size="13" lengthAdjust="spacing" textLength="121.418" x="69.7505" y="276.4346">types requested data</text><polygon fill="#181818" points="62.5205,308.9883,52.5205,312.9883,62.5205,316.9883,58.5205,312.9883" style="stroke:#181818;stroke-width:1.0;"/><line style="stroke:#181818;stroke-width:1.0;stroke-dasharray:2.0,2.0;" x1="56.5205" x2="328.5547" y1="312.9883" y2="312.9883"/><text fill="#000000" font-family="sans-serif" font-size="13" font-weight="bold" lengthAdjust="spacing" textLength="7.23" x="68.5205" y="307.7256">6</text><text fill="#000000" font-family="sans-serif" font-size="13" lengthAdjust="spacing" textLength="111.2744" x="79.7505" y="307.7256">requests data (sex)</text><polygon fill="#181818" points="317.5547,340.2793,327.5547,344.2793,317.5547,348.2793,321.5547,344.2793" style="stroke:#181818;stroke-width:1.0;"/><line style="stroke:#181818;stroke-width:1.0;" x1="51.5205" x2="323.5547" y1="344.2793" y2="344.2793"/><text fill="#000000" font-family="sans-serif" font-size="13" font-weight="bold" lengthAdjust="spacing" textLength="7.23" x="58.5205" y="339.0166">7</text><text fill="#000000" font-family="sans-serif" font-size="13" lengthAdjust="spacing" textLength="121.418" x="69.7505" y="339.0166">types requested data</text><polygon fill="#181818" points="62.5205,371.5703,52.5205,375.5703,62.5205,379.5703,58.5205,375.5703" style="stroke:#181818;stroke-width:1.0;"/><line style="stroke:#181818;stroke-width:1.0;stroke-dasharray:2.0,2.0;" x1="56.5205" x2="328.5547" y1="375.5703" y2="375.5703"/><text fill="#000000" font-family="sans-serif" font-size="13" font-weight="bold" lengthAdjust="spacing" textLength="7.23" x="68.5205" y="370.3076">8</text><text fill="#000000" font-family="sans-serif" font-size="13" lengthAdjust="spacing" textLength="173.4243" x="79.7505" y="370.3076">requests data (postalAddress)</text><polygon fill="#181818" points="317.5547,402.8613,327.5547,406.8613,317.5547,410.8613,321.5547,406.8613" style="stroke:#181818;stroke-width:1.0;"/><line style="stroke:#181818;stroke-width:1.0;" x1="51.5205" x2="323.5547" y1="406.8613" y2="406.8613"/><text fill="#000000" font-family="sans-serif" font-size="13" font-weight="bold" lengthAdjust="spacing" textLength="7.23" x="58.5205" y="401.5986">9</text><text fill="#000000" font-family="sans-serif" font-size="13" lengthAdjust="spacing" textLength="121.418" x="69.7505" y="401.5986">types requested data</text><polygon fill="#181818" points="62.5205,434.1523,52.5205,438.1523,62.5205,442.1523,58.5205,438.1523" style="stroke:#181818;stroke-width:1.0;"/><line style="stroke:#181818;stroke-width:1.0;stroke-dasharray:2.0,2.0;" x1="56.5205" x2="328.5547" y1="438.1523" y2="438.1523"/><text fill="#000000" font-family="sans-serif" font-size="13" font-weight="bold" lengthAdjust="spacing" textLength="14.46" x="68.5205" y="432.8896">10</text><text fill="#000000" font-family="sans-serif" font-size="13" lengthAdjust="spacing" textLength="173.4307" x="86.9805" y="432.8896">requests data (phoneNumber)</text><polygon fill="#181818" points="317.5547,465.4434,327.5547,469.4434,317.5547,473.4434,321.5547,469.4434" style="stroke:#181818;stroke-width:1.0;"/><line style="stroke:#181818;stroke-width:1.0;" x1="51.5205" x2="323.5547" y1="469.4434" y2="469.4434"/><text fill="#000000" font-family="sans-serif" font-size="13" font-weight="bold" lengthAdjust="spacing" textLength="14.46" x="58.5205" y="464.1807">11</text><text fill="#000000" font-family="sans-serif" font-size="13" lengthAdjust="spacing" textLength="121.418" x="76.9805" y="464.1807">types requested data</text><polygon fill="#181818" points="62.5205,496.7344,52.5205,500.7344,62.5205,504.7344,58.5205,500.7344" style="stroke:#181818;stroke-width:1.0;"/><line style="stroke:#181818;stroke-width:1.0;stroke-dasharray:2.0,2.0;" x1="56.5205" x2="328.5547" y1="500.7344" y2="500.7344"/><text fill="#000000" font-family="sans-serif" font-size="13" font-weight="bold" lengthAdjust="spacing" textLength="14.46" x="68.5205" y="495.4717">12</text><text fill="#000000" font-family="sans-serif" font-size="13" lengthAdjust="spacing" textLength="122.1099" x="86.9805" y="495.4717">requests data (email)</text><polygon fill="#181818" points="317.5547,528.0254,327.5547,532.0254,317.5547,536.0254,321.5547,532.0254" style="stroke:#181818;stroke-width:1.0;"/><line style="stroke:#181818;stroke-width:1.0;" x1="51.5205" x2="323.5547" y1="532.0254" y2="532.0254"/><text fill="#000000" font-family="sans-serif" font-size="13" font-weight="bold" lengthAdjust="spacing" textLength="14.46" x="58.5205" y="526.7627">13</text><text fill="#000000" font-family="sans-serif" font-size="13" lengthAdjust="spacing" textLength="121.418" x="76.9805" y="526.7627">types requested data</text><polygon fill="#181818" points="62.5205,559.3164,52.5205,563.3164,62.5205,567.3164,58.5205,563.3164" style="stroke:#181818;stroke-width:1.0;"/><line style="stroke:#181818;stroke-width:1.0;stroke-dasharray:2.0,2.0;" x1="56.5205" x2="328.5547" y1="563.3164" y2="563.3164"/><text fill="#000000" font-family="sans-serif" font-size="13" font-weight="bold" lengthAdjust="spacing" textLength="14.46" x="68.5205" y="558.0537">14</text><text fill="#000000" font-family="sans-serif" font-size="13" lengthAdjust="spacing" textLength="202.3062" x="86.9805" y="558.0537">requests data (citizenCardNumber)</text><polygon fill="#181818" points="317.5547,590.6074,327.5547,594.6074,317.5547,598.6074,321.5547,594.6074" style="stroke:#181818;stroke-width:1.0;"/><line style="stroke:#181818;stroke-width:1.0;" x1="51.5205" x2="323.5547" y1="594.6074" y2="594.6074"/><text fill="#000000" font-family="sans-serif" font-size="13" font-weight="bold" lengthAdjust="spacing" textLength="14.46" x="58.5205" y="589.3447">15</text><text fill="#000000" font-family="sans-serif" font-size="13" lengthAdjust="spacing" textLength="121.418" x="76.9805" y="589.3447">types requested data</text><polygon fill="#181818" points="62.5205,621.8984,52.5205,625.8984,62.5205,629.8984,58.5205,625.8984" style="stroke:#181818;stroke-width:1.0;"/><line style="stroke:#181818;stroke-width:1.0;stroke-dasharray:2.0,2.0;" x1="56.5205" x2="328.5547" y1="625.8984" y2="625.8984"/><text fill="#000000" font-family="sans-serif" font-size="13" font-weight="bold" lengthAdjust="spacing" textLength="14.46" x="68.5205" y="620.6357">16</text><text fill="#000000" font-family="sans-serif" font-size="13" lengthAdjust="spacing" textLength="184.958" x="86.9805" y="620.6357">requests data (snsUserNumber)</text><polygon fill="#181818" points="317.5547,653.1895,327.5547,657.1895,317.5547,661.1895,321.5547,657.1895" style="stroke:#181818;stroke-width:1.0;"/><line style="stroke:#181818;stroke-width:1.0;" x1="51.5205" x2="323.5547" y1="657.1895" y2="657.1895"/><text fill="#000000" font-family="sans-serif" font-size="13" font-weight="bold" lengthAdjust="spacing" textLength="14.46" x="58.5205" y="651.9268">17</text><text fill="#000000" font-family="sans-serif" font-size="13" lengthAdjust="spacing" textLength="121.418" x="76.9805" y="651.9268">types requested data</text><polygon fill="#181818" points="62.5205,684.4805,52.5205,688.4805,62.5205,692.4805,58.5205,688.4805" style="stroke:#181818;stroke-width:1.0;"/><line style="stroke:#181818;stroke-width:1.0;stroke-dasharray:2.0,2.0;" x1="56.5205" x2="328.5547" y1="688.4805" y2="688.4805"/><text fill="#000000" font-family="sans-serif" font-size="13" font-weight="bold" lengthAdjust="spacing" textLength="14.46" x="68.5205" y="683.2178">18</text><text fill="#000000" font-family="sans-serif" font-size="13" lengthAdjust="spacing" textLength="235.5742" x="86.9805" y="683.2178">shows all data and requests confirmation</text><polygon fill="#181818" points="317.5547,715.7715,327.5547,719.7715,317.5547,723.7715,321.5547,719.7715" style="stroke:#181818;stroke-width:1.0;"/><line style="stroke:#181818;stroke-width:1.0;" x1="51.5205" x2="323.5547" y1="719.7715" y2="719.7715"/><text fill="#000000" font-family="sans-serif" font-size="13" font-weight="bold" lengthAdjust="spacing" textLength="14.46" x="58.5205" y="714.5088">19</text><text fill="#000000" font-family="sans-serif" font-size="13" lengthAdjust="spacing" textLength="117.0381" x="76.9805" y="714.5088">confirms registration</text><polygon fill="#181818" points="62.5205,747.0625,52.5205,751.0625,62.5205,755.0625,58.5205,751.0625" style="stroke:#181818;stroke-width:1.0;"/><line style="stroke:#181818;stroke-width:1.0;stroke-dasharray:2.0,2.0;" x1="56.5205" x2="328.5547" y1="751.0625" y2="751.0625"/><text fill="#000000" font-family="sans-serif" font-size="13" font-weight="bold" lengthAdjust="spacing" textLength="14.46" x="68.5205" y="745.7998">20</text><text fill="#000000" font-family="sans-serif" font-size="13" lengthAdjust="spacing" textLength="151.0107" x="86.9805" y="745.7998">informs operation success</text><!--SRC=[jPFBJiGm34Nt_GfhDi2YTDy54e_r84t51vZ4CxMK5x4B35zFfks8iXY91Tr4JdJklOvaN_MgITgcIGw33jxTckWReRU1Wg7QCXuo-gfILaUmemEBKePksy6BbAA6xbXUF7Ip19xE4XmqXi6_KYwrqPXXioD3IJc6uh8155W-L0cpik5K6e5DE_cEr5IEBloEIhzbrV86zTsCjo3aoAX0NdOzbAwhkUUwm4jnMz3o2oaQYufm7T3JpKL_FIQIiuJigFcpTJdfUV_0MVkL4eG-Lt9EKHJTlRMPHDRAw6EWxJW-AoMGHtOhUHjM_gBmYDck-WS9Sbh3_ysGFdu8e7DJ20Rx4sjYs7FsU88lnitGUVFoH5_Cux2F9peccb2GmPWoMjKt]--></g></svg>