<?xml version="1.0" encoding="us-ascii" standalone="no"?><svg xmlns="http://www.w3.org/2000/svg" xmlns:xlink="http://www.w3.org/1999/xlink" contentStyleType="text/css" height="644px" preserveAspectRatio="none" style="width:1036px;height:644px;background:#FFFFFF;" version="1.1" viewBox="0 0 1036 644" width="1036.8px" zoomAndPan="magnify"><defs/><g><!--class ConsultWaitingRoomView--><g id="elem_ConsultWaitingRoomView"><rect codeLine="5" fill="#F1F1F1" height="35.6969" id="ConsultWaitingRoomView" rx="2" ry="2" style="stroke:#181818;stroke-width:0.4000000000000001;" width="133.6" x="722.8" y="5.6"/><text fill="#000000" font-family="sans-serif" font-size="11.2" lengthAdjust="spacing" textLength="128.8" x="725.2" y="21.6859">ConsultWaitingRoomView</text><line style="stroke:#181818;stroke-width:0.4000000000000001;" x1="723.6" x2="855.6" y1="28.4969" y2="28.4969"/><line style="stroke:#181818;stroke-width:0.4000000000000001;" x1="723.6" x2="855.6" y1="34.8969" y2="34.8969"/></g><!--class ConsultWaitingRoomController--><g id="elem_ConsultWaitingRoomController"><rect codeLine="8" fill="#F1F1F1" height="65.4906" id="ConsultWaitingRoomController" rx="2" ry="2" style="stroke:#181818;stroke-width:0.4000000000000001;" width="191.2" x="694" y="90.4"/><text fill="#000000" font-family="sans-serif" font-size="11.2" lengthAdjust="spacing" textLength="155.2" x="712" y="106.4859">ConsultWaitingRoomController</text><line style="stroke:#181818;stroke-width:0.4000000000000001;" x1="694.8" x2="884.4" y1="113.2969" y2="113.2969"/><line style="stroke:#181818;stroke-width:0.4000000000000001;" x1="694.8" x2="884.4" y1="119.6969" y2="119.6969"/><text fill="#000000" font-family="sans-serif" font-size="11.2" lengthAdjust="spacing" textLength="170.4" x="698.8" y="134.9828">+getFacilities(): List&lt;FacilityDTO&gt;</text><text fill="#000000" font-family="sans-serif" font-size="11.2" lengthAdjust="spacing" textLength="181.6" x="698.8" y="149.8797">+getWaitingRoom(): List&lt;UserDTO&gt;</text></g><!--class App--><g id="elem_App"><rect codeLine="14" fill="#F1F1F1" height="65.4906" id="App" rx="2" ry="2" style="stroke:#181818;stroke-width:0.4000000000000001;" width="256" x="331.2" y="204.8"/><text fill="#000000" font-family="sans-serif" font-size="11.2" lengthAdjust="spacing" textLength="20" x="449.2" y="220.8859">App</text><line style="stroke:#181818;stroke-width:0.4000000000000001;" x1="332" x2="586.4" y1="227.6969" y2="227.6969"/><line style="stroke:#181818;stroke-width:0.4000000000000001;" x1="332" x2="586.4" y1="234.0969" y2="234.0969"/><text fill="#000000" font-family="sans-serif" font-size="11.2" lengthAdjust="spacing" textLength="222.4" x="336" y="249.3828">+getRepositoryFactory(): RepositoryFactory</text><text fill="#000000" font-family="sans-serif" font-size="11.2" lengthAdjust="spacing" textLength="246.4" x="336" y="264.2797">+getWaitingRoomService(): WaitingRoomService</text></g><!--class RepositoryFactory--><g id="elem_RepositoryFactory"><rect codeLine="19" fill="#F1F1F1" height="78.2594" id="RepositoryFactory" rx="2" ry="2" style="stroke:#181818;stroke-width:0.4000000000000001;" width="340.8" x="5.6" y="334.4"/><text fill="#000000" font-family="sans-serif" font-size="9.6" font-style="italic" lengthAdjust="spacing" textLength="48.8" x="151.6" y="348.7594">&#171;interface&#187;</text><text fill="#000000" font-family="sans-serif" font-size="11.2" font-style="italic" lengthAdjust="spacing" textLength="92.8" x="129.6" y="363.2547">RepositoryFactory</text><line style="stroke:#181818;stroke-width:0.4000000000000001;" x1="6.4" x2="345.6" y1="370.0656" y2="370.0656"/><line style="stroke:#181818;stroke-width:0.4000000000000001;" x1="6.4" x2="345.6" y1="376.4656" y2="376.4656"/><text fill="#000000" font-family="sans-serif" font-size="11.2" lengthAdjust="spacing" textLength="331.2" x="10.4" y="391.7516">+getVaccinationCenterRepository(): VaccinationCenterRepository</text><text fill="#000000" font-family="sans-serif" font-size="11.2" lengthAdjust="spacing" textLength="280" x="10.4" y="406.6484">+getWaitingRoomRepository(): WaitingRoomRepository</text></g><!--class WaitingRoomService--><g id="elem_WaitingRoomService"><rect codeLine="25" fill="#F1F1F1" height="80.3875" id="WaitingRoomService" rx="2" ry="2" style="stroke:#181818;stroke-width:0.4000000000000001;" width="280" x="374.4" y="333.6"/><text fill="#000000" font-family="sans-serif" font-size="11.2" lengthAdjust="spacing" textLength="104.8" x="462" y="349.6859">WaitingRoomService</text><line style="stroke:#181818;stroke-width:0.4000000000000001;" x1="375.2" x2="653.6" y1="356.4969" y2="356.4969"/><line style="stroke:#181818;stroke-width:0.4000000000000001;" x1="375.2" x2="653.6" y1="362.8969" y2="362.8969"/><text fill="#000000" font-family="sans-serif" font-size="11.2" lengthAdjust="spacing" textLength="270.4" x="379.2" y="378.1828">+WaitingRoomService(repo: WaitingRoomRepository)</text><text fill="#000000" font-family="sans-serif" font-size="11.2" lengthAdjust="spacing" textLength="186.4" x="379.2" y="393.0797">+getWaitingRoomUsers(): List&lt;User&gt;</text><text fill="#000000" font-family="sans-serif" font-size="11.2" lengthAdjust="spacing" textLength="176.8" x="379.2" y="407.9766">+sortByArrivalTime(list: List&lt;User&gt;)</text></g><!--class VaccinationCenterRepository--><g id="elem_VaccinationCenterRepository"><rect codeLine="32" fill="#F1F1F1" height="63.3625" id="VaccinationCenterRepository" rx="2" ry="2" style="stroke:#181818;stroke-width:0.4000000000000001;" width="152" x="100" y="476.8"/><text fill="#000000" font-family="sans-serif" font-size="9.6" font-style="italic" lengthAdjust="spacing" textLength="48.8" x="151.6" y="491.1594">&#171;interface&#187;</text><text fill="#000000" font-family="sans-serif" font-size="11.2" font-style="italic" lengthAdjust="spacing" textLength="147.2" x="102.4" y="505.6547">VaccinationCenterRepository</text><line style="stroke:#181818;stroke-width:0.4000000000000001;" x1="100.8" x2="251.2" y1="512.4656" y2="512.4656"/><line style="stroke:#181818;stroke-width:0.4000000000000001;" x1="100.8" x2="251.2" y1="518.8656" y2="518.8656"/><text fill="#000000" font-family="sans-serif" font-size="11.2" lengthAdjust="spacing" textLength="116.8" x="104.8" y="534.1516">+findAll(): List&lt;Facility&gt;</text></g><!--class WaitingRoomRepository--><g id="elem_WaitingRoomRepository"><rect codeLine="36" fill="#F1F1F1" height="63.3625" id="WaitingRoomRepository" rx="2" ry="2" style="stroke:#181818;stroke-width:0.4000000000000001;" width="127.2" x="378.8" y="476.8"/><text fill="#000000" font-family="sans-serif" font-size="9.6" font-style="italic" lengthAdjust="spacing" textLength="48.8" x="418" y="491.1594">&#171;interface&#187;</text><text fill="#000000" font-family="sans-serif" font-size="11.2" font-style="italic" lengthAdjust="spacing" textLength="122.4" x="381.2" y="505.6547">WaitingRoomRepository</text><line style="stroke:#181818;stroke-width:0.4000000000000001;" x1="379.6" x2="505.2" y1="512.4656" y2="512.4656"/><line style="stroke:#181818;stroke-width:0.4000000000000001;" x1="379.6" x2="505.2" y1="518.8656" y2="518.8656"/><text fill="#000000" font-family="sans-serif" font-size="11.2" lengthAdjust="spacing" textLength="104.8" x="383.6" y="534.1516">+findAll(): List&lt;User&gt;</text></g><!--class User--><g id="elem_User"><rect codeLine="40" fill="#F1F1F1" height="35.6969" id="User" rx="2" ry="2" style="stroke:#181818;stroke-width:0.4000000000000001;" width="28" x="548.4" y="603.2"/><text fill="#000000" font-family="sans-serif" font-size="11.2" lengthAdjust="spacing" textLength="23.2" x="550.8" y="619.2859">User</text><line style="stroke:#181818;stroke-width:0.4000000000000001;" x1="549.2" x2="575.6" y1="626.0969" y2="626.0969"/><line style="stroke:#181818;stroke-width:0.4000000000000001;" x1="549.2" x2="575.6" y1="632.4969" y2="632.4969"/></g><!--class Facility--><g id="elem_Facility"><rect codeLine="43" fill="#F1F1F1" height="35.6969" id="Facility" rx="2" ry="2" style="stroke:#181818;stroke-width:0.4000000000000001;" width="40" x="156" y="603.2"/><text fill="#000000" font-family="sans-serif" font-size="11.2" lengthAdjust="spacing" textLength="35.2" x="158.4" y="619.2859">Facility</text><line style="stroke:#181818;stroke-width:0.4000000000000001;" x1="156.8" x2="195.2" y1="626.0969" y2="626.0969"/><line style="stroke:#181818;stroke-width:0.4000000000000001;" x1="156.8" x2="195.2" y1="632.4969" y2="632.4969"/></g><!--class WaitingRoomMapper--><g id="elem_WaitingRoomMapper"><rect codeLine="47" fill="#F1F1F1" height="50.5938" id="WaitingRoomMapper" rx="2" ry="2" style="stroke:#181818;stroke-width:0.4000000000000001;" width="163.2" x="615.2" y="212.4"/><text fill="#000000" font-family="sans-serif" font-size="11.2" lengthAdjust="spacing" textLength="105.6" x="644" y="228.4859">WaitingRoomMapper</text><line style="stroke:#181818;stroke-width:0.4000000000000001;" x1="616" x2="777.6" y1="235.2969" y2="235.2969"/><line style="stroke:#181818;stroke-width:0.4000000000000001;" x1="616" x2="777.6" y1="241.6969" y2="241.6969"/><text fill="#000000" font-family="sans-serif" font-size="11.2" lengthAdjust="spacing" textLength="153.6" x="620" y="256.9828">+toDTO(user: User): UserDTO</text></g><!--class UserDTO--><g id="elem_UserDTO"><rect codeLine="51" fill="#F1F1F1" height="35.6969" id="UserDTO" rx="2" ry="2" style="stroke:#181818;stroke-width:0.4000000000000001;" width="52" x="767.6" y="355.6"/><text fill="#000000" font-family="sans-serif" font-size="11.2" lengthAdjust="spacing" textLength="47.2" x="770" y="371.6859">UserDTO</text><line style="stroke:#181818;stroke-width:0.4000000000000001;" x1="768.4" x2="818.8" y1="378.4969" y2="378.4969"/><line style="stroke:#181818;stroke-width:0.4000000000000001;" x1="768.4" x2="818.8" y1="384.8969" y2="384.8969"/></g><!--class FacilityDtoList--><g id="elem_FacilityDtoList"><rect codeLine="54" fill="#F1F1F1" height="50.5938" id="FacilityDtoList" rx="2" ry="2" style="stroke:#181818;stroke-width:0.4000000000000001;" width="168" x="863.2" y="212.4"/><text fill="#000000" font-family="sans-serif" font-size="11.2" lengthAdjust="spacing" textLength="70.4" x="912" y="228.4859">FacilityDtoList</text><line style="stroke:#181818;stroke-width:0.4000000000000001;" x1="864" x2="1030.4" y1="235.2969" y2="235.2969"/><line style="stroke:#181818;stroke-width:0.4000000000000001;" x1="864" x2="1030.4" y1="241.6969" y2="241.6969"/><text fill="#000000" font-family="sans-serif" font-size="11.2" lengthAdjust="spacing" textLength="158.4" x="868" y="256.9828">+create(facilities: List&lt;Facility&gt;)</text></g><!--link ConsultWaitingRoomView to ConsultWaitingRoomController--><g id="link_ConsultWaitingRoomView_ConsultWaitingRoomController"><path codeLine="60" d="M789.6,41.696 C789.6,55.104 789.6,69.256 789.6,85.432 " fill="none" id="ConsultWaitingRoomView-to-ConsultWaitingRoomController" style="stroke:#181818;stroke-width:0.8000000000000002;stroke-dasharray:7.0,7.0;"/><polygon fill="#181818" points="789.6,90.232,792.8,83.032,789.6,86.232,786.4,83.032,789.6,90.232" style="stroke:#181818;stroke-width:0.8000000000000002;"/></g><!--link ConsultWaitingRoomController to App--><g id="link_ConsultWaitingRoomController_App"><path codeLine="61" d="M695.808,156.024 C651.064,171.296 602.2145,187.969 557.4865,203.241 " fill="none" id="ConsultWaitingRoomController-to-App" style="stroke:#181818;stroke-width:0.8000000000000002;stroke-dasharray:7.0,7.0;"/><polygon fill="#181818" points="552.944,204.792,560.7918,205.4938,556.7294,203.4995,558.7238,199.4372,552.944,204.792" style="stroke:#181818;stroke-width:0.8000000000000002;"/></g><!--link ConsultWaitingRoomController to WaitingRoomMapper--><g id="link_ConsultWaitingRoomController_WaitingRoomMapper"><path codeLine="62" d="M763.256,156.024 C748.576,173.872 733.6269,192.0463 720.0589,208.5263 " fill="none" id="ConsultWaitingRoomController-to-WaitingRoomMapper" style="stroke:#181818;stroke-width:0.8000000000000002;stroke-dasharray:7.0,7.0;"/><polygon fill="#181818" points="717.008,212.232,724.0548,208.7074,719.5504,209.1439,719.1139,204.6396,717.008,212.232" style="stroke:#181818;stroke-width:0.8000000000000002;"/></g><!--link ConsultWaitingRoomController to UserDTO--><g id="link_ConsultWaitingRoomController_UserDTO"><path codeLine="63" d="M790.704,156.24 C791.176,171.032 791.688,188.808 792,204.8 C793.08,259.768 793.4131,320.072 793.5331,350.584 " fill="none" id="ConsultWaitingRoomController-to-UserDTO" style="stroke:#181818;stroke-width:0.8000000000000002;stroke-dasharray:7.0,7.0;"/><polygon fill="#181818" points="793.552,355.384,796.7237,348.1715,793.5363,351.384,790.3237,348.1966,793.552,355.384" style="stroke:#181818;stroke-width:0.8000000000000002;"/></g><!--link ConsultWaitingRoomController to FacilityDtoList--><g id="link_ConsultWaitingRoomController_FacilityDtoList"><path codeLine="64" d="M834.344,156.024 C859.272,173.872 885.9364,192.9589 908.9684,209.4389 " fill="none" id="ConsultWaitingRoomController-to-FacilityDtoList" style="stroke:#181818;stroke-width:0.8000000000000002;stroke-dasharray:7.0,7.0;"/><polygon fill="#181818" points="912.872,212.232,908.8787,205.4399,909.619,209.9044,905.1545,210.6447,912.872,212.232" style="stroke:#181818;stroke-width:0.8000000000000002;"/></g><!--link App to RepositoryFactory--><g id="link_App_RepositoryFactory"><path codeLine="66" d="M391.728,270.424 C351.32,289.6 304.0241,312.0374 261.4081,332.2694 " fill="none" id="App-to-RepositoryFactory" style="stroke:#181818;stroke-width:0.8000000000000002;"/><polygon fill="#181818" points="257.072,334.328,264.9486,334.1309,260.6855,332.6125,262.2038,328.3493,257.072,334.328" style="stroke:#181818;stroke-width:0.8000000000000002;"/><text fill="#000000" font-family="sans-serif" font-size="10.4" lengthAdjust="spacing" textLength="33.6" x="336" y="306.4227">fornece</text><text fill="#000000" font-family="sans-serif" font-size="10.4" lengthAdjust="spacing" textLength="5.6" x="374.9284" y="287.989">1</text><text fill="#000000" font-family="sans-serif" font-size="10.4" lengthAdjust="spacing" textLength="5.6" x="262.479" y="325.498">1</text></g><!--link App to WaitingRoomService--><g id="link_App_WaitingRoomService"><path codeLine="67" d="M472.424,270.592 C480.176,289.464 488.2003,309.0079 496.4083,328.9919 " fill="none" id="App-to-WaitingRoomService" style="stroke:#181818;stroke-width:0.8000000000000002;stroke-dasharray:7.0,7.0;"/><polygon fill="#181818" points="498.232,333.432,498.4566,325.5561,496.7123,329.7319,492.5365,327.9877,498.232,333.432" style="stroke:#181818;stroke-width:0.8000000000000002;"/><text fill="#000000" font-family="sans-serif" font-size="10.4" lengthAdjust="spacing" textLength="16.8" x="488" y="306.4227">cria</text></g><!--link WaitingRoomService to WaitingRoomRepository--><g id="link_WaitingRoomService_WaitingRoomRepository"><path codeLine="69" d="M493.184,413.64 C482.32,433.752 471.5536,453.6569 461.4096,472.4329 " fill="none" id="WaitingRoomService-to-WaitingRoomRepository" style="stroke:#181818;stroke-width:0.8000000000000002;stroke-dasharray:7.0,7.0;"/><polygon fill="#181818" points="459.128,476.656,465.3658,471.8424,461.0293,473.1368,459.735,468.8003,459.128,476.656" style="stroke:#181818;stroke-width:0.8000000000000002;"/><text fill="#000000" font-family="sans-serif" font-size="10.4" lengthAdjust="spacing" textLength="16.8" x="479.2" y="449.6227">usa</text></g><!--link WaitingRoomService to User--><g id="link_WaitingRoomService_User"><path codeLine="70" d="M522.056,413.648 C532.672,468.048 550.4887,559.3448 558.1127,598.4168 " fill="none" id="WaitingRoomService-to-User" style="stroke:#181818;stroke-width:0.8000000000000002;stroke-dasharray:7.0,7.0;"/><polygon fill="#181818" points="559.032,603.128,560.7939,595.4484,558.2659,599.202,554.5123,596.6741,559.032,603.128" style="stroke:#181818;stroke-width:0.8000000000000002;"/><text fill="#000000" font-family="sans-serif" font-size="10.4" lengthAdjust="spacing" textLength="41.6" x="547.2" y="512.8227">manipula</text></g><!--link RepositoryFactory to VaccinationCenterRepository--><g id="link_RepositoryFactory_VaccinationCenterRepository"><path codeLine="72" d="M176,412.928 C176,433.208 176,452.944 176,471.96 " fill="none" id="RepositoryFactory-to-VaccinationCenterRepository" style="stroke:#181818;stroke-width:0.8000000000000002;stroke-dasharray:7.0,7.0;"/><polygon fill="#181818" points="176,476.76,179.2,469.56,176,472.76,172.8,469.56,176,476.76" style="stroke:#181818;stroke-width:0.8000000000000002;"/><text fill="#000000" font-family="sans-serif" font-size="10.4" lengthAdjust="spacing" textLength="16.8" x="176.8" y="449.6227">cria</text></g><!--link RepositoryFactory to WaitingRoomRepository--><g id="link_RepositoryFactory_WaitingRoomRepository"><path codeLine="73" d="M253.056,412.928 C293.624,433.208 338.4029,455.597 376.4269,474.613 " fill="none" id="RepositoryFactory-to-WaitingRoomRepository" style="stroke:#181818;stroke-width:0.8000000000000002;stroke-dasharray:7.0,7.0;"/><polygon fill="#181818" points="380.72,476.76,375.7117,470.6775,377.1424,474.9708,372.8491,476.4016,380.72,476.76" style="stroke:#181818;stroke-width:0.8000000000000002;"/><text fill="#000000" font-family="sans-serif" font-size="10.4" lengthAdjust="spacing" textLength="16.8" x="326.4" y="449.6227">cria</text></g><!--link VaccinationCenterRepository to Facility--><g id="link_VaccinationCenterRepository_Facility"><path codeLine="75" d="M176,540.176 C176,560.48 176,581.48 176,598.256 " fill="none" id="VaccinationCenterRepository-to-Facility" style="stroke:#181818;stroke-width:0.8000000000000002;stroke-dasharray:7.0,7.0;"/><polygon fill="#181818" points="176,603.056,179.2,595.856,176,599.056,172.8,595.856,176,603.056" style="stroke:#181818;stroke-width:0.8000000000000002;"/><text fill="#000000" font-family="sans-serif" font-size="10.4" lengthAdjust="spacing" textLength="20" x="176.8" y="576.0227">gere</text></g><!--link WaitingRoomRepository to User--><g id="link_WaitingRoomRepository_User"><path codeLine="76" d="M475.824,540.176 C499.68,562.28 527.0394,587.6333 544.7354,604.0333 " fill="none" id="WaitingRoomRepository-to-User" style="stroke:#181818;stroke-width:0.8000000000000002;stroke-dasharray:7.0,7.0;"/><polygon fill="#181818" points="548.256,607.296,545.1503,600.0548,545.3222,604.577,540.8,604.7489,548.256,607.296" style="stroke:#181818;stroke-width:0.8000000000000002;"/><text fill="#000000" font-family="sans-serif" font-size="10.4" lengthAdjust="spacing" textLength="20" x="517.6" y="576.0227">gere</text></g><!--link WaitingRoomMapper to User--><g id="link_WaitingRoomMapper_User"><path codeLine="78" d="M695.152,263.056 C692.32,297.496 685.08,361.624 668,413.6 C643.584,487.896 598.0897,564.2927 576.2497,598.9007 " fill="none" id="WaitingRoomMapper-to-User" style="stroke:#181818;stroke-width:0.8000000000000002;stroke-dasharray:7.0,7.0;"/><polygon fill="#181818" points="573.688,602.96,580.2367,598.5789,575.8227,599.5773,574.8243,595.1633,573.688,602.96" style="stroke:#181818;stroke-width:0.8000000000000002;"/><text fill="#000000" font-family="sans-serif" font-size="10.4" lengthAdjust="spacing" textLength="38.4" x="660" y="449.6227">converte</text></g><!--link WaitingRoomMapper to UserDTO--><g id="link_WaitingRoomMapper_UserDTO"><path codeLine="79" d="M714.552,263.048 C733.88,289.88 761.4584,328.1773 778.3784,351.6653 " fill="none" id="WaitingRoomMapper-to-UserDTO" style="stroke:#181818;stroke-width:0.8000000000000002;stroke-dasharray:7.0,7.0;"/><polygon fill="#181818" points="781.184,355.56,779.572,347.8476,778.846,352.3144,774.3791,351.5884,781.184,355.56" style="stroke:#181818;stroke-width:0.8000000000000002;"/><text fill="#000000" font-family="sans-serif" font-size="10.4" lengthAdjust="spacing" textLength="16.8" x="746.4" y="306.4227">cria</text></g><!--SRC=[ZLLDRnCn4BtxLrWzm4Oe1QvHjL98X1If1PIavJnr9i72QwziRr10_JKSAY5nwa_OFyPuDzbiiX-XbrN7RsRUUsDFliaLSY6jKCZSTwbJi91meS2viVTMFcOUPyBeXVo9_1rZh_bmEEGJI605d59dsgDTWq0UtSy6uP0LoNnYjCkK_mhIIxsP6vCyIFp1Vx4drecWYBT6ARI4u_JtXc_GVmGX5M7GHOCHlvNEt-n3k-doStm4rYfLo7k7ja0zDRcFKoK5vC_vRyFVafAr1NJUPZwpK5CoJjCwdJccnablx8vOX4_erGYsibgWtKg18Q4P3GnbvMQZ8B-vgKxZk4xe0OIG6hmqUe81SimDdNgEMqcUPhSUj9bPgCYV3OzkyvSD-Hg2dt2JlmXfwXUZgRmIqsALfQOTB0QjzCF0tSdu3pV46Ui_xCRMoYsefKmmKWIf0mTjmgOcoVzgISBkp0gLuSY_K0jAolze8Q7KTfnSZzyTCrnBlHehrRZTyUcLQ3NXFqkMFbHFB_nRVug7ZcMiT61fGRirsb9buGIiZECHFIV-Yjz1cgBj66nvMB7nXdAYZ9gEYjQ3yaF1KqgXSWkhgJT1H5LEM0IFqRhQ2-U-rUOuHqLHeo6XMH3xHt1OoD26BwO5UzQnggwluzuTnNeNMCYcpN4PrB3jSih1l8l0CmSP2xliwlqLwOwBRtFDZFZQM8sqZmBsZE3XmOve1X8OQpawowZTr17F77Ib53Ton1FGCiqKbMuo2x2-nxKdrPxOHQdKqLUsxYCbRD0YQwzMqr6WMFD5r23qexf5wx475Tx3dk8_]--></g></svg>