<svg xmlns="http://www.w3.org/2000/svg" xmlns:xlink="http://www.w3.org/1999/xlink" contentStyleType="text/css" height="1970px" preserveAspectRatio="none" style="width:2679px;height:1970px;background:#FFFFFF;" version="1.1" viewBox="0 0 2679 1970" width="2679px" zoomAndPan="magnify"><defs/><g><rect fill="#FFFFFF" height="1784.5488" style="stroke:#181818;stroke-width:1.0;" width="10" x="37.8413" y="93.6211"/><rect fill="#FFFFFF" height="31.291" style="stroke:#181818;stroke-width:1.0;" width="10" x="370.6094" y="116.9121"/><rect fill="#FFFFFF" height="458.4043" style="stroke:#181818;stroke-width:1.0;" width="10" x="370.6094" y="179.4941"/><rect fill="#FFFFFF" height="31.291" style="stroke:#181818;stroke-width:1.0;" width="10" x="370.6094" y="669.1895"/><rect fill="#FFFFFF" height="113.7949" style="stroke:#181818;stroke-width:1.0;" width="10" x="370.6094" y="731.7715"/><rect fill="#FFFFFF" height="104.1641" style="stroke:#181818;stroke-width:1.0;" width="10" x="370.6094" y="876.8574"/><rect fill="#FFFFFF" height="856.8574" style="stroke:#181818;stroke-width:1.0;" width="10" x="370.6094" y="1012.3125"/><rect fill="#FFFFFF" height="369.5313" style="stroke:#181818;stroke-width:1.0;" width="10" x="610.5464" y="237.0762"/><rect fill="#FFFFFF" height="794.2754" style="stroke:#181818;stroke-width:1.0;" width="10" x="610.5464" y="1043.6035"/><rect fill="#FFFFFF" height="137.4941" style="stroke:#181818;stroke-width:1.0;" width="10" x="827.0825" y="268.3672"/><rect fill="#FFFFFF" height="99.873" style="stroke:#181818;stroke-width:1.0;" width="10" x="1071.4497" y="437.1523"/><rect fill="#FFFFFF" height="731.6934" style="stroke:#181818;stroke-width:1.0;" width="10" x="1071.4497" y="1074.8945"/><rect fill="#FFFFFF" height="31.291" style="stroke:#181818;stroke-width:1.0;" width="10" x="1333.0649" y="299.6582"/><rect fill="#FFFFFF" height="31.291" style="stroke:#181818;stroke-width:1.0;" width="10" x="1333.0649" y="1106.1855"/><rect fill="#FFFFFF" height="31.291" style="stroke:#181818;stroke-width:1.0;" width="10" x="1333.0649" y="1536.9297"/><rect fill="#FFFFFF" height="31.291" style="stroke:#181818;stroke-width:1.0;" width="10" x="1520.4644" y="1195.0586"/><rect fill="#FFFFFF" height="31.291" style="stroke:#181818;stroke-width:1.0;" width="10" x="1520.4644" y="1257.6406"/><rect fill="#FFFFFF" height="31.291" style="stroke:#181818;stroke-width:1.0;" width="10" x="1520.4644" y="1474.3477"/><rect fill="#FFFFFF" height="31.291" style="stroke:#181818;stroke-width:1.0;" width="10" x="1726.9395" y="468.4434"/><rect fill="#FFFFFF" height="31.291" style="stroke:#181818;stroke-width:1.0;" width="10" x="1726.9395" y="1599.5117"/><rect fill="#FFFFFF" height="31.291" style="stroke:#181818;stroke-width:1.0;" width="10" x="1966.1006" y="1395.1348"/><rect fill="#FFFFFF" height="31.291" style="stroke:#181818;stroke-width:1.0;" width="10" x="1966.1006" y="1737.0059"/><rect fill="none" height="756.2363" style="stroke:#000000;stroke-width:1.5;" width="1837.7632" x="10" y="194.4941"/><rect fill="none" height="623.8203" style="stroke:#000000;stroke-width:1.5;" width="1718.0928" x="954.7915" y="1152.4766"/><line style="stroke:#181818;stroke-width:0.5;stroke-dasharray:5.0,5.0;" x1="42" x2="42" y1="83.6211" y2="1887.1699"/><line style="stroke:#181818;stroke-width:0.5;stroke-dasharray:5.0,5.0;" x1="375.2271" x2="375.2271" y1="83.6211" y2="1887.1699"/><line style="stroke:#181818;stroke-width:0.5;stroke-dasharray:5.0,5.0;" x1="614.9917" x2="614.9917" y1="83.6211" y2="1887.1699"/><line style="stroke:#181818;stroke-width:0.5;stroke-dasharray:5.0,5.0;" x1="831.6274" x2="831.6274" y1="83.6211" y2="1887.1699"/><line style="stroke:#181818;stroke-width:0.5;stroke-dasharray:5.0,5.0;" x1="1075.7915" x2="1075.7915" y1="370.7598" y2="1887.1699"/><line style="stroke:#181818;stroke-width:0.5;stroke-dasharray:5.0,5.0;" x1="1337.3169" x2="1337.3169" y1="83.6211" y2="1887.1699"/><line style="stroke:#181818;stroke-width:0.5;stroke-dasharray:5.0,5.0;" x1="1524.813" x2="1524.813" y1="927.7939" y2="1887.1699"/><line style="stroke:#181818;stroke-width:0.5;stroke-dasharray:5.0,5.0;" x1="1731.1157" x2="1731.1157" y1="83.6211" y2="1887.1699"/><line style="stroke:#181818;stroke-width:0.5;stroke-dasharray:5.0,5.0;" x1="1970.7632" x2="1970.7632" y1="83.6211" y2="1887.1699"/><line style="stroke:#181818;stroke-width:0.5;stroke-dasharray:5.0,5.0;" x1="2158.438" x2="2158.438" y1="83.6211" y2="1887.1699"/><line style="stroke:#181818;stroke-width:0.5;stroke-dasharray:5.0,5.0;" x1="2299.1479" x2="2299.1479" y1="1328.7422" y2="1887.1699"/><line style="stroke:#181818;stroke-width:0.5;stroke-dasharray:5.0,5.0;" x1="2523.3335" x2="2523.3335" y1="1670.6133" y2="1887.1699"/><text fill="#000000" font-family="sans-serif" font-size="14" lengthAdjust="spacing" textLength="39.6826" x="20" y="80.1074">Admin</text><ellipse cx="42.8413" cy="13.5" fill="#E2E2F0" rx="8" ry="8" style="stroke:#181818;stroke-width:0.5;"/><path d="M42.8413,21.5 L42.8413,48.5 M29.8413,29.5 L55.8413,29.5 M42.8413,48.5 L29.8413,63.5 M42.8413,48.5 L55.8413,63.5 " fill="none" style="stroke:#181818;stroke-width:0.5;"/><text fill="#000000" font-family="sans-serif" font-size="14" lengthAdjust="spacing" textLength="39.6826" x="20" y="1901.2773">Admin</text><ellipse cx="42.8413" cy="1913.291" fill="#E2E2F0" rx="8" ry="8" style="stroke:#181818;stroke-width:0.5;"/><path d="M42.8413,1921.291 L42.8413,1948.291 M29.8413,1929.291 L55.8413,1929.291 M42.8413,1948.291 L29.8413,1963.291 M42.8413,1948.291 L55.8413,1963.291 " fill="none" style="stroke:#181818;stroke-width:0.5;"/><rect fill="#E2E2F0" height="32.6211" rx="2.5" ry="2.5" style="stroke:#181818;stroke-width:0.5;" width="214.7646" x="268.2271" y="50"/><text fill="#000000" font-family="sans-serif" font-size="14" lengthAdjust="spacing" textLength="200.7646" x="275.2271" y="72.1074">:RegisterVaccinationCenterView</text><rect fill="#E2E2F0" height="32.6211" rx="2.5" ry="2.5" style="stroke:#181818;stroke-width:0.5;" width="214.7646" x="268.2271" y="1886.1699"/><text fill="#000000" font-family="sans-serif" font-size="14" lengthAdjust="spacing" textLength="200.7646" x="275.2271" y="1908.2773">:RegisterVaccinationCenterView</text><rect fill="#E2E2F0" height="32.6211" rx="2.5" ry="2.5" style="stroke:#181818;stroke-width:0.5;" width="245.1094" x="492.9917" y="50"/><text fill="#000000" font-family="sans-serif" font-size="14" lengthAdjust="spacing" textLength="231.1094" x="499.9917" y="72.1074">:RegisterVaccinationCenterController</text><rect fill="#E2E2F0" height="32.6211" rx="2.5" ry="2.5" style="stroke:#181818;stroke-width:0.5;" width="245.1094" x="492.9917" y="1886.1699"/><text fill="#000000" font-family="sans-serif" font-size="14" lengthAdjust="spacing" textLength="231.1094" x="499.9917" y="1908.2773">:RegisterVaccinationCenterController</text><rect fill="#E2E2F0" height="32.6211" rx="2.5" ry="2.5" style="stroke:#181818;stroke-width:0.5;" width="38.9102" x="812.6274" y="50"/><text fill="#000000" font-family="sans-serif" font-size="14" lengthAdjust="spacing" textLength="24.9102" x="819.6274" y="72.1074">App</text><rect fill="#E2E2F0" height="32.6211" rx="2.5" ry="2.5" style="stroke:#181818;stroke-width:0.5;" width="38.9102" x="812.6274" y="1886.1699"/><text fill="#000000" font-family="sans-serif" font-size="14" lengthAdjust="spacing" textLength="24.9102" x="819.6274" y="1908.2773">App</text><rect fill="#E2E2F0" height="32.6211" rx="2.5" ry="2.5" style="stroke:#181818;stroke-width:0.5;" width="223.3164" x="964.7915" y="1886.1699"/><text fill="#000000" font-family="sans-serif" font-size="14" lengthAdjust="spacing" textLength="209.3164" x="971.7915" y="1908.2773">service:VaccinationCenterService</text><rect fill="#E2E2F0" height="32.6211" rx="2.5" ry="2.5" style="stroke:#181818;stroke-width:0.5;" width="173.4961" x="1251.3169" y="50"/><text fill="#000000" font-family="sans-serif" font-size="14" lengthAdjust="spacing" textLength="159.4961" x="1258.3169" y="72.1074">factory:RepositoryFactory</text><rect fill="#E2E2F0" height="32.6211" rx="2.5" ry="2.5" style="stroke:#181818;stroke-width:0.5;" width="173.4961" x="1251.3169" y="1886.1699"/><text fill="#000000" font-family="sans-serif" font-size="14" lengthAdjust="spacing" textLength="159.4961" x="1258.3169" y="1908.2773">factory:RepositoryFactory</text><rect fill="#E2E2F0" height="32.6211" rx="2.5" ry="2.5" style="stroke:#181818;stroke-width:0.5;" width="181.3027" x="1434.813" y="1886.1699"/><text fill="#000000" font-family="sans-serif" font-size="14" lengthAdjust="spacing" textLength="167.3027" x="1441.813" y="1908.2773">dto:VaccinationCenterDTO</text><rect fill="#E2E2F0" height="32.6211" rx="2.5" ry="2.5" style="stroke:#181818;stroke-width:0.5;" width="211.6475" x="1626.1157" y="50"/><text fill="#000000" font-family="sans-serif" font-size="14" lengthAdjust="spacing" textLength="197.6475" x="1633.1157" y="72.1074">repoVT:VaccineTypeRepository</text><rect fill="#E2E2F0" height="32.6211" rx="2.5" ry="2.5" style="stroke:#181818;stroke-width:0.5;" width="211.6475" x="1626.1157" y="1886.1699"/><text fill="#000000" font-family="sans-serif" font-size="14" lengthAdjust="spacing" textLength="197.6475" x="1633.1157" y="1908.2773">repoVT:VaccineTypeRepository</text><rect fill="#E2E2F0" height="32.6211" rx="2.5" ry="2.5" style="stroke:#181818;stroke-width:0.5;" width="246.6748" x="1847.7632" y="50"/><text fill="#000000" font-family="sans-serif" font-size="14" lengthAdjust="spacing" textLength="232.6748" x="1854.7632" y="72.1074">repoVC:VaccinationCenterRepository</text><rect fill="#E2E2F0" height="32.6211" rx="2.5" ry="2.5" style="stroke:#181818;stroke-width:0.5;" width="246.6748" x="1847.7632" y="1886.1699"/><text fill="#000000" font-family="sans-serif" font-size="14" lengthAdjust="spacing" textLength="232.6748" x="1854.7632" y="1908.2773">repoVC:VaccinationCenterRepository</text><rect fill="#E2E2F0" height="32.6211" rx="2.5" ry="2.5" style="stroke:#181818;stroke-width:0.5;" width="109.71" x="2104.438" y="50"/><text fill="#000000" font-family="sans-serif" font-size="14" lengthAdjust="spacing" textLength="95.71" x="2111.438" y="72.1074">vt:VaccineType</text><rect fill="#E2E2F0" height="32.6211" rx="2.5" ry="2.5" style="stroke:#181818;stroke-width:0.5;" width="109.71" x="2104.438" y="1886.1699"/><text fill="#000000" font-family="sans-serif" font-size="14" lengthAdjust="spacing" textLength="95.71" x="2111.438" y="1908.2773">vt:VaccineType</text><rect fill="#E2E2F0" height="32.6211" rx="2.5" ry="2.5" style="stroke:#181818;stroke-width:0.5;" width="150.1855" x="2224.1479" y="1886.1699"/><text fill="#000000" font-family="sans-serif" font-size="14" lengthAdjust="spacing" textLength="136.1855" x="2231.1479" y="1908.2773">hc:Healthcare_Center</text><rect fill="#E2E2F0" height="32.6211" rx="2.5" ry="2.5" style="stroke:#181818;stroke-width:0.5;" width="278.5508" x="2384.3335" y="1886.1699"/><text fill="#000000" font-family="sans-serif" font-size="14" lengthAdjust="spacing" textLength="264.5508" x="2391.3335" y="1908.2773">cm:Community_Mass_Vaccination_Center</text><rect fill="#FFFFFF" height="1784.5488" style="stroke:#181818;stroke-width:1.0;" width="10" x="37.8413" y="93.6211"/><rect fill="#FFFFFF" height="31.291" style="stroke:#181818;stroke-width:1.0;" width="10" x="370.6094" y="116.9121"/><rect fill="#FFFFFF" height="458.4043" style="stroke:#181818;stroke-width:1.0;" width="10" x="370.6094" y="179.4941"/><rect fill="#FFFFFF" height="31.291" style="stroke:#181818;stroke-width:1.0;" width="10" x="370.6094" y="669.1895"/><rect fill="#FFFFFF" height="113.7949" style="stroke:#181818;stroke-width:1.0;" width="10" x="370.6094" y="731.7715"/><rect fill="#FFFFFF" height="104.1641" style="stroke:#181818;stroke-width:1.0;" width="10" x="370.6094" y="876.8574"/><rect fill="#FFFFFF" height="856.8574" style="stroke:#181818;stroke-width:1.0;" width="10" x="370.6094" y="1012.3125"/><rect fill="#FFFFFF" height="369.5313" style="stroke:#181818;stroke-width:1.0;" width="10" x="610.5464" y="237.0762"/><rect fill="#FFFFFF" height="794.2754" style="stroke:#181818;stroke-width:1.0;" width="10" x="610.5464" y="1043.6035"/><rect fill="#FFFFFF" height="137.4941" style="stroke:#181818;stroke-width:1.0;" width="10" x="827.0825" y="268.3672"/><rect fill="#FFFFFF" height="99.873" style="stroke:#181818;stroke-width:1.0;" width="10" x="1071.4497" y="437.1523"/><rect fill="#FFFFFF" height="731.6934" style="stroke:#181818;stroke-width:1.0;" width="10" x="1071.4497" y="1074.8945"/><rect fill="#FFFFFF" height="31.291" style="stroke:#181818;stroke-width:1.0;" width="10" x="1333.0649" y="299.6582"/><rect fill="#FFFFFF" height="31.291" style="stroke:#181818;stroke-width:1.0;" width="10" x="1333.0649" y="1106.1855"/><rect fill="#FFFFFF" height="31.291" style="stroke:#181818;stroke-width:1.0;" width="10" x="1333.0649" y="1536.9297"/><rect fill="#FFFFFF" height="31.291" style="stroke:#181818;stroke-width:1.0;" width="10" x="1520.4644" y="1195.0586"/><rect fill="#FFFFFF" height="31.291" style="stroke:#181818;stroke-width:1.0;" width="10" x="1520.4644" y="1257.6406"/><rect fill="#FFFFFF" height="31.291" style="stroke:#181818;stroke-width:1.0;" width="10" x="1520.4644" y="1474.3477"/><rect fill="#FFFFFF" height="31.291" style="stroke:#181818;stroke-width:1.0;" width="10" x="1726.9395" y="468.4434"/><rect fill="#FFFFFF" height="31.291" style="stroke:#181818;stroke-width:1.0;" width="10" x="1726.9395" y="1599.5117"/><rect fill="#FFFFFF" height="31.291" style="stroke:#181818;stroke-width:1.0;" width="10" x="1966.1006" y="1395.1348"/><rect fill="#FFFFFF" height="31.291" style="stroke:#181818;stroke-width:1.0;" width="10" x="1966.1006" y="1737.0059"/><polygon fill="#181818" points="358.6094,112.9121,368.6094,116.9121,358.6094,120.9121,362.6094,116.9121" style="stroke:#181818;stroke-width:1.0;"/><line style="stroke:#181818;stroke-width:1.0;" x1="47.8413" x2="364.6094" y1="116.9121" y2="116.9121"/><text fill="#000000" font-family="sans-serif" font-size="13" font-weight="bold" lengthAdjust="spacing" textLength="7.23" x="54.8413" y="111.6494">1</text><text fill="#000000" font-family="sans-serif" font-size="13" lengthAdjust="spacing" textLength="257.9688" x="66.0713" y="111.6494">requests to register a new vaccination center</text><polygon fill="#181818" points="58.8413,144.2031,48.8413,148.2031,58.8413,152.2031,54.8413,148.2031" style="stroke:#181818;stroke-width:1.0;"/><line style="stroke:#181818;stroke-width:1.0;stroke-dasharray:2.0,2.0;" x1="52.8413" x2="374.6094" y1="148.2031" y2="148.2031"/><text fill="#000000" font-family="sans-serif" font-size="13" font-weight="bold" lengthAdjust="spacing" textLength="7.23" x="64.8413" y="142.9404">2</text><text fill="#000000" font-family="sans-serif" font-size="13" lengthAdjust="spacing" textLength="116.3271" x="76.0713" y="142.9404">asks the facility type</text><polygon fill="#181818" points="358.6094,175.4941,368.6094,179.4941,358.6094,183.4941,362.6094,179.4941" style="stroke:#181818;stroke-width:1.0;"/><line style="stroke:#181818;stroke-width:1.0;" x1="47.8413" x2="364.6094" y1="179.4941" y2="179.4941"/><text fill="#000000" font-family="sans-serif" font-size="13" font-weight="bold" lengthAdjust="spacing" textLength="7.23" x="54.8413" y="174.2314">3</text><text fill="#000000" font-family="sans-serif" font-size="13" lengthAdjust="spacing" textLength="292.5381" x="66.0713" y="174.2314">selects facilityType (HEALTHCARE/COMMUNITY)</text><path d="M10,194.4941 L70.1709,194.4941 L70.1709,203.7852 L60.1709,213.7852 L10,213.7852 L10,194.4941 " fill="#EEEEEE" style="stroke:#000000;stroke-width:1.5;"/><rect fill="none" height="756.2363" style="stroke:#000000;stroke-width:1.5;" width="1837.7632" x="10" y="194.4941"/><text fill="#000000" font-family="sans-serif" font-size="13" font-weight="bold" lengthAdjust="spacing" textLength="15.1709" x="25" y="209.5225">alt</text><text fill="#000000" font-family="sans-serif" font-size="11" font-weight="bold" lengthAdjust="spacing" textLength="148.21" x="85.1709" y="208.3643">[facilityType = COMMUNITY]</text><polygon fill="#181818" points="598.5464,233.0762,608.5464,237.0762,598.5464,241.0762,602.5464,237.0762" style="stroke:#181818;stroke-width:1.0;"/><line style="stroke:#181818;stroke-width:1.0;" x1="380.6094" x2="604.5464" y1="237.0762" y2="237.0762"/><text fill="#000000" font-family="sans-serif" font-size="13" font-weight="bold" lengthAdjust="spacing" textLength="7.23" x="387.6094" y="231.8135">4</text><text fill="#000000" font-family="sans-serif" font-size="13" lengthAdjust="spacing" textLength="106.1963" x="398.8394" y="231.8135">listVaccineTypes()</text><polygon fill="#181818" points="815.0825,264.3672,825.0825,268.3672,815.0825,272.3672,819.0825,268.3672" style="stroke:#181818;stroke-width:1.0;"/><line style="stroke:#181818;stroke-width:1.0;" x1="620.5464" x2="821.0825" y1="268.3672" y2="268.3672"/><text fill="#000000" font-family="sans-serif" font-size="13" font-weight="bold" lengthAdjust="spacing" textLength="7.23" x="627.5464" y="263.1045">5</text><text fill="#000000" font-family="sans-serif" font-size="13" lengthAdjust="spacing" textLength="176.3062" x="638.7764" y="263.1045">getVaccinationCenterService()</text><polygon fill="#181818" points="1321.0649,295.6582,1331.0649,299.6582,1321.0649,303.6582,1325.0649,299.6582" style="stroke:#181818;stroke-width:1.0;"/><line style="stroke:#181818;stroke-width:1.0;" x1="837.0825" x2="1327.0649" y1="299.6582" y2="299.6582"/><text fill="#000000" font-family="sans-serif" font-size="13" font-weight="bold" lengthAdjust="spacing" textLength="7.23" x="844.0825" y="294.3955">6</text><text fill="#000000" font-family="sans-serif" font-size="13" lengthAdjust="spacing" textLength="164.0171" x="855.3125" y="294.3955">getVaccineTypeRepository()</text><polygon fill="#181818" points="848.0825,326.9492,838.0825,330.9492,848.0825,334.9492,844.0825,330.9492" style="stroke:#181818;stroke-width:1.0;"/><line style="stroke:#181818;stroke-width:1.0;stroke-dasharray:2.0,2.0;" x1="842.0825" x2="1337.0649" y1="330.9492" y2="330.9492"/><text fill="#000000" font-family="sans-serif" font-size="13" font-weight="bold" lengthAdjust="spacing" textLength="7.23" x="854.0825" y="325.6865">7</text><text fill="#000000" font-family="sans-serif" font-size="13" lengthAdjust="spacing" textLength="47.6899" x="865.3125" y="325.6865">VTRepo</text><polygon fill="#181818" points="952.7915,358.2402,962.7915,362.2402,952.7915,366.2402,956.7915,362.2402" style="stroke:#181818;stroke-width:1.0;"/><line style="stroke:#181818;stroke-width:1.0;stroke-dasharray:2.0,2.0;" x1="837.0825" x2="958.7915" y1="362.2402" y2="362.2402"/><text fill="#000000" font-family="sans-serif" font-size="13" font-weight="bold" lengthAdjust="spacing" textLength="7.23" x="844.0825" y="356.9775">8</text><text fill="#000000" font-family="sans-serif" font-size="13" lengthAdjust="spacing" textLength="92.479" x="855.3125" y="356.9775">create(VTRepo)</text><rect fill="#E2E2F0" height="32.6211" rx="2.5" ry="2.5" style="stroke:#181818;stroke-width:0.5;" width="223.3164" x="964.7915" y="338.9492"/><text fill="#000000" font-family="sans-serif" font-size="14" lengthAdjust="spacing" textLength="209.3164" x="971.7915" y="361.0566">service:VaccinationCenterService</text><polygon fill="#181818" points="631.5464,401.8613,621.5464,405.8613,631.5464,409.8613,627.5464,405.8613" style="stroke:#181818;stroke-width:1.0;"/><line style="stroke:#181818;stroke-width:1.0;stroke-dasharray:2.0,2.0;" x1="625.5464" x2="831.0825" y1="405.8613" y2="405.8613"/><text fill="#000000" font-family="sans-serif" font-size="13" font-weight="bold" lengthAdjust="spacing" textLength="7.23" x="637.5464" y="400.5986">9</text><text fill="#000000" font-family="sans-serif" font-size="13" lengthAdjust="spacing" textLength="41.1772" x="648.7764" y="400.5986">service</text><polygon fill="#181818" points="1059.4497,433.1523,1069.4497,437.1523,1059.4497,441.1523,1063.4497,437.1523" style="stroke:#181818;stroke-width:1.0;"/><line style="stroke:#181818;stroke-width:1.0;" x1="620.5464" x2="1065.4497" y1="437.1523" y2="437.1523"/><text fill="#000000" font-family="sans-serif" font-size="13" font-weight="bold" lengthAdjust="spacing" textLength="14.46" x="627.5464" y="431.8896">10</text><text fill="#000000" font-family="sans-serif" font-size="13" lengthAdjust="spacing" textLength="106.1963" x="646.0063" y="431.8896">listVaccineTypes()</text><polygon fill="#181818" points="1714.9395,464.4434,1724.9395,468.4434,1714.9395,472.4434,1718.9395,468.4434" style="stroke:#181818;stroke-width:1.0;"/><line style="stroke:#181818;stroke-width:1.0;" x1="1081.4497" x2="1720.9395" y1="468.4434" y2="468.4434"/><text fill="#000000" font-family="sans-serif" font-size="13" font-weight="bold" lengthAdjust="spacing" textLength="14.46" x="1088.4497" y="463.1807">11</text><text fill="#000000" font-family="sans-serif" font-size="13" lengthAdjust="spacing" textLength="44.0654" x="1106.9097" y="463.1807">findAll()</text><polygon fill="#181818" points="1092.4497,495.7344,1082.4497,499.7344,1092.4497,503.7344,1088.4497,499.7344" style="stroke:#181818;stroke-width:1.0;"/><line style="stroke:#181818;stroke-width:1.0;stroke-dasharray:2.0,2.0;" x1="1086.4497" x2="1730.9395" y1="499.7344" y2="499.7344"/><text fill="#000000" font-family="sans-serif" font-size="13" font-weight="bold" lengthAdjust="spacing" textLength="14.46" x="1098.4497" y="494.4717">12</text><text fill="#000000" font-family="sans-serif" font-size="13" lengthAdjust="spacing" textLength="106.2217" x="1116.9097" y="494.4717">list&lt;VaccineType&gt;</text><line style="stroke:#181818;stroke-width:1.0;stroke-dasharray:2.0,2.0;" x1="1081.4497" x2="1123.4497" y1="536.0254" y2="536.0254"/><line style="stroke:#181818;stroke-width:1.0;stroke-dasharray:2.0,2.0;" x1="1123.4497" x2="1123.4497" y1="536.0254" y2="549.0254"/><line style="stroke:#181818;stroke-width:1.0;stroke-dasharray:2.0,2.0;" x1="1076.4497" x2="1123.4497" y1="549.0254" y2="549.0254"/><polygon fill="#181818" points="1086.4497,545.0254,1076.4497,549.0254,1086.4497,553.0254,1082.4497,549.0254" style="stroke:#181818;stroke-width:1.0;"/><text fill="#000000" font-family="sans-serif" font-size="13" font-weight="bold" lengthAdjust="spacing" textLength="14.46" x="1088.4497" y="530.7627">13</text><text fill="#000000" font-family="sans-serif" font-size="13" lengthAdjust="spacing" textLength="209.1553" x="1106.9097" y="530.7627">map(list&lt;VaccineType&gt;) -&gt; lstVTDto</text><polygon fill="#181818" points="631.5464,571.3164,621.5464,575.3164,631.5464,579.3164,627.5464,575.3164" style="stroke:#181818;stroke-width:1.0;"/><line style="stroke:#181818;stroke-width:1.0;stroke-dasharray:2.0,2.0;" x1="625.5464" x2="1075.4497" y1="575.3164" y2="575.3164"/><text fill="#000000" font-family="sans-serif" font-size="13" font-weight="bold" lengthAdjust="spacing" textLength="14.46" x="637.5464" y="570.0537">14</text><text fill="#000000" font-family="sans-serif" font-size="13" lengthAdjust="spacing" textLength="54.1836" x="656.0063" y="570.0537">LstVTDto</text><polygon fill="#181818" points="391.6094,602.6074,381.6094,606.6074,391.6094,610.6074,387.6094,606.6074" style="stroke:#181818;stroke-width:1.0;"/><line style="stroke:#181818;stroke-width:1.0;stroke-dasharray:2.0,2.0;" x1="385.6094" x2="614.5464" y1="606.6074" y2="606.6074"/><text fill="#000000" font-family="sans-serif" font-size="13" font-weight="bold" lengthAdjust="spacing" textLength="14.46" x="397.6094" y="601.3447">15</text><text fill="#000000" font-family="sans-serif" font-size="13" lengthAdjust="spacing" textLength="54.1836" x="416.0693" y="601.3447">LstVTDto</text><polygon fill="#181818" points="58.8413,633.8984,48.8413,637.8984,58.8413,641.8984,54.8413,637.8984" style="stroke:#181818;stroke-width:1.0;"/><line style="stroke:#181818;stroke-width:1.0;stroke-dasharray:2.0,2.0;" x1="52.8413" x2="374.6094" y1="637.8984" y2="637.8984"/><text fill="#000000" font-family="sans-serif" font-size="13" font-weight="bold" lengthAdjust="spacing" textLength="14.46" x="64.8413" y="632.6357">16</text><text fill="#000000" font-family="sans-serif" font-size="13" lengthAdjust="spacing" textLength="165.4707" x="83.3013" y="632.6357">asks to select a vaccine type</text><polygon fill="#181818" points="358.6094,665.1895,368.6094,669.1895,358.6094,673.1895,362.6094,669.1895" style="stroke:#181818;stroke-width:1.0;"/><line style="stroke:#181818;stroke-width:1.0;" x1="47.8413" x2="364.6094" y1="669.1895" y2="669.1895"/><text fill="#000000" font-family="sans-serif" font-size="13" font-weight="bold" lengthAdjust="spacing" textLength="14.46" x="54.8413" y="663.9268">17</text><text fill="#000000" font-family="sans-serif" font-size="13" lengthAdjust="spacing" textLength="148.1289" x="73.3013" y="663.9268">selects vaccineTypeCode</text><polygon fill="#181818" points="58.8413,696.4805,48.8413,700.4805,58.8413,704.4805,54.8413,700.4805" style="stroke:#181818;stroke-width:1.0;"/><line style="stroke:#181818;stroke-width:1.0;stroke-dasharray:2.0,2.0;" x1="52.8413" x2="374.6094" y1="700.4805" y2="700.4805"/><text fill="#000000" font-family="sans-serif" font-size="13" font-weight="bold" lengthAdjust="spacing" textLength="14.46" x="64.8413" y="695.2178">18</text><text fill="#000000" font-family="sans-serif" font-size="13" lengthAdjust="spacing" textLength="118.5044" x="83.3013" y="695.2178">requests facility data</text><polygon fill="#181818" points="358.6094,727.7715,368.6094,731.7715,358.6094,735.7715,362.6094,731.7715" style="stroke:#181818;stroke-width:1.0;"/><line style="stroke:#181818;stroke-width:1.0;" x1="47.8413" x2="364.6094" y1="731.7715" y2="731.7715"/><text fill="#000000" font-family="sans-serif" font-size="13" font-weight="bold" lengthAdjust="spacing" textLength="14.46" x="54.8413" y="726.5088">19</text><text fill="#000000" font-family="sans-serif" font-size="13" lengthAdjust="spacing" textLength="121.418" x="73.3013" y="726.5088">types requested data</text><polygon fill="#181818" points="1422.813,793.6445,1432.813,797.6445,1422.813,801.6445,1426.813,797.6445" style="stroke:#181818;stroke-width:1.0;"/><line style="stroke:#181818;stroke-width:1.0;stroke-dasharray:2.0,2.0;" x1="380.6094" x2="1428.813" y1="797.6445" y2="797.6445"/><text fill="#000000" font-family="sans-serif" font-size="13" font-weight="bold" lengthAdjust="spacing" textLength="14.46" x="387.6094" y="775.0908">20</text><text fill="#000000" font-family="sans-serif" font-size="13" lengthAdjust="spacing" textLength="283.9688" x="406.0693" y="757.7998">create(facilityType, name, address, phone, email,</text><text fill="#000000" font-family="sans-serif" font-size="13" lengthAdjust="spacing" textLength="218.2261" x="406.0693" y="775.0908">website, openingHours, closingHours,</text><text fill="#000000" font-family="sans-serif" font-size="13" lengthAdjust="spacing" textLength="241.3252" x="406.0693" y="792.3818">maxVaccinesPerHour, vaccineTypeCode)</text><rect fill="#E2E2F0" height="32.6211" rx="2.5" ry="2.5" style="stroke:#181818;stroke-width:0.5;" width="181.3027" x="1434.813" y="762.0234"/><text fill="#000000" font-family="sans-serif" font-size="14" lengthAdjust="spacing" textLength="167.3027" x="1441.813" y="784.1309">dto:VaccinationCenterDTO</text><line style="stroke:#000000;stroke-width:1.0;stroke-dasharray:2.0,2.0;" x1="10" x2="1847.7632" y1="806.6445" y2="806.6445"/><text fill="#000000" font-family="sans-serif" font-size="11" font-weight="bold" lengthAdjust="spacing" textLength="156.1592" x="15" y="818.5146">[facilityType = HEALTHCARE]</text><polygon fill="#181818" points="58.8413,841.5664,48.8413,845.5664,58.8413,849.5664,54.8413,845.5664" style="stroke:#181818;stroke-width:1.0;"/><line style="stroke:#181818;stroke-width:1.0;stroke-dasharray:2.0,2.0;" x1="52.8413" x2="374.6094" y1="845.5664" y2="845.5664"/><text fill="#000000" font-family="sans-serif" font-size="13" font-weight="bold" lengthAdjust="spacing" textLength="14.46" x="64.8413" y="840.3037">21</text><text fill="#000000" font-family="sans-serif" font-size="13" lengthAdjust="spacing" textLength="118.5044" x="83.3013" y="840.3037">requests facility data</text><polygon fill="#181818" points="358.6094,872.8574,368.6094,876.8574,358.6094,880.8574,362.6094,876.8574" style="stroke:#181818;stroke-width:1.0;"/><line style="stroke:#181818;stroke-width:1.0;" x1="47.8413" x2="364.6094" y1="876.8574" y2="876.8574"/><text fill="#000000" font-family="sans-serif" font-size="13" font-weight="bold" lengthAdjust="spacing" textLength="14.46" x="54.8413" y="871.5947">22</text><text fill="#000000" font-family="sans-serif" font-size="13" lengthAdjust="spacing" textLength="121.418" x="73.3013" y="871.5947">types requested data</text><polygon fill="#181818" points="1422.813,938.7305,1432.813,942.7305,1422.813,946.7305,1426.813,942.7305" style="stroke:#181818;stroke-width:1.0;"/><line style="stroke:#181818;stroke-width:1.0;stroke-dasharray:2.0,2.0;" x1="380.6094" x2="1428.813" y1="942.7305" y2="942.7305"/><text fill="#000000" font-family="sans-serif" font-size="13" font-weight="bold" lengthAdjust="spacing" textLength="14.46" x="387.6094" y="920.1768">23</text><text fill="#000000" font-family="sans-serif" font-size="13" lengthAdjust="spacing" textLength="283.9688" x="406.0693" y="902.8857">create(facilityType, name, address, phone, email,</text><text fill="#000000" font-family="sans-serif" font-size="13" lengthAdjust="spacing" textLength="218.2261" x="406.0693" y="920.1768">website, openingHours, closingHours,</text><text fill="#000000" font-family="sans-serif" font-size="13" lengthAdjust="spacing" textLength="157.5044" x="406.0693" y="937.4678">maxVaccinesPerHour, null)</text><rect fill="#E2E2F0" height="32.6211" rx="2.5" ry="2.5" style="stroke:#181818;stroke-width:0.5;" width="181.3027" x="1434.813" y="907.1094"/><text fill="#000000" font-family="sans-serif" font-size="14" lengthAdjust="spacing" textLength="167.3027" x="1441.813" y="929.2168">dto:VaccinationCenterDTO</text><polygon fill="#181818" points="58.8413,977.0215,48.8413,981.0215,58.8413,985.0215,54.8413,981.0215" style="stroke:#181818;stroke-width:1.0;"/><line style="stroke:#181818;stroke-width:1.0;stroke-dasharray:2.0,2.0;" x1="52.8413" x2="374.6094" y1="981.0215" y2="981.0215"/><text fill="#000000" font-family="sans-serif" font-size="13" font-weight="bold" lengthAdjust="spacing" textLength="14.46" x="64.8413" y="975.7588">24</text><text fill="#000000" font-family="sans-serif" font-size="13" lengthAdjust="spacing" textLength="235.5742" x="83.3013" y="975.7588">shows all data and requests confirmation</text><polygon fill="#181818" points="358.6094,1008.3125,368.6094,1012.3125,358.6094,1016.3125,362.6094,1012.3125" style="stroke:#181818;stroke-width:1.0;"/><line style="stroke:#181818;stroke-width:1.0;" x1="47.8413" x2="364.6094" y1="1012.3125" y2="1012.3125"/><text fill="#000000" font-family="sans-serif" font-size="13" font-weight="bold" lengthAdjust="spacing" textLength="14.46" x="54.8413" y="1007.0498">25</text><text fill="#000000" font-family="sans-serif" font-size="13" lengthAdjust="spacing" textLength="99.7153" x="73.3013" y="1007.0498">confirms the data</text><polygon fill="#181818" points="598.5464,1039.6035,608.5464,1043.6035,598.5464,1047.6035,602.5464,1043.6035" style="stroke:#181818;stroke-width:1.0;"/><line style="stroke:#181818;stroke-width:1.0;" x1="380.6094" x2="604.5464" y1="1043.6035" y2="1043.6035"/><text fill="#000000" font-family="sans-serif" font-size="13" font-weight="bold" lengthAdjust="spacing" textLength="14.46" x="387.6094" y="1038.3408">26</text><text fill="#000000" font-family="sans-serif" font-size="13" lengthAdjust="spacing" textLength="176.3062" x="406.0693" y="1038.3408">registerVaccinationCenter(dto)</text><polygon fill="#181818" points="1059.4497,1070.8945,1069.4497,1074.8945,1059.4497,1078.8945,1063.4497,1074.8945" style="stroke:#181818;stroke-width:1.0;"/><line style="stroke:#181818;stroke-width:1.0;" x1="620.5464" x2="1065.4497" y1="1074.8945" y2="1074.8945"/><text fill="#000000" font-family="sans-serif" font-size="13" font-weight="bold" lengthAdjust="spacing" textLength="14.46" x="627.5464" y="1069.6318">27</text><text fill="#000000" font-family="sans-serif" font-size="13" lengthAdjust="spacing" textLength="109.0972" x="646.0063" y="1069.6318">registerCenter(dto)</text><polygon fill="#181818" points="1321.0649,1102.1855,1331.0649,1106.1855,1321.0649,1110.1855,1325.0649,1106.1855" style="stroke:#181818;stroke-width:1.0;"/><line style="stroke:#181818;stroke-width:1.0;" x1="1081.4497" x2="1327.0649" y1="1106.1855" y2="1106.1855"/><text fill="#000000" font-family="sans-serif" font-size="13" font-weight="bold" lengthAdjust="spacing" textLength="14.46" x="1088.4497" y="1100.9229">28</text><text fill="#000000" font-family="sans-serif" font-size="13" lengthAdjust="spacing" textLength="195.0952" x="1106.9097" y="1100.9229">getVaccinationCenterRepository()</text><polygon fill="#181818" points="1092.4497,1133.4766,1082.4497,1137.4766,1092.4497,1141.4766,1088.4497,1137.4766" style="stroke:#181818;stroke-width:1.0;"/><line style="stroke:#181818;stroke-width:1.0;stroke-dasharray:2.0,2.0;" x1="1086.4497" x2="1337.0649" y1="1137.4766" y2="1137.4766"/><text fill="#000000" font-family="sans-serif" font-size="13" font-weight="bold" lengthAdjust="spacing" textLength="14.46" x="1098.4497" y="1132.2139">29</text><text fill="#000000" font-family="sans-serif" font-size="13" lengthAdjust="spacing" textLength="49.1372" x="1116.9097" y="1132.2139">VCRepo</text><path d="M954.7915,1152.4766 L1014.9624,1152.4766 L1014.9624,1161.7676 L1004.9624,1171.7676 L954.7915,1171.7676 L954.7915,1152.4766 " fill="#EEEEEE" style="stroke:#000000;stroke-width:1.5;"/><rect fill="none" height="623.8203" style="stroke:#000000;stroke-width:1.5;" width="1718.0928" x="954.7915" y="1152.4766"/><text fill="#000000" font-family="sans-serif" font-size="13" font-weight="bold" lengthAdjust="spacing" textLength="15.1709" x="969.7915" y="1167.5049">alt</text><text fill="#000000" font-family="sans-serif" font-size="11" font-weight="bold" lengthAdjust="spacing" textLength="182.7407" x="1029.9624" y="1166.3467">[dto.facilityType == HEALTHCARE]</text><polygon fill="#181818" points="1508.4644,1191.0586,1518.4644,1195.0586,1508.4644,1199.0586,1512.4644,1195.0586" style="stroke:#181818;stroke-width:1.0;"/><line style="stroke:#181818;stroke-width:1.0;" x1="1081.4497" x2="1514.4644" y1="1195.0586" y2="1195.0586"/><text fill="#000000" font-family="sans-serif" font-size="13" font-weight="bold" lengthAdjust="spacing" textLength="14.46" x="1088.4497" y="1189.7959">30</text><text fill="#000000" font-family="sans-serif" font-size="13" lengthAdjust="spacing" textLength="61.4072" x="1106.9097" y="1189.7959">getName()</text><polygon fill="#181818" points="1092.4497,1222.3496,1082.4497,1226.3496,1092.4497,1230.3496,1088.4497,1226.3496" style="stroke:#181818;stroke-width:1.0;"/><line style="stroke:#181818;stroke-width:1.0;stroke-dasharray:2.0,2.0;" x1="1086.4497" x2="1524.4644" y1="1226.3496" y2="1226.3496"/><text fill="#000000" font-family="sans-serif" font-size="13" font-weight="bold" lengthAdjust="spacing" textLength="14.46" x="1098.4497" y="1221.0869">31</text><text fill="#000000" font-family="sans-serif" font-size="13" lengthAdjust="spacing" textLength="32.519" x="1116.9097" y="1221.0869">name</text><polygon fill="#181818" points="1508.4644,1253.6406,1518.4644,1257.6406,1508.4644,1261.6406,1512.4644,1257.6406" style="stroke:#181818;stroke-width:1.0;"/><line style="stroke:#181818;stroke-width:1.0;" x1="1081.4497" x2="1514.4644" y1="1257.6406" y2="1257.6406"/><text fill="#000000" font-family="sans-serif" font-size="13" font-weight="bold" lengthAdjust="spacing" textLength="14.46" x="1088.4497" y="1252.3779">32</text><text fill="#000000" font-family="sans-serif" font-size="13" lengthAdjust="spacing" textLength="110.5571" x="1106.9097" y="1252.3779">getOpeningHours()</text><polygon fill="#181818" points="1092.4497,1284.9316,1082.4497,1288.9316,1092.4497,1292.9316,1088.4497,1288.9316" style="stroke:#181818;stroke-width:1.0;"/><line style="stroke:#181818;stroke-width:1.0;stroke-dasharray:2.0,2.0;" x1="1086.4497" x2="1524.4644" y1="1288.9316" y2="1288.9316"/><text fill="#000000" font-family="sans-serif" font-size="13" font-weight="bold" lengthAdjust="spacing" textLength="14.46" x="1098.4497" y="1283.6689">33</text><text fill="#000000" font-family="sans-serif" font-size="13" lengthAdjust="spacing" textLength="80.9453" x="1116.9097" y="1283.6689">openingHours</text><polygon fill="#181818" points="2212.1479,1316.2227,2222.1479,1320.2227,2212.1479,1324.2227,2216.1479,1320.2227" style="stroke:#181818;stroke-width:1.0;"/><line style="stroke:#181818;stroke-width:1.0;stroke-dasharray:2.0,2.0;" x1="1081.4497" x2="2218.1479" y1="1320.2227" y2="1320.2227"/><text fill="#000000" font-family="sans-serif" font-size="13" font-weight="bold" lengthAdjust="spacing" textLength="14.46" x="1088.4497" y="1314.96">34</text><text fill="#000000" font-family="sans-serif" font-size="13" lengthAdjust="spacing" textLength="126.4326" x="1106.9097" y="1314.96">create(from dto fields)</text><rect fill="#E2E2F0" height="32.6211" rx="2.5" ry="2.5" style="stroke:#181818;stroke-width:0.5;" width="150.1855" x="2224.1479" y="1296.9316"/><text fill="#000000" font-family="sans-serif" font-size="14" lengthAdjust="spacing" textLength="136.1855" x="2231.1479" y="1319.0391">hc:Healthcare_Center</text><polygon fill="#181818" points="1092.4497,1359.8438,1082.4497,1363.8438,1092.4497,1367.8438,1088.4497,1363.8438" style="stroke:#181818;stroke-width:1.0;"/><line style="stroke:#181818;stroke-width:1.0;stroke-dasharray:2.0,2.0;" x1="1086.4497" x2="2298.2407" y1="1363.8438" y2="1363.8438"/><text fill="#000000" font-family="sans-serif" font-size="13" font-weight="bold" lengthAdjust="spacing" textLength="14.46" x="1098.4497" y="1358.5811">35</text><text fill="#000000" font-family="sans-serif" font-size="13" lengthAdjust="spacing" textLength="62.8672" x="1116.9097" y="1358.5811">Healthcare</text><polygon fill="#181818" points="1954.1006,1391.1348,1964.1006,1395.1348,1954.1006,1399.1348,1958.1006,1395.1348" style="stroke:#181818;stroke-width:1.0;"/><line style="stroke:#181818;stroke-width:1.0;" x1="1081.4497" x2="1960.1006" y1="1395.1348" y2="1395.1348"/><text fill="#000000" font-family="sans-serif" font-size="13" font-weight="bold" lengthAdjust="spacing" textLength="14.46" x="1088.4497" y="1389.8721">36</text><text fill="#000000" font-family="sans-serif" font-size="13" lengthAdjust="spacing" textLength="98.9854" x="1106.9097" y="1389.8721">save(Healthcare)</text><polygon fill="#181818" points="1092.4497,1422.4258,1082.4497,1426.4258,1092.4497,1430.4258,1088.4497,1426.4258" style="stroke:#181818;stroke-width:1.0;"/><line style="stroke:#181818;stroke-width:1.0;stroke-dasharray:2.0,2.0;" x1="1086.4497" x2="1970.1006" y1="1426.4258" y2="1426.4258"/><text fill="#000000" font-family="sans-serif" font-size="13" font-weight="bold" lengthAdjust="spacing" textLength="14.46" x="1098.4497" y="1421.1631">37</text><text fill="#000000" font-family="sans-serif" font-size="13" lengthAdjust="spacing" textLength="36.8481" x="1116.9097" y="1421.1631">Result</text><line style="stroke:#000000;stroke-width:1.0;stroke-dasharray:2.0,2.0;" x1="954.7915" x2="2672.8843" y1="1435.4258" y2="1435.4258"/><text fill="#000000" font-family="sans-serif" font-size="11" font-weight="bold" lengthAdjust="spacing" textLength="174.7915" x="959.7915" y="1447.2959">[dto.facilityType == COMMUNITY]</text><polygon fill="#181818" points="1508.4644,1470.3477,1518.4644,1474.3477,1508.4644,1478.3477,1512.4644,1474.3477" style="stroke:#181818;stroke-width:1.0;"/><line style="stroke:#181818;stroke-width:1.0;" x1="1081.4497" x2="1514.4644" y1="1474.3477" y2="1474.3477"/><text fill="#000000" font-family="sans-serif" font-size="13" font-weight="bold" lengthAdjust="spacing" textLength="14.46" x="1088.4497" y="1469.085">38</text><text fill="#000000" font-family="sans-serif" font-size="13" lengthAdjust="spacing" textLength="132.958" x="1106.9097" y="1469.085">getVaccineTypeCode()</text><polygon fill="#181818" points="1092.4497,1501.6387,1082.4497,1505.6387,1092.4497,1509.6387,1088.4497,1505.6387" style="stroke:#181818;stroke-width:1.0;"/><line style="stroke:#181818;stroke-width:1.0;stroke-dasharray:2.0,2.0;" x1="1086.4497" x2="1524.4644" y1="1505.6387" y2="1505.6387"/><text fill="#000000" font-family="sans-serif" font-size="13" font-weight="bold" lengthAdjust="spacing" textLength="14.46" x="1098.4497" y="1500.376">39</text><text fill="#000000" font-family="sans-serif" font-size="13" lengthAdjust="spacing" textLength="104.0571" x="1116.9097" y="1500.376">vaccineTypeCode</text><polygon fill="#181818" points="1321.0649,1532.9297,1331.0649,1536.9297,1321.0649,1540.9297,1325.0649,1536.9297" style="stroke:#181818;stroke-width:1.0;"/><line style="stroke:#181818;stroke-width:1.0;" x1="1081.4497" x2="1327.0649" y1="1536.9297" y2="1536.9297"/><text fill="#000000" font-family="sans-serif" font-size="13" font-weight="bold" lengthAdjust="spacing" textLength="14.46" x="1088.4497" y="1531.667">40</text><text fill="#000000" font-family="sans-serif" font-size="13" lengthAdjust="spacing" textLength="164.0171" x="1106.9097" y="1531.667">getVaccineTypeRepository()</text><polygon fill="#181818" points="1092.4497,1564.2207,1082.4497,1568.2207,1092.4497,1572.2207,1088.4497,1568.2207" style="stroke:#181818;stroke-width:1.0;"/><line style="stroke:#181818;stroke-width:1.0;stroke-dasharray:2.0,2.0;" x1="1086.4497" x2="1337.0649" y1="1568.2207" y2="1568.2207"/><text fill="#000000" font-family="sans-serif" font-size="13" font-weight="bold" lengthAdjust="spacing" textLength="14.46" x="1098.4497" y="1562.958">41</text><text fill="#000000" font-family="sans-serif" font-size="13" lengthAdjust="spacing" textLength="47.6899" x="1116.9097" y="1562.958">VTRepo</text><polygon fill="#181818" points="1714.9395,1595.5117,1724.9395,1599.5117,1714.9395,1603.5117,1718.9395,1599.5117" style="stroke:#181818;stroke-width:1.0;"/><line style="stroke:#181818;stroke-width:1.0;" x1="1081.4497" x2="1720.9395" y1="1599.5117" y2="1599.5117"/><text fill="#000000" font-family="sans-serif" font-size="13" font-weight="bold" lengthAdjust="spacing" textLength="14.46" x="1088.4497" y="1594.249">42</text><text fill="#000000" font-family="sans-serif" font-size="13" lengthAdjust="spacing" textLength="179.9243" x="1106.9097" y="1594.249">findByCode(vaccineTypeCode)</text><polygon fill="#181818" points="1092.4497,1626.8027,1082.4497,1630.8027,1092.4497,1634.8027,1088.4497,1630.8027" style="stroke:#181818;stroke-width:1.0;"/><line style="stroke:#181818;stroke-width:1.0;stroke-dasharray:2.0,2.0;" x1="1086.4497" x2="1730.9395" y1="1630.8027" y2="1630.8027"/><text fill="#000000" font-family="sans-serif" font-size="13" font-weight="bold" lengthAdjust="spacing" textLength="14.46" x="1098.4497" y="1625.54">43</text><text fill="#000000" font-family="sans-serif" font-size="13" lengthAdjust="spacing" textLength="16.6118" x="1116.9097" y="1625.54">VT</text><polygon fill="#181818" points="2372.3335,1658.0938,2382.3335,1662.0938,2372.3335,1666.0938,2376.3335,1662.0938" style="stroke:#181818;stroke-width:1.0;"/><line style="stroke:#181818;stroke-width:1.0;stroke-dasharray:2.0,2.0;" x1="1081.4497" x2="2378.3335" y1="1662.0938" y2="1662.0938"/><text fill="#000000" font-family="sans-serif" font-size="13" font-weight="bold" lengthAdjust="spacing" textLength="14.46" x="1088.4497" y="1656.8311">44</text><text fill="#000000" font-family="sans-serif" font-size="13" lengthAdjust="spacing" textLength="150.2681" x="1106.9097" y="1656.8311">create(from dto fields, VT)</text><rect fill="#E2E2F0" height="32.6211" rx="2.5" ry="2.5" style="stroke:#181818;stroke-width:0.5;" width="278.5508" x="2384.3335" y="1638.8027"/><text fill="#000000" font-family="sans-serif" font-size="14" lengthAdjust="spacing" textLength="264.5508" x="2391.3335" y="1660.9102">cm:Community_Mass_Vaccination_Center</text><polygon fill="#181818" points="1092.4497,1701.7148,1082.4497,1705.7148,1092.4497,1709.7148,1088.4497,1705.7148" style="stroke:#181818;stroke-width:1.0;"/><line style="stroke:#181818;stroke-width:1.0;stroke-dasharray:2.0,2.0;" x1="1086.4497" x2="2522.6089" y1="1705.7148" y2="1705.7148"/><text fill="#000000" font-family="sans-serif" font-size="13" font-weight="bold" lengthAdjust="spacing" textLength="14.46" x="1098.4497" y="1700.4521">45</text><text fill="#000000" font-family="sans-serif" font-size="13" lengthAdjust="spacing" textLength="65.7363" x="1116.9097" y="1700.4521">Community</text><polygon fill="#181818" points="1954.1006,1733.0059,1964.1006,1737.0059,1954.1006,1741.0059,1958.1006,1737.0059" style="stroke:#181818;stroke-width:1.0;"/><line style="stroke:#181818;stroke-width:1.0;" x1="1081.4497" x2="1960.1006" y1="1737.0059" y2="1737.0059"/><text fill="#000000" font-family="sans-serif" font-size="13" font-weight="bold" lengthAdjust="spacing" textLength="14.46" x="1088.4497" y="1731.7432">46</text><text fill="#000000" font-family="sans-serif" font-size="13" lengthAdjust="spacing" textLength="101.8545" x="1106.9097" y="1731.7432">save(Community)</text><polygon fill="#181818" points="1092.4497,1764.2969,1082.4497,1768.2969,1092.4497,1772.2969,1088.4497,1768.2969" style="stroke:#181818;stroke-width:1.0;"/><line style="stroke:#181818;stroke-width:1.0;stroke-dasharray:2.0,2.0;" x1="1086.4497" x2="1970.1006" y1="1768.2969" y2="1768.2969"/><text fill="#000000" font-family="sans-serif" font-size="13" font-weight="bold" lengthAdjust="spacing" textLength="14.46" x="1098.4497" y="1763.0342">47</text><text fill="#000000" font-family="sans-serif" font-size="13" lengthAdjust="spacing" textLength="36.8481" x="1116.9097" y="1763.0342">Result</text><polygon fill="#181818" points="631.5464,1802.5879,621.5464,1806.5879,631.5464,1810.5879,627.5464,1806.5879" style="stroke:#181818;stroke-width:1.0;"/><line style="stroke:#181818;stroke-width:1.0;stroke-dasharray:2.0,2.0;" x1="625.5464" x2="1075.4497" y1="1806.5879" y2="1806.5879"/><text fill="#000000" font-family="sans-serif" font-size="13" font-weight="bold" lengthAdjust="spacing" textLength="14.46" x="637.5464" y="1801.3252">48</text><text fill="#000000" font-family="sans-serif" font-size="13" lengthAdjust="spacing" textLength="36.8481" x="656.0063" y="1801.3252">Result</text><polygon fill="#181818" points="391.6094,1833.8789,381.6094,1837.8789,391.6094,1841.8789,387.6094,1837.8789" style="stroke:#181818;stroke-width:1.0;"/><line style="stroke:#181818;stroke-width:1.0;stroke-dasharray:2.0,2.0;" x1="385.6094" x2="614.5464" y1="1837.8789" y2="1837.8789"/><text fill="#000000" font-family="sans-serif" font-size="13" font-weight="bold" lengthAdjust="spacing" textLength="14.46" x="397.6094" y="1832.6162">49</text><text fill="#000000" font-family="sans-serif" font-size="13" lengthAdjust="spacing" textLength="36.8481" x="416.0693" y="1832.6162">Result</text><polygon fill="#181818" points="58.8413,1865.1699,48.8413,1869.1699,58.8413,1873.1699,54.8413,1869.1699" style="stroke:#181818;stroke-width:1.0;"/><line style="stroke:#181818;stroke-width:1.0;stroke-dasharray:2.0,2.0;" x1="52.8413" x2="374.6094" y1="1869.1699" y2="1869.1699"/><text fill="#000000" font-family="sans-serif" font-size="13" font-weight="bold" lengthAdjust="spacing" textLength="14.46" x="64.8413" y="1863.9072">50</text><text fill="#000000" font-family="sans-serif" font-size="13" lengthAdjust="spacing" textLength="151.0107" x="83.3013" y="1863.9072">informs operation success</text><!--SRC=[tLR9Rjim4BthAuYUxC1fxq8Rm5LJk42M8dK350WGCD8u9agHAadRzTztk5WYjIGvzs9pUVE6mtcS4TqPANRr4wYCuf2MXksf0I95bk54AhAiQYO8rNwGjGW_pHgg32jPGuKXx_8xU6RQWBgdPSa4DKoA0eHTO71uPrdiuAr6XHH6ISv1ETDkcX8icyRjut-weK7jMGdvWFY7tt1MOPnQRbpiHpnQ8pMpmwz-nPdOrJ1FpIeZXyw-h6_zyVtCoDH68TdzEfZ1-jX0vzJVsDekZ1WLGrzzqyAPzhAqDx6tu2E5RCjy1PIRRKaLF7fk1-nMKuEopWjPrpl1pF7ncchz69qj9cXHMUQLTNxXD94J1Nzse8qcHkBOIu9G8k10zXqNAHrNPct8EHexbXofVwFb5WYcZd7a9mQ3w_lGmA545oUGlG0oMrqkhzQhOdbt-Q6ulRx-UVDj_MkE-kSc1NuYxNQM4UAFS17fCYSSZnrThfxD4TW1B1nbcfDdC5EgT2O8ijX8QP5DJoNE84BwQx5UWdG27Qu65sTdEIaLu3EUUSWymiJXX1SqY27mJCGRTjsrE_gSR9YebfoxRRyMdyVpV8o8BhAO9qRMj9aDq7FhY-DHrlPzfPPnF5ST90werKUxtwQthp0PD8JAzAe4BpH29gIsxuvPo0h6c5lbjzgjgA53Ikj8dz1GULJCrvQOAC6nWXT4q1f_QLKfq7f1cgqKE8UQChvu40TuGadXWcn0CF6yaZk5g9AZqawp1r7Jl-7kzNTGTdNHZn9V3t0D_UVJFRJ_z1h4ZdCRkwYoGONIMtdGX7Bk3aoegBg8IoasJDMk6FHhLjZprSt7EbPvr5GNdM5NccSJx_Ta5KEpwFsE5w3HZeDlkr-4MZUdHcHBAlfud-gYBup8VvjAv_q6q-OhwcavTMFJ-fBzRPJFbtZYlFSBKTS1OtKfMTl0iCu1hxIbxd0fTzH1qqfP-4gfwHvc7SWLp69OCEz0xxW9pspiIfDMDNqbz-d3VUbMHYhPgqfvIwlgL79gLnCDvFFH7N5GQyPR2dxJ33f1-FQOpjm2pNpB3j2Ki_jwcSvTYtarTRPAJ7Mg01hjKc6lNs2Os4XR9r2zodyhwLrPOe7B_W40]--></g></svg>