<svg xmlns="http://www.w3.org/2000/svg" xmlns:xlink="http://www.w3.org/1999/xlink" contentStyleType="text/css" height="1830px" preserveAspectRatio="none" style="width:2689px;height:1830px;background:#FFFFFF;" version="1.1" viewBox="0 0 2689 1830" width="2689px" zoomAndPan="magnify"><defs/><g><rect fill="none" height="778.9063" style="stroke:#000000;stroke-width:1.5;" width="2059.8027" x="10" y="274.3672"/><rect fill="none" height="569.1602" style="stroke:#000000;stroke-width:1.5;" width="1834.6382" x="847.9897" y="1067.2734"/><line style="stroke:#181818;stroke-width:0.5;stroke-dasharray:5.0,5.0;" x1="42" x2="42" y1="83.6211" y2="1747.3066"/><line style="stroke:#181818;stroke-width:0.5;stroke-dasharray:5.0,5.0;" x1="363.6719" x2="363.6719" y1="83.6211" y2="1747.3066"/><line style="stroke:#181818;stroke-width:0.5;stroke-dasharray:5.0,5.0;" x1="726.77" x2="726.77" y1="83.6211" y2="1747.3066"/><line style="stroke:#181818;stroke-width:0.5;stroke-dasharray:5.0,5.0;" x1="944.9897" x2="944.9897" y1="83.6211" y2="1747.3066"/><line style="stroke:#181818;stroke-width:0.5;stroke-dasharray:5.0,5.0;" x1="1823.3623" x2="1823.3623" y1="83.6211" y2="1747.3066"/><line style="stroke:#181818;stroke-width:0.5;stroke-dasharray:5.0,5.0;" x1="1977.9551" x2="1977.9551" y1="83.6211" y2="1747.3066"/><line style="stroke:#181818;stroke-width:0.5;stroke-dasharray:5.0,5.0;" x1="2166.8027" x2="2166.8027" y1="83.6211" y2="1747.3066"/><line style="stroke:#181818;stroke-width:0.5;stroke-dasharray:5.0,5.0;" x1="2340.1191" x2="2340.1191" y1="1182.4375" y2="1747.3066"/><line style="stroke:#181818;stroke-width:0.5;stroke-dasharray:5.0,5.0;" x1="2543.6289" x2="2543.6289" y1="1528.2695" y2="1747.3066"/><text fill="#000000" font-family="sans-serif" font-size="14" lengthAdjust="spacing" textLength="39.6826" x="20" y="80.1074">Admin</text><ellipse cx="42.8413" cy="13.5" fill="#E2E2F0" rx="8" ry="8" style="stroke:#181818;stroke-width:0.5;"/><path d="M42.8413,21.5 L42.8413,48.5 M29.8413,29.5 L55.8413,29.5 M42.8413,48.5 L29.8413,63.5 M42.8413,48.5 L55.8413,63.5 " fill="none" style="stroke:#181818;stroke-width:0.5;"/><text fill="#000000" font-family="sans-serif" font-size="14" lengthAdjust="spacing" textLength="39.6826" x="20" y="1761.4141">Admin</text><ellipse cx="42.8413" cy="1773.4277" fill="#E2E2F0" rx="8" ry="8" style="stroke:#181818;stroke-width:0.5;"/><path d="M42.8413,1781.4277 L42.8413,1808.4277 M29.8413,1789.4277 L55.8413,1789.4277 M42.8413,1808.4277 L29.8413,1823.4277 M42.8413,1808.4277 L55.8413,1823.4277 " fill="none" style="stroke:#181818;stroke-width:0.5;"/><rect fill="#E2E2F0" height="32.6211" rx="2.5" ry="2.5" style="stroke:#181818;stroke-width:0.5;" width="210.875" x="258.6719" y="50"/><text fill="#000000" font-family="sans-serif" font-size="14" lengthAdjust="spacing" textLength="196.875" x="265.6719" y="72.1074">RegisterVaccinationCenterView</text><rect fill="#E2E2F0" height="32.6211" rx="2.5" ry="2.5" style="stroke:#181818;stroke-width:0.5;" width="210.875" x="258.6719" y="1746.3066"/><text fill="#000000" font-family="sans-serif" font-size="14" lengthAdjust="spacing" textLength="196.875" x="265.6719" y="1768.4141">RegisterVaccinationCenterView</text><rect fill="#E2E2F0" height="32.6211" rx="2.5" ry="2.5" style="stroke:#181818;stroke-width:0.5;" width="241.2197" x="606.77" y="50"/><text fill="#000000" font-family="sans-serif" font-size="14" lengthAdjust="spacing" textLength="227.2197" x="613.77" y="72.1074">RegisterVaccinationCenterController</text><rect fill="#E2E2F0" height="32.6211" rx="2.5" ry="2.5" style="stroke:#181818;stroke-width:0.5;" width="241.2197" x="606.77" y="1746.3066"/><text fill="#000000" font-family="sans-serif" font-size="14" lengthAdjust="spacing" textLength="227.2197" x="613.77" y="1768.4141">RegisterVaccinationCenterController</text><rect fill="#E2E2F0" height="32.6211" rx="2.5" ry="2.5" style="stroke:#181818;stroke-width:0.5;" width="175.082" x="857.9897" y="50"/><text fill="#000000" font-family="sans-serif" font-size="14" lengthAdjust="spacing" textLength="161.082" x="864.9897" y="72.1074">VaccinationCenterService</text><rect fill="#E2E2F0" height="32.6211" rx="2.5" ry="2.5" style="stroke:#181818;stroke-width:0.5;" width="175.082" x="857.9897" y="1746.3066"/><text fill="#000000" font-family="sans-serif" font-size="14" lengthAdjust="spacing" textLength="161.082" x="864.9897" y="1768.4141">VaccinationCenterService</text><rect fill="#E2E2F0" height="32.6211" rx="2.5" ry="2.5" style="stroke:#181818;stroke-width:0.5;" width="127.5928" x="1760.3623" y="50"/><text fill="#000000" font-family="sans-serif" font-size="14" lengthAdjust="spacing" textLength="113.5928" x="1767.3623" y="72.1074">RepositoryFactory</text><rect fill="#E2E2F0" height="32.6211" rx="2.5" ry="2.5" style="stroke:#181818;stroke-width:0.5;" width="127.5928" x="1760.3623" y="1746.3066"/><text fill="#000000" font-family="sans-serif" font-size="14" lengthAdjust="spacing" textLength="113.5928" x="1767.3623" y="1768.4141">RepositoryFactory</text><rect fill="#E2E2F0" height="32.6211" rx="2.5" ry="2.5" style="stroke:#181818;stroke-width:0.5;" width="161.8477" x="1897.9551" y="50"/><text fill="#000000" font-family="sans-serif" font-size="14" lengthAdjust="spacing" textLength="147.8477" x="1904.9551" y="72.1074">VaccineTypeRepository</text><rect fill="#E2E2F0" height="32.6211" rx="2.5" ry="2.5" style="stroke:#181818;stroke-width:0.5;" width="161.8477" x="1897.9551" y="1746.3066"/><text fill="#000000" font-family="sans-serif" font-size="14" lengthAdjust="spacing" textLength="147.8477" x="1904.9551" y="1768.4141">VaccineTypeRepository</text><rect fill="#E2E2F0" height="32.6211" rx="2.5" ry="2.5" style="stroke:#181818;stroke-width:0.5;" width="195.3164" x="2069.8027" y="50"/><text fill="#000000" font-family="sans-serif" font-size="14" lengthAdjust="spacing" textLength="181.3164" x="2076.8027" y="72.1074">VaccinationCenterRepository</text><rect fill="#E2E2F0" height="32.6211" rx="2.5" ry="2.5" style="stroke:#181818;stroke-width:0.5;" width="195.3164" x="2069.8027" y="1746.3066"/><text fill="#000000" font-family="sans-serif" font-size="14" lengthAdjust="spacing" textLength="181.3164" x="2076.8027" y="1768.4141">VaccinationCenterRepository</text><rect fill="#E2E2F0" height="32.6211" rx="2.5" ry="2.5" style="stroke:#181818;stroke-width:0.5;" width="131.5098" x="2275.1191" y="1746.3066"/><text fill="#000000" font-family="sans-serif" font-size="14" lengthAdjust="spacing" textLength="117.5098" x="2282.1191" y="1768.4141">Healthcare_Center</text><rect fill="#E2E2F0" height="32.6211" rx="2.5" ry="2.5" style="stroke:#181818;stroke-width:0.5;" width="255.999" x="2416.6289" y="1746.3066"/><text fill="#000000" font-family="sans-serif" font-size="14" lengthAdjust="spacing" textLength="241.999" x="2423.6289" y="1768.4141">Community_Mass_Vaccination_Center</text><polygon fill="#181818" points="352.1094,112.9121,362.1094,116.9121,352.1094,120.9121,356.1094,116.9121" style="stroke:#181818;stroke-width:1.0;"/><line style="stroke:#181818;stroke-width:1.0;" x1="42.8413" x2="358.1094" y1="116.9121" y2="116.9121"/><text fill="#000000" font-family="sans-serif" font-size="13" font-weight="bold" lengthAdjust="spacing" textLength="7.23" x="49.8413" y="111.6494">1</text><text fill="#000000" font-family="sans-serif" font-size="13" lengthAdjust="spacing" textLength="231.9434" x="61.0713" y="111.6494">requests to register a new type of facility</text><polygon fill="#181818" points="53.8413,144.2031,43.8413,148.2031,53.8413,152.2031,49.8413,148.2031" style="stroke:#181818;stroke-width:1.0;"/><line style="stroke:#181818;stroke-width:1.0;stroke-dasharray:2.0,2.0;" x1="47.8413" x2="363.1094" y1="148.2031" y2="148.2031"/><text fill="#000000" font-family="sans-serif" font-size="13" font-weight="bold" lengthAdjust="spacing" textLength="7.23" x="59.8413" y="142.9404">2</text><text fill="#000000" font-family="sans-serif" font-size="13" lengthAdjust="spacing" textLength="116.3271" x="71.0713" y="142.9404">asks the facility type</text><polygon fill="#181818" points="352.1094,175.4941,362.1094,179.4941,352.1094,183.4941,356.1094,179.4941" style="stroke:#181818;stroke-width:1.0;"/><line style="stroke:#181818;stroke-width:1.0;" x1="42.8413" x2="358.1094" y1="179.4941" y2="179.4941"/><text fill="#000000" font-family="sans-serif" font-size="13" font-weight="bold" lengthAdjust="spacing" textLength="7.23" x="49.8413" y="174.2314">3</text><text fill="#000000" font-family="sans-serif" font-size="13" lengthAdjust="spacing" textLength="286.0381" x="61.0713" y="174.2314">select facilityType (HEALTHCARE/COMMUNITY)</text><polygon fill="#181818" points="53.8413,224.0762,43.8413,228.0762,53.8413,232.0762,49.8413,228.0762" style="stroke:#181818;stroke-width:1.0;"/><line style="stroke:#181818;stroke-width:1.0;stroke-dasharray:2.0,2.0;" x1="47.8413" x2="363.1094" y1="228.0762" y2="228.0762"/><text fill="#000000" font-family="sans-serif" font-size="13" font-weight="bold" lengthAdjust="spacing" textLength="7.23" x="59.8413" y="214.168">4</text><text fill="#000000" font-family="sans-serif" font-size="13" lengthAdjust="spacing" textLength="72.2744" x="71.0713" y="205.5225">request data</text><text fill="#000000" font-family="sans-serif" font-size="13" lengthAdjust="spacing" textLength="3.6118" x="71.0713" y="222.8135">&#160;</text><polygon fill="#181818" points="352.1094,255.3672,362.1094,259.3672,352.1094,263.3672,356.1094,259.3672" style="stroke:#181818;stroke-width:1.0;"/><line style="stroke:#181818;stroke-width:1.0;" x1="42.8413" x2="358.1094" y1="259.3672" y2="259.3672"/><text fill="#000000" font-family="sans-serif" font-size="13" font-weight="bold" lengthAdjust="spacing" textLength="7.23" x="49.8413" y="254.1045">5</text><text fill="#000000" font-family="sans-serif" font-size="13" lengthAdjust="spacing" textLength="106.958" x="61.0713" y="254.1045">types request data</text><path d="M10,274.3672 L70.1709,274.3672 L70.1709,283.6582 L60.1709,293.6582 L10,293.6582 L10,274.3672 " fill="#EEEEEE" style="stroke:#000000;stroke-width:1.5;"/><rect fill="none" height="778.9063" style="stroke:#000000;stroke-width:1.5;" width="2059.8027" x="10" y="274.3672"/><text fill="#000000" font-family="sans-serif" font-size="13" font-weight="bold" lengthAdjust="spacing" textLength="15.1709" x="25" y="289.3955">alt</text><a href="facilityType" target="_top" title="facilityType" xlink:actuate="onRequest" xlink:href="facilityType" xlink:show="new" xlink:title="facilityType" xlink:type="simple"><text fill="#0000FF" font-family="sans-serif" font-size="11" font-weight="bold" lengthAdjust="spacing" text-decoration="underline" textLength="77.3062" x="85.1709" y="288.2373">= COMMUNITY</text></a><polygon fill="#181818" points="715.3799,312.9492,725.3799,316.9492,715.3799,320.9492,719.3799,316.9492" style="stroke:#181818;stroke-width:1.0;"/><line style="stroke:#181818;stroke-width:1.0;" x1="364.1094" x2="721.3799" y1="316.9492" y2="316.9492"/><text fill="#000000" font-family="sans-serif" font-size="13" font-weight="bold" lengthAdjust="spacing" textLength="7.23" x="371.1094" y="311.6865">6</text><text fill="#000000" font-family="sans-serif" font-size="13" lengthAdjust="spacing" textLength="106.1963" x="382.3394" y="311.6865">listVaccineTypes()</text><polygon fill="#181818" points="933.5308,344.2402,943.5308,348.2402,933.5308,352.2402,937.5308,348.2402" style="stroke:#181818;stroke-width:1.0;"/><line style="stroke:#181818;stroke-width:1.0;" x1="727.3799" x2="939.5308" y1="348.2402" y2="348.2402"/><text fill="#000000" font-family="sans-serif" font-size="13" font-weight="bold" lengthAdjust="spacing" textLength="7.23" x="734.3799" y="342.9775">7</text><text fill="#000000" font-family="sans-serif" font-size="13" lengthAdjust="spacing" textLength="106.1963" x="745.6099" y="342.9775">listVaccineTypes()</text><polygon fill="#181818" points="1812.1587,375.5313,1822.1587,379.5313,1812.1587,383.5313,1816.1587,379.5313" style="stroke:#181818;stroke-width:1.0;"/><line style="stroke:#181818;stroke-width:1.0;" x1="945.5308" x2="1818.1587" y1="379.5313" y2="379.5313"/><text fill="#000000" font-family="sans-serif" font-size="13" font-weight="bold" lengthAdjust="spacing" textLength="7.23" x="952.5308" y="374.2686">8</text><text fill="#000000" font-family="sans-serif" font-size="13" lengthAdjust="spacing" textLength="164.0171" x="963.7607" y="374.2686">getVaccineTypeRepository()</text><polygon fill="#181818" points="956.5308,406.8223,946.5308,410.8223,956.5308,414.8223,952.5308,410.8223" style="stroke:#181818;stroke-width:1.0;"/><line style="stroke:#181818;stroke-width:1.0;stroke-dasharray:2.0,2.0;" x1="950.5308" x2="1823.1587" y1="410.8223" y2="410.8223"/><text fill="#000000" font-family="sans-serif" font-size="13" font-weight="bold" lengthAdjust="spacing" textLength="7.23" x="962.5308" y="405.5596">9</text><text fill="#000000" font-family="sans-serif" font-size="13" lengthAdjust="spacing" textLength="47.6899" x="973.7607" y="405.5596">VTRepo</text><polygon fill="#181818" points="1966.8789,438.1133,1976.8789,442.1133,1966.8789,446.1133,1970.8789,442.1133" style="stroke:#181818;stroke-width:1.0;"/><line style="stroke:#181818;stroke-width:1.0;" x1="945.5308" x2="1972.8789" y1="442.1133" y2="442.1133"/><text fill="#000000" font-family="sans-serif" font-size="13" font-weight="bold" lengthAdjust="spacing" textLength="14.46" x="952.5308" y="436.8506">10</text><text fill="#000000" font-family="sans-serif" font-size="13" lengthAdjust="spacing" textLength="44.0654" x="970.9907" y="436.8506">findAll()</text><polygon fill="#181818" points="956.5308,469.4043,946.5308,473.4043,956.5308,477.4043,952.5308,473.4043" style="stroke:#181818;stroke-width:1.0;"/><line style="stroke:#181818;stroke-width:1.0;stroke-dasharray:2.0,2.0;" x1="950.5308" x2="1977.8789" y1="473.4043" y2="473.4043"/><text fill="#000000" font-family="sans-serif" font-size="13" font-weight="bold" lengthAdjust="spacing" textLength="14.46" x="962.5308" y="468.1416">11</text><text fill="#000000" font-family="sans-serif" font-size="13" lengthAdjust="spacing" textLength="106.2217" x="980.9907" y="468.1416">list&lt;VaccineType&gt;</text><polygon fill="#181818" points="738.3799,500.6953,728.3799,504.6953,738.3799,508.6953,734.3799,504.6953" style="stroke:#181818;stroke-width:1.0;"/><line style="stroke:#181818;stroke-width:1.0;stroke-dasharray:2.0,2.0;" x1="732.3799" x2="944.5308" y1="504.6953" y2="504.6953"/><text fill="#000000" font-family="sans-serif" font-size="13" font-weight="bold" lengthAdjust="spacing" textLength="14.46" x="744.3799" y="499.4326">12</text><text fill="#000000" font-family="sans-serif" font-size="13" lengthAdjust="spacing" textLength="106.2217" x="762.8398" y="499.4326">list&lt;VaccineType&gt;</text><polygon fill="#181818" points="375.1094,531.9863,365.1094,535.9863,375.1094,539.9863,371.1094,535.9863" style="stroke:#181818;stroke-width:1.0;"/><line style="stroke:#181818;stroke-width:1.0;stroke-dasharray:2.0,2.0;" x1="369.1094" x2="726.3799" y1="535.9863" y2="535.9863"/><text fill="#000000" font-family="sans-serif" font-size="13" font-weight="bold" lengthAdjust="spacing" textLength="14.46" x="381.1094" y="530.7236">13</text><text fill="#000000" font-family="sans-serif" font-size="13" lengthAdjust="spacing" textLength="106.2217" x="399.5693" y="530.7236">list&lt;VaccineType&gt;</text><polygon fill="#181818" points="53.8413,563.2773,43.8413,567.2773,53.8413,571.2773,49.8413,567.2773" style="stroke:#181818;stroke-width:1.0;"/><line style="stroke:#181818;stroke-width:1.0;stroke-dasharray:2.0,2.0;" x1="47.8413" x2="363.1094" y1="567.2773" y2="567.2773"/><text fill="#000000" font-family="sans-serif" font-size="13" font-weight="bold" lengthAdjust="spacing" textLength="14.46" x="59.8413" y="562.0146">14</text><text fill="#000000" font-family="sans-serif" font-size="13" lengthAdjust="spacing" textLength="124.2871" x="78.3013" y="562.0146">asks the vaccine type</text><polygon fill="#181818" points="352.1094,594.5684,362.1094,598.5684,352.1094,602.5684,356.1094,598.5684" style="stroke:#181818;stroke-width:1.0;"/><line style="stroke:#181818;stroke-width:1.0;" x1="42.8413" x2="358.1094" y1="598.5684" y2="598.5684"/><text fill="#000000" font-family="sans-serif" font-size="13" font-weight="bold" lengthAdjust="spacing" textLength="14.46" x="49.8413" y="593.3057">15</text><text fill="#000000" font-family="sans-serif" font-size="13" lengthAdjust="spacing" textLength="127.1753" x="68.3013" y="593.3057">selects a vaccine type</text><polygon fill="#181818" points="53.8413,625.8594,43.8413,629.8594,53.8413,633.8594,49.8413,629.8594" style="stroke:#181818;stroke-width:1.0;"/><line style="stroke:#181818;stroke-width:1.0;stroke-dasharray:2.0,2.0;" x1="47.8413" x2="363.1094" y1="629.8594" y2="629.8594"/><text fill="#000000" font-family="sans-serif" font-size="13" font-weight="bold" lengthAdjust="spacing" textLength="14.46" x="59.8413" y="624.5967">16</text><text fill="#000000" font-family="sans-serif" font-size="13" lengthAdjust="spacing" textLength="169.0825" x="78.3013" y="624.5967">show all data for confirmation</text><polygon fill="#181818" points="352.1094,657.1504,362.1094,661.1504,352.1094,665.1504,356.1094,661.1504" style="stroke:#181818;stroke-width:1.0;"/><line style="stroke:#181818;stroke-width:1.0;" x1="42.8413" x2="358.1094" y1="661.1504" y2="661.1504"/><text fill="#000000" font-family="sans-serif" font-size="13" font-weight="bold" lengthAdjust="spacing" textLength="14.46" x="49.8413" y="655.8877">17</text><text fill="#000000" font-family="sans-serif" font-size="13" lengthAdjust="spacing" textLength="99.7153" x="68.3013" y="655.8877">confirms the data</text><polygon fill="#181818" points="715.3799,688.4414,725.3799,692.4414,715.3799,696.4414,719.3799,692.4414" style="stroke:#181818;stroke-width:1.0;"/><line style="stroke:#181818;stroke-width:1.0;" x1="364.1094" x2="721.3799" y1="692.4414" y2="692.4414"/><text fill="#000000" font-family="sans-serif" font-size="13" font-weight="bold" lengthAdjust="spacing" textLength="14.46" x="371.1094" y="687.1787">18</text><text fill="#000000" font-family="sans-serif" font-size="13" lengthAdjust="spacing" textLength="320.8105" x="389.5693" y="687.1787">registerVaccinationCenter(dto : VaccinationCenterDTO)</text><polygon fill="#181818" points="933.5308,719.7324,943.5308,723.7324,933.5308,727.7324,937.5308,723.7324" style="stroke:#181818;stroke-width:1.0;"/><line style="stroke:#181818;stroke-width:1.0;" x1="727.3799" x2="939.5308" y1="723.7324" y2="723.7324"/><text fill="#000000" font-family="sans-serif" font-size="13" font-weight="bold" lengthAdjust="spacing" textLength="14.46" x="734.3799" y="718.4697">19</text><text fill="#000000" font-family="sans-serif" font-size="13" lengthAdjust="spacing" textLength="109.0972" x="752.8398" y="718.4697">registerCenter(dto)</text><polygon fill="#181818" points="1812.1587,751.0234,1822.1587,755.0234,1812.1587,759.0234,1816.1587,755.0234" style="stroke:#181818;stroke-width:1.0;"/><line style="stroke:#181818;stroke-width:1.0;" x1="945.5308" x2="1818.1587" y1="755.0234" y2="755.0234"/><text fill="#000000" font-family="sans-serif" font-size="13" font-weight="bold" lengthAdjust="spacing" textLength="14.46" x="952.5308" y="749.7607">20</text><text fill="#000000" font-family="sans-serif" font-size="13" lengthAdjust="spacing" textLength="195.0952" x="970.9907" y="749.7607">getVaccinationCenterRepository()</text><polygon fill="#181818" points="956.5308,782.3145,946.5308,786.3145,956.5308,790.3145,952.5308,786.3145" style="stroke:#181818;stroke-width:1.0;"/><line style="stroke:#181818;stroke-width:1.0;stroke-dasharray:2.0,2.0;" x1="950.5308" x2="1823.1587" y1="786.3145" y2="786.3145"/><text fill="#000000" font-family="sans-serif" font-size="13" font-weight="bold" lengthAdjust="spacing" textLength="14.46" x="962.5308" y="781.0518">21</text><text fill="#000000" font-family="sans-serif" font-size="13" lengthAdjust="spacing" textLength="49.1372" x="980.9907" y="781.0518">VCRepo</text><line style="stroke:#000000;stroke-width:1.0;stroke-dasharray:2.0,2.0;" x1="10" x2="2069.8027" y1="795.3145" y2="795.3145"/><a href="facilityType" target="_top" title="facilityType" xlink:actuate="onRequest" xlink:href="facilityType" xlink:show="new" xlink:title="facilityType" xlink:type="simple"><text fill="#0000FF" font-family="sans-serif" font-size="11" font-weight="bold" lengthAdjust="spacing" text-decoration="underline" textLength="85.2554" x="15" y="807.1846">= HEALTHCARE</text></a><path d="M369,815.9453 L369,859.9453 L546,859.9453 L546,825.9453 L536,815.9453 L369,815.9453 " fill="#FEFFDD" style="stroke:#181818;stroke-width:0.5;"/><path d="M536,815.9453 L536,825.9453 L546,825.9453 L536,815.9453 " fill="#FEFFDD" style="stroke:#181818;stroke-width:0.5;"/><text fill="#000000" font-family="sans-serif" font-size="13" lengthAdjust="spacing" textLength="156.7998" x="375" y="834.9736">No vaccine type is required</text><text fill="#000000" font-family="sans-serif" font-size="13" lengthAdjust="spacing" textLength="131.5044" x="375" y="852.2646">for Healthcare centers.</text><polygon fill="#181818" points="53.8413,884.8184,43.8413,888.8184,53.8413,892.8184,49.8413,888.8184" style="stroke:#181818;stroke-width:1.0;"/><line style="stroke:#181818;stroke-width:1.0;stroke-dasharray:2.0,2.0;" x1="47.8413" x2="363.1094" y1="888.8184" y2="888.8184"/><text fill="#000000" font-family="sans-serif" font-size="13" font-weight="bold" lengthAdjust="spacing" textLength="14.46" x="59.8413" y="883.5557">22</text><text fill="#000000" font-family="sans-serif" font-size="13" lengthAdjust="spacing" textLength="169.0825" x="78.3013" y="883.5557">show all data for confirmation</text><polygon fill="#181818" points="352.1094,916.1094,362.1094,920.1094,352.1094,924.1094,356.1094,920.1094" style="stroke:#181818;stroke-width:1.0;"/><line style="stroke:#181818;stroke-width:1.0;" x1="42.8413" x2="358.1094" y1="920.1094" y2="920.1094"/><text fill="#000000" font-family="sans-serif" font-size="13" font-weight="bold" lengthAdjust="spacing" textLength="14.46" x="49.8413" y="914.8467">23</text><text fill="#000000" font-family="sans-serif" font-size="13" lengthAdjust="spacing" textLength="99.7153" x="68.3013" y="914.8467">confirms the data</text><polygon fill="#181818" points="715.3799,947.4004,725.3799,951.4004,715.3799,955.4004,719.3799,951.4004" style="stroke:#181818;stroke-width:1.0;"/><line style="stroke:#181818;stroke-width:1.0;" x1="364.1094" x2="721.3799" y1="951.4004" y2="951.4004"/><text fill="#000000" font-family="sans-serif" font-size="13" font-weight="bold" lengthAdjust="spacing" textLength="14.46" x="371.1094" y="946.1377">24</text><text fill="#000000" font-family="sans-serif" font-size="13" lengthAdjust="spacing" textLength="320.8105" x="389.5693" y="946.1377">registerVaccinationCenter(dto : VaccinationCenterDTO)</text><polygon fill="#181818" points="933.5308,978.6914,943.5308,982.6914,933.5308,986.6914,937.5308,982.6914" style="stroke:#181818;stroke-width:1.0;"/><line style="stroke:#181818;stroke-width:1.0;" x1="727.3799" x2="939.5308" y1="982.6914" y2="982.6914"/><text fill="#000000" font-family="sans-serif" font-size="13" font-weight="bold" lengthAdjust="spacing" textLength="14.46" x="734.3799" y="977.4287">25</text><text fill="#000000" font-family="sans-serif" font-size="13" lengthAdjust="spacing" textLength="109.0972" x="752.8398" y="977.4287">registerCenter(dto)</text><polygon fill="#181818" points="1812.1587,1009.9824,1822.1587,1013.9824,1812.1587,1017.9824,1816.1587,1013.9824" style="stroke:#181818;stroke-width:1.0;"/><line style="stroke:#181818;stroke-width:1.0;" x1="945.5308" x2="1818.1587" y1="1013.9824" y2="1013.9824"/><text fill="#000000" font-family="sans-serif" font-size="13" font-weight="bold" lengthAdjust="spacing" textLength="14.46" x="952.5308" y="1008.7197">26</text><text fill="#000000" font-family="sans-serif" font-size="13" lengthAdjust="spacing" textLength="195.0952" x="970.9907" y="1008.7197">getVaccinationCenterRepository()</text><polygon fill="#181818" points="956.5308,1041.2734,946.5308,1045.2734,956.5308,1049.2734,952.5308,1045.2734" style="stroke:#181818;stroke-width:1.0;"/><line style="stroke:#181818;stroke-width:1.0;stroke-dasharray:2.0,2.0;" x1="950.5308" x2="1823.1587" y1="1045.2734" y2="1045.2734"/><text fill="#000000" font-family="sans-serif" font-size="13" font-weight="bold" lengthAdjust="spacing" textLength="14.46" x="962.5308" y="1040.0107">27</text><text fill="#000000" font-family="sans-serif" font-size="13" lengthAdjust="spacing" textLength="49.1372" x="980.9907" y="1040.0107">VCRepo</text><path d="M847.9897,1067.2734 L908.1606,1067.2734 L908.1606,1076.5645 L898.1606,1086.5645 L847.9897,1086.5645 L847.9897,1067.2734 " fill="#EEEEEE" style="stroke:#000000;stroke-width:1.5;"/><rect fill="none" height="569.1602" style="stroke:#000000;stroke-width:1.5;" width="1834.6382" x="847.9897" y="1067.2734"/><text fill="#000000" font-family="sans-serif" font-size="13" font-weight="bold" lengthAdjust="spacing" textLength="15.1709" x="862.9897" y="1082.3018">alt</text><a href="dto.facilityType" target="_top" title="dto.facilityType" xlink:actuate="onRequest" xlink:href="dto.facilityType" xlink:show="new" xlink:title="dto.facilityType" xlink:type="simple"><text fill="#0000FF" font-family="sans-serif" font-size="11" font-weight="bold" lengthAdjust="spacing" text-decoration="underline" textLength="91.6792" x="923.1606" y="1081.1436">== HEALTHCARE</text></a><line style="stroke:#181818;stroke-width:1.0;" x1="945.5308" x2="987.5308" y1="1127.1465" y2="1127.1465"/><line style="stroke:#181818;stroke-width:1.0;" x1="987.5308" x2="987.5308" y1="1127.1465" y2="1140.1465"/><line style="stroke:#181818;stroke-width:1.0;" x1="946.5308" x2="987.5308" y1="1140.1465" y2="1140.1465"/><polygon fill="#181818" points="956.5308,1136.1465,946.5308,1140.1465,956.5308,1144.1465,952.5308,1140.1465" style="stroke:#181818;stroke-width:1.0;"/><text fill="#000000" font-family="sans-serif" font-size="13" font-weight="bold" lengthAdjust="spacing" textLength="14.46" x="952.5308" y="1113.2383">28</text><text fill="#000000" font-family="sans-serif" font-size="13" lengthAdjust="spacing" textLength="148.8589" x="970.9907" y="1104.5928">create Healthcare_Center</text><text fill="#000000" font-family="sans-serif" font-size="13" lengthAdjust="spacing" textLength="846.168" x="970.9907" y="1121.8838">(string name, string address, string phone_number, string website_adress, string opening_hours, string closing_hours, int max_vaccines_per_hour)</text><polygon fill="#181818" points="2263.1191,1184.7285,2273.1191,1188.7285,2263.1191,1192.7285,2267.1191,1188.7285" style="stroke:#181818;stroke-width:1.0;"/><line style="stroke:#181818;stroke-width:1.0;stroke-dasharray:2.0,2.0;" x1="945.5308" x2="2269.1191" y1="1188.7285" y2="1188.7285"/><text fill="#000000" font-family="sans-serif" font-size="13" font-weight="bold" lengthAdjust="spacing" textLength="14.46" x="952.5308" y="1174.8203">29</text><text fill="#000000" font-family="sans-serif" font-size="13" lengthAdjust="spacing" textLength="148.8589" x="970.9907" y="1166.1748">create Healthcare_Center</text><text fill="#000000" font-family="sans-serif" font-size="13" lengthAdjust="spacing" textLength="846.168" x="970.9907" y="1183.4658">(string name, string address, string phone_number, string website_adress, string opening_hours, string closing_hours, int max_vaccines_per_hour)</text><rect fill="#E2E2F0" height="32.6211" rx="2.5" ry="2.5" style="stroke:#181818;stroke-width:0.5;" width="131.5098" x="2275.1191" y="1153.1074"/><text fill="#000000" font-family="sans-serif" font-size="14" lengthAdjust="spacing" textLength="117.5098" x="2282.1191" y="1175.2148">Healthcare_Center</text><polygon fill="#181818" points="956.5308,1216.0195,946.5308,1220.0195,956.5308,1224.0195,952.5308,1220.0195" style="stroke:#181818;stroke-width:1.0;"/><line style="stroke:#181818;stroke-width:1.0;stroke-dasharray:2.0,2.0;" x1="950.5308" x2="2339.874" y1="1220.0195" y2="1220.0195"/><text fill="#000000" font-family="sans-serif" font-size="13" font-weight="bold" lengthAdjust="spacing" textLength="14.46" x="962.5308" y="1214.7568">30</text><text fill="#000000" font-family="sans-serif" font-size="13" lengthAdjust="spacing" textLength="109.1162" x="980.9907" y="1214.7568">Healthcare_Center</text><polygon fill="#181818" points="2155.4609,1247.3105,2165.4609,1251.3105,2155.4609,1255.3105,2159.4609,1251.3105" style="stroke:#181818;stroke-width:1.0;"/><line style="stroke:#181818;stroke-width:1.0;" x1="945.5308" x2="2161.4609" y1="1251.3105" y2="1251.3105"/><text fill="#000000" font-family="sans-serif" font-size="13" font-weight="bold" lengthAdjust="spacing" textLength="14.46" x="952.5308" y="1246.0479">31</text><text fill="#000000" font-family="sans-serif" font-size="13" lengthAdjust="spacing" textLength="138.0044" x="970.9907" y="1246.0479">save(HealthcareCenter)</text><polygon fill="#181818" points="956.5308,1278.6016,946.5308,1282.6016,956.5308,1286.6016,952.5308,1282.6016" style="stroke:#181818;stroke-width:1.0;"/><line style="stroke:#181818;stroke-width:1.0;stroke-dasharray:2.0,2.0;" x1="950.5308" x2="2166.4609" y1="1282.6016" y2="1282.6016"/><text fill="#000000" font-family="sans-serif" font-size="13" font-weight="bold" lengthAdjust="spacing" textLength="14.46" x="962.5308" y="1277.3389">32</text><text fill="#000000" font-family="sans-serif" font-size="13" lengthAdjust="spacing" textLength="36.8481" x="980.9907" y="1277.3389">Result</text><line style="stroke:#000000;stroke-width:1.0;stroke-dasharray:2.0,2.0;" x1="847.9897" x2="2682.6279" y1="1291.6016" y2="1291.6016"/><a href="dto.facilityType" target="_top" title="dto.facilityType" xlink:actuate="onRequest" xlink:href="dto.facilityType" xlink:show="new" xlink:title="dto.facilityType" xlink:type="simple"><text fill="#0000FF" font-family="sans-serif" font-size="11" font-weight="bold" lengthAdjust="spacing" text-decoration="underline" textLength="83.73" x="852.9897" y="1303.4717">== COMMUNITY</text></a><polygon fill="#181818" points="1812.1587,1326.5234,1822.1587,1330.5234,1812.1587,1334.5234,1816.1587,1330.5234" style="stroke:#181818;stroke-width:1.0;"/><line style="stroke:#181818;stroke-width:1.0;" x1="945.5308" x2="1818.1587" y1="1330.5234" y2="1330.5234"/><text fill="#000000" font-family="sans-serif" font-size="13" font-weight="bold" lengthAdjust="spacing" textLength="14.46" x="952.5308" y="1325.2607">33</text><text fill="#000000" font-family="sans-serif" font-size="13" lengthAdjust="spacing" textLength="164.0171" x="970.9907" y="1325.2607">getVaccineTypeRepository()</text><polygon fill="#181818" points="956.5308,1357.8145,946.5308,1361.8145,956.5308,1365.8145,952.5308,1361.8145" style="stroke:#181818;stroke-width:1.0;"/><line style="stroke:#181818;stroke-width:1.0;stroke-dasharray:2.0,2.0;" x1="950.5308" x2="1823.1587" y1="1361.8145" y2="1361.8145"/><text fill="#000000" font-family="sans-serif" font-size="13" font-weight="bold" lengthAdjust="spacing" textLength="14.46" x="962.5308" y="1356.5518">34</text><text fill="#000000" font-family="sans-serif" font-size="13" lengthAdjust="spacing" textLength="47.6899" x="980.9907" y="1356.5518">VTRepo</text><polygon fill="#181818" points="1966.8789,1389.1055,1976.8789,1393.1055,1966.8789,1397.1055,1970.8789,1393.1055" style="stroke:#181818;stroke-width:1.0;"/><line style="stroke:#181818;stroke-width:1.0;" x1="945.5308" x2="1972.8789" y1="1393.1055" y2="1393.1055"/><text fill="#000000" font-family="sans-serif" font-size="13" font-weight="bold" lengthAdjust="spacing" textLength="14.46" x="952.5308" y="1387.8428">35</text><text fill="#000000" font-family="sans-serif" font-size="13" lengthAdjust="spacing" textLength="201.6079" x="970.9907" y="1387.8428">findByCode(dto.vaccineTypeCode)</text><polygon fill="#181818" points="956.5308,1420.3965,946.5308,1424.3965,956.5308,1428.3965,952.5308,1424.3965" style="stroke:#181818;stroke-width:1.0;"/><line style="stroke:#181818;stroke-width:1.0;stroke-dasharray:2.0,2.0;" x1="950.5308" x2="1977.8789" y1="1424.3965" y2="1424.3965"/><text fill="#000000" font-family="sans-serif" font-size="13" font-weight="bold" lengthAdjust="spacing" textLength="14.46" x="962.5308" y="1419.1338">36</text><text fill="#000000" font-family="sans-serif" font-size="13" lengthAdjust="spacing" textLength="75.1499" x="980.9907" y="1419.1338">VaccineType</text><line style="stroke:#181818;stroke-width:1.0;" x1="945.5308" x2="987.5308" y1="1472.9785" y2="1472.9785"/><line style="stroke:#181818;stroke-width:1.0;" x1="987.5308" x2="987.5308" y1="1472.9785" y2="1485.9785"/><line style="stroke:#181818;stroke-width:1.0;" x1="946.5308" x2="987.5308" y1="1485.9785" y2="1485.9785"/><polygon fill="#181818" points="956.5308,1481.9785,946.5308,1485.9785,956.5308,1489.9785,952.5308,1485.9785" style="stroke:#181818;stroke-width:1.0;"/><text fill="#000000" font-family="sans-serif" font-size="13" font-weight="bold" lengthAdjust="spacing" textLength="14.46" x="952.5308" y="1459.0703">37</text><text fill="#000000" font-family="sans-serif" font-size="13" lengthAdjust="spacing" textLength="264.4561" x="970.9907" y="1450.4248">create Community_Mass_Vaccination_Center</text><text fill="#000000" font-family="sans-serif" font-size="13" lengthAdjust="spacing" textLength="138.7153" x="970.9907" y="1467.7158">(from dto, VaccineType)</text><polygon fill="#181818" points="2404.6289,1530.5605,2414.6289,1534.5605,2404.6289,1538.5605,2408.6289,1534.5605" style="stroke:#181818;stroke-width:1.0;"/><line style="stroke:#181818;stroke-width:1.0;stroke-dasharray:2.0,2.0;" x1="945.5308" x2="2410.6289" y1="1534.5605" y2="1534.5605"/><text fill="#000000" font-family="sans-serif" font-size="13" font-weight="bold" lengthAdjust="spacing" textLength="14.46" x="952.5308" y="1520.6523">38</text><text fill="#000000" font-family="sans-serif" font-size="13" lengthAdjust="spacing" textLength="148.8589" x="970.9907" y="1512.0068">create Healthcare_Center</text><text fill="#000000" font-family="sans-serif" font-size="13" lengthAdjust="spacing" textLength="846.168" x="970.9907" y="1529.2979">(string name, string address, string phone_number, string website_adress, string opening_hours, string closing_hours, int max_vaccines_per_hour)</text><rect fill="#E2E2F0" height="32.6211" rx="2.5" ry="2.5" style="stroke:#181818;stroke-width:0.5;" width="255.999" x="2416.6289" y="1498.9395"/><text fill="#000000" font-family="sans-serif" font-size="14" lengthAdjust="spacing" textLength="241.999" x="2423.6289" y="1521.0469">Community_Mass_Vaccination_Center</text><polygon fill="#181818" points="956.5308,1561.8516,946.5308,1565.8516,956.5308,1569.8516,952.5308,1565.8516" style="stroke:#181818;stroke-width:1.0;"/><line style="stroke:#181818;stroke-width:1.0;stroke-dasharray:2.0,2.0;" x1="950.5308" x2="2543.6284" y1="1565.8516" y2="1565.8516"/><text fill="#000000" font-family="sans-serif" font-size="13" font-weight="bold" lengthAdjust="spacing" textLength="14.46" x="962.5308" y="1560.5889">39</text><text fill="#000000" font-family="sans-serif" font-size="13" lengthAdjust="spacing" textLength="224.7134" x="980.9907" y="1560.5889">Community_Mass_Vaccination_Center</text><polygon fill="#181818" points="2155.4609,1593.1426,2165.4609,1597.1426,2155.4609,1601.1426,2159.4609,1597.1426" style="stroke:#181818;stroke-width:1.0;"/><line style="stroke:#181818;stroke-width:1.0;" x1="945.5308" x2="2161.4609" y1="1597.1426" y2="1597.1426"/><text fill="#000000" font-family="sans-serif" font-size="13" font-weight="bold" lengthAdjust="spacing" textLength="14.46" x="952.5308" y="1591.8799">40</text><text fill="#000000" font-family="sans-serif" font-size="13" lengthAdjust="spacing" textLength="260.8315" x="970.9907" y="1591.8799">save(Community_Mass_Vaccination_Center)</text><polygon fill="#181818" points="956.5308,1624.4336,946.5308,1628.4336,956.5308,1632.4336,952.5308,1628.4336" style="stroke:#181818;stroke-width:1.0;"/><line style="stroke:#181818;stroke-width:1.0;stroke-dasharray:2.0,2.0;" x1="950.5308" x2="2166.4609" y1="1628.4336" y2="1628.4336"/><text fill="#000000" font-family="sans-serif" font-size="13" font-weight="bold" lengthAdjust="spacing" textLength="14.46" x="962.5308" y="1623.1709">41</text><text fill="#000000" font-family="sans-serif" font-size="13" lengthAdjust="spacing" textLength="36.8481" x="980.9907" y="1623.1709">Result</text><polygon fill="#181818" points="738.3799,1662.7246,728.3799,1666.7246,738.3799,1670.7246,734.3799,1666.7246" style="stroke:#181818;stroke-width:1.0;"/><line style="stroke:#181818;stroke-width:1.0;stroke-dasharray:2.0,2.0;" x1="732.3799" x2="944.5308" y1="1666.7246" y2="1666.7246"/><text fill="#000000" font-family="sans-serif" font-size="13" font-weight="bold" lengthAdjust="spacing" textLength="14.46" x="744.3799" y="1661.4619">42</text><text fill="#000000" font-family="sans-serif" font-size="13" lengthAdjust="spacing" textLength="36.8481" x="762.8398" y="1661.4619">Result</text><polygon fill="#181818" points="375.1094,1694.0156,365.1094,1698.0156,375.1094,1702.0156,371.1094,1698.0156" style="stroke:#181818;stroke-width:1.0;"/><line style="stroke:#181818;stroke-width:1.0;stroke-dasharray:2.0,2.0;" x1="369.1094" x2="726.3799" y1="1698.0156" y2="1698.0156"/><text fill="#000000" font-family="sans-serif" font-size="13" font-weight="bold" lengthAdjust="spacing" textLength="14.46" x="381.1094" y="1692.7529">43</text><text fill="#000000" font-family="sans-serif" font-size="13" lengthAdjust="spacing" textLength="36.8481" x="399.5693" y="1692.7529">Result</text><polygon fill="#181818" points="53.8413,1725.3066,43.8413,1729.3066,53.8413,1733.3066,49.8413,1729.3066" style="stroke:#181818;stroke-width:1.0;"/><line style="stroke:#181818;stroke-width:1.0;stroke-dasharray:2.0,2.0;" x1="47.8413" x2="363.1094" y1="1729.3066" y2="1729.3066"/><text fill="#000000" font-family="sans-serif" font-size="13" font-weight="bold" lengthAdjust="spacing" textLength="14.46" x="59.8413" y="1724.0439">44</text><text fill="#000000" font-family="sans-serif" font-size="13" lengthAdjust="spacing" textLength="202.3315" x="78.3013" y="1724.0439">informs the sucess of the operation</text><!--SRC=[xLRVRzCm47xFNt6FxRIDzmecbJ0q9BP9eo0XDaMUSsqj4ZlOJaV_UyvsciHDkeuNf4dq9VNbkz-Vxy9ggsHTFg9E6BTAmpmlXKoIYcahkAYOj727As4iwc-CSo6P5KgcA9r0u1Cm0-xvCerKIQjLKQ1sUjqfqXveVK6z4HoTIlDtprkbZA3Wjnzz3bi7TCBcE68S5ziAEpsVnCATdmzaJoCTQ5mXA-oQCurPq72uJXXXKrMMjHHscrqpOxAUivvk2qeItnauk_3bde76NpKQQy0g-X_g3GmajSHISg2Mi6HS54xND-gCLBsD6Hd-INfhR15UPU32O87SjY1NCvXSNSu_BwxI-Ttbc_Js-lhhpQV5z-d0GnCTvCooUpcmxDoP29GaL2Ju4Vbw1ws7XoG124ukUhoPGK69ztfg9bC2zcX6y8OperW2xzX5o1vfPh12EqeMxw67z6ctFXeQnNQ3S0PB8VDvKNWBGHOhkm3VzfnUH7P6Ce_1SU9jiKUj7gJ49W038m16AM68Q15knA1PAneEHU6x2qiQBLp9fT2bf_ZGSlCs114OCTvnVMYuJ7Aw2hFXhVsmk7s653jpdOsNiM9qB1pXHXWO2HO61rJlxjK3sP3A8cYnMbjtaVs01VhTgAZk8C8b4Xfp_zwLkHitm7ruvfpUeSozqV-T-fjE9LIsPZAHk_EuPN7FuaXQIrmZerOE5iEzd1YhXLo1P2MUGdDWUQxHcFPShPN4B6peLlY4ZvG4PYp6gWebFRErgdKdvGLbt4a5RPwI_SuQ6fciGktVJVT6JHVnoSahIwDt0wAk3gBVcz9fcDA6RN3IOGFKZ-nqEBBlqDI5tTtfCPB4E-mVRvltsrJbwExA-QOpxsI7Tb0lYYESFle1G-HOQbK2UJ_jsvtwMHNljSRKg-CQTB57PJnQd6UuTrJtA1dTr3hqtT20HZyLcdVx6q98sWhDm3SrfmgwhUHEL40TraJo1m00]--></g></svg>