<svg xmlns="http://www.w3.org/2000/svg" xmlns:xlink="http://www.w3.org/1999/xlink" contentStyleType="text/css" height="651px" preserveAspectRatio="none" style="width:359px;height:651px;background:#FFFFFF;" version="1.1" viewBox="0 0 359 651" width="359px" zoomAndPan="magnify"><title>US13:System Sequence Diagram</title><defs/><g><text fill="#000000" font-family="sans-serif" font-size="14" font-weight="bold" lengthAdjust="spacing" textLength="219.4268" x="70.9353" y="30.1074">US13:System Sequence Diagram</text><rect fill="#FFFFFF" height="31.291" style="stroke:#181818;stroke-width:1.0;" width="10" x="305.0146" y="156.5332"/><rect fill="#FFFFFF" height="57.582" style="stroke:#181818;stroke-width:1.0;" width="10" x="305.0146" y="219.1152"/><rect fill="#FFFFFF" height="31.291" style="stroke:#181818;stroke-width:1.0;" width="10" x="305.0146" y="307.9883"/><rect fill="#FFFFFF" height="47.9219" style="stroke:#181818;stroke-width:1.0;" width="10" x="305.0146" y="370.5703"/><rect fill="#FFFFFF" height="38.291" style="stroke:#181818;stroke-width:1.0;" width="10" x="305.0146" y="449.7832"/><rect fill="#FFFFFF" height="31.291" style="stroke:#181818;stroke-width:1.0;" width="10" x="305.0146" y="519.3652"/><rect fill="none" height="223.668" style="stroke:#000000;stroke-width:1.5;" width="342.2974" x="10" y="234.1152"/><line style="stroke:#181818;stroke-width:0.5;stroke-dasharray:5.0,5.0;" x1="42" x2="42" y1="123.2422" y2="568.6563"/><line style="stroke:#181818;stroke-width:0.5;stroke-dasharray:5.0,5.0;" x1="309.7319" x2="309.7319" y1="123.2422" y2="568.6563"/><text fill="#000000" font-family="sans-serif" font-size="14" lengthAdjust="spacing" textLength="39.6826" x="20" y="119.7285">Admin</text><ellipse cx="42.8413" cy="53.1211" fill="#E2E2F0" rx="8" ry="8" style="stroke:#181818;stroke-width:0.5;"/><path d="M42.8413,61.1211 L42.8413,88.1211 M29.8413,69.1211 L55.8413,69.1211 M42.8413,88.1211 L29.8413,103.1211 M42.8413,88.1211 L55.8413,103.1211 " fill="none" style="stroke:#181818;stroke-width:0.5;"/><text fill="#000000" font-family="sans-serif" font-size="14" lengthAdjust="spacing" textLength="39.6826" x="20" y="582.7637">Admin</text><ellipse cx="42.8413" cy="594.7773" fill="#E2E2F0" rx="8" ry="8" style="stroke:#181818;stroke-width:0.5;"/><path d="M42.8413,602.7773 L42.8413,629.7773 M29.8413,610.7773 L55.8413,610.7773 M42.8413,629.7773 L29.8413,644.7773 M42.8413,629.7773 L55.8413,644.7773 " fill="none" style="stroke:#181818;stroke-width:0.5;"/><rect fill="#E2E2F0" height="32.6211" rx="2.5" ry="2.5" style="stroke:#181818;stroke-width:0.5;" width="64.5654" x="277.7319" y="89.6211"/><text fill="#000000" font-family="sans-serif" font-size="14" lengthAdjust="spacing" textLength="50.5654" x="284.7319" y="111.7285">:System</text><rect fill="#E2E2F0" height="32.6211" rx="2.5" ry="2.5" style="stroke:#181818;stroke-width:0.5;" width="64.5654" x="277.7319" y="567.6563"/><text fill="#000000" font-family="sans-serif" font-size="14" lengthAdjust="spacing" textLength="50.5654" x="284.7319" y="589.7637">:System</text><rect fill="#FFFFFF" height="31.291" style="stroke:#181818;stroke-width:1.0;" width="10" x="305.0146" y="156.5332"/><rect fill="#FFFFFF" height="57.582" style="stroke:#181818;stroke-width:1.0;" width="10" x="305.0146" y="219.1152"/><rect fill="#FFFFFF" height="31.291" style="stroke:#181818;stroke-width:1.0;" width="10" x="305.0146" y="307.9883"/><rect fill="#FFFFFF" height="47.9219" style="stroke:#181818;stroke-width:1.0;" width="10" x="305.0146" y="370.5703"/><rect fill="#FFFFFF" height="38.291" style="stroke:#181818;stroke-width:1.0;" width="10" x="305.0146" y="449.7832"/><rect fill="#FFFFFF" height="31.291" style="stroke:#181818;stroke-width:1.0;" width="10" x="305.0146" y="519.3652"/><polygon fill="#181818" points="293.0146,152.5332,303.0146,156.5332,293.0146,160.5332,297.0146,156.5332" style="stroke:#181818;stroke-width:1.0;"/><line style="stroke:#181818;stroke-width:1.0;" x1="42.8413" x2="299.0146" y1="156.5332" y2="156.5332"/><text fill="#000000" font-family="sans-serif" font-size="13" font-weight="bold" lengthAdjust="spacing" textLength="7.23" x="49.8413" y="151.2705">1</text><text fill="#000000" font-family="sans-serif" font-size="13" lengthAdjust="spacing" textLength="231.9434" x="61.0713" y="151.2705">requests to register a new type of facility</text><polygon fill="#181818" points="53.8413,183.8242,43.8413,187.8242,53.8413,191.8242,49.8413,187.8242" style="stroke:#181818;stroke-width:1.0;"/><line style="stroke:#181818;stroke-width:1.0;stroke-dasharray:2.0,2.0;" x1="47.8413" x2="309.0146" y1="187.8242" y2="187.8242"/><text fill="#000000" font-family="sans-serif" font-size="13" font-weight="bold" lengthAdjust="spacing" textLength="7.23" x="59.8413" y="182.5615">2</text><text fill="#000000" font-family="sans-serif" font-size="13" lengthAdjust="spacing" textLength="116.3271" x="71.0713" y="182.5615">asks the facility type</text><polygon fill="#181818" points="293.0146,215.1152,303.0146,219.1152,293.0146,223.1152,297.0146,219.1152" style="stroke:#181818;stroke-width:1.0;"/><line style="stroke:#181818;stroke-width:1.0;" x1="42.8413" x2="299.0146" y1="219.1152" y2="219.1152"/><text fill="#000000" font-family="sans-serif" font-size="13" font-weight="bold" lengthAdjust="spacing" textLength="7.23" x="49.8413" y="213.8525">3</text><text fill="#000000" font-family="sans-serif" font-size="13" lengthAdjust="spacing" textLength="108.3735" x="61.0713" y="213.8525">selects facility type</text><path d="M10,234.1152 L70.1709,234.1152 L70.1709,243.4063 L60.1709,253.4063 L10,253.4063 L10,234.1152 " fill="#EEEEEE" style="stroke:#000000;stroke-width:1.5;"/><rect fill="none" height="223.668" style="stroke:#000000;stroke-width:1.5;" width="342.2974" x="10" y="234.1152"/><text fill="#000000" font-family="sans-serif" font-size="13" font-weight="bold" lengthAdjust="spacing" textLength="15.1709" x="25" y="249.1436">alt</text><text fill="#000000" font-family="sans-serif" font-size="11" font-weight="bold" lengthAdjust="spacing" textLength="157.0938" x="85.1709" y="247.9854">[The user selects Community]</text><polygon fill="#181818" points="53.8413,272.6973,43.8413,276.6973,53.8413,280.6973,49.8413,276.6973" style="stroke:#181818;stroke-width:1.0;"/><line style="stroke:#181818;stroke-width:1.0;stroke-dasharray:2.0,2.0;" x1="47.8413" x2="309.0146" y1="276.6973" y2="276.6973"/><text fill="#000000" font-family="sans-serif" font-size="13" font-weight="bold" lengthAdjust="spacing" textLength="7.23" x="59.8413" y="271.4346">4</text><text fill="#000000" font-family="sans-serif" font-size="13" lengthAdjust="spacing" textLength="78.7744" x="71.0713" y="271.4346">requests data</text><polygon fill="#181818" points="293.0146,303.9883,303.0146,307.9883,293.0146,311.9883,297.0146,307.9883" style="stroke:#181818;stroke-width:1.0;"/><line style="stroke:#181818;stroke-width:1.0;" x1="42.8413" x2="299.0146" y1="307.9883" y2="307.9883"/><text fill="#000000" font-family="sans-serif" font-size="13" font-weight="bold" lengthAdjust="spacing" textLength="7.23" x="49.8413" y="302.7256">5</text><text fill="#000000" font-family="sans-serif" font-size="13" lengthAdjust="spacing" textLength="121.418" x="61.0713" y="302.7256">types requested data</text><polygon fill="#181818" points="53.8413,335.2793,43.8413,339.2793,53.8413,343.2793,49.8413,339.2793" style="stroke:#181818;stroke-width:1.0;"/><line style="stroke:#181818;stroke-width:1.0;stroke-dasharray:2.0,2.0;" x1="47.8413" x2="309.0146" y1="339.2793" y2="339.2793"/><text fill="#000000" font-family="sans-serif" font-size="13" font-weight="bold" lengthAdjust="spacing" textLength="7.23" x="59.8413" y="334.0166">6</text><text fill="#000000" font-family="sans-serif" font-size="13" lengthAdjust="spacing" textLength="124.2871" x="71.0713" y="334.0166">asks the vaccine type</text><polygon fill="#181818" points="293.0146,366.5703,303.0146,370.5703,293.0146,374.5703,297.0146,370.5703" style="stroke:#181818;stroke-width:1.0;"/><line style="stroke:#181818;stroke-width:1.0;" x1="42.8413" x2="299.0146" y1="370.5703" y2="370.5703"/><text fill="#000000" font-family="sans-serif" font-size="13" font-weight="bold" lengthAdjust="spacing" textLength="7.23" x="49.8413" y="365.3076">7</text><text fill="#000000" font-family="sans-serif" font-size="13" lengthAdjust="spacing" textLength="127.1753" x="61.0713" y="365.3076">selects a vaccine type</text><line style="stroke:#000000;stroke-width:1.0;stroke-dasharray:2.0,2.0;" x1="10" x2="352.2974" y1="379.5703" y2="379.5703"/><text fill="#000000" font-family="sans-serif" font-size="11" font-weight="bold" lengthAdjust="spacing" textLength="152.8452" x="15" y="391.4404">[The user selects Healthcare]</text><polygon fill="#181818" points="53.8413,414.4922,43.8413,418.4922,53.8413,422.4922,49.8413,418.4922" style="stroke:#181818;stroke-width:1.0;"/><line style="stroke:#181818;stroke-width:1.0;stroke-dasharray:2.0,2.0;" x1="47.8413" x2="309.0146" y1="418.4922" y2="418.4922"/><text fill="#000000" font-family="sans-serif" font-size="13" font-weight="bold" lengthAdjust="spacing" textLength="7.23" x="59.8413" y="413.2295">8</text><text fill="#000000" font-family="sans-serif" font-size="13" lengthAdjust="spacing" textLength="78.7744" x="71.0713" y="413.2295">requests data</text><polygon fill="#181818" points="293.0146,445.7832,303.0146,449.7832,293.0146,453.7832,297.0146,449.7832" style="stroke:#181818;stroke-width:1.0;"/><line style="stroke:#181818;stroke-width:1.0;" x1="42.8413" x2="299.0146" y1="449.7832" y2="449.7832"/><text fill="#000000" font-family="sans-serif" font-size="13" font-weight="bold" lengthAdjust="spacing" textLength="7.23" x="49.8413" y="444.5205">9</text><text fill="#000000" font-family="sans-serif" font-size="13" lengthAdjust="spacing" textLength="121.418" x="61.0713" y="444.5205">types requested data</text><polygon fill="#181818" points="53.8413,484.0742,43.8413,488.0742,53.8413,492.0742,49.8413,488.0742" style="stroke:#181818;stroke-width:1.0;"/><line style="stroke:#181818;stroke-width:1.0;stroke-dasharray:2.0,2.0;" x1="47.8413" x2="309.0146" y1="488.0742" y2="488.0742"/><text fill="#000000" font-family="sans-serif" font-size="13" font-weight="bold" lengthAdjust="spacing" textLength="14.46" x="59.8413" y="482.8115">10</text><text fill="#000000" font-family="sans-serif" font-size="13" lengthAdjust="spacing" textLength="175.5825" x="78.3013" y="482.8115">shows all data for confirmation</text><polygon fill="#181818" points="293.0146,515.3652,303.0146,519.3652,293.0146,523.3652,297.0146,519.3652" style="stroke:#181818;stroke-width:1.0;"/><line style="stroke:#181818;stroke-width:1.0;" x1="42.8413" x2="299.0146" y1="519.3652" y2="519.3652"/><text fill="#000000" font-family="sans-serif" font-size="13" font-weight="bold" lengthAdjust="spacing" textLength="14.46" x="49.8413" y="514.1025">11</text><text fill="#000000" font-family="sans-serif" font-size="13" lengthAdjust="spacing" textLength="99.7153" x="68.3013" y="514.1025">confirms the data</text><polygon fill="#181818" points="53.8413,546.6563,43.8413,550.6563,53.8413,554.6563,49.8413,550.6563" style="stroke:#181818;stroke-width:1.0;"/><line style="stroke:#181818;stroke-width:1.0;stroke-dasharray:2.0,2.0;" x1="47.8413" x2="309.0146" y1="550.6563" y2="550.6563"/><text fill="#000000" font-family="sans-serif" font-size="13" font-weight="bold" lengthAdjust="spacing" textLength="14.46" x="59.8413" y="545.3936">12</text><text fill="#000000" font-family="sans-serif" font-size="13" lengthAdjust="spacing" textLength="202.3315" x="78.3013" y="545.3936">informs the sucess of the operation</text><!--SRC=[hPA_JiD03CRtF8NLXQbKY2q34eA1lV00vk8q9-vFEFjQzUtnNP8YcevaYiy_VzzdoNU3oCZjRZSw39AzkpVHxvY-CmL3syxY8Q5l6h7Y23xs3u_j_in27lOp0wyBWraY6h57588OQXso_wIaFICnmUQvypPi01aow_E8IQonerh3PXQkNQw_JLCes3xDTPkA9mk3H4XqiFgO027G2UGygcaFFHhhh9oRPfg1hOuNcHRvImS7kY1rPkK1J8wCUbnXw0JUTRhY2_CIlS-Xs85-ruvmoTkXO4MkpOesBnnrl-1AwnB_YCROG5EiMvfBEFoBacDQR_16kjXWCD6_ha2XQsx9yH1FciovYa6lHs5Yw6toA5PlveR-t9-MNrAiX6rGhHdYR8YvN4EfuaXf4ly1]--></g></svg>