<svg xmlns="http://www.w3.org/2000/svg" xmlns:xlink="http://www.w3.org/1999/xlink" contentStyleType="text/css" height="1813px" preserveAspectRatio="none" style="width:2689px;height:1813px;background:#FFFFFF;" version="1.1" viewBox="0 0 2689 1813" width="2689px" zoomAndPan="magnify"><defs/><g><rect fill="none" height="778.9063" style="stroke:#000000;stroke-width:1.5;" width="2059.8027" x="10" y="257.0762"/><rect fill="none" height="569.1602" style="stroke:#000000;stroke-width:1.5;" width="1834.6382" x="847.9897" y="1049.9824"/><line style="stroke:#181818;stroke-width:0.5;stroke-dasharray:5.0,5.0;" x1="42" x2="42" y1="83.6211" y2="1730.0156"/><line style="stroke:#181818;stroke-width:0.5;stroke-dasharray:5.0,5.0;" x1="363.6719" x2="363.6719" y1="83.6211" y2="1730.0156"/><line style="stroke:#181818;stroke-width:0.5;stroke-dasharray:5.0,5.0;" x1="726.77" x2="726.77" y1="83.6211" y2="1730.0156"/><line style="stroke:#181818;stroke-width:0.5;stroke-dasharray:5.0,5.0;" x1="944.9897" x2="944.9897" y1="83.6211" y2="1730.0156"/><line style="stroke:#181818;stroke-width:0.5;stroke-dasharray:5.0,5.0;" x1="1823.3623" x2="1823.3623" y1="83.6211" y2="1730.0156"/><line style="stroke:#181818;stroke-width:0.5;stroke-dasharray:5.0,5.0;" x1="1977.9551" x2="1977.9551" y1="83.6211" y2="1730.0156"/><line style="stroke:#181818;stroke-width:0.5;stroke-dasharray:5.0,5.0;" x1="2166.8027" x2="2166.8027" y1="83.6211" y2="1730.0156"/><line style="stroke:#181818;stroke-width:0.5;stroke-dasharray:5.0,5.0;" x1="2340.1191" x2="2340.1191" y1="1165.1465" y2="1730.0156"/><line style="stroke:#181818;stroke-width:0.5;stroke-dasharray:5.0,5.0;" x1="2543.6289" x2="2543.6289" y1="1510.9785" y2="1730.0156"/><text fill="#000000" font-family="sans-serif" font-size="14" lengthAdjust="spacing" textLength="39.6826" x="20" y="80.1074">Admin</text><ellipse cx="42.8413" cy="13.5" fill="#E2E2F0" rx="8" ry="8" style="stroke:#181818;stroke-width:0.5;"/><path d="M42.8413,21.5 L42.8413,48.5 M29.8413,29.5 L55.8413,29.5 M42.8413,48.5 L29.8413,63.5 M42.8413,48.5 L55.8413,63.5 " fill="none" style="stroke:#181818;stroke-width:0.5;"/><text fill="#000000" font-family="sans-serif" font-size="14" lengthAdjust="spacing" textLength="39.6826" x="20" y="1744.123">Admin</text><ellipse cx="42.8413" cy="1756.1367" fill="#E2E2F0" rx="8" ry="8" style="stroke:#181818;stroke-width:0.5;"/><path d="M42.8413,1764.1367 L42.8413,1791.1367 M29.8413,1772.1367 L55.8413,1772.1367 M42.8413,1791.1367 L29.8413,1806.1367 M42.8413,1791.1367 L55.8413,1806.1367 " fill="none" style="stroke:#181818;stroke-width:0.5;"/><rect fill="#E2E2F0" height="32.6211" rx="2.5" ry="2.5" style="stroke:#181818;stroke-width:0.5;" width="210.875" x="258.6719" y="50"/><text fill="#000000" font-family="sans-serif" font-size="14" lengthAdjust="spacing" textLength="196.875" x="265.6719" y="72.1074">RegisterVaccinationCenterView</text><rect fill="#E2E2F0" height="32.6211" rx="2.5" ry="2.5" style="stroke:#181818;stroke-width:0.5;" width="210.875" x="258.6719" y="1729.0156"/><text fill="#000000" font-family="sans-serif" font-size="14" lengthAdjust="spacing" textLength="196.875" x="265.6719" y="1751.123">RegisterVaccinationCenterView</text><rect fill="#E2E2F0" height="32.6211" rx="2.5" ry="2.5" style="stroke:#181818;stroke-width:0.5;" width="241.2197" x="606.77" y="50"/><text fill="#000000" font-family="sans-serif" font-size="14" lengthAdjust="spacing" textLength="227.2197" x="613.77" y="72.1074">RegisterVaccinationCenterController</text><rect fill="#E2E2F0" height="32.6211" rx="2.5" ry="2.5" style="stroke:#181818;stroke-width:0.5;" width="241.2197" x="606.77" y="1729.0156"/><text fill="#000000" font-family="sans-serif" font-size="14" lengthAdjust="spacing" textLength="227.2197" x="613.77" y="1751.123">RegisterVaccinationCenterController</text><rect fill="#E2E2F0" height="32.6211" rx="2.5" ry="2.5" style="stroke:#181818;stroke-width:0.5;" width="175.082" x="857.9897" y="50"/><text fill="#000000" font-family="sans-serif" font-size="14" lengthAdjust="spacing" textLength="161.082" x="864.9897" y="72.1074">VaccinationCenterService</text><rect fill="#E2E2F0" height="32.6211" rx="2.5" ry="2.5" style="stroke:#181818;stroke-width:0.5;" width="175.082" x="857.9897" y="1729.0156"/><text fill="#000000" font-family="sans-serif" font-size="14" lengthAdjust="spacing" textLength="161.082" x="864.9897" y="1751.123">VaccinationCenterService</text><rect fill="#E2E2F0" height="32.6211" rx="2.5" ry="2.5" style="stroke:#181818;stroke-width:0.5;" width="127.5928" x="1760.3623" y="50"/><text fill="#000000" font-family="sans-serif" font-size="14" lengthAdjust="spacing" textLength="113.5928" x="1767.3623" y="72.1074">RepositoryFactory</text><rect fill="#E2E2F0" height="32.6211" rx="2.5" ry="2.5" style="stroke:#181818;stroke-width:0.5;" width="127.5928" x="1760.3623" y="1729.0156"/><text fill="#000000" font-family="sans-serif" font-size="14" lengthAdjust="spacing" textLength="113.5928" x="1767.3623" y="1751.123">RepositoryFactory</text><rect fill="#E2E2F0" height="32.6211" rx="2.5" ry="2.5" style="stroke:#181818;stroke-width:0.5;" width="161.8477" x="1897.9551" y="50"/><text fill="#000000" font-family="sans-serif" font-size="14" lengthAdjust="spacing" textLength="147.8477" x="1904.9551" y="72.1074">VaccineTypeRepository</text><rect fill="#E2E2F0" height="32.6211" rx="2.5" ry="2.5" style="stroke:#181818;stroke-width:0.5;" width="161.8477" x="1897.9551" y="1729.0156"/><text fill="#000000" font-family="sans-serif" font-size="14" lengthAdjust="spacing" textLength="147.8477" x="1904.9551" y="1751.123">VaccineTypeRepository</text><rect fill="#E2E2F0" height="32.6211" rx="2.5" ry="2.5" style="stroke:#181818;stroke-width:0.5;" width="195.3164" x="2069.8027" y="50"/><text fill="#000000" font-family="sans-serif" font-size="14" lengthAdjust="spacing" textLength="181.3164" x="2076.8027" y="72.1074">VaccinationCenterRepository</text><rect fill="#E2E2F0" height="32.6211" rx="2.5" ry="2.5" style="stroke:#181818;stroke-width:0.5;" width="195.3164" x="2069.8027" y="1729.0156"/><text fill="#000000" font-family="sans-serif" font-size="14" lengthAdjust="spacing" textLength="181.3164" x="2076.8027" y="1751.123">VaccinationCenterRepository</text><rect fill="#E2E2F0" height="32.6211" rx="2.5" ry="2.5" style="stroke:#181818;stroke-width:0.5;" width="131.5098" x="2275.1191" y="1729.0156"/><text fill="#000000" font-family="sans-serif" font-size="14" lengthAdjust="spacing" textLength="117.5098" x="2282.1191" y="1751.123">Healthcare_Center</text><rect fill="#E2E2F0" height="32.6211" rx="2.5" ry="2.5" style="stroke:#181818;stroke-width:0.5;" width="255.999" x="2416.6289" y="1729.0156"/><text fill="#000000" font-family="sans-serif" font-size="14" lengthAdjust="spacing" textLength="241.999" x="2423.6289" y="1751.123">Community_Mass_Vaccination_Center</text><polygon fill="#181818" points="352.1094,112.9121,362.1094,116.9121,352.1094,120.9121,356.1094,116.9121" style="stroke:#181818;stroke-width:1.0;"/><line style="stroke:#181818;stroke-width:1.0;" x1="42.8413" x2="358.1094" y1="116.9121" y2="116.9121"/><text fill="#000000" font-family="sans-serif" font-size="13" font-weight="bold" lengthAdjust="spacing" textLength="7.23" x="49.8413" y="111.6494">1</text><text fill="#000000" font-family="sans-serif" font-size="13" lengthAdjust="spacing" textLength="231.9434" x="61.0713" y="111.6494">requests to register a new type of facility</text><polygon fill="#181818" points="53.8413,144.2031,43.8413,148.2031,53.8413,152.2031,49.8413,148.2031" style="stroke:#181818;stroke-width:1.0;"/><line style="stroke:#181818;stroke-width:1.0;stroke-dasharray:2.0,2.0;" x1="47.8413" x2="363.1094" y1="148.2031" y2="148.2031"/><text fill="#000000" font-family="sans-serif" font-size="13" font-weight="bold" lengthAdjust="spacing" textLength="7.23" x="59.8413" y="142.9404">2</text><text fill="#000000" font-family="sans-serif" font-size="13" lengthAdjust="spacing" textLength="116.3271" x="71.0713" y="142.9404">asks the facility type</text><polygon fill="#181818" points="352.1094,175.4941,362.1094,179.4941,352.1094,183.4941,356.1094,179.4941" style="stroke:#181818;stroke-width:1.0;"/><line style="stroke:#181818;stroke-width:1.0;" x1="42.8413" x2="358.1094" y1="179.4941" y2="179.4941"/><text fill="#000000" font-family="sans-serif" font-size="13" font-weight="bold" lengthAdjust="spacing" textLength="7.23" x="49.8413" y="174.2314">3</text><text fill="#000000" font-family="sans-serif" font-size="13" lengthAdjust="spacing" textLength="286.0381" x="61.0713" y="174.2314">select facilityType (HEALTHCARE/COMMUNITY)</text><polygon fill="#181818" points="53.8413,206.7852,43.8413,210.7852,53.8413,214.7852,49.8413,210.7852" style="stroke:#181818;stroke-width:1.0;"/><line style="stroke:#181818;stroke-width:1.0;stroke-dasharray:2.0,2.0;" x1="47.8413" x2="363.1094" y1="210.7852" y2="210.7852"/><text fill="#000000" font-family="sans-serif" font-size="13" font-weight="bold" lengthAdjust="spacing" textLength="7.23" x="59.8413" y="205.5225">4</text><text fill="#000000" font-family="sans-serif" font-size="13" lengthAdjust="spacing" textLength="72.2744" x="71.0713" y="205.5225">request data</text><polygon fill="#181818" points="352.1094,238.0762,362.1094,242.0762,352.1094,246.0762,356.1094,242.0762" style="stroke:#181818;stroke-width:1.0;"/><line style="stroke:#181818;stroke-width:1.0;" x1="42.8413" x2="358.1094" y1="242.0762" y2="242.0762"/><text fill="#000000" font-family="sans-serif" font-size="13" font-weight="bold" lengthAdjust="spacing" textLength="7.23" x="49.8413" y="236.8135">5</text><text fill="#000000" font-family="sans-serif" font-size="13" lengthAdjust="spacing" textLength="106.958" x="61.0713" y="236.8135">types request data</text><path d="M10,257.0762 L70.1709,257.0762 L70.1709,266.3672 L60.1709,276.3672 L10,276.3672 L10,257.0762 " fill="#EEEEEE" style="stroke:#000000;stroke-width:1.5;"/><rect fill="none" height="778.9063" style="stroke:#000000;stroke-width:1.5;" width="2059.8027" x="10" y="257.0762"/><text fill="#000000" font-family="sans-serif" font-size="13" font-weight="bold" lengthAdjust="spacing" textLength="15.1709" x="25" y="272.1045">alt</text><a href="facilityType" target="_top" title="facilityType" xlink:actuate="onRequest" xlink:href="facilityType" xlink:show="new" xlink:title="facilityType" xlink:type="simple"><text fill="#0000FF" font-family="sans-serif" font-size="11" font-weight="bold" lengthAdjust="spacing" text-decoration="underline" textLength="77.3062" x="85.1709" y="270.9463">= COMMUNITY</text></a><polygon fill="#181818" points="715.3799,295.6582,725.3799,299.6582,715.3799,303.6582,719.3799,299.6582" style="stroke:#181818;stroke-width:1.0;"/><line style="stroke:#181818;stroke-width:1.0;" x1="364.1094" x2="721.3799" y1="299.6582" y2="299.6582"/><text fill="#000000" font-family="sans-serif" font-size="13" font-weight="bold" lengthAdjust="spacing" textLength="7.23" x="371.1094" y="294.3955">6</text><text fill="#000000" font-family="sans-serif" font-size="13" lengthAdjust="spacing" textLength="106.1963" x="382.3394" y="294.3955">listVaccineTypes()</text><polygon fill="#181818" points="933.5308,326.9492,943.5308,330.9492,933.5308,334.9492,937.5308,330.9492" style="stroke:#181818;stroke-width:1.0;"/><line style="stroke:#181818;stroke-width:1.0;" x1="727.3799" x2="939.5308" y1="330.9492" y2="330.9492"/><text fill="#000000" font-family="sans-serif" font-size="13" font-weight="bold" lengthAdjust="spacing" textLength="7.23" x="734.3799" y="325.6865">7</text><text fill="#000000" font-family="sans-serif" font-size="13" lengthAdjust="spacing" textLength="106.1963" x="745.6099" y="325.6865">listVaccineTypes()</text><polygon fill="#181818" points="1812.1587,358.2402,1822.1587,362.2402,1812.1587,366.2402,1816.1587,362.2402" style="stroke:#181818;stroke-width:1.0;"/><line style="stroke:#181818;stroke-width:1.0;" x1="945.5308" x2="1818.1587" y1="362.2402" y2="362.2402"/><text fill="#000000" font-family="sans-serif" font-size="13" font-weight="bold" lengthAdjust="spacing" textLength="7.23" x="952.5308" y="356.9775">8</text><text fill="#000000" font-family="sans-serif" font-size="13" lengthAdjust="spacing" textLength="164.0171" x="963.7607" y="356.9775">getVaccineTypeRepository()</text><polygon fill="#181818" points="956.5308,389.5313,946.5308,393.5313,956.5308,397.5313,952.5308,393.5313" style="stroke:#181818;stroke-width:1.0;"/><line style="stroke:#181818;stroke-width:1.0;stroke-dasharray:2.0,2.0;" x1="950.5308" x2="1823.1587" y1="393.5313" y2="393.5313"/><text fill="#000000" font-family="sans-serif" font-size="13" font-weight="bold" lengthAdjust="spacing" textLength="7.23" x="962.5308" y="388.2686">9</text><text fill="#000000" font-family="sans-serif" font-size="13" lengthAdjust="spacing" textLength="47.6899" x="973.7607" y="388.2686">VTRepo</text><polygon fill="#181818" points="1966.8789,420.8223,1976.8789,424.8223,1966.8789,428.8223,1970.8789,424.8223" style="stroke:#181818;stroke-width:1.0;"/><line style="stroke:#181818;stroke-width:1.0;" x1="945.5308" x2="1972.8789" y1="424.8223" y2="424.8223"/><text fill="#000000" font-family="sans-serif" font-size="13" font-weight="bold" lengthAdjust="spacing" textLength="14.46" x="952.5308" y="419.5596">10</text><text fill="#000000" font-family="sans-serif" font-size="13" lengthAdjust="spacing" textLength="44.0654" x="970.9907" y="419.5596">findAll()</text><polygon fill="#181818" points="956.5308,452.1133,946.5308,456.1133,956.5308,460.1133,952.5308,456.1133" style="stroke:#181818;stroke-width:1.0;"/><line style="stroke:#181818;stroke-width:1.0;stroke-dasharray:2.0,2.0;" x1="950.5308" x2="1977.8789" y1="456.1133" y2="456.1133"/><text fill="#000000" font-family="sans-serif" font-size="13" font-weight="bold" lengthAdjust="spacing" textLength="14.46" x="962.5308" y="450.8506">11</text><text fill="#000000" font-family="sans-serif" font-size="13" lengthAdjust="spacing" textLength="106.2217" x="980.9907" y="450.8506">list&lt;VaccineType&gt;</text><polygon fill="#181818" points="738.3799,483.4043,728.3799,487.4043,738.3799,491.4043,734.3799,487.4043" style="stroke:#181818;stroke-width:1.0;"/><line style="stroke:#181818;stroke-width:1.0;stroke-dasharray:2.0,2.0;" x1="732.3799" x2="944.5308" y1="487.4043" y2="487.4043"/><text fill="#000000" font-family="sans-serif" font-size="13" font-weight="bold" lengthAdjust="spacing" textLength="14.46" x="744.3799" y="482.1416">12</text><text fill="#000000" font-family="sans-serif" font-size="13" lengthAdjust="spacing" textLength="106.2217" x="762.8398" y="482.1416">list&lt;VaccineType&gt;</text><polygon fill="#181818" points="375.1094,514.6953,365.1094,518.6953,375.1094,522.6953,371.1094,518.6953" style="stroke:#181818;stroke-width:1.0;"/><line style="stroke:#181818;stroke-width:1.0;stroke-dasharray:2.0,2.0;" x1="369.1094" x2="726.3799" y1="518.6953" y2="518.6953"/><text fill="#000000" font-family="sans-serif" font-size="13" font-weight="bold" lengthAdjust="spacing" textLength="14.46" x="381.1094" y="513.4326">13</text><text fill="#000000" font-family="sans-serif" font-size="13" lengthAdjust="spacing" textLength="106.2217" x="399.5693" y="513.4326">list&lt;VaccineType&gt;</text><polygon fill="#181818" points="53.8413,545.9863,43.8413,549.9863,53.8413,553.9863,49.8413,549.9863" style="stroke:#181818;stroke-width:1.0;"/><line style="stroke:#181818;stroke-width:1.0;stroke-dasharray:2.0,2.0;" x1="47.8413" x2="363.1094" y1="549.9863" y2="549.9863"/><text fill="#000000" font-family="sans-serif" font-size="13" font-weight="bold" lengthAdjust="spacing" textLength="14.46" x="59.8413" y="544.7236">14</text><text fill="#000000" font-family="sans-serif" font-size="13" lengthAdjust="spacing" textLength="124.2871" x="78.3013" y="544.7236">asks the vaccine type</text><polygon fill="#181818" points="352.1094,577.2773,362.1094,581.2773,352.1094,585.2773,356.1094,581.2773" style="stroke:#181818;stroke-width:1.0;"/><line style="stroke:#181818;stroke-width:1.0;" x1="42.8413" x2="358.1094" y1="581.2773" y2="581.2773"/><text fill="#000000" font-family="sans-serif" font-size="13" font-weight="bold" lengthAdjust="spacing" textLength="14.46" x="49.8413" y="576.0146">15</text><text fill="#000000" font-family="sans-serif" font-size="13" lengthAdjust="spacing" textLength="127.1753" x="68.3013" y="576.0146">selects a vaccine type</text><polygon fill="#181818" points="53.8413,608.5684,43.8413,612.5684,53.8413,616.5684,49.8413,612.5684" style="stroke:#181818;stroke-width:1.0;"/><line style="stroke:#181818;stroke-width:1.0;stroke-dasharray:2.0,2.0;" x1="47.8413" x2="363.1094" y1="612.5684" y2="612.5684"/><text fill="#000000" font-family="sans-serif" font-size="13" font-weight="bold" lengthAdjust="spacing" textLength="14.46" x="59.8413" y="607.3057">16</text><text fill="#000000" font-family="sans-serif" font-size="13" lengthAdjust="spacing" textLength="169.0825" x="78.3013" y="607.3057">show all data for confirmation</text><polygon fill="#181818" points="352.1094,639.8594,362.1094,643.8594,352.1094,647.8594,356.1094,643.8594" style="stroke:#181818;stroke-width:1.0;"/><line style="stroke:#181818;stroke-width:1.0;" x1="42.8413" x2="358.1094" y1="643.8594" y2="643.8594"/><text fill="#000000" font-family="sans-serif" font-size="13" font-weight="bold" lengthAdjust="spacing" textLength="14.46" x="49.8413" y="638.5967">17</text><text fill="#000000" font-family="sans-serif" font-size="13" lengthAdjust="spacing" textLength="99.7153" x="68.3013" y="638.5967">confirms the data</text><polygon fill="#181818" points="715.3799,671.1504,725.3799,675.1504,715.3799,679.1504,719.3799,675.1504" style="stroke:#181818;stroke-width:1.0;"/><line style="stroke:#181818;stroke-width:1.0;" x1="364.1094" x2="721.3799" y1="675.1504" y2="675.1504"/><text fill="#000000" font-family="sans-serif" font-size="13" font-weight="bold" lengthAdjust="spacing" textLength="14.46" x="371.1094" y="669.8877">18</text><text fill="#000000" font-family="sans-serif" font-size="13" lengthAdjust="spacing" textLength="320.8105" x="389.5693" y="669.8877">registerVaccinationCenter(dto : VaccinationCenterDTO)</text><polygon fill="#181818" points="933.5308,702.4414,943.5308,706.4414,933.5308,710.4414,937.5308,706.4414" style="stroke:#181818;stroke-width:1.0;"/><line style="stroke:#181818;stroke-width:1.0;" x1="727.3799" x2="939.5308" y1="706.4414" y2="706.4414"/><text fill="#000000" font-family="sans-serif" font-size="13" font-weight="bold" lengthAdjust="spacing" textLength="14.46" x="734.3799" y="701.1787">19</text><text fill="#000000" font-family="sans-serif" font-size="13" lengthAdjust="spacing" textLength="109.0972" x="752.8398" y="701.1787">registerCenter(dto)</text><polygon fill="#181818" points="1812.1587,733.7324,1822.1587,737.7324,1812.1587,741.7324,1816.1587,737.7324" style="stroke:#181818;stroke-width:1.0;"/><line style="stroke:#181818;stroke-width:1.0;" x1="945.5308" x2="1818.1587" y1="737.7324" y2="737.7324"/><text fill="#000000" font-family="sans-serif" font-size="13" font-weight="bold" lengthAdjust="spacing" textLength="14.46" x="952.5308" y="732.4697">20</text><text fill="#000000" font-family="sans-serif" font-size="13" lengthAdjust="spacing" textLength="195.0952" x="970.9907" y="732.4697">getVaccinationCenterRepository()</text><polygon fill="#181818" points="956.5308,765.0234,946.5308,769.0234,956.5308,773.0234,952.5308,769.0234" style="stroke:#181818;stroke-width:1.0;"/><line style="stroke:#181818;stroke-width:1.0;stroke-dasharray:2.0,2.0;" x1="950.5308" x2="1823.1587" y1="769.0234" y2="769.0234"/><text fill="#000000" font-family="sans-serif" font-size="13" font-weight="bold" lengthAdjust="spacing" textLength="14.46" x="962.5308" y="763.7607">21</text><text fill="#000000" font-family="sans-serif" font-size="13" lengthAdjust="spacing" textLength="49.1372" x="980.9907" y="763.7607">VCRepo</text><line style="stroke:#000000;stroke-width:1.0;stroke-dasharray:2.0,2.0;" x1="10" x2="2069.8027" y1="778.0234" y2="778.0234"/><a href="facilityType" target="_top" title="facilityType" xlink:actuate="onRequest" xlink:href="facilityType" xlink:show="new" xlink:title="facilityType" xlink:type="simple"><text fill="#0000FF" font-family="sans-serif" font-size="11" font-weight="bold" lengthAdjust="spacing" text-decoration="underline" textLength="85.2554" x="15" y="789.8936">= HEALTHCARE</text></a><path d="M369,798.6543 L369,842.6543 L546,842.6543 L546,808.6543 L536,798.6543 L369,798.6543 " fill="#FEFFDD" style="stroke:#181818;stroke-width:0.5;"/><path d="M536,798.6543 L536,808.6543 L546,808.6543 L536,798.6543 " fill="#FEFFDD" style="stroke:#181818;stroke-width:0.5;"/><text fill="#000000" font-family="sans-serif" font-size="13" lengthAdjust="spacing" textLength="156.7998" x="375" y="817.6826">No vaccine type is required</text><text fill="#000000" font-family="sans-serif" font-size="13" lengthAdjust="spacing" textLength="131.5044" x="375" y="834.9736">for Healthcare centers.</text><polygon fill="#181818" points="53.8413,867.5273,43.8413,871.5273,53.8413,875.5273,49.8413,871.5273" style="stroke:#181818;stroke-width:1.0;"/><line style="stroke:#181818;stroke-width:1.0;stroke-dasharray:2.0,2.0;" x1="47.8413" x2="363.1094" y1="871.5273" y2="871.5273"/><text fill="#000000" font-family="sans-serif" font-size="13" font-weight="bold" lengthAdjust="spacing" textLength="14.46" x="59.8413" y="866.2646">22</text><text fill="#000000" font-family="sans-serif" font-size="13" lengthAdjust="spacing" textLength="169.0825" x="78.3013" y="866.2646">show all data for confirmation</text><polygon fill="#181818" points="352.1094,898.8184,362.1094,902.8184,352.1094,906.8184,356.1094,902.8184" style="stroke:#181818;stroke-width:1.0;"/><line style="stroke:#181818;stroke-width:1.0;" x1="42.8413" x2="358.1094" y1="902.8184" y2="902.8184"/><text fill="#000000" font-family="sans-serif" font-size="13" font-weight="bold" lengthAdjust="spacing" textLength="14.46" x="49.8413" y="897.5557">23</text><text fill="#000000" font-family="sans-serif" font-size="13" lengthAdjust="spacing" textLength="99.7153" x="68.3013" y="897.5557">confirms the data</text><polygon fill="#181818" points="715.3799,930.1094,725.3799,934.1094,715.3799,938.1094,719.3799,934.1094" style="stroke:#181818;stroke-width:1.0;"/><line style="stroke:#181818;stroke-width:1.0;" x1="364.1094" x2="721.3799" y1="934.1094" y2="934.1094"/><text fill="#000000" font-family="sans-serif" font-size="13" font-weight="bold" lengthAdjust="spacing" textLength="14.46" x="371.1094" y="928.8467">24</text><text fill="#000000" font-family="sans-serif" font-size="13" lengthAdjust="spacing" textLength="320.8105" x="389.5693" y="928.8467">registerVaccinationCenter(dto : VaccinationCenterDTO)</text><polygon fill="#181818" points="933.5308,961.4004,943.5308,965.4004,933.5308,969.4004,937.5308,965.4004" style="stroke:#181818;stroke-width:1.0;"/><line style="stroke:#181818;stroke-width:1.0;" x1="727.3799" x2="939.5308" y1="965.4004" y2="965.4004"/><text fill="#000000" font-family="sans-serif" font-size="13" font-weight="bold" lengthAdjust="spacing" textLength="14.46" x="734.3799" y="960.1377">25</text><text fill="#000000" font-family="sans-serif" font-size="13" lengthAdjust="spacing" textLength="109.0972" x="752.8398" y="960.1377">registerCenter(dto)</text><polygon fill="#181818" points="1812.1587,992.6914,1822.1587,996.6914,1812.1587,1000.6914,1816.1587,996.6914" style="stroke:#181818;stroke-width:1.0;"/><line style="stroke:#181818;stroke-width:1.0;" x1="945.5308" x2="1818.1587" y1="996.6914" y2="996.6914"/><text fill="#000000" font-family="sans-serif" font-size="13" font-weight="bold" lengthAdjust="spacing" textLength="14.46" x="952.5308" y="991.4287">26</text><text fill="#000000" font-family="sans-serif" font-size="13" lengthAdjust="spacing" textLength="195.0952" x="970.9907" y="991.4287">getVaccinationCenterRepository()</text><polygon fill="#181818" points="956.5308,1023.9824,946.5308,1027.9824,956.5308,1031.9824,952.5308,1027.9824" style="stroke:#181818;stroke-width:1.0;"/><line style="stroke:#181818;stroke-width:1.0;stroke-dasharray:2.0,2.0;" x1="950.5308" x2="1823.1587" y1="1027.9824" y2="1027.9824"/><text fill="#000000" font-family="sans-serif" font-size="13" font-weight="bold" lengthAdjust="spacing" textLength="14.46" x="962.5308" y="1022.7197">27</text><text fill="#000000" font-family="sans-serif" font-size="13" lengthAdjust="spacing" textLength="49.1372" x="980.9907" y="1022.7197">VCRepo</text><path d="M847.9897,1049.9824 L908.1606,1049.9824 L908.1606,1059.2734 L898.1606,1069.2734 L847.9897,1069.2734 L847.9897,1049.9824 " fill="#EEEEEE" style="stroke:#000000;stroke-width:1.5;"/><rect fill="none" height="569.1602" style="stroke:#000000;stroke-width:1.5;" width="1834.6382" x="847.9897" y="1049.9824"/><text fill="#000000" font-family="sans-serif" font-size="13" font-weight="bold" lengthAdjust="spacing" textLength="15.1709" x="862.9897" y="1065.0107">alt</text><a href="dto.facilityType" target="_top" title="dto.facilityType" xlink:actuate="onRequest" xlink:href="dto.facilityType" xlink:show="new" xlink:title="dto.facilityType" xlink:type="simple"><text fill="#0000FF" font-family="sans-serif" font-size="11" font-weight="bold" lengthAdjust="spacing" text-decoration="underline" textLength="91.6792" x="923.1606" y="1063.8525">== HEALTHCARE</text></a><line style="stroke:#181818;stroke-width:1.0;" x1="945.5308" x2="987.5308" y1="1109.8555" y2="1109.8555"/><line style="stroke:#181818;stroke-width:1.0;" x1="987.5308" x2="987.5308" y1="1109.8555" y2="1122.8555"/><line style="stroke:#181818;stroke-width:1.0;" x1="946.5308" x2="987.5308" y1="1122.8555" y2="1122.8555"/><polygon fill="#181818" points="956.5308,1118.8555,946.5308,1122.8555,956.5308,1126.8555,952.5308,1122.8555" style="stroke:#181818;stroke-width:1.0;"/><text fill="#000000" font-family="sans-serif" font-size="13" font-weight="bold" lengthAdjust="spacing" textLength="14.46" x="952.5308" y="1095.9473">28</text><text fill="#000000" font-family="sans-serif" font-size="13" lengthAdjust="spacing" textLength="148.8589" x="970.9907" y="1087.3018">create Healthcare_Center</text><text fill="#000000" font-family="sans-serif" font-size="13" lengthAdjust="spacing" textLength="846.168" x="970.9907" y="1104.5928">(string name, string address, string phone_number, string website_adress, string opening_hours, string closing_hours, int max_vaccines_per_hour)</text><polygon fill="#181818" points="2263.1191,1167.4375,2273.1191,1171.4375,2263.1191,1175.4375,2267.1191,1171.4375" style="stroke:#181818;stroke-width:1.0;"/><line style="stroke:#181818;stroke-width:1.0;stroke-dasharray:2.0,2.0;" x1="945.5308" x2="2269.1191" y1="1171.4375" y2="1171.4375"/><text fill="#000000" font-family="sans-serif" font-size="13" font-weight="bold" lengthAdjust="spacing" textLength="14.46" x="952.5308" y="1157.5293">29</text><text fill="#000000" font-family="sans-serif" font-size="13" lengthAdjust="spacing" textLength="148.8589" x="970.9907" y="1148.8838">create Healthcare_Center</text><text fill="#000000" font-family="sans-serif" font-size="13" lengthAdjust="spacing" textLength="846.168" x="970.9907" y="1166.1748">(string name, string address, string phone_number, string website_adress, string opening_hours, string closing_hours, int max_vaccines_per_hour)</text><rect fill="#E2E2F0" height="32.6211" rx="2.5" ry="2.5" style="stroke:#181818;stroke-width:0.5;" width="131.5098" x="2275.1191" y="1135.8164"/><text fill="#000000" font-family="sans-serif" font-size="14" lengthAdjust="spacing" textLength="117.5098" x="2282.1191" y="1157.9238">Healthcare_Center</text><polygon fill="#181818" points="956.5308,1198.7285,946.5308,1202.7285,956.5308,1206.7285,952.5308,1202.7285" style="stroke:#181818;stroke-width:1.0;"/><line style="stroke:#181818;stroke-width:1.0;stroke-dasharray:2.0,2.0;" x1="950.5308" x2="2339.874" y1="1202.7285" y2="1202.7285"/><text fill="#000000" font-family="sans-serif" font-size="13" font-weight="bold" lengthAdjust="spacing" textLength="14.46" x="962.5308" y="1197.4658">30</text><text fill="#000000" font-family="sans-serif" font-size="13" lengthAdjust="spacing" textLength="109.1162" x="980.9907" y="1197.4658">Healthcare_Center</text><polygon fill="#181818" points="2155.4609,1230.0195,2165.4609,1234.0195,2155.4609,1238.0195,2159.4609,1234.0195" style="stroke:#181818;stroke-width:1.0;"/><line style="stroke:#181818;stroke-width:1.0;" x1="945.5308" x2="2161.4609" y1="1234.0195" y2="1234.0195"/><text fill="#000000" font-family="sans-serif" font-size="13" font-weight="bold" lengthAdjust="spacing" textLength="14.46" x="952.5308" y="1228.7568">31</text><text fill="#000000" font-family="sans-serif" font-size="13" lengthAdjust="spacing" textLength="138.0044" x="970.9907" y="1228.7568">save(HealthcareCenter)</text><polygon fill="#181818" points="956.5308,1261.3105,946.5308,1265.3105,956.5308,1269.3105,952.5308,1265.3105" style="stroke:#181818;stroke-width:1.0;"/><line style="stroke:#181818;stroke-width:1.0;stroke-dasharray:2.0,2.0;" x1="950.5308" x2="2166.4609" y1="1265.3105" y2="1265.3105"/><text fill="#000000" font-family="sans-serif" font-size="13" font-weight="bold" lengthAdjust="spacing" textLength="14.46" x="962.5308" y="1260.0479">32</text><text fill="#000000" font-family="sans-serif" font-size="13" lengthAdjust="spacing" textLength="36.8481" x="980.9907" y="1260.0479">Result</text><line style="stroke:#000000;stroke-width:1.0;stroke-dasharray:2.0,2.0;" x1="847.9897" x2="2682.6279" y1="1274.3105" y2="1274.3105"/><a href="dto.facilityType" target="_top" title="dto.facilityType" xlink:actuate="onRequest" xlink:href="dto.facilityType" xlink:show="new" xlink:title="dto.facilityType" xlink:type="simple"><text fill="#0000FF" font-family="sans-serif" font-size="11" font-weight="bold" lengthAdjust="spacing" text-decoration="underline" textLength="83.73" x="852.9897" y="1286.1807">== COMMUNITY</text></a><polygon fill="#181818" points="1812.1587,1309.2324,1822.1587,1313.2324,1812.1587,1317.2324,1816.1587,1313.2324" style="stroke:#181818;stroke-width:1.0;"/><line style="stroke:#181818;stroke-width:1.0;" x1="945.5308" x2="1818.1587" y1="1313.2324" y2="1313.2324"/><text fill="#000000" font-family="sans-serif" font-size="13" font-weight="bold" lengthAdjust="spacing" textLength="14.46" x="952.5308" y="1307.9697">33</text><text fill="#000000" font-family="sans-serif" font-size="13" lengthAdjust="spacing" textLength="164.0171" x="970.9907" y="1307.9697">getVaccineTypeRepository()</text><polygon fill="#181818" points="956.5308,1340.5234,946.5308,1344.5234,956.5308,1348.5234,952.5308,1344.5234" style="stroke:#181818;stroke-width:1.0;"/><line style="stroke:#181818;stroke-width:1.0;stroke-dasharray:2.0,2.0;" x1="950.5308" x2="1823.1587" y1="1344.5234" y2="1344.5234"/><text fill="#000000" font-family="sans-serif" font-size="13" font-weight="bold" lengthAdjust="spacing" textLength="14.46" x="962.5308" y="1339.2607">34</text><text fill="#000000" font-family="sans-serif" font-size="13" lengthAdjust="spacing" textLength="47.6899" x="980.9907" y="1339.2607">VTRepo</text><polygon fill="#181818" points="1966.8789,1371.8145,1976.8789,1375.8145,1966.8789,1379.8145,1970.8789,1375.8145" style="stroke:#181818;stroke-width:1.0;"/><line style="stroke:#181818;stroke-width:1.0;" x1="945.5308" x2="1972.8789" y1="1375.8145" y2="1375.8145"/><text fill="#000000" font-family="sans-serif" font-size="13" font-weight="bold" lengthAdjust="spacing" textLength="14.46" x="952.5308" y="1370.5518">35</text><text fill="#000000" font-family="sans-serif" font-size="13" lengthAdjust="spacing" textLength="201.6079" x="970.9907" y="1370.5518">findByCode(dto.vaccineTypeCode)</text><polygon fill="#181818" points="956.5308,1403.1055,946.5308,1407.1055,956.5308,1411.1055,952.5308,1407.1055" style="stroke:#181818;stroke-width:1.0;"/><line style="stroke:#181818;stroke-width:1.0;stroke-dasharray:2.0,2.0;" x1="950.5308" x2="1977.8789" y1="1407.1055" y2="1407.1055"/><text fill="#000000" font-family="sans-serif" font-size="13" font-weight="bold" lengthAdjust="spacing" textLength="14.46" x="962.5308" y="1401.8428">36</text><text fill="#000000" font-family="sans-serif" font-size="13" lengthAdjust="spacing" textLength="75.1499" x="980.9907" y="1401.8428">VaccineType</text><line style="stroke:#181818;stroke-width:1.0;" x1="945.5308" x2="987.5308" y1="1455.6875" y2="1455.6875"/><line style="stroke:#181818;stroke-width:1.0;" x1="987.5308" x2="987.5308" y1="1455.6875" y2="1468.6875"/><line style="stroke:#181818;stroke-width:1.0;" x1="946.5308" x2="987.5308" y1="1468.6875" y2="1468.6875"/><polygon fill="#181818" points="956.5308,1464.6875,946.5308,1468.6875,956.5308,1472.6875,952.5308,1468.6875" style="stroke:#181818;stroke-width:1.0;"/><text fill="#000000" font-family="sans-serif" font-size="13" font-weight="bold" lengthAdjust="spacing" textLength="14.46" x="952.5308" y="1441.7793">37</text><text fill="#000000" font-family="sans-serif" font-size="13" lengthAdjust="spacing" textLength="264.4561" x="970.9907" y="1433.1338">create Community_Mass_Vaccination_Center</text><text fill="#000000" font-family="sans-serif" font-size="13" lengthAdjust="spacing" textLength="138.7153" x="970.9907" y="1450.4248">(from dto, VaccineType)</text><polygon fill="#181818" points="2404.6289,1513.2695,2414.6289,1517.2695,2404.6289,1521.2695,2408.6289,1517.2695" style="stroke:#181818;stroke-width:1.0;"/><line style="stroke:#181818;stroke-width:1.0;stroke-dasharray:2.0,2.0;" x1="945.5308" x2="2410.6289" y1="1517.2695" y2="1517.2695"/><text fill="#000000" font-family="sans-serif" font-size="13" font-weight="bold" lengthAdjust="spacing" textLength="14.46" x="952.5308" y="1503.3613">38</text><text fill="#000000" font-family="sans-serif" font-size="13" lengthAdjust="spacing" textLength="148.8589" x="970.9907" y="1494.7158">create Healthcare_Center</text><text fill="#000000" font-family="sans-serif" font-size="13" lengthAdjust="spacing" textLength="846.168" x="970.9907" y="1512.0068">(string name, string address, string phone_number, string website_adress, string opening_hours, string closing_hours, int max_vaccines_per_hour)</text><rect fill="#E2E2F0" height="32.6211" rx="2.5" ry="2.5" style="stroke:#181818;stroke-width:0.5;" width="255.999" x="2416.6289" y="1481.6484"/><text fill="#000000" font-family="sans-serif" font-size="14" lengthAdjust="spacing" textLength="241.999" x="2423.6289" y="1503.7559">Community_Mass_Vaccination_Center</text><polygon fill="#181818" points="956.5308,1544.5605,946.5308,1548.5605,956.5308,1552.5605,952.5308,1548.5605" style="stroke:#181818;stroke-width:1.0;"/><line style="stroke:#181818;stroke-width:1.0;stroke-dasharray:2.0,2.0;" x1="950.5308" x2="2543.6284" y1="1548.5605" y2="1548.5605"/><text fill="#000000" font-family="sans-serif" font-size="13" font-weight="bold" lengthAdjust="spacing" textLength="14.46" x="962.5308" y="1543.2979">39</text><text fill="#000000" font-family="sans-serif" font-size="13" lengthAdjust="spacing" textLength="224.7134" x="980.9907" y="1543.2979">Community_Mass_Vaccination_Center</text><polygon fill="#181818" points="2155.4609,1575.8516,2165.4609,1579.8516,2155.4609,1583.8516,2159.4609,1579.8516" style="stroke:#181818;stroke-width:1.0;"/><line style="stroke:#181818;stroke-width:1.0;" x1="945.5308" x2="2161.4609" y1="1579.8516" y2="1579.8516"/><text fill="#000000" font-family="sans-serif" font-size="13" font-weight="bold" lengthAdjust="spacing" textLength="14.46" x="952.5308" y="1574.5889">40</text><text fill="#000000" font-family="sans-serif" font-size="13" lengthAdjust="spacing" textLength="260.8315" x="970.9907" y="1574.5889">save(Community_Mass_Vaccination_Center)</text><polygon fill="#181818" points="956.5308,1607.1426,946.5308,1611.1426,956.5308,1615.1426,952.5308,1611.1426" style="stroke:#181818;stroke-width:1.0;"/><line style="stroke:#181818;stroke-width:1.0;stroke-dasharray:2.0,2.0;" x1="950.5308" x2="2166.4609" y1="1611.1426" y2="1611.1426"/><text fill="#000000" font-family="sans-serif" font-size="13" font-weight="bold" lengthAdjust="spacing" textLength="14.46" x="962.5308" y="1605.8799">41</text><text fill="#000000" font-family="sans-serif" font-size="13" lengthAdjust="spacing" textLength="36.8481" x="980.9907" y="1605.8799">Result</text><polygon fill="#181818" points="738.3799,1645.4336,728.3799,1649.4336,738.3799,1653.4336,734.3799,1649.4336" style="stroke:#181818;stroke-width:1.0;"/><line style="stroke:#181818;stroke-width:1.0;stroke-dasharray:2.0,2.0;" x1="732.3799" x2="944.5308" y1="1649.4336" y2="1649.4336"/><text fill="#000000" font-family="sans-serif" font-size="13" font-weight="bold" lengthAdjust="spacing" textLength="14.46" x="744.3799" y="1644.1709">42</text><text fill="#000000" font-family="sans-serif" font-size="13" lengthAdjust="spacing" textLength="36.8481" x="762.8398" y="1644.1709">Result</text><polygon fill="#181818" points="375.1094,1676.7246,365.1094,1680.7246,375.1094,1684.7246,371.1094,1680.7246" style="stroke:#181818;stroke-width:1.0;"/><line style="stroke:#181818;stroke-width:1.0;stroke-dasharray:2.0,2.0;" x1="369.1094" x2="726.3799" y1="1680.7246" y2="1680.7246"/><text fill="#000000" font-family="sans-serif" font-size="13" font-weight="bold" lengthAdjust="spacing" textLength="14.46" x="381.1094" y="1675.4619">43</text><text fill="#000000" font-family="sans-serif" font-size="13" lengthAdjust="spacing" textLength="36.8481" x="399.5693" y="1675.4619">Result</text><polygon fill="#181818" points="53.8413,1708.0156,43.8413,1712.0156,53.8413,1716.0156,49.8413,1712.0156" style="stroke:#181818;stroke-width:1.0;"/><line style="stroke:#181818;stroke-width:1.0;stroke-dasharray:2.0,2.0;" x1="47.8413" x2="363.1094" y1="1712.0156" y2="1712.0156"/><text fill="#000000" font-family="sans-serif" font-size="13" font-weight="bold" lengthAdjust="spacing" textLength="14.46" x="59.8413" y="1706.7529">44</text><text fill="#000000" font-family="sans-serif" font-size="13" lengthAdjust="spacing" textLength="202.3315" x="78.3013" y="1706.7529">informs the sucess of the operation</text><!--SRC=[xLPBRzD04BxxLymngTfoZw1IC4L5egrK0X8gbRMr9yaAUzVihbFoxvbznFR6JbCkI9N8nTdnD-zlPymQ8qLJFQ9AM6waWdbHSP4aDLE6vxncmi0ThhWsgBwnFEU26Iv5Yi8AE3u1qs2VBzD8fJ1AbYKggzUT8ks1rXTK6vwZLGb_zxpLKdCAVllHvR2rG2iCnn7ZkDZMsEcv91Rs_7mWUnhfGECAMMdMELEOUGsBwuGHDfLLrGXkjjarqphhEUlfjg0aSPs1imjNxXae_DMWDXgCfF- -ti10K4iC9GTo2KkMyzBgkaQTaQgpCIF3FqblZIt2gGnSQ2mnDot8rWmcLvVppukhT7vt-IQzlRx-UlDfyNqwy12YWu8PDh1hdUaz29K8xYDFxw2r_v0a0Dx5HOyrCoWfxLv7zMHAm1x921uOCueby8vRXEnHPWOhDADKSHvwI9TqwoEGABRhXJDOSb7Coz9PyB9OsGRujkVq8h8padaCZXDlYprgzI0XDXxe-G0mIWXDD8jm8mRrMj9eA4lNNLZIOCcbM79LEO8FBOUtFWZFYF6EgqEZPLBGHPWDx-o7nUqpfDYPwsoyZ1MZG-48D_ouIB3KEA1wTwiUo8QG1a7nrThOQ-p6Az3lHaPr1-ul4LTOkFUspDsmWTo5fy_f7Oh26VtVgR_fL49b2vE9t9t7BOjx5aVIMieLCchbO2ty41Dj51Sh4Ap2KmW7LXGAjMxFzLeApFn-ReLF-4X9OCPYhAnHq3DRoqPrqhoaZ3iffxrJiTzPe97EQbJktNHlr7GHdvoyiZHwDo3gwY3wlIcT-YcjsGOd7TP3tSXEXoFx3dLJcjsT7YD9lCF-yRPvlqrbWVQkd6ywyrPsQ0VreZZ2wQEVBqIEfP8LaFVJljsfcrNnNWkcNXtNe8izAkFHuZp3lQEwHybefzQXxuO06lrK2E_sDmGNj1N2mDTDJXMqMycUg83Ahuda3m00]--></g></svg>