<svg xmlns="http://www.w3.org/2000/svg" xmlns:xlink="http://www.w3.org/1999/xlink" contentStyleType="text/css" height="542px" preserveAspectRatio="none" style="width:1049px;height:542px;background:#FFFFFF;" version="1.1" viewBox="0 0 1049 542" width="1049px" zoomAndPan="magnify"><defs/><g><!--class ListVaccinesView--><g id="elem_ListVaccinesView"><rect codeLine="5" fill="#F1F1F1" height="44.6211" id="ListVaccinesView" rx="2.5" ry="2.5" style="stroke:#181818;stroke-width:0.5;" width="114.9375" x="792.5" y="7"/><text fill="#000000" font-family="sans-serif" font-size="14" lengthAdjust="spacing" textLength="108.9375" x="795.5" y="27.1074">ListVaccinesView</text><line style="stroke:#181818;stroke-width:0.5;" x1="793.5" x2="906.4375" y1="35.6211" y2="35.6211"/><line style="stroke:#181818;stroke-width:0.5;" x1="793.5" x2="906.4375" y1="43.6211" y2="43.6211"/></g><!--class ListVaccinesController--><g id="elem_ListVaccinesController"><rect codeLine="8" fill="#F1F1F1" height="63.2422" id="ListVaccinesController" rx="2.5" ry="2.5" style="stroke:#181818;stroke-width:0.5;" width="244.251" x="728" y="113"/><text fill="#000000" font-family="sans-serif" font-size="14" lengthAdjust="spacing" textLength="139.2822" x="780.4844" y="133.1074">ListVaccinesController</text><line style="stroke:#181818;stroke-width:0.5;" x1="729" x2="971.251" y1="141.6211" y2="141.6211"/><line style="stroke:#181818;stroke-width:0.5;" x1="729" x2="971.251" y1="149.6211" y2="149.6211"/><text fill="#000000" font-family="sans-serif" font-size="14" lengthAdjust="spacing" textLength="232.251" x="734" y="168.7285">+listAllVaccines(): List&lt;VaccineDTO&gt;</text></g><!--class Application--><g id="elem_Application"><rect codeLine="12" fill="#F1F1F1" height="63.2422" id="Application" rx="2.5" ry="2.5" style="stroke:#181818;stroke-width:0.5;" width="249.7197" x="7" y="255.5"/><text fill="#000000" font-family="sans-serif" font-size="14" lengthAdjust="spacing" textLength="68.4893" x="97.6152" y="275.6074">Application</text><line style="stroke:#181818;stroke-width:0.5;" x1="8" x2="255.7197" y1="284.1211" y2="284.1211"/><line style="stroke:#181818;stroke-width:0.5;" x1="8" x2="255.7197" y1="292.1211" y2="292.1211"/><text fill="#000000" font-family="sans-serif" font-size="14" lengthAdjust="spacing" textLength="237.7197" x="13" y="311.2285">+getVaccineService(): VaccineService</text></g><!--class VaccineService--><g id="elem_VaccineService"><rect codeLine="16" fill="#F1F1F1" height="100.4844" id="VaccineService" rx="2.5" ry="2.5" style="stroke:#181818;stroke-width:0.5;" width="353.2363" x="332.5" y="237"/><text fill="#000000" font-family="sans-serif" font-size="14" lengthAdjust="spacing" textLength="96.4893" x="460.8735" y="257.1074">VaccineService</text><line style="stroke:#181818;stroke-width:0.5;" x1="333.5" x2="684.7363" y1="265.6211" y2="265.6211"/><line style="stroke:#181818;stroke-width:0.5;" x1="333.5" x2="684.7363" y1="273.6211" y2="273.6211"/><text fill="#000000" font-family="sans-serif" font-size="14" lengthAdjust="spacing" textLength="262.623" x="338.5" y="292.7285">+VaccineService(VaccineRepository repo)</text><text fill="#000000" font-family="sans-serif" font-size="14" lengthAdjust="spacing" textLength="205.0508" x="338.5" y="311.3496">+getAllVaccines(): List&lt;Vaccine&gt;</text><text fill="#000000" font-family="sans-serif" font-size="14" lengthAdjust="spacing" textLength="341.2363" x="338.5" y="329.9707">+sortByTypeThenBrand(List&lt;Vaccine&gt;): List&lt;Vaccine&gt;</text></g><!--class VaccineRepository--><g id="elem_VaccineRepository"><rect codeLine="22" fill="#F1F1F1" height="79.2031" id="VaccineRepository" rx="2.5" ry="2.5" style="stroke:#181818;stroke-width:0.5;" width="163.3545" x="383.5" y="436"/><text fill="#000000" font-family="sans-serif" font-size="12" font-style="italic" lengthAdjust="spacing" textLength="59.373" x="435.4907" y="453.9492">&#171;interface&#187;</text><text fill="#000000" font-family="sans-serif" font-size="14" font-style="italic" lengthAdjust="spacing" textLength="116.7236" x="406.8154" y="472.0684">VaccineRepository</text><line style="stroke:#181818;stroke-width:0.5;" x1="384.5" x2="545.8545" y1="480.582" y2="480.582"/><line style="stroke:#181818;stroke-width:0.5;" x1="384.5" x2="545.8545" y1="488.582" y2="488.582"/><text fill="#000000" font-family="sans-serif" font-size="14" lengthAdjust="spacing" textLength="151.3545" x="389.5" y="507.6895">+findAll(): List&lt;Vaccine&gt;</text></g><!--class RepositoryFactory--><g id="elem_RepositoryFactory"><rect codeLine="26" fill="#F1F1F1" height="79.2031" id="RepositoryFactory" rx="2.5" ry="2.5" style="stroke:#181818;stroke-width:0.5;" width="290.1885" x="49" y="436"/><text fill="#000000" font-family="sans-serif" font-size="12" font-style="italic" lengthAdjust="spacing" textLength="59.373" x="164.4077" y="453.9492">&#171;interface&#187;</text><text fill="#000000" font-family="sans-serif" font-size="14" font-style="italic" lengthAdjust="spacing" textLength="113.5928" x="137.2979" y="472.0684">RepositoryFactory</text><line style="stroke:#181818;stroke-width:0.5;" x1="50" x2="338.1885" y1="480.582" y2="480.582"/><line style="stroke:#181818;stroke-width:0.5;" x1="50" x2="338.1885" y1="488.582" y2="488.582"/><text fill="#000000" font-family="sans-serif" font-size="14" lengthAdjust="spacing" textLength="278.1885" x="55" y="507.6895">+getVaccineRepository(): VaccineRepository</text></g><!--class VaccineMapper--><g id="elem_VaccineMapper"><rect codeLine="30" fill="#F1F1F1" height="63.2422" id="VaccineMapper" rx="2.5" ry="2.5" style="stroke:#181818;stroke-width:0.5;" width="259.0303" x="720.5" y="255.5"/><text fill="#000000" font-family="sans-serif" font-size="14" lengthAdjust="spacing" textLength="97.2754" x="801.3774" y="275.6074">VaccineMapper</text><line style="stroke:#181818;stroke-width:0.5;" x1="721.5" x2="978.5303" y1="284.1211" y2="284.1211"/><line style="stroke:#181818;stroke-width:0.5;" x1="721.5" x2="978.5303" y1="292.1211" y2="292.1211"/><text fill="#000000" font-family="sans-serif" font-size="14" lengthAdjust="spacing" textLength="247.0303" x="726.5" y="311.2285">+toDTO(Vaccine vaccine): VaccineDTO</text></g><!--class Vaccine--><g id="elem_Vaccine"><rect codeLine="34" fill="#F1F1F1" height="100.4844" id="Vaccine" rx="2.5" ry="2.5" style="stroke:#181818;stroke-width:0.5;" width="131.0342" x="626.5" y="425.5"/><text fill="#000000" font-family="sans-serif" font-size="14" lengthAdjust="spacing" textLength="49.8066" x="667.1138" y="445.6074">Vaccine</text><line style="stroke:#181818;stroke-width:0.5;" x1="627.5" x2="756.5342" y1="454.1211" y2="454.1211"/><text fill="#000000" font-family="sans-serif" font-size="14" lengthAdjust="spacing" textLength="119.0342" x="632.5" y="473.2285">-commercial_name</text><text fill="#000000" font-family="sans-serif" font-size="14" lengthAdjust="spacing" textLength="40.4688" x="632.5" y="491.8496">-brand</text><text fill="#000000" font-family="sans-serif" font-size="14" lengthAdjust="spacing" textLength="72.3789" x="632.5" y="510.4707">-technology</text><line style="stroke:#181818;stroke-width:0.5;" x1="627.5" x2="756.5342" y1="517.9844" y2="517.9844"/></g><!--class VaccineDTO--><g id="elem_VaccineDTO"><rect codeLine="40" fill="#F1F1F1" height="119.1055" id="VaccineDTO" rx="2.5" ry="2.5" style="stroke:#181818;stroke-width:0.5;" width="131.0342" x="911.5" y="416"/><text fill="#000000" font-family="sans-serif" font-size="14" lengthAdjust="spacing" textLength="79.3584" x="937.3379" y="436.1074">VaccineDTO</text><line style="stroke:#181818;stroke-width:0.5;" x1="912.5" x2="1041.5342" y1="444.6211" y2="444.6211"/><text fill="#000000" font-family="sans-serif" font-size="14" lengthAdjust="spacing" textLength="119.0342" x="917.5" y="463.7285">-commercial_name</text><text fill="#000000" font-family="sans-serif" font-size="14" lengthAdjust="spacing" textLength="40.4688" x="917.5" y="482.3496">-brand</text><text fill="#000000" font-family="sans-serif" font-size="14" lengthAdjust="spacing" textLength="72.3789" x="917.5" y="500.9707">-technology</text><text fill="#000000" font-family="sans-serif" font-size="14" lengthAdjust="spacing" textLength="31.124" x="917.5" y="519.5918">-type</text><line style="stroke:#181818;stroke-width:0.5;" x1="912.5" x2="1041.5342" y1="527.1055" y2="527.1055"/></g><!--link ListVaccinesView to ListVaccinesController--><g id="link_ListVaccinesView_ListVaccinesController"><path codeLine="47" d="M850,52.02 C850,69.18 850,87.44 850,106.67 " fill="none" id="ListVaccinesView-to-ListVaccinesController" style="stroke:#181818;stroke-width:1.0;stroke-dasharray:7.0,7.0;"/><polygon fill="#181818" points="850,112.67,854,103.67,850,107.67,846,103.67,850,112.67" style="stroke:#181818;stroke-width:1.0;"/></g><!--link ListVaccinesController to Application--><g id="link_ListVaccinesController_Application"><path codeLine="48" d="M727.74,163.13 C618.89,179.6 455.61,206.22 315,237 C290.42,242.38 269.9907,247.3865 245.2907,253.9165 " fill="none" id="ListVaccinesController-to-Application" style="stroke:#181818;stroke-width:1.0;stroke-dasharray:7.0,7.0;"/><polygon fill="#181818" points="239.49,255.45,249.2134,257.0168,244.3239,254.172,247.1687,249.2825,239.49,255.45" style="stroke:#181818;stroke-width:1.0;"/></g><!--link ListVaccinesController to VaccineMapper--><g id="link_ListVaccinesController_VaccineMapper"><path codeLine="49" d="M850,176.33 C850,199.76 850,225.83 850,249.24 " fill="none" id="ListVaccinesController-to-VaccineMapper" style="stroke:#181818;stroke-width:1.0;stroke-dasharray:7.0,7.0;"/><polygon fill="#181818" points="850,255.24,854,246.24,850,250.24,846,246.24,850,255.24" style="stroke:#181818;stroke-width:1.0;"/></g><!--link ListVaccinesController to VaccineDTO--><g id="link_ListVaccinesController_VaccineDTO"><path codeLine="50" d="M929.81,176.11 C956.01,190.42 982.18,210.33 997,237 C1027.54,291.98 1016.5097,359.6608 1001.0897,410.2408 " fill="none" id="ListVaccinesController-to-VaccineDTO" style="stroke:#181818;stroke-width:1.0;stroke-dasharray:7.0,7.0;"/><polygon fill="#181818" points="999.34,415.98,1005.7907,408.5376,1000.7981,411.1973,998.1384,406.2047,999.34,415.98" style="stroke:#181818;stroke-width:1.0;"/></g><!--link Application to RepositoryFactory--><g id="link_Application_RepositoryFactory"><path codeLine="52" d="M142.24,318.8 C152.9,350.87 167.7371,395.4864 179.2771,430.1964 " fill="none" id="Application-to-RepositoryFactory" style="stroke:#181818;stroke-width:1.0;"/><polygon fill="#181818" points="181.17,435.89,182.1263,426.0877,179.5926,431.1454,174.5349,428.6116,181.17,435.89" style="stroke:#181818;stroke-width:1.0;"/><text fill="#000000" font-family="sans-serif" font-size="13" lengthAdjust="spacing" textLength="27.46" x="164" y="382.0283">uses</text><text fill="#000000" font-family="sans-serif" font-size="13" lengthAdjust="spacing" textLength="7.23" x="136.6172" y="340.7672">1</text><text fill="#000000" font-family="sans-serif" font-size="13" lengthAdjust="spacing" textLength="7.23" x="171.3668" y="424.657">1</text></g><!--link Application to VaccineService--><g id="link_Application_VaccineService"><path codeLine="53" d="M257.01,287 C281.12,287 300.81,287 326.21,287 " fill="none" id="Application-to-VaccineService" style="stroke:#181818;stroke-width:1.0;"/><polygon fill="#181818" points="332.21,287,323.21,283,327.21,287,323.21,291,332.21,287" style="stroke:#181818;stroke-width:1.0;"/><text fill="#000000" font-family="sans-serif" font-size="13" lengthAdjust="spacing" textLength="39.0317" x="275.25" y="280.0283">adopts</text></g><!--link RepositoryFactory to VaccineRepository--><g id="link_RepositoryFactory_VaccineRepository"><path codeLine="55" d="M339.03,475.5 C353.79,475.5 362.55,475.5 377.31,475.5 " fill="none" id="RepositoryFactory-to-VaccineRepository" style="stroke:#181818;stroke-width:1.0;stroke-dasharray:7.0,7.0;"/><polygon fill="#181818" points="383.31,475.5,374.31,471.5,378.31,475.5,374.31,479.5,383.31,475.5" style="stroke:#181818;stroke-width:1.0;"/></g><!--link VaccineService to VaccineRepository--><g id="link_VaccineService_VaccineRepository"><path codeLine="57" d="M497.44,337 C490.16,367.87 482.267,401.3101 475.507,429.9801 " fill="none" id="VaccineService-to-VaccineRepository" style="stroke:#181818;stroke-width:1.0;stroke-dasharray:7.0,7.0;"/><polygon fill="#181818" points="474.13,435.82,480.0887,427.9782,475.2775,430.9534,472.3022,426.1422,474.13,435.82" style="stroke:#181818;stroke-width:1.0;"/></g><!--link VaccineService to Vaccine--><g id="link_VaccineService_Vaccine"><path codeLine="58" d="M557.08,337 C583.77,364.2 612.6684,393.6467 639.3984,420.8967 " fill="none" id="VaccineService-to-Vaccine" style="stroke:#181818;stroke-width:1.0;stroke-dasharray:7.0,7.0;"/><polygon fill="#181818" points="643.6,425.18,640.1532,415.954,640.0987,421.6106,634.4421,421.5561,643.6,425.18" style="stroke:#181818;stroke-width:1.0;"/></g><!--link VaccineRepository to Vaccine--><g id="link_VaccineRepository_Vaccine"><path codeLine="60" d="M546.63,475.5 C572.82,475.5 595.46,475.5 620.35,475.5 " fill="none" id="VaccineRepository-to-Vaccine" style="stroke:#181818;stroke-width:1.0;"/><polygon fill="#181818" points="626.35,475.5,617.35,471.5,621.35,475.5,617.35,479.5,626.35,475.5" style="stroke:#181818;stroke-width:1.0;"/><text fill="#000000" font-family="sans-serif" font-size="13" lengthAdjust="spacing" textLength="43.3481" x="565" y="468.5283">records</text><text fill="#000000" font-family="sans-serif" font-size="13" lengthAdjust="spacing" textLength="7.23" x="554.738" y="471.7224">1</text><text fill="#000000" font-family="sans-serif" font-size="13" lengthAdjust="spacing" textLength="19.5127" x="599.1566" y="490.4474">0..*</text></g><!--link VaccineMapper to Vaccine--><g id="link_VaccineMapper_Vaccine"><path codeLine="62" d="M823.91,318.8 C799.37,347.77 766.0987,387.0423 737.4687,420.8323 " fill="none" id="VaccineMapper-to-Vaccine" style="stroke:#181818;stroke-width:1.0;stroke-dasharray:7.0,7.0;"/><polygon fill="#181818" points="733.59,425.41,742.4599,421.1292,736.8222,421.5952,736.3562,415.9576,733.59,425.41" style="stroke:#181818;stroke-width:1.0;"/></g><!--link VaccineMapper to VaccineDTO--><g id="link_VaccineMapper_VaccineDTO"><path codeLine="63" d="M870.97,318.8 C888.87,345.08 911.7221,378.6412 933.6221,410.7912 " fill="none" id="VaccineMapper-to-VaccineDTO" style="stroke:#181818;stroke-width:1.0;stroke-dasharray:7.0,7.0;"/><polygon fill="#181818" points="937,415.75,935.2391,406.0598,934.1851,411.6176,928.6273,410.5637,937,415.75" style="stroke:#181818;stroke-width:1.0;"/></g><!--SRC=[dPDHIyCm4CVVyod2dZQbPRwMKTWKGL04D_OgMNfRWsbIacnZYj_TjAPDksn5x4lJk__zShtyaxCCC6MASa3wWucIA59WoedMSsCKs-mDF54fbkmJy1IXEeEVcJPhGYaJeDSCZlWBVL_AtKjXbEGSb5LW-znYRjDppXl5U9BK5JCNU5YzffurBqlEA35CYXQmWmQ_17LW52f4F-81_NZBE0EuppSefMP6gXDMTZdn6muqd3gLbieiJgjJ2QiSn48HaOrxkg3EDic40RKbjhEmXTcipQPfs_cMYSnsCnwcUSmZeGCqFqjVqHcd3mOJVI5bsJbL8-t1DNF4Xz-t1zbaG72r4QQoA41HHlYx80MuwAQQe5iReBcGNEx2FYpvVo0NiETLCGD3nt5wnSdeYi6hYevVXsIz6Vv1M8qFTU_2w6w4eqmUHPJMw-2y4xpNe7irKNfc-mIJJ9P68nJQ9LPibnlVGSS9wEnEnHTLrqKjeEFr-d_gBQiVciRnpQYH9_OkKgaotTOvwtMHLpFLv7u0]--></g></svg>