<svg xmlns="http://www.w3.org/2000/svg" xmlns:xlink="http://www.w3.org/1999/xlink" contentStyleType="text/css" height="896px" preserveAspectRatio="none" style="width:1957px;height:896px;background:#FFFFFF;" version="1.1" viewBox="0 0 1957 896" width="1957px" zoomAndPan="magnify"><defs/><g><rect fill="#FFFFFF" height="710.7715" style="stroke:#181818;stroke-width:1.0;" width="10" x="44.2344" y="93.6211"/><rect fill="#FFFFFF" height="678.4805" style="stroke:#181818;stroke-width:1.0;" width="10" x="370.5894" y="116.9121"/><rect fill="#FFFFFF" height="615.8984" style="stroke:#181818;stroke-width:1.0;" width="10" x="522.5889" y="148.2031"/><rect fill="#FFFFFF" height="137.4941" style="stroke:#181818;stroke-width:1.0;" width="10" x="679.146" y="179.4941"/><rect fill="#FFFFFF" height="31.291" style="stroke:#181818;stroke-width:1.0;" width="10" x="854.4922" y="210.7852"/><rect fill="#FFFFFF" height="31.291" style="stroke:#181818;stroke-width:1.0;" width="10" x="1032.5571" y="631.9375"/><rect fill="#FFFFFF" height="182.4551" style="stroke:#181818;stroke-width:1.0;" width="10" x="1203.2358" y="348.2793"/><rect fill="#FFFFFF" height="42.291" style="stroke:#181818;stroke-width:1.0;" width="10" x="1208.2358" y="450.1523"/><rect fill="#FFFFFF" height="31.291" style="stroke:#181818;stroke-width:1.0;" width="10" x="1463.0547" y="379.5703"/><rect fill="#FFFFFF" height="38.291" style="stroke:#181818;stroke-width:1.0;" width="10" x="1844.1084" y="694.5195"/><rect fill="none" height="113.1641" style="stroke:#000000;stroke-width:1.5;" width="1512.312" x="439.0029" y="589.3555"/><line style="stroke:#181818;stroke-width:0.5;stroke-dasharray:5.0,5.0;" x1="49" x2="49" y1="83.6211" y2="813.3926"/><line style="stroke:#181818;stroke-width:0.5;stroke-dasharray:5.0,5.0;" x1="375.1758" x2="375.1758" y1="83.6211" y2="813.3926"/><line style="stroke:#181818;stroke-width:0.5;stroke-dasharray:5.0,5.0;" x1="527.0029" x2="527.0029" y1="83.6211" y2="813.3926"/><line style="stroke:#181818;stroke-width:0.5;stroke-dasharray:5.0,5.0;" x1="683.7461" x2="683.7461" y1="83.6211" y2="813.3926"/><line style="stroke:#181818;stroke-width:0.5;stroke-dasharray:5.0,5.0;" x1="858.7441" x2="858.7441" y1="83.6211" y2="813.3926"/><line style="stroke:#181818;stroke-width:0.5;stroke-dasharray:5.0,5.0;" x1="1037.2402" x2="1037.2402" y1="83.6211" y2="813.3926"/><line style="stroke:#181818;stroke-width:0.5;stroke-dasharray:5.0,5.0;" x1="1207.874" x2="1207.874" y1="281.8867" y2="813.3926"/><line style="stroke:#181818;stroke-width:0.5;stroke-dasharray:5.0,5.0;" x1="1467.7378" x2="1467.7378" y1="83.6211" y2="813.3926"/><line style="stroke:#181818;stroke-width:0.5;stroke-dasharray:5.0,5.0;" x1="1652.3716" x2="1652.3716" y1="83.6211" y2="813.3926"/><line style="stroke:#181818;stroke-width:0.5;stroke-dasharray:5.0,5.0;" x1="1848.9019" x2="1848.9019" y1="570.5449" y2="813.3926"/><text fill="#000000" font-family="sans-serif" font-size="14" lengthAdjust="spacing" textLength="82.4688" x="5" y="80.1074">Administrator</text><ellipse cx="49.2344" cy="13.5" fill="#E2E2F0" rx="8" ry="8" style="stroke:#181818;stroke-width:0.5;"/><path d="M49.2344,21.5 L49.2344,48.5 M36.2344,29.5 L62.2344,29.5 M49.2344,48.5 L36.2344,63.5 M49.2344,48.5 L62.2344,63.5 " fill="none" style="stroke:#181818;stroke-width:0.5;"/><text fill="#000000" font-family="sans-serif" font-size="14" lengthAdjust="spacing" textLength="82.4688" x="5" y="827.5">Administrator</text><ellipse cx="49.2344" cy="839.5137" fill="#E2E2F0" rx="8" ry="8" style="stroke:#181818;stroke-width:0.5;"/><path d="M49.2344,847.5137 L49.2344,874.5137 M36.2344,855.5137 L62.2344,855.5137 M49.2344,874.5137 L36.2344,889.5137 M49.2344,874.5137 L62.2344,889.5137 " fill="none" style="stroke:#181818;stroke-width:0.5;"/><rect fill="#E2E2F0" height="32.6211" rx="2.5" ry="2.5" style="stroke:#181818;stroke-width:0.5;" width="126.8271" x="312.1758" y="50"/><text fill="#000000" font-family="sans-serif" font-size="14" lengthAdjust="spacing" textLength="112.8271" x="319.1758" y="72.1074">:ListVaccinesView</text><rect fill="#E2E2F0" height="32.6211" rx="2.5" ry="2.5" style="stroke:#181818;stroke-width:0.5;" width="126.8271" x="312.1758" y="812.3926"/><text fill="#000000" font-family="sans-serif" font-size="14" lengthAdjust="spacing" textLength="112.8271" x="319.1758" y="834.5">:ListVaccinesView</text><rect fill="#E2E2F0" height="32.6211" rx="2.5" ry="2.5" style="stroke:#181818;stroke-width:0.5;" width="157.1719" x="449.0029" y="50"/><text fill="#000000" font-family="sans-serif" font-size="14" lengthAdjust="spacing" textLength="143.1719" x="456.0029" y="72.1074">:ListVaccinesController</text><rect fill="#E2E2F0" height="32.6211" rx="2.5" ry="2.5" style="stroke:#181818;stroke-width:0.5;" width="157.1719" x="449.0029" y="812.3926"/><text fill="#000000" font-family="sans-serif" font-size="14" lengthAdjust="spacing" textLength="143.1719" x="456.0029" y="834.5">:ListVaccinesController</text><rect fill="#E2E2F0" height="32.6211" rx="2.5" ry="2.5" style="stroke:#181818;stroke-width:0.5;" width="42.7998" x="662.7461" y="50"/><text fill="#000000" font-family="sans-serif" font-size="14" lengthAdjust="spacing" textLength="28.7998" x="669.7461" y="72.1074">:App</text><rect fill="#E2E2F0" height="32.6211" rx="2.5" ry="2.5" style="stroke:#181818;stroke-width:0.5;" width="42.7998" x="662.7461" y="812.3926"/><text fill="#000000" font-family="sans-serif" font-size="14" lengthAdjust="spacing" textLength="28.7998" x="669.7461" y="834.5">:App</text><rect fill="#E2E2F0" height="32.6211" rx="2.5" ry="2.5" style="stroke:#181818;stroke-width:0.5;" width="173.4961" x="772.7441" y="50"/><text fill="#000000" font-family="sans-serif" font-size="14" lengthAdjust="spacing" textLength="159.4961" x="779.7441" y="72.1074">factory:RepositoryFactory</text><rect fill="#E2E2F0" height="32.6211" rx="2.5" ry="2.5" style="stroke:#181818;stroke-width:0.5;" width="173.4961" x="772.7441" y="812.3926"/><text fill="#000000" font-family="sans-serif" font-size="14" lengthAdjust="spacing" textLength="159.4961" x="779.7441" y="834.5">factory:RepositoryFactory</text><rect fill="#E2E2F0" height="32.6211" rx="2.5" ry="2.5" style="stroke:#181818;stroke-width:0.5;" width="162.6338" x="956.2402" y="50"/><text fill="#000000" font-family="sans-serif" font-size="14" lengthAdjust="spacing" textLength="148.6338" x="963.2402" y="72.1074">mapper:VaccineMapper</text><rect fill="#E2E2F0" height="32.6211" rx="2.5" ry="2.5" style="stroke:#181818;stroke-width:0.5;" width="162.6338" x="956.2402" y="812.3926"/><text fill="#000000" font-family="sans-serif" font-size="14" lengthAdjust="spacing" textLength="148.6338" x="963.2402" y="834.5">mapper:VaccineMapper</text><rect fill="#E2E2F0" height="32.6211" rx="2.5" ry="2.5" style="stroke:#181818;stroke-width:0.5;" width="158.7236" x="1128.874" y="812.3926"/><text fill="#000000" font-family="sans-serif" font-size="14" lengthAdjust="spacing" textLength="144.7236" x="1135.874" y="834.5">service:VaccineService</text><rect fill="#E2E2F0" height="32.6211" rx="2.5" ry="2.5" style="stroke:#181818;stroke-width:0.5;" width="162.6338" x="1386.7378" y="50"/><text fill="#000000" font-family="sans-serif" font-size="14" lengthAdjust="spacing" textLength="148.6338" x="1393.7378" y="72.1074">repo:VaccineRepository</text><rect fill="#E2E2F0" height="32.6211" rx="2.5" ry="2.5" style="stroke:#181818;stroke-width:0.5;" width="162.6338" x="1386.7378" y="812.3926"/><text fill="#000000" font-family="sans-serif" font-size="14" lengthAdjust="spacing" textLength="148.6338" x="1393.7378" y="834.5">repo:VaccineRepository</text><rect fill="#E2E2F0" height="32.6211" rx="2.5" ry="2.5" style="stroke:#181818;stroke-width:0.5;" width="187.5303" x="1559.3716" y="50"/><text fill="#000000" font-family="sans-serif" font-size="14" lengthAdjust="spacing" textLength="173.5303" x="1566.3716" y="72.1074">listVaccines : List&lt;Vaccine&gt;</text><rect fill="#E2E2F0" height="32.6211" rx="2.5" ry="2.5" style="stroke:#181818;stroke-width:0.5;" width="187.5303" x="1559.3716" y="812.3926"/><text fill="#000000" font-family="sans-serif" font-size="14" lengthAdjust="spacing" textLength="173.5303" x="1566.3716" y="834.5">listVaccines : List&lt;Vaccine&gt;</text><rect fill="#E2E2F0" height="32.6211" rx="2.5" ry="2.5" style="stroke:#181818;stroke-width:0.5;" width="184.4131" x="1756.9019" y="812.3926"/><text fill="#000000" font-family="sans-serif" font-size="14" lengthAdjust="spacing" textLength="170.4131" x="1763.9019" y="834.5">dtoList : List&lt;VaccineDTO&gt;</text><rect fill="#FFFFFF" height="710.7715" style="stroke:#181818;stroke-width:1.0;" width="10" x="44.2344" y="93.6211"/><rect fill="#FFFFFF" height="678.4805" style="stroke:#181818;stroke-width:1.0;" width="10" x="370.5894" y="116.9121"/><rect fill="#FFFFFF" height="615.8984" style="stroke:#181818;stroke-width:1.0;" width="10" x="522.5889" y="148.2031"/><rect fill="#FFFFFF" height="137.4941" style="stroke:#181818;stroke-width:1.0;" width="10" x="679.146" y="179.4941"/><rect fill="#FFFFFF" height="31.291" style="stroke:#181818;stroke-width:1.0;" width="10" x="854.4922" y="210.7852"/><rect fill="#FFFFFF" height="31.291" style="stroke:#181818;stroke-width:1.0;" width="10" x="1032.5571" y="631.9375"/><rect fill="#FFFFFF" height="182.4551" style="stroke:#181818;stroke-width:1.0;" width="10" x="1203.2358" y="348.2793"/><rect fill="#FFFFFF" height="42.291" style="stroke:#181818;stroke-width:1.0;" width="10" x="1208.2358" y="450.1523"/><rect fill="#FFFFFF" height="31.291" style="stroke:#181818;stroke-width:1.0;" width="10" x="1463.0547" y="379.5703"/><rect fill="#FFFFFF" height="38.291" style="stroke:#181818;stroke-width:1.0;" width="10" x="1844.1084" y="694.5195"/><polygon fill="#181818" points="358.5894,112.9121,368.5894,116.9121,358.5894,120.9121,362.5894,116.9121" style="stroke:#181818;stroke-width:1.0;"/><line style="stroke:#181818;stroke-width:1.0;" x1="54.2344" x2="364.5894" y1="116.9121" y2="116.9121"/><text fill="#000000" font-family="sans-serif" font-size="13" font-weight="bold" lengthAdjust="spacing" textLength="7.23" x="61.2344" y="111.6494">1</text><text fill="#000000" font-family="sans-serif" font-size="13" lengthAdjust="spacing" textLength="131.4917" x="72.4644" y="111.6494">asks to list all vaccines</text><polygon fill="#181818" points="510.5889,144.2031,520.5889,148.2031,510.5889,152.2031,514.5889,148.2031" style="stroke:#181818;stroke-width:1.0;"/><line style="stroke:#181818;stroke-width:1.0;" x1="380.5894" x2="516.5889" y1="148.2031" y2="148.2031"/><text fill="#000000" font-family="sans-serif" font-size="13" font-weight="bold" lengthAdjust="spacing" textLength="7.23" x="387.5894" y="142.9404">2</text><text fill="#000000" font-family="sans-serif" font-size="13" lengthAdjust="spacing" textLength="91.7427" x="398.8193" y="142.9404">listAllVaccines()</text><polygon fill="#181818" points="667.146,175.4941,677.146,179.4941,667.146,183.4941,671.146,179.4941" style="stroke:#181818;stroke-width:1.0;"/><line style="stroke:#181818;stroke-width:1.0;" x1="532.5889" x2="673.146" y1="179.4941" y2="179.4941"/><text fill="#000000" font-family="sans-serif" font-size="13" font-weight="bold" lengthAdjust="spacing" textLength="7.23" x="539.5889" y="174.2314">3</text><text fill="#000000" font-family="sans-serif" font-size="13" lengthAdjust="spacing" textLength="116.3271" x="550.8188" y="174.2314">getVaccineService()</text><polygon fill="#181818" points="842.4922,206.7852,852.4922,210.7852,842.4922,214.7852,846.4922,210.7852" style="stroke:#181818;stroke-width:1.0;"/><line style="stroke:#181818;stroke-width:1.0;" x1="689.146" x2="848.4922" y1="210.7852" y2="210.7852"/><text fill="#000000" font-family="sans-serif" font-size="13" font-weight="bold" lengthAdjust="spacing" textLength="7.23" x="696.146" y="205.5225">4</text><text fill="#000000" font-family="sans-serif" font-size="13" lengthAdjust="spacing" textLength="135.1162" x="707.376" y="205.5225">getVaccineRepository()</text><polygon fill="#181818" points="700.146,238.0762,690.146,242.0762,700.146,246.0762,696.146,242.0762" style="stroke:#181818;stroke-width:1.0;"/><line style="stroke:#181818;stroke-width:1.0;stroke-dasharray:2.0,2.0;" x1="694.146" x2="858.4922" y1="242.0762" y2="242.0762"/><text fill="#000000" font-family="sans-serif" font-size="13" font-weight="bold" lengthAdjust="spacing" textLength="7.23" x="706.146" y="236.8135">5</text><text fill="#000000" font-family="sans-serif" font-size="13" lengthAdjust="spacing" textLength="26.019" x="717.376" y="236.8135">repo</text><polygon fill="#181818" points="1116.874,269.3672,1126.874,273.3672,1116.874,277.3672,1120.874,273.3672" style="stroke:#181818;stroke-width:1.0;"/><line style="stroke:#181818;stroke-width:1.0;stroke-dasharray:2.0,2.0;" x1="689.146" x2="1122.874" y1="273.3672" y2="273.3672"/><text fill="#000000" font-family="sans-serif" font-size="13" font-weight="bold" lengthAdjust="spacing" textLength="7.23" x="696.146" y="268.1045">6</text><text fill="#000000" font-family="sans-serif" font-size="13" lengthAdjust="spacing" textLength="70.8081" x="707.376" y="268.1045">create(repo)</text><rect fill="#E2E2F0" height="32.6211" rx="2.5" ry="2.5" style="stroke:#181818;stroke-width:0.5;" width="158.7236" x="1128.874" y="250.0762"/><text fill="#000000" font-family="sans-serif" font-size="14" lengthAdjust="spacing" textLength="144.7236" x="1135.874" y="272.1836">service:VaccineService</text><polygon fill="#181818" points="543.5889,312.9883,533.5889,316.9883,543.5889,320.9883,539.5889,316.9883" style="stroke:#181818;stroke-width:1.0;"/><line style="stroke:#181818;stroke-width:1.0;stroke-dasharray:2.0,2.0;" x1="537.5889" x2="683.146" y1="316.9883" y2="316.9883"/><text fill="#000000" font-family="sans-serif" font-size="13" font-weight="bold" lengthAdjust="spacing" textLength="7.23" x="549.5889" y="311.7256">7</text><text fill="#000000" font-family="sans-serif" font-size="13" lengthAdjust="spacing" textLength="41.1772" x="560.8188" y="311.7256">service</text><polygon fill="#181818" points="1191.2358,344.2793,1201.2358,348.2793,1191.2358,352.2793,1195.2358,348.2793" style="stroke:#181818;stroke-width:1.0;"/><line style="stroke:#181818;stroke-width:1.0;" x1="532.5889" x2="1197.2358" y1="348.2793" y2="348.2793"/><text fill="#000000" font-family="sans-serif" font-size="13" font-weight="bold" lengthAdjust="spacing" textLength="7.23" x="539.5889" y="343.0166">8</text><text fill="#000000" font-family="sans-serif" font-size="13" lengthAdjust="spacing" textLength="93.9263" x="550.8188" y="343.0166">getAllVaccines()</text><polygon fill="#181818" points="1451.0547,375.5703,1461.0547,379.5703,1451.0547,383.5703,1455.0547,379.5703" style="stroke:#181818;stroke-width:1.0;"/><line style="stroke:#181818;stroke-width:1.0;" x1="1213.2358" x2="1457.0547" y1="379.5703" y2="379.5703"/><text fill="#000000" font-family="sans-serif" font-size="13" font-weight="bold" lengthAdjust="spacing" textLength="7.23" x="1220.2358" y="374.3076">9</text><text fill="#000000" font-family="sans-serif" font-size="13" lengthAdjust="spacing" textLength="44.0654" x="1231.4658" y="374.3076">findAll()</text><polygon fill="#181818" points="1224.2358,406.8613,1214.2358,410.8613,1224.2358,414.8613,1220.2358,410.8613" style="stroke:#181818;stroke-width:1.0;"/><line style="stroke:#181818;stroke-width:1.0;stroke-dasharray:2.0,2.0;" x1="1218.2358" x2="1467.0547" y1="410.8613" y2="410.8613"/><text fill="#000000" font-family="sans-serif" font-size="13" font-weight="bold" lengthAdjust="spacing" textLength="14.46" x="1230.2358" y="405.5986">10</text><text fill="#000000" font-family="sans-serif" font-size="13" lengthAdjust="spacing" textLength="68.6372" x="1248.6958" y="405.5986">listVaccines</text><line style="stroke:#181818;stroke-width:1.0;" x1="1213.2358" x2="1260.2358" y1="437.1523" y2="437.1523"/><line style="stroke:#181818;stroke-width:1.0;" x1="1260.2358" x2="1260.2358" y1="437.1523" y2="450.1523"/><line style="stroke:#181818;stroke-width:1.0;" x1="1219.2358" x2="1260.2358" y1="450.1523" y2="450.1523"/><polygon fill="#181818" points="1229.2358,446.1523,1219.2358,450.1523,1229.2358,454.1523,1225.2358,450.1523" style="stroke:#181818;stroke-width:1.0;"/><text fill="#000000" font-family="sans-serif" font-size="13" font-weight="bold" lengthAdjust="spacing" textLength="14.46" x="1225.2358" y="431.8896">11</text><text fill="#000000" font-family="sans-serif" font-size="13" lengthAdjust="spacing" textLength="207.3589" x="1243.6958" y="431.8896">sortByTypeThenBrand(listVaccines)</text><line style="stroke:#181818;stroke-width:1.0;stroke-dasharray:2.0,2.0;" x1="1218.2358" x2="1260.2358" y1="491.4434" y2="491.4434"/><line style="stroke:#181818;stroke-width:1.0;stroke-dasharray:2.0,2.0;" x1="1260.2358" x2="1260.2358" y1="491.4434" y2="504.4434"/><line style="stroke:#181818;stroke-width:1.0;stroke-dasharray:2.0,2.0;" x1="1213.2358" x2="1260.2358" y1="504.4434" y2="504.4434"/><polygon fill="#181818" points="1223.2358,500.4434,1213.2358,504.4434,1223.2358,508.4434,1219.2358,504.4434" style="stroke:#181818;stroke-width:1.0;"/><text fill="#000000" font-family="sans-serif" font-size="13" font-weight="bold" lengthAdjust="spacing" textLength="14.46" x="1225.2358" y="486.1807">12</text><text fill="#000000" font-family="sans-serif" font-size="13" lengthAdjust="spacing" textLength="13.73" x="1243.6958" y="486.1807">ok</text><polygon fill="#181818" points="543.5889,526.7344,533.5889,530.7344,543.5889,534.7344,539.5889,530.7344" style="stroke:#181818;stroke-width:1.0;"/><line style="stroke:#181818;stroke-width:1.0;stroke-dasharray:2.0,2.0;" x1="537.5889" x2="1207.2358" y1="530.7344" y2="530.7344"/><text fill="#000000" font-family="sans-serif" font-size="13" font-weight="bold" lengthAdjust="spacing" textLength="14.46" x="549.5889" y="525.4717">13</text><text fill="#000000" font-family="sans-serif" font-size="13" lengthAdjust="spacing" textLength="68.6372" x="568.0488" y="525.4717">listVaccines</text><polygon fill="#181818" points="1744.9019,558.0254,1754.9019,562.0254,1744.9019,566.0254,1748.9019,562.0254" style="stroke:#181818;stroke-width:1.0;"/><line style="stroke:#181818;stroke-width:1.0;" x1="532.5889" x2="1750.9019" y1="562.0254" y2="562.0254"/><text fill="#000000" font-family="sans-serif" font-size="13" font-weight="bold" lengthAdjust="spacing" textLength="14.46" x="539.5889" y="556.7627">14</text><text fill="#000000" font-family="sans-serif" font-size="13" lengthAdjust="spacing" textLength="44.7891" x="558.0488" y="556.7627">create()</text><rect fill="#E2E2F0" height="32.6211" rx="2.5" ry="2.5" style="stroke:#181818;stroke-width:0.5;" width="184.4131" x="1756.9019" y="538.7344"/><text fill="#000000" font-family="sans-serif" font-size="14" lengthAdjust="spacing" textLength="170.4131" x="1763.9019" y="560.8418">dtoList : List&lt;VaccineDTO&gt;</text><path d="M439.0029,589.3555 L511.4375,589.3555 L511.4375,598.6465 L501.4375,608.6465 L439.0029,608.6465 L439.0029,589.3555 " fill="#EEEEEE" style="stroke:#000000;stroke-width:1.5;"/><rect fill="none" height="113.1641" style="stroke:#000000;stroke-width:1.5;" width="1512.312" x="439.0029" y="589.3555"/><text fill="#000000" font-family="sans-serif" font-size="13" font-weight="bold" lengthAdjust="spacing" textLength="27.4346" x="454.0029" y="604.3838">loop</text><text fill="#000000" font-family="sans-serif" font-size="11" font-weight="bold" lengthAdjust="spacing" textLength="173.019" x="526.4375" y="603.2256">[for each vaccine in listVaccines]</text><polygon fill="#181818" points="1020.5571,627.9375,1030.5571,631.9375,1020.5571,635.9375,1024.5571,631.9375" style="stroke:#181818;stroke-width:1.0;"/><line style="stroke:#181818;stroke-width:1.0;" x1="532.5889" x2="1026.5571" y1="631.9375" y2="631.9375"/><text fill="#000000" font-family="sans-serif" font-size="13" font-weight="bold" lengthAdjust="spacing" textLength="14.46" x="539.5889" y="626.6748">15</text><text fill="#000000" font-family="sans-serif" font-size="13" lengthAdjust="spacing" textLength="91.019" x="558.0488" y="626.6748">toDTO(vaccine)</text><polygon fill="#181818" points="543.5889,659.2285,533.5889,663.2285,543.5889,667.2285,539.5889,663.2285" style="stroke:#181818;stroke-width:1.0;"/><line style="stroke:#181818;stroke-width:1.0;stroke-dasharray:2.0,2.0;" x1="537.5889" x2="1036.5571" y1="663.2285" y2="663.2285"/><text fill="#000000" font-family="sans-serif" font-size="13" font-weight="bold" lengthAdjust="spacing" textLength="14.46" x="549.5889" y="657.9658">16</text><text fill="#000000" font-family="sans-serif" font-size="13" lengthAdjust="spacing" textLength="156.0444" x="568.0488" y="657.9658">vaccineDTO : VaccineDTO</text><polygon fill="#181818" points="1832.1084,690.5195,1842.1084,694.5195,1832.1084,698.5195,1836.1084,694.5195" style="stroke:#181818;stroke-width:1.0;"/><line style="stroke:#181818;stroke-width:1.0;" x1="532.5889" x2="1838.1084" y1="694.5195" y2="694.5195"/><text fill="#000000" font-family="sans-serif" font-size="13" font-weight="bold" lengthAdjust="spacing" textLength="14.46" x="539.5889" y="689.2568">17</text><text fill="#000000" font-family="sans-serif" font-size="13" lengthAdjust="spacing" textLength="101.8672" x="558.0488" y="689.2568">add(vaccineDTO)</text><polygon fill="#181818" points="543.5889,728.8105,533.5889,732.8105,543.5889,736.8105,539.5889,732.8105" style="stroke:#181818;stroke-width:1.0;"/><line style="stroke:#181818;stroke-width:1.0;stroke-dasharray:2.0,2.0;" x1="537.5889" x2="1848.1084" y1="732.8105" y2="732.8105"/><text fill="#000000" font-family="sans-serif" font-size="13" font-weight="bold" lengthAdjust="spacing" textLength="14.46" x="549.5889" y="727.5479">18</text><text fill="#000000" font-family="sans-serif" font-size="13" lengthAdjust="spacing" textLength="85.2427" x="568.0488" y="727.5479">return ListDTO</text><polygon fill="#181818" points="391.5894,760.1016,381.5894,764.1016,391.5894,768.1016,387.5894,764.1016" style="stroke:#181818;stroke-width:1.0;"/><line style="stroke:#181818;stroke-width:1.0;stroke-dasharray:2.0,2.0;" x1="385.5894" x2="526.5889" y1="764.1016" y2="764.1016"/><text fill="#000000" font-family="sans-serif" font-size="13" font-weight="bold" lengthAdjust="spacing" textLength="14.46" x="397.5894" y="758.8389">19</text><text fill="#000000" font-family="sans-serif" font-size="13" lengthAdjust="spacing" textLength="38.3018" x="416.0493" y="758.8389">dtoList</text><polygon fill="#181818" points="65.2344,791.3926,55.2344,795.3926,65.2344,799.3926,61.2344,795.3926" style="stroke:#181818;stroke-width:1.0;"/><line style="stroke:#181818;stroke-width:1.0;stroke-dasharray:2.0,2.0;" x1="59.2344" x2="374.5894" y1="795.3926" y2="795.3926"/><text fill="#000000" font-family="sans-serif" font-size="13" font-weight="bold" lengthAdjust="spacing" textLength="14.46" x="71.2344" y="790.1299">20</text><text fill="#000000" font-family="sans-serif" font-size="13" lengthAdjust="spacing" textLength="273.895" x="89.6943" y="790.1299">displays grouped and alphabetically ordered list</text><!--SRC=[VLHDRzim3BtxLn2zp2cG5Fiu6KM1fC600XioR5dlYiqaMXL9aEGC-VSZ9Vb3FIoNYE8ZHRv7MlJ1Y3R8gmW8HbU2RDrV3kYgYkwDWxjrTv5Q-k04cNSWFCIRoWeNP2kjq07kcc-4U1LjApNwLub_8v0F_y4z6nsSKGfJskVWr3lqsjhqehMbvnYBkpK_qHel-VWrtKHuFfSX5s4jkYO__ZrQ4PsE9TYZkyeM1_IlP4PuFfTuHtKCuAccY6Up1AiP1z00K_AOxQSOCYUf3Es2OUUxgEr-DmMI4RLBcYQjglW7owSeIKFGDm_105S2GYcu3g-ndt4iHXFzQwM6Mkf5LNrOBfVmSGKxrvunJeKq6XvWYnPrXxgzmOl-Wssy9cp5cJWZQTZ02KD9AQKa1_kpQ307JLGIRW0iXsHCUegccvpl_hw1rY6rNhDxCVfJGrbNQYFB3j8J6xw_OCU47134LKWb3WeVPEm3kzpqfnLipKL8tS1M107hjaLFqRg3JU-P7nAxLrXqdSkAJPLCPW-3kCq6Zb9t166I-MBULL9Y78bPw0ZmneNDRN-pk3-ZtZWggvu7pHwSXvctudwIVNmiDV-Pcj_l8cbIdw3-_G8QhyIVHnhYBlAoA3hFipWJP54fOomSwQk2eZqFGmSqcSMBGByXIrAf8MqeLvqZ5X6I1PpAlexRG4CqhKQHBrT5Az1rzHImg6XuWSkhCcBC2pneeNTwtAwKQrocl9EPg2yh-E7GemvYN86qL3osl8OK8RrLukRXv4nlQV9uXeIoPt50sdLQo1iOrw4Z5pDJ_GC0]--></g></svg>